<?xml version="1.0" encoding="UTF-8" standalone="no"?>
<svg
   xmlns:dc="http://purl.org/dc/elements/1.1/"
   xmlns:cc="http://creativecommons.org/ns#"
   xmlns:rdf="http://www.w3.org/1999/02/22-rdf-syntax-ns#"
   xmlns:svg="http://www.w3.org/2000/svg"
   xmlns="http://www.w3.org/2000/svg"
   xmlns:xlink="http://www.w3.org/1999/xlink"
   xmlns:sodipodi="http://sodipodi.sourceforge.net/DTD/sodipodi-0.dtd"
   xmlns:inkscape="http://www.inkscape.org/namespaces/inkscape"
   width="600"
   height="480"
   viewBox="0 0 600 480"
   id="svg2"
   version="1.1"
   inkscape:version="0.48.3.1 r9886"
   sodipodi:docname="ink_ext_XXXXXX.svg62OH6W">
  <sodipodi:namedview
     pagecolor="#000000"
     bordercolor="#666666"
     borderopacity="1"
     objecttolerance="10"
     gridtolerance="10"
     guidetolerance="10"
     inkscape:pageopacity="1"
     inkscape:pageshadow="2"
     inkscape:window-width="1366"
     inkscape:window-height="746"
     id="namedview157"
     showgrid="false"
     inkscape:zoom="1.3906433"
     inkscape:cx="297.83376"
     inkscape:cy="261.74485"
     inkscape:window-x="0"
     inkscape:window-y="22"
     inkscape:window-maximized="0"
     inkscape:current-layer="svg2" />
  <metadata
     id="metadata161">
    <rdf:RDF>
      <cc:Work
         rdf:about="">
        <dc:format>image/svg+xml</dc:format>
        <dc:type
           rdf:resource="http://purl.org/dc/dcmitype/StillImage" />
      </cc:Work>
    </rdf:RDF>
  </metadata>
  <defs
     id="defs159">
    <defs
       id="defs11">
      <circle
         id="gpDot"
         r="0.5"
         stroke-width="0.5" />
      <path
         id="gpPt0"
         stroke-width="0.222"
         stroke="currentColor"
         d="M-1,0 h2 M0,-1 v2" />
      <path
         id="gpPt1"
         stroke-width="0.222"
         stroke="currentColor"
         d="M-1,-1 L1,1 M1,-1 L-1,1" />
      <path
         id="gpPt2"
         stroke-width="0.222"
         stroke="currentColor"
         d="M-1,0 L1,0 M0,-1 L0,1 M-1,-1 L1,1 M-1,1 L1,-1" />
      <rect
         id="gpPt3"
         stroke-width="0.222"
         stroke="currentColor"
         x="-1"
         y="-1"
         width="2"
         height="2" />
      <rect
         id="gpPt4"
         stroke-width="0.222"
         stroke="currentColor"
         fill="currentColor"
         x="-1"
         y="-1"
         width="2"
         height="2" />
      <circle
         id="gpPt5"
         stroke-width="0.222"
         stroke="currentColor"
         cx="0"
         cy="0"
         r="1" />
      <use
         xlink:href="#gpPt5"
         id="gpPt6"
         fill="currentColor"
         stroke="none" />
      <path
         id="gpPt7"
         stroke-width="0.222"
         stroke="currentColor"
         d="M0,-1.33 L-1.33,0.67 L1.33,0.67 z" />
      <use
         xlink:href="#gpPt7"
         id="gpPt8"
         fill="currentColor"
         stroke="none" />
      <use
         xlink:href="#gpPt7"
         id="gpPt9"
         stroke="currentColor"
         transform="rotate(180)" />
      <use
         xlink:href="#gpPt9"
         id="gpPt10"
         fill="currentColor"
         stroke="none" />
      <use
         xlink:href="#gpPt3"
         id="gpPt11"
         stroke="currentColor"
         transform="rotate(45)" />
      <use
         xlink:href="#gpPt11"
         id="gpPt12"
         fill="currentColor"
         stroke="none" />
    </defs>
  </defs>
  <title
     id="title4">Gnuplot</title>
  <desc
     id="desc6">Produced by GNUPLOT 4.6 patchlevel 0 </desc>
  <rect
     x="0"
     y="0"
     width="600"
     height="480"
     id="rect9"
     style="fill:none" />
  <g
     style="color:#ffffff;fill:none;stroke:currentColor;stroke-width:1;stroke-linecap:butt;stroke-linejoin:miter"
     id="g27" />
  <g
     style="color:#000000;fill:none;stroke:#ffffff;stroke-width:1;stroke-linecap:butt;stroke-linejoin:miter"
     id="g29">
    <path
       style="stroke:#ffffff"
       d="m 37.3,422.4 9,0 m 528.7,0 -9,0 h 0.01"
       id="path31"
       inkscape:connector-curvature="0" />
    <g
       transform="translate(29,426.9)"
       style="font-size:15px;text-anchor:end;fill:#000000;stroke:#ffffff;font-family:Arial"
       id="g33">
      <text
         style="stroke:#ffffff"
         id="text35">-8</text>
    </g>
    <path
       style="stroke:#ffffff"
       d="m 37.3,371.7 9,0 m 528.7,0 -9,0 h 0.01"
       id="path37"
       inkscape:connector-curvature="0" />
    <g
       transform="translate(29,376.2)"
       style="font-size:15px;text-anchor:end;fill:#000000;stroke:#ffffff;font-family:Arial"
       id="g39">
      <text
         style="stroke:#ffffff"
         id="text41">-6</text>
    </g>
    <path
       style="stroke:#ffffff"
       d="m 37.3,321 9,0 m 528.7,0 -9,0 h 0.01"
       id="path43"
       inkscape:connector-curvature="0" />
    <g
       transform="translate(29,325.5)"
       style="font-size:15px;text-anchor:end;fill:#000000;stroke:#ffffff;font-family:Arial"
       id="g45">
      <text
         style="stroke:#ffffff"
         id="text47">-4</text>
    </g>
    <path
       style="stroke:#ffffff"
       d="m 37.3,270.3 9,0 m 528.7,0 -9,0 h 0.01"
       id="path49"
       inkscape:connector-curvature="0" />
    <g
       transform="translate(29,274.8)"
       style="font-size:15px;text-anchor:end;fill:#000000;stroke:#ffffff;font-family:Arial"
       id="g51">
      <text
         style="stroke:#ffffff"
         id="text53">-2</text>
    </g>
    <path
       style="stroke:#ffffff"
       d="m 37.3,219.5 9,0 m 528.7,0 -9,0 h 0.01"
       id="path55"
       inkscape:connector-curvature="0" />
    <g
       transform="translate(29,224)"
       style="font-size:15px;text-anchor:end;fill:#000000;stroke:#ffffff;font-family:Arial"
       id="g57">
      <text
         style="stroke:#ffffff"
         id="text59">0</text>
    </g>
    <path
       style="stroke:#ffffff"
       d="m 37.3,168.8 9,0 m 528.7,0 -9,0 h 0.01"
       id="path61"
       inkscape:connector-curvature="0" />
    <g
       transform="translate(29,173.3)"
       style="font-size:15px;text-anchor:end;fill:#000000;stroke:#ffffff;font-family:Arial"
       id="g63">
      <text
         style="stroke:#ffffff"
         id="text65">2</text>
    </g>
    <path
       style="stroke:#ffffff"
       d="m 37.3,118.1 9,0 m 528.7,0 -9,0 h 0.01"
       id="path67"
       inkscape:connector-curvature="0" />
    <g
       transform="translate(29,122.6)"
       style="font-size:15px;text-anchor:end;fill:#000000;stroke:#ffffff;font-family:Arial"
       id="g69">
      <text
         style="stroke:#ffffff"
         id="text71">4</text>
    </g>
    <path
       style="stroke:#ffffff"
       d="m 37.3,67.4 9,0 m 528.7,0 -9,0 h 0.01"
       id="path73"
       inkscape:connector-curvature="0" />
    <g
       transform="translate(29,71.9)"
       style="font-size:15px;text-anchor:end;fill:#000000;stroke:#ffffff;font-family:Arial"
       id="g75">
      <text
         style="stroke:#ffffff"
         id="text77">6</text>
    </g>
    <path
       style="stroke:#ffffff"
       d="m 37.3,16.7 9,0 m 528.7,0 -9,0 h 0.01"
       id="path79"
       inkscape:connector-curvature="0" />
    <g
       transform="translate(29,21.2)"
       style="font-size:15px;text-anchor:end;fill:#000000;stroke:#ffffff;font-family:Arial"
       id="g81">
      <text
         style="stroke:#ffffff"
         id="text83">8</text>
    </g>
    <path
       style="stroke:#ffffff"
       d="m 49.4,422.4 0,-9 m 0,-396.7 0,9 h 0.01"
       id="path85"
       inkscape:connector-curvature="0" />
    <g
       transform="translate(49.4,444.9)"
       style="font-size:15px;text-anchor:middle;fill:#000000;stroke:#ffffff;font-family:Arial"
       id="g87">
      <text
         style="stroke:#ffffff"
         id="text89">-6</text>
    </g>
    <path
       style="stroke:#ffffff"
       d="m 135,422.4 0,-9 m 0,-396.7 0,9 h 0.01"
       id="path91"
       inkscape:connector-curvature="0" />
    <g
       transform="translate(135,444.9)"
       style="font-size:15px;text-anchor:middle;fill:#000000;stroke:#ffffff;font-family:Arial"
       id="g93">
      <text
         style="stroke:#ffffff"
         id="text95">-4</text>
    </g>
    <path
       style="stroke:#ffffff"
       d="m 220.6,422.4 0,-9 m 0,-396.7 0,9 h 0.01"
       id="path97"
       inkscape:connector-curvature="0" />
    <g
       transform="translate(220.6,444.9)"
       style="font-size:15px;text-anchor:middle;fill:#000000;stroke:#ffffff;font-family:Arial"
       id="g99">
      <text
         style="stroke:#ffffff"
         id="text101">-2</text>
    </g>
    <path
       style="stroke:#ffffff"
       d="m 306.2,422.4 0,-9 m 0,-396.7 0,9 h 0.01"
       id="path103"
       inkscape:connector-curvature="0" />
    <g
       transform="translate(306.2,444.9)"
       style="font-size:15px;text-anchor:middle;fill:#000000;stroke:#ffffff;font-family:Arial"
       id="g105">
      <text
         style="stroke:#ffffff"
         id="text107">0</text>
    </g>
    <path
       style="stroke:#ffffff"
       d="m 391.7,422.4 0,-9 m 0,-396.7 0,9 h 0.01"
       id="path109"
       inkscape:connector-curvature="0" />
    <g
       transform="translate(391.7,444.9)"
       style="font-size:15px;text-anchor:middle;fill:#000000;stroke:#ffffff;font-family:Arial"
       id="g111">
      <text
         style="stroke:#ffffff"
         id="text113">2</text>
    </g>
    <path
       style="stroke:#ffffff"
       d="m 477.3,422.4 0,-9 m 0,-396.7 0,9 h 0.01"
       id="path115"
       inkscape:connector-curvature="0" />
    <g
       transform="translate(477.3,444.9)"
       style="font-size:15px;text-anchor:middle;fill:#000000;stroke:#ffffff;font-family:Arial"
       id="g117">
      <text
         style="stroke:#ffffff"
         id="text119">4</text>
    </g>
    <path
       style="stroke:#ffffff"
       d="m 562.9,422.4 0,-9 m 0,-396.7 0,9 h 0.01"
       id="path121"
       inkscape:connector-curvature="0" />
    <g
       transform="translate(562.9,444.9)"
       style="font-size:15px;text-anchor:middle;fill:#000000;stroke:#ffffff;font-family:Arial"
       id="g123">
      <text
         style="stroke:#ffffff"
         id="text125">6</text>
    </g>
  </g>
  <g
     style="color:#808080;fill:none;stroke:currentColor;stroke-width:1;stroke-linecap:butt;stroke-linejoin:miter"
     id="g127">
    <path
       d="m 37.3,219.5 537.7,0 m -268.8,202.9 0,-405.7 h 0.01"
       id="path129"
       inkscape:connector-curvature="0" />
  </g>
  <g
     style="color:#000000;fill:none;stroke:currentColor;stroke-width:1;stroke-linecap:butt;stroke-linejoin:miter"
     id="g131">
    <path
       d="m 37.3,16.7 0,405.7 537.7,0 0,-405.7 -537.7,0 z m 0,0 h 0.01"
       id="path133"
       inkscape:connector-curvature="0" />
    <g
       transform="translate(306.1,471.9)"
       style="font-size:15px;text-anchor:middle;fill:#000000;stroke:none;font-family:Arial"
       id="g135">
      <text
         id="text137">x</text>
    </g>
  </g>
  <g
     style="stroke:#add8e6;stroke-opacity:1"
     id="gnuplot_plot_1">
    <title
       id="title140">gnuplot_plot_1</title>
    <g
       style="color:#0000ff;fill:none;stroke:#add8e6;stroke-width:1;stroke-linecap:butt;stroke-linejoin:miter;stroke-opacity:1"
       id="g142">
      <path
         style="stroke:#add8e6;stroke-opacity:1"
         d="m 37.3,378.9 4.6,-2.8 4.7,-2.7 4.6,-2.8 4.6,-2.7 4.7,-2.8 4.6,-2.7 4.6,-2.8 4.7,-2.7 4.6,-2.8 4.7,-2.7 4.6,-2.7 4.6,-2.8 4.7,-2.7 4.6,-2.8 4.6,-2.7 4.7,-2.8 4.6,-2.7 4.6,-2.8 4.7,-2.7 4.6,-2.8 4.6,-2.7 4.7,-2.8 4.6,-2.7 4.6,-2.8 4.7,-2.7 4.6,-2.8 4.7,-2.7 4.6,-2.7 4.6,-2.8 4.7,-2.7 4.6,-2.8 4.6,-2.7 4.7,-2.8 4.6,-2.7 4.6,-2.8 4.7,-2.7 4.6,-2.8 4.6,-2.7 4.7,-2.8 4.6,-2.7 4.6,-2.8 4.7,-2.7 4.6,-2.7 4.7,-2.8 4.6,-2.7 4.6,-2.8 4.7,-2.7 4.6,-2.8 4.6,-2.7 4.7,-2.8 4.6,-2.7 4.6,-2.8 4.7,-2.7 4.6,-2.8 4.6,-2.7 4.7,-2.8 4.6,-2.7 4.7,-2.8 4.6,-2.7 4.6,-2.7 4.7,-2.8 4.6,-2.7 4.6,-2.8 4.7,-2.7 4.6,-2.8 4.6,-2.7 4.7,-2.8 4.6,-2.7 4.6,-2.8 4.7,-2.7 4.6,-2.8 4.6,-2.7 4.7,-2.8 4.6,-2.7 4.7,-2.7 4.6,-2.8 4.6,-2.7 4.7,-2.8 4.6,-2.7 4.6,-2.8 4.7,-2.7 4.6,-2.8 4.6,-2.7 4.7,-2.8 4.6,-2.7 4.6,-2.8 4.7,-2.7 4.6,-2.8 4.6,-2.7 4.7,-2.7 4.6,-2.8 4.7,-2.7 4.6,-2.8 4.6,-2.7 4.7,-2.8 4.6,-2.7 4.6,-2.8 4.7,-2.7 4.6,-2.8 4.6,-2.7 4.7,-2.8 4.6,-2.7 4.6,-2.8 4.7,-2.7 4.6,-2.8 4.6,-2.7 4.7,-2.7 4.6,-2.8 4.7,-2.7 4.6,-2.8 4.6,-2.7 4.7,-2.8 4.6,-2.7 4.6,-2.8 4.7,-2.7 4.6,-2.8 h 0.01"
         id="path144"
         inkscape:connector-curvature="0" />
    </g>
  </g>
  <g
     style="stroke:#ffc0cb;stroke-opacity:1"
     id="gnuplot_plot_2">
    <title
       id="title147">gnuplot_plot_2</title>
    <g
       style="color:#ff0000;fill:none;stroke:#ffc0cb;stroke-width:1;stroke-linecap:butt;stroke-linejoin:miter;stroke-opacity:1"
       id="g149">
      <path
         style="stroke:#ffc0cb;stroke-opacity:1"
         d="m 37.3,219.5 0.1,0 0.2,0 0.1,0 0.2,0 0.1,0 0.2,0 0.1,0 0.2,0 0.1,0 0.1,0 0.2,0 0.1,0 0.2,0 0.1,0 0.2,0 0.1,0 0.2,0 0.1,-0.1 0.2,0 0.1,0 0.1,0 0.2,0 0.1,-0.1 0.2,0 0.3,-0.1 0.3,0 0.2,-0.1 0.3,-0.1 0.6,-0.2 0.6,-0.3 0.6,-0.3 0.6,-0.4 0.2,-0.2 0.3,-0.2 0.3,-0.2 0.3,-0.3 0.3,-0.2 0.3,-0.3 0.3,-0.2 0.3,-0.3 0.3,-0.3 0.3,-0.3 0.2,-0.3 0.3,-0.3 0.3,-0.3 0.3,-0.4 0.3,-0.3 0.3,-0.3 0.3,-0.4 0.3,-0.3 0.3,-0.3 0.2,-0.4 0.3,-0.3 0.3,-0.4 0.3,-0.3 0.3,-0.4 0.3,-0.3 0.3,-0.3 0.3,-0.4 0.3,-0.3 0.3,-0.3 0.2,-0.3 0.3,-0.3 0.3,-0.3 0.6,-0.6 0.6,-0.5 0.6,-0.5 0.5,-0.4 0.3,-0.2 0.3,-0.2 0.3,-0.1 0.3,-0.2 0.3,-0.1 0.3,-0.2 0.3,-0.1 0.3,-0.1 0.2,-0.1 0.3,-0.1 0.3,0 0.3,-0.1 0.2,0 0.1,-0.1 0.2,0 0.1,0 0.1,0 0.2,0 0.1,0 0.2,-0.1 0.1,0 0.2,0 0.1,0 0.2,0 0.1,0 0.1,0 0.2,0 0.1,0 0.2,0 0.1,0 0.2,0 0.1,0 0.2,0 0.1,0 0.1,0 0.2,0 0.1,0 0.2,0 0.1,0 0.2,0 0.1,0 0.2,0 0.1,0 0.2,0 0.1,0 0.1,0 0.2,0 0.1,0 0.2,0 0.1,0 0.2,0 0.1,0 0.2,0 0.1,0 0.1,0 0.2,0 0.1,0 0.2,-0.1 0.1,0 0.2,0 0.3,-0.1 0.3,0 0.2,-0.1 0.3,-0.1 0.6,-0.2 0.6,-0.2 0.6,-0.3 0.5,-0.4 0.3,-0.2 0.3,-0.2 0.3,-0.2 0.3,-0.3 0.3,-0.2 0.3,-0.3 0.3,-0.3 0.3,-0.2 0.3,-0.3 0.2,-0.3 0.3,-0.4 0.3,-0.3 0.3,-0.3 0.3,-0.3 0.3,-0.4 0.3,-0.3 0.3,-0.4 0.3,-0.3 0.3,-0.4 0.2,-0.4 0.3,-0.3 0.3,-0.4 0.3,-0.3 0.3,-0.4 0.3,-0.4 0.3,-0.3 0.3,-0.4 0.3,-0.3 0.2,-0.3 0.3,-0.4 0.3,-0.3 0.3,-0.3 0.6,-0.6 0.6,-0.5 0.6,-0.5 0.5,-0.5 0.3,-0.2 0.3,-0.2 0.3,-0.1 0.3,-0.2 0.3,-0.1 0.3,-0.2 0.3,-0.1 0.3,-0.1 0.2,-0.1 0.3,-0.1 0.3,0 0.3,-0.1 0.2,0 0.1,0 0.1,0 0.2,-0.1 0.1,0 0.2,0 0.1,0 0.2,0 0.1,0 0.2,0 0.1,0 0.2,0 0.1,0 0.1,0 0.2,0 0.1,0 0.2,0.1 0.1,0 0.2,0 0.1,0 0.2,0 0.1,0 0.1,0.1 0.2,0 0.1,0 0.2,0 0.1,0 0.2,0 0.1,0.1 0.2,0 0.1,0 0.1,0 0.2,0 0.1,0 0.2,0.1 0.1,0 0.2,0 0.1,0 0.2,0 0.1,0 0.2,0 0.1,0 0.1,0 0.2,0 0.1,0 0.2,0 0.1,0 0.2,0 0.1,0 0.2,0 0.1,-0.1 0.1,0 0.2,0 0.1,0 0.2,-0.1 0.1,0 0.6,-0.2 0.6,-0.2 0.6,-0.3 0.5,-0.3 0.3,-0.2 0.3,-0.2 0.3,-0.3 0.3,-0.2 0.3,-0.3 0.3,-0.2 0.3,-0.3 0.3,-0.3 0.2,-0.3 0.3,-0.4 0.3,-0.3 0.3,-0.4 0.3,-0.3 0.3,-0.4 0.3,-0.4 0.3,-0.3 0.3,-0.4 0.3,-0.4 0.2,-0.4 0.3,-0.4 0.3,-0.4 0.3,-0.5 0.3,-0.4 0.3,-0.4 0.3,-0.4 0.3,-0.4 0.3,-0.3 0.3,-0.4 0.2,-0.4 0.3,-0.4 0.3,-0.3 0.3,-0.4 0.3,-0.3 0.3,-0.4 0.3,-0.3 0.3,-0.3 0.3,-0.2 0.3,-0.3 0.2,-0.3 0.3,-0.2 0.3,-0.2 0.3,-0.2 0.3,-0.2 0.3,-0.2 0.3,-0.1 0.3,-0.1 0.3,-0.1 0.2,-0.1 0.2,-0.1 0.1,0 0.2,0 0.1,-0.1 0.2,0 0.1,0 0.2,0 0.1,0 0.2,0 0.1,0 0.1,0 0.2,0 0.1,0 0.2,0 0.1,0 0.2,0 0.1,0 0.2,0.1 0.1,0 0.1,0 0.2,0.1 0.1,0 0.2,0 0.1,0.1 0.2,0 0.1,0.1 0.2,0 0.1,0 0.1,0.1 0.2,0 0.1,0.1 0.2,0 0.1,0.1 0.2,0 0.1,0.1 0.2,0 0.1,0.1 0.2,0 0.1,0.1 0.1,0.1 0.2,0 0.1,0.1 0.2,0 0.1,0 0.2,0.1 0.1,0 0.2,0.1 0.1,0 0.1,0.1 0.2,0 0.1,0 0.2,0.1 0.1,0 0.2,0 0.1,0 0.2,0.1 0.1,0 0.1,0 0.2,0 0.1,0 0.2,0 0.1,0 0.2,0 0.1,0 0.2,0 0.1,-0.1 0.2,0 0.1,0 0.1,0 0.2,-0.1 0.1,0 0.2,-0.1 0.3,-0.1 0.3,-0.1 0.2,-0.2 0.3,-0.2 0.3,-0.2 0.3,-0.2 0.3,-0.2 0.3,-0.3 0.3,-0.3 0.3,-0.3 0.3,-0.3 0.3,-0.4 0.2,-0.3 0.3,-0.4 0.3,-0.4 0.3,-0.4 0.3,-0.5 0.3,-0.4 0.3,-0.5 0.3,-0.5 0.3,-0.4 0.3,-0.5 0.2,-0.5 0.3,-0.6 0.3,-0.5 0.3,-0.5 0.3,-0.5 0.3,-0.5 0.3,-0.5 0.3,-0.5 0.3,-0.5 0.2,-0.5 0.3,-0.5 0.3,-0.5 0.3,-0.4 0.3,-0.5 0.3,-0.4 0.3,-0.4 0.3,-0.4 0.3,-0.4 0.3,-0.3 0.2,-0.4 0.3,-0.3 0.3,-0.3 0.6,-0.4 0.6,-0.4 0.6,-0.3 0.5,-0.1 0.2,0 0.1,0 0.2,0 0.1,0 0.2,0 0.1,0 0.2,0 0.1,0.1 0.1,0 0.2,0 0.1,0.1 0.2,0.1 0.1,0 0.2,0.1 0.1,0.1 0.2,0 0.1,0.1 0.1,0.1 0.2,0.1 0.1,0.1 0.2,0.1 0.1,0.1 0.2,0.2 0.1,0.1 0.2,0.1 0.1,0.1 0.2,0.2 0.1,0.1 0.1,0.1 0.2,0.2 0.1,0.1 0.2,0.1 0.1,0.2 0.2,0.1 0.1,0.2 0.2,0.1 0.1,0.2 0.1,0.1 0.2,0.2 0.1,0.1 0.2,0.2 0.1,0.1 0.2,0.2 0.1,0.1 0.2,0.2 0.1,0.1 0.2,0.2 0.1,0.1 0.1,0.1 0.2,0.2 0.1,0.1 0.2,0.1 0.1,0.1 0.2,0.2 0.1,0.1 0.2,0.1 0.1,0.1 0.1,0.1 0.2,0.1 0.1,0.1 0.2,0 0.1,0.1 0.2,0.1 0.1,0 0.2,0.1 0.1,0 0.1,0 0.2,0.1 0.1,0 0.2,0 0.1,0 0.2,0 0.1,0 0.2,-0.1 0.1,0 0.2,0 0.1,-0.1 0.1,-0.1 0.2,-0.1 0.1,0 0.3,-0.3 0.3,-0.2 0.3,-0.3 0.3,-0.3 0.3,-0.4 0.3,-0.4 0.3,-0.5 0.2,-0.5 0.3,-0.6 0.3,-0.6 0.3,-0.6 0.3,-0.7 0.3,-0.7 0.3,-0.7 0.3,-0.8 0.3,-0.8 0.3,-0.9 0.2,-0.8 0.3,-0.9 0.3,-0.9 0.3,-0.9 0.3,-1 0.3,-0.9 0.3,-1 0.3,-1 0.3,-0.9 0.3,-1 0.2,-0.9 0.3,-0.9 0.3,-1 0.3,-0.9 0.3,-0.8 0.3,-0.8 0.3,-0.8 0.3,-0.8 0.3,-0.7 0.2,-0.7 0.3,-0.6 0.3,-0.5 0.3,-0.5 0.2,-0.2 0.1,-0.2 0.2,-0.2 0.1,-0.2 0.1,-0.1 0.2,-0.2 0.1,-0.1 0.2,-0.1 0.1,0 0.2,-0.1 0.1,0 0.2,0 0.1,0 0.1,0 0.2,0.1 0.1,0.1 0.3,0.3 0.3,0.3 0.3,0.4 0.3,0.6 0.3,0.7 0.3,0.7 0.3,0.9 0.3,1 0.2,1.1 0.3,1.2 0.3,1.3 0.3,1.4 0.3,1.6 0.3,1.6 0.3,1.8 0.3,1.9 0.3,1.9 0.3,2.1 0.2,2.2 0.3,2.3 0.3,2.4 0.3,2.5 0.3,2.5 0.3,2.7 0.3,2.7 0.3,2.9 0.3,2.9 0.2,3 0.3,3 0.3,3.1 0.3,3.2 0.3,3.2 0.3,3.3 0.3,3.3 0.3,3.3 0.3,3.4 0.3,3.4 0.2,3.4 0.3,3.4 0.3,3.5 0.3,3.4 0.3,3.4 0.3,3.4 0.3,3.4 0.3,3.4 0.3,3.3 0.3,3.3 0.2,3.3 0.3,3.2 0.3,3.2 0.3,3.1 0.3,3 0.3,3 0.3,2.9 0.3,2.9 0.3,2.7 0.3,2.7 0.2,2.5 0.3,2.5 0.3,2.4 0.3,2.3 0.3,2.2 0.3,2.1 0.3,1.9 0.6,3.7 0.5,3.2 0.6,2.7 0.6,2.3 0.3,1 0.3,0.9 0.3,0.7 0.3,0.7 0.1,0.3 0.1,0.3 0.2,0.2 0.1,0.2 0.2,0.2 0.1,0.1 0.2,0.2 0.1,0.1 0.2,0.1 0.1,0.1 0.1,0 0.2,0 0.1,0 0.2,0 0.1,-0.1 0.2,0 0.1,-0.1 0.2,-0.1 0.1,-0.2 0.2,-0.1 0.1,-0.2 0.1,-0.2 0.2,-0.2 0.1,-0.2 0.3,-0.5 0.3,-0.5 0.3,-0.6 0.3,-0.7 0.3,-0.7 0.3,-0.8 0.3,-0.8 0.2,-0.8 0.3,-0.8 0.3,-0.9 0.3,-1 0.3,-0.9 0.3,-0.9 0.3,-1 0.3,-0.9 0.3,-1 0.3,-1 0.2,-0.9 0.3,-1 0.3,-0.9 0.3,-0.9 0.3,-0.9 0.3,-0.8 0.3,-0.9 0.3,-0.8 0.3,-0.8 0.3,-0.7 0.2,-0.7 0.3,-0.7 0.3,-0.6 0.3,-0.6 0.3,-0.6 0.3,-0.5 0.3,-0.5 0.3,-0.4 0.3,-0.4 0.3,-0.3 0.2,-0.3 0.3,-0.2 0.3,-0.3 0.2,0 0.1,-0.1 0.2,-0.1 0.1,-0.1 0.1,0 0.2,0 0.1,-0.1 0.2,0 0.1,0 0.2,0 0.1,0 0.2,0 0.1,0.1 0.1,0 0.2,0 0.1,0.1 0.2,0 0.1,0.1 0.2,0.1 0.1,0 0.2,0.1 0.1,0.1 0.2,0.1 0.1,0.1 0.1,0.1 0.2,0.1 0.1,0.2 0.2,0.1 0.1,0.1 0.2,0.1 0.1,0.2 0.2,0.1 0.1,0.1 0.1,0.2 0.2,0.1 0.1,0.2 0.2,0.1 0.1,0.2 0.2,0.1 0.1,0.2 0.2,0.1 0.1,0.2 0.1,0.1 0.2,0.2 0.1,0.1 0.2,0.2 0.1,0.1 0.2,0.2 0.1,0.1 0.2,0.1 0.1,0.2 0.2,0.1 0.1,0.1 0.1,0.2 0.2,0.1 0.1,0.1 0.2,0.1 0.1,0.2 0.2,0.1 0.1,0.1 0.2,0.1 0.1,0.1 0.1,0.1 0.2,0.1 0.1,0 0.2,0.1 0.1,0.1 0.2,0 0.1,0.1 0.2,0.1 0.1,0 0.1,0 0.2,0.1 0.1,0 0.2,0 0.1,0 0.2,0 0.1,0 0.2,0 0.1,0 0.3,-0.1 0.3,0 0.3,-0.2 0.3,-0.1 0.3,-0.2 0.2,-0.2 0.3,-0.2 0.3,-0.2 0.3,-0.3 0.3,-0.3 0.3,-0.4 0.3,-0.3 0.3,-0.4 0.3,-0.4 0.3,-0.4 0.2,-0.4 0.3,-0.5 0.3,-0.4 0.3,-0.5 0.3,-0.5 0.3,-0.5 0.3,-0.5 0.3,-0.5 0.3,-0.5 0.3,-0.5 0.2,-0.5 0.3,-0.5 0.3,-0.5 0.3,-0.6 0.3,-0.5 0.3,-0.5 0.3,-0.4 0.3,-0.5 0.3,-0.5 0.2,-0.4 0.3,-0.5 0.3,-0.4 0.3,-0.4 0.3,-0.4 0.3,-0.3 0.6,-0.7 0.6,-0.6 0.5,-0.5 0.6,-0.4 0.3,-0.2 0.3,-0.2 0.3,-0.1 0.3,-0.1 0.1,-0.1 0.2,0 0.1,-0.1 0.2,0 0.1,0 0.1,0 0.2,-0.1 0.1,0 0.2,0 0.1,0 0.2,0 0.1,0 0.2,0 0.1,0 0.1,0 0.2,0 0.1,0.1 0.2,0 0.1,0 0.2,0 0.1,0.1 0.2,0 0.1,0 0.1,0.1 0.2,0 0.1,0.1 0.2,0 0.1,0.1 0.2,0 0.1,0 0.2,0.1 0.1,0 0.2,0.1 0.1,0.1 0.1,0 0.2,0.1 0.1,0 0.2,0.1 0.1,0 0.2,0.1 0.1,0 0.2,0.1 0.1,0 0.1,0.1 0.2,0 0.1,0 0.2,0.1 0.1,0 0.2,0.1 0.1,0 0.2,0 0.1,0.1 0.1,0 0.2,0 0.1,0.1 0.2,0 0.1,0 0.2,0 0.1,0 0.2,0 0.1,0 0.2,0 0.1,0 0.1,0 0.2,0 0.1,0 0.2,0 0.1,0 0.2,-0.1 0.1,0 0.2,0 0.1,-0.1 0.3,-0.1 0.3,-0.1 0.3,-0.1 0.3,-0.1 0.3,-0.2 0.2,-0.2 0.3,-0.2 0.3,-0.2 0.3,-0.2 0.3,-0.3 0.3,-0.3 0.3,-0.2 0.3,-0.3 0.3,-0.3 0.2,-0.4 0.3,-0.3 0.3,-0.4 0.3,-0.3 0.3,-0.4 0.3,-0.4 0.3,-0.4 0.3,-0.3 0.3,-0.4 0.3,-0.4 0.2,-0.4 0.3,-0.4 0.3,-0.5 0.3,-0.4 0.3,-0.4 0.3,-0.4 0.3,-0.4 0.3,-0.4 0.3,-0.3 0.3,-0.4 0.2,-0.4 0.3,-0.3 0.3,-0.4 0.3,-0.3 0.3,-0.4 0.3,-0.3 0.6,-0.6 0.5,-0.5 0.6,-0.5 0.6,-0.4 0.3,-0.2 0.3,-0.1 0.3,-0.2 0.3,-0.1 0.3,-0.1 0.2,-0.1 0.3,-0.1 0.3,-0.1 0.2,0 0.1,-0.1 0.2,0 0.1,0 0.2,0 0.1,-0.1 0.1,0 0.2,0 0.1,0 0.2,0 0.1,0 0.2,0 0.1,0 0.2,0 0.1,0 0.1,0 0.2,0 0.1,0 0.2,0 0.1,0 0.2,0 0.1,0.1 0.2,0 0.1,0 0.1,0 0.2,0 0.1,0 0.2,0.1 0.1,0 0.2,0 0.1,0 0.2,0 0.1,0 0.2,0.1 0.1,0 0.1,0 0.2,0 0.1,0 0.2,0 0.1,0.1 0.2,0 0.1,0 0.2,0 0.1,0 0.1,0 0.2,0 0.1,0 0.2,0 0.1,0 0.2,0 0.1,0 0.2,0 0.1,-0.1 0.1,0 0.2,0 0.1,0 0.3,-0.1 0.3,0 0.3,-0.1 0.3,-0.1 0.3,-0.1 0.3,-0.1 0.3,-0.2 0.3,-0.1 0.2,-0.2 0.3,-0.1 0.3,-0.2 0.3,-0.2 0.3,-0.2 0.3,-0.3 0.3,-0.2 0.3,-0.3 0.3,-0.2 0.3,-0.3 0.2,-0.3 0.3,-0.3 0.3,-0.3 0.3,-0.3 0.3,-0.4 0.3,-0.3 0.3,-0.3 0.3,-0.4 0.3,-0.3 0.2,-0.4 0.3,-0.4 0.3,-0.3 0.3,-0.4 0.3,-0.3 0.3,-0.4 0.3,-0.4 0.3,-0.3 0.3,-0.4 0.3,-0.3 0.2,-0.4 0.3,-0.3 0.3,-0.3 0.3,-0.3 0.3,-0.4 0.3,-0.3 0.3,-0.3 0.6,-0.5 0.5,-0.5 0.6,-0.5 0.6,-0.4 0.3,-0.2 0.3,-0.2 0.3,-0.1 0.3,-0.2 0.3,-0.1 0.2,-0.1 0.3,-0.1 0.3,-0.1 0.3,-0.1 0.3,-0.1 0.3,0 0.3,-0.1 0.1,0 0.2,0 0.1,-0.1 0.2,0 0.1,0 0.1,0 0.2,0 0.1,0 0.2,0 0.1,0 0.2,0 0.1,0 0.2,0 0.1,0 0.2,0 0.1,0 0.1,0 0.2,0 0.1,0 0.2,0 0.1,0 0.2,0 0.1,0 0.2,0 0.1,0 0.1,0 0.2,0 0.1,0 0.2,0 0.1,0 0.2,0 0.1,0 0.2,0 0.1,0 0.1,0 0.2,0 0.1,0 0.2,0 0.1,0 0.2,0 0.1,-0.1 0.2,0 0.1,0 0.2,0 0.1,0 0.1,0 0.2,-0.1 0.1,0 0.3,-0.1 0.3,0 0.3,-0.1 0.3,-0.1 0.6,-0.2 0.5,-0.3 0.6,-0.3 0.6,-0.4 0.3,-0.2 0.3,-0.2 0.3,-0.3 0.3,-0.2 0.3,-0.3 0.2,-0.2 0.3,-0.3 0.3,-0.3 0.3,-0.3 0.3,-0.3 0.3,-0.3 0.3,-0.3 0.3,-0.3 0.3,-0.4 0.3,-0.3 0.2,-0.3 0.3,-0.4 0.3,-0.3 0.3,-0.4 0.3,-0.3 0.3,-0.4 0.3,-0.3 0.3,-0.3 0.3,-0.4 0.3,-0.3 0.2,-0.3 0.3,-0.4 0.3,-0.3 0.3,-0.3 0.3,-0.3 0.3,-0.3 0.3,-0.3 0.6,-0.5 0.5,-0.5 0.6,-0.5 0.6,-0.4 0.3,-0.2 0.3,-0.2 0.3,-0.2 0.3,-0.1 0.2,-0.1 0.3,-0.2 0.3,-0.1 0.3,-0.1 0.3,-0.1 0.3,-0.1 0.3,0 0.3,-0.1 0.1,0 0.2,-0.1 0.1,0 0.2,0 0.1,0 0.1,0 0.2,-0.1 0.1,0 0.2,0 0.1,0 0.2,0 0.1,0 0.2,0 0.1,0 0.1,0 0.2,0 0.1,0 0.2,0 0.1,0 0.2,0 0.1,0 0.2,0 0.1,0 0.2,-0.1 0.1,0 0.1,0 0.2,0 0.1,0 0.2,0 0.1,0 0.2,0 0.1,0 0.2,0 0.1,0 0.1,0 0.2,0 0.1,0 0.2,0 0.1,0 0.2,0 0.1,0 0.2,-0.1 0.1,0 0.1,0 0.2,0 0.1,0 0.2,-0.1 0.1,0 0.3,-0.1 0.3,0 0.3,-0.1 0.3,-0.1 0.6,-0.2 0.5,-0.3 0.6,-0.3 0.6,-0.4 0.3,-0.2 0.3,-0.2 0.3,-0.2 0.3,-0.3 0.3,-0.2 0.2,-0.3 0.3,-0.2 0.3,-0.3 0.3,-0.3 0.3,-0.3 0.3,-0.3 0.3,-0.3 0.3,-0.3 0.3,-0.4 0.2,-0.3 0.3,-0.3 0.3,-0.4 0.3,-0.3 0.3,-0.3 0.3,-0.4 0.3,-0.3 0.3,-0.4 0.3,-0.3 0.3,-0.4 0.2,-0.3 0.3,-0.3 0.3,-0.4 0.3,-0.3 0.3,-0.3 0.3,-0.3 0.3,-0.3 0.3,-0.3 0.6,-0.6 0.5,-0.5 0.6,-0.5 0.6,-0.4 0.3,-0.2 0.3,-0.2 0.3,-0.1 0.3,-0.2 0.2,-0.1 0.3,-0.2 0.3,-0.1 0.3,-0.1 0.3,-0.1 0.3,-0.1 0.3,0 0.3,-0.1 0.1,0 0.2,-0.1 0.1,0 0.1,0 0.2,0 0.1,0 0.2,0 0.1,-0.1 0.2,0 0.1,0 0.2,0 0.1,0 0.2,0 0.1,0 0.1,0 0.2,0 0.1,0 0.2,0 0.1,0 0.2,0 0.1,0 0.2,0 0.1,0 0.1,0 0.2,0 0.1,0 0.2,0 0.1,0 0.2,0 0.1,0 0.2,0 0.1,0 0.1,0 0.2,0 0.1,0 0.2,0 0.1,0 0.2,0 0.1,0 0.2,0 0.1,0 0.2,0 0.1,0 0.1,0 0.2,0 0.1,-0.1 0.2,0 0.1,0 0.3,-0.1 0.3,0 0.3,-0.1 0.3,-0.1 0.6,-0.2 0.5,-0.2 0.6,-0.3 0.6,-0.4 0.3,-0.2 0.3,-0.2 0.3,-0.2 0.3,-0.3 0.2,-0.2 0.3,-0.3 0.3,-0.3 0.3,-0.2 0.3,-0.3 0.3,-0.3 0.3,-0.4 0.3,-0.3 0.3,-0.3 0.3,-0.3 0.2,-0.4 0.3,-0.3 0.3,-0.4 0.3,-0.3 0.3,-0.4 0.3,-0.4 0.3,-0.3 0.3,-0.4 0.3,-0.3 0.3,-0.4 0.2,-0.4 0.3,-0.3 0.3,-0.4 0.3,-0.3 0.3,-0.3 0.3,-0.4 0.3,-0.3 0.3,-0.3 0.5,-0.6 0.6,-0.5 0.6,-0.5 0.6,-0.5 0.3,-0.2 0.3,-0.2 0.3,-0.1 0.2,-0.2 0.3,-0.1 0.3,-0.2 0.3,-0.1 0.3,-0.1 0.3,-0.1 0.3,-0.1 0.3,0 0.3,-0.1 0.1,0 0.2,0 0.1,0 0.1,-0.1 0.2,0 0.1,0 0.2,0 0.1,0 0.2,0 0.1,0 0.2,0 0.1,0 0.1,0 0.2,0 0.1,0 0.2,0 0.1,0.1 0.2,0 0.1,0 0.2,0 0.1,0 0.1,0 0.2,0.1 0.1,0 0.2,0 0.1,0 0.2,0 0.1,0 0.2,0.1 0.1,0 0.2,0 0.1,0 0.1,0 0.2,0 0.1,0.1 0.2,0 0.1,0 0.2,0 0.1,0 0.2,0 0.1,0 0.1,0 0.2,0 0.1,0 0.2,0 0.1,0 0.2,0 0.1,0 0.2,0 0.1,0 0.1,-0.1 0.2,0 0.1,0 0.2,0 0.1,-0.1 0.2,0 0.6,-0.2 0.5,-0.2 0.6,-0.3 0.6,-0.3 0.3,-0.2 0.3,-0.2 0.3,-0.3 0.3,-0.2 0.2,-0.3 0.3,-0.2 0.3,-0.3 0.3,-0.3 0.3,-0.3 0.3,-0.4 0.3,-0.3 0.3,-0.4 0.3,-0.3 0.2,-0.4 0.3,-0.4 0.3,-0.3 0.3,-0.4 0.3,-0.4 0.3,-0.4 0.3,-0.4 0.3,-0.4 0.3,-0.5 0.3,-0.4 0.2,-0.4 0.3,-0.4 0.3,-0.4 0.3,-0.3 0.3,-0.4 0.3,-0.4 0.3,-0.4 0.3,-0.3 0.3,-0.4 0.3,-0.3 0.2,-0.4 0.3,-0.3 0.3,-0.3 0.3,-0.2 0.3,-0.3 0.3,-0.3 0.3,-0.2 0.3,-0.2 0.3,-0.2 0.2,-0.2 0.3,-0.2 0.3,-0.1 0.3,-0.1 0.3,-0.1 0.3,-0.1 0.1,-0.1 0.2,0 0.1,0 0.2,-0.1 0.1,0 0.2,0 0.1,0 0.2,0 0.1,0 0.1,0 0.2,0 0.1,0 0.2,0 0.1,0 0.2,0 0.1,0 0.2,0 0.1,0.1 0.2,0 0.1,0 0.1,0.1 0.2,0 0.1,0 0.2,0.1 0.1,0 0.2,0.1 0.1,0 0.2,0 0.1,0.1 0.1,0 0.2,0.1 0.1,0 0.2,0.1 0.1,0 0.2,0.1 0.1,0 0.2,0.1 0.1,0 0.1,0.1 0.2,0.1 0.1,0 0.2,0.1 0.1,0 0.2,0 0.1,0.1 0.2,0 0.1,0.1 0.2,0 0.1,0.1 0.1,0 0.2,0 0.1,0.1 0.2,0 0.1,0 0.2,0 0.1,0.1 0.2,0 0.1,0 0.1,0 0.2,0 0.1,0 0.2,0 0.1,0 0.2,0 0.1,0 0.2,-0.1 0.1,0 0.1,0 0.2,0 0.1,-0.1 0.2,0 0.1,-0.1 0.3,-0.1 0.3,-0.1 0.3,-0.2 0.3,-0.2 0.3,-0.2 0.3,-0.2 0.3,-0.2 0.2,-0.3 0.3,-0.3 0.3,-0.3 0.3,-0.3 0.3,-0.4 0.3,-0.3 0.3,-0.4 0.3,-0.4 0.3,-0.4 0.3,-0.5 0.2,-0.4 0.3,-0.5 0.3,-0.5 0.3,-0.4 0.3,-0.5 0.3,-0.5 0.3,-0.6 0.3,-0.5 0.3,-0.5 0.2,-0.5 0.3,-0.5 0.3,-0.5 0.3,-0.5 0.3,-0.5 0.3,-0.5 0.3,-0.5 0.3,-0.5 0.3,-0.4 0.3,-0.5 0.2,-0.4 0.3,-0.4 0.3,-0.4 0.3,-0.4 0.3,-0.3 0.3,-0.4 0.3,-0.3 0.3,-0.3 0.6,-0.4 0.5,-0.4 0.6,-0.3 0.6,-0.1 0.1,0 0.2,0 0.1,0 0.2,0 0.1,0 0.2,0 0.1,0 0.2,0.1 0.1,0 0.1,0 0.2,0.1 0.1,0.1 0.2,0 0.1,0.1 0.2,0.1 0.1,0 0.2,0.1 0.1,0.1 0.1,0.1 0.2,0.1 0.1,0.1 0.2,0.1 0.1,0.2 0.2,0.1 0.1,0.1 0.2,0.1 0.1,0.2 0.1,0.1 0.2,0.1 0.1,0.2 0.2,0.1 0.1,0.1 0.2,0.2 0.1,0.1 0.2,0.2 0.1,0.1 0.2,0.2 0.1,0.1 0.1,0.2 0.2,0.1 0.1,0.2 0.2,0.1 0.1,0.2 0.2,0.1 0.1,0.2 0.2,0.1 0.1,0.2 0.1,0.1 0.2,0.1 0.1,0.2 0.2,0.1 0.1,0.1 0.2,0.1 0.1,0.2 0.2,0.1 0.1,0.1 0.1,0.1 0.2,0.1 0.1,0.1 0.2,0.1 0.1,0 0.2,0.1 0.1,0.1 0.2,0 0.1,0.1 0.2,0 0.1,0 0.1,0.1 0.2,0 0.1,0 0.2,0 0.1,0 0.2,0 0.1,-0.1 0.2,0 0.1,0 0.1,-0.1 0.2,-0.1 0.1,-0.1 0.2,0 0.3,-0.3 0.3,-0.2 0.2,-0.3 0.3,-0.3 0.3,-0.4 0.3,-0.4 0.3,-0.5 0.3,-0.5 0.3,-0.6 0.3,-0.6 0.3,-0.6 0.3,-0.7 0.2,-0.7 0.3,-0.7 0.3,-0.8 0.3,-0.8 0.3,-0.9 0.3,-0.8 0.3,-0.9 0.3,-0.9 0.3,-0.9 0.3,-1 0.2,-0.9 0.3,-1 0.3,-1 0.3,-0.9 0.3,-1 0.3,-0.9 0.3,-0.9 0.3,-1 0.3,-0.9 0.3,-0.8 0.2,-0.8 0.3,-0.8 0.3,-0.8 0.3,-0.7 0.3,-0.7 0.3,-0.6 0.3,-0.5 0.3,-0.5 0.1,-0.2 0.2,-0.2 0.1,-0.2 0.1,-0.2 0.2,-0.1 0.1,-0.2 0.2,-0.1 0.1,-0.1 0.2,0 0.1,-0.1 0.2,0 0.1,0 0.2,0 0.1,0 0.1,0.1 0.2,0.1 0.3,0.3 0.3,0.3 0.3,0.4 0.2,0.6 0.3,0.7 0.3,0.7 0.3,0.9 0.3,1 0.3,1.1 0.3,1.2 0.3,1.3 0.3,1.4 0.3,1.6 0.2,1.6 0.3,1.8 0.3,1.9 0.3,1.9 0.3,2.1 0.3,2.2 0.3,2.3 0.3,2.4 0.3,2.5 0.2,2.5 0.3,2.7 0.3,2.7 0.3,2.9 0.3,2.9 0.3,3 0.3,3 0.3,3.1 0.3,3.2 0.3,3.2 0.2,3.3 0.3,3.3 0.3,3.3 0.3,3.4 0.3,3.4 0.3,3.4 0.3,3.4 0.3,3.4 0.3,3.5 0.3,3.4 0.2,3.4 0.3,3.4 0.3,3.4 0.3,3.3 0.3,3.3 0.3,3.3 0.3,3.2 0.3,3.2 0.3,3.1 0.3,3 0.2,3 0.3,2.9 0.3,2.9 0.3,2.7 0.3,2.7 0.3,2.5 0.3,2.5 0.3,2.4 0.3,2.3 0.2,2.2 0.3,2.1 0.3,1.9 0.6,3.7 0.6,3.2 0.6,2.7 0.5,2.3 0.3,1 0.3,0.9 0.3,0.7 0.3,0.7 0.1,0.3 0.2,0.3 0.1,0.2 0.2,0.2 0.1,0.2 0.2,0.1 0.1,0.2 0.2,0.1 0.1,0.1 0.2,0.1 0.1,0 0.1,0 0.2,0 0.1,0 0.2,-0.1 0.1,0 0.2,-0.1 0.1,-0.1 0.2,-0.2 0.1,-0.1 0.1,-0.2 0.2,-0.2 0.1,-0.2 0.2,-0.2 0.3,-0.5 0.3,-0.5 0.3,-0.6 0.2,-0.7 0.3,-0.7 0.3,-0.8 0.3,-0.8 0.3,-0.8 0.3,-0.8 0.3,-0.9 0.3,-1 0.3,-0.9 0.2,-0.9 0.3,-1 0.3,-0.9 0.3,-1 0.3,-1 0.3,-0.9 0.3,-1 0.3,-0.9 0.3,-0.9 0.3,-0.9 0.2,-0.8 0.3,-0.9 0.3,-0.8 0.3,-0.8 0.3,-0.7 0.3,-0.7 0.3,-0.7 0.3,-0.6 0.3,-0.6 0.3,-0.6 0.2,-0.5 0.3,-0.5 0.3,-0.4 0.3,-0.4 0.3,-0.3 0.3,-0.3 0.3,-0.2 0.3,-0.3 0.1,0 0.2,-0.1 0.1,-0.1 0.1,-0.1 0.2,0 0.1,0 0.2,-0.1 0.1,0 0.2,0 0.1,0 0.2,0 0.1,0 0.2,0.1 0.1,0 0.1,0 0.2,0.1 0.1,0 0.2,0.1 0.1,0.1 0.2,0 0.1,0.1 0.2,0.1 0.1,0.1 0.1,0.1 0.2,0.1 0.1,0.1 0.2,0.2 0.1,0.1 0.2,0.1 0.1,0.1 0.2,0.2 0.1,0.1 0.1,0.1 0.2,0.2 0.1,0.1 0.2,0.2 0.1,0.1 0.2,0.2 0.1,0.1 0.2,0.2 0.1,0.1 0.2,0.2 0.1,0.1 0.1,0.2 0.2,0.1 0.1,0.2 0.2,0.1 0.1,0.2 0.2,0.1 0.1,0.1 0.2,0.2 0.1,0.1 0.1,0.1 0.2,0.2 0.1,0.1 0.2,0.1 0.1,0.1 0.2,0.2 0.1,0.1 0.2,0.1 0.1,0.1 0.2,0.1 0.1,0.1 0.1,0.1 0.2,0 0.1,0.1 0.2,0.1 0.1,0 0.2,0.1 0.1,0.1 0.2,0 0.1,0 0.1,0.1 0.2,0 0.1,0 0.2,0 0.1,0 0.2,0 0.1,0 0.2,0 0.2,-0.1 0.3,0 0.3,-0.2 0.3,-0.1 0.3,-0.2 0.3,-0.2 0.3,-0.2 0.3,-0.2 0.3,-0.3 0.3,-0.3 0.2,-0.4 0.3,-0.3 0.3,-0.4 0.3,-0.4 0.3,-0.4 0.3,-0.4 0.3,-0.5 0.3,-0.4 0.3,-0.5 0.3,-0.5 0.2,-0.5 0.3,-0.5 0.3,-0.5 0.3,-0.5 0.3,-0.5 0.3,-0.5 0.3,-0.5 0.3,-0.5 0.3,-0.6 0.2,-0.5 0.3,-0.5 0.3,-0.4 0.3,-0.5 0.3,-0.5 0.3,-0.4 0.3,-0.5 0.3,-0.4 0.3,-0.4 0.3,-0.4 0.2,-0.3 0.6,-0.7 0.6,-0.6 0.6,-0.5 0.6,-0.4 0.3,-0.2 0.2,-0.2 0.3,-0.1 0.3,-0.1 0.2,-0.1 0.1,0 0.2,-0.1 0.1,0 0.1,0 0.2,0 0.1,-0.1 0.2,0 0.1,0 0.2,0 0.1,0 0.2,0 0.1,0 0.2,0 0.1,0 0.1,0 0.2,0.1 0.1,0 0.2,0 0.1,0 0.2,0.1 0.1,0 0.2,0 0.1,0.1 0.1,0 0.2,0.1 0.1,0 0.2,0.1 0.1,0 0.2,0 0.1,0.1 0.2,0 0.1,0.1 0.1,0.1 0.2,0 0.1,0.1 0.2,0 0.1,0.1 0.2,0 0.1,0.1 0.2,0 0.1,0.1 0.2,0 0.1,0.1 0.1,0 0.2,0 0.1,0.1 0.2,0 0.1,0.1 0.2,0 0.1,0 0.2,0.1 0.1,0 0.1,0 0.2,0.1 0.1,0 0.2,0 0.1,0 0.2,0 0.1,0 0.2,0 0.1,0 0.1,0 0.2,0 0.1,0 0.2,0 0.1,0 0.2,0 0.1,-0.1 0.2,0 0.1,0 0.2,-0.1 0.2,-0.1 0.3,-0.1 0.3,-0.1 0.3,-0.1 0.3,-0.2 0.3,-0.2 0.3,-0.2 0.3,-0.2 0.3,-0.2 0.2,-0.3 0.3,-0.3 0.3,-0.2 0.3,-0.3 0.3,-0.3 0.3,-0.4 0.3,-0.3 0.3,-0.4 0.3,-0.3 0.3,-0.4 0.2,-0.4 0.3,-0.4 0.3,-0.3 0.3,-0.4 0.3,-0.4 0.3,-0.4 0.3,-0.4 0.3,-0.5 0.3,-0.4 0.3,-0.4 0.2,-0.4 0.3,-0.4 0.3,-0.4 0.3,-0.3 0.3,-0.4 0.3,-0.4 0.3,-0.3 0.3,-0.4 0.3,-0.3 0.3,-0.4 0.2,-0.3 0.6,-0.6 0.6,-0.5 0.6,-0.5 0.6,-0.4 0.2,-0.2 0.3,-0.1 0.3,-0.2 0.3,-0.1 0.3,-0.1 0.3,-0.1 0.3,-0.1 0.3,-0.1 0.1,0 0.2,-0.1 0.1,0 0.2,0 0.1,0 0.1,-0.1 0.2,0 0.1,0 0.2,0 0.1,0 0.2,0 0.1,0 0.2,0 0.1,0 0.1,0 0.2,0 0.1,0 0.2,0 0.1,0 0.2,0 0.1,0 0.2,0.1 0.1,0 0.2,0 0.1,0 0.1,0 0.2,0 0.1,0.1 0.2,0 0.1,0 0.2,0 0.1,0 0.2,0 0.1,0.1 0.1,0 0.2,0 0.1,0 0.2,0 0.1,0 0.2,0.1 0.1,0 0.2,0 0.1,0 0.1,0 0.2,0 0.1,0 0.2,0 0.1,0 0.2,0 0.1,0 0.2,0 0.1,0 0.2,-0.1 0.1,0 0.1,0 0.2,0 0.3,-0.1 0.3,0 0.3,-0.1 0.2,-0.1 0.3,-0.1 0.3,-0.1 0.3,-0.2 0.3,-0.1 0.3,-0.2 0.3,-0.1 0.3,-0.2 0.3,-0.2 0.3,-0.2 0.2,-0.3 0.3,-0.2 0.3,-0.3 0.3,-0.2 0.3,-0.3 0.3,-0.3 0.3,-0.3 0.3,-0.3 0.3,-0.3 0.3,-0.4 0.2,-0.3 0.3,-0.3 0.3,-0.4 0.3,-0.3 0.3,-0.4 0.3,-0.4 0.3,-0.3 0.3,-0.4 0.3,-0.3 0.2,-0.4 0.3,-0.4 0.3,-0.3 0.3,-0.4 0.3,-0.3 0.3,-0.4 0.3,-0.3 0.3,-0.3 0.3,-0.3 0.3,-0.4 0.2,-0.3 0.3,-0.3 0.6,-0.5 0.6,-0.5 0.6,-0.5 0.6,-0.4 0.2,-0.2 0.3,-0.2 0.3,-0.1 0.3,-0.2 0.3,-0.1 0.3,-0.1 0.3,-0.1 0.3,-0.1 0.3,-0.1 0.2,-0.1 0.3,0 0.3,-0.1 0.2,0 0.1,0 0.2,-0.1 0.1,0 0.2,0 0.1,0 0.1,0 0.2,0 0.1,0 0.2,0 0.1,0 0.2,0 0.1,0 0.2,0 0.1,0 0.1,0 0.2,0 0.1,0 0.2,0 0.1,0 0.2,0 0.1,0 0.2,0 0.1,0 0.2,0 0.1,0 0.1,0 0.2,0 0.1,0 0.2,0 0.1,0 0.2,0 0.1,0 0.2,0 0.1,0 0.1,0 0.2,0 0.1,0 0.2,0 0.1,0 0.2,-0.1 0.1,0 0.2,0 0.1,0 0.1,0 0.2,0 0.1,-0.1 0.2,0 0.3,-0.1 0.3,0 0.3,-0.1 0.2,-0.1 0.6,-0.2 0.6,-0.3 0.6,-0.3 0.6,-0.4 0.2,-0.2 0.3,-0.2 0.3,-0.3 0.3,-0.2 0.3,-0.3 0.3,-0.2 0.3,-0.3 0.3,-0.3 0.3,-0.3 0.3,-0.3 0.2,-0.3 0.3,-0.3 0.3,-0.3 0.3,-0.4 0.3,-0.3 0.3,-0.3 0.3,-0.4 0.3,-0.3 0.3,-0.4 0.3,-0.3 0.2,-0.4 0.3,-0.3 0.3,-0.3 0.3,-0.4 0.3,-0.3 0.3,-0.3 0.3,-0.4 0.3,-0.3 0.3,-0.3 0.2,-0.3 0.3,-0.3 0.3,-0.3 0.6,-0.5 0.6,-0.5 0.6,-0.5 0.5,-0.4 0.3,-0.2 0.3,-0.2 0.3,-0.2 0.3,-0.1 0.3,-0.1 0.3,-0.2 0.3,-0.1 0.3,-0.1 0.3,-0.1 0.2,-0.1 0.3,0 0.3,-0.1 0.2,0 0.1,-0.1 0.2,0 0.1,0 0.1,0 0.2,0 0.1,-0.1 0.2,0 0.1,0 0.2,0 0.1,0 0.2,0 0.1,0 0.2,0 0.1,0 0.1,0 0.2,0 0.1,0 0.2,0 0.1,0 0.2,0 0.1,0 0.2,0 0.1,-0.1 h 0.01"
         id="path151"
         inkscape:connector-curvature="0" />
    </g>
  </g>
  <g
     style="color:#000000;fill:none;stroke:#ffffff;stroke-width:1;stroke-linecap:butt;stroke-linejoin:miter"
     id="g153">
    <path
       style="stroke:#ffffff"
       d="m 37.3,16.7 0,405.7 537.7,0 0,-405.7 -537.7,0 z m 0,0 h 0.01"
       id="path155"
       inkscape:connector-curvature="0" />
  </g>
  <g
     id="g4133">
    <g
       text-anchor="start"
       word-spacing="normal"
       letter-spacing="normal"
       font-size-adjust="none"
       font-stretch="normal"
       font-weight="normal"
       font-variant="normal"
       font-style="normal"
       fill-opacity="1"
       fill-rule="evenodd"
       fill="none"
       stroke-opacity="1"
       stroke-dashoffset="0"
       stroke-dasharray="none"
       stroke-miterlimit="10.433"
       stroke-linejoin="miter"
       stroke-linecap="butt"
       stroke="black"
       xml:space="preserve"
       transform="matrix(0.685714285714,0,0,-0.685714285714,-120.0,450.0)"
       id="content"><path
         id="path4136"
         fill="black"
         stroke-width="0"
         d="M479.74,425.18 L479.75,425.22 L479.76,425.25 L479.77,425.31 L479.79,425.36 L479.8,425.42 L479.81,425.47 L479.83,425.51 L479.84,425.56 L479.85,425.6 L479.86,425.64 L479.86,425.68 L479.87,425.72 L479.88,425.76 L479.89,425.79 L479.89,425.82 L479.9,425.85 L479.9,425.88 L479.91,425.91 L479.91,425.94 L479.92,425.99 L479.92,426.05 L479.92,426.1 L479.92,426.15 L479.93,426.2 L479.93,426.23 L479.93,426.26 L479.93,426.29 L479.93,426.32 C479.93,427.23,479.24,427.67,478.49,427.67 C477.99,427.67,477.19,427.37,476.74,426.62 C476.64,426.37,476.24,424.84,476.05,423.93 C475.69,422.64,475.35,421.29,475.05,419.95 L472.8,410.98 C472.61,410.23,470.47,406.75,467.18,406.75 C464.64,406.75,464.08,408.93,464.08,410.78 C464.08,413.07,464.94,416.17,466.63,420.54 C467.43,422.59,467.63,423.14,467.63,424.14 C467.63,426.37,466.04,428.21,463.54,428.21 C458.8,428.21,456.96,421,456.96,420.54 C456.96,420.04,457.46,420.04,457.57,420.04 C458.07,420.04,458.11,420.15,458.36,420.95 C459.71,425.64,461.69,427.12,463.39,427.12 C463.79,427.12,464.64,427.12,464.64,425.53 C464.64,424.28,464.14,423,463.79,422.04 C461.8,416.76,460.89,413.92,460.89,411.57 C460.89,407.15,464.04,405.65,466.97,405.65 C468.93,405.65,470.61,406.5,472,407.89 C471.36,405.31,470.77,402.86,468.77,400.21 C467.47,398.53,465.58,397.07,463.29,397.07 C462.6,397.07,460.35,397.23,459.5,399.17 C460.3,399.17,460.96,399.17,461.64,399.78 C462.14,400.21,462.64,400.87,462.64,401.81 C462.64,403.36,461.3,403.56,460.8,403.56 C459.66,403.56,458,402.76,458,400.32 C458,397.82,460.21,395.98,463.29,395.98 C468.43,395.98,473.55,400.53,474.96,406.15 Z " /><path
         id="path4138"
         fill="black"
         stroke-width="0"
         d="M529.83,422.5 L529.97,422.5 L530.12,422.5 L530.26,422.5 L530.33,422.51 L530.41,422.51 L530.48,422.52 L530.55,422.53 L530.62,422.54 L530.69,422.55 L530.76,422.56 L530.82,422.58 L530.89,422.6 L530.95,422.62 L531.01,422.64 L531.07,422.67 L531.13,422.7 L531.18,422.74 L531.23,422.77 L531.28,422.82 L531.32,422.86 L531.36,422.91 L531.38,422.94 L531.4,422.97 L531.41,422.99 L531.43,423.02 L531.44,423.05 L531.45,423.09 L531.47,423.12 L531.48,423.16 L531.49,423.19 L531.5,423.23 L531.5,423.27 L531.51,423.31 L531.51,423.35 L531.52,423.39 L531.52,423.43 L531.52,423.48 C531.52,424.48,530.57,424.48,529.88,424.48 H500.04 C499.33,424.48,498.39,424.48,498.39,423.48 C498.39,422.5,499.33,422.5,500.08,422.5 Z " /><path
         id="path4140"
         fill="black"
         stroke-width="0"
         d="M529.88,412.82 L529.94,412.82 L530.01,412.82 L530.15,412.83 L530.29,412.83 L530.36,412.83 L530.43,412.84 L530.49,412.85 L530.56,412.85 L530.63,412.86 L530.7,412.88 L530.77,412.89 L530.83,412.91 L530.9,412.93 L530.96,412.95 L531.02,412.97 L531.07,413 L531.13,413.03 L531.18,413.07 L531.23,413.11 L531.28,413.15 L531.32,413.2 L531.34,413.22 L531.36,413.25 L531.38,413.27 L531.4,413.3 L531.41,413.33 L531.43,413.36 L531.44,413.39 L531.45,413.42 L531.47,413.46 L531.48,413.49 L531.49,413.53 L531.5,413.57 L531.5,413.61 L531.51,413.65 L531.51,413.69 L531.52,413.73 L531.52,413.78 L531.52,413.82 C531.52,414.82,530.57,414.82,529.83,414.82 H500.08 C499.33,414.82,498.39,414.82,498.39,413.82 C498.39,412.82,499.33,412.82,500.04,412.82 Z " /><path
         id="path4142"
         fill="black"
         stroke-width="0"
         d="M584.47,455.25 L584.01,454.87 L583.55,454.51 L583.08,454.16 L582.61,453.83 L582.14,453.52 L581.66,453.23 L581.18,452.96 L580.7,452.72 L580.46,452.6 L580.22,452.49 L579.98,452.39 L579.74,452.3 L579.5,452.21 L579.25,452.13 L579.01,452.05 L578.77,451.98 L578.53,451.92 L578.29,451.87 L578.05,451.82 L577.81,451.79 L577.57,451.76 L577.33,451.74 L577.09,451.72 L576.85,451.72 C574.86,451.72,573.41,452.56,571.68,453.56 C570.22,454.41,568.68,455.25,566.69,455.25 C565.44,455.25,564.15,454.86,563.05,454.36 C562.05,453.86,561.05,453.31,560.21,452.61 L557.52,450.42 L558.22,449.58 C560.66,451.61,563.3,453.11,565.83,453.11 C567.83,453.11,569.28,452.27,571.02,451.27 C572.47,450.42,574,449.58,576,449.58 C577.25,449.58,578.55,449.97,579.65,450.47 C580.63,450.97,581.63,451.52,582.47,452.22 L585.18,454.41 Z " /><path
         id="path4144"
         fill="black"
         stroke-width="0"
         d="M566.44,426.12 H570.72 C571.72,426.12,572.22,426.12,572.22,427.12 C572.22,427.67,571.72,427.67,570.88,427.67 H566.74 L567.78,433.36 C567.99,434.4,568.69,437.93,568.99,438.53 C569.44,439.48,570.28,440.23,571.33,440.23 C571.52,440.23,572.82,440.23,573.77,439.32 C571.58,439.14,571.08,437.39,571.08,436.64 C571.08,435.5,571.97,434.9,572.93,434.9 C574.22,434.9,575.66,436,575.66,437.89 C575.66,440.18,573.36,441.32,571.33,441.32 C569.63,441.32,566.49,440.43,565,435.5 C564.71,434.45,564.55,433.95,563.36,427.67 H559.93 C558.97,427.67,558.43,427.67,558.43,426.73 C558.43,426.12,558.88,426.12,559.82,426.12 H563.11 L559.36,406.45 C558.47,401.62,557.63,397.07,555.03,397.07 C554.83,397.07,553.6,397.07,552.65,397.98 C554.94,398.12,555.38,399.92,555.38,400.67 C555.38,401.81,554.49,402.42,553.53,402.42 C552.24,402.42,550.8,401.32,550.8,399.42 C550.8,397.18,552.99,395.98,555.03,395.98 C557.77,395.98,559.77,398.92,560.66,400.82 C562.25,403.96,563.41,409.98,563.46,410.34 Z " /><path
         id="path4146"
         fill="black"
         stroke-width="0"
         d="M584.19,420.92 L584.19,420.96 L584.19,421 L584.19,421.05 L584.19,421.09 L584.19,421.12 L584.19,421.16 L584.19,421.2 L584.19,421.23 L584.18,421.27 L584.18,421.3 L584.18,421.33 L584.18,421.36 L584.18,421.39 L584.17,421.42 L584.17,421.45 L584.17,421.47 L584.16,421.5 L584.16,421.52 L584.15,421.55 L584.15,421.57 L584.13,421.61 L584.12,421.65 L584.1,421.68 L584.08,421.71 L584.06,421.74 L584.04,421.77 L584.01,421.79 L583.98,421.81 L583.95,421.83 L583.91,421.84 L583.87,421.85 L583.82,421.87 L583.8,421.87 L583.78,421.87 L583.75,421.88 L583.72,421.88 L583.7,421.89 L583.67,421.89 L583.64,421.89 L583.61,421.89 L583.58,421.89 L583.54,421.9 L583.51,421.9 L583.47,421.9 L583.44,421.9 L583.4,421.9 L583.36,421.9 L583.32,421.9 L583.28,421.9 L583.23,421.9 L583.19,421.9 L583.15,421.9 C580.91,419.7,577.75,419.67,576.32,419.67 V418.42 C577.16,418.42,579.46,418.42,581.36,419.39 V401.62 C581.36,400.46,581.36,400.01,577.88,400.01 H576.57 V398.76 C577.19,398.79,581.47,398.9,582.77,398.9 C583.85,398.9,588.24,398.79,589,398.76 V400.01 H587.68 C584.19,400.01,584.19,400.46,584.19,401.62 Z " /><path
         id="path4148"
         fill="black"
         stroke-width="0"
         d="M610.3,409.87 L610.3,410.58 L610.28,411.26 L610.25,411.92 L610.21,412.56 L610.15,413.18 L610.07,413.78 L609.98,414.35 L609.87,414.91 L609.75,415.46 L609.6,415.99 L609.43,416.5 L609.24,417 L609.03,417.49 L608.79,417.97 L608.53,418.44 L608.39,418.67 L608.24,418.9 C607.16,420.51,605,421.9,602.21,421.9 V420.92 C604.1,420.92,605.91,419.78,606.53,417.75 C607.1,415.87,607.13,413.36,607.13,410.32 C607.13,407.75,607.13,405.17,606.68,402.98 C605.97,399.81,603.61,399.04,602.21,399.04 H602.21 C600.61,399.04,598.49,399.98,597.78,402.84 C597.3,404.89,597.3,407.75,597.3,410.32 C597.3,412.87,597.3,415.53,597.82,417.43 C598.55,420.18,600.78,420.92,602.21,420.92 V421.9 C594.13,421.9,594.13,412.39,594.13,409.87 C594.13,407.37,594.13,398.06,602.21,398.06 C610.3,398.06,610.3,407.37,610.3,409.87 Z " /><path
         id="path4150"
         fill="black"
         stroke-width="0"
         d="M631.25,394.25 L631.25,394.27 L631.24,394.3 L631.24,394.31 L631.24,394.33 L631.24,394.34 L631.23,394.36 L631.23,394.37 L631.22,394.39 L631.21,394.41 L631.2,394.43 L631.19,394.45 L631.18,394.48 L631.16,394.5 L631.14,394.53 L631.12,394.56 L631.1,394.59 L631.07,394.62 L631.04,394.66 L631.02,394.68 L631.01,394.7 L630.99,394.72 L630.97,394.74 L630.95,394.76 L630.93,394.79 L630.91,394.81 L630.89,394.83 L630.87,394.86 L630.84,394.88 L630.82,394.91 L630.79,394.94 L630.77,394.97 L630.74,395 L630.71,395.03 L630.68,395.06 L630.65,395.09 L630.62,395.12 L630.58,395.16 L630.55,395.19 L630.52,395.23 L630.48,395.26 L630.44,395.3 L630.4,395.34 C624.18,401.62,622.59,411.03,622.59,418.65 C622.59,427.32,624.48,436,630.6,442.21 C631.25,442.82,631.25,442.92,631.25,443.07 C631.25,443.42,631.06,443.56,630.76,443.56 C630.26,443.56,625.78,440.18,622.84,433.86 C620.29,428.37,619.7,422.84,619.7,418.65 C619.7,414.76,620.25,408.75,622.98,403.11 C625.97,396.98,630.26,393.75,630.76,393.75 C631.06,393.75,631.25,393.89,631.25,394.25 Z " /><path
         id="path4152"
         fill="black"
         stroke-width="0"
         d="M650.72,421.25 L650.75,421.38 L650.78,421.53 L650.83,421.69 L650.87,421.87 L650.93,422.06 L650.98,422.27 L651.05,422.49 L651.12,422.71 L651.2,422.94 L651.29,423.18 L651.39,423.43 L651.49,423.67 L651.6,423.92 L651.72,424.17 L651.85,424.42 L651.99,424.67 L652.13,424.91 L652.29,425.15 L652.46,425.38 L652.63,425.6 L652.82,425.82 L653.02,426.02 L653.23,426.21 L653.45,426.39 L653.68,426.55 L653.93,426.69 L654.05,426.76 L654.18,426.82 L654.32,426.87 L654.45,426.92 L654.59,426.97 L654.73,427.01 L654.88,427.04 L655.03,427.07 L655.18,427.09 L655.33,427.11 L655.49,427.12 L655.66,427.12 C655.91,427.12,657.09,427.12,658.14,426.48 C656.75,426.23,655.75,424.98,655.75,423.79 C655.75,423,656.3,422.04,657.64,422.04 C658.73,422.04,660.33,422.93,660.33,424.93 C660.33,427.53,657.39,428.21,655.7,428.21 C652.81,428.21,651.06,425.57,650.47,424.43 C649.22,427.71,646.53,428.21,645.09,428.21 C639.91,428.21,637.06,421.79,637.06,420.54 C637.06,420.04,637.56,420.04,637.67,420.04 C638.06,420.04,638.22,420.15,638.31,420.59 C640,425.87,643.3,427.12,644.98,427.12 C645.94,427.12,647.67,426.68,647.67,423.79 C647.67,422.25,646.83,418.9,644.98,411.93 C644.19,408.84,642.45,406.75,640.25,406.75 C639.95,406.75,638.81,406.75,637.77,407.4 C639.02,407.64,640.11,408.68,640.11,410.09 C640.11,411.43,639.02,411.82,638.27,411.82 C636.77,411.82,635.52,410.53,635.52,408.93 C635.52,406.65,638.02,405.65,640.2,405.65 C643.5,405.65,645.28,409.14,645.44,409.43 C646.03,407.59,647.83,405.65,650.81,405.65 C655.95,405.65,658.8,412.07,658.8,413.32 C658.8,413.82,658.34,413.82,658.19,413.82 C657.75,413.82,657.64,413.62,657.55,413.28 C655.91,407.95,652.52,406.75,650.92,406.75 C648.97,406.75,648.17,408.34,648.17,410.04 C648.17,411.14,648.47,412.23,649.03,414.42 Z " /><path
         id="path4154"
         fill="black"
         stroke-width="0"
         d="M676.91,418.65 L676.9,419.02 L676.9,419.41 L676.89,419.8 L676.88,420.21 L676.84,421.05 L676.78,421.93 L676.7,422.85 L676.59,423.8 L676.45,424.77 L676.29,425.78 L676.09,426.8 L675.86,427.83 L675.6,428.88 L675.29,429.94 L674.94,431.01 L674.55,432.08 L674.34,432.61 L674.11,433.14 L673.87,433.67 L673.62,434.2 C670.64,440.32,666.36,443.56,665.86,443.56 C665.56,443.56,665.36,443.37,665.36,443.07 C665.36,442.92,665.36,442.82,666.3,441.92 C671.19,437,674.03,429.07,674.03,418.65 C674.03,410.14,672.19,401.37,666,395.09 C665.36,394.5,665.36,394.39,665.36,394.25 C665.36,393.95,665.56,393.75,665.86,393.75 C666.36,393.75,670.83,397.14,673.78,403.46 C676.31,408.93,676.91,414.46,676.91,418.65 Z " /></g>  </g>
</svg>
