<?xml version="1.0" encoding="UTF-8" standalone="no"?>
<svg
   xmlns:dc="http://purl.org/dc/elements/1.1/"
   xmlns:cc="http://creativecommons.org/ns#"
   xmlns:rdf="http://www.w3.org/1999/02/22-rdf-syntax-ns#"
   xmlns:svg="http://www.w3.org/2000/svg"
   xmlns="http://www.w3.org/2000/svg"
   xmlns:xlink="http://www.w3.org/1999/xlink"
   xmlns:sodipodi="http://sodipodi.sourceforge.net/DTD/sodipodi-0.dtd"
   xmlns:inkscape="http://www.inkscape.org/namespaces/inkscape"
   width="600"
   height="480"
   viewBox="0 0 600 480"
   id="svg2"
   version="1.1"
   inkscape:version="0.48.4 r9939"
   sodipodi:docname="spring.svg">
  <metadata
     id="metadata385">
    <rdf:RDF>
      <cc:Work
         rdf:about="">
        <dc:format>image/svg+xml</dc:format>
        <dc:type
           rdf:resource="http://purl.org/dc/dcmitype/StillImage" />
      </cc:Work>
    </rdf:RDF>
  </metadata>
  <defs
     id="defs383">
    <defs
       id="defs11">
      <circle
         stroke-width="0.5"
         r="0.5"
         id="gpDot" />
      <path
         d="M-1,0 h2 M0,-1 v2"
         stroke="currentColor"
         stroke-width="0.222"
         id="gpPt0" />
      <path
         d="M-1,-1 L1,1 M1,-1 L-1,1"
         stroke="currentColor"
         stroke-width="0.222"
         id="gpPt1" />
      <path
         d="M-1,0 L1,0 M0,-1 L0,1 M-1,-1 L1,1 M-1,1 L1,-1"
         stroke="currentColor"
         stroke-width="0.222"
         id="gpPt2" />
      <rect
         height="2"
         width="2"
         y="-1"
         x="-1"
         stroke="currentColor"
         stroke-width="0.222"
         id="gpPt3" />
      <rect
         height="2"
         width="2"
         y="-1"
         x="-1"
         fill="currentColor"
         stroke="currentColor"
         stroke-width="0.222"
         id="gpPt4" />
      <circle
         r="1"
         cy="0"
         cx="0"
         stroke="currentColor"
         stroke-width="0.222"
         id="gpPt5" />
      <use
         stroke="none"
         fill="currentColor"
         id="gpPt6"
         xlink:href="#gpPt5" />
      <path
         d="M0,-1.33 L-1.33,0.67 L1.33,0.67 z"
         stroke="currentColor"
         stroke-width="0.222"
         id="gpPt7" />
      <use
         stroke="none"
         fill="currentColor"
         id="gpPt8"
         xlink:href="#gpPt7" />
      <use
         transform="rotate(180)"
         stroke="currentColor"
         id="gpPt9"
         xlink:href="#gpPt7" />
      <use
         stroke="none"
         fill="currentColor"
         id="gpPt10"
         xlink:href="#gpPt9" />
      <use
         transform="rotate(45)"
         stroke="currentColor"
         id="gpPt11"
         xlink:href="#gpPt3" />
      <use
         stroke="none"
         fill="currentColor"
         id="gpPt12"
         xlink:href="#gpPt11" />
    </defs>
  </defs>
  <sodipodi:namedview
     pagecolor="#000000"
     bordercolor="#666666"
     borderopacity="1"
     objecttolerance="10"
     gridtolerance="10"
     guidetolerance="10"
     inkscape:pageopacity="1"
     inkscape:pageshadow="2"
     inkscape:window-width="1366"
     inkscape:window-height="746"
     id="namedview381"
     showgrid="false"
     inkscape:zoom="0.98333333"
     inkscape:cx="354.12189"
     inkscape:cy="258.1648"
     inkscape:window-x="-8"
     inkscape:window-y="-8"
     inkscape:window-maximized="1"
     inkscape:current-layer="svg2" />
  <title
     id="title4">Gnuplot</title>
  <desc
     id="desc6">Produced by GNUPLOT 4.6 patchlevel 0 </desc>
  <g
     id="g27"
     style="color:#ffffff;fill:none;stroke:currentColor;stroke-width:1;stroke-linecap:butt;stroke-linejoin:miter" />
  <path
     style="color:#000000;fill:none;stroke:#ffffff;stroke-width:1;stroke-linecap:butt;stroke-linejoin:miter"
     d="m 53.9,444 9,0 m 512.1,0 -9,0 h 0.01"
     id="path31"
     inkscape:connector-curvature="0" />
  <g
     transform="translate(45.6,448.5)"
     style="font-size:15px;text-anchor:end;color:#000000;fill:#ffffff;stroke:none;stroke-width:1;stroke-linecap:butt;stroke-linejoin:miter;font-family:Arial"
     id="g33">
    <text
       style="fill:#ffffff;stroke:none"
       id="text35">-1</text>
  </g>
  <path
     style="color:#000000;fill:none;stroke:#ffffff;stroke-width:1;stroke-linecap:butt;stroke-linejoin:miter"
     d="m 53.9,401.3 9,0 m 512.1,0 -9,0 h 0.01"
     id="path37"
     inkscape:connector-curvature="0" />
  <g
     transform="translate(45.6,405.8)"
     style="font-size:15px;text-anchor:end;color:#000000;fill:#ffffff;stroke:none;stroke-width:1;stroke-linecap:butt;stroke-linejoin:miter;font-family:Arial"
     id="g39">
    <text
       style="fill:#ffffff;stroke:none"
       id="text41">-0.8</text>
  </g>
  <path
     style="color:#000000;fill:none;stroke:#ffffff;stroke-width:1;stroke-linecap:butt;stroke-linejoin:miter"
     d="m 53.9,358.5 9,0 m 512.1,0 -9,0 h 0.01"
     id="path43"
     inkscape:connector-curvature="0" />
  <g
     transform="translate(45.6,363)"
     style="font-size:15px;text-anchor:end;color:#000000;fill:#ffffff;stroke:none;stroke-width:1;stroke-linecap:butt;stroke-linejoin:miter;font-family:Arial"
     id="g45">
    <text
       style="fill:#ffffff;stroke:none"
       id="text47">-0.6</text>
  </g>
  <path
     style="color:#000000;fill:none;stroke:#ffffff;stroke-width:1;stroke-linecap:butt;stroke-linejoin:miter"
     d="m 53.9,315.8 9,0 m 512.1,0 -9,0 h 0.01"
     id="path49"
     inkscape:connector-curvature="0" />
  <g
     transform="translate(45.6,320.3)"
     style="font-size:15px;text-anchor:end;color:#000000;fill:#ffffff;stroke:none;stroke-width:1;stroke-linecap:butt;stroke-linejoin:miter;font-family:Arial"
     id="g51">
    <text
       style="fill:#ffffff;stroke:none"
       id="text53">-0.4</text>
  </g>
  <path
     style="color:#000000;fill:none;stroke:#ffffff;stroke-width:1;stroke-linecap:butt;stroke-linejoin:miter"
     d="m 53.9,273.1 9,0 m 512.1,0 -9,0 h 0.01"
     id="path55"
     inkscape:connector-curvature="0" />
  <g
     transform="translate(45.6,277.6)"
     style="font-size:15px;text-anchor:end;color:#000000;fill:#ffffff;stroke:none;stroke-width:1;stroke-linecap:butt;stroke-linejoin:miter;font-family:Arial"
     id="g57">
    <text
       style="fill:#ffffff;stroke:none"
       id="text59">-0.2</text>
  </g>
  <path
     style="color:#000000;fill:none;stroke:#ffffff;stroke-width:1;stroke-linecap:butt;stroke-linejoin:miter"
     d="m 53.9,230.3 9,0 m 512.1,0 -9,0 h 0.01"
     id="path61"
     inkscape:connector-curvature="0" />
  <g
     transform="translate(45.6,234.8)"
     style="font-size:15px;text-anchor:end;color:#000000;fill:#ffffff;stroke:none;stroke-width:1;stroke-linecap:butt;stroke-linejoin:miter;font-family:Arial"
     id="g63">
    <text
       style="fill:#ffffff;stroke:none"
       id="text65">0</text>
  </g>
  <path
     style="color:#000000;fill:none;stroke:#ffffff;stroke-width:1;stroke-linecap:butt;stroke-linejoin:miter"
     d="m 53.9,187.6 9,0 m 512.1,0 -9,0 h 0.01"
     id="path67"
     inkscape:connector-curvature="0" />
  <g
     transform="translate(45.6,192.1)"
     style="font-size:15px;text-anchor:end;color:#000000;fill:#ffffff;stroke:none;stroke-width:1;stroke-linecap:butt;stroke-linejoin:miter;font-family:Arial"
     id="g69">
    <text
       style="fill:#ffffff;stroke:none"
       id="text71">0.2</text>
  </g>
  <path
     style="color:#000000;fill:none;stroke:#ffffff;stroke-width:1;stroke-linecap:butt;stroke-linejoin:miter"
     d="m 53.9,144.9 9,0 m 512.1,0 -9,0 h 0.01"
     id="path73"
     inkscape:connector-curvature="0" />
  <g
     transform="translate(45.6,149.4)"
     style="font-size:15px;text-anchor:end;color:#000000;fill:#ffffff;stroke:none;stroke-width:1;stroke-linecap:butt;stroke-linejoin:miter;font-family:Arial"
     id="g75">
    <text
       style="fill:#ffffff;stroke:none"
       id="text77">0.4</text>
  </g>
  <path
     style="color:#000000;fill:none;stroke:#ffffff;stroke-width:1;stroke-linecap:butt;stroke-linejoin:miter"
     d="m 53.9,102.2 9,0 m 512.1,0 -9,0 h 0.01"
     id="path79"
     inkscape:connector-curvature="0" />
  <g
     transform="translate(45.6,106.7)"
     style="font-size:15px;text-anchor:end;color:#000000;fill:#ffffff;stroke:none;stroke-width:1;stroke-linecap:butt;stroke-linejoin:miter;font-family:Arial"
     id="g81">
    <text
       style="fill:#ffffff;stroke:none"
       id="text83">0.6</text>
  </g>
  <path
     style="color:#000000;fill:none;stroke:#ffffff;stroke-width:1;stroke-linecap:butt;stroke-linejoin:miter"
     d="m 53.9,59.4 9,0 m 512.1,0 -9,0 h 0.01"
     id="path85"
     inkscape:connector-curvature="0" />
  <g
     transform="translate(45.6,63.9)"
     style="font-size:15px;text-anchor:end;color:#000000;fill:#ffffff;stroke:none;stroke-width:1;stroke-linecap:butt;stroke-linejoin:miter;font-family:Arial"
     id="g87">
    <text
       style="fill:#ffffff;stroke:none"
       id="text89">0.8</text>
  </g>
  <path
     style="color:#000000;fill:none;stroke:#ffffff;stroke-width:1;stroke-linecap:butt;stroke-linejoin:miter"
     d="m 53.9,16.7 9,0 m 512.1,0 -9,0 h 0.01"
     id="path91"
     inkscape:connector-curvature="0" />
  <g
     transform="translate(45.6,21.2)"
     style="font-size:15px;text-anchor:end;color:#000000;fill:#ffffff;stroke:none;stroke-width:1;stroke-linecap:butt;stroke-linejoin:miter;font-family:Arial"
     id="g93">
    <text
       style="fill:#ffffff;stroke:none"
       id="text95">1</text>
  </g>
  <path
     style="color:#000000;fill:none;stroke:#ffffff;stroke-width:1;stroke-linecap:butt;stroke-linejoin:miter"
     d="m 53.9,444 0,-9 m 0,-418.3 0,9 h 0.01"
     id="path97"
     inkscape:connector-curvature="0" />
  <g
     transform="translate(53.9,466.5)"
     style="font-size:15px;text-anchor:middle;color:#000000;fill:#ffffff;stroke:none;stroke-width:1;stroke-linecap:butt;stroke-linejoin:miter;font-family:Arial"
     id="g99">
    <text
       style="fill:#ffffff;stroke:none"
       id="text101">0</text>
  </g>
  <path
     style="color:#000000;fill:none;stroke:#ffffff;stroke-width:1;stroke-linecap:butt;stroke-linejoin:miter"
     d="m 106,444 0,-9 m 0,-418.3 0,9 h 0.01"
     id="path103"
     inkscape:connector-curvature="0" />
  <g
     transform="translate(106,466.5)"
     style="font-size:15px;text-anchor:middle;color:#000000;fill:#ffffff;stroke:none;stroke-width:1;stroke-linecap:butt;stroke-linejoin:miter;font-family:Arial"
     id="g105">
    <text
       style="fill:#ffffff;stroke:none"
       id="text107">1</text>
  </g>
  <path
     style="color:#000000;fill:none;stroke:#ffffff;stroke-width:1;stroke-linecap:butt;stroke-linejoin:miter"
     d="m 158.1,444 0,-9 m 0,-418.3 0,9 h 0.01"
     id="path109"
     inkscape:connector-curvature="0" />
  <g
     transform="translate(158.1,466.5)"
     style="font-size:15px;text-anchor:middle;color:#000000;fill:#ffffff;stroke:none;stroke-width:1;stroke-linecap:butt;stroke-linejoin:miter;font-family:Arial"
     id="g111">
    <text
       style="fill:#ffffff;stroke:none"
       id="text113">2</text>
  </g>
  <path
     style="color:#000000;fill:none;stroke:#ffffff;stroke-width:1;stroke-linecap:butt;stroke-linejoin:miter"
     d="m 210.2,444 0,-9 m 0,-418.3 0,9 h 0.01"
     id="path115"
     inkscape:connector-curvature="0" />
  <g
     transform="translate(210.2,466.5)"
     style="font-size:15px;text-anchor:middle;color:#000000;fill:#ffffff;stroke:none;stroke-width:1;stroke-linecap:butt;stroke-linejoin:miter;font-family:Arial"
     id="g117">
    <text
       style="fill:#ffffff;stroke:none"
       id="text119">3</text>
  </g>
  <path
     style="color:#000000;fill:none;stroke:#ffffff;stroke-width:1;stroke-linecap:butt;stroke-linejoin:miter"
     d="m 262.3,444 0,-9 m 0,-418.3 0,9 h 0.01"
     id="path121"
     inkscape:connector-curvature="0" />
  <g
     transform="translate(262.3,466.5)"
     style="font-size:15px;text-anchor:middle;color:#000000;fill:#ffffff;stroke:none;stroke-width:1;stroke-linecap:butt;stroke-linejoin:miter;font-family:Arial"
     id="g123">
    <text
       style="fill:#ffffff;stroke:none"
       id="text125">4</text>
  </g>
  <path
     style="color:#000000;fill:none;stroke:#ffffff;stroke-width:1;stroke-linecap:butt;stroke-linejoin:miter"
     d="m 314.5,444 0,-9 m 0,-418.3 0,9 h 0.01"
     id="path127"
     inkscape:connector-curvature="0" />
  <g
     transform="translate(314.5,466.5)"
     style="font-size:15px;text-anchor:middle;color:#000000;fill:#ffffff;stroke:none;stroke-width:1;stroke-linecap:butt;stroke-linejoin:miter;font-family:Arial"
     id="g129">
    <text
       style="fill:#ffffff;stroke:none"
       id="text131">5</text>
  </g>
  <path
     style="color:#000000;fill:none;stroke:#ffffff;stroke-width:1;stroke-linecap:butt;stroke-linejoin:miter"
     d="m 366.6,444 0,-9 m 0,-418.3 0,9 h 0.01"
     id="path133"
     inkscape:connector-curvature="0" />
  <g
     transform="translate(366.6,466.5)"
     style="font-size:15px;text-anchor:middle;color:#000000;fill:#ffffff;stroke:none;stroke-width:1;stroke-linecap:butt;stroke-linejoin:miter;font-family:Arial"
     id="g135">
    <text
       style="fill:#ffffff;stroke:none"
       id="text137">6</text>
  </g>
  <path
     style="color:#000000;fill:none;stroke:#ffffff;stroke-width:1;stroke-linecap:butt;stroke-linejoin:miter"
     d="m 418.7,444 0,-9 m 0,-418.3 0,9 h 0.01"
     id="path139"
     inkscape:connector-curvature="0" />
  <g
     transform="translate(418.7,466.5)"
     style="font-size:15px;text-anchor:middle;color:#000000;fill:#ffffff;stroke:none;stroke-width:1;stroke-linecap:butt;stroke-linejoin:miter;font-family:Arial"
     id="g141">
    <text
       style="fill:#ffffff;stroke:none"
       id="text143">7</text>
  </g>
  <path
     style="color:#000000;fill:none;stroke:#ffffff;stroke-width:1;stroke-linecap:butt;stroke-linejoin:miter"
     d="m 470.8,444 0,-9 m 0,-418.3 0,9 h 0.01"
     id="path145"
     inkscape:connector-curvature="0" />
  <g
     transform="translate(470.8,466.5)"
     style="font-size:15px;text-anchor:middle;color:#000000;fill:#ffffff;stroke:none;stroke-width:1;stroke-linecap:butt;stroke-linejoin:miter;font-family:Arial"
     id="g147">
    <text
       style="fill:#ffffff;stroke:none"
       id="text149">8</text>
  </g>
  <path
     style="color:#000000;fill:none;stroke:#ffffff;stroke-width:1;stroke-linecap:butt;stroke-linejoin:miter"
     d="m 522.9,444 0,-9 m 0,-418.3 0,9 h 0.01"
     id="path151"
     inkscape:connector-curvature="0" />
  <g
     transform="translate(522.9,466.5)"
     style="font-size:15px;text-anchor:middle;color:#000000;fill:#ffffff;stroke:none;stroke-width:1;stroke-linecap:butt;stroke-linejoin:miter;font-family:Arial"
     id="g153">
    <text
       style="fill:#ffffff;stroke:none"
       id="text155">9</text>
  </g>
  <path
     style="color:#000000;fill:none;stroke:#ffffff;stroke-width:1;stroke-linecap:butt;stroke-linejoin:miter"
     d="m 575,444 0,-9 m 0,-418.3 0,9 h 0.01"
     id="path157"
     inkscape:connector-curvature="0" />
  <g
     transform="translate(575,466.5)"
     style="font-size:15px;text-anchor:middle;color:#000000;fill:#ffffff;stroke:none;stroke-width:1;stroke-linecap:butt;stroke-linejoin:miter;font-family:Arial"
     id="g159">
    <text
       style="fill:#ffffff;stroke:none"
       id="text161">10</text>
  </g>
  <path
     style="color:#000000;fill:none;stroke:#ffffff;stroke-width:1;stroke-linecap:butt;stroke-linejoin:miter"
     d="m 53.9,16.7 0,427.3 521.1,0 0,-427.3 -521.1,0 z m 0,0 h 0.01"
     id="path163"
     inkscape:connector-curvature="0" />
  <g
     id="gnuplot_plot_1">
    <title
       id="title166">gnuplot_plot_1</title>
    <g
       id="g168"
       style="color:#ff0000;fill:none;stroke:currentColor;stroke-width:1;stroke-linecap:butt;stroke-linejoin:miter">
      <use
         height="480"
         width="600"
         y="0"
         x="0"
         style="color:#add8e6"
         id="use170"
         transform="matrix(4.5,0,0,4.5,53.9,16.7)"
         xlink:href="#gpPt6" />
      <use
         height="480"
         width="600"
         y="0"
         x="0"
         style="color:#add8e6"
         id="use172"
         transform="matrix(4.5,0,0,4.5,59.1,17.8)"
         xlink:href="#gpPt6" />
      <use
         height="480"
         width="600"
         y="0"
         x="0"
         style="color:#add8e6"
         id="use174"
         transform="matrix(4.5,0,0,4.5,64.3,21)"
         xlink:href="#gpPt6" />
      <use
         height="480"
         width="600"
         y="0"
         x="0"
         style="color:#add8e6"
         id="use176"
         transform="matrix(4.5,0,0,4.5,69.5,26.2)"
         xlink:href="#gpPt6" />
      <use
         height="480"
         width="600"
         y="0"
         x="0"
         style="color:#add8e6"
         id="use178"
         transform="matrix(4.5,0,0,4.5,74.7,33.6)"
         xlink:href="#gpPt6" />
      <use
         height="480"
         width="600"
         y="0"
         x="0"
         style="color:#add8e6"
         id="use180"
         transform="matrix(4.5,0,0,4.5,80,42.9)"
         xlink:href="#gpPt6" />
      <use
         height="480"
         width="600"
         y="0"
         x="0"
         style="color:#add8e6"
         id="use182"
         transform="matrix(4.5,0,0,4.5,85.2,54)"
         xlink:href="#gpPt6" />
      <use
         height="480"
         width="600"
         y="0"
         x="0"
         style="color:#add8e6"
         id="use184"
         transform="matrix(4.5,0,0,4.5,90.4,66.9)"
         xlink:href="#gpPt6" />
      <use
         height="480"
         width="600"
         y="0"
         x="0"
         style="color:#add8e6"
         id="use186"
         transform="matrix(4.5,0,0,4.5,95.6,81.5)"
         xlink:href="#gpPt6" />
      <use
         height="480"
         width="600"
         y="0"
         x="0"
         style="color:#add8e6"
         id="use188"
         transform="matrix(4.5,0,0,4.5,100.8,97.5)"
         xlink:href="#gpPt6" />
      <use
         height="480"
         width="600"
         y="0"
         x="0"
         style="color:#add8e6"
         id="use190"
         transform="matrix(4.5,0,0,4.5,106,114.9)"
         xlink:href="#gpPt6" />
      <use
         height="480"
         width="600"
         y="0"
         x="0"
         style="color:#add8e6"
         id="use192"
         transform="matrix(4.5,0,0,4.5,111.2,133.4)"
         xlink:href="#gpPt6" />
      <use
         height="480"
         width="600"
         y="0"
         x="0"
         style="color:#add8e6"
         id="use194"
         transform="matrix(4.5,0,0,4.5,116.4,152.9)"
         xlink:href="#gpPt6" />
      <use
         height="480"
         width="600"
         y="0"
         x="0"
         style="color:#add8e6"
         id="use196"
         transform="matrix(4.5,0,0,4.5,121.6,173.2)"
         xlink:href="#gpPt6" />
      <use
         height="480"
         width="600"
         y="0"
         x="0"
         style="color:#add8e6"
         id="use198"
         transform="matrix(4.5,0,0,4.5,126.9,194)"
         xlink:href="#gpPt6" />
      <use
         height="480"
         width="600"
         y="0"
         x="0"
         style="color:#add8e6"
         id="use200"
         transform="matrix(4.5,0,0,4.5,132.1,215.2)"
         xlink:href="#gpPt6" />
      <use
         height="480"
         width="600"
         y="0"
         x="0"
         style="color:#add8e6"
         id="use202"
         transform="matrix(4.5,0,0,4.5,137.3,236.6)"
         xlink:href="#gpPt6" />
      <use
         height="480"
         width="600"
         y="0"
         x="0"
         style="color:#add8e6"
         id="use204"
         transform="matrix(4.5,0,0,4.5,142.5,257.9)"
         xlink:href="#gpPt6" />
      <use
         height="480"
         width="600"
         y="0"
         x="0"
         style="color:#add8e6"
         id="use206"
         transform="matrix(4.5,0,0,4.5,147.7,278.9)"
         xlink:href="#gpPt6" />
      <use
         height="480"
         width="600"
         y="0"
         x="0"
         style="color:#add8e6"
         id="use208"
         transform="matrix(4.5,0,0,4.5,152.9,299.4)"
         xlink:href="#gpPt6" />
      <use
         height="480"
         width="600"
         y="0"
         x="0"
         style="color:#add8e6"
         id="use210"
         transform="matrix(4.5,0,0,4.5,158.1,319.3)"
         xlink:href="#gpPt6" />
      <use
         height="480"
         width="600"
         y="0"
         x="0"
         style="color:#add8e6"
         id="use212"
         transform="matrix(4.5,0,0,4.5,163.3,338.2)"
         xlink:href="#gpPt6" />
      <use
         height="480"
         width="600"
         y="0"
         x="0"
         style="color:#add8e6"
         id="use214"
         transform="matrix(4.5,0,0,4.5,168.5,356.1)"
         xlink:href="#gpPt6" />
      <use
         height="480"
         width="600"
         y="0"
         x="0"
         style="color:#add8e6"
         id="use216"
         transform="matrix(4.5,0,0,4.5,173.8,372.7)"
         xlink:href="#gpPt6" />
      <use
         height="480"
         width="600"
         y="0"
         x="0"
         style="color:#add8e6"
         id="use218"
         transform="matrix(4.5,0,0,4.5,179,387.9)"
         xlink:href="#gpPt6" />
      <use
         height="480"
         width="600"
         y="0"
         x="0"
         style="color:#add8e6"
         id="use220"
         transform="matrix(4.5,0,0,4.5,184.2,401.5)"
         xlink:href="#gpPt6" />
      <use
         height="480"
         width="600"
         y="0"
         x="0"
         style="color:#add8e6"
         id="use222"
         transform="matrix(4.5,0,0,4.5,189.4,413.4)"
         xlink:href="#gpPt6" />
      <use
         height="480"
         width="600"
         y="0"
         x="0"
         style="color:#add8e6"
         id="use224"
         transform="matrix(4.5,0,0,4.5,194.6,423.5)"
         xlink:href="#gpPt6" />
      <use
         height="480"
         width="600"
         y="0"
         x="0"
         style="color:#add8e6"
         id="use226"
         transform="matrix(4.5,0,0,4.5,199.8,431.7)"
         xlink:href="#gpPt6" />
      <use
         height="480"
         width="600"
         y="0"
         x="0"
         style="color:#add8e6"
         id="use228"
         transform="matrix(4.5,0,0,4.5,205,437.8)"
         xlink:href="#gpPt6" />
      <use
         height="480"
         width="600"
         y="0"
         x="0"
         style="color:#add8e6"
         id="use230"
         transform="matrix(4.5,0,0,4.5,210.2,441.9)"
         xlink:href="#gpPt6" />
      <use
         height="480"
         width="600"
         y="0"
         x="0"
         style="color:#add8e6"
         id="use232"
         transform="matrix(4.5,0,0,4.5,215.4,443.8)"
         xlink:href="#gpPt6" />
      <use
         height="480"
         width="600"
         y="0"
         x="0"
         style="color:#add8e6"
         id="use234"
         transform="matrix(4.5,0,0,4.5,220.7,443.6)"
         xlink:href="#gpPt6" />
      <use
         height="480"
         width="600"
         y="0"
         x="0"
         style="color:#add8e6"
         id="use236"
         transform="matrix(4.5,0,0,4.5,225.9,441.3)"
         xlink:href="#gpPt6" />
      <use
         height="480"
         width="600"
         y="0"
         x="0"
         style="color:#add8e6"
         id="use238"
         transform="matrix(4.5,0,0,4.5,231.1,436.9)"
         xlink:href="#gpPt6" />
      <use
         height="480"
         width="600"
         y="0"
         x="0"
         style="color:#add8e6"
         id="use240"
         transform="matrix(4.5,0,0,4.5,236.3,430.4)"
         xlink:href="#gpPt6" />
      <use
         height="480"
         width="600"
         y="0"
         x="0"
         style="color:#add8e6"
         id="use242"
         transform="matrix(4.5,0,0,4.5,241.5,421.9)"
         xlink:href="#gpPt6" />
      <use
         height="480"
         width="600"
         y="0"
         x="0"
         style="color:#add8e6"
         id="use244"
         transform="matrix(4.5,0,0,4.5,246.7,411.5)"
         xlink:href="#gpPt6" />
      <use
         height="480"
         width="600"
         y="0"
         x="0"
         style="color:#add8e6"
         id="use246"
         transform="matrix(4.5,0,0,4.5,251.9,399.3)"
         xlink:href="#gpPt6" />
      <use
         height="480"
         width="600"
         y="0"
         x="0"
         style="color:#add8e6"
         id="use248"
         transform="matrix(4.5,0,0,4.5,257.1,385.4)"
         xlink:href="#gpPt6" />
      <use
         height="480"
         width="600"
         y="0"
         x="0"
         style="color:#add8e6"
         id="use250"
         transform="matrix(4.5,0,0,4.5,262.3,370)"
         xlink:href="#gpPt6" />
      <use
         height="480"
         width="600"
         y="0"
         x="0"
         style="color:#add8e6"
         id="use252"
         transform="matrix(4.5,0,0,4.5,267.6,353.2)"
         xlink:href="#gpPt6" />
      <use
         height="480"
         width="600"
         y="0"
         x="0"
         style="color:#add8e6"
         id="use254"
         transform="matrix(4.5,0,0,4.5,272.8,335.1)"
         xlink:href="#gpPt6" />
      <use
         height="480"
         width="600"
         y="0"
         x="0"
         style="color:#add8e6"
         id="use256"
         transform="matrix(4.5,0,0,4.5,278,316)"
         xlink:href="#gpPt6" />
      <use
         height="480"
         width="600"
         y="0"
         x="0"
         style="color:#add8e6"
         id="use258"
         transform="matrix(4.5,0,0,4.5,283.2,296)"
         xlink:href="#gpPt6" />
      <use
         height="480"
         width="600"
         y="0"
         x="0"
         style="color:#add8e6"
         id="use260"
         transform="matrix(4.5,0,0,4.5,288.4,275.4)"
         xlink:href="#gpPt6" />
      <use
         height="480"
         width="600"
         y="0"
         x="0"
         style="color:#add8e6"
         id="use262"
         transform="matrix(4.5,0,0,4.5,293.6,254.3)"
         xlink:href="#gpPt6" />
      <use
         height="480"
         width="600"
         y="0"
         x="0"
         style="color:#add8e6"
         id="use264"
         transform="matrix(4.5,0,0,4.5,298.8,233)"
         xlink:href="#gpPt6" />
      <use
         height="480"
         width="600"
         y="0"
         x="0"
         style="color:#add8e6"
         id="use266"
         transform="matrix(4.5,0,0,4.5,304,211.7)"
         xlink:href="#gpPt6" />
      <use
         height="480"
         width="600"
         y="0"
         x="0"
         style="color:#add8e6"
         id="use268"
         transform="matrix(4.5,0,0,4.5,309.2,190.5)"
         xlink:href="#gpPt6" />
      <use
         height="480"
         width="600"
         y="0"
         x="0"
         style="color:#add8e6"
         id="use270"
         transform="matrix(4.5,0,0,4.5,314.5,169.7)"
         xlink:href="#gpPt6" />
      <use
         height="480"
         width="600"
         y="0"
         x="0"
         style="color:#add8e6"
         id="use272"
         transform="matrix(4.5,0,0,4.5,319.7,149.6)"
         xlink:href="#gpPt6" />
      <use
         height="480"
         width="600"
         y="0"
         x="0"
         style="color:#add8e6"
         id="use274"
         transform="matrix(4.5,0,0,4.5,324.9,130.3)"
         xlink:href="#gpPt6" />
      <use
         height="480"
         width="600"
         y="0"
         x="0"
         style="color:#add8e6"
         id="use276"
         transform="matrix(4.5,0,0,4.5,330.1,111.9)"
         xlink:href="#gpPt6" />
      <use
         height="480"
         width="600"
         y="0"
         x="0"
         style="color:#add8e6"
         id="use278"
         transform="matrix(4.5,0,0,4.5,335.3,94.7)"
         xlink:href="#gpPt6" />
      <use
         height="480"
         width="600"
         y="0"
         x="0"
         style="color:#add8e6"
         id="use280"
         transform="matrix(4.5,0,0,4.5,340.5,78.9)"
         xlink:href="#gpPt6" />
      <use
         height="480"
         width="600"
         y="0"
         x="0"
         style="color:#add8e6"
         id="use282"
         transform="matrix(4.5,0,0,4.5,345.7,64.7)"
         xlink:href="#gpPt6" />
      <use
         height="480"
         width="600"
         y="0"
         x="0"
         style="color:#add8e6"
         id="use284"
         transform="matrix(4.5,0,0,4.5,350.9,52)"
         xlink:href="#gpPt6" />
      <use
         height="480"
         width="600"
         y="0"
         x="0"
         style="color:#add8e6"
         id="use286"
         transform="matrix(4.5,0,0,4.5,356.1,41.2)"
         xlink:href="#gpPt6" />
      <use
         height="480"
         width="600"
         y="0"
         x="0"
         style="color:#add8e6"
         id="use288"
         transform="matrix(4.5,0,0,4.5,361.3,32.2)"
         xlink:href="#gpPt6" />
      <use
         height="480"
         width="600"
         y="0"
         x="0"
         style="color:#add8e6"
         id="use290"
         transform="matrix(4.5,0,0,4.5,366.6,25.2)"
         xlink:href="#gpPt6" />
      <use
         height="480"
         width="600"
         y="0"
         x="0"
         style="color:#add8e6"
         id="use292"
         transform="matrix(4.5,0,0,4.5,371.8,20.3)"
         xlink:href="#gpPt6" />
      <use
         height="480"
         width="600"
         y="0"
         x="0"
         style="color:#add8e6"
         id="use294"
         transform="matrix(4.5,0,0,4.5,377,17.4)"
         xlink:href="#gpPt6" />
      <use
         height="480"
         width="600"
         y="0"
         x="0"
         style="color:#add8e6"
         id="use296"
         transform="matrix(4.5,0,0,4.5,382.2,16.7)"
         xlink:href="#gpPt6" />
      <use
         height="480"
         width="600"
         y="0"
         x="0"
         style="color:#add8e6"
         id="use298"
         transform="matrix(4.5,0,0,4.5,387.4,18.2)"
         xlink:href="#gpPt6" />
      <use
         height="480"
         width="600"
         y="0"
         x="0"
         style="color:#add8e6"
         id="use300"
         transform="matrix(4.5,0,0,4.5,392.6,21.7)"
         xlink:href="#gpPt6" />
      <use
         height="480"
         width="600"
         y="0"
         x="0"
         style="color:#add8e6"
         id="use302"
         transform="matrix(4.5,0,0,4.5,397.8,27.3)"
         xlink:href="#gpPt6" />
      <use
         height="480"
         width="600"
         y="0"
         x="0"
         style="color:#add8e6"
         id="use304"
         transform="matrix(4.5,0,0,4.5,403,35)"
         xlink:href="#gpPt6" />
      <use
         height="480"
         width="600"
         y="0"
         x="0"
         style="color:#add8e6"
         id="use306"
         transform="matrix(4.5,0,0,4.5,408.2,44.6)"
         xlink:href="#gpPt6" />
      <use
         height="480"
         width="600"
         y="0"
         x="0"
         style="color:#add8e6"
         id="use308"
         transform="matrix(4.5,0,0,4.5,413.5,56.1)"
         xlink:href="#gpPt6" />
      <use
         height="480"
         width="600"
         y="0"
         x="0"
         style="color:#add8e6"
         id="use310"
         transform="matrix(4.5,0,0,4.5,418.7,69.3)"
         xlink:href="#gpPt6" />
      <use
         height="480"
         width="600"
         y="0"
         x="0"
         style="color:#add8e6"
         id="use312"
         transform="matrix(4.5,0,0,4.5,423.9,84.1)"
         xlink:href="#gpPt6" />
      <use
         height="480"
         width="600"
         y="0"
         x="0"
         style="color:#add8e6"
         id="use314"
         transform="matrix(4.5,0,0,4.5,429.1,100.4)"
         xlink:href="#gpPt6" />
      <use
         height="480"
         width="600"
         y="0"
         x="0"
         style="color:#add8e6"
         id="use316"
         transform="matrix(4.5,0,0,4.5,434.3,118)"
         xlink:href="#gpPt6" />
      <use
         height="480"
         width="600"
         y="0"
         x="0"
         style="color:#add8e6"
         id="use318"
         transform="matrix(4.5,0,0,4.5,439.5,136.7)"
         xlink:href="#gpPt6" />
      <use
         height="480"
         width="600"
         y="0"
         x="0"
         style="color:#add8e6"
         id="use320"
         transform="matrix(4.5,0,0,4.5,444.7,156.3)"
         xlink:href="#gpPt6" />
      <use
         height="480"
         width="600"
         y="0"
         x="0"
         style="color:#add8e6"
         id="use322"
         transform="matrix(4.5,0,0,4.5,449.9,176.7)"
         xlink:href="#gpPt6" />
      <use
         height="480"
         width="600"
         y="0"
         x="0"
         style="color:#add8e6"
         id="use324"
         transform="matrix(4.5,0,0,4.5,455.1,197.6)"
         xlink:href="#gpPt6" />
      <use
         height="480"
         width="600"
         y="0"
         x="0"
         style="color:#add8e6"
         id="use326"
         transform="matrix(4.5,0,0,4.5,460.4,218.8)"
         xlink:href="#gpPt6" />
      <use
         height="480"
         width="600"
         y="0"
         x="0"
         style="color:#add8e6"
         id="use328"
         transform="matrix(4.5,0,0,4.5,465.6,240.2)"
         xlink:href="#gpPt6" />
      <use
         height="480"
         width="600"
         y="0"
         x="0"
         style="color:#add8e6"
         id="use330"
         transform="matrix(4.5,0,0,4.5,470.8,261.4)"
         xlink:href="#gpPt6" />
      <use
         height="480"
         width="600"
         y="0"
         x="0"
         style="color:#add8e6"
         id="use332"
         transform="matrix(4.5,0,0,4.5,476,282.4)"
         xlink:href="#gpPt6" />
      <use
         height="480"
         width="600"
         y="0"
         x="0"
         style="color:#add8e6"
         id="use334"
         transform="matrix(4.5,0,0,4.5,481.2,302.8)"
         xlink:href="#gpPt6" />
      <use
         height="480"
         width="600"
         y="0"
         x="0"
         style="color:#add8e6"
         id="use336"
         transform="matrix(4.5,0,0,4.5,486.4,322.5)"
         xlink:href="#gpPt6" />
      <use
         height="480"
         width="600"
         y="0"
         x="0"
         style="color:#add8e6"
         id="use338"
         transform="matrix(4.5,0,0,4.5,491.6,341.3)"
         xlink:href="#gpPt6" />
      <use
         height="480"
         width="600"
         y="0"
         x="0"
         style="color:#add8e6"
         id="use340"
         transform="matrix(4.5,0,0,4.5,496.8,359)"
         xlink:href="#gpPt6" />
      <use
         height="480"
         width="600"
         y="0"
         x="0"
         style="color:#add8e6"
         id="use342"
         transform="matrix(4.5,0,0,4.5,502,375.4)"
         xlink:href="#gpPt6" />
      <use
         height="480"
         width="600"
         y="0"
         x="0"
         style="color:#add8e6"
         id="use344"
         transform="matrix(4.5,0,0,4.5,507.3,390.3)"
         xlink:href="#gpPt6" />
      <use
         height="480"
         width="600"
         y="0"
         x="0"
         style="color:#add8e6"
         id="use346"
         transform="matrix(4.5,0,0,4.5,512.5,403.6)"
         xlink:href="#gpPt6" />
      <use
         height="480"
         width="600"
         y="0"
         x="0"
         style="color:#add8e6"
         id="use348"
         transform="matrix(4.5,0,0,4.5,517.7,415.2)"
         xlink:href="#gpPt6" />
      <use
         height="480"
         width="600"
         y="0"
         x="0"
         style="color:#add8e6"
         id="use350"
         transform="matrix(4.5,0,0,4.5,522.9,425)"
         xlink:href="#gpPt6" />
      <use
         height="480"
         width="600"
         y="0"
         x="0"
         style="color:#add8e6"
         id="use352"
         transform="matrix(4.5,0,0,4.5,528.1,432.8)"
         xlink:href="#gpPt6" />
      <use
         height="480"
         width="600"
         y="0"
         x="0"
         style="color:#add8e6"
         id="use354"
         transform="matrix(4.5,0,0,4.5,533.3,438.6)"
         xlink:href="#gpPt6" />
      <use
         height="480"
         width="600"
         y="0"
         x="0"
         style="color:#add8e6"
         id="use356"
         transform="matrix(4.5,0,0,4.5,538.5,442.3)"
         xlink:href="#gpPt6" />
      <use
         height="480"
         width="600"
         y="0"
         x="0"
         style="color:#add8e6"
         id="use358"
         transform="matrix(4.5,0,0,4.5,543.7,443.9)"
         xlink:href="#gpPt6" />
      <use
         height="480"
         width="600"
         y="0"
         x="0"
         style="color:#add8e6"
         id="use360"
         transform="matrix(4.5,0,0,4.5,548.9,443.4)"
         xlink:href="#gpPt6" />
      <use
         height="480"
         width="600"
         y="0"
         x="0"
         style="color:#add8e6"
         id="use362"
         transform="matrix(4.5,0,0,4.5,554.2,440.7)"
         xlink:href="#gpPt6" />
      <use
         height="480"
         width="600"
         y="0"
         x="0"
         style="color:#add8e6"
         id="use364"
         transform="matrix(4.5,0,0,4.5,559.4,436)"
         xlink:href="#gpPt6" />
      <use
         height="480"
         width="600"
         y="0"
         x="0"
         style="color:#add8e6"
         id="use366"
         transform="matrix(4.5,0,0,4.5,564.6,429.1)"
         xlink:href="#gpPt6" />
      <use
         height="480"
         width="600"
         y="0"
         x="0"
         style="color:#add8e6"
         id="use368"
         transform="matrix(4.5,0,0,4.5,569.8,420.3)"
         xlink:href="#gpPt6" />
    </g>
  </g>
  <g
     id="gnuplot_plot_2"
     style="stroke:#ffc0cb;stroke-opacity:1;stroke-width:2;stroke-miterlimit:4;stroke-dasharray:none">
    <title
       id="title371">gnuplot_plot_2</title>
    <g
       id="g373"
       style="color:#008000;fill:none;stroke:#ffc0cb;stroke-width:2;stroke-linecap:butt;stroke-linejoin:miter;stroke-opacity:1;stroke-miterlimit:4;stroke-dasharray:none">
      <path
         style="stroke:#ffc0cb;stroke-opacity:1;stroke-width:2;stroke-miterlimit:4;stroke-dasharray:none"
         inkscape:connector-curvature="0"
         id="path375"
         d="m 53.9,16.7 5.2,1.1 5.2,3.2 5.2,5.2 5.2,7.4 5.3,9.3 5.2,11.1 5.2,12.9 5.2,14.6 5.2,16 5.2,17.4 5.2,18.5 5.2,19.5 5.2,20.3 5.3,20.8 5.2,21.2 5.2,21.4 5.2,21.3 5.2,21 5.2,20.5 5.2,19.9 5.2,18.9 5.2,17.9 5.3,16.6 5.2,15.2 5.2,13.6 5.2,11.9 5.2,10.1 5.2,8.2 5.2,6.1 5.2,4.1 5.2,1.9 5.3,-0.2 5.2,-2.3 5.2,-4.4 5.2,-6.5 5.2,-8.5 5.2,-10.4 5.2,-12.2 5.2,-13.9 5.2,-15.4 5.3,-16.8 5.2,-18.1 5.2,-19.1 5.2,-20 5.2,-20.6 5.2,-21.1 5.2,-21.3 5.2,-21.3 5.2,-21.2 5.3,-20.8 5.2,-20.1 5.2,-19.3 5.2,-18.4 5.2,-17.2 5.2,-15.8 5.2,-14.2 5.2,-12.7 5.2,-10.8 5.2,-9 5.3,-7 5.2,-4.9 5.2,-2.9 5.2,-0.7 5.2,1.5 5.2,3.5 5.2,5.6 5.2,7.7 5.2,9.6 5.3,11.5 5.2,13.2 5.2,14.8 5.2,16.3 5.2,17.6 5.2,18.7 5.2,19.6 5.2,20.4 5.2,20.9 5.3,21.2 5.2,21.4 5.2,21.2 5.2,21 5.2,20.4 5.2,19.7 5.2,18.8 5.2,17.7 5.2,16.4 5.3,14.9 5.2,13.3 5.2,11.7 5.2,9.7 5.2,7.8 5.2,5.8 5.2,3.7 5.2,1.6 5.2,-0.5 5.3,-2.7 5.2,-4.7 5.2,-6.9 5.2,-8.8 h 0.01" />
    </g>
  </g>
  <g
     id="g377"
     style="color:#000000;fill:none;stroke:#ffffff;stroke-width:1;stroke-linecap:butt;stroke-linejoin:miter">
    <path
       inkscape:connector-curvature="0"
       id="path379"
       d="m 53.9,16.7 0,427.3 521.1,0 0,-427.3 -521.1,0 z m 0,0 h 0.01"
       style="stroke:#ffffff" />
  </g>
</svg>
