<?xml version="1.0" encoding="UTF-8" standalone="no"?>
<svg
   xmlns:dc="http://purl.org/dc/elements/1.1/"
   xmlns:cc="http://creativecommons.org/ns#"
   xmlns:rdf="http://www.w3.org/1999/02/22-rdf-syntax-ns#"
   xmlns:svg="http://www.w3.org/2000/svg"
   xmlns="http://www.w3.org/2000/svg"
   xmlns:xlink="http://www.w3.org/1999/xlink"
   xmlns:sodipodi="http://sodipodi.sourceforge.net/DTD/sodipodi-0.dtd"
   xmlns:inkscape="http://www.inkscape.org/namespaces/inkscape"
   width="600"
   height="480"
   viewBox="0 0 600 480"
   id="svg2"
   version="1.1"
   inkscape:version="0.48.3.1 r9886"
   sodipodi:docname="correlation.svg.2013_11_14_14_54_43.0.svg">
  <sodipodi:namedview
     pagecolor="#000000"
     bordercolor="#666666"
     borderopacity="1"
     objecttolerance="10"
     gridtolerance="10"
     guidetolerance="10"
     inkscape:pageopacity="0"
     inkscape:pageshadow="2"
     inkscape:window-width="1366"
     inkscape:window-height="746"
     id="namedview189"
     showgrid="false"
     inkscape:zoom="0.98333333"
     inkscape:cx="327.96986"
     inkscape:cy="178.97579"
     inkscape:window-x="0"
     inkscape:window-y="22"
     inkscape:window-maximized="0"
     inkscape:current-layer="svg2" />
  <metadata
     id="metadata193">
    <rdf:RDF>
      <cc:Work
         rdf:about="">
        <dc:format>image/svg+xml</dc:format>
        <dc:type
           rdf:resource="http://purl.org/dc/dcmitype/StillImage" />
        <dc:title>Gnuplot</dc:title>
      </cc:Work>
    </rdf:RDF>
  </metadata>
  <defs
     id="defs191">
    <defs
       id="defs11">
      <circle
         id="gpDot"
         r="0.5"
         stroke-width="0.5" />
      <path
         id="gpPt0"
         stroke-width="0.222"
         stroke="currentColor"
         d="M-1,0 h2 M0,-1 v2" />
      <path
         id="gpPt1"
         stroke-width="0.222"
         stroke="currentColor"
         d="M-1,-1 L1,1 M1,-1 L-1,1" />
      <path
         id="gpPt2"
         stroke-width="0.222"
         stroke="currentColor"
         d="M-1,0 L1,0 M0,-1 L0,1 M-1,-1 L1,1 M-1,1 L1,-1" />
      <rect
         id="gpPt3"
         stroke-width="0.222"
         stroke="currentColor"
         x="-1"
         y="-1"
         width="2"
         height="2" />
      <rect
         id="gpPt4"
         stroke-width="0.222"
         stroke="currentColor"
         fill="currentColor"
         x="-1"
         y="-1"
         width="2"
         height="2" />
      <circle
         id="gpPt5"
         stroke-width="0.222"
         stroke="currentColor"
         cx="0"
         cy="0"
         r="1" />
      <use
         xlink:href="#gpPt5"
         id="gpPt6"
         fill="currentColor"
         stroke="none" />
      <path
         id="gpPt7"
         stroke-width="0.222"
         stroke="currentColor"
         d="M0,-1.33 L-1.33,0.67 L1.33,0.67 z" />
      <use
         xlink:href="#gpPt7"
         id="gpPt8"
         fill="currentColor"
         stroke="none" />
      <use
         xlink:href="#gpPt7"
         id="gpPt9"
         stroke="currentColor"
         transform="rotate(180)" />
      <use
         xlink:href="#gpPt9"
         id="gpPt10"
         fill="currentColor"
         stroke="none" />
      <use
         xlink:href="#gpPt3"
         id="gpPt11"
         stroke="currentColor"
         transform="rotate(45)" />
      <use
         xlink:href="#gpPt11"
         id="gpPt12"
         fill="currentColor"
         stroke="none" />
    </defs>
  </defs>
  <title
     id="title4">Gnuplot</title>
  <desc
     id="desc6">Produced by GNUPLOT 4.6 patchlevel 0 </desc>
  <rect
     x="0"
     y="0"
     width="600"
     height="480"
     id="rect9"
     style="fill:none" />
  <g
     style="color:#ffffff;fill:none;stroke:currentColor;stroke-width:1;stroke-linecap:butt;stroke-linejoin:miter"
     id="g27" />
  <g
     style="color:#000000;fill:#ffffff;stroke:#ffffff;stroke-width:1;stroke-linecap:butt;stroke-linejoin:miter"
     id="g29">
    <path
       style="fill:#ffffff;stroke:#ffffff"
       d="m 37.3,401.3 9,0 m 528.7,0 -9,0 h 0.01"
       id="path31"
       inkscape:connector-curvature="0" />
    <g
       transform="translate(29,405.8)"
       style="font-size:15px;text-anchor:end;fill:#ffffff;stroke:#ffffff;font-family:Arial"
       id="g33">
      <text
         style="fill:#ffffff;stroke:#ffffff"
         id="text35">-4</text>
    </g>
    <path
       style="fill:#ffffff;stroke:#ffffff"
       d="m 37.3,315.8 9,0 m 528.7,0 -9,0 h 0.01"
       id="path37"
       inkscape:connector-curvature="0" />
    <g
       transform="translate(29,320.3)"
       style="font-size:15px;text-anchor:end;fill:#ffffff;stroke:#ffffff;font-family:Arial"
       id="g39">
      <text
         style="fill:#ffffff;stroke:#ffffff"
         id="text41">-2</text>
    </g>
    <path
       style="fill:#ffffff;stroke:#ffffff"
       d="m 37.3,230.3 9,0 m 528.7,0 -9,0 h 0.01"
       id="path43"
       inkscape:connector-curvature="0" />
    <g
       transform="translate(29,234.8)"
       style="font-size:15px;text-anchor:end;fill:#ffffff;stroke:#ffffff;font-family:Arial"
       id="g45">
      <text
         style="fill:#ffffff;stroke:#ffffff"
         id="text47">0</text>
    </g>
    <path
       style="fill:#ffffff;stroke:#ffffff"
       d="m 37.3,144.9 9,0 m 528.7,0 -9,0 h 0.01"
       id="path49"
       inkscape:connector-curvature="0" />
    <g
       transform="translate(29,149.4)"
       style="font-size:15px;text-anchor:end;fill:#ffffff;stroke:#ffffff;font-family:Arial"
       id="g51">
      <text
         style="fill:#ffffff;stroke:#ffffff"
         id="text53">2</text>
    </g>
    <path
       style="fill:#ffffff;stroke:#ffffff"
       d="m 37.3,59.4 9,0 m 528.7,0 -9,0 h 0.01"
       id="path55"
       inkscape:connector-curvature="0" />
    <g
       transform="translate(29,63.9)"
       style="font-size:15px;text-anchor:end;fill:#ffffff;stroke:#ffffff;font-family:Arial"
       id="g57">
      <text
         style="fill:#ffffff;stroke:#ffffff"
         id="text59">4</text>
    </g>
    <path
       style="fill:#ffffff;stroke:#ffffff"
       d="m 37.3,444 0,-9 m 0,-418.3 0,9 h 0.01"
       id="path61"
       inkscape:connector-curvature="0" />
    <g
       transform="translate(37.3,466.5)"
       style="font-size:15px;text-anchor:middle;fill:#ffffff;stroke:#ffffff;font-family:Arial"
       id="g63">
      <text
         style="fill:#ffffff;stroke:#ffffff"
         id="text65">-2</text>
    </g>
    <path
       style="fill:#ffffff;stroke:#ffffff"
       d="m 104.5,444 0,-9 m 0,-418.3 0,9 h 0.01"
       id="path67"
       inkscape:connector-curvature="0" />
    <g
       transform="translate(104.5,466.5)"
       style="font-size:15px;text-anchor:middle;fill:#ffffff;stroke:#ffffff;font-family:Arial"
       id="g69">
      <text
         style="fill:#ffffff;stroke:#ffffff"
         id="text71">-1.5</text>
    </g>
    <path
       style="fill:#ffffff;stroke:#ffffff"
       d="m 171.7,444 0,-9 m 0,-418.3 0,9 h 0.01"
       id="path73"
       inkscape:connector-curvature="0" />
    <g
       transform="translate(171.7,466.5)"
       style="font-size:15px;text-anchor:middle;fill:#ffffff;stroke:#ffffff;font-family:Arial"
       id="g75">
      <text
         style="fill:#ffffff;stroke:#ffffff"
         id="text77">-1</text>
    </g>
    <path
       style="fill:#ffffff;stroke:#ffffff"
       d="m 238.9,444 0,-9 m 0,-418.3 0,9 h 0.01"
       id="path79"
       inkscape:connector-curvature="0" />
    <g
       transform="translate(238.9,466.5)"
       style="font-size:15px;text-anchor:middle;fill:#ffffff;stroke:#ffffff;font-family:Arial"
       id="g81">
      <text
         style="fill:#ffffff;stroke:#ffffff"
         id="text83">-0.5</text>
    </g>
    <path
       style="fill:#ffffff;stroke:#ffffff"
       d="m 306.2,444 0,-9 m 0,-418.3 0,9 h 0.01"
       id="path85"
       inkscape:connector-curvature="0" />
    <g
       transform="translate(306.2,466.5)"
       style="font-size:15px;text-anchor:middle;fill:#ffffff;stroke:#ffffff;font-family:Arial"
       id="g87">
      <text
         style="fill:#ffffff;stroke:#ffffff"
         id="text89">0</text>
    </g>
    <path
       style="fill:#ffffff;stroke:#ffffff"
       d="m 373.4,444 0,-9 m 0,-418.3 0,9 h 0.01"
       id="path91"
       inkscape:connector-curvature="0" />
    <g
       transform="translate(373.4,466.5)"
       style="font-size:15px;text-anchor:middle;fill:#ffffff;stroke:#ffffff;font-family:Arial"
       id="g93">
      <text
         style="fill:#ffffff;stroke:#ffffff"
         id="text95">0.5</text>
    </g>
    <path
       style="fill:#ffffff;stroke:#ffffff"
       d="m 440.6,444 0,-9 m 0,-418.3 0,9 h 0.01"
       id="path97"
       inkscape:connector-curvature="0" />
    <g
       transform="translate(440.6,466.5)"
       style="font-size:15px;text-anchor:middle;fill:#ffffff;stroke:#ffffff;font-family:Arial"
       id="g99">
      <text
         style="fill:#ffffff;stroke:#ffffff"
         id="text101">1</text>
    </g>
    <path
       style="fill:#ffffff;stroke:#ffffff"
       d="m 507.8,444 0,-9 m 0,-418.3 0,9 h 0.01"
       id="path103"
       inkscape:connector-curvature="0" />
    <g
       transform="translate(507.8,466.5)"
       style="font-size:15px;text-anchor:middle;fill:#ffffff;stroke:#ffffff;font-family:Arial"
       id="g105">
      <text
         style="fill:#ffffff;stroke:#ffffff"
         id="text107">1.5</text>
    </g>
    <path
       style="fill:#ffffff;stroke:#ffffff"
       d="m 575,444 0,-9 m 0,-418.3 0,9 h 0.01"
       id="path109"
       inkscape:connector-curvature="0" />
    <g
       transform="translate(575,466.5)"
       style="font-size:15px;text-anchor:middle;fill:#ffffff;stroke:#ffffff;font-family:Arial"
       id="g111">
      <text
         style="fill:#ffffff;stroke:#ffffff"
         id="text113">2</text>
    </g>
  </g>
  <g
     style="color:#808080;fill:none;stroke:#ffffff;stroke-width:1;stroke-linecap:butt;stroke-linejoin:miter"
     id="g115">
    <path
       style="stroke:#ffffff"
       d="m 37.3,230.3 537.7,0 M 306.2,444 l 0,-427.3 h 0.01"
       id="path117"
       inkscape:connector-curvature="0" />
  </g>
  <g
     style="color:#000000;fill:none;stroke:currentColor;stroke-width:1;stroke-linecap:butt;stroke-linejoin:miter"
     id="g119">
    <path
       d="m 37.3,16.7 0,427.3 537.7,0 0,-427.3 -537.7,0 z m 0,0 h 0.01"
       id="path121"
       inkscape:connector-curvature="0" />
  </g>
  <g
     transform="translate(527.22203,39.2)"
     style="font-size:15px;text-anchor:end;color:#ff0000;fill:#ffffff;stroke:none;font-family:Arial"
     id="g128">
    <text
       style="fill:#ffffff"
       id="text130">y</text>
  </g>
  <use
     xlink:href="#gpPt6"
     transform="matrix(4.5,0,0,4.5,359.9,196.2)"
     id="use132"
     style="color:#ffc0cb;fill:none;stroke:currentColor;stroke-width:1;stroke-linecap:butt;stroke-linejoin:miter"
     x="0"
     y="0"
     width="600"
     height="480" />
  <use
     xlink:href="#gpPt6"
     transform="matrix(4.5,0,0,4.5,507.8,226.1)"
     id="use134"
     style="color:#ffc0cb;fill:none;stroke:currentColor;stroke-width:1;stroke-linecap:butt;stroke-linejoin:miter"
     x="0"
     y="0"
     width="600"
     height="480" />
  <use
     xlink:href="#gpPt6"
     transform="matrix(4.5,0,0,4.5,494.3,136.3)"
     id="use136"
     style="color:#ffc0cb;fill:none;stroke:currentColor;stroke-width:1;stroke-linecap:butt;stroke-linejoin:miter"
     x="0"
     y="0"
     width="600"
     height="480" />
  <use
     xlink:href="#gpPt6"
     transform="matrix(4.5,0,0,4.5,480.9,204.7)"
     id="use138"
     style="color:#ffc0cb;fill:none;stroke:currentColor;stroke-width:1;stroke-linecap:butt;stroke-linejoin:miter"
     x="0"
     y="0"
     width="600"
     height="480" />
  <use
     xlink:href="#gpPt6"
     transform="matrix(4.5,0,0,4.5,238.9,127.8)"
     id="use140"
     style="color:#ffc0cb;fill:none;stroke:currentColor;stroke-width:1;stroke-linecap:butt;stroke-linejoin:miter"
     x="0"
     y="0"
     width="600"
     height="480" />
  <use
     xlink:href="#gpPt6"
     transform="matrix(4.5,0,0,4.5,185.2,196.2)"
     id="use142"
     style="color:#ffc0cb;fill:none;stroke:currentColor;stroke-width:1;stroke-linecap:butt;stroke-linejoin:miter"
     x="0"
     y="0"
     width="600"
     height="480" />
  <use
     xlink:href="#gpPt6"
     transform="matrix(4.5,0,0,4.5,427.1,157.7)"
     id="use144"
     style="color:#ffc0cb;fill:none;stroke:currentColor;stroke-width:1;stroke-linecap:butt;stroke-linejoin:miter"
     x="0"
     y="0"
     width="600"
     height="480" />
  <use
     xlink:href="#gpPt6"
     transform="matrix(4.5,0,0,4.5,319.6,204.7)"
     id="use146"
     style="color:#ffc0cb;fill:none;stroke:currentColor;stroke-width:1;stroke-linecap:butt;stroke-linejoin:miter"
     x="0"
     y="0"
     width="600"
     height="480" />
  <use
     xlink:href="#gpPt6"
     transform="matrix(4.5,0,0,4.5,454,153.4)"
     id="use148"
     style="color:#ffc0cb;fill:none;stroke:currentColor;stroke-width:1;stroke-linecap:butt;stroke-linejoin:miter"
     x="0"
     y="0"
     width="600"
     height="480" />
  <use
     xlink:href="#gpPt6"
     transform="matrix(4.5,0,0,4.5,198.6,230.3)"
     id="use150"
     style="color:#ffc0cb;fill:none;stroke:currentColor;stroke-width:1;stroke-linecap:butt;stroke-linejoin:miter"
     x="0"
     y="0"
     width="600"
     height="480" />
  <use
     xlink:href="#gpPt6"
     transform="matrix(4.5,0,0,4.5,537.3,34.7)"
     id="use152"
     style="color:#ffc0cb;fill:none;stroke:currentColor;stroke-width:1;stroke-linecap:butt;stroke-linejoin:miter"
     x="0"
     y="0"
     width="600"
     height="480" />
  <g
     transform="translate(527.22203,57.2)"
     style="font-size:15px;text-anchor:end;color:#008000;fill:#ffffff;stroke:none;font-family:Arial"
     id="g159">
    <text
       style="fill:#ffffff"
       id="text161">z</text>
  </g>
  <use
     xlink:href="#gpPt6"
     transform="matrix(4.5,0,0,4.5,359.9,183.3)"
     id="use163"
     style="color:#add8e6;fill:none;stroke:currentColor;stroke-width:1;stroke-linecap:butt;stroke-linejoin:miter"
     x="0"
     y="0"
     width="600"
     height="480" />
  <use
     xlink:href="#gpPt6"
     transform="matrix(4.5,0,0,4.5,507.8,38.1)"
     id="use165"
     style="color:#add8e6;fill:none;stroke:currentColor;stroke-width:1;stroke-linecap:butt;stroke-linejoin:miter"
     x="0"
     y="0"
     width="600"
     height="480" />
  <use
     xlink:href="#gpPt6"
     transform="matrix(4.5,0,0,4.5,494.3,59.4)"
     id="use167"
     style="color:#add8e6;fill:none;stroke:currentColor;stroke-width:1;stroke-linecap:butt;stroke-linejoin:miter"
     x="0"
     y="0"
     width="600"
     height="480" />
  <use
     xlink:href="#gpPt6"
     transform="matrix(4.5,0,0,4.5,480.9,63.7)"
     id="use169"
     style="color:#add8e6;fill:none;stroke:currentColor;stroke-width:1;stroke-linecap:butt;stroke-linejoin:miter"
     x="0"
     y="0"
     width="600"
     height="480" />
  <use
     xlink:href="#gpPt6"
     transform="matrix(4.5,0,0,4.5,238.9,294.4)"
     id="use171"
     style="color:#add8e6;fill:none;stroke:currentColor;stroke-width:1;stroke-linecap:butt;stroke-linejoin:miter"
     x="0"
     y="0"
     width="600"
     height="480" />
  <use
     xlink:href="#gpPt6"
     transform="matrix(4.5,0,0,4.5,185.2,337.2)"
     id="use173"
     style="color:#add8e6;fill:none;stroke:currentColor;stroke-width:1;stroke-linecap:butt;stroke-linejoin:miter"
     x="0"
     y="0"
     width="600"
     height="480" />
  <use
     xlink:href="#gpPt6"
     transform="matrix(4.5,0,0,4.5,427.1,115)"
     id="use175"
     style="color:#add8e6;fill:none;stroke:currentColor;stroke-width:1;stroke-linecap:butt;stroke-linejoin:miter"
     x="0"
     y="0"
     width="600"
     height="480" />
  <use
     xlink:href="#gpPt6"
     transform="matrix(4.5,0,0,4.5,319.6,217.5)"
     id="use177"
     style="color:#add8e6;fill:none;stroke:currentColor;stroke-width:1;stroke-linecap:butt;stroke-linejoin:miter"
     x="0"
     y="0"
     width="600"
     height="480" />
  <use
     xlink:href="#gpPt6"
     transform="matrix(4.5,0,0,4.5,454,97.9)"
     id="use179"
     style="color:#add8e6;fill:none;stroke:currentColor;stroke-width:1;stroke-linecap:butt;stroke-linejoin:miter"
     x="0"
     y="0"
     width="600"
     height="480" />
  <use
     xlink:href="#gpPt6"
     transform="matrix(4.5,0,0,4.5,198.6,328.6)"
     id="use181"
     style="color:#add8e6;fill:none;stroke:currentColor;stroke-width:1;stroke-linecap:butt;stroke-linejoin:miter"
     x="0"
     y="0"
     width="600"
     height="480" />
  <use
     xlink:href="#gpPt6"
     transform="matrix(4.5,0,0,4.5,537.3,52.7)"
     id="use183"
     style="color:#add8e6;fill:none;stroke:currentColor;stroke-width:1;stroke-linecap:butt;stroke-linejoin:miter"
     x="0"
     y="0"
     width="600"
     height="480" />
  <g
     style="color:#000000;fill:none;stroke:#ffffff;stroke-width:1;stroke-linecap:butt;stroke-linejoin:miter"
     id="g185">
    <path
       style="stroke:#ffffff"
       d="m 37.3,16.7 0,427.3 537.7,0 0,-427.3 -537.7,0 z m 0,0 h 0.01"
       id="path187"
       inkscape:connector-curvature="0" />
  </g>
</svg>
