<?xml version="1.0" encoding="UTF-8" standalone="no"?>
<!-- Created with Inkscape (http://www.inkscape.org/) -->

<svg
   xmlns:dc="http://purl.org/dc/elements/1.1/"
   xmlns:cc="http://creativecommons.org/ns#"
   xmlns:rdf="http://www.w3.org/1999/02/22-rdf-syntax-ns#"
   xmlns:svg="http://www.w3.org/2000/svg"
   xmlns="http://www.w3.org/2000/svg"
   xmlns:xlink="http://www.w3.org/1999/xlink"
   xmlns:sodipodi="http://sodipodi.sourceforge.net/DTD/sodipodi-0.dtd"
   xmlns:inkscape="http://www.inkscape.org/namespaces/inkscape"
   width="210mm"
   height="297mm"
   id="svg3322"
   version="1.1"
   inkscape:version="0.48.3.1 r9886"
   sodipodi:docname="新規ドキュメント 2">
  <sodipodi:namedview
     id="base"
     pagecolor="#000000"
     bordercolor="#666666"
     borderopacity="1.0"
     inkscape:pageopacity="0"
     inkscape:pageshadow="2"
     inkscape:zoom="0.98994949"
     inkscape:cx="277.59968"
     inkscape:cy="555.36168"
     inkscape:document-units="px"
     inkscape:current-layer="layer1"
     showgrid="false"
     inkscape:window-width="1366"
     inkscape:window-height="746"
     inkscape:window-x="0"
     inkscape:window-y="22"
     inkscape:window-maximized="0" />
  <defs
     id="defs3324">
    <marker
       style="overflow:visible;"
       id="Arrow1Lend"
       refX="0.0"
       refY="0.0"
       orient="auto"
       inkscape:stockid="Arrow1Lend">
      <path
         transform="scale(0.8) rotate(180) translate(12.5,0)"
         style="fill-rule:evenodd;stroke:#000000;stroke-width:1.0pt;"
         d="M 0.0,0.0 L 5.0,-5.0 L -12.5,0.0 L 5.0,5.0 L 0.0,0.0 z "
         id="path4450" />
    </marker>
    <defs
       id="defs11">
      <circle
         style="stroke-width:0.5"
         sodipodi:ry="0.5"
         sodipodi:rx="0.5"
         sodipodi:cy="0"
         sodipodi:cx="0"
         cy="0"
         cx="0"
         id="gpDot"
         r="0.5" />
      <path
         style="stroke:currentColor;stroke-width:0.222"
         inkscape:connector-curvature="0"
         id="gpPt0"
         d="M -1,0 H 1 M 0,-1 v 2" />
      <path
         style="stroke:currentColor;stroke-width:0.222"
         inkscape:connector-curvature="0"
         id="gpPt1"
         d="M -1,-1 1,1 M 1,-1 -1,1" />
      <path
         style="stroke:currentColor;stroke-width:0.222"
         inkscape:connector-curvature="0"
         id="gpPt2"
         d="M -1,0 1,0 M 0,-1 0,1 m -1,-2 2,2 m -2,0 2,-2" />
      <rect
         style="stroke:currentColor;stroke-width:0.222"
         id="gpPt3"
         x="-1"
         y="-1"
         width="2"
         height="2" />
      <rect
         style="fill:currentColor;stroke:currentColor;stroke-width:0.222"
         id="gpPt4"
         x="-1"
         y="-1"
         width="2"
         height="2" />
      <circle
         style="stroke:currentColor;stroke-width:0.222"
         sodipodi:ry="1"
         sodipodi:rx="1"
         sodipodi:cy="0"
         sodipodi:cx="0"
         id="gpPt5"
         cx="0"
         cy="0"
         r="1" />
      <use
         height="1052.3622"
         width="744.09448"
         y="0"
         x="0"
         style="fill:currentColor;stroke:none"
         xlink:href="#gpPt5"
         id="gpPt6" />
      <path
         style="stroke:currentColor;stroke-width:0.222"
         inkscape:connector-curvature="0"
         id="gpPt7"
         d="m 0,-1.33 -1.33,2 2.66,0 z" />
      <use
         height="1052.3622"
         width="744.09448"
         y="0"
         x="0"
         style="fill:currentColor;stroke:none"
         xlink:href="#gpPt7"
         id="gpPt8" />
      <use
         height="1052.3622"
         width="744.09448"
         y="0"
         x="0"
         style="stroke:currentColor"
         xlink:href="#gpPt7"
         id="gpPt9"
         transform="scale(-1,-1)" />
      <use
         height="1052.3622"
         width="744.09448"
         y="0"
         x="0"
         style="fill:currentColor;stroke:none"
         xlink:href="#gpPt9"
         id="gpPt10" />
      <use
         height="1052.3622"
         width="744.09448"
         y="0"
         x="0"
         style="stroke:currentColor"
         xlink:href="#gpPt3"
         id="gpPt11"
         transform="matrix(0.70710678,0.70710678,-0.70710678,0.70710678,0,0)" />
      <use
         height="1052.3622"
         width="744.09448"
         y="0"
         x="0"
         style="fill:currentColor;stroke:none"
         xlink:href="#gpPt11"
         id="gpPt12" />
    </defs>
    <marker
       style="overflow:visible;"
       id="Arrow1Lendw"
       refX="0.0"
       refY="0.0"
       orient="auto"
       inkscape:stockid="Arrow1Lendw">
      <path
         transform="scale(0.8) rotate(180) translate(12.5,0)"
         style="stroke:#add8e6;stroke-width:1.0pt;fill:#add8e6;fill-rule:evenodd"
         d="M 0.0,0.0 L 5.0,-5.0 L -12.5,0.0 L 5.0,5.0 L 0.0,0.0 z "
         id="path4907" />
    </marker>
  </defs>
  <metadata
     id="metadata3327">
    <rdf:RDF>
      <cc:Work
         rdf:about="">
        <dc:format>image/svg+xml</dc:format>
        <dc:type
           rdf:resource="http://purl.org/dc/dcmitype/StillImage" />
        <dc:title></dc:title>
      </cc:Work>
    </rdf:RDF>
  </metadata>
  <g
     id="layer1"
     inkscape:groupmode="layer"
     inkscape:label="レイヤー 1">
    <rect
       style="fill:none"
       x="110"
       y="220.93361"
       width="600"
       height="480"
       id="rect9" />
    <g
       transform="translate(110,220.93361)"
       style="color:#ffffff;fill:none;stroke:currentColor;stroke-width:1;stroke-linecap:butt;stroke-linejoin:miter"
       id="g27" />
    <g
       transform="translate(110,220.93361)"
       style="color:#000000;fill:none;stroke:#ffffff;stroke-width:1;stroke-linecap:butt;stroke-linejoin:miter"
       id="g29">
      <path
         style="stroke:#ffffff"
         inkscape:connector-curvature="0"
         d="M 91.7,346.1 224.2,177.5 m 284.1,78.6 -284.1,-78.6 m -132.5,168.6 0,-140.2 m 132.5,-28.4 0,-140.2 m 284.1,218.8 0,-140.2 m -410.2,231.9 5.1,-6.5 h 0.01"
         id="path31" />
      <g
         transform="translate(93.4,365.4)"
         style="font-size:15px;text-anchor:middle;fill:#000000;stroke:#ffffff;font-family:Arial"
         id="g33">
        <text
           style="stroke:#ffffff"
           id="text35">-3</text>
      </g>
      <path
         style="stroke:#ffffff"
         inkscape:connector-curvature="0"
         d="m 230.6,179.3 -5.1,6.5 m -82.2,174.6 5.1,-6.6 h 0.01"
         id="path37" />
      <g
         transform="translate(138.6,377.9)"
         style="font-size:15px;text-anchor:middle;fill:#000000;stroke:#ffffff;font-family:Arial"
         id="g39">
        <text
           style="stroke:#ffffff"
           id="text41">-2</text>
      </g>
      <path
         style="stroke:#ffffff"
         inkscape:connector-curvature="0"
         d="m 275.8,191.8 -5.1,6.5 m -82.2,174.6 5.2,-6.5 h 0.01"
         id="path43" />
      <g
         transform="translate(183.8,390.4)"
         style="font-size:15px;text-anchor:middle;fill:#000000;stroke:#ffffff;font-family:Arial"
         id="g45">
        <text
           style="stroke:#ffffff"
           id="text47">-1</text>
      </g>
      <path
         style="stroke:#ffffff"
         inkscape:connector-curvature="0"
         d="m 321,204.3 -5.1,6.5 m -82.1,174.6 5.1,-6.5 h 0.01"
         id="path49" />
      <g
         transform="translate(229.1,402.9)"
         style="font-size:15px;text-anchor:middle;fill:#000000;stroke:#ffffff;font-family:Arial"
         id="g51">
        <text
           style="stroke:#ffffff"
           id="text53">0</text>
      </g>
      <path
         style="stroke:#ffffff"
         inkscape:connector-curvature="0"
         d="m 366.2,216.8 -5.1,6.6 m -82.1,174.5 5.1,-6.5 h 0.01"
         id="path55" />
      <g
         transform="translate(274.3,415.4)"
         style="font-size:15px;text-anchor:middle;fill:#000000;stroke:#ffffff;font-family:Arial"
         id="g57">
        <text
           style="stroke:#ffffff"
           id="text59">1</text>
      </g>
      <path
         style="stroke:#ffffff"
         inkscape:connector-curvature="0"
         d="m 411.5,229.4 -5.2,6.4 m -82.1,174.6 5.1,-6.5 h 0.01"
         id="path61" />
      <g
         transform="translate(319.4,427.9)"
         style="font-size:15px;text-anchor:middle;fill:#000000;stroke:#ffffff;font-family:Arial"
         id="g63">
        <text
           style="stroke:#ffffff"
           id="text65">2</text>
      </g>
      <path
         style="stroke:#ffffff"
         inkscape:connector-curvature="0"
         d="m 456.7,241.8 -5.1,6.5 m -82.2,174.6 5.1,-6.5 h 0.01"
         id="path67" />
      <g
         transform="translate(364.7,440.5)"
         style="font-size:15px;text-anchor:middle;fill:#000000;stroke:#ffffff;font-family:Arial"
         id="g69">
        <text
           style="stroke:#ffffff"
           id="text71">3</text>
      </g>
      <path
         style="stroke:#ffffff"
         inkscape:connector-curvature="0"
         d="m 501.9,254.3 -5.1,6.5 m -118,160.1 -8.2,-2.3 h 0.01"
         id="path73" />
      <g
         transform="translate(386.3,429.9)"
         style="font-size:15px;text-anchor:start;fill:#000000;stroke:#ffffff;font-family:Arial"
         id="g75">
        <text
           style="stroke:#ffffff"
           id="text77">-3</text>
      </g>
      <path
         style="stroke:#ffffff"
         inkscape:connector-curvature="0"
         d="m 94.7,342.3 8.1,2.2 m 297.1,49.6 -8.2,-2.3 h 0.01"
         id="path79" />
      <g
         transform="translate(407.4,403.1)"
         style="font-size:15px;text-anchor:start;fill:#000000;stroke:#ffffff;font-family:Arial"
         id="g81">
        <text
           style="stroke:#ffffff"
           id="text83">-2</text>
      </g>
      <path
         style="stroke:#ffffff"
         inkscape:connector-curvature="0"
         d="m 115.8,315.4 8.1,2.3 M 421,367.2 412.8,365 h 0.01"
         id="path85" />
      <g
         transform="translate(428.5,376.2)"
         style="font-size:15px;text-anchor:start;fill:#000000;stroke:#ffffff;font-family:Arial"
         id="g87">
        <text
           style="stroke:#ffffff"
           id="text89">-1</text>
      </g>
      <path
         style="stroke:#ffffff"
         inkscape:connector-curvature="0"
         d="m 136.8,288.6 8.2,2.2 m 297.1,49.6 -8.2,-2.3 h 0.01"
         id="path91" />
      <g
         transform="translate(449.6,349.4)"
         style="font-size:15px;text-anchor:start;fill:#000000;stroke:#ffffff;font-family:Arial"
         id="g93">
        <text
           style="stroke:#ffffff"
           id="text95">0</text>
      </g>
      <path
         style="stroke:#ffffff"
         inkscape:connector-curvature="0"
         d="m 157.9,261.7 8.2,2.3 m 297.1,49.5 -8.2,-2.2 h 0.01"
         id="path97" />
      <g
         transform="translate(470.7,322.6)"
         style="font-size:15px;text-anchor:start;fill:#000000;stroke:#ffffff;font-family:Arial"
         id="g99">
        <text
           style="stroke:#ffffff"
           id="text101">1</text>
      </g>
      <path
         style="stroke:#ffffff"
         inkscape:connector-curvature="0"
         d="m 179,234.9 8.2,2.3 m 297,49.5 -8.1,-2.3 h 0.01"
         id="path103" />
      <g
         transform="translate(491.8,295.7)"
         style="font-size:15px;text-anchor:start;fill:#000000;stroke:#ffffff;font-family:Arial"
         id="g105">
        <text
           style="stroke:#ffffff"
           id="text107">2</text>
      </g>
      <path
         style="stroke:#ffffff"
         inkscape:connector-curvature="0"
         d="m 200.1,208.2 8.2,2.2 m 297,49.5 -8.1,-2.3 h 0.01"
         id="path109" />
      <g
         transform="translate(512.9,268.9)"
         style="font-size:15px;text-anchor:start;fill:#000000;stroke:#ffffff;font-family:Arial"
         id="g111">
        <text
           style="stroke:#ffffff"
           id="text113">3</text>
      </g>
      <path
         style="stroke:#ffffff"
         inkscape:connector-curvature="0"
         d="m 221.2,181.3 8.2,2.3 m -137.7,162.5 9,0 h 0.01"
         id="path115" />
      <g
         transform="translate(73.7,350.6)"
         style="font-size:15px;text-anchor:end;fill:#000000;stroke:#ffffff;font-family:Arial"
         id="g117">
        <text
           style="stroke:#ffffff"
           id="text119">-1</text>
      </g>
      <path
         style="stroke:#ffffff"
         inkscape:connector-curvature="0"
         d="m 91.7,332 9,0 h 0.01"
         id="path121" />
      <g
         transform="translate(73.7,336.5)"
         style="font-size:15px;text-anchor:end;fill:#000000;stroke:#ffffff;font-family:Arial"
         id="g123">
        <text
           style="stroke:#ffffff"
           id="text125">-0.8</text>
      </g>
      <path
         style="stroke:#ffffff"
         inkscape:connector-curvature="0"
         d="m 91.7,318 9,0 h 0.01"
         id="path127" />
      <g
         transform="translate(73.7,322.5)"
         style="font-size:15px;text-anchor:end;fill:#000000;stroke:#ffffff;font-family:Arial"
         id="g129">
        <text
           style="stroke:#ffffff"
           id="text131">-0.6</text>
      </g>
      <path
         style="stroke:#ffffff"
         inkscape:connector-curvature="0"
         d="m 91.7,304 9,0 h 0.01"
         id="path133" />
      <g
         transform="translate(73.7,308.5)"
         style="font-size:15px;text-anchor:end;fill:#000000;stroke:#ffffff;font-family:Arial"
         id="g135">
        <text
           style="stroke:#ffffff"
           id="text137">-0.4</text>
      </g>
      <path
         style="stroke:#ffffff"
         inkscape:connector-curvature="0"
         d="m 91.7,290 9,0 h 0.01"
         id="path139" />
      <g
         transform="translate(73.7,294.5)"
         style="font-size:15px;text-anchor:end;fill:#000000;stroke:#ffffff;font-family:Arial"
         id="g141">
        <text
           style="stroke:#ffffff"
           id="text143">-0.2</text>
      </g>
      <path
         style="stroke:#ffffff"
         inkscape:connector-curvature="0"
         d="m 91.7,276 9,0 h 0.01"
         id="path145" />
      <g
         transform="translate(73.7,280.5)"
         style="font-size:15px;text-anchor:end;fill:#000000;stroke:#ffffff;font-family:Arial"
         id="g147">
        <text
           style="stroke:#ffffff"
           id="text149">0</text>
      </g>
      <path
         style="stroke:#ffffff"
         inkscape:connector-curvature="0"
         d="m 91.7,261.9 9,0 h 0.01"
         id="path151" />
      <g
         transform="translate(73.7,266.4)"
         style="font-size:15px;text-anchor:end;fill:#000000;stroke:#ffffff;font-family:Arial"
         id="g153">
        <text
           style="stroke:#ffffff"
           id="text155">0.2</text>
      </g>
      <path
         style="stroke:#ffffff"
         inkscape:connector-curvature="0"
         d="m 91.7,247.9 9,0 h 0.01"
         id="path157" />
      <g
         transform="translate(73.7,252.4)"
         style="font-size:15px;text-anchor:end;fill:#000000;stroke:#ffffff;font-family:Arial"
         id="g159">
        <text
           style="stroke:#ffffff"
           id="text161">0.4</text>
      </g>
      <path
         style="stroke:#ffffff"
         inkscape:connector-curvature="0"
         d="m 91.7,233.9 9,0 h 0.01"
         id="path163" />
      <g
         transform="translate(73.7,238.4)"
         style="font-size:15px;text-anchor:end;fill:#000000;stroke:#ffffff;font-family:Arial"
         id="g165">
        <text
           style="stroke:#ffffff"
           id="text167">0.6</text>
      </g>
      <path
         style="stroke:#ffffff"
         inkscape:connector-curvature="0"
         d="m 91.7,220 9,0 h 0.01"
         id="path169" />
      <g
         transform="translate(73.7,224.5)"
         style="font-size:15px;text-anchor:end;fill:#000000;stroke:#ffffff;font-family:Arial"
         id="g171">
        <text
           style="stroke:#ffffff"
           id="text173">0.8</text>
      </g>
      <path
         style="stroke:#ffffff"
         inkscape:connector-curvature="0"
         d="m 91.7,205.9 9,0 h 0.01"
         id="path175" />
      <g
         transform="translate(73.7,210.4)"
         style="font-size:15px;text-anchor:end;fill:#000000;stroke:#ffffff;font-family:Arial"
         id="g177">
        <text
           style="stroke:#ffffff"
           id="text179">1</text>
      </g>
    </g>
    <g
       transform="translate(110,220.93361)"
       style="color:#808080;fill:none;stroke:currentColor;stroke-width:1;stroke-linecap:butt;stroke-linejoin:miter"
       id="g181">
      <path
         inkscape:connector-curvature="0"
         d="M 233.8,385.4 366.2,216.8 m -66.2,84.3 0,-140.2 m -142.1,100.8 284.2,78.7 h 0.01"
         id="path183" />
    </g>
    <g
       style="fill:none;stroke:#ffc0cb;stroke-opacity:1"
       transform="translate(110,220.93361)"
       id="gnuplot_plot_1">
      <title
         id="title186">gnuplot_plot_1</title>
      <g
         style="color:#ff0000;fill:none;stroke:#ffc0cb;stroke-width:1;stroke-linecap:butt;stroke-linejoin:miter;stroke-opacity:1"
         id="g188">
        <path
           style="fill:none;stroke:#ffc0cb;stroke-opacity:1"
           inkscape:connector-curvature="0"
           d="m 91.7,205.9 2.8,1 2.9,1.2 2.9,1.5 2.9,1.8 2.8,2 2.9,2.3 2.9,2.6 2.8,2.8 2.9,3.1 2.9,3.3 2.9,3.5 2.8,3.7 2.9,4 2.9,4.2 2.8,4.3 2.9,4.5 2.9,4.6 2.9,4.8 2.8,4.9 2.9,5 2.9,5.1 2.8,5.2 2.9,5.2 2.9,5.2 2.8,5.2 2.9,5.3 2.9,5.2 2.9,5.2 2.8,5.1 2.9,5 2.9,5 2.8,4.8 2.9,4.7 2.9,4.6 2.9,4.4 2.8,4.3 2.9,4 2.9,3.9 2.8,3.6 2.9,3.5 2.9,3.2 2.9,2.9 2.8,2.7 2.9,2.5 2.9,2.2 2.8,1.9 2.9,1.6 2.9,1.4 2.8,1.1 2.9,0.7 2.9,0.6 2.9,0.2 2.8,-0.1 2.9,-0.3 2.9,-0.6 2.8,-0.8 2.9,-1.2 2.9,-1.3 2.9,-1.6 2.8,-1.9 2.9,-2 2.9,-2.3 2.8,-2.5 2.9,-2.6 2.9,-2.9 2.9,-3 2.8,-3.1 2.9,-3.2 2.9,-3.4 2.8,-3.5 2.9,-3.5 2.9,-3.6 2.7,-3.6 2.9,-3.7 2.9,-3.6 2.9,-3.6 2.8,-3.7 2.9,-3.5 2.9,-3.5 2.8,-3.4 2.9,-3.3 2.9,-3.2 2.9,-3.1 2.8,-2.9 2.9,-2.7 2.9,-2.6 2.8,-2.4 2.9,-2.2 2.9,-1.9 2.9,-1.7 2.8,-1.5 2.9,-1.3 2.9,-1 2.8,-0.7 2.9,-0.4 2.9,-0.2 2.9,0.1 2.8,0.3 2.9,0.7 m -279.6,-82.7 2.9,0.9 2.9,1.2 2.9,1.5 2.8,1.7 2.9,2.1 2.9,2.2 2.8,2.6 2.9,2.8 2.9,3 2.9,3.2 2.8,3.5 2.9,3.7 2.9,3.8 2.8,4.1 2.9,4.2 2.9,4.4 2.8,4.6 2.9,4.7 2.9,4.8 2.9,4.9 2.8,5 2.9,5 2.9,5.1 2.8,5.1 2.9,5.2 2.9,5.1 2.9,5.1 2.8,5.1 2.9,5 2.9,5 2.8,4.8 2.9,4.8 2.9,4.6 2.9,4.5 2.8,4.3 2.9,4.2 2.9,4 2.8,3.8 2.9,3.5 2.9,3.4 2.9,3.2 2.8,2.9 2.9,2.6 2.9,2.4 2.8,2.2 2.9,1.9 2.9,1.6 2.8,1.3 2.9,1.1 2.9,0.8 2.9,0.5 2.8,0.3 2.9,-0.1 2.9,-0.3 2.8,-0.5 2.9,-0.9 2.9,-1 2.9,-1.3 2.8,-1.6 2.9,-1.8 2.9,-2 2.8,-2.2 2.9,-2.4 2.9,-2.6 2.9,-2.7 2.8,-2.9 2.9,-3 2.9,-3.2 2.8,-3.3 2.9,-3.3 2.8,-3.4 2.8,-3.5 2.9,-3.5 2.9,-3.6 2.9,-3.5 2.8,-3.6 2.9,-3.5 2.9,-3.4 2.8,-3.4 2.9,-3.4 2.9,-3.2 2.9,-3.1 2.8,-2.9 2.9,-2.9 2.9,-2.6 2.8,-2.5 2.9,-2.3 2.9,-2.1 2.9,-1.9 2.8,-1.7 2.9,-1.4 2.9,-1.2 2.8,-1 2.9,-0.6 2.9,-0.5 2.8,-0.1 2.9,0.1 2.9,0.4 2.9,0.6 m -279.6,-79.5 2.9,0.9 2.9,1.2 2.8,1.4 2.9,1.7 2.9,1.9 2.8,2.2 2.9,2.4 2.9,2.7 2.9,2.8 2.8,3.1 2.9,3.3 2.9,3.5 2.8,3.6 2.9,3.8 2.9,4 2.8,4.2 2.9,4.3 2.9,4.4 2.9,4.5 2.8,4.6 2.9,4.7 2.9,4.7 2.8,4.8 2.9,4.9 2.9,4.8 2.9,4.8 2.8,4.8 2.9,4.8 2.9,4.7 2.8,4.7 2.9,4.5 2.9,4.5 2.9,4.4 2.8,4.2 2.9,4.1 2.9,3.9 2.8,3.7 2.9,3.6 2.9,3.4 2.9,3.2 2.8,3 2.9,2.7 2.9,2.6 2.8,2.3 2.9,2 2.9,1.8 2.8,1.6 2.9,1.3 2.9,1 2.9,0.8 2.8,0.6 2.9,0.3 2.9,0 2.8,-0.2 2.9,-0.5 2.9,-0.7 2.9,-0.9 2.8,-1.2 2.9,-1.4 2.9,-1.6 2.8,-1.8 2.9,-2 2.9,-2.2 2.9,-2.3 2.8,-2.5 2.9,-2.6 2.9,-2.8 2.8,-2.9 2.9,-3 2.8,-3 2.8,-3.1 2.9,-3.2 2.9,-3.2 2.9,-3.3 2.8,-3.2 2.9,-3.3 2.9,-3.2 2.8,-3.1 2.9,-3.1 2.9,-3 2.9,-3 2.8,-2.8 2.9,-2.7 2.9,-2.6 2.8,-2.4 2.9,-2.2 2.9,-2.1 2.9,-1.9 2.8,-1.7 2.9,-1.5 2.9,-1.3 2.8,-1.1 2.9,-0.8 2.9,-0.6 2.8,-0.3 2.9,-0.1 2.9,0.2 2.9,0.4 2.8,0.6 m -279.5,-76.5 2.9,0.9 2.8,1.1 2.9,1.4 2.9,1.6 2.8,1.8 2.9,2 2.9,2.2 2.9,2.4 2.8,2.6 2.9,2.8 2.9,3 2.8,3.1 2.9,3.3 2.9,3.4 2.8,3.6 2.9,3.8 2.9,3.9 2.9,3.9 2.8,4.1 2.9,4.1 2.9,4.2 2.8,4.3 2.9,4.3 2.9,4.3 2.9,4.4 2.8,4.3 2.9,4.3 2.9,4.3 2.8,4.2 2.9,4.2 2.9,4.1 2.9,4 2.8,3.9 2.9,3.8 2.9,3.7 2.8,3.6 2.9,3.4 2.9,3.2 2.8,3.1 2.9,2.9 2.9,2.7 2.9,2.5 2.8,2.3 2.9,2.1 2.9,1.9 2.8,1.7 2.9,1.5 2.9,1.2 2.9,1 2.8,0.8 2.9,0.6 2.9,0.3 2.8,0.2 2.9,-0.1 2.9,-0.4 2.9,-0.5 2.8,-0.7 2.9,-0.9 2.9,-1.2 2.8,-1.3 2.9,-1.4 2.9,-1.7 2.9,-1.8 2.8,-2 2.9,-2 2.9,-2.3 2.8,-2.3 2.8,-2.4 2.9,-2.5 2.8,-2.6 2.9,-2.7 2.9,-2.7 2.9,-2.7 2.8,-2.7 2.9,-2.8 2.9,-2.7 2.8,-2.7 2.9,-2.7 2.9,-2.6 2.9,-2.6 2.8,-2.4 2.9,-2.4 2.9,-2.3 2.8,-2.1 2.9,-2.1 2.9,-1.8 2.9,-1.8 2.8,-1.5 2.9,-1.4 2.9,-1.3 2.8,-1 2.9,-0.8 2.9,-0.6 2.8,-0.5 2.9,-0.2 2.9,0.1 2.9,0.2 2.8,0.5 2.9,0.6 M 110,207.4 l 2.8,0.9 2.9,1.1 2.9,1.2 2.8,1.4 2.9,1.6 2.9,1.8 2.9,2 2.8,2.1 2.9,2.3 2.9,2.4 2.8,2.6 2.9,2.7 2.9,2.7 2.8,3 2.9,3.1 2.9,3.2 2.9,3.3 2.8,3.3 2.9,3.5 2.9,3.5 2.8,3.6 2.9,3.6 2.9,3.6 2.9,3.7 2.8,3.7 2.9,3.6 2.9,3.7 2.8,3.6 2.9,3.6 2.9,3.6 2.9,3.5 2.8,3.4 2.9,3.3 2.9,3.2 2.8,3.2 2.9,3 2.9,2.9 2.8,2.8 2.9,2.6 2.9,2.6 2.9,2.3 2.8,2.2 2.9,2 2.9,1.9 2.8,1.7 2.9,1.5 2.9,1.3 2.9,1.2 2.8,1 2.9,0.8 2.9,0.6 2.8,0.4 2.9,0.3 2.9,0 2.9,-0.1 2.8,-0.2 2.9,-0.5 2.9,-0.6 2.8,-0.8 2.9,-0.9 2.9,-1 2.9,-1.2 2.8,-1.3 2.9,-1.5 2.9,-1.5 2.8,-1.7 2.8,-1.7 2.9,-1.9 2.8,-1.9 2.9,-1.9 2.9,-2 2.9,-2.1 2.8,-2 2.9,-2.1 2.9,-2.1 2.8,-2.1 2.9,-2 2.9,-2 2.9,-2 2.8,-2 2.9,-1.8 2.9,-1.8 2.8,-1.7 2.9,-1.6 2.9,-1.5 2.9,-1.4 2.8,-1.2 2.9,-1.2 2.9,-1 2.8,-0.8 2.9,-0.7 2.9,-0.5 2.8,-0.4 2.9,-0.2 2.9,0 2.9,0.2 2.8,0.3 2.9,0.5 2.9,0.7 m -279.6,-71.8 2.9,0.9 2.9,1 2.8,1.1 2.9,1.3 2.9,1.3 2.9,1.6 2.8,1.6 2.9,1.7 2.9,1.9 2.8,2 2.9,2.1 2.9,2 2.8,2.3 2.9,2.4 2.9,2.4 2.9,2.6 2.8,2.6 2.9,2.6 2.9,2.7 2.8,2.8 2.9,2.8 2.9,2.8 2.9,2.9 2.8,2.9 2.9,2.9 2.9,2.8 2.8,2.9 2.9,2.8 2.9,2.9 2.9,2.7 2.8,2.8 2.9,2.7 2.9,2.6 2.8,2.6 2.9,2.5 2.9,2.4 2.8,2.3 2.9,2.2 2.9,2.2 2.9,2 2.8,1.9 2.9,1.8 2.9,1.7 2.8,1.6 2.9,1.4 2.9,1.4 2.9,1.1 2.8,1.1 2.9,0.9 2.9,0.8 2.8,0.7 2.9,0.5 2.9,0.4 2.9,0.3 2.8,0.1 2.9,0 2.9,-0.1 2.8,-0.2 2.9,-0.3 2.9,-0.4 2.8,-0.6 2.9,-0.6 2.9,-0.8 2.9,-0.8 2.7,-0.9 2.9,-1 2.9,-1 2.8,-1.1 2.9,-1.2 2.9,-1.2 2.9,-1.2 2.8,-1.3 2.9,-1.2 2.9,-1.3 2.8,-1.3 2.9,-1.3 2.9,-1.3 2.9,-1.2 2.8,-1.2 2.9,-1.2 2.9,-1.1 2.8,-1.1 2.9,-1 2.9,-0.9 2.9,-0.9 2.8,-0.8 2.9,-0.7 2.9,-0.6 2.8,-0.5 2.9,-0.4 2.9,-0.2 2.8,-0.2 2.9,0 2.9,0 2.9,0.3 2.8,0.3 2.9,0.5 2.9,0.5 2.8,0.8 h 0.01"
           id="path190" />
        <path
           style="fill:none;stroke:#ffc0cb;stroke-opacity:1"
           inkscape:connector-curvature="0"
           d="m 119.1,222.4 2.9,0.8 2.8,0.9 2.9,1 2.9,1.1 2.8,1.1 2.9,1.2 2.9,1.3 2.9,1.2 2.8,1.4 2.9,1.5 2.9,1.5 2.8,1.6 2.9,1.7 2.9,1.7 2.9,1.7 2.8,1.8 2.9,1.8 2.9,1.9 2.8,1.9 2.9,1.9 2.9,1.9 2.9,2 2.8,2 2.9,1.9 2.9,2 2.8,2 2.9,2 2.9,1.9 2.9,2 2.8,1.9 2.9,1.9 2.9,1.9 2.8,1.9 2.9,1.8 2.9,1.7 2.8,1.7 2.9,1.7 2.9,1.6 2.9,1.6 2.8,1.5 2.9,1.4 2.9,1.4 2.8,1.3 2.9,1.2 2.9,1.2 2.9,1.1 2.8,1 2.9,1 2.9,0.8 2.8,0.8 2.9,0.7 2.9,0.7 2.9,0.6 2.8,0.5 2.9,0.4 2.9,0.3 2.8,0.3 2.9,0.2 2.9,0.2 2.8,0.1 2.9,0 2.9,0 2.9,-0.1 2.7,-0.1 2.9,-0.2 2.9,-0.2 2.8,-0.3 2.9,-0.3 2.9,-0.3 2.9,-0.3 2.8,-0.4 2.9,-0.4 2.9,-0.4 2.8,-0.4 2.9,-0.4 2.9,-0.3 2.9,-0.4 2.8,-0.4 2.9,-0.4 2.9,-0.3 2.8,-0.3 2.9,-0.3 2.9,-0.2 2.8,-0.2 2.9,-0.1 2.9,-0.2 2.9,0 2.8,0 2.9,0.1 2.9,0.1 2.8,0.2 2.9,0.2 2.9,0.3 2.9,0.4 2.8,0.5 2.9,0.5 2.9,0.6 2.8,0.7 2.9,0.7 m -279.5,-69.5 2.8,0.9 2.9,0.8 2.9,0.8 2.8,0.8 2.9,0.9 2.9,0.9 2.9,0.9 2.8,0.9 2.9,0.9 2.9,0.9 2.8,1 2.9,0.9 2.9,1 2.9,1 2.8,1 2.9,1 2.9,1 2.8,1 2.9,1 2.9,1 2.9,1 2.8,1.1 2.9,1 2.9,1 2.8,1.1 2.9,1 2.9,1 2.9,1.1 2.8,1 2.9,1 2.9,1 2.8,1.1 2.9,1 2.9,1 2.8,0.9 2.9,1 2.9,1 2.9,1 2.8,0.9 2.9,0.9 2.9,1 2.8,0.9 2.9,0.9 2.9,0.9 2.9,0.8 2.8,0.9 2.9,0.8 2.9,0.9 2.8,0.8 2.9,0.8 2.9,0.7 2.9,0.8 2.8,0.7 2.9,0.8 2.9,0.7 2.8,0.7 2.9,0.7 2.9,0.7 2.8,0.6 2.9,0.7 2.9,0.6 2.8,0.7 2.8,0.6 2.9,0.6 2.9,0.6 2.8,0.6 2.9,0.6 2.9,0.5 2.9,0.6 2.8,0.6 2.9,0.5 2.9,0.6 2.8,0.5 2.9,0.6 2.9,0.5 2.9,0.6 2.8,0.6 2.9,0.5 2.9,0.6 2.8,0.5 2.9,0.6 2.9,0.6 2.8,0.6 2.9,0.6 2.9,0.6 2.9,0.6 2.8,0.6 2.9,0.6 2.9,0.7 2.8,0.6 2.9,0.7 2.9,0.7 2.9,0.7 2.8,0.7 2.9,0.7 2.9,0.8 2.8,0.7 2.9,0.8 2.9,0.8 m -279.6,-69.3 2.9,0.7 2.9,0.8 2.8,0.7 2.9,0.6 2.9,0.6 2.9,0.5 2.8,0.5 2.9,0.5 2.9,0.4 2.8,0.4 2.9,0.4 2.9,0.3 2.9,0.3 2.8,0.2 2.9,0.2 2.9,0.2 2.8,0.2 2.9,0.1 2.9,0.2 2.9,0.1 2.8,0.1 2.9,0.1 2.9,0.1 2.8,0 2.9,0.1 2.9,0.1 2.8,0.1 2.9,0 2.9,0.1 2.9,0.2 2.8,0.1 2.9,0.1 2.9,0.2 2.8,0.2 2.9,0.2 2.9,0.2 2.9,0.3 2.8,0.3 2.9,0.3 2.9,0.4 2.8,0.4 2.9,0.4 2.9,0.5 2.9,0.5 2.8,0.6 2.9,0.6 2.9,0.7 2.8,0.7 2.9,0.7 2.9,0.8 2.9,0.9 2.8,0.8 2.9,1 2.9,0.9 2.8,1.1 2.9,1 2.9,1.1 2.8,1.2 2.9,1.2 2.8,1.2 2.9,1.2 2.8,1.3 2.9,1.3 2.9,1.4 2.8,1.4 2.9,1.4 2.9,1.4 2.9,1.5 2.8,1.4 2.9,1.5 2.9,1.5 2.8,1.5 2.9,1.5 2.9,1.5 2.9,1.5 2.8,1.6 2.9,1.5 2.9,1.5 2.8,1.5 2.9,1.4 2.9,1.5 2.8,1.4 2.9,1.4 2.9,1.4 2.9,1.4 2.8,1.3 2.9,1.3 2.9,1.3 2.8,1.3 2.9,1.2 2.9,1.1 2.9,1.2 2.8,1 2.9,1.1 2.9,1 2.8,0.9 2.9,0.9 2.9,0.9 2.9,0.8 m -279.6,-69.8 2.9,0.7 2.8,0.6 2.9,0.6 2.9,0.4 2.9,0.3 2.8,0.3 2.9,0.1 2.9,0 2.8,0 2.9,-0.1 2.9,-0.3 2.9,-0.3 2.8,-0.4 2.9,-0.4 2.9,-0.5 2.8,-0.6 2.9,-0.6 2.9,-0.7 2.9,-0.7 2.8,-0.8 2.9,-0.8 2.9,-0.8 2.8,-0.8 2.9,-0.9 2.9,-0.8 2.8,-0.9 2.9,-0.8 2.9,-0.9 2.9,-0.8 2.8,-0.7 2.9,-0.8 2.9,-0.7 2.8,-0.6 2.9,-0.7 2.9,-0.5 2.9,-0.5 2.8,-0.4 2.9,-0.3 2.9,-0.3 2.8,-0.2 2.9,-0.1 2.9,0 2.9,0.1 2.8,0.2 2.9,0.3 2.9,0.3 2.8,0.5 2.9,0.6 2.9,0.7 2.8,0.8 2.9,0.9 2.9,1 2.9,1.1 2.8,1.2 2.9,1.3 2.9,1.4 2.8,1.5 2.9,1.6 2.8,1.7 2.9,1.8 2.8,1.8 2.9,2 2.9,2 2.8,2 2.9,2.2 2.9,2.2 2.9,2.2 2.8,2.3 2.9,2.3 2.9,2.4 2.8,2.4 2.9,2.4 2.9,2.4 2.9,2.5 2.8,2.4 2.9,2.5 2.9,2.4 2.8,2.4 2.9,2.4 2.9,2.3 2.8,2.3 2.9,2.3 2.9,2.2 2.9,2.2 2.8,2.1 2.9,2 2.9,2 2.8,1.9 2.9,1.8 2.9,1.7 2.9,1.7 2.8,1.5 2.9,1.5 2.9,1.3 2.8,1.3 2.9,1.2 2.9,1 2.9,1 2.8,0.8 m -279.5,-71.1 2.8,0.8 2.9,0.5 2.9,0.4 2.9,0.3 2.8,0.1 2.9,-0.1 2.9,-0.2 2.8,-0.4 2.9,-0.5 2.9,-0.6 2.9,-0.7 2.8,-0.9 2.9,-1 2.9,-1.1 2.8,-1.2 2.9,-1.2 2.9,-1.4 2.9,-1.5 2.8,-1.5 2.9,-1.5 2.9,-1.6 2.8,-1.7 2.9,-1.7 2.9,-1.7 2.8,-1.7 2.9,-1.7 2.9,-1.7 2.9,-1.6 2.8,-1.5 2.9,-1.6 2.9,-1.6 2.8,-1.5 2.9,-1.4 2.9,-1.3 2.9,-1.2 2.8,-1.2 2.9,-1 2.9,-0.9 2.8,-0.8 2.9,-0.7 2.9,-0.6 2.9,-0.4 2.8,-0.3 2.9,-0.1 2.9,0 2.8,0.2 2.9,0.3 2.9,0.5 2.8,0.6 2.9,0.8 2.9,0.9 2.9,1.2 2.8,1.2 2.9,1.4 2.9,1.6 2.8,1.7 2.8,1.9 2.9,2 2.9,2.1 2.8,2.2 2.9,2.4 2.9,2.5 2.8,2.7 2.9,2.7 2.9,2.8 2.9,3 2.8,2.9 2.9,3.1 2.9,3.1 2.8,3.2 2.9,3.2 2.9,3.3 2.9,3.3 2.8,3.3 2.9,3.2 2.9,3.3 2.8,3.3 2.9,3.2 2.9,3.2 2.8,3.2 2.9,3.1 2.9,3 2.9,3 2.8,2.8 2.9,2.8 2.9,2.7 2.8,2.6 2.9,2.4 2.9,2.4 2.9,2.2 2.8,2.1 2.9,1.9 2.9,1.8 2.8,1.6 2.9,1.5 2.9,1.4 2.9,1.2 2.8,1 2.9,0.9 m -279.6,-72.9 2.9,0.7 2.9,0.5 2.9,0.2 2.8,0.1 2.9,-0.1 2.9,-0.3 2.8,-0.5 2.9,-0.7 2.9,-0.8 2.9,-1.1 2.8,-1.2 2.9,-1.3 2.9,-1.6 2.8,-1.6 2.9,-1.8 2.9,-1.9 2.9,-2 2.8,-2.1 2.9,-2.2 2.9,-2.2 2.8,-2.3 2.9,-2.4 2.9,-2.4 2.8,-2.4 2.9,-2.5 2.9,-2.3 2.9,-2.4 2.8,-2.4 2.9,-2.3 2.9,-2.3 2.8,-2.3 2.9,-2.1 2.9,-2.1 2.9,-1.9 2.8,-1.8 2.9,-1.8 2.9,-1.5 2.8,-1.5 2.9,-1.2 2.9,-1.2 2.9,-0.9 2.8,-0.8 2.9,-0.6 2.9,-0.4 2.8,-0.2 2.9,0 2.9,0.2 2.8,0.3 2.9,0.6 2.9,0.8 2.9,1 2.8,1.2 2.9,1.4 2.9,1.6 2.8,1.8 2.8,2 2.9,2.2 2.9,2.4 2.8,2.5 2.9,2.7 2.9,2.9 2.8,3 2.9,3.2 2.9,3.2 2.9,3.4 2.8,3.6 2.9,3.6 2.9,3.7 2.8,3.8 2.9,3.9 2.9,4 2.8,3.9 2.9,4 2.9,4.1 2.9,4 2.8,4 2.9,4 2.9,3.9 2.8,4 2.9,3.8 2.9,3.8 2.9,3.7 2.8,3.6 2.9,3.4 2.9,3.4 2.8,3.2 2.9,3.1 2.9,3 2.9,2.8 2.8,2.6 2.9,2.4 2.9,2.3 2.8,2.1 2.9,1.9 2.9,1.7 2.9,1.5 2.8,1.3 2.9,1.1 2.9,0.9 h 0.01"
           id="path192" />
        <path
           style="fill:none;stroke:#ffc0cb;stroke-opacity:1"
           inkscape:connector-curvature="0"
           d="m 146.5,266.2 2.9,0.7 2.9,0.4 2.8,0.2 2.9,0 2.9,-0.3 2.8,-0.5 2.9,-0.7 2.9,-1 2.9,-1.1 2.8,-1.4 2.9,-1.6 2.9,-1.7 2.8,-1.9 2.9,-2.1 2.9,-2.3 2.8,-2.3 2.9,-2.6 2.9,-2.6 2.9,-2.7 2.8,-2.8 2.9,-2.9 2.9,-2.9 2.8,-3 2.9,-2.9 2.9,-3 2.9,-3 2.8,-3 2.9,-3 2.9,-2.9 2.8,-2.9 2.9,-2.7 2.9,-2.7 2.9,-2.6 2.8,-2.4 2.9,-2.3 2.9,-2.2 2.8,-2 2.9,-1.8 2.9,-1.7 2.9,-1.4 2.8,-1.3 2.9,-1.1 2.9,-0.8 2.8,-0.6 2.9,-0.4 2.9,-0.2 2.8,0.1 2.9,0.3 2.9,0.5 2.9,0.8 2.8,1.1 2.9,1.3 2.9,1.5 2.7,1.7 2.9,2 2.9,2.2 2.9,2.4 2.8,2.7 2.9,2.9 2.9,3 2.8,3.3 2.9,3.4 2.9,3.6 2.9,3.7 2.8,3.9 2.9,4.1 2.9,4 2.8,4.3 2.9,4.3 2.9,4.5 2.8,4.5 2.9,4.5 2.9,4.6 2.9,4.6 2.8,4.6 2.9,4.6 2.9,4.6 2.8,4.5 2.9,4.5 2.9,4.4 2.9,4.3 2.8,4.2 2.9,4.1 2.9,3.9 2.8,3.9 2.9,3.6 2.9,3.6 2.9,3.3 2.8,3.1 2.9,3 2.9,2.8 2.8,2.5 2.9,2.3 2.9,2.1 2.9,1.9 2.8,1.6 2.9,1.4 2.9,1.2 2.8,0.9 m -279.5,-78.1 2.9,0.7 2.8,0.3 2.9,0.2 2.9,-0.2 2.8,-0.4 2.9,-0.6 2.9,-0.9 2.9,-1.1 2.8,-1.4 2.9,-1.6 2.9,-1.8 2.8,-2 2.9,-2.2 2.9,-2.4 2.8,-2.6 2.9,-2.7 2.9,-2.9 2.9,-2.9 2.8,-3.1 2.9,-3.2 2.9,-3.3 2.8,-3.2 2.9,-3.4 2.9,-3.4 2.9,-3.4 2.8,-3.5 2.9,-3.4 2.9,-3.3 2.8,-3.3 2.9,-3.2 2.9,-3.2 2.9,-3 2.8,-3 2.9,-2.7 2.9,-2.7 2.8,-2.5 2.9,-2.3 2.9,-2.1 2.9,-1.9 2.8,-1.7 2.9,-1.5 2.9,-1.2 2.8,-1.1 2.9,-0.7 2.9,-0.6 2.8,-0.2 2.9,0 2.9,0.2 2.9,0.6 2.8,0.8 2.9,1 2.8,1.4 2.8,1.5 2.9,1.9 2.9,2.1 2.9,2.4 2.8,2.6 2.9,2.8 2.9,3.1 2.8,3.3 2.9,3.5 2.9,3.7 2.9,3.9 2.8,4.1 2.9,4.2 2.9,4.4 2.8,4.5 2.9,4.6 2.9,4.6 2.8,4.9 2.9,4.8 2.9,5 2.9,5 2.8,5 2.9,5 2.9,5 2.8,5 2.9,4.9 2.9,4.8 2.9,4.8 2.8,4.7 2.9,4.6 2.9,4.4 2.8,4.3 2.9,4.2 2.9,3.9 2.9,3.8 2.8,3.7 2.9,3.4 2.9,3.1 2.8,3 2.9,2.7 2.9,2.5 2.8,2.2 2.9,2 2.9,1.8 2.9,1.4 2.8,1.2 2.9,0.9 m -279.5,-81.2 2.8,0.7 2.9,0.4 2.9,0.1 2.8,-0.2 2.9,-0.5 2.9,-0.7 2.9,-1 2.8,-1.2 2.9,-1.5 2.9,-1.7 2.8,-1.9 2.9,-2.2 2.9,-2.3 2.8,-2.6 2.9,-2.7 2.9,-2.9 2.9,-3 2.8,-3.2 2.9,-3.3 2.9,-3.4 2.8,-3.3 2.9,-3.6 2.9,-3.6 2.9,-3.6 2.8,-3.6 2.9,-3.6 2.9,-3.6 2.8,-3.6 2.9,-3.5 2.9,-3.4 2.9,-3.4 2.8,-3.2 2.9,-3.1 2.9,-3 2.8,-2.8 2.9,-2.6 2.9,-2.5 2.8,-2.2 2.9,-2.1 2.9,-1.8 2.9,-1.6 2.8,-1.4 2.9,-1.1 2.9,-0.8 2.8,-0.6 2.9,-0.3 2.9,-0.1 2.9,0.3 2.8,0.5 2.9,0.8 2.8,1.1 2.8,1.3 2.9,1.7 2.9,1.9 2.9,2.1 2.8,2.5 2.9,2.7 2.9,2.9 2.8,3.2 2.9,3.4 2.9,3.6 2.9,3.9 2.8,4 2.9,4.3 2.9,4.4 2.8,4.5 2.9,4.7 2.9,4.8 2.8,5 2.9,4.9 2.9,5.1 2.9,5.1 2.8,5.2 2.9,5.2 2.9,5.2 2.8,5.2 2.9,5.2 2.9,5.1 2.9,5.1 2.8,5 2.9,4.8 2.9,4.8 2.8,4.6 2.9,4.5 2.9,4.3 2.9,4.1 2.8,4 2.9,3.7 2.9,3.6 2.8,3.3 2.9,3 2.9,2.9 2.8,2.5 2.9,2.3 2.9,2.1 2.9,1.7 2.8,1.5 2.9,1.2 2.9,1 m -279.6,-84.5 2.9,0.7 2.9,0.3 2.8,0.1 2.9,-0.1 2.9,-0.5 2.9,-0.7 2.8,-1 2.9,-1.2 2.9,-1.5 2.8,-1.7 2.9,-1.9 2.9,-2.2 2.8,-2.4 2.9,-2.5 2.9,-2.7 2.9,-2.9 2.8,-3.1 2.9,-3.1 2.9,-3.2 2.8,-3.4 2.9,-3.5 2.9,-3.5 2.9,-3.6 2.8,-3.6 2.9,-3.6 2.9,-3.6 2.8,-3.7 2.9,-3.5 2.9,-3.5 2.9,-3.4 2.8,-3.4 2.9,-3.2 2.9,-3.1 2.8,-3 2.9,-2.8 2.9,-2.6 2.8,-2.5 2.9,-2.2 2.9,-2.1 2.9,-1.8 2.8,-1.6 2.9,-1.4 2.9,-1.1 2.8,-0.8 2.9,-0.6 2.9,-0.3 2.9,-0.1 2.8,0.3 2.8,0.5 2.9,0.8 2.8,1 2.9,1.4 2.9,1.6 2.9,1.9 2.8,2.2 2.9,2.5 2.9,2.6 2.8,3 2.9,3.2 2.9,3.4 2.9,3.6 2.8,3.9 2.9,4 2.9,4.2 2.8,4.4 2.9,4.6 2.9,4.7 2.8,4.8 2.9,4.9 2.9,5.1 2.9,5 2.8,5.1 2.9,5.2 2.9,5.2 2.8,5.2 2.9,5.2 2.9,5.2 2.9,5.1 2.8,5.1 2.9,4.9 2.9,4.9 2.8,4.8 2.9,4.6 2.9,4.5 2.9,4.3 2.8,4.1 2.9,4 2.9,3.7 2.8,3.5 2.9,3.3 2.9,3.1 2.8,2.8 2.9,2.6 2.9,2.3 2.9,2.1 2.8,1.7 2.9,1.5 2.9,1.2 2.8,1 m -279.5,-87.8 2.9,0.7 2.8,0.4 2.9,0.1 2.9,-0.1 2.9,-0.4 2.8,-0.6 2.9,-0.9 2.9,-1.2 2.8,-1.4 2.9,-1.5 2.9,-1.9 2.8,-2 2.9,-2.2 2.9,-2.4 2.9,-2.5 2.8,-2.7 2.9,-2.8 2.9,-3 2.8,-3.1 2.9,-3.2 2.9,-3.2 2.9,-3.4 2.8,-3.4 2.9,-3.4 2.9,-3.4 2.8,-3.4 2.9,-3.4 2.9,-3.4 2.9,-3.3 2.8,-3.2 2.9,-3.1 2.9,-3.1 2.8,-2.9 2.9,-2.8 2.9,-2.6 2.8,-2.5 2.9,-2.3 2.9,-2.1 2.9,-1.9 2.8,-1.7 2.9,-1.5 2.9,-1.3 2.8,-1 2.9,-0.8 2.9,-0.5 2.9,-0.3 2.8,0 2.8,0.3 2.9,0.5 2.8,0.8 2.9,1.1 2.9,1.3 2.9,1.6 2.8,1.9 2.9,2.1 2.9,2.3 2.8,2.6 2.9,2.9 2.9,3 2.8,3.3 2.9,3.5 2.9,3.7 2.9,3.9 2.8,4.1 2.9,4.2 2.9,4.4 2.8,4.5 2.9,4.7 2.9,4.7 2.9,4.8 2.8,4.9 2.9,4.9 2.9,4.9 2.8,5 2.9,5 2.9,5 2.9,5 2.8,4.9 2.9,4.9 2.9,4.8 2.8,4.6 2.9,4.6 2.9,4.5 2.9,4.3 2.8,4.1 2.9,4 2.9,3.8 2.8,3.6 2.9,3.4 2.9,3.2 2.8,3 2.9,2.7 2.9,2.5 2.9,2.2 2.8,2 2.9,1.7 2.9,1.5 2.8,1.2 2.9,0.9 m -279.5,-90.8 2.8,0.6 2.9,0.5 2.9,0.2 2.8,-0.1 2.9,-0.3 2.9,-0.5 2.9,-0.7 2.8,-1 2.9,-1.1 2.9,-1.4 2.8,-1.6 2.9,-1.6 2.9,-1.9 2.9,-2.1 2.8,-2.2 2.9,-2.4 2.9,-2.5 2.8,-2.7 2.9,-2.7 2.9,-2.8 2.9,-2.9 2.8,-2.9 2.9,-3 2.9,-3 2.8,-3 2.9,-3 2.9,-3 2.9,-3 2.8,-2.9 2.9,-2.8 2.9,-2.8 2.8,-2.7 2.9,-2.5 2.9,-2.5 2.8,-2.3 2.9,-2.2 2.9,-2 2.9,-1.8 2.8,-1.7 2.9,-1.4 2.9,-1.3 2.8,-1 2.9,-0.9 2.9,-0.6 2.9,-0.4 2.7,-0.2 2.9,0.1 2.9,0.3 2.8,0.6 2.9,0.8 2.9,1 2.9,1.3 2.8,1.5 2.9,1.7 2.9,2 2.8,2.2 2.9,2.5 2.9,2.6 2.8,2.9 2.9,3 2.9,3.3 2.9,3.4 2.8,3.6 2.9,3.7 2.9,3.9 2.8,4.1 2.9,4.1 2.9,4.3 2.9,4.4 2.8,4.4 2.9,4.5 2.9,4.5 2.8,4.6 2.9,4.5 2.9,4.6 2.9,4.6 2.8,4.6 2.9,4.5 2.9,4.5 2.8,4.4 2.9,4.3 2.9,4.2 2.9,4.1 2.8,4 2.9,3.8 2.9,3.7 2.8,3.5 2.9,3.3 2.9,3.2 2.8,2.9 2.9,2.8 2.9,2.5 2.9,2.3 2.8,2.1 2.9,1.9 2.9,1.6 2.8,1.4 2.9,1.2 2.9,0.9 h 0.01"
           id="path194" />
        <path
           style="fill:none;stroke:#ffc0cb;stroke-opacity:1"
           inkscape:connector-curvature="0"
           d="m 173.9,222.3 2.9,0.7 2.9,0.5 2.8,0.2 2.9,0.1 2.9,-0.1 2.9,-0.3 2.8,-0.5 2.9,-0.7 2.9,-0.9 2.8,-1 2.9,-1.2 2.9,-1.4 2.9,-1.5 2.8,-1.6 2.9,-1.8 2.9,-1.9 2.8,-2 2.9,-2.1 2.9,-2.2 2.9,-2.2 2.8,-2.3 2.9,-2.4 2.9,-2.4 2.8,-2.4 2.9,-2.5 2.9,-2.4 2.9,-2.4 2.8,-2.4 2.9,-2.4 2.9,-2.2 2.8,-2.3 2.9,-2.1 2.9,-2.1 2.8,-1.9 2.9,-1.8 2.9,-1.8 2.9,-1.5 2.8,-1.5 2.9,-1.3 2.9,-1.1 2.8,-0.9 2.9,-0.8 2.9,-0.6 2.8,-0.4 2.8,-0.2 2.9,0 2.9,0.1 2.8,0.4 2.9,0.6 2.9,0.8 2.9,1 2.8,1.2 2.9,1.4 2.9,1.6 2.8,1.8 2.9,2 2.9,2.2 2.8,2.4 2.9,2.5 2.9,2.7 2.9,2.9 2.8,3 2.9,3.2 2.9,3.3 2.8,3.4 2.9,3.6 2.9,3.6 2.9,3.7 2.8,3.8 2.9,3.9 2.9,3.9 2.8,4 2.9,4 2.9,4.1 2.9,3.9 2.8,4 2.9,4 2.9,3.9 2.8,3.9 2.9,3.9 2.9,3.8 2.8,3.7 2.9,3.5 2.9,3.5 2.9,3.4 2.8,3.2 2.9,3.1 2.9,3 2.8,2.8 2.9,2.6 2.9,2.4 2.9,2.3 2.8,2.1 2.9,1.9 2.9,1.7 2.8,1.5 2.9,1.3 2.9,1.1 2.9,0.9 m -279.6,-95.9 2.9,0.7 2.8,0.6 2.9,0.4 2.9,0.2 2.9,0.1 2.8,0 2.9,-0.3 2.9,-0.3 2.8,-0.5 2.9,-0.6 2.9,-0.8 2.9,-0.8 2.8,-1 2.9,-1.1 2.9,-1.2 2.8,-1.3 2.9,-1.4 2.9,-1.4 2.9,-1.5 2.8,-1.6 2.9,-1.6 2.9,-1.6 2.8,-1.7 2.9,-1.7 2.9,-1.7 2.8,-1.7 2.9,-1.7 2.9,-1.7 2.9,-1.6 2.8,-1.6 2.9,-1.5 2.9,-1.5 2.8,-1.4 2.9,-1.3 2.9,-1.3 2.9,-1.1 2.8,-1 2.9,-1 2.9,-0.8 2.8,-0.7 2.9,-0.5 2.9,-0.4 2.8,-0.3 2.8,-0.2 2.9,0.1 2.9,0.1 2.8,0.3 2.9,0.5 2.9,0.7 2.9,0.8 2.8,0.9 2.9,1.1 2.9,1.3 2.8,1.4 2.9,1.6 2.9,1.7 2.8,1.9 2.9,2 2.9,2.1 2.9,2.3 2.8,2.4 2.9,2.5 2.9,2.6 2.8,2.8 2.9,2.8 2.9,2.9 2.9,3 2.8,3.1 2.9,3.1 2.9,3.2 2.8,3.2 2.9,3.3 2.9,3.2 2.9,3.3 2.8,3.3 2.9,3.3 2.9,3.2 2.8,3.2 2.9,3.2 2.9,3.2 2.8,3 2.9,3.1 2.9,2.9 2.9,2.9 2.8,2.8 2.9,2.7 2.9,2.5 2.8,2.5 2.9,2.3 2.9,2.3 2.9,2 2.8,2 2.9,1.8 2.9,1.6 2.8,1.5 2.9,1.4 2.9,1.1 2.9,1.1 2.8,0.8 m -279.5,-97.7 2.8,0.7 2.9,0.7 2.9,0.5 2.9,0.4 2.8,0.4 2.9,0.2 2.9,0.1 2.8,0.1 2.9,-0.1 2.9,-0.1 2.9,-0.2 2.8,-0.3 2.9,-0.4 2.9,-0.5 2.8,-0.5 2.9,-0.6 2.9,-0.6 2.9,-0.7 2.8,-0.7 2.9,-0.8 2.9,-0.8 2.8,-0.8 2.9,-0.8 2.9,-0.9 2.8,-0.8 2.9,-0.9 2.9,-0.8 2.9,-0.8 2.8,-0.8 2.9,-0.8 2.9,-0.8 2.8,-0.7 2.9,-0.6 2.9,-0.6 2.9,-0.6 2.8,-0.5 2.9,-0.4 2.9,-0.3 2.8,-0.3 2.9,-0.2 2.8,-0.1 2.9,0 2.8,0.1 2.9,0.2 2.9,0.3 2.8,0.4 2.9,0.5 2.9,0.5 2.9,0.7 2.8,0.8 2.9,0.9 2.9,1 2.8,1.1 2.9,1.2 2.9,1.3 2.8,1.5 2.9,1.5 2.9,1.6 2.9,1.6 2.8,1.8 2.9,1.9 2.9,1.9 2.8,2 2.9,2.1 2.9,2.1 2.9,2.2 2.8,2.2 2.9,2.3 2.9,2.4 2.8,2.3 2.9,2.4 2.9,2.4 2.9,2.5 2.8,2.4 2.9,2.5 2.9,2.4 2.8,2.4 2.9,2.4 2.9,2.4 2.8,2.3 2.9,2.3 2.9,2.2 2.9,2.3 2.8,2.1 2.9,2.1 2.9,2.1 2.8,1.9 2.9,1.9 2.9,1.8 2.9,1.8 2.8,1.6 2.9,1.6 2.9,1.4 2.8,1.4 2.9,1.2 2.9,1.2 2.9,1 2.8,1 2.9,0.8 m -279.6,-98.9 2.9,0.7 2.9,0.8 2.9,0.6 2.8,0.7 2.9,0.6 2.9,0.5 2.8,0.5 2.9,0.5 2.9,0.4 2.9,0.4 2.8,0.4 2.9,0.3 2.9,0.3 2.8,0.2 2.9,0.2 2.9,0.2 2.9,0.2 2.8,0.1 2.9,0.2 2.9,0.1 2.8,0.1 2.9,0.1 2.9,0.1 2.8,0 2.9,0.1 2.9,0.1 2.9,0.1 2.8,0 2.9,0.1 2.9,0.1 2.8,0.2 2.9,0.1 2.9,0.2 2.9,0.2 2.8,0.2 2.9,0.2 2.9,0.3 2.8,0.3 2.9,0.3 2.8,0.4 2.9,0.4 2.8,0.4 2.9,0.5 2.9,0.5 2.8,0.6 2.9,0.6 2.9,0.7 2.8,0.7 2.9,0.7 2.9,0.8 2.9,0.8 2.8,0.9 2.9,1 2.9,0.9 2.8,1.1 2.9,1 2.9,1.1 2.9,1.2 2.8,1.2 2.9,1.2 2.9,1.2 2.8,1.3 2.9,1.3 2.9,1.4 2.9,1.4 2.8,1.4 2.9,1.4 2.9,1.5 2.8,1.4 2.9,1.5 2.9,1.5 2.9,1.5 2.8,1.5 2.9,1.5 2.9,1.5 2.8,1.6 2.9,1.5 2.9,1.5 2.8,1.5 2.9,1.4 2.9,1.5 2.9,1.4 2.8,1.4 2.9,1.4 2.9,1.4 2.8,1.3 2.9,1.2 2.9,1.3 2.9,1.3 2.8,1.2 2.9,1.1 2.9,1.2 2.8,1 2.9,1.1 2.9,1 2.9,0.9 2.8,0.9 2.9,0.9 2.9,0.8 m -279.6,-99.5 2.9,0.8 2.9,0.8 2.8,0.9 2.9,0.8 2.9,0.9 2.8,0.9 2.9,0.8 2.9,1 2.9,0.9 2.8,0.9 2.9,0.9 2.9,1 2.8,1 2.9,0.9 2.9,1 2.9,1 2.8,1 2.9,1 2.9,1.1 2.8,1 2.9,1 2.9,1 2.8,1.1 2.9,1 2.9,1 2.9,1.1 2.8,1 2.9,1 2.9,1.1 2.8,1 2.9,1 2.9,1 2.9,1 2.8,1 2.9,1 2.9,1 2.8,1 2.8,0.9 2.9,1 2.9,0.9 2.8,0.9 2.9,1 2.9,0.8 2.8,0.9 2.9,0.9 2.9,0.9 2.8,0.8 2.9,0.8 2.9,0.8 2.9,0.8 2.8,0.8 2.9,0.8 2.9,0.7 2.8,0.8 2.9,0.7 2.9,0.7 2.9,0.7 2.8,0.6 2.9,0.7 2.9,0.7 2.8,0.6 2.9,0.6 2.9,0.6 2.9,0.7 2.8,0.5 2.9,0.6 2.9,0.6 2.8,0.6 2.9,0.6 2.9,0.5 2.8,0.6 2.9,0.5 2.9,0.6 2.9,0.6 2.8,0.5 2.9,0.6 2.9,0.5 2.8,0.6 2.9,0.5 2.9,0.6 2.9,0.6 2.8,0.6 2.9,0.5 2.9,0.6 2.8,0.6 2.9,0.7 2.9,0.6 2.9,0.6 2.8,0.7 2.9,0.6 2.9,0.7 2.8,0.7 2.9,0.7 2.9,0.7 2.9,0.7 2.8,0.7 2.9,0.8 2.9,0.8 2.8,0.8 m -279.5,-99.5 2.9,0.9 2.8,0.9 2.9,1 2.9,1 2.8,1.1 2.9,1.3 2.9,1.2 2.9,1.4 2.8,1.4 2.9,1.4 2.9,1.6 2.8,1.6 2.9,1.6 2.9,1.7 2.9,1.7 2.8,1.8 2.9,1.8 2.9,1.9 2.8,1.9 2.9,1.9 2.9,2 2.8,1.9 2.9,2 2.9,2 2.9,2 2.8,1.9 2.9,2 2.9,2 2.8,1.9 2.9,2 2.9,1.9 2.9,1.8 2.8,1.9 2.9,1.8 2.9,1.8 2.7,1.7 2.9,1.6 2.9,1.7 2.9,1.5 2.8,1.5 2.9,1.5 2.9,1.3 2.8,1.3 2.9,1.3 2.9,1.1 2.8,1.1 2.9,1.1 2.9,0.9 2.9,0.9 2.8,0.8 2.9,0.7 2.9,0.6 2.8,0.6 2.9,0.5 2.9,0.4 2.9,0.4 2.8,0.2 2.9,0.3 2.9,0.1 2.8,0.1 2.9,0 2.9,0 2.9,-0.1 2.8,-0.1 2.9,-0.2 2.9,-0.2 2.8,-0.3 2.9,-0.2 2.9,-0.4 2.8,-0.3 2.9,-0.4 2.9,-0.3 2.9,-0.4 2.8,-0.4 2.9,-0.4 2.9,-0.4 2.8,-0.4 2.9,-0.4 2.9,-0.3 2.9,-0.3 2.8,-0.4 2.9,-0.2 2.9,-0.3 2.8,-0.2 2.9,-0.1 2.9,-0.1 2.9,-0.1 2.8,0 2.9,0.1 2.9,0.1 2.8,0.2 2.9,0.2 2.9,0.4 2.9,0.3 2.8,0.5 2.9,0.5 2.9,0.6 2.8,0.7 2.9,0.8 h 0.01"
           id="path196" />
        <path
           style="fill:none;stroke:#ffc0cb;stroke-opacity:1"
           inkscape:connector-curvature="0"
           d="m 201.4,103.6 2.8,0.9 2.9,1 2.9,1.1 2.8,1.3 2.9,1.4 2.9,1.5 2.9,1.6 2.8,1.7 2.9,1.9 2.9,2 2.8,2.1 2.9,2.1 2.9,2.3 2.8,2.4 2.9,2.4 2.9,2.6 2.9,2.6 2.8,2.6 2.9,2.8 2.9,2.7 2.8,2.8 2.9,2.9 2.9,2.8 2.9,2.9 2.8,2.9 2.9,2.8 2.9,2.9 2.8,2.9 2.9,2.8 2.9,2.8 2.9,2.7 2.8,2.7 2.9,2.6 2.9,2.6 2.7,2.5 2.9,2.4 2.9,2.3 2.9,2.2 2.8,2.2 2.9,2 2.9,1.9 2.8,1.8 2.9,1.7 2.9,1.6 2.8,1.4 2.9,1.4 2.9,1.1 2.9,1.1 2.8,0.9 2.9,0.8 2.9,0.7 2.8,0.5 2.9,0.4 2.9,0.3 2.9,0.1 2.8,0.1 2.9,-0.1 2.9,-0.3 2.8,-0.3 2.9,-0.4 2.9,-0.6 2.9,-0.6 2.8,-0.8 2.9,-0.8 2.9,-0.9 2.8,-1 2.9,-1 2.9,-1.1 2.8,-1.2 2.9,-1.2 2.9,-1.2 2.9,-1.2 2.8,-1.3 2.9,-1.3 2.9,-1.3 2.8,-1.3 2.9,-1.3 2.9,-1.2 2.9,-1.2 2.8,-1.2 2.9,-1.1 2.9,-1.1 2.8,-1 2.9,-0.9 2.9,-0.9 2.9,-0.8 2.8,-0.7 2.9,-0.6 2.9,-0.5 2.8,-0.4 2.9,-0.2 2.9,-0.2 2.8,0 2.9,0.1 2.9,0.2 2.9,0.3 2.8,0.5 2.9,0.6 2.9,0.7 m -279.6,-97 2.9,0.9 2.9,1 2.8,1.3 2.9,1.4 2.9,1.6 2.9,1.8 2.8,1.9 2.9,2.2 2.9,2.2 2.8,2.5 2.9,2.5 2.9,2.7 2.8,2.9 2.9,3 2.9,3.1 2.9,3.1 2.8,3.3 2.9,3.4 2.9,3.5 2.8,3.5 2.9,3.5 2.9,3.7 2.9,3.6 2.8,3.7 2.9,3.6 2.9,3.7 2.8,3.7 2.9,3.6 2.9,3.6 2.9,3.5 2.8,3.5 2.9,3.4 2.8,3.4 2.8,3.2 2.9,3.2 2.9,3 2.8,2.9 2.9,2.8 2.9,2.6 2.9,2.5 2.8,2.4 2.9,2.2 2.9,2 2.8,1.9 2.9,1.7 2.9,1.5 2.9,1.3 2.8,1.2 2.9,1 2.9,0.8 2.8,0.6 2.9,0.4 2.9,0.2 2.9,0.1 2.8,-0.1 2.9,-0.3 2.9,-0.4 2.8,-0.6 2.9,-0.8 2.9,-0.9 2.9,-1 2.8,-1.2 2.9,-1.4 2.9,-1.4 2.8,-1.6 2.9,-1.6 2.9,-1.8 2.8,-1.8 2.9,-1.9 2.9,-1.9 2.9,-2 2.8,-2.1 2.9,-2 2.9,-2.1 2.8,-2.1 2.9,-2.1 2.9,-2 2.9,-2.1 2.8,-2 2.9,-1.9 2.9,-1.8 2.8,-1.8 2.9,-1.7 2.9,-1.6 2.9,-1.5 2.8,-1.4 2.9,-1.3 2.9,-1.1 2.8,-1 2.9,-0.8 2.9,-0.7 2.8,-0.5 2.9,-0.4 2.9,-0.2 2.9,0 2.8,0.2 2.9,0.3 2.9,0.5 2.8,0.7 M 210.5,69 l 2.9,0.9 2.8,1.2 2.9,1.3 2.9,1.6 2.9,1.8 2.8,2 2.9,2.2 2.9,2.4 2.8,2.6 2.9,2.8 2.9,3 2.8,3.2 2.9,3.3 2.9,3.5 2.9,3.6 2.8,3.7 2.9,3.9 2.9,4 2.8,4 2.9,4.2 2.9,4.2 2.9,4.2 2.8,4.3 2.9,4.4 2.9,4.3 2.8,4.3 2.9,4.3 2.9,4.3 2.9,4.3 2.8,4.1 2.9,4.1 2.8,4.1 2.8,3.9 2.9,3.8 2.9,3.7 2.8,3.5 2.9,3.4 2.9,3.2 2.9,3.1 2.8,2.9 2.9,2.7 2.9,2.5 2.8,2.3 2.9,2.2 2.9,1.9 2.9,1.6 2.8,1.5 2.9,1.2 2.9,1.1 2.8,0.8 2.9,0.5 2.9,0.4 2.9,0.1 2.8,-0.1 2.9,-0.3 2.9,-0.5 2.8,-0.8 2.9,-0.9 2.9,-1.1 2.9,-1.3 2.8,-1.5 2.9,-1.6 2.9,-1.9 2.8,-1.9 2.9,-2.1 2.9,-2.2 2.8,-2.3 2.9,-2.5 2.9,-2.5 2.9,-2.6 2.8,-2.6 2.9,-2.7 2.9,-2.7 2.8,-2.8 2.9,-2.7 2.9,-2.8 2.9,-2.7 2.8,-2.6 2.9,-2.7 2.9,-2.5 2.8,-2.5 2.9,-2.4 2.9,-2.2 2.9,-2.2 2.8,-2 2.9,-1.9 2.9,-1.7 2.8,-1.6 2.9,-1.4 2.9,-1.2 2.8,-1 2.9,-0.9 2.9,-0.6 2.9,-0.4 2.8,-0.2 2.9,0 2.9,0.2 2.8,0.5 2.9,0.7 m -279.5,-92.3 2.8,0.9 2.9,1.2 2.9,1.4 2.9,1.7 2.8,2 2.9,2.1 2.9,2.4 2.8,2.7 2.9,2.9 2.9,3 2.8,3.3 2.9,3.5 2.9,3.7 2.9,3.8 2.8,4 2.9,4.2 2.9,4.3 2.8,4.4 2.9,4.5 2.9,4.6 2.9,4.7 2.8,4.8 2.9,4.8 2.9,4.8 2.8,4.8 2.9,4.8 2.9,4.8 2.9,4.8 2.8,4.7 2.8,4.7 2.9,4.5 2.8,4.5 2.9,4.4 2.9,4.2 2.8,4.1 2.9,3.9 2.9,3.8 2.9,3.5 2.8,3.4 2.9,3.2 2.9,3 2.8,2.8 2.9,2.5 2.9,2.3 2.9,2 2.8,1.8 2.9,1.6 2.9,1.3 2.8,1.1 2.9,0.8 2.9,0.5 2.9,0.3 2.8,0 2.9,-0.2 2.9,-0.5 2.8,-0.7 2.9,-0.9 2.9,-1.2 2.8,-1.4 2.9,-1.6 2.9,-1.8 2.9,-2 2.8,-2.1 2.9,-2.4 2.9,-2.5 2.8,-2.6 2.9,-2.8 2.9,-2.9 2.9,-2.9 2.8,-3.1 2.9,-3.1 2.9,-3.2 2.8,-3.2 2.9,-3.3 2.9,-3.2 2.9,-3.2 2.8,-3.2 2.9,-3.2 2.9,-3.1 2.8,-3 2.9,-3 2.9,-2.8 2.9,-2.7 2.8,-2.5 2.9,-2.5 2.9,-2.2 2.8,-2.1 2.9,-1.9 2.9,-1.7 2.8,-1.5 2.9,-1.3 2.9,-1 2.9,-0.9 2.8,-0.5 2.9,-0.4 2.9,-0.1 2.8,0.2 2.9,0.4 2.9,0.6 m -279.6,-89.3 2.9,1 2.9,1.2 2.9,1.5 2.8,1.7 2.9,2 2.9,2.3 2.8,2.6 2.9,2.7 2.9,3.1 2.8,3.2 2.9,3.5 2.9,3.7 2.9,3.9 2.8,4.1 2.9,4.2 2.9,4.4 2.8,4.6 2.9,4.7 2.9,4.8 2.9,4.9 2.8,5 2.9,5 2.9,5.1 2.8,5.1 2.9,5.2 2.9,5.1 2.9,5.1 2.8,5.1 2.8,5 2.9,4.9 2.8,4.9 2.9,4.7 2.9,4.7 2.8,4.5 2.9,4.3 2.9,4.2 2.9,3.9 2.8,3.8 2.9,3.6 2.9,3.4 2.8,3.1 2.9,2.9 2.9,2.7 2.9,2.4 2.8,2.2 2.9,1.9 2.9,1.6 2.8,1.3 2.9,1.1 2.9,0.8 2.9,0.5 2.8,0.2 2.9,0 2.9,-0.3 2.8,-0.5 2.9,-0.9 2.9,-1 2.8,-1.4 2.9,-1.5 2.9,-1.8 2.9,-2 2.8,-2.2 2.9,-2.4 2.9,-2.6 2.8,-2.7 2.9,-2.9 2.9,-3.1 2.9,-3.1 2.8,-3.3 2.9,-3.3 2.9,-3.5 2.8,-3.4 2.9,-3.6 2.9,-3.5 2.9,-3.6 2.8,-3.5 2.9,-3.5 2.9,-3.5 2.8,-3.4 2.9,-3.3 2.9,-3.2 2.9,-3.1 2.8,-2.9 2.9,-2.9 2.9,-2.6 2.8,-2.5 2.9,-2.3 2.9,-2.1 2.8,-1.9 2.9,-1.7 2.9,-1.4 2.9,-1.2 2.8,-1 2.9,-0.7 2.9,-0.4 2.8,-0.2 2.9,0.2 2.9,0.3 2.9,0.7 m -279.6,-86.1 2.9,0.9 2.8,1.2 2.9,1.5 2.9,1.8 2.9,2.1 2.8,2.3 2.9,2.6 2.9,2.8 2.8,3.1 2.9,3.3 2.9,3.5 2.9,3.8 2.8,4 2.9,4.1 2.9,4.4 2.8,4.5 2.9,4.6 2.9,4.8 2.9,4.9 2.8,5 2.9,5.1 2.9,5.1 2.8,5.2 2.9,5.2 2.9,5.3 2.9,5.2 2.7,5.2 2.9,5.2 2.9,5.1 2.8,5.1 2.9,4.9 2.9,4.9 2.8,4.7 2.9,4.5 2.9,4.5 2.9,4.2 2.8,4.1 2.9,3.8 2.9,3.7 2.8,3.4 2.9,3.2 2.9,3 2.9,2.7 2.8,2.4 2.9,2.2 2.9,1.9 2.8,1.7 2.9,1.3 2.9,1.1 2.9,0.8 2.8,0.5 2.9,0.2 2.9,0 2.8,-0.3 2.9,-0.6 2.9,-0.9 2.8,-1.1 2.9,-1.4 2.9,-1.6 2.9,-1.8 2.8,-2.1 2.9,-2.3 2.9,-2.4 2.8,-2.7 2.9,-2.8 2.9,-3 2.9,-3.1 2.8,-3.3 2.9,-3.4 2.9,-3.4 2.8,-3.5 2.9,-3.6 2.9,-3.7 2.9,-3.6 2.8,-3.7 2.9,-3.6 2.9,-3.6 2.8,-3.6 2.9,-3.5 2.9,-3.4 2.8,-3.3 2.9,-3.2 2.9,-3 2.9,-2.9 2.8,-2.8 2.9,-2.6 2.9,-2.3 2.8,-2.2 2.9,-2 2.9,-1.7 2.9,-1.5 2.8,-1.2 2.9,-1 2.9,-0.7 2.8,-0.5 2.9,-0.2 2.9,0.1 2.9,0.4 2.8,0.6 h 0.01"
           id="path198" />
        <path
           style="fill:none;stroke:#ffc0cb;stroke-opacity:1"
           inkscape:connector-curvature="0"
           d="m 91.7,205.9 1.3,-1.5 1.4,-1.3 1.3,-1 1.3,-0.7 1.4,-0.5 1.3,-0.2 1.3,0.1 1.4,0.4 1.3,0.5 1.4,0.9 1.3,1 1.3,1.3 1.4,1.4 1.3,1.7 1.4,1.8 1.3,2 1.3,2.2 1.4,2.3 1.3,2.4 1.3,2.5 1.4,2.5 1.3,2.7 1.4,2.7 1.3,2.6 1.3,2.8 1.4,2.7 1.3,2.7 1.4,2.7 1.3,2.6 1.3,2.6 1.4,2.4 1.3,2.4 1.4,2.2 1.3,2.1 1.3,1.9 1.4,1.7 1.3,1.6 1.3,1.4 1.4,1.1 1.3,1 1.4,0.7 1.3,0.4 1.3,0.2 1.4,0 1.3,-0.3 1.4,-0.6 1.3,-0.9 1.3,-1.1 1.4,-1.4 1.3,-1.7 1.3,-2 1.4,-2.3 1.3,-2.5 1.4,-2.9 1.3,-3.1 1.3,-3.3 1.4,-3.6 1.3,-3.9 1.4,-4.1 1.3,-4.2 1.3,-4.6 1.4,-4.8 1.3,-5 1.4,-5.1 1.3,-5.3 1.3,-5.5 1.4,-5.6 1.3,-5.8 1.3,-5.9 1.4,-5.9 1.3,-6 1.4,-6.1 1.3,-6.1 1.3,-6.2 1.4,-6.1 1.3,-6.2 1.4,-6.1 1.3,-6.1 1.3,-5.9 1.4,-5.9 1.3,-5.9 1.3,-5.6 1.4,-5.6 1.3,-5.4 1.4,-5.3 1.3,-5 1.3,-4.9 1.4,-4.7 1.3,-4.4 1.4,-4.2 1.3,-4 1.3,-3.8 1.4,-3.5 1.3,-3.2 1.4,-2.9 1.3,-2.7 1.3,-2.4 1.4,-2.2 1.3,-1.8 m -122.7,173 1.3,-1.6 1.4,-1.3 1.3,-1 1.3,-0.7 1.4,-0.5 1.3,-0.2 1.3,0 1.4,0.3 1.3,0.5 1.4,0.8 1.3,1 1.3,1.2 1.4,1.4 1.3,1.5 1.4,1.8 1.3,1.9 1.3,2.1 1.4,2.2 1.3,2.3 1.3,2.4 1.4,2.4 1.3,2.6 1.4,2.5 1.3,2.6 1.3,2.7 1.4,2.6 1.3,2.6 1.4,2.6 1.3,2.5 1.3,2.5 1.4,2.3 1.3,2.3 1.4,2.1 1.3,2 1.3,1.8 1.4,1.7 1.3,1.5 1.3,1.3 1.4,1.1 1.3,0.8 1.4,0.7 1.3,0.4 1.3,0.1 1.4,0 1.3,-0.4 1.4,-0.6 1.3,-0.9 1.3,-1.1 1.4,-1.5 1.3,-1.7 1.3,-2 1.4,-2.2 1.3,-2.5 1.4,-2.8 1.3,-3.1 1.3,-3.3 1.4,-3.6 1.3,-3.8 1.4,-4 1.3,-4.2 1.3,-4.5 1.4,-4.7 1.3,-4.9 1.4,-5.1 1.3,-5.2 1.3,-5.4 1.4,-5.6 1.3,-5.6 1.3,-5.8 1.4,-5.8 1.3,-6 1.4,-5.9 1.3,-6.1 1.3,-6 1.4,-6.1 1.3,-6 1.4,-6 1.3,-6 1.3,-5.8 1.4,-5.9 1.3,-5.7 1.3,-5.6 1.4,-5.4 1.3,-5.3 1.4,-5.2 1.3,-5 1.3,-4.8 1.4,-4.6 1.3,-4.4 1.4,-4.2 1.3,-3.9 1.3,-3.7 1.4,-3.4 1.3,-3.2 1.4,-2.9 1.3,-2.7 1.3,-2.4 1.4,-2.1 1.3,-1.9 m -122.7,176.2 1.3,-1.5 1.4,-1.3 1.3,-1.1 1.3,-0.8 1.4,-0.6 1.3,-0.3 1.3,-0.1 1.4,0.1 1.3,0.4 1.4,0.6 1.3,0.8 1.3,1 1.4,1.2 1.3,1.3 1.4,1.5 1.3,1.7 1.3,1.8 1.4,1.9 1.3,2 1.4,2.1 1.3,2.2 1.3,2.1 1.4,2.3 1.3,2.4 1.3,2.3 1.4,2.3 1.3,2.3 1.4,2.3 1.3,2.2 1.3,2.2 1.4,2.1 1.3,1.9 1.4,1.9 1.3,1.7 1.3,1.6 1.4,1.4 1.3,1.3 1.3,1.1 1.4,0.9 1.3,0.6 1.4,0.5 1.3,0.3 1.3,0 1.4,-0.2 1.3,-0.4 1.4,-0.7 1.3,-1 1.3,-1.1 1.4,-1.5 1.3,-1.7 1.4,-2 1.3,-2.2 1.3,-2.4 1.4,-2.8 1.3,-2.9 1.3,-3.2 1.4,-3.5 1.3,-3.6 1.4,-3.9 1.3,-4 1.3,-4.3 1.4,-4.5 1.3,-4.7 1.4,-4.8 1.3,-5 1.3,-5.1 1.4,-5.3 1.3,-5.4 1.3,-5.5 1.4,-5.5 1.3,-5.6 1.4,-5.7 1.3,-5.7 1.3,-5.8 1.4,-5.7 1.3,-5.7 1.4,-5.7 1.3,-5.7 1.3,-5.6 1.4,-5.5 1.3,-5.4 1.4,-5.4 1.3,-5.2 1.3,-5 1.4,-4.9 1.3,-4.8 1.3,-4.6 1.4,-4.4 1.3,-4.2 1.4,-4 1.3,-3.7 1.3,-3.6 1.4,-3.3 1.3,-3.1 1.4,-2.8 1.3,-2.6 1.3,-2.4 1.4,-2.1 1.3,-1.8 m -122.7,179.2 1.3,-1.6 1.4,-1.4 1.3,-1.1 1.3,-1 1.4,-0.7 1.3,-0.4 1.3,-0.3 1.4,-0.1 1.3,0.1 1.4,0.3 1.3,0.5 1.3,0.7 1.4,0.8 1.3,0.9 1.4,1.2 1.3,1.2 1.3,1.4 1.4,1.4 1.3,1.5 1.4,1.6 1.3,1.8 1.3,1.7 1.4,1.8 1.3,1.8 1.3,1.9 1.4,1.8 1.3,1.8 1.4,1.8 1.3,1.8 1.3,1.6 1.4,1.6 1.3,1.6 1.4,1.4 1.3,1.3 1.3,1.2 1.4,1 1.3,0.9 1.3,0.8 1.4,0.5 1.3,0.4 1.4,0.2 1.3,0.1 1.3,-0.2 1.4,-0.4 1.3,-0.6 1.4,-0.8 1.3,-1.1 1.3,-1.2 1.4,-1.5 1.3,-1.7 1.4,-1.9 1.3,-2.2 1.3,-2.4 1.4,-2.5 1.3,-2.9 1.3,-3 1.4,-3.2 1.3,-3.4 1.4,-3.5 1.3,-3.8 1.3,-4 1.4,-4.2 1.3,-4.3 1.4,-4.4 1.3,-4.6 1.3,-4.7 1.4,-4.9 1.3,-4.9 1.3,-5 1.4,-5.1 1.3,-5.1 1.4,-5.2 1.3,-5.2 1.3,-5.3 1.4,-5.2 1.3,-5.3 1.4,-5.2 1.3,-5.1 1.3,-5.2 1.4,-5 1.3,-5 1.4,-4.9 1.3,-4.7 1.3,-4.7 1.4,-4.5 1.3,-4.4 1.3,-4.2 1.4,-4.1 1.3,-3.9 1.4,-3.7 1.3,-3.5 1.3,-3.3 1.4,-3.2 1.3,-2.9 1.4,-2.7 1.3,-2.5 1.3,-2.2 1.4,-2.1 1.3,-1.8 m -122.7,181.7 1.3,-1.6 1.4,-1.4 1.3,-1.3 1.3,-1 1.4,-0.9 1.3,-0.8 1.3,-0.5 1.4,-0.4 1.3,-0.2 1.4,-0.1 1.3,0.1 1.3,0.2 1.4,0.4 1.3,0.4 1.4,0.6 1.3,0.7 1.3,0.8 1.4,0.9 1.3,0.9 1.4,1.1 1.3,1 1.3,1.1 1.4,1.2 1.3,1.2 1.3,1.1 1.4,1.2 1.3,1.2 1.4,1.1 1.3,1.1 1.3,1 1.4,1 1.3,0.9 1.4,0.9 1.3,0.7 1.3,0.7 1.4,0.5 1.3,0.4 1.3,0.3 1.4,0.1 1.3,0 1.4,-0.1 1.3,-0.3 1.3,-0.5 1.4,-0.6 1.3,-0.8 1.4,-1 1.3,-1.1 1.3,-1.4 1.4,-1.5 1.3,-1.7 1.4,-1.9 1.3,-2.1 1.3,-2.2 1.4,-2.4 1.3,-2.6 1.3,-2.8 1.4,-2.9 1.3,-3.1 1.4,-3.2 1.3,-3.4 1.3,-3.6 1.4,-3.7 1.3,-3.8 1.4,-3.9 1.3,-4.1 1.3,-4.1 1.4,-4.3 1.3,-4.3 1.3,-4.4 1.4,-4.5 1.3,-4.5 1.4,-4.5 1.3,-4.6 1.3,-4.5 1.4,-4.6 1.3,-4.6 1.4,-4.6 1.3,-4.5 1.3,-4.5 1.4,-4.4 1.3,-4.3 1.4,-4.3 1.3,-4.2 1.3,-4.1 1.4,-4 1.3,-3.9 1.3,-3.8 1.4,-3.6 1.3,-3.5 1.4,-3.3 1.3,-3.2 1.3,-3 1.4,-2.9 1.3,-2.7 1.4,-2.5 1.3,-2.3 1.3,-2.2 1.4,-1.9 1.3,-1.8 m -122.7,183.8 1.3,-1.7 1.4,-1.5 1.3,-1.3 1.3,-1.3 1.4,-1.1 1.3,-1 1.3,-0.9 1.4,-0.7 1.3,-0.6 1.4,-0.6 1.3,-0.4 1.3,-0.3 1.4,-0.2 1.3,-0.1 1.4,-0.1 1.3,0 1.3,0.1 1.4,0.2 1.3,0.2 1.4,0.3 1.3,0.3 1.3,0.3 1.4,0.4 1.3,0.4 1.3,0.3 1.4,0.4 1.3,0.4 1.4,0.3 1.3,0.4 1.3,0.2 1.4,0.3 1.3,0.2 1.4,0.1 1.3,0.1 1.3,0 1.4,-0.1 1.3,-0.2 1.3,-0.2 1.4,-0.4 1.3,-0.5 1.4,-0.6 1.3,-0.6 1.3,-0.9 1.4,-0.9 1.3,-1 1.4,-1.2 1.3,-1.3 1.3,-1.5 1.4,-1.5 1.3,-1.7 1.4,-1.9 1.3,-1.9 1.3,-2.1 1.4,-2.2 1.3,-2.3 1.3,-2.5 1.4,-2.6 1.3,-2.7 1.4,-2.8 1.3,-3 1.3,-3 1.4,-3.2 1.3,-3.2 1.4,-3.3 1.3,-3.4 1.3,-3.5 1.4,-3.5 1.3,-3.6 1.3,-3.7 1.4,-3.7 1.3,-3.7 1.4,-3.8 1.3,-3.7 1.3,-3.8 1.4,-3.8 1.3,-3.8 1.4,-3.8 1.3,-3.7 1.3,-3.7 1.4,-3.7 1.3,-3.6 1.4,-3.6 1.3,-3.5 1.3,-3.4 1.4,-3.4 1.3,-3.3 1.3,-3.2 1.4,-3.1 1.3,-2.9 1.4,-2.9 1.3,-2.8 1.3,-2.7 1.4,-2.5 1.3,-2.4 1.4,-2.3 1.3,-2.2 1.3,-2 1.4,-1.9 1.3,-1.8 h 0.01"
           id="path200" />
        <path
           style="fill:none;stroke:#ffc0cb;stroke-opacity:1"
           inkscape:connector-curvature="0"
           d="m 150.5,273.5 1.3,-1.7 1.4,-1.6 1.3,-1.5 1.3,-1.4 1.4,-1.4 1.3,-1.3 1.3,-1.2 1.4,-1.2 1.3,-1.1 1.4,-1 1.3,-1 1.3,-0.9 1.4,-0.8 1.3,-0.9 1.4,-0.7 1.3,-0.7 1.3,-0.7 1.4,-0.6 1.3,-0.6 1.4,-0.6 1.3,-0.6 1.3,-0.5 1.4,-0.5 1.3,-0.6 1.3,-0.5 1.4,-0.5 1.3,-0.5 1.4,-0.5 1.3,-0.6 1.3,-0.5 1.4,-0.6 1.3,-0.7 1.4,-0.6 1.3,-0.7 1.3,-0.7 1.4,-0.8 1.3,-0.8 1.3,-0.9 1.4,-1 1.3,-1 1.4,-1 1.3,-1.2 1.3,-1.1 1.4,-1.3 1.3,-1.3 1.4,-1.4 1.3,-1.4 1.3,-1.6 1.4,-1.6 1.3,-1.7 1.4,-1.8 1.3,-1.8 1.3,-2 1.4,-2 1.3,-2 1.3,-2.2 1.4,-2.2 1.3,-2.3 1.4,-2.3 1.3,-2.4 1.3,-2.5 1.4,-2.5 1.3,-2.6 1.4,-2.6 1.3,-2.7 1.3,-2.7 1.4,-2.8 1.3,-2.8 1.3,-2.8 1.4,-2.8 1.3,-2.9 1.4,-2.9 1.3,-2.8 1.3,-2.9 1.4,-2.9 1.3,-2.9 1.4,-2.9 1.3,-2.9 1.3,-2.8 1.4,-2.9 1.3,-2.8 1.4,-2.7 1.3,-2.8 1.3,-2.7 1.4,-2.6 1.3,-2.6 1.3,-2.6 1.4,-2.5 1.3,-2.4 1.4,-2.4 1.3,-2.3 1.3,-2.2 1.4,-2.2 1.3,-2.1 1.4,-2.1 1.3,-1.9 1.3,-1.9 1.4,-1.8 1.3,-1.8 m -122.7,186.2 1.3,-1.7 1.4,-1.6 1.3,-1.7 1.3,-1.7 1.4,-1.6 1.3,-1.6 1.3,-1.6 1.4,-1.6 1.3,-1.6 1.4,-1.6 1.3,-1.5 1.3,-1.6 1.4,-1.5 1.3,-1.5 1.4,-1.5 1.3,-1.5 1.3,-1.5 1.4,-1.5 1.3,-1.5 1.4,-1.5 1.3,-1.4 1.3,-1.5 1.4,-1.5 1.3,-1.4 1.3,-1.5 1.4,-1.5 1.3,-1.4 1.4,-1.5 1.3,-1.5 1.3,-1.4 1.4,-1.5 1.3,-1.5 1.4,-1.5 1.3,-1.5 1.3,-1.5 1.4,-1.5 1.3,-1.5 1.4,-1.6 1.3,-1.5 1.3,-1.5 1.4,-1.6 1.3,-1.5 1.3,-1.6 1.4,-1.7 1.3,-1.6 1.4,-1.6 1.3,-1.7 1.3,-1.7 1.4,-1.6 1.3,-1.7 1.4,-1.8 1.3,-1.7 1.3,-1.7 1.4,-1.8 1.3,-1.8 1.3,-1.8 1.4,-1.8 1.3,-1.8 1.4,-1.8 1.3,-1.9 1.3,-1.8 1.4,-1.9 1.3,-1.9 1.4,-1.9 1.3,-1.9 1.3,-1.9 1.4,-1.9 1.3,-1.9 1.4,-2 1.3,-1.9 1.3,-1.9 1.4,-2 1.3,-1.9 1.3,-2 1.4,-1.9 1.3,-2 1.4,-1.9 1.3,-1.9 1.3,-2 1.4,-1.9 1.3,-1.9 1.4,-1.9 1.3,-2 1.3,-1.9 1.4,-1.9 1.3,-1.8 1.3,-1.9 1.4,-1.9 1.3,-1.8 1.4,-1.9 1.3,-1.8 1.3,-1.8 1.4,-1.8 1.3,-1.8 1.4,-1.8 1.3,-1.7 1.3,-1.8 1.4,-1.7 1.3,-1.7 M 170.1,309 l 1.3,-1.7 1.4,-1.8 1.3,-1.8 1.3,-1.9 1.4,-1.9 1.3,-1.9 1.4,-2 1.3,-2.1 1.3,-2 1.4,-2.2 1.3,-2.1 1.3,-2.2 1.4,-2.2 1.3,-2.2 1.4,-2.3 1.3,-2.3 1.3,-2.4 1.4,-2.3 1.3,-2.4 1.4,-2.4 1.3,-2.4 1.3,-2.4 1.4,-2.4 1.3,-2.4 1.3,-2.4 1.4,-2.4 1.3,-2.5 1.4,-2.4 1.3,-2.4 1.3,-2.4 1.4,-2.3 1.3,-2.4 1.4,-2.3 1.3,-2.4 1.3,-2.2 1.4,-2.2 1.3,-2.2 1.4,-2.2 1.3,-2.2 1.3,-2.1 1.4,-2.1 1.3,-2.1 1.3,-2 1.4,-2 1.3,-1.9 1.4,-1.9 1.3,-1.8 1.3,-1.8 1.4,-1.8 1.3,-1.7 1.4,-1.6 1.3,-1.6 1.3,-1.6 1.4,-1.5 1.3,-1.5 1.3,-1.4 1.4,-1.4 1.3,-1.4 1.4,-1.3 1.3,-1.3 1.3,-1.2 1.4,-1.2 1.3,-1.2 1.4,-1.1 1.3,-1.2 1.3,-1.1 1.4,-1 1.3,-1.1 1.4,-1 1.3,-1 1.3,-1 1.4,-1 1.3,-1 1.3,-1 1.4,-1 1.3,-1 1.4,-1 1.3,-1 1.3,-1 1.4,-1 1.3,-1 1.4,-1.1 1.3,-1.1 1.3,-1.1 1.4,-1.1 1.3,-1.2 1.3,-1.1 1.4,-1.3 1.3,-1.2 1.4,-1.3 1.3,-1.4 1.3,-1.3 1.4,-1.4 1.3,-1.5 1.4,-1.5 1.3,-1.6 1.3,-1.5 1.3,-1.7 1.3,-1.7 m -122.6,185.9 1.3,-1.7 1.4,-1.9 1.3,-2 1.3,-2 1.4,-2.2 1.3,-2.3 1.4,-2.3 1.3,-2.5 1.3,-2.5 1.4,-2.7 1.3,-2.7 1.3,-2.8 1.4,-2.9 1.3,-2.9 1.4,-3 1.3,-3.1 1.3,-3.1 1.4,-3.2 1.3,-3.2 1.4,-3.3 1.3,-3.3 1.3,-3.3 1.4,-3.3 1.3,-3.4 1.3,-3.3 1.4,-3.4 1.3,-3.3 1.4,-3.4 1.3,-3.3 1.3,-3.2 1.4,-3.3 1.3,-3.2 1.4,-3.1 1.3,-3 1.3,-3.1 1.4,-3 1.3,-2.9 1.4,-2.8 1.3,-2.8 1.3,-2.7 1.4,-2.6 1.3,-2.5 1.3,-2.4 1.4,-2.3 1.3,-2.2 1.4,-2.1 1.3,-2 1.3,-1.9 1.4,-1.9 1.3,-1.7 1.4,-1.6 1.3,-1.4 1.3,-1.4 1.4,-1.3 1.3,-1.2 1.3,-1.1 1.4,-1 1.3,-0.9 1.4,-0.8 1.3,-0.8 1.3,-0.6 1.4,-0.6 1.3,-0.5 1.4,-0.4 1.3,-0.3 1.3,-0.3 1.4,-0.3 1.3,-0.2 1.4,-0.2 1.3,-0.1 1.3,-0.1 1.4,-0.1 1.3,-0.1 1.3,0 1.4,-0.1 1.3,0 1.4,-0.1 1.3,-0.1 1.3,-0.1 1.4,-0.2 1.3,-0.1 1.4,-0.3 1.3,-0.3 1.3,-0.3 1.4,-0.4 1.3,-0.4 1.3,-0.6 1.4,-0.6 1.3,-0.7 1.3,-0.7 1.3,-0.9 1.3,-0.9 1.4,-1.1 1.3,-1.1 1.4,-1.3 1.3,-1.3 1.3,-1.4 1.4,-1.6 1.3,-1.6 m -122.6,184.6 1.3,-1.8 1.4,-1.9 1.3,-2.1 1.3,-2.3 1.4,-2.4 1.3,-2.5 1.4,-2.7 1.3,-2.9 1.3,-3 1.4,-3.1 1.3,-3.2 1.3,-3.4 1.4,-3.5 1.3,-3.6 1.4,-3.7 1.3,-3.7 1.3,-3.9 1.4,-3.9 1.3,-4.1 1.4,-4 1.3,-4.1 1.3,-4.2 1.4,-4.1 1.3,-4.2 1.3,-4.2 1.4,-4.2 1.3,-4.2 1.4,-4.2 1.3,-4.1 1.3,-4.1 1.4,-4 1.3,-4 1.4,-3.8 1.3,-3.8 1.3,-3.8 1.4,-3.6 1.3,-3.6 1.4,-3.4 1.3,-3.3 1.3,-3.2 1.4,-3 1.3,-2.9 1.3,-2.8 1.4,-2.7 1.3,-2.4 1.4,-2.4 1.3,-2.1 1.3,-2.1 1.4,-1.8 1.3,-1.7 1.4,-1.6 1.3,-1.4 1.3,-1.2 1.4,-1.1 1.3,-0.9 1.3,-0.8 1.4,-0.6 1.3,-0.5 1.4,-0.3 1.3,-0.3 1.3,-0.1 1.4,0.1 1.3,0.1 1.4,0.2 1.3,0.3 1.3,0.5 1.4,0.5 1.3,0.5 1.4,0.7 1.3,0.6 1.3,0.8 1.4,0.7 1.3,0.8 1.3,0.8 1.4,0.8 1.3,0.8 1.4,0.7 1.3,0.8 1.3,0.7 1.4,0.6 1.3,0.6 1.4,0.6 1.2,0.4 1.3,0.4 1.4,0.3 1.3,0.2 1.3,0 1.4,0 1.3,-0.2 1.4,-0.2 1.3,-0.5 1.3,-0.5 1.4,-0.7 1.3,-0.9 1.4,-1 1.3,-1.1 1.3,-1.3 1.4,-1.5 1.3,-1.6 m -122.6,182.8 1.3,-1.8 1.4,-2 1.3,-2.2 1.3,-2.5 1.4,-2.6 1.3,-2.8 1.4,-3 1.3,-3.2 1.3,-3.3 1.4,-3.6 1.3,-3.7 1.3,-3.8 1.4,-4 1.3,-4.2 1.4,-4.2 1.3,-4.4 1.3,-4.5 1.4,-4.6 1.3,-4.7 1.4,-4.8 1.3,-4.8 1.3,-4.9 1.4,-4.9 1.3,-4.9 1.3,-4.9 1.4,-4.9 1.3,-5 1.4,-4.8 1.3,-4.9 1.3,-4.8 1.4,-4.7 1.3,-4.5 1.4,-4.6 1.3,-4.4 1.3,-4.4 1.4,-4.2 1.3,-4.1 1.4,-3.9 1.3,-3.8 1.3,-3.6 1.4,-3.4 1.3,-3.3 1.3,-3.1 1.4,-2.9 1.3,-2.7 1.4,-2.5 1.3,-2.3 1.3,-2.2 1.4,-1.9 1.3,-1.7 1.4,-1.5 1.3,-1.3 1.3,-1.1 1.4,-0.8 1.3,-0.7 1.3,-0.5 1.4,-0.4 1.3,-0.1 1.4,0 1.3,0.3 1.3,0.3 1.4,0.6 1.3,0.6 1.4,0.8 1.3,1 1.3,1 1.4,1.1 1.3,1.3 1.4,1.3 1.3,1.4 1.3,1.4 1.4,1.5 1.3,1.5 1.3,1.5 1.4,1.5 1.2,1.6 1.4,1.5 1.3,1.4 1.3,1.4 1.4,1.4 1.3,1.2 1.4,1.2 1.3,1.1 1.3,1 1.4,0.9 1.3,0.7 1.3,0.6 1.4,0.5 1.3,0.3 1.4,0.1 1.3,-0.1 1.3,-0.2 1.4,-0.4 1.3,-0.6 1.4,-0.8 1.3,-1 1.3,-1.2 1.4,-1.4 1.3,-1.6 h 0.01"
           id="path202" />
        <path
           style="fill:none;stroke:#ffc0cb;stroke-opacity:1"
           inkscape:connector-curvature="0"
           d="m 209.3,368.6 1.3,-1.9 1.4,-2 1.3,-2.3 1.3,-2.6 1.4,-2.7 1.3,-3.1 1.4,-3.2 1.3,-3.4 1.3,-3.7 1.4,-3.9 1.3,-4 1.3,-4.3 1.4,-4.4 1.3,-4.6 1.4,-4.7 1.3,-4.9 1.3,-5 1.4,-5.1 1.3,-5.2 1.4,-5.3 1.3,-5.4 1.3,-5.5 1.4,-5.4 1.3,-5.5 1.3,-5.5 1.4,-5.6 1.3,-5.5 1.4,-5.4 1.3,-5.4 1.3,-5.4 1.4,-5.2 1.3,-5.1 1.4,-5.1 1.3,-4.9 1.3,-4.8 1.4,-4.7 1.3,-4.5 1.4,-4.3 1.3,-4.2 1.3,-3.9 1.4,-3.8 1.3,-3.6 1.3,-3.3 1.4,-3.1 1.3,-2.9 1.4,-2.7 1.3,-2.4 1.3,-2.2 1.4,-1.9 1.3,-1.7 1.4,-1.5 1.3,-1.2 1.3,-1 1.4,-0.7 1.3,-0.6 1.4,-0.2 1.3,-0.1 1.3,0.1 1.4,0.4 1.3,0.6 1.3,0.7 1.4,0.9 1.3,1.1 1.4,1.3 1.3,1.4 1.3,1.5 1.4,1.7 1.2,1.7 1.4,1.9 1.3,1.9 1.3,2 1.4,2.1 1.3,2.1 1.3,2.1 1.4,2.1 1.3,2.1 1.4,2.1 1.3,2 1.3,2 1.4,1.9 1.3,1.8 1.4,1.7 1.3,1.6 1.3,1.4 1.4,1.4 1.3,1.2 1.4,1 1.3,0.8 1.3,0.7 1.4,0.4 1.3,0.3 1.3,0 1.4,-0.2 1.3,-0.4 1.4,-0.6 1.3,-0.9 1.3,-1.1 1.4,-1.3 1.3,-1.6 m -122.6,177.6 1.3,-1.8 1.4,-2.1 1.3,-2.4 1.3,-2.6 1.4,-2.9 1.3,-3.1 1.4,-3.4 1.3,-3.7 1.3,-3.8 1.4,-4.1 1.3,-4.3 1.3,-4.6 1.4,-4.7 1.3,-4.8 1.4,-5.1 1.3,-5.2 1.3,-5.4 1.4,-5.5 1.3,-5.5 1.4,-5.7 1.3,-5.8 1.3,-5.8 1.4,-5.9 1.3,-5.9 1.4,-5.9 1.3,-6 1.3,-5.8 1.4,-5.9 1.3,-5.8 1.3,-5.7 1.4,-5.7 1.3,-5.4 1.4,-5.4 1.3,-5.3 1.3,-5.2 1.4,-4.9 1.3,-4.8 1.4,-4.6 1.3,-4.5 1.3,-4.2 1.4,-3.9 1.3,-3.8 1.3,-3.5 1.4,-3.3 1.3,-3 1.4,-2.8 1.3,-2.5 1.3,-2.2 1.4,-2 1.3,-1.7 1.4,-1.4 1.3,-1.2 1.3,-0.9 1.4,-0.6 1.3,-0.4 1.4,-0.2 1.3,0.2 1.3,0.3 1.4,0.6 1.3,0.8 1.2,1 1.4,1.2 1.3,1.4 1.4,1.5 1.3,1.8 1.3,1.9 1.4,2 1.3,2.1 1.4,2.2 1.3,2.4 1.3,2.3 1.4,2.5 1.3,2.5 1.3,2.5 1.4,2.5 1.3,2.5 1.4,2.5 1.3,2.4 1.3,2.4 1.4,2.2 1.3,2.2 1.4,2.1 1.3,1.9 1.3,1.9 1.4,1.6 1.3,1.5 1.4,1.3 1.3,1.1 1.3,0.9 1.4,0.7 1.3,0.4 1.3,0.3 1.4,0 1.3,-0.3 1.4,-0.5 1.3,-0.8 1.3,-1 1.4,-1.3 1.3,-1.6 m -122.6,174.5 1.3,-1.8 1.4,-2.1 1.3,-2.5 1.3,-2.6 1.4,-3 1.3,-3.2 1.4,-3.5 1.3,-3.7 1.3,-4 1.4,-4.2 1.3,-4.4 1.3,-4.7 1.4,-4.8 1.3,-5.1 1.4,-5.2 1.3,-5.4 1.3,-5.5 1.4,-5.7 1.3,-5.8 1.4,-5.9 1.3,-5.9 1.3,-6.1 1.4,-6 1.3,-6.1 1.4,-6.2 1.3,-6.1 1.3,-6.1 1.4,-6.1 1.3,-6 1.3,-5.9 1.4,-5.8 1.3,-5.6 1.4,-5.6 1.3,-5.5 1.3,-5.3 1.4,-5.2 1.3,-4.9 1.4,-4.8 1.3,-4.5 1.3,-4.3 1.4,-4.1 1.3,-3.9 1.3,-3.6 1.4,-3.3 1.3,-3.1 1.4,-2.8 1.3,-2.6 1.3,-2.2 1.4,-2 1.3,-1.7 1.4,-1.4 1.3,-1.2 1.3,-0.9 1.3,-0.5 1.3,-0.4 1.4,0 1.3,0.2 1.3,0.4 1.4,0.7 1.3,0.9 1.3,1.2 1.4,1.3 1.3,1.6 1.4,1.7 1.3,1.9 1.3,2 1.4,2.2 1.3,2.4 1.4,2.4 1.3,2.5 1.3,2.6 1.4,2.6 1.3,2.7 1.3,2.8 1.4,2.7 1.3,2.7 1.4,2.7 1.3,2.6 1.3,2.5 1.4,2.5 1.3,2.4 1.4,2.2 1.3,2.2 1.3,2 1.4,1.8 1.3,1.6 1.4,1.5 1.3,1.2 1.3,1 1.4,0.8 1.3,0.6 1.3,0.3 1.4,0.1 1.3,-0.2 1.4,-0.4 1.3,-0.8 1.3,-1 1.4,-1.3 1.3,-1.5 m -122.6,171.2 1.3,-1.8 1.4,-2.1 1.3,-2.4 1.3,-2.7 1.4,-3 1.3,-3.2 1.4,-3.5 1.3,-3.7 1.3,-4 1.4,-4.2 1.3,-4.4 1.3,-4.7 1.4,-4.8 1.3,-5.1 1.4,-5.2 1.3,-5.4 1.3,-5.5 1.4,-5.7 1.3,-5.8 1.4,-5.8 1.3,-6 1.3,-6 1.4,-6.1 1.3,-6.1 1.4,-6.2 1.3,-6.1 1.3,-6.1 1.4,-6 1.3,-6 1.3,-6 1.4,-5.8 1.3,-5.7 1.4,-5.5 1.3,-5.5 1.3,-5.3 1.4,-5.1 1.3,-5 1.4,-4.7 1.3,-4.6 1.3,-4.3 1.4,-4.1 1.3,-3.9 1.3,-3.6 1.4,-3.3 1.3,-3.1 1.3,-2.8 1.3,-2.6 1.3,-2.2 1.4,-2 1.3,-1.7 1.4,-1.4 1.3,-1.2 1.3,-0.8 1.4,-0.6 1.3,-0.4 1.4,0 1.3,0.2 1.3,0.4 1.4,0.7 1.3,0.9 1.3,1.2 1.4,1.3 1.3,1.6 1.4,1.7 1.3,1.9 1.3,2 1.4,2.2 1.3,2.4 1.4,2.4 1.3,2.5 1.3,2.6 1.4,2.7 1.3,2.6 1.3,2.8 1.4,2.7 1.3,2.7 1.4,2.7 1.3,2.6 1.3,2.5 1.4,2.5 1.3,2.4 1.4,2.3 1.3,2.1 1.3,2 1.4,1.8 1.3,1.6 1.4,1.5 1.3,1.2 1.3,1 1.4,0.8 1.3,0.6 1.3,0.3 1.4,0.1 1.3,-0.2 1.4,-0.4 1.3,-0.8 1.3,-1 1.4,-1.3 1.3,-1.5 m -122.6,168 1.3,-1.9 1.4,-2.1 1.3,-2.3 1.3,-2.7 1.4,-2.9 1.3,-3.1 1.4,-3.4 1.3,-3.6 1.3,-3.9 1.4,-4.1 1.3,-4.3 1.3,-4.5 1.4,-4.7 1.3,-4.9 1.4,-5.1 1.3,-5.2 1.3,-5.3 1.4,-5.5 1.3,-5.6 1.4,-5.7 1.3,-5.8 1.3,-5.8 1.4,-5.9 1.3,-5.9 1.4,-5.9 1.3,-5.9 1.3,-5.9 1.4,-5.9 1.3,-5.8 1.3,-5.7 1.4,-5.6 1.3,-5.6 1.4,-5.3 1.3,-5.3 1.3,-5.1 1.4,-5 1.3,-4.8 1.4,-4.6 1.2,-4.4 1.3,-4.2 1.4,-4 1.3,-3.8 1.3,-3.5 1.4,-3.2 1.3,-3.1 1.4,-2.7 1.3,-2.5 1.3,-2.3 1.4,-1.9 1.3,-1.7 1.4,-1.5 1.3,-1.1 1.3,-1 1.4,-0.6 1.3,-0.4 1.4,-0.1 1.3,0.1 1.3,0.3 1.4,0.6 1.3,0.8 1.3,1 1.4,1.2 1.3,1.4 1.4,1.6 1.3,1.7 1.3,1.9 1.4,2 1.3,2.1 1.4,2.3 1.3,2.3 1.3,2.4 1.4,2.4 1.3,2.5 1.3,2.5 1.4,2.5 1.3,2.5 1.4,2.5 1.3,2.4 1.3,2.4 1.4,2.3 1.3,2.2 1.4,2 1.3,2 1.3,1.8 1.4,1.6 1.3,1.5 1.4,1.3 1.3,1.1 1.3,0.9 1.4,0.7 1.3,0.5 1.3,0.2 1.4,0 1.3,-0.3 1.4,-0.5 1.3,-0.8 1.3,-1 1.4,-1.3 1.3,-1.6 m -122.6,164.9 1.3,-1.8 1.4,-2.1 1.3,-2.3 1.3,-2.5 1.4,-2.8 1.3,-3 1.4,-3.2 1.3,-3.5 1.3,-3.6 1.4,-3.9 1.3,-4.1 1.3,-4.2 1.4,-4.4 1.3,-4.6 1.4,-4.8 1.3,-4.8 1.3,-5 1.4,-5.2 1.3,-5.2 1.4,-5.3 1.3,-5.4 1.3,-5.4 1.4,-5.5 1.3,-5.5 1.4,-5.5 1.3,-5.5 1.3,-5.5 1.4,-5.4 1.3,-5.5 1.3,-5.3 1.4,-5.3 1.2,-5.1 1.4,-5.1 1.3,-4.8 1.3,-4.9 1.4,-4.6 1.3,-4.5 1.4,-4.4 1.3,-4.1 1.3,-4 1.4,-3.7 1.3,-3.6 1.3,-3.3 1.4,-3.2 1.3,-2.8 1.4,-2.7 1.3,-2.4 1.3,-2.2 1.4,-2 1.3,-1.7 1.4,-1.4 1.3,-1.3 1.3,-0.9 1.4,-0.8 1.3,-0.5 1.4,-0.3 1.3,0 1.3,0.1 1.4,0.4 1.3,0.5 1.3,0.8 1.4,0.9 1.3,1.1 1.4,1.2 1.3,1.4 1.3,1.6 1.4,1.6 1.3,1.8 1.4,1.9 1.3,1.9 1.3,2 1.4,2.1 1.3,2 1.4,2.1 1.3,2.1 1.3,2.1 1.4,2.1 1.3,2 1.3,2 1.4,1.9 1.3,1.8 1.4,1.7 1.3,1.6 1.3,1.5 1.4,1.3 1.3,1.2 1.4,1 1.3,0.9 1.3,0.6 1.4,0.5 1.3,0.2 1.3,0.1 1.4,-0.2 1.3,-0.4 1.4,-0.6 1.3,-0.9 1.3,-1.1 1.4,-1.3 1.3,-1.6 h 0.01"
           id="path204" />
        <path
           style="fill:none;stroke:#ffc0cb;stroke-opacity:1"
           inkscape:connector-curvature="0"
           d="m 268.1,375.7 1.3,-1.8 1.4,-2.1 1.3,-2.2 1.3,-2.4 1.4,-2.6 1.3,-2.8 1.4,-3 1.3,-3.2 1.3,-3.3 1.4,-3.6 1.3,-3.7 1.4,-3.8 1.3,-4 1.3,-4.2 1.4,-4.3 1.3,-4.4 1.3,-4.5 1.4,-4.6 1.3,-4.6 1.4,-4.8 1.3,-4.8 1.3,-4.9 1.4,-4.9 1.2,-4.9 1.4,-4.9 1.3,-5 1.3,-4.9 1.4,-4.9 1.3,-4.8 1.3,-4.8 1.4,-4.7 1.3,-4.7 1.4,-4.5 1.3,-4.4 1.3,-4.4 1.4,-4.1 1.3,-4.1 1.4,-3.9 1.3,-3.8 1.3,-3.6 1.4,-3.5 1.3,-3.2 1.4,-3.1 1.3,-2.9 1.3,-2.7 1.4,-2.5 1.3,-2.4 1.3,-2.1 1.4,-1.9 1.3,-1.7 1.4,-1.5 1.3,-1.3 1.3,-1.1 1.4,-0.9 1.3,-0.7 1.4,-0.5 1.3,-0.3 1.3,-0.1 1.4,0 1.3,0.2 1.3,0.4 1.4,0.5 1.3,0.7 1.4,0.8 1.3,0.9 1.3,1.1 1.4,1.1 1.3,1.3 1.4,1.3 1.3,1.4 1.3,1.4 1.4,1.5 1.3,1.5 1.4,1.5 1.3,1.5 1.3,1.5 1.4,1.5 1.3,1.5 1.3,1.4 1.4,1.3 1.3,1.3 1.4,1.2 1.3,1.1 1.3,1 1.4,0.9 1.3,0.7 1.4,0.6 1.3,0.4 1.3,0.3 1.4,0.2 1.3,-0.1 1.3,-0.2 1.4,-0.4 1.3,-0.6 1.4,-0.8 1.3,-1 1.3,-1.2 1.4,-1.4 1.3,-1.6 m -122.6,159.7 1.3,-1.8 1.4,-1.9 1.3,-2.1 1.3,-2.3 1.4,-2.4 1.3,-2.5 1.4,-2.7 1.3,-2.9 1.3,-3 1.4,-3.1 1.3,-3.2 1.4,-3.4 1.3,-3.5 1.3,-3.6 1.4,-3.7 1.3,-3.7 1.2,-3.9 1.4,-3.9 1.3,-4 1.4,-4.1 1.3,-4.1 1.3,-4.2 1.4,-4.1 1.3,-4.2 1.4,-4.2 1.3,-4.2 1.3,-4.2 1.4,-4.2 1.3,-4.1 1.3,-4.1 1.4,-4 1.3,-4 1.4,-3.9 1.3,-3.8 1.3,-3.8 1.4,-3.6 1.3,-3.6 1.4,-3.4 1.3,-3.2 1.3,-3.2 1.4,-3 1.3,-2.9 1.4,-2.8 1.3,-2.7 1.3,-2.4 1.4,-2.4 1.3,-2.1 1.3,-2.1 1.4,-1.8 1.3,-1.7 1.4,-1.6 1.3,-1.4 1.3,-1.2 1.4,-1.1 1.3,-0.9 1.4,-0.8 1.3,-0.6 1.3,-0.5 1.4,-0.3 1.3,-0.3 1.3,-0.1 1.4,0.1 1.3,0.1 1.4,0.2 1.3,0.4 1.3,0.4 1.4,0.5 1.3,0.5 1.4,0.7 1.3,0.6 1.3,0.8 1.4,0.7 1.3,0.8 1.4,0.8 1.3,0.8 1.3,0.8 1.4,0.7 1.3,0.8 1.3,0.7 1.4,0.6 1.3,0.6 1.4,0.6 1.3,0.4 1.3,0.4 1.4,0.3 1.3,0.2 1.4,0 1.3,0 1.3,-0.2 1.4,-0.2 1.3,-0.5 1.3,-0.5 1.4,-0.7 1.3,-0.9 1.4,-1 1.3,-1.1 1.3,-1.3 1.4,-1.5 1.3,-1.6 m -122.6,157.8 1.3,-1.7 1.4,-1.9 1.3,-1.9 1.3,-2.1 1.4,-2.2 1.3,-2.2 1.4,-2.4 1.3,-2.5 1.3,-2.5 1.3,-2.6 1.3,-2.8 1.4,-2.8 1.3,-2.8 1.3,-3 1.4,-3 1.3,-3.1 1.3,-3.1 1.4,-3.2 1.3,-3.2 1.4,-3.3 1.3,-3.3 1.3,-3.3 1.4,-3.3 1.3,-3.4 1.4,-3.3 1.3,-3.4 1.3,-3.3 1.4,-3.3 1.3,-3.3 1.3,-3.3 1.4,-3.2 1.3,-3.2 1.4,-3.2 1.3,-3.1 1.3,-3.1 1.4,-2.9 1.3,-2.9 1.4,-2.9 1.3,-2.7 1.3,-2.7 1.4,-2.6 1.3,-2.5 1.4,-2.4 1.3,-2.3 1.3,-2.2 1.4,-2.1 1.3,-2 1.3,-1.9 1.4,-1.8 1.3,-1.7 1.4,-1.6 1.3,-1.5 1.3,-1.4 1.4,-1.3 1.3,-1.2 1.4,-1.1 1.3,-1 1.3,-0.9 1.4,-0.8 1.3,-0.7 1.3,-0.7 1.4,-0.5 1.3,-0.5 1.4,-0.5 1.3,-0.3 1.3,-0.3 1.4,-0.3 1.3,-0.2 1.4,-0.1 1.3,-0.2 1.3,-0.1 1.4,-0.1 1.3,0 1.4,-0.1 1.3,0 1.3,-0.1 1.4,-0.1 1.3,-0.1 1.3,-0.1 1.4,-0.1 1.3,-0.2 1.4,-0.2 1.3,-0.3 1.3,-0.4 1.4,-0.3 1.3,-0.5 1.4,-0.5 1.3,-0.6 1.3,-0.7 1.4,-0.8 1.3,-0.9 1.3,-0.9 1.4,-1 1.3,-1.2 1.4,-1.2 1.3,-1.4 1.3,-1.4 1.4,-1.6 1.3,-1.6 m -122.6,156.6 1.3,-1.7 1.3,-1.8 1.3,-1.8 1.3,-1.8 1.4,-1.9 1.3,-2 1.4,-2 1.3,-2 1.3,-2.1 1.4,-2.1 1.3,-2.1 1.4,-2.2 1.3,-2.2 1.3,-2.3 1.4,-2.3 1.3,-2.3 1.3,-2.3 1.4,-2.4 1.3,-2.3 1.4,-2.4 1.3,-2.4 1.3,-2.4 1.4,-2.4 1.3,-2.4 1.4,-2.5 1.3,-2.4 1.3,-2.4 1.4,-2.4 1.3,-2.4 1.3,-2.4 1.4,-2.4 1.3,-2.3 1.4,-2.4 1.3,-2.3 1.3,-2.3 1.4,-2.3 1.3,-2.2 1.4,-2.2 1.3,-2.2 1.3,-2.1 1.4,-2.1 1.3,-2 1.4,-2 1.3,-2 1.3,-1.9 1.4,-1.9 1.3,-1.9 1.3,-1.8 1.4,-1.7 1.3,-1.7 1.4,-1.7 1.3,-1.6 1.3,-1.5 1.4,-1.5 1.3,-1.5 1.4,-1.4 1.3,-1.4 1.3,-1.3 1.4,-1.3 1.3,-1.3 1.3,-1.3 1.4,-1.2 1.3,-1.1 1.4,-1.2 1.3,-1.1 1.3,-1.1 1.4,-1.1 1.3,-1 1.4,-1.1 1.3,-1 1.3,-1 1.4,-1 1.3,-1 1.4,-0.9 1.3,-1 1.3,-1 1.4,-1 1.3,-1 1.3,-1 1.4,-1 1.3,-1.1 1.4,-1 1.3,-1.1 1.3,-1.1 1.4,-1.1 1.3,-1.2 1.4,-1.2 1.3,-1.2 1.3,-1.3 1.4,-1.3 1.3,-1.3 1.3,-1.4 1.4,-1.4 1.3,-1.5 1.4,-1.5 1.3,-1.5 1.3,-1.6 1.4,-1.6 1.3,-1.7 m -122.7,156.1 1.3,-1.7 1.4,-1.7 1.3,-1.6 1.3,-1.7 1.4,-1.6 1.3,-1.6 1.4,-1.6 1.3,-1.6 1.3,-1.6 1.4,-1.6 1.3,-1.5 1.4,-1.6 1.3,-1.5 1.3,-1.5 1.4,-1.5 1.3,-1.5 1.3,-1.5 1.4,-1.5 1.3,-1.5 1.4,-1.5 1.3,-1.5 1.3,-1.4 1.4,-1.5 1.3,-1.5 1.4,-1.4 1.3,-1.5 1.3,-1.4 1.4,-1.5 1.3,-1.5 1.3,-1.5 1.4,-1.4 1.3,-1.5 1.4,-1.5 1.3,-1.5 1.3,-1.5 1.4,-1.5 1.3,-1.6 1.4,-1.5 1.3,-1.5 1.3,-1.6 1.4,-1.6 1.3,-1.6 1.4,-1.6 1.3,-1.6 1.3,-1.6 1.4,-1.6 1.3,-1.7 1.3,-1.7 1.4,-1.7 1.3,-1.7 1.4,-1.7 1.3,-1.7 1.3,-1.8 1.4,-1.7 1.3,-1.8 1.4,-1.8 1.3,-1.8 1.3,-1.8 1.4,-1.9 1.3,-1.8 1.3,-1.9 1.4,-1.8 1.3,-1.8 1.4,-1.9 1.3,-1.9 1.3,-1.9 1.4,-1.9 1.3,-2 1.4,-1.9 1.3,-1.9 1.3,-2 1.4,-1.9 1.3,-1.9 1.4,-2 1.3,-1.9 1.3,-2 1.4,-1.9 1.3,-2 1.3,-1.9 1.4,-1.9 1.3,-1.9 1.4,-2 1.3,-1.9 1.3,-1.9 1.4,-1.9 1.3,-1.9 1.4,-1.8 1.3,-1.9 1.3,-1.9 1.4,-1.8 1.3,-1.8 1.4,-1.8 1.3,-1.8 1.3,-1.8 1.4,-1.8 1.3,-1.8 1.3,-1.7 1.4,-1.7 1.3,-1.7 M 317,319.6 l 1.3,-1.7 1.4,-1.6 1.3,-1.5 1.3,-1.4 1.4,-1.4 1.3,-1.3 1.4,-1.2 1.3,-1.2 1.3,-1.1 1.4,-1 1.3,-1 1.4,-0.9 1.3,-0.8 1.3,-0.9 1.4,-0.7 1.3,-0.7 1.3,-0.7 1.4,-0.6 1.3,-0.6 1.4,-0.6 1.3,-0.6 1.3,-0.5 1.4,-0.5 1.3,-0.6 1.4,-0.5 1.3,-0.5 1.3,-0.5 1.4,-0.5 1.3,-0.6 1.4,-0.5 1.3,-0.6 1.3,-0.7 1.4,-0.6 1.3,-0.7 1.3,-0.7 1.4,-0.8 1.3,-0.8 1.4,-0.9 1.3,-1 1.3,-1 1.4,-1 1.3,-1.2 1.4,-1.1 1.3,-1.3 1.3,-1.3 1.4,-1.4 1.3,-1.5 1.3,-1.6 1.4,-1.6 1.3,-1.7 1.4,-1.8 1.3,-1.8 1.3,-2 1.4,-2 1.3,-2 1.4,-2.2 1.3,-2.2 1.3,-2.3 1.4,-2.3 1.3,-2.4 1.4,-2.5 1.3,-2.5 1.3,-2.6 1.4,-2.6 1.3,-2.7 1.3,-2.7 1.4,-2.8 1.3,-2.7 1.4,-2.8 1.3,-2.8 1.3,-2.9 1.4,-2.9 1.3,-2.8 1.4,-2.9 1.3,-2.9 1.3,-2.9 1.4,-2.9 1.3,-2.9 1.3,-2.8 1.4,-2.9 1.3,-2.8 1.4,-2.7 1.3,-2.8 1.3,-2.7 1.4,-2.6 1.3,-2.6 1.4,-2.6 1.3,-2.5 1.3,-2.4 1.4,-2.4 1.3,-2.3 1.4,-2.2 1.3,-2.2 1.3,-2.1 1.4,-2.1 1.3,-1.9 1.3,-1.9 1.4,-1.8 1.3,-1.8 h 0.01"
           id="path206" />
        <path
           style="fill:none;stroke:#ffc0cb;stroke-opacity:1"
           inkscape:connector-curvature="0"
           d="m 326.8,308.2 1.3,-1.6 1.4,-1.5 1.3,-1.4 1.3,-1.3 1.4,-1.1 1.3,-1 1.4,-0.8 1.3,-0.8 1.3,-0.6 1.4,-0.5 1.3,-0.5 1.4,-0.3 1.3,-0.2 1.3,-0.1 1.4,-0.1 1.3,0.1 1.3,0.1 1.4,0.1 1.3,0.2 1.4,0.3 1.3,0.3 1.3,0.4 1.4,0.3 1.3,0.4 1.4,0.4 1.3,0.3 1.3,0.4 1.4,0.4 1.3,0.3 1.4,0.3 1.3,0.2 1.3,0.2 1.4,0.1 1.3,0.1 1.3,0 1.4,-0.1 1.3,-0.2 1.4,-0.2 1.3,-0.4 1.3,-0.5 1.4,-0.5 1.3,-0.7 1.4,-0.8 1.3,-1 1.3,-1 1.4,-1.2 1.3,-1.3 1.3,-1.4 1.4,-1.6 1.3,-1.7 1.4,-1.9 1.3,-1.9 1.3,-2.1 1.4,-2.2 1.3,-2.4 1.4,-2.5 1.3,-2.6 1.3,-2.7 1.4,-2.8 1.3,-3 1.4,-3 1.3,-3.1 1.3,-3.3 1.4,-3.3 1.3,-3.4 1.3,-3.5 1.4,-3.5 1.3,-3.6 1.4,-3.7 1.3,-3.6 1.3,-3.7 1.4,-3.7 1.3,-3.8 1.4,-3.8 1.3,-3.8 1.3,-3.8 1.4,-3.7 1.3,-3.8 1.3,-3.7 1.4,-3.7 1.3,-3.6 1.4,-3.6 1.3,-3.5 1.3,-3.4 1.4,-3.4 1.3,-3.2 1.4,-3.2 1.3,-3.1 1.3,-3 1.4,-2.9 1.3,-2.8 1.4,-2.6 1.3,-2.6 1.3,-2.4 1.4,-2.3 1.3,-2.1 1.3,-2.1 1.4,-1.9 1.3,-1.8 m -122.7,158.8 1.3,-1.7 1.4,-1.4 1.3,-1.2 1.3,-1.1 1.4,-0.9 1.3,-0.7 1.4,-0.6 1.3,-0.3 1.3,-0.3 1.4,0 1.3,0 1.4,0.3 1.3,0.3 1.3,0.5 1.4,0.6 1.3,0.7 1.3,0.8 1.4,0.8 1.3,1 1.4,1 1.3,1.1 1.3,1.1 1.4,1.1 1.3,1.2 1.4,1.2 1.3,1.2 1.3,1.1 1.4,1.1 1.3,1.1 1.4,1.1 1.3,1 1.3,0.9 1.4,0.8 1.3,0.8 1.3,0.6 1.4,0.5 1.3,0.5 1.4,0.2 1.3,0.2 1.3,0 1.4,-0.2 1.3,-0.3 1.4,-0.4 1.3,-0.7 1.3,-0.8 1.4,-0.9 1.3,-1.2 1.3,-1.3 1.4,-1.6 1.3,-1.7 1.4,-1.8 1.3,-2.1 1.3,-2.3 1.4,-2.4 1.3,-2.6 1.4,-2.8 1.3,-2.9 1.3,-3.1 1.4,-3.3 1.3,-3.4 1.4,-3.5 1.3,-3.7 1.3,-3.9 1.4,-3.9 1.3,-4 1.3,-4.2 1.4,-4.2 1.3,-4.4 1.4,-4.3 1.3,-4.5 1.3,-4.5 1.4,-4.4 1.3,-4.6 1.4,-4.6 1.3,-4.6 1.3,-4.6 1.4,-4.5 1.3,-4.5 1.3,-4.5 1.4,-4.4 1.3,-4.4 1.4,-4.3 1.3,-4.2 1.3,-4.1 1.4,-4 1.3,-3.9 1.4,-3.7 1.3,-3.6 1.3,-3.5 1.4,-3.4 1.3,-3.1 1.4,-3.1 1.3,-2.8 1.3,-2.7 1.4,-2.5 1.3,-2.4 1.3,-2.1 1.4,-2 1.3,-1.8 m -122.7,160.8 1.3,-1.5 1.4,-1.4 1.3,-1.2 1.3,-0.9 1.4,-0.7 1.3,-0.5 1.4,-0.3 1.3,0 1.3,0.1 1.4,0.3 1.3,0.5 1.4,0.6 1.3,0.8 1.3,1 1.4,1.1 1.3,1.3 1.3,1.3 1.4,1.5 1.3,1.6 1.4,1.6 1.3,1.7 1.3,1.8 1.4,1.8 1.3,1.8 1.4,1.9 1.3,1.8 1.3,1.8 1.4,1.8 1.3,1.7 1.4,1.7 1.3,1.6 1.3,1.5 1.4,1.5 1.3,1.3 1.3,1.1 1.4,1.1 1.3,0.9 1.4,0.7 1.3,0.6 1.3,0.4 1.4,0.2 1.3,0 1.4,-0.2 1.3,-0.3 1.3,-0.6 1.4,-0.9 1.3,-1 1.3,-1.2 1.4,-1.5 1.3,-1.7 1.4,-2 1.3,-2.1 1.3,-2.4 1.4,-2.6 1.3,-2.8 1.4,-3 1.3,-3.2 1.3,-3.5 1.4,-3.6 1.3,-3.8 1.4,-4 1.3,-4.1 1.3,-4.3 1.4,-4.5 1.3,-4.6 1.3,-4.7 1.4,-4.8 1.3,-4.9 1.4,-5 1.3,-5.1 1.3,-5.2 1.4,-5.2 1.3,-5.1 1.4,-5.2 1.3,-5.3 1.3,-5.2 1.4,-5.2 1.3,-5.2 1.3,-5.1 1.4,-5 1.3,-5 1.4,-4.9 1.3,-4.8 1.3,-4.6 1.4,-4.5 1.3,-4.4 1.4,-4.2 1.3,-4.1 1.3,-3.9 1.4,-3.7 1.3,-3.5 1.4,-3.4 1.3,-3.1 1.3,-2.9 1.4,-2.7 1.3,-2.5 1.3,-2.2 1.4,-2.1 1.3,-1.8 m -122.7,163.4 1.3,-1.5 1.4,-1.4 1.3,-1 1.3,-0.8 1.4,-0.6 1.3,-0.3 1.4,-0.1 1.3,0.1 1.3,0.4 1.4,0.6 1.3,0.8 1.4,1 1.3,1.2 1.3,1.3 1.4,1.5 1.3,1.7 1.3,1.8 1.4,1.9 1.3,2 1.4,2.1 1.3,2.2 1.3,2.2 1.4,2.3 1.3,2.4 1.4,2.3 1.3,2.3 1.3,2.3 1.4,2.3 1.3,2.2 1.4,2.2 1.3,2 1.3,2 1.4,1.9 1.3,1.7 1.3,1.6 1.4,1.4 1.3,1.3 1.4,1.1 1.3,0.9 1.3,0.6 1.4,0.5 1.3,0.3 1.4,0 1.3,-0.2 1.3,-0.4 1.4,-0.7 1.3,-1 1.3,-1.2 1.4,-1.4 1.3,-1.7 1.4,-2 1.3,-2.2 1.3,-2.4 1.4,-2.8 1.3,-2.9 1.4,-3.2 1.3,-3.5 1.3,-3.6 1.4,-3.9 1.3,-4.1 1.4,-4.3 1.3,-4.5 1.3,-4.7 1.4,-4.8 1.3,-5 1.3,-5.1 1.4,-5.3 1.3,-5.4 1.4,-5.5 1.3,-5.5 1.3,-5.6 1.4,-5.7 1.3,-5.6 1.4,-5.8 1.3,-5.7 1.3,-5.7 1.4,-5.7 1.3,-5.7 1.3,-5.6 1.4,-5.5 1.3,-5.4 1.4,-5.4 1.3,-5.2 1.3,-5 1.4,-5 1.3,-4.7 1.4,-4.6 1.3,-4.4 1.3,-4.2 1.4,-4 1.3,-3.8 1.4,-3.5 1.3,-3.3 1.3,-3.1 1.4,-2.9 1.3,-2.5 1.3,-2.4 1.4,-2.1 1.3,-1.8 M 366,283.4 l 1.3,-1.6 1.4,-1.2 1.3,-1.1 1.3,-0.7 1.4,-0.5 1.3,-0.2 1.4,0 1.3,0.3 1.3,0.5 1.4,0.8 1.3,1 1.4,1.2 1.3,1.4 1.3,1.6 1.4,1.7 1.3,1.9 1.4,2.1 1.3,2.2 1.3,2.3 1.4,2.4 1.3,2.5 1.3,2.5 1.4,2.6 1.3,2.6 1.4,2.7 1.3,2.6 1.3,2.6 1.4,2.6 1.3,2.5 1.4,2.5 1.3,2.3 1.3,2.3 1.4,2.1 1.3,2 1.3,1.8 1.4,1.7 1.3,1.5 1.4,1.3 1.3,1.1 1.3,0.8 1.4,0.7 1.3,0.4 1.4,0.2 1.3,-0.1 1.3,-0.4 1.4,-0.6 1.3,-0.9 1.4,-1.1 1.3,-1.5 1.3,-1.7 1.4,-1.9 1.3,-2.3 1.3,-2.5 1.4,-2.8 1.3,-3.1 1.4,-3.3 1.3,-3.6 1.3,-3.8 1.4,-4 1.3,-4.3 1.4,-4.5 1.3,-4.7 1.3,-4.9 1.4,-5.1 1.3,-5.2 1.3,-5.4 1.4,-5.5 1.3,-5.7 1.4,-5.8 1.3,-5.8 1.3,-5.9 1.4,-6 1.3,-6 1.4,-6 1.3,-6 1.3,-6.1 1.4,-6 1.3,-5.9 1.4,-5.9 1.3,-5.8 1.3,-5.7 1.4,-5.6 1.3,-5.5 1.3,-5.3 1.4,-5.2 1.3,-5 1.4,-4.8 1.3,-4.6 1.3,-4.4 1.4,-4.1 1.3,-4 1.4,-3.7 1.3,-3.4 1.3,-3.2 1.4,-2.9 1.3,-2.7 1.3,-2.4 1.4,-2.1 1.3,-1.8 m -122.7,169.6 1.3,-1.6 1.4,-1.3 1.3,-1 1.3,-0.7 1.4,-0.4 1.3,-0.2 1.4,0.1 1.3,0.3 1.3,0.6 1.4,0.8 1.3,1 1.4,1.3 1.3,1.5 1.3,1.6 1.4,1.9 1.3,2 1.4,2.1 1.3,2.3 1.3,2.4 1.4,2.5 1.3,2.6 1.3,2.6 1.4,2.7 1.3,2.8 1.4,2.7 1.3,2.8 1.3,2.7 1.4,2.7 1.3,2.6 1.4,2.5 1.3,2.5 1.3,2.3 1.4,2.2 1.3,2.1 1.3,1.9 1.4,1.8 1.3,1.5 1.4,1.4 1.3,1.2 1.3,0.9 1.4,0.7 1.3,0.5 1.4,0.2 1.3,-0.1 1.3,-0.3 1.4,-0.6 1.3,-0.8 1.4,-1.2 1.3,-1.4 1.3,-1.7 1.4,-2 1.3,-2.3 1.3,-2.5 1.4,-2.8 1.3,-3.1 1.4,-3.4 1.3,-3.6 1.3,-3.9 1.4,-4.1 1.3,-4.3 1.4,-4.6 1.3,-4.7 1.3,-5 1.4,-5.2 1.3,-5.3 1.3,-5.5 1.4,-5.6 1.3,-5.8 1.4,-5.8 1.3,-6 1.3,-6 1.4,-6.1 1.3,-6.1 1.4,-6.1 1.3,-6.1 1.3,-6.1 1.4,-6.2 1.3,-6 1.4,-6 1.3,-5.9 1.3,-5.8 1.4,-5.7 1.3,-5.6 1.3,-5.4 1.4,-5.2 1.3,-5.1 1.4,-4.9 1.3,-4.6 1.3,-4.5 1.4,-4.2 1.3,-4 1.4,-3.7 1.3,-3.5 1.3,-3.2 1.4,-3 1.3,-2.7 1.3,-2.4 1.4,-2.1 1.3,-1.9 h 0.01"
           id="path208" />
      </g>
    </g>
    <g
       transform="translate(110,220.93361)"
       style="color:#000000;fill:none;stroke:#ffffff;stroke-width:1;stroke-linecap:butt;stroke-linejoin:miter"
       id="g210">
      <path
         style="stroke:#ffffff"
         inkscape:connector-curvature="0"
         d="M 508.3,256.1 375.8,424.7 m -284.1,-78.6 284.1,78.6 0,-140.2 h 0.01"
         id="path212" />
    </g>
    <g
       transform="translate(110,220.93361)"
       style="color:#808080;fill:none;stroke:#ffffff;stroke-width:1;stroke-linecap:butt;stroke-linejoin:miter"
       id="g214">
      <path
         style="stroke:#ffffff"
         inkscape:connector-curvature="0"
         d="M 233.8,385.4 366.2,216.8 m -66.2,84.3 0,-140.2 m -142.1,100.8 284.2,78.7 h 0.01"
         id="path216" />
    </g>
    <path
       inkscape:connector-curvature="0"
       id="path4441"
       d="M 527.29963,313.94068 415.1727,380.61074"
       style="fill:none;stroke:#add8e6;stroke-width:2;stroke-linecap:butt;stroke-linejoin:miter;stroke-miterlimit:4;stroke-opacity:1;stroke-dasharray:none;marker-end:url(#Arrow1Lendw)" />
  </g>
</svg>
