<?xml version="1.0" encoding="UTF-8" standalone="no"?>
<!-- Created with Inkscape (http://www.inkscape.org/) -->

<svg
   xmlns:dc="http://purl.org/dc/elements/1.1/"
   xmlns:cc="http://creativecommons.org/ns#"
   xmlns:rdf="http://www.w3.org/1999/02/22-rdf-syntax-ns#"
   xmlns:svg="http://www.w3.org/2000/svg"
   xmlns="http://www.w3.org/2000/svg"
   xmlns:xlink="http://www.w3.org/1999/xlink"
   xmlns:sodipodi="http://sodipodi.sourceforge.net/DTD/sodipodi-0.dtd"
   xmlns:inkscape="http://www.inkscape.org/namespaces/inkscape"
   width="210mm"
   height="297mm"
   id="svg3319"
   version="1.1"
   inkscape:version="0.48.3.1 r9886"
   sodipodi:docname="新規ドキュメント 2">
  <sodipodi:namedview
     id="base"
     pagecolor="#000000"
     bordercolor="#666666"
     borderopacity="1.0"
     inkscape:pageopacity="0"
     inkscape:pageshadow="2"
     inkscape:zoom="1.5400484"
     inkscape:cx="396.93763"
     inkscape:cy="582.77009"
     inkscape:document-units="px"
     inkscape:current-layer="layer1"
     showgrid="false"
     inkscape:window-width="1366"
     inkscape:window-height="746"
     inkscape:window-x="0"
     inkscape:window-y="22"
     inkscape:window-maximized="0" />
  <defs
     id="defs3321">
    <marker
       inkscape:stockid="Arrow1Lend"
       orient="auto"
       refY="0.0"
       refX="0.0"
       id="Arrow1Lend"
       style="overflow:visible;">
      <path
         id="path4652"
         d="M 0.0,0.0 L 5.0,-5.0 L -12.5,0.0 L 5.0,5.0 L 0.0,0.0 z "
         style="fill-rule:evenodd;stroke:#000000;stroke-width:1.0pt;"
         transform="scale(0.8) rotate(180) translate(12.5,0)" />
    </marker>
    <defs
       id="defs11">
      <circle
         r="0.5"
         id="gpDot"
         cx="0"
         cy="0"
         sodipodi:cx="0"
         sodipodi:cy="0"
         sodipodi:rx="0.5"
         sodipodi:ry="0.5"
         style="stroke-width:0.5" />
      <path
         d="M -1,0 H 1 M 0,-1 v 2"
         id="gpPt0"
         inkscape:connector-curvature="0"
         style="stroke:currentColor;stroke-width:0.222" />
      <path
         d="M -1,-1 1,1 M 1,-1 -1,1"
         id="gpPt1"
         inkscape:connector-curvature="0"
         style="stroke:currentColor;stroke-width:0.222" />
      <path
         d="M -1,0 1,0 M 0,-1 0,1 m -1,-2 2,2 m -2,0 2,-2"
         id="gpPt2"
         inkscape:connector-curvature="0"
         style="stroke:currentColor;stroke-width:0.222" />
      <rect
         height="2"
         width="2"
         y="-1"
         x="-1"
         id="gpPt3"
         style="stroke:currentColor;stroke-width:0.222" />
      <rect
         height="2"
         width="2"
         y="-1"
         x="-1"
         id="gpPt4"
         style="fill:currentColor;stroke:currentColor;stroke-width:0.222" />
      <circle
         r="1"
         cy="0"
         cx="0"
         id="gpPt5"
         sodipodi:cx="0"
         sodipodi:cy="0"
         sodipodi:rx="1"
         sodipodi:ry="1"
         style="stroke:currentColor;stroke-width:0.222" />
      <use
         id="gpPt6"
         xlink:href="#gpPt5"
         style="fill:currentColor;stroke:none"
         x="0"
         y="0"
         width="744.09448"
         height="1052.3622" />
      <path
         d="m 0,-1.33 -1.33,2 2.66,0 z"
         id="gpPt7"
         inkscape:connector-curvature="0"
         style="stroke:currentColor;stroke-width:0.222" />
      <use
         id="gpPt8"
         xlink:href="#gpPt7"
         style="fill:currentColor;stroke:none"
         x="0"
         y="0"
         width="744.09448"
         height="1052.3622" />
      <use
         transform="scale(-1,-1)"
         id="gpPt9"
         xlink:href="#gpPt7"
         style="stroke:currentColor"
         x="0"
         y="0"
         width="744.09448"
         height="1052.3622" />
      <use
         id="gpPt10"
         xlink:href="#gpPt9"
         style="fill:currentColor;stroke:none"
         x="0"
         y="0"
         width="744.09448"
         height="1052.3622" />
      <use
         transform="matrix(0.70710678,0.70710678,-0.70710678,0.70710678,0,0)"
         id="gpPt11"
         xlink:href="#gpPt3"
         style="stroke:currentColor"
         x="0"
         y="0"
         width="744.09448"
         height="1052.3622" />
      <use
         id="gpPt12"
         xlink:href="#gpPt11"
         style="fill:currentColor;stroke:none"
         x="0"
         y="0"
         width="744.09448"
         height="1052.3622" />
    </defs>
    <marker
       inkscape:stockid="Arrow1LendP"
       orient="auto"
       refY="0.0"
       refX="0.0"
       id="Arrow1LendP"
       style="overflow:visible;">
      <path
         id="path5109"
         d="M 0.0,0.0 L 5.0,-5.0 L -12.5,0.0 L 5.0,5.0 L 0.0,0.0 z "
         style="stroke:#ffffff;stroke-width:1.0pt;fill:#ffffff;fill-rule:evenodd"
         transform="scale(0.8) rotate(180) translate(12.5,0)" />
    </marker>
    <marker
       inkscape:stockid="Arrow1LendG"
       orient="auto"
       refY="0.0"
       refX="0.0"
       id="Arrow1LendG"
       style="overflow:visible;">
      <path
         id="path5112"
         d="M 0.0,0.0 L 5.0,-5.0 L -12.5,0.0 L 5.0,5.0 L 0.0,0.0 z "
         style="stroke:#ffffff;stroke-width:1.0pt;fill:#ffffff;fill-rule:evenodd"
         transform="scale(0.8) rotate(180) translate(12.5,0)" />
    </marker>
    <marker
       inkscape:stockid="Arrow1LendP"
       orient="auto"
       refY="0"
       refX="0"
       id="Arrow1LendP-6"
       style="overflow:visible">
      <path
         id="path5109-1"
         d="M 0,0 5,-5 -12.5,0 5,5 0,0 z"
         style="fill:#ffffff;fill-rule:evenodd;stroke:#ffffff;stroke-width:1pt"
         transform="matrix(-0.8,0,0,-0.8,-10,0)"
         inkscape:connector-curvature="0" />
    </marker>
  </defs>
  <metadata
     id="metadata3324">
    <rdf:RDF>
      <cc:Work
         rdf:about="">
        <dc:format>image/svg+xml</dc:format>
        <dc:type
           rdf:resource="http://purl.org/dc/dcmitype/StillImage" />
        <dc:title></dc:title>
      </cc:Work>
    </rdf:RDF>
  </metadata>
  <g
     inkscape:label="レイヤー 1"
     inkscape:groupmode="layer"
     id="layer1">
    <path
       sodipodi:nodetypes="cc"
       inkscape:connector-curvature="0"
       id="path5381"
       d="m 342.84635,612.11629 31.81718,-64.93301"
       style="fill:none;stroke:#ffffff;stroke-width:1;stroke-linecap:butt;stroke-linejoin:miter;stroke-miterlimit:4;stroke-opacity:1;stroke-dasharray:4, 4;stroke-dashoffset:0" />
    <path
       inkscape:connector-curvature="0"
       id="path5383"
       d="m 214.9283,525.75537 160.38457,22.72656"
       style="fill:none;stroke:#ffffff;stroke-width:1;stroke-linecap:butt;stroke-linejoin:miter;stroke-miterlimit:4;stroke-opacity:1;stroke-dasharray:4, 4;stroke-dashoffset:0;marker-end:none" />
    <g
       id="g27"
       style="color:#ffffff;fill:none;stroke:currentColor;stroke-width:1;stroke-linecap:butt;stroke-linejoin:miter"
       transform="translate(75,272.36218)" />
    <g
       style="color:#ff0000;fill:none;stroke:#ffffff;stroke-width:1;stroke-linecap:butt;stroke-linejoin:miter"
       id="g152"
       transform="translate(75,272.36218)">
      <path
         inkscape:connector-curvature="0"
         d="m 110.1,312.6 7.6,1 15.3,1.9 15.3,1.6 15.3,1.3 15.3,1.1 15.3,0.7 15.3,0.5 15.3,0.2 15.3,-0.1 15.3,-0.4 15.3,-0.6 15.3,-1 15.2,-1.2 15.3,-1.5 15.3,-1.7 15.3,-2.1 15.3,-2.3 15.3,-2.6 15.3,-2.9 15.3,-3.2 4.6,-1 m -298.7,4 7.6,1 15.3,1.9 15.3,1.6 15.3,1.3 15.3,1 15.3,0.8 15.3,0.5 15.3,0.2 15.3,-0.1 15.3,-0.4 15.3,-0.6 15.3,-1 15.2,-1.2 15.3,-1.5 15.3,-1.7 15.3,-2.1 15.3,-2.3 15.3,-2.6 15.3,-2.9 15.3,-3.2 4.6,-1 m -298.7,3.7 7.6,1 15.3,1.9 15.3,1.6 15.3,1.3 15.3,1 15.3,0.8 15.3,0.5 15.3,0.2 15.3,-0.1 15.3,-0.4 15.3,-0.6 15.3,-1 15.2,-1.2 15.3,-1.5 15.3,-1.7 15.3,-2.1 15.3,-2.3 15.3,-2.6 15.3,-2.9 15.3,-3.2 4.6,-1 m -298.7,3.4 7.6,1.1 15.3,1.8 15.3,1.6 15.3,1.3 15.3,1.1 15.3,0.7 15.3,0.5 15.3,0.2 15.3,-0.1 15.3,-0.4 15.3,-0.6 15.3,-0.9 15.2,-1.3 15.3,-1.4 15.3,-1.8 15.3,-2.1 15.3,-2.3 15.3,-2.6 15.3,-2.9 15.3,-3.2 4.6,-1 m -298.7,3.1 7.6,1.1 15.3,1.9 15.3,1.6 15.3,1.3 15.3,1 15.3,0.8 15.3,0.4 15.3,0.2 15.3,-0.1 15.3,-0.3 15.3,-0.7 15.2,-0.9 15.3,-1.2 15.3,-1.5 15.3,-1.8 15.3,-2 15.3,-2.3 15.3,-2.7 15.3,-2.8 15.3,-3.2 4.6,-1.1 m -298.7,2.9 7.6,1.1 15.3,1.8 15.3,1.6 15.3,1.3 15.3,1.1 15.3,0.7 15.3,0.5 15.3,0.2 15.3,-0.1 15.3,-0.4 15.3,-0.6 15.2,-0.9 15.3,-1.3 15.3,-1.4 15.3,-1.8 15.3,-2.1 15.3,-2.3 15.3,-2.6 15.3,-2.9 15.3,-3.2 4.6,-1 m -298.7,2.6 7.6,1 15.3,1.9 15.3,1.6 15.3,1.3 15.3,1.1 15.3,0.7 15.3,0.5 15.3,0.2 15.3,-0.1 15.3,-0.4 15.3,-0.6 15.2,-1 15.3,-1.2 15.3,-1.5 15.3,-1.7 15.3,-2.1 15.3,-2.3 15.3,-2.6 15.3,-2.9 15.3,-3.2 4.6,-1 m -298.7,2.3 7.6,1 15.3,1.9 15.3,1.6 15.3,1.3 15.3,1.1 15.3,0.7 15.3,0.5 15.3,0.2 15.3,-0.1 15.3,-0.4 15.3,-0.6 15.2,-1 15.3,-1.2 15.3,-1.5 15.3,-1.7 15.3,-2.1 15.3,-2.3 15.3,-2.6 15.3,-2.9 15.3,-3.2 4.6,-1 m -298.7,2 7.6,1.1 15.3,1.8 15.3,1.6 15.3,1.3 15.3,1.1 15.3,0.7 15.3,0.5 15.3,0.2 15.3,-0.1 15.3,-0.4 15.2,-0.6 15.3,-0.9 15.3,-1.2 15.3,-1.5 15.3,-1.8 15.3,-2.1 15.3,-2.3 15.3,-2.6 15.3,-2.8 15.3,-3.2 4.6,-1 m -298.7,1.7 7.6,1.1 15.3,1.9 15.3,1.5 15.3,1.3 15.3,1 15.3,0.8 15.3,0.4 15.3,0.2 15.3,-0.1 15.3,-0.3 15.2,-0.7 15.3,-0.9 15.3,-1.2 15.3,-1.5 15.3,-1.7 15.3,-2 15.3,-2.3 15.3,-2.7 15.3,-2.8 15.3,-3.2 4.6,-1 m -298.7,1.4 7.6,1.1 15.3,1.8 15.3,1.6 15.3,1.3 15.3,1.1 15.3,0.7 15.3,0.5 15.3,0.2 15.3,-0.1 15.3,-0.4 15.2,-0.6 15.3,-0.9 15.3,-1.2 15.3,-1.5 15.3,-1.8 15.3,-2.1 15.3,-2.3 15.3,-2.6 15.3,-2.9 15.3,-3.1 4.6,-1.1 m -298.7,1.2 7.6,1 15.3,1.9 15.3,1.6 15.3,1.3 15.3,1.1 15.3,0.7 15.3,0.5 15.3,0.2 15.3,-0.1 15.2,-0.4 15.3,-0.6 15.3,-1 15.3,-1.2 15.3,-1.5 15.3,-1.7 15.3,-2.1 15.3,-2.3 15.3,-2.6 15.3,-2.9 15.3,-3.2 4.6,-1 m -298.7,0.9 7.6,1 15.3,1.9 15.3,1.6 15.3,1.3 15.3,1.1 15.3,0.7 15.3,0.5 15.3,0.2 15.3,-0.1 15.2,-0.4 15.3,-0.6 15.3,-1 15.3,-1.2 15.3,-1.5 15.3,-1.7 15.3,-2.1 15.3,-2.3 15.3,-2.6 15.3,-2.9 15.3,-3.2 4.6,-1 m -298.7,0.6 7.6,1.1 15.3,1.8 15.3,1.6 15.3,1.3 15.3,1.1 15.3,0.7 15.3,0.5 15.3,0.2 15.3,-0.1 15.2,-0.4 15.3,-0.6 15.3,-0.9 15.3,-1.2 15.3,-1.5 15.3,-1.8 15.3,-2.1 15.3,-2.3 15.3,-2.6 15.3,-2.9 15.3,-3.1 4.6,-1.1 m -298.8,0.3 7.7,1.1 15.3,1.9 15.3,1.6 15.3,1.3 15.3,1 15.3,0.8 15.3,0.4 15.3,0.2 15.3,-0.1 15.2,-0.3 15.3,-0.7 15.3,-0.9 15.3,-1.2 15.3,-1.5 15.3,-1.8 15.3,-2 15.3,-2.3 15.3,-2.6 15.3,-2.9 15.3,-3.2 4.6,-1 m -298.8,0 7.7,1.1 15.3,1.8 15.3,1.6 15.3,1.3 15.3,1.1 15.3,0.7 15.3,0.5 15.3,0.2 15.2,-0.1 15.3,-0.4 15.3,-0.6 15.3,-0.9 15.3,-1.2 15.3,-1.5 15.3,-1.8 15.3,-2.1 15.3,-2.3 15.3,-2.6 15.3,-2.9 15.3,-3.1 4.6,-1.1 m -298.8,-0.2 7.7,1 15.3,1.9 15.3,1.6 15.3,1.3 15.3,1.1 15.3,0.7 15.3,0.5 15.3,0.2 15.2,-0.1 15.3,-0.4 15.3,-0.6 15.3,-1 15.3,-1.2 15.3,-1.5 15.3,-1.7 15.3,-2.1 15.3,-2.3 15.3,-2.6 15.3,-2.9 15.3,-3.2 4.6,-1 m -298.8,-0.5 7.7,1 15.3,1.9 15.3,1.6 15.3,1.3 15.3,1.1 15.3,0.7 15.3,0.5 15.3,0.2 15.2,-0.1 15.3,-0.4 15.3,-0.6 15.3,-1 15.3,-1.2 15.3,-1.5 15.3,-1.7 15.3,-2.1 15.3,-2.3 15.3,-2.6 15.3,-2.9 15.3,-3.2 4.6,-1 m -298.8,-0.8 7.7,1.1 15.3,1.8 15.3,1.6 15.3,1.3 15.3,1.1 15.3,0.7 15.3,0.5 15.3,0.2 15.2,-0.1 15.3,-0.4 15.3,-0.6 15.3,-0.9 15.3,-1.2 15.3,-1.5 15.3,-1.8 15.3,-2.1 15.3,-2.3 15.3,-2.6 15.3,-2.9 15.3,-3.1 4.6,-1.1 m -298.8,-1.1 7.7,1.1 15.3,1.9 15.3,1.6 15.3,1.3 15.3,1 15.3,0.8 15.3,0.4 15.2,0.2 15.3,-0.1 15.3,-0.3 15.3,-0.7 15.3,-0.9 15.3,-1.2 15.3,-1.5 15.3,-1.8 15.3,-2 15.3,-2.3 15.3,-2.7 15.3,-2.8 15.3,-3.2 4.6,-1 m -375.1,223.2 2,-4.1 4.1,-8.3 4.1,-8.6 4.1,-8.8 4.1,-9.2 4.1,-9.4 4.1,-9.8 4.1,-10 4.1,-10.2 4.1,-10.5 4.1,-10.8 4.1,-11.2 4.1,-11.4 4.1,-11.6 4.1,-12 4.1,-12.2 4.1,-12.6 4.1,-12.8 4.1,-13 4.1,-13.4 1.2,-4.1 m -65.8,215.8 2,-4 4.1,-8.3 4.1,-8.6 4.1,-8.9 4.1,-9.1 4.1,-9.5 4.1,-9.7 4.1,-10 4.1,-10.3 4.1,-10.4 4.1,-10.9 4.1,-11.1 4.1,-11.4 4.1,-11.7 4.1,-11.9 4.1,-12.3 4.1,-12.5 4.1,-12.8 4.1,-13.1 4.1,-13.3 1.2,-4.1 m -65.8,215.5 2,-4 4.1,-8.3 4.1,-8.6 4.1,-8.9 4.1,-9.1 4.1,-9.5 4.1,-9.7 4.1,-10 4.1,-10.3 4.1,-10.5 4.1,-10.8 4.1,-11.1 4.1,-11.4 4.1,-11.7 4.1,-11.9 4.1,-12.3 4.1,-12.5 4.1,-12.8 4.1,-13.1 4.1,-13.3 1.2,-4.1 m -65.8,215.2 2,-4 4.1,-8.3 4.1,-8.6 4.1,-8.9 4.1,-9.1 4.1,-9.5 4.1,-9.7 4.1,-10 4.1,-10.3 4.1,-10.5 4.1,-10.8 4.1,-11.1 4.1,-11.4 4.1,-11.7 4.1,-11.9 4.1,-12.3 4.1,-12.5 4.1,-12.8 4.1,-13.1 4.1,-13.3 1.2,-4.1 0.01,0"
         id="path154"
         sodipodi:nodetypes="ccccccccccccccccccccccccccccccccccccccccccccccccccccccccccccccccccccccccccccccccccccccccccccccccccccccccccccccccccccccccccccccccccccccccccccccccccccccccccccccccccccccccccccccccccccccccccccccccccccccccccccccccccccccccccccccccccccccccccccccccccccccccccccccccccccccccccccccccccccccccccccccccccccccccccccccccccccccccccccccccccccccccccccccccccccccccccccccccccccccccccccccccccccccccccccccccccccccccccccccccccccccccccccccccccccccccccccccccccccccccccccccccccccccccccccccccccccccccccccccccccccccccccccccccccccccccccccccccccccccccccccccccc"
         style="stroke:#ffffff" />
      <path
         inkscape:connector-curvature="0"
         d="m 176.9,323.5 2,-4 4.1,-8.4 4.1,-8.6 4.1,-8.8 4.1,-9.2 4.1,-9.4 4.1,-9.7 4.1,-10 4.1,-10.3 4.1,-10.6 4.1,-10.7 4.1,-11.1 4.1,-11.4 4.1,-11.7 4.1,-12 4.1,-12.2 4.1,-12.5 4.1,-12.8 4.1,-13.1 4.1,-13.4 1.2,-4.1 m -65.8,214.7 2,-4 4.1,-8.3 4.1,-8.6 4.1,-8.9 4.1,-9.1 4.1,-9.5 4.1,-9.7 4.1,-10 4.1,-10.3 4.1,-10.5 4.1,-10.8 4.1,-11.1 4.1,-11.4 4.1,-11.7 4.1,-11.9 4.1,-12.3 4.1,-12.5 4.1,-12.8 4.1,-13.1 4.1,-13.3 1.2,-4.1 m -65.8,214.4 2,-4 4.1,-8.3 4.1,-8.6 4.1,-8.9 4.1,-9.2 4.1,-9.4 4.1,-9.7 4.1,-10 4.1,-10.3 4.1,-10.6 4.1,-10.7 4.1,-11.1 4.1,-11.4 4.1,-11.7 4.1,-12 4.1,-12.2 4.1,-12.5 4.1,-12.8 4.1,-13.1 4.1,-13.4 1.2,-4.1 m -65.8,214.2 2,-4 4.1,-8.3 4.1,-8.6 4.1,-8.9 4.1,-9.2 4.1,-9.4 4.1,-9.7 4.1,-10 4.1,-10.3 4.1,-10.6 4.1,-10.7 4.1,-11.1 4.1,-11.4 4.1,-11.7 4.1,-12 4.1,-12.2 4.1,-12.5 4.1,-12.8 4.1,-13.1 4,-13.4 1.2,-4.1 m -65.8,213.9 2.1,-4 4.1,-8.3 4.1,-8.6 4.1,-8.9 4.1,-9.2 4.1,-9.4 4.1,-9.7 4.1,-10 4.1,-10.3 4.1,-10.6 4.1,-10.7 4.1,-11.1 4.1,-11.4 4.1,-11.7 4.1,-12 4,-12.2 4.1,-12.5 4.1,-12.8 4.1,-13.1 4.1,-13.4 1.2,-4 m -65.8,213.5 2.1,-4 4.1,-8.3 4.1,-8.6 4.1,-8.9 4.1,-9.1 4.1,-9.5 4.1,-9.7 4.1,-10 4.1,-10.3 4.1,-10.5 4.1,-10.8 4,-11.1 4.1,-11.4 4.1,-11.7 4.1,-11.9 4.1,-12.3 4.1,-12.5 4.1,-12.8 4.1,-13.1 4.1,-13.3 1.2,-4.1 m -65.8,213.3 2.1,-4 4.1,-8.3 4.1,-8.6 4.1,-8.9 4.1,-9.2 4.1,-9.4 4.1,-9.7 4.1,-10 4,-10.3 4.1,-10.6 4.1,-10.7 4.1,-11.1 4.1,-11.4 4.1,-11.7 4.1,-12 4.1,-12.2 4.1,-12.5 4.1,-12.8 4.1,-13.1 4.1,-13.4 1.2,-4.1 m -65.8,213.1 2.1,-4.1 4.1,-8.3 4.1,-8.6 4.1,-8.8 4,-9.2 4.1,-9.4 4.1,-9.8 4.1,-10 4.1,-10.2 4.1,-10.6 4.1,-10.7 4.1,-11.2 4.1,-11.4 4.1,-11.6 4.1,-12 4.1,-12.2 4.1,-12.6 4.1,-12.8 4.1,-13 4.1,-13.4 1.2,-4.1 m -65.8,212.8 2,-4.1 4.1,-8.3 4.1,-8.6 4.1,-8.9 4.1,-9.1 4.1,-9.5 4.1,-9.7 4.1,-10 4.1,-10.2 4.1,-10.6 4.1,-10.7 4.1,-11.2 4.1,-11.4 4.1,-11.6 4.1,-12 4.1,-12.2 4.1,-12.6 4.1,-12.8 4.1,-13 4.1,-13.4 1.2,-4.1 m -65.9,212.5 2.1,-4.1 4.1,-8.3 4.1,-8.6 4.1,-8.8 4.1,-9.2 4.1,-9.4 4.1,-9.8 4.1,-10 4.1,-10.2 4.1,-10.6 4.1,-10.7 4.1,-11.2 4.1,-11.4 4.1,-11.6 4.1,-12 4.1,-12.2 4.1,-12.6 4.1,-12.8 4.1,-13 4.1,-13.4 1.2,-4.1 m -65.9,212.2 2.1,-4 4.1,-8.3 4.1,-8.6 4.1,-8.9 4.1,-9.2 4.1,-9.4 4.1,-9.7 4.1,-10 4.1,-10.3 4.1,-10.5 4.1,-10.8 4.1,-11.1 4.1,-11.4 4.1,-11.7 4.1,-12 4.1,-12.2 4.1,-12.5 4.1,-12.8 4.1,-13.1 4.1,-13.4 1.2,-4.1 m -65.9,212 2.1,-4.1 4.1,-8.3 4.1,-8.6 4.1,-8.9 4.1,-9.1 4.1,-9.5 4.1,-9.7 4.1,-10 4.1,-10.3 4.1,-10.4 4.1,-10.9 4.1,-11.1 4.1,-11.4 4.1,-11.7 4.1,-11.9 4.1,-12.3 4.1,-12.5 4.1,-12.8 4.1,-13.1 4.1,-13.3 1.2,-4.1 m -65.9,211.6 2.1,-4 4.1,-8.3 4.1,-8.6 4.1,-8.9 4.1,-9.1 4.1,-9.5 4.1,-9.7 4.1,-10 4.1,-10.3 4.1,-10.4 4.1,-10.9 4.1,-11.1 4.1,-11.4 4.1,-11.7 4.1,-11.9 4.1,-12.3 4.1,-12.5 4.1,-12.8 4.1,-13.1 4.1,-13.3 1.2,-4.1 m -65.9,211.3 2.1,-4 4.1,-8.3 4.1,-8.6 4.1,-8.9 4.1,-9.2 4.1,-9.4 4.1,-9.7 4.1,-10 4.1,-10.3 4.1,-10.5 4.1,-10.8 4.1,-11.1 4.1,-11.4 4.1,-11.7 4.1,-11.9 4.1,-12.3 4.1,-12.5 4.1,-12.8 4.1,-13.1 4.1,-13.4 1.2,-4 m -65.9,211 2.1,-4 4.1,-8.3 4.1,-8.6 4.1,-8.9 4.1,-9.1 4.1,-9.5 4.1,-9.7 4.1,-10 4.1,-10.2 4.1,-10.5 4.1,-10.9 4.1,-11.1 4.1,-11.4 4.1,-11.7 4.1,-11.9 4.1,-12.3 4.1,-12.5 4.1,-12.8 4.1,-13.1 4.1,-13.3 1.2,-4.1 m -65.9,210.8 2.1,-4.1 4.1,-8.3 4.1,-8.6 4.1,-8.9 4.1,-9.1 4.1,-9.5 4.1,-9.7 4.1,-10 4.1,-10.2 4.1,-10.5 4.1,-10.8 4.1,-11.2 4.1,-11.4 4.1,-11.6 4.1,-12 4.1,-12.2 4.1,-12.6 4.1,-12.8 4.1,-13 4.1,-13.4 1.2,-4.1 h 0.01"
         id="path156"
         style="stroke:#ffffff" />
    </g>
    <g
       style="color:#008000;fill:none;stroke:#add8e6;stroke-width:1;stroke-linecap:butt;stroke-linejoin:miter;stroke-opacity:1"
       id="g165"
       transform="translate(75,272.36218)">
      <path
         inkscape:connector-curvature="0"
         d="m 108,316.6 9.7,-3 19.4,-6.4 19.4,-7 19.4,-7.6 19.4,-8.1 19.4,-8.7 19.4,-9.2 19.4,-9.8 19.4,-10.4 19.4,-10.9 19.3,-11.4 19.4,-12.1 19.4,-12.6 19.4,-13.1 19.4,-13.8 19.4,-14.3 19.4,-14.8 19.4,-15.4 19.4,-16 19.4,-16.5 5.7,-5 M 108,316.6 l 9.7,-3 19.4,-6.4 19.4,-7 19.4,-7.6 19.4,-8.1 19.4,-8.7 19.4,-9.2 19.4,-9.8 19.4,-10.4 19.4,-10.9 19.3,-11.4 19.4,-12.1 19.4,-12.6 19.4,-13.1 19.4,-13.8 19.4,-14.3 19.4,-14.8 19.4,-15.4 19.4,-16 19.4,-16.5 5.7,-5 M 108,316.6 l 9.7,-3 19.4,-6.4 19.4,-7 19.4,-7.6 19.4,-8.1 19.4,-8.7 19.4,-9.2 19.4,-9.8 19.4,-10.4 19.4,-10.9 19.3,-11.4 19.4,-12.1 19.4,-12.6 19.4,-13.1 19.4,-13.8 19.4,-14.3 19.4,-14.8 19.4,-15.4 19.4,-16 19.4,-16.5 5.7,-5 M 108,316.6 l 9.7,-3 19.4,-6.4 19.4,-7 19.4,-7.6 19.4,-8.1 19.4,-8.7 19.4,-9.2 19.4,-9.8 19.4,-10.4 19.4,-10.9 19.3,-11.4 19.4,-12.1 19.4,-12.6 19.4,-13.1 19.4,-13.8 19.4,-14.3 19.4,-14.8 19.4,-15.4 19.4,-16 19.4,-16.5 5.7,-5 M 108,316.6 l 9.7,-3 19.4,-6.4 19.4,-7 19.4,-7.6 19.4,-8.1 19.4,-8.7 19.4,-9.2 19.4,-9.8 19.4,-10.4 19.4,-10.9 19.3,-11.4 19.4,-12.1 19.4,-12.6 19.4,-13.1 19.4,-13.8 19.4,-14.3 19.4,-14.8 19.4,-15.4 19.4,-16 19.4,-16.5 5.7,-5 M 108,316.6 l 9.7,-3 19.4,-6.4 19.4,-7 19.4,-7.6 19.4,-8.1 19.4,-8.7 19.4,-9.2 19.4,-9.8 19.4,-10.4 19.4,-10.9 19.3,-11.4 19.4,-12.1 19.4,-12.6 19.4,-13.1 19.4,-13.8 19.4,-14.3 19.4,-14.8 19.4,-15.4 19.4,-16 19.4,-16.5 5.7,-5 M 108,316.6 l 9.7,-3 19.4,-6.4 19.4,-7 19.4,-7.6 19.4,-8.1 19.4,-8.7 19.4,-9.2 19.4,-9.8 19.4,-10.4 19.4,-10.9 19.3,-11.4 19.4,-12.1 19.4,-12.6 19.4,-13.1 19.4,-13.8 19.4,-14.3 19.4,-14.8 19.4,-15.4 19.4,-16 19.4,-16.5 5.7,-5 M 108,316.6 l 9.7,-3 19.4,-6.4 19.4,-7 19.4,-7.6 19.4,-8.1 19.4,-8.7 19.4,-9.2 19.4,-9.8 19.4,-10.4 19.4,-10.9 19.3,-11.4 19.4,-12.1 19.4,-12.6 19.4,-13.1 19.4,-13.8 19.4,-14.3 19.4,-14.8 19.4,-15.4 19.4,-16 19.4,-16.5 5.7,-5 M 108,316.6 l 9.7,-3 19.4,-6.4 19.4,-7 19.4,-7.6 19.4,-8.1 19.4,-8.7 19.4,-9.2 19.4,-9.8 19.4,-10.4 19.4,-10.9 19.3,-11.4 19.4,-12.1 19.4,-12.6 19.4,-13.1 19.4,-13.8 19.4,-14.3 19.4,-14.8 19.4,-15.4 19.4,-16 19.4,-16.5 5.7,-5 M 108,316.6 l 9.7,-3 19.4,-6.4 19.4,-7 19.4,-7.6 19.4,-8.1 19.4,-8.7 19.4,-9.2 19.4,-9.8 19.4,-10.4 19.4,-10.9 19.3,-11.4 19.4,-12.1 19.4,-12.6 19.4,-13.1 19.4,-13.8 19.4,-14.3 19.4,-14.8 19.4,-15.4 19.4,-16 19.4,-16.5 5.7,-5 M 108,316.6 l 9.7,-3 19.4,-6.4 19.4,-7 19.4,-7.6 19.4,-8.1 19.4,-8.7 19.4,-9.2 19.4,-9.8 19.4,-10.4 19.4,-10.9 19.3,-11.4 19.4,-12.1 19.4,-12.6 19.4,-13.1 19.4,-13.8 19.4,-14.3 19.4,-14.8 19.4,-15.4 19.4,-16 19.4,-16.5 5.7,-5 M 108,316.6 l 9.7,-3 19.4,-6.4 19.4,-7 19.4,-7.6 19.4,-8.1 19.4,-8.7 19.4,-9.2 19.4,-9.8 19.4,-10.4 19.4,-10.9 19.3,-11.4 19.4,-12.1 19.4,-12.6 19.4,-13.1 19.4,-13.8 19.4,-14.3 19.4,-14.8 19.4,-15.4 19.4,-16 19.4,-16.5 5.7,-5 M 108,316.6 l 9.7,-3 19.4,-6.4 19.4,-7 19.4,-7.6 19.4,-8.1 19.4,-8.7 19.4,-9.2 19.4,-9.8 19.4,-10.4 19.4,-10.9 19.3,-11.4 19.4,-12.1 19.4,-12.6 19.4,-13.1 19.4,-13.8 19.4,-14.3 19.4,-14.8 19.4,-15.4 19.4,-16 19.4,-16.5 5.7,-5 M 108,316.6 l 9.7,-3 19.4,-6.4 19.4,-7 19.4,-7.6 19.4,-8.1 19.4,-8.7 19.4,-9.2 19.4,-9.8 19.4,-10.4 19.4,-10.9 19.3,-11.4 19.4,-12.1 19.4,-12.6 19.4,-13.1 19.4,-13.8 19.4,-14.3 19.4,-14.8 19.4,-15.4 19.4,-16 19.4,-16.5 5.7,-5 M 108,316.6 l 9.7,-3 19.4,-6.4 19.4,-7 19.4,-7.6 19.4,-8.1 19.4,-8.7 19.4,-9.2 19.4,-9.8 19.4,-10.4 19.4,-10.9 19.3,-11.4 19.4,-12.1 19.4,-12.6 19.4,-13.1 19.4,-13.8 19.4,-14.3 19.4,-14.8 19.4,-15.4 19.4,-16 19.4,-16.5 5.7,-5 M 108,316.6 l 9.7,-3 19.4,-6.4 19.4,-7 19.4,-7.6 19.4,-8.1 19.4,-8.7 19.4,-9.2 19.4,-9.8 19.4,-10.4 19.4,-10.9 19.3,-11.4 19.4,-12.1 19.4,-12.6 19.4,-13.1 19.4,-13.8 19.4,-14.3 19.4,-14.8 19.4,-15.4 19.4,-16 19.4,-16.5 5.7,-5 M 108,316.6 l 9.7,-3 19.4,-6.4 19.4,-7 19.4,-7.6 19.4,-8.1 19.4,-8.7 19.4,-9.2 19.4,-9.8 19.4,-10.4 19.4,-10.9 19.3,-11.4 19.4,-12.1 19.4,-12.6 19.4,-13.1 19.4,-13.8 19.4,-14.3 19.4,-14.8 19.4,-15.4 19.4,-16 19.4,-16.5 5.7,-5 M 108,316.6 l 9.7,-3 19.4,-6.4 19.4,-7 19.4,-7.6 19.4,-8.1 19.4,-8.7 19.4,-9.2 19.4,-9.8 19.4,-10.4 19.4,-10.9 19.3,-11.4 19.4,-12.1 19.4,-12.6 19.4,-13.1 19.4,-13.8 19.4,-14.3 19.4,-14.8 19.4,-15.4 19.4,-16 19.4,-16.5 5.7,-5 M 108,316.6 l 9.7,-3 19.4,-6.4 19.4,-7 19.4,-7.6 19.4,-8.1 19.4,-8.7 19.4,-9.2 19.4,-9.8 19.4,-10.4 19.4,-10.9 19.3,-11.4 19.4,-12.1 19.4,-12.6 19.4,-13.1 19.4,-13.8 19.4,-14.3 19.4,-14.8 19.4,-15.4 19.4,-16 19.4,-16.5 5.7,-5 M 108,316.6 l 9.7,-3 19.4,-6.4 19.4,-7 19.4,-7.6 19.4,-8.1 19.4,-8.7 19.4,-9.2 19.4,-9.8 19.4,-10.4 19.4,-10.9 19.3,-11.4 19.4,-12.1 19.4,-12.6 19.4,-13.1 19.4,-13.8 19.4,-14.3 19.4,-14.8 19.4,-15.4 19.4,-16 19.4,-16.5 5.7,-5 M 108,316.6 l 9.7,-3 19.4,-6.4 19.4,-7 19.4,-7.6 19.4,-8.1 19.4,-8.7 19.4,-9.2 19.4,-9.8 19.4,-10.4 19.4,-10.9 19.3,-11.4 19.4,-12.1 19.4,-12.6 19.4,-13.1 19.4,-13.8 19.4,-14.3 19.4,-14.8 19.4,-15.4 19.4,-16 19.4,-16.5 5.7,-5 M 108,316.6 l 9.7,-3 19.4,-6.4 19.4,-7 19.4,-7.6 19.4,-8.1 19.4,-8.7 19.4,-9.2 19.4,-9.8 19.4,-10.4 19.4,-10.9 19.3,-11.4 19.4,-12.1 19.4,-12.6 19.4,-13.1 19.4,-13.8 19.4,-14.3 19.4,-14.8 19.4,-15.4 19.4,-16 19.4,-16.5 5.7,-5 M 108,316.6 l 9.7,-3 19.4,-6.4 19.4,-7 19.4,-7.6 19.4,-8.1 19.4,-8.7 19.4,-9.2 19.4,-9.8 19.4,-10.4 19.4,-10.9 19.3,-11.4 19.4,-12.1 19.4,-12.6 19.4,-13.1 19.4,-13.8 19.4,-14.3 19.4,-14.8 19.4,-15.4 19.4,-16 19.4,-16.5 5.7,-5 M 108,316.6 l 9.7,-3 19.4,-6.4 19.4,-7 19.4,-7.6 19.4,-8.1 19.4,-8.7 19.4,-9.2 19.4,-9.8 19.4,-10.4 19.4,-10.9 19.3,-11.4 19.4,-12.1 19.4,-12.6 19.4,-13.1 19.4,-13.8 19.4,-14.3 19.4,-14.8 19.4,-15.4 19.4,-16 19.4,-16.5 5.7,-5 0.01,0"
         id="path167"
         sodipodi:nodetypes="ccccccccccccccccccccccccccccccccccccccccccccccccccccccccccccccccccccccccccccccccccccccccccccccccccccccccccccccccccccccccccccccccccccccccccccccccccccccccccccccccccccccccccccccccccccccccccccccccccccccccccccccccccccccccccccccccccccccccccccccccccccccccccccccccccccccccccccccccccccccccccccccccccccccccccccccccccccccccccccccccccccccccccccccccccccccccccccccccccccccccccccccccccccccccccccccccccccccccccccccccccccccccccccccccccccccccccccccccccccccccccccccccccccccccccccccccccccccccccccccccccccccccccccccccccccccccccccccccccccccccccccccccc"
         style="stroke:#add8e6;stroke-opacity:1" />
      <path
         inkscape:connector-curvature="0"
         d="m 108,316.6 9.7,-3 19.4,-6.4 19.4,-7 19.4,-7.6 19.4,-8.1 19.4,-8.7 19.4,-9.2 19.4,-9.8 19.4,-10.4 19.4,-10.9 19.3,-11.4 19.4,-12.1 19.4,-12.6 19.4,-13.1 19.4,-13.8 19.4,-14.3 19.4,-14.8 19.4,-15.4 19.4,-16 19.4,-16.5 5.7,-5 M 108,316.6 l 9.7,-3 19.4,-6.4 19.4,-7 19.4,-7.6 19.4,-8.1 19.4,-8.7 19.4,-9.2 19.4,-9.8 19.4,-10.4 19.4,-10.9 19.3,-11.4 19.4,-12.1 19.4,-12.6 19.4,-13.1 19.4,-13.8 19.4,-14.3 19.4,-14.8 19.4,-15.4 19.4,-16 19.4,-16.5 5.7,-5 M 108,316.6 l 9.7,-3 19.4,-6.4 19.4,-7 19.4,-7.6 19.4,-8.1 19.4,-8.7 19.4,-9.2 19.4,-9.8 19.4,-10.4 19.4,-10.9 19.3,-11.4 19.4,-12.1 19.4,-12.6 19.4,-13.1 19.4,-13.8 19.4,-14.3 19.4,-14.8 19.4,-15.4 19.4,-16 19.4,-16.5 5.7,-5 M 108,316.6 l 9.7,-3 19.4,-6.4 19.4,-7 19.4,-7.6 19.4,-8.1 19.4,-8.7 19.4,-9.2 19.4,-9.8 19.4,-10.4 19.4,-10.9 19.3,-11.4 19.4,-12.1 19.4,-12.6 19.4,-13.1 19.4,-13.8 19.4,-14.3 19.4,-14.8 19.4,-15.4 19.4,-16 19.4,-16.5 5.7,-5 M 108,316.6 l 9.7,-3 19.4,-6.4 19.4,-7 19.4,-7.6 19.4,-8.1 19.4,-8.7 19.4,-9.2 19.4,-9.8 19.4,-10.4 19.4,-10.9 19.3,-11.4 19.4,-12.1 19.4,-12.6 19.4,-13.1 19.4,-13.8 19.4,-14.3 19.4,-14.8 19.4,-15.4 19.4,-16 19.4,-16.5 5.7,-5 M 108,316.6 l 9.7,-3 19.4,-6.4 19.4,-7 19.4,-7.6 19.4,-8.1 19.4,-8.7 19.4,-9.2 19.4,-9.8 19.4,-10.4 19.4,-10.9 19.3,-11.4 19.4,-12.1 19.4,-12.6 19.4,-13.1 19.4,-13.8 19.4,-14.3 19.4,-14.8 19.4,-15.4 19.4,-16 19.4,-16.5 5.7,-5 M 108,316.6 l 9.7,-3 19.4,-6.4 19.4,-7 19.4,-7.6 19.4,-8.1 19.4,-8.7 19.4,-9.2 19.4,-9.8 19.4,-10.4 19.4,-10.9 19.3,-11.4 19.4,-12.1 19.4,-12.6 19.4,-13.1 19.4,-13.8 19.4,-14.3 19.4,-14.8 19.4,-15.4 19.4,-16 19.4,-16.5 5.7,-5 M 108,316.6 l 9.7,-3 19.4,-6.4 19.4,-7 19.4,-7.6 19.4,-8.1 19.4,-8.7 19.4,-9.2 19.4,-9.8 19.4,-10.4 19.4,-10.9 19.3,-11.4 19.4,-12.1 19.4,-12.6 19.4,-13.1 19.4,-13.8 19.4,-14.3 19.4,-14.8 19.4,-15.4 19.4,-16 19.4,-16.5 5.7,-5 M 108,316.6 l 9.7,-3 19.4,-6.4 19.4,-7 19.4,-7.6 19.4,-8.1 19.4,-8.7 19.4,-9.2 19.4,-9.8 19.4,-10.4 19.4,-10.9 19.3,-11.4 19.4,-12.1 19.4,-12.6 19.4,-13.1 19.4,-13.8 19.4,-14.3 19.4,-14.8 19.4,-15.4 19.4,-16 19.4,-16.5 5.7,-5 M 108,316.6 l 9.7,-3 19.4,-6.4 19.4,-7 19.4,-7.6 19.4,-8.1 19.4,-8.7 19.4,-9.2 19.4,-9.8 19.4,-10.4 19.4,-10.9 19.3,-11.4 19.4,-12.1 19.4,-12.6 19.4,-13.1 19.4,-13.8 19.4,-14.3 19.4,-14.8 19.4,-15.4 19.4,-16 19.4,-16.5 5.7,-5 M 108,316.6 l 9.7,-3 19.4,-6.4 19.4,-7 19.4,-7.6 19.4,-8.1 19.4,-8.7 19.4,-9.2 19.4,-9.8 19.4,-10.4 19.4,-10.9 19.3,-11.4 19.4,-12.1 19.4,-12.6 19.4,-13.1 19.4,-13.8 19.4,-14.3 19.4,-14.8 19.4,-15.4 19.4,-16 19.4,-16.5 5.7,-5 M 108,316.6 l 9.7,-3 19.4,-6.4 19.4,-7 19.4,-7.6 19.4,-8.1 19.4,-8.7 19.4,-9.2 19.4,-9.8 19.4,-10.4 19.4,-10.9 19.3,-11.4 19.4,-12.1 19.4,-12.6 19.4,-13.1 19.4,-13.8 19.4,-14.3 19.4,-14.8 19.4,-15.4 19.4,-16 19.4,-16.5 5.7,-5 M 108,316.6 l 9.7,-3 19.4,-6.4 19.4,-7 19.4,-7.6 19.4,-8.1 19.4,-8.7 19.4,-9.2 19.4,-9.8 19.4,-10.4 19.4,-10.9 19.3,-11.4 19.4,-12.1 19.4,-12.6 19.4,-13.1 19.4,-13.8 19.4,-14.3 19.4,-14.8 19.4,-15.4 19.4,-16 19.4,-16.5 5.7,-5 M 108,316.6 l 9.7,-3 19.4,-6.4 19.4,-7 19.4,-7.6 19.4,-8.1 19.4,-8.7 19.4,-9.2 19.4,-9.8 19.4,-10.4 19.4,-10.9 19.3,-11.4 19.4,-12.1 19.4,-12.6 19.4,-13.1 19.4,-13.8 19.4,-14.3 19.4,-14.8 19.4,-15.4 19.4,-16 19.4,-16.5 5.7,-5 M 108,316.6 l 9.7,-3 19.4,-6.4 19.4,-7 19.4,-7.6 19.4,-8.1 19.4,-8.7 19.4,-9.2 19.4,-9.8 19.4,-10.4 19.4,-10.9 19.3,-11.4 19.4,-12.1 19.4,-12.6 19.4,-13.1 19.4,-13.8 19.4,-14.3 19.4,-14.8 19.4,-15.4 19.4,-16 19.4,-16.5 5.7,-5 M 108,316.6 l 9.7,-3 19.4,-6.4 19.4,-7 19.4,-7.6 19.4,-8.1 19.4,-8.7 19.4,-9.2 19.4,-9.8 19.4,-10.4 19.4,-10.9 19.3,-11.4 19.4,-12.1 19.4,-12.6 19.4,-13.1 19.4,-13.8 19.4,-14.3 19.4,-14.8 19.4,-15.4 19.4,-16 19.4,-16.5 5.7,-5 M 108,316.6 l 9.7,-3 19.4,-6.4 19.4,-7 19.4,-7.6 19.4,-8.1 19.4,-8.7 19.4,-9.2 19.4,-9.8 19.4,-10.4 19.4,-10.9 19.3,-11.4 19.4,-12.1 19.4,-12.6 19.4,-13.1 19.4,-13.8 19.4,-14.3 19.4,-14.8 19.4,-15.4 19.4,-16 19.4,-16.5 5.7,-5 M 108,316.6 l 9.7,-3 19.4,-6.4 19.4,-7 19.4,-7.6 19.4,-8.1 19.4,-8.7 19.4,-9.2 19.4,-9.8 19.4,-10.4 19.4,-10.9 19.3,-11.4 19.4,-12.1 19.4,-12.6 19.4,-13.1 19.4,-13.8 19.4,-14.3 19.4,-14.8 19.4,-15.4 19.4,-16 19.4,-16.5 5.7,-5 M 108,316.6 l 9.7,-3 19.4,-6.4 19.4,-7 19.4,-7.6 19.4,-8.1 19.4,-8.7 19.4,-9.2 19.4,-9.8 19.4,-10.4 19.4,-10.9 19.3,-11.4 19.4,-12.1 19.4,-12.6 19.4,-13.1 19.4,-13.8 19.4,-14.3 19.4,-14.8 19.4,-15.4 19.4,-16 19.4,-16.5 5.7,-5 M 108,316.6 l 9.7,-3 19.4,-6.4 19.4,-7 19.4,-7.6 19.4,-8.1 19.4,-8.7 19.4,-9.2 19.4,-9.8 19.4,-10.4 19.4,-10.9 19.3,-11.4 19.4,-12.1 19.4,-12.6 19.4,-13.1 19.4,-13.8 19.4,-14.3 19.4,-14.8 19.4,-15.4 19.4,-16 19.4,-16.5 5.7,-5 M 108,316.6 l 9.7,-3 19.4,-6.4 19.4,-7 19.4,-7.6 19.4,-8.1 19.4,-8.7 19.4,-9.2 19.4,-9.8 19.4,-10.4 19.4,-10.9 19.3,-11.4 19.4,-12.1 19.4,-12.6 19.4,-13.1 19.4,-13.8 19.4,-14.3 19.4,-14.8 19.4,-15.4 19.4,-16 19.4,-16.5 5.7,-5 M 108,316.6 l 9.7,-3 19.4,-6.4 19.4,-7 19.4,-7.6 19.4,-8.1 19.4,-8.7 19.4,-9.2 19.4,-9.8 19.4,-10.4 19.4,-10.9 19.3,-11.4 19.4,-12.1 19.4,-12.6 19.4,-13.1 19.4,-13.8 19.4,-14.3 19.4,-14.8 19.4,-15.4 19.4,-16 19.4,-16.5 5.7,-5 M 108,316.6 l 9.7,-3 19.4,-6.4 19.4,-7 19.4,-7.6 19.4,-8.1 19.4,-8.7 19.4,-9.2 19.4,-9.8 19.4,-10.4 19.4,-10.9 19.3,-11.4 19.4,-12.1 19.4,-12.6 19.4,-13.1 19.4,-13.8 19.4,-14.3 19.4,-14.8 19.4,-15.4 19.4,-16 19.4,-16.5 5.7,-5 M 108,316.6 l 9.7,-3 19.4,-6.4 19.4,-7 19.4,-7.6 19.4,-8.1 19.4,-8.7 19.4,-9.2 19.4,-9.8 19.4,-10.4 19.4,-10.9 19.3,-11.4 19.4,-12.1 19.4,-12.6 19.4,-13.1 19.4,-13.8 19.4,-14.3 19.4,-14.8 19.4,-15.4 19.4,-16 19.4,-16.5 5.7,-5 h 0.01"
         id="path169"
         style="stroke:#add8e6;stroke-opacity:1" />
      <path
         inkscape:connector-curvature="0"
         d="m 108,316.6 9.7,-3 19.4,-6.4 19.4,-7 19.4,-7.6 19.4,-8.1 19.4,-8.7 19.4,-9.2 19.4,-9.8 19.4,-10.4 19.4,-10.9 19.3,-11.4 19.4,-12.1 19.4,-12.6 19.4,-13.1 19.4,-13.8 19.4,-14.3 19.4,-14.8 19.4,-15.4 19.4,-16 19.4,-16.5 5.7,-5 M 108,316.6 l 9.7,-3 19.4,-6.4 19.4,-7 19.4,-7.6 19.4,-8.1 19.4,-8.7 19.4,-9.2 19.4,-9.8 19.4,-10.4 19.4,-10.9 19.3,-11.4 19.4,-12.1 19.4,-12.6 19.4,-13.1 19.4,-13.8 19.4,-14.3 19.4,-14.8 19.4,-15.4 19.4,-16 19.4,-16.5 5.7,-5 M 108,316.6 l 9.7,-3 19.4,-6.4 19.4,-7 19.4,-7.6 19.4,-8.1 19.4,-8.7 19.4,-9.2 19.4,-9.8 19.4,-10.4 19.4,-10.9 19.3,-11.4 19.4,-12.1 19.4,-12.6 19.4,-13.1 19.4,-13.8 19.4,-14.3 19.4,-14.8 19.4,-15.4 19.4,-16 19.4,-16.5 5.7,-5 M 108,316.6 l 9.7,-3 19.4,-6.4 19.4,-7 19.4,-7.6 19.4,-8.1 19.4,-8.7 19.4,-9.2 19.4,-9.8 19.4,-10.4 19.4,-10.9 19.3,-11.4 19.4,-12.1 19.4,-12.6 19.4,-13.1 19.4,-13.8 19.4,-14.3 19.4,-14.8 19.4,-15.4 19.4,-16 19.4,-16.5 5.7,-5 M 108,316.6 l 9.7,-3 19.4,-6.4 19.4,-7 19.4,-7.6 19.4,-8.1 19.4,-8.7 19.4,-9.2 19.4,-9.8 19.4,-10.4 19.4,-10.9 19.3,-11.4 19.4,-12.1 19.4,-12.6 19.4,-13.1 19.4,-13.8 19.4,-14.3 19.4,-14.8 19.4,-15.4 19.4,-16 19.4,-16.5 5.7,-5 M 108,316.6 l 9.7,-3 19.4,-6.4 19.4,-7 19.4,-7.6 19.4,-8.1 19.4,-8.7 19.4,-9.2 19.4,-9.8 19.4,-10.4 19.4,-10.9 19.3,-11.4 19.4,-12.1 19.4,-12.6 19.4,-13.1 19.4,-13.8 19.4,-14.3 19.4,-14.8 19.4,-15.4 19.4,-16 19.4,-16.5 5.7,-5 M 108,316.6 l 9.7,-3 19.4,-6.4 19.4,-7 19.4,-7.6 19.4,-8.1 19.4,-8.7 19.4,-9.2 19.4,-9.8 19.4,-10.4 19.4,-10.9 19.3,-11.4 19.4,-12.1 19.4,-12.6 19.4,-13.1 19.4,-13.8 19.4,-14.3 19.4,-14.8 19.4,-15.4 19.4,-16 19.4,-16.5 5.7,-5 M 108,316.6 l 9.7,-3 19.4,-6.4 19.4,-7 19.4,-7.6 19.4,-8.1 19.4,-8.7 19.4,-9.2 19.4,-9.8 19.4,-10.4 19.4,-10.9 19.3,-11.4 19.4,-12.1 19.4,-12.6 19.4,-13.1 19.4,-13.8 19.4,-14.3 19.4,-14.8 19.4,-15.4 19.4,-16 19.4,-16.5 5.7,-5 M 108,316.6 l 9.7,-3 19.4,-6.4 19.4,-7 19.4,-7.6 19.4,-8.1 19.4,-8.7 19.4,-9.2 19.4,-9.8 19.4,-10.4 19.4,-10.9 19.3,-11.4 19.4,-12.1 19.4,-12.6 19.4,-13.1 19.4,-13.8 19.4,-14.3 19.4,-14.8 19.4,-15.4 19.4,-16 19.4,-16.5 5.7,-5 M 108,316.6 l 9.7,-3 19.4,-6.4 19.4,-7 19.4,-7.6 19.4,-8.1 19.4,-8.7 19.4,-9.2 19.4,-9.8 19.4,-10.4 19.4,-10.9 19.3,-11.4 19.4,-12.1 19.4,-12.6 19.4,-13.1 19.4,-13.8 19.4,-14.3 19.4,-14.8 19.4,-15.4 19.4,-16 19.4,-16.5 5.7,-5 M 108,316.6 l 9.7,-3 19.4,-6.4 19.4,-7 19.4,-7.6 19.4,-8.1 19.4,-8.7 19.4,-9.2 19.4,-9.8 19.4,-10.4 19.4,-10.9 19.3,-11.4 19.4,-12.1 19.4,-12.6 19.4,-13.1 19.4,-13.8 19.4,-14.3 19.4,-14.8 19.4,-15.4 19.4,-16 19.4,-16.5 5.7,-5 M 108,316.6 l 9.7,-3 19.4,-6.4 19.4,-7 19.4,-7.6 19.4,-8.1 19.4,-8.7 19.4,-9.2 19.4,-9.8 19.4,-10.4 19.4,-10.9 19.3,-11.4 19.4,-12.1 19.4,-12.6 19.4,-13.1 19.4,-13.8 19.4,-14.3 19.4,-14.8 19.4,-15.4 19.4,-16 19.4,-16.5 5.7,-5 M 108,316.6 l 9.7,-3 19.4,-6.4 19.4,-7 19.4,-7.6 19.4,-8.1 19.4,-8.7 19.4,-9.2 19.4,-9.8 19.4,-10.4 19.4,-10.9 19.3,-11.4 19.4,-12.1 19.4,-12.6 19.4,-13.1 19.4,-13.8 19.4,-14.3 19.4,-14.8 19.4,-15.4 19.4,-16 19.4,-16.5 5.7,-5 M 108,316.6 l 9.7,-3 19.4,-6.4 19.4,-7 19.4,-7.6 19.4,-8.1 19.4,-8.7 19.4,-9.2 19.4,-9.8 19.4,-10.4 19.4,-10.9 19.3,-11.4 19.4,-12.1 19.4,-12.6 19.4,-13.1 19.4,-13.8 19.4,-14.3 19.4,-14.8 19.4,-15.4 19.4,-16 19.4,-16.5 5.7,-5 M 108,316.6 l 9.7,-3 19.4,-6.4 19.4,-7 19.4,-7.6 19.4,-8.1 19.4,-8.7 19.4,-9.2 19.4,-9.8 19.4,-10.4 19.4,-10.9 19.3,-11.4 19.4,-12.1 19.4,-12.6 19.4,-13.1 19.4,-13.8 19.4,-14.3 19.4,-14.8 19.4,-15.4 19.4,-16 19.4,-16.5 5.7,-5 M 108,316.6 l 9.7,-3 19.4,-6.4 19.4,-7 19.4,-7.6 19.4,-8.1 19.4,-8.7 19.4,-9.2 19.4,-9.8 19.4,-10.4 19.4,-10.9 19.3,-11.4 19.4,-12.1 19.4,-12.6 19.4,-13.1 19.4,-13.8 19.4,-14.3 19.4,-14.8 19.4,-15.4 19.4,-16 19.4,-16.5 5.7,-5 M 108,316.6 l 9.7,-3 19.4,-6.4 19.4,-7 19.4,-7.6 19.4,-8.1 19.4,-8.7 19.4,-9.2 19.4,-9.8 19.4,-10.4 19.4,-10.9 19.3,-11.4 19.4,-12.1 19.4,-12.6 19.4,-13.1 19.4,-13.8 19.4,-14.3 19.4,-14.8 19.4,-15.4 19.4,-16 19.4,-16.5 5.7,-5 M 108,316.6 l 9.7,-3 19.4,-6.4 19.4,-7 19.4,-7.6 19.4,-8.1 19.4,-8.7 19.4,-9.2 19.4,-9.8 19.4,-10.4 19.4,-10.9 19.3,-11.4 19.4,-12.1 19.4,-12.6 19.4,-13.1 19.4,-13.8 19.4,-14.3 19.4,-14.8 19.4,-15.4 19.4,-16 19.4,-16.5 5.7,-5 M 108,316.6 l 9.7,-3 19.4,-6.4 19.4,-7 19.4,-7.6 19.4,-8.1 19.4,-8.7 19.4,-9.2 19.4,-9.8 19.4,-10.4 19.4,-10.9 19.3,-11.4 19.4,-12.1 19.4,-12.6 19.4,-13.1 19.4,-13.8 19.4,-14.3 19.4,-14.8 19.4,-15.4 19.4,-16 19.4,-16.5 5.7,-5 M 108,316.6 l 9.7,-3 19.4,-6.4 19.4,-7 19.4,-7.6 19.4,-8.1 19.4,-8.7 19.4,-9.2 19.4,-9.8 19.4,-10.4 19.4,-10.9 19.3,-11.4 19.4,-12.1 19.4,-12.6 19.4,-13.1 19.4,-13.8 19.4,-14.3 19.4,-14.8 19.4,-15.4 19.4,-16 19.4,-16.5 5.7,-5 M 108,316.6 l 9.7,-3 19.4,-6.4 19.4,-7 19.4,-7.6 19.4,-8.1 19.4,-8.7 19.4,-9.2 19.4,-9.8 19.4,-10.4 19.4,-10.9 19.3,-11.4 19.4,-12.1 19.4,-12.6 19.4,-13.1 19.4,-13.8 19.4,-14.3 19.4,-14.8 19.4,-15.4 19.4,-16 19.4,-16.5 5.7,-5 M 108,316.6 l 9.7,-3 19.4,-6.4 19.4,-7 19.4,-7.6 19.4,-8.1 19.4,-8.7 19.4,-9.2 19.4,-9.8 19.4,-10.4 19.4,-10.9 19.3,-11.4 19.4,-12.1 19.4,-12.6 19.4,-13.1 19.4,-13.8 19.4,-14.3 19.4,-14.8 19.4,-15.4 19.4,-16 19.4,-16.5 5.7,-5 M 108,316.6 l 9.7,-3 19.4,-6.4 19.4,-7 19.4,-7.6 19.4,-8.1 19.4,-8.7 19.4,-9.2 19.4,-9.8 19.4,-10.4 19.4,-10.9 19.3,-11.4 19.4,-12.1 19.4,-12.6 19.4,-13.1 19.4,-13.8 19.4,-14.3 19.4,-14.8 19.4,-15.4 19.4,-16 19.4,-16.5 5.7,-5 M 108,316.6 l 9.7,-3 19.4,-6.4 19.4,-7 19.4,-7.6 19.4,-8.1 19.4,-8.7 19.4,-9.2 19.4,-9.8 19.4,-10.4 19.4,-10.9 19.3,-11.4 19.4,-12.1 19.4,-12.6 19.4,-13.1 19.4,-13.8 19.4,-14.3 19.4,-14.8 19.4,-15.4 19.4,-16 19.4,-16.5 5.7,-5 h 0.01"
         id="path171"
         style="stroke:#add8e6;stroke-opacity:1" />
      <path
         inkscape:connector-curvature="0"
         d="m 108,316.6 9.7,-3 19.4,-6.4 19.4,-7 19.4,-7.6 19.4,-8.1 19.4,-8.7 19.4,-9.2 19.4,-9.8 19.4,-10.4 19.4,-10.9 19.3,-11.4 19.4,-12.1 19.4,-12.6 19.4,-13.1 19.4,-13.8 19.4,-14.3 19.4,-14.8 19.4,-15.4 19.4,-16 19.4,-16.5 5.7,-5 M 108,316.6 l 9.7,-3 19.4,-6.4 19.4,-7 19.4,-7.6 19.4,-8.1 19.4,-8.7 19.4,-9.2 19.4,-9.8 19.4,-10.4 19.4,-10.9 19.3,-11.4 19.4,-12.1 19.4,-12.6 19.4,-13.1 19.4,-13.8 19.4,-14.3 19.4,-14.8 19.4,-15.4 19.4,-16 19.4,-16.5 5.7,-5 M 108,316.6 l 9.7,-3 19.4,-6.4 19.4,-7 19.4,-7.6 19.4,-8.1 19.4,-8.7 19.4,-9.2 19.4,-9.8 19.4,-10.4 19.4,-10.9 19.3,-11.4 19.4,-12.1 19.4,-12.6 19.4,-13.1 19.4,-13.8 19.4,-14.3 19.4,-14.8 19.4,-15.4 19.4,-16 19.4,-16.5 5.7,-5 M 108,316.6 l 9.7,-3 19.4,-6.4 19.4,-7 19.4,-7.6 19.4,-8.1 19.4,-8.7 19.4,-9.2 19.4,-9.8 19.4,-10.4 19.4,-10.9 19.3,-11.4 19.4,-12.1 19.4,-12.6 19.4,-13.1 19.4,-13.8 19.4,-14.3 19.4,-14.8 19.4,-15.4 19.4,-16 19.4,-16.5 5.7,-5 M 108,316.6 l 9.7,-3 19.4,-6.4 19.4,-7 19.4,-7.6 19.4,-8.1 19.4,-8.7 19.4,-9.2 19.4,-9.8 19.4,-10.4 19.4,-10.9 19.3,-11.4 19.4,-12.1 19.4,-12.6 19.4,-13.1 19.4,-13.8 19.4,-14.3 19.4,-14.8 19.4,-15.4 19.4,-16 19.4,-16.5 5.7,-5 M 108,316.6 l 9.7,-3 19.4,-6.4 19.4,-7 19.4,-7.6 19.4,-8.1 19.4,-8.7 19.4,-9.2 19.4,-9.8 19.4,-10.4 19.4,-10.9 19.3,-11.4 19.4,-12.1 19.4,-12.6 19.4,-13.1 19.4,-13.8 19.4,-14.3 19.4,-14.8 19.4,-15.4 19.4,-16 19.4,-16.5 5.7,-5 M 108,316.6 l 9.7,-3 19.4,-6.4 19.4,-7 19.4,-7.6 19.4,-8.1 19.4,-8.7 19.4,-9.2 19.4,-9.8 19.4,-10.4 19.4,-10.9 19.3,-11.4 19.4,-12.1 19.4,-12.6 19.4,-13.1 19.4,-13.8 19.4,-14.3 19.4,-14.8 19.4,-15.4 19.4,-16 19.4,-16.5 5.7,-5 M 108,316.6 l 9.7,-3 19.4,-6.4 19.4,-7 19.4,-7.6 19.4,-8.1 19.4,-8.7 19.4,-9.2 19.4,-9.8 19.4,-10.4 19.4,-10.9 19.3,-11.4 19.4,-12.1 19.4,-12.6 19.4,-13.1 19.4,-13.8 19.4,-14.3 19.4,-14.8 19.4,-15.4 19.4,-16 19.4,-16.5 5.7,-5 M 108,316.6 l 9.7,-3 19.4,-6.4 19.4,-7 19.4,-7.6 19.4,-8.1 19.4,-8.7 19.4,-9.2 19.4,-9.8 19.4,-10.4 19.4,-10.9 19.3,-11.4 19.4,-12.1 19.4,-12.6 19.4,-13.1 19.4,-13.8 19.4,-14.3 19.4,-14.8 19.4,-15.4 19.4,-16 19.4,-16.5 5.7,-5 M 108,316.6 l 9.7,-3 19.4,-6.4 19.4,-7 19.4,-7.6 19.4,-8.1 19.4,-8.7 19.4,-9.2 19.4,-9.8 19.4,-10.4 19.4,-10.9 19.3,-11.4 19.4,-12.1 19.4,-12.6 19.4,-13.1 19.4,-13.8 19.4,-14.3 19.4,-14.8 19.4,-15.4 19.4,-16 19.4,-16.5 5.7,-5 M 108,316.6 l 9.7,-3 19.4,-6.4 19.4,-7 19.4,-7.6 19.4,-8.1 19.4,-8.7 19.4,-9.2 19.4,-9.8 19.4,-10.4 19.4,-10.9 19.3,-11.4 19.4,-12.1 19.4,-12.6 19.4,-13.1 19.4,-13.8 19.4,-14.3 19.4,-14.8 19.4,-15.4 19.4,-16 19.4,-16.5 5.7,-5 M 108,316.6 l 9.7,-3 19.4,-6.4 19.4,-7 19.4,-7.6 19.4,-8.1 19.4,-8.7 19.4,-9.2 19.4,-9.8 19.4,-10.4 19.4,-10.9 19.3,-11.4 19.4,-12.1 19.4,-12.6 19.4,-13.1 19.4,-13.8 19.4,-14.3 19.4,-14.8 19.4,-15.4 19.4,-16 19.4,-16.5 5.7,-5 M 108,316.6 l 9.7,-3 19.4,-6.4 19.4,-7 19.4,-7.6 19.4,-8.1 19.4,-8.7 19.4,-9.2 19.4,-9.8 19.4,-10.4 19.4,-10.9 19.3,-11.4 19.4,-12.1 19.4,-12.6 19.4,-13.1 19.4,-13.8 19.4,-14.3 19.4,-14.8 19.4,-15.4 19.4,-16 19.4,-16.5 5.7,-5 M 108,316.6 l 9.7,-3 19.4,-6.4 19.4,-7 19.4,-7.6 19.4,-8.1 19.4,-8.7 19.4,-9.2 19.4,-9.8 19.4,-10.4 19.4,-10.9 19.3,-11.4 19.4,-12.1 19.4,-12.6 19.4,-13.1 19.4,-13.8 19.4,-14.3 19.4,-14.8 19.4,-15.4 19.4,-16 19.4,-16.5 5.7,-5 M 108,316.6 l 9.7,-3 19.4,-6.4 19.4,-7 19.4,-7.6 19.4,-8.1 19.4,-8.7 19.4,-9.2 19.4,-9.8 19.4,-10.4 19.4,-10.9 19.3,-11.4 19.4,-12.1 19.4,-12.6 19.4,-13.1 19.4,-13.8 19.4,-14.3 19.4,-14.8 19.4,-15.4 19.4,-16 19.4,-16.5 5.7,-5 M 108,316.6 l 9.7,-3 19.4,-6.4 19.4,-7 19.4,-7.6 19.4,-8.1 19.4,-8.7 19.4,-9.2 19.4,-9.8 19.4,-10.4 19.4,-10.9 19.3,-11.4 19.4,-12.1 19.4,-12.6 19.4,-13.1 19.4,-13.8 19.4,-14.3 19.4,-14.8 19.4,-15.4 19.4,-16 19.4,-16.5 5.7,-5 M 108,316.6 l 9.7,-3 19.4,-6.4 19.4,-7 19.4,-7.6 19.4,-8.1 19.4,-8.7 19.4,-9.2 19.4,-9.8 19.4,-10.4 19.4,-10.9 19.3,-11.4 19.4,-12.1 19.4,-12.6 19.4,-13.1 19.4,-13.8 19.4,-14.3 19.4,-14.8 19.4,-15.4 19.4,-16 19.4,-16.5 5.7,-5 M 108,316.6 l 9.7,-3 19.4,-6.4 19.4,-7 19.4,-7.6 19.4,-8.1 19.4,-8.7 19.4,-9.2 19.4,-9.8 19.4,-10.4 19.4,-10.9 19.3,-11.4 19.4,-12.1 19.4,-12.6 19.4,-13.1 19.4,-13.8 19.4,-14.3 19.4,-14.8 19.4,-15.4 19.4,-16 19.4,-16.5 5.7,-5 M 108,316.6 l 9.7,-3 19.4,-6.4 19.4,-7 19.4,-7.6 19.4,-8.1 19.4,-8.7 19.4,-9.2 19.4,-9.8 19.4,-10.4 19.4,-10.9 19.3,-11.4 19.4,-12.1 19.4,-12.6 19.4,-13.1 19.4,-13.8 19.4,-14.3 19.4,-14.8 19.4,-15.4 19.4,-16 19.4,-16.5 5.7,-5 M 108,316.6 l 9.7,-3 19.4,-6.4 19.4,-7 19.4,-7.6 19.4,-8.1 19.4,-8.7 19.4,-9.2 19.4,-9.8 19.4,-10.4 19.4,-10.9 19.3,-11.4 19.4,-12.1 19.4,-12.6 19.4,-13.1 19.4,-13.8 19.4,-14.3 19.4,-14.8 19.4,-15.4 19.4,-16 19.4,-16.5 5.7,-5 M 108,316.6 l 9.7,-3 19.4,-6.4 19.4,-7 19.4,-7.6 19.4,-8.1 19.4,-8.7 19.4,-9.2 19.4,-9.8 19.4,-10.4 19.4,-10.9 19.3,-11.4 19.4,-12.1 19.4,-12.6 19.4,-13.1 19.4,-13.8 19.4,-14.3 19.4,-14.8 19.4,-15.4 19.4,-16 19.4,-16.5 5.7,-5 M 108,316.6 l 9.7,-3 19.4,-6.4 19.4,-7 19.4,-7.6 19.4,-8.1 19.4,-8.7 19.4,-9.2 19.4,-9.8 19.4,-10.4 19.4,-10.9 19.3,-11.4 19.4,-12.1 19.4,-12.6 19.4,-13.1 19.4,-13.8 19.4,-14.3 19.4,-14.8 19.4,-15.4 19.4,-16 19.4,-16.5 5.7,-5 M 108,316.6 l 9.7,-3 19.4,-6.4 19.4,-7 19.4,-7.6 19.4,-8.1 19.4,-8.7 19.4,-9.2 19.4,-9.8 19.4,-10.4 19.4,-10.9 19.3,-11.4 19.4,-12.1 19.4,-12.6 19.4,-13.1 19.4,-13.8 19.4,-14.3 19.4,-14.8 19.4,-15.4 19.4,-16 19.4,-16.5 5.7,-5 M 108,316.6 l 9.7,-3 19.4,-6.4 19.4,-7 19.4,-7.6 19.4,-8.1 19.4,-8.7 19.4,-9.2 19.4,-9.8 19.4,-10.4 19.4,-10.9 19.3,-11.4 19.4,-12.1 19.4,-12.6 19.4,-13.1 19.4,-13.8 19.4,-14.3 19.4,-14.8 19.4,-15.4 19.4,-16 19.4,-16.5 5.7,-5 h 0.01"
         id="path173"
         style="stroke:#add8e6;stroke-opacity:1" />
      <path
         inkscape:connector-curvature="0"
         d="m 108,316.6 9.7,-3 19.4,-6.4 19.4,-7 19.4,-7.6 19.4,-8.1 19.4,-8.7 19.4,-9.2 19.4,-9.8 19.4,-10.4 19.4,-10.9 19.3,-11.4 19.4,-12.1 19.4,-12.6 19.4,-13.1 19.4,-13.8 19.4,-14.3 19.4,-14.8 19.4,-15.4 19.4,-16 19.4,-16.5 5.7,-5 M 108,316.6 l 9.7,-3 19.4,-6.4 19.4,-7 19.4,-7.6 19.4,-8.1 19.4,-8.7 19.4,-9.2 19.4,-9.8 19.4,-10.4 19.4,-10.9 19.3,-11.4 19.4,-12.1 19.4,-12.6 19.4,-13.1 19.4,-13.8 19.4,-14.3 19.4,-14.8 19.4,-15.4 19.4,-16 19.4,-16.5 5.7,-5 M 108,316.6 l 9.7,-3 19.4,-6.4 19.4,-7 19.4,-7.6 19.4,-8.1 19.4,-8.7 19.4,-9.2 19.4,-9.8 19.4,-10.4 19.4,-10.9 19.3,-11.4 19.4,-12.1 19.4,-12.6 19.4,-13.1 19.4,-13.8 19.4,-14.3 19.4,-14.8 19.4,-15.4 19.4,-16 19.4,-16.5 5.7,-5 M 108,316.6 l 9.7,-3 19.4,-6.4 19.4,-7 19.4,-7.6 19.4,-8.1 19.4,-8.7 19.4,-9.2 19.4,-9.8 19.4,-10.4 19.4,-10.9 19.3,-11.4 19.4,-12.1 19.4,-12.6 19.4,-13.1 19.4,-13.8 19.4,-14.3 19.4,-14.8 19.4,-15.4 19.4,-16 19.4,-16.5 5.7,-5 M 117.7,313.6 m 19.4,-6.4 m 19.4,-7 m 19.4,-7.6 m 19.4,-8.1 m 19.4,-8.7 m 19.4,-9.2 m 19.4,-9.8 m 19.4,-10.4 m 19.4,-10.9 m 19.3,-11.4 M 331,212 m 19.4,-12.6 m 19.4,-13.1 m 19.4,-13.8 m 19.4,-14.3 M 428,143.4 M 447.4,128 m 19.4,-16 m 19.4,-16.5 h 0.01"
         id="path175"
         style="stroke:#add8e6;stroke-opacity:1" />
    </g>
    <path
       style="fill:none;stroke:#ffffff;stroke-width:1px;stroke-linecap:butt;stroke-linejoin:miter;stroke-opacity:1;marker-end:url(#Arrow1LendG)"
       d="m 182.18828,589.71681 314.2335,43.365"
       id="path3670"
       inkscape:connector-curvature="0"
       sodipodi:nodetypes="cc" />
    <path
       sodipodi:nodetypes="cc"
       style="fill:none;stroke:#ffffff;stroke-width:1px;stroke-linecap:butt;stroke-linejoin:miter;stroke-opacity:1;marker-end:url(#Arrow1LendP)"
       d="M 182.4618,590.03907 274.01736,408.87593"
       id="path3672"
       inkscape:connector-curvature="0" />
    <path
       sodipodi:nodetypes="cc"
       style="fill:none;stroke:#ffffff;stroke-width:1;stroke-linecap:butt;stroke-linejoin:miter;stroke-miterlimit:4;stroke-opacity:1;stroke-dasharray:4, 4;stroke-dashoffset:0;marker-end:none"
       d="m 374.01421,547.8326 0,-44.15446"
       id="path3680"
       inkscape:connector-curvature="0" />
    <path
       sodipodi:type="arc"
       style="fill:#ffc0cb;fill-opacity:1;stroke:none;stroke-width:1;stroke-linecap:round;stroke-miterlimit:4;stroke-opacity:1;stroke-dasharray:4, 4;stroke-dashoffset:0"
       id="path3695"
       sodipodi:cx="188.35049"
       sodipodi:cy="506.9248"
       sodipodi:rx="3.2466509"
       sodipodi:ry="3.2466509"
       d="m 186.87534,504.03263 a 3.2466509,3.2466509 0 1 1 -0.014,0.007"
       sodipodi:start="4.2407348"
       sodipodi:end="10.519063"
       sodipodi:open="true"
       transform="translate(185.05911,-3.2466511)" />
    <g
       id="g5617"
       style="fill:#ffffff"
       transform="matrix(0.3577497,0,0,0.3577497,337.7746,469.03186)">
      <g
         word-spacing="normal"
         letter-spacing="normal"
         font-size-adjust="none"
         font-stretch="normal"
         font-weight="normal"
         font-variant="normal"
         font-style="normal"
         stroke-miterlimit="10.433"
         xml:space="preserve"
         transform="matrix(1.0629921,0,0,-1.0629921,-186.02362,789.27165)"
         id="content"
         style="font-style:normal;font-variant:normal;font-weight:normal;font-stretch:normal;letter-spacing:normal;word-spacing:normal;text-anchor:start;fill:#ffffff;fill-opacity:1;fill-rule:evenodd;stroke:#000000;stroke-linecap:butt;stroke-linejoin:miter;stroke-miterlimit:10.43299961;stroke-opacity:1;stroke-dasharray:none;stroke-dashoffset:0"><path
           id="path5620"
           d="m 462.14,410.34 0.25,0.27 0.24,0.25 0.24,0.25 0.23,0.24 0.22,0.23 0.22,0.22 0.21,0.22 0.2,0.21 0.2,0.2 0.2,0.19 0.19,0.19 0.19,0.19 0.18,0.17 0.19,0.18 0.35,0.33 0.34,0.32 0.33,0.3 0.33,0.29 0.32,0.29 0.65,0.56 0.33,0.29 0.33,0.28 c 0,0.05 3.08,2.69 4.88,4.49 4.73,4.64 5.83,7.03 5.83,7.21 0,0.5 -0.46,0.5 -0.55,0.5 -0.35,0 -0.5,-0.09 -0.75,-0.54 -1.49,-2.39 -2.53,-3.19 -3.74,-3.19 -1.2,0 -1.79,0.75 -2.54,1.59 -0.94,1.16 -1.78,2.14 -3.44,2.14 -3.73,0 -6.02,-4.62 -6.02,-5.67 0,-0.25 0.14,-0.54 0.6,-0.54 0.45,0 0.54,0.25 0.64,0.54 0.95,2.3 3.84,2.35 4.23,2.35 1.05,0 2,-0.36 3.14,-0.75 2,-0.75 2.55,-0.75 3.85,-0.75 -1.8,-2.14 -5.99,-5.74 -6.92,-6.53 l -4.49,-4.18 c -3.39,-3.34 -5.14,-6.18 -5.14,-6.53 0,-0.5 0.5,-0.5 0.59,-0.5 0.41,0 0.5,0.1 0.8,0.64 1.16,1.75 2.64,3.1 4.24,3.1 1.15,0 1.65,-0.46 2.89,-1.89 0.86,-1.05 1.75,-1.85 3.18,-1.85 4.94,0 7.83,6.33 7.83,7.67 0,0.25 -0.2,0.5 -0.59,0.5 -0.46,0 -0.55,-0.29 -0.71,-0.65 -1.14,-3.24 -4.32,-4.17 -5.98,-4.17 -0.98,0 -1.89,0.29 -2.94,0.64 -1.68,0.64 -2.43,0.84 -3.48,0.84 -0.1,0 -0.89,0 -1.35,-0.14 z"
           style="fill:#ffffff;stroke-width:0"
           inkscape:connector-curvature="0" /><path
           id="path5622"
           d="m 528.99,422.5 0.14,0 0.15,0 0.14,0 0.07,0.01 0.08,0 0.07,0.01 0.07,0.01 0.07,0.01 0.07,0.01 0.07,0.01 0.06,0.02 0.07,0.02 0.06,0.02 0.06,0.02 0.06,0.03 0.06,0.03 0.05,0.04 0.05,0.03 0.05,0.05 0.04,0.04 0.04,0.05 0.02,0.03 0.02,0.03 0.01,0.02 0.02,0.03 0.01,0.03 0.01,0.04 0.02,0.03 0.01,0.04 0.01,0.03 0.01,0.04 0,0.04 0.01,0.04 0,0.04 0.01,0.04 0,0.04 0,0.05 c 0,1 -0.95,1 -1.64,1 H 499.2 c -0.71,0 -1.65,0 -1.65,-1 0,-0.98 0.94,-0.98 1.69,-0.98 z"
           style="fill:#ffffff;stroke-width:0"
           inkscape:connector-curvature="0" /><path
           id="path5624"
           d="m 529.04,412.82 0.06,0 0.07,0 0.14,0.01 0.14,0 0.07,0 0.07,0.01 0.07,0.01 0.06,0 0.07,0.01 0.07,0.02 0.07,0.01 0.06,0.02 0.07,0.02 0.06,0.02 0.06,0.02 0.05,0.03 0.06,0.03 0.05,0.04 0.05,0.04 0.05,0.04 0.04,0.05 0.02,0.02 0.02,0.03 0.02,0.02 0.02,0.03 0.01,0.03 0.02,0.03 0.01,0.03 0.01,0.03 0.02,0.04 0.01,0.03 0.01,0.04 0.01,0.04 0,0.04 0.01,0.04 0,0.04 0.01,0.04 0,0.05 0,0.04 c 0,1 -0.95,1 -1.69,1 h -29.75 c -0.75,0 -1.69,0 -1.69,-1 0,-1 0.94,-1 1.65,-1 z"
           style="fill:#ffffff;stroke-width:0"
           inkscape:connector-curvature="0" /><path
           id="path5626"
           d="m 563.95,421.25 0.03,0.13 0.04,0.15 0.04,0.16 0.05,0.18 0.05,0.19 0.06,0.21 0.06,0.22 0.08,0.22 0.08,0.23 0.08,0.24 0.1,0.25 0.1,0.24 0.11,0.25 0.12,0.25 0.13,0.25 0.14,0.25 0.15,0.24 0.15,0.24 0.17,0.23 0.18,0.22 0.19,0.22 0.19,0.2 0.21,0.19 0.22,0.18 0.24,0.16 0.24,0.14 0.13,0.07 0.13,0.06 0.13,0.05 0.14,0.05 0.14,0.05 0.14,0.04 0.14,0.03 0.15,0.03 0.15,0.02 0.16,0.02 0.16,0.01 0.16,0 c 0.25,0 1.44,0 2.49,-0.64 -1.4,-0.25 -2.4,-1.5 -2.4,-2.69 0,-0.79 0.55,-1.75 1.9,-1.75 1.09,0 2.68,0.89 2.68,2.89 0,2.6 -2.94,3.28 -4.62,3.28 -2.89,0 -4.64,-2.64 -5.24,-3.78 -1.25,3.28 -3.93,3.78 -5.37,3.78 -5.19,0 -8.03,-6.42 -8.03,-7.67 0,-0.5 0.5,-0.5 0.61,-0.5 0.39,0 0.54,0.11 0.64,0.55 1.68,5.28 4.98,6.53 6.67,6.53 0.95,0 2.69,-0.44 2.69,-3.33 0,-1.54 -0.85,-4.89 -2.69,-11.86 -0.8,-3.09 -2.53,-5.18 -4.74,-5.18 -0.29,0 -1.43,0 -2.48,0.65 1.25,0.24 2.34,1.28 2.34,2.69 0,1.34 -1.09,1.73 -1.84,1.73 -1.5,0 -2.75,-1.29 -2.75,-2.89 0,-2.28 2.5,-3.28 4.69,-3.28 3.29,0 5.08,3.49 5.23,3.78 0.6,-1.84 2.39,-3.78 5.38,-3.78 5.14,0 7.98,6.42 7.98,7.67 0,0.5 -0.45,0.5 -0.61,0.5 -0.44,0 -0.54,-0.2 -0.64,-0.54 -1.64,-5.33 -5.03,-6.53 -6.62,-6.53 -1.96,0 -2.75,1.59 -2.75,3.29 0,1.1 0.29,2.19 0.86,4.38 z"
           style="fill:#ffffff;stroke-width:0"
           inkscape:connector-curvature="0" /><path
           id="path5628"
           d="m 593.35,430.54 h -1.18 c -0.1,-0.76 -0.45,-2.83 -0.91,-3.17 -0.26,-0.2 -2.95,-0.2 -3.44,-0.2 h -6.42 c 3.66,3.23 4.88,4.2 6.97,5.84 2.58,2.06 4.98,4.22 4.98,7.53 0,4.22 -3.68,6.8 -8.15,6.8 -4.31,0 -7.25,-3.03 -7.25,-6.23 0,-1.79 1.5,-1.96 1.86,-1.96 0.83,0 1.84,0.6 1.84,1.85 0,0.62 -0.25,1.84 -2.06,1.84 1.08,2.47 3.45,3.23 5.09,3.23 3.49,0 5.3,-2.7 5.3,-5.53 0,-3.03 -2.16,-5.43 -3.28,-6.68 l -8.39,-8.3 c -0.36,-0.31 -0.36,-0.39 -0.36,-1.36 h 14.36 z"
           style="fill:#ffffff;stroke-width:0"
           inkscape:connector-curvature="0" /><path
           id="path5630"
           d="m 629.61,417.65 h 13.91 c 0.69,0 1.64,0 1.64,1 0,1 -0.95,1 -1.64,1 h -13.91 v 13.96 c 0,0.68 0,1.64 -1,1.64 -0.98,0 -0.98,-0.96 -0.98,-1.64 v -13.96 h -13.95 c -0.71,0 -1.65,0 -1.65,-1 0,-1 0.94,-1 1.65,-1 h 13.95 v -13.94 c 0,-0.7 0,-1.65 0.98,-1.65 1,0 1,0.95 1,1.65 z"
           style="fill:#ffffff;stroke-width:0"
           inkscape:connector-curvature="0" /><path
           id="path5632"
           d="m 683.26,425.18 0.01,0.04 0,0.03 0.02,0.06 0.02,0.05 0.01,0.06 0.01,0.05 0.01,0.04 0.02,0.05 0.01,0.04 0.01,0.04 0,0.04 0.01,0.04 0.01,0.04 0.01,0.03 0,0.03 0.01,0.03 0,0.03 0.01,0.03 0,0.03 0.01,0.05 0,0.06 0,0.05 0,0.05 0,0.05 0,0.03 0,0.03 0.01,0.03 0,0.03 c 0,0.91 -0.69,1.35 -1.44,1.35 -0.5,0 -1.3,-0.3 -1.75,-1.05 -0.1,-0.25 -0.5,-1.78 -0.69,-2.69 -0.36,-1.29 -0.7,-2.64 -1,-3.98 l -2.25,-8.97 c -0.19,-0.75 -2.33,-4.23 -5.62,-4.23 -2.54,0 -3.1,2.18 -3.1,4.03 0,2.29 0.86,5.39 2.55,9.76 0.8,2.05 1,2.6 1,3.6 0,2.23 -1.6,4.07 -4.1,4.07 -4.73,0 -6.57,-7.21 -6.57,-7.67 0,-0.5 0.5,-0.5 0.61,-0.5 0.5,0 0.54,0.11 0.79,0.91 1.35,4.69 3.33,6.17 5.03,6.17 0.39,0 1.25,0 1.25,-1.59 0,-1.25 -0.5,-2.53 -0.86,-3.49 -1.98,-5.28 -2.89,-8.12 -2.89,-10.47 0,-4.42 3.14,-5.92 6.08,-5.92 1.96,0 3.64,0.85 5.03,2.24 -0.64,-2.58 -1.23,-5.03 -3.23,-7.68 -1.3,-1.68 -3.19,-3.14 -5.49,-3.14 -0.68,0 -2.93,0.16 -3.78,2.1 0.8,0 1.46,0 2.14,0.61 0.5,0.43 1,1.09 1,2.03 0,1.55 -1.34,1.75 -1.84,1.75 -1.14,0 -2.8,-0.8 -2.8,-3.24 0,-2.5 2.21,-4.34 5.28,-4.34 5.15,0 10.27,4.55 11.68,10.17 z"
           style="fill:#ffffff;stroke-width:0"
           inkscape:connector-curvature="0" /><path
           id="path5634"
           d="m 702.91,430.54 h -1.18 c -0.1,-0.76 -0.46,-2.83 -0.91,-3.17 -0.27,-0.2 -2.95,-0.2 -3.44,-0.2 h -6.42 c 3.66,3.23 4.88,4.2 6.97,5.84 2.58,2.06 4.98,4.22 4.98,7.53 0,4.22 -3.68,6.8 -8.15,6.8 -4.31,0 -7.25,-3.03 -7.25,-6.23 0,-1.79 1.5,-1.96 1.86,-1.96 0.83,0 1.84,0.6 1.84,1.85 0,0.62 -0.25,1.84 -2.06,1.84 1.08,2.47 3.45,3.23 5.09,3.23 3.49,0 5.3,-2.7 5.3,-5.53 0,-3.03 -2.16,-5.43 -3.28,-6.68 l -8.39,-8.3 c -0.36,-0.31 -0.36,-0.39 -0.36,-1.36 h 14.36 z"
           style="fill:#ffffff;stroke-width:0"
           inkscape:connector-curvature="0" /></g>    </g>
  </g>
</svg>
