<?xml version="1.0" encoding="UTF-8" standalone="no"?>
<!-- Created with Inkscape (http://www.inkscape.org/) -->

<svg
   xmlns:dc="http://purl.org/dc/elements/1.1/"
   xmlns:cc="http://creativecommons.org/ns#"
   xmlns:rdf="http://www.w3.org/1999/02/22-rdf-syntax-ns#"
   xmlns:svg="http://www.w3.org/2000/svg"
   xmlns="http://www.w3.org/2000/svg"
   xmlns:xlink="http://www.w3.org/1999/xlink"
   xmlns:sodipodi="http://sodipodi.sourceforge.net/DTD/sodipodi-0.dtd"
   xmlns:inkscape="http://www.inkscape.org/namespaces/inkscape"
   width="210mm"
   height="297mm"
   id="svg3232"
   version="1.1"
   inkscape:version="0.48.3.1 r9886"
   sodipodi:docname="新規ドキュメント 2">
  <sodipodi:namedview
     id="base"
     pagecolor="#000000"
     bordercolor="#666666"
     borderopacity="1.0"
     inkscape:pageopacity="0"
     inkscape:pageshadow="2"
     inkscape:zoom="0.98994949"
     inkscape:cx="541.05448"
     inkscape:cy="549.23098"
     inkscape:document-units="px"
     inkscape:current-layer="layer1"
     showgrid="false"
     inkscape:window-width="1366"
     inkscape:window-height="746"
     inkscape:window-x="0"
     inkscape:window-y="22"
     inkscape:window-maximized="0" />
  <defs
     id="defs3234">
    <marker
       inkscape:stockid="Arrow1Lend"
       orient="auto"
       refY="0.0"
       refX="0.0"
       id="Arrow1Lend"
       style="overflow:visible;">
      <path
         id="path4487"
         d="M 0.0,0.0 L 5.0,-5.0 L -12.5,0.0 L 5.0,5.0 L 0.0,0.0 z "
         style="fill-rule:evenodd;stroke:#000000;stroke-width:1.0pt;"
         transform="scale(0.8) rotate(180) translate(12.5,0)" />
    </marker>
    <defs
       id="defs11">
      <circle
         r="0.5"
         id="gpDot"
         cx="0"
         cy="0"
         sodipodi:cx="0"
         sodipodi:cy="0"
         sodipodi:rx="0.5"
         sodipodi:ry="0.5"
         style="stroke-width:0.5" />
      <path
         d="M -1,0 H 1 M 0,-1 v 2"
         id="gpPt0"
         inkscape:connector-curvature="0"
         style="stroke:currentColor;stroke-width:0.222" />
      <path
         d="M -1,-1 1,1 M 1,-1 -1,1"
         id="gpPt1"
         inkscape:connector-curvature="0"
         style="stroke:currentColor;stroke-width:0.222" />
      <path
         d="M -1,0 1,0 M 0,-1 0,1 m -1,-2 2,2 m -2,0 2,-2"
         id="gpPt2"
         inkscape:connector-curvature="0"
         style="stroke:currentColor;stroke-width:0.222" />
      <rect
         height="2"
         width="2"
         y="-1"
         x="-1"
         id="gpPt3"
         style="stroke:currentColor;stroke-width:0.222" />
      <rect
         height="2"
         width="2"
         y="-1"
         x="-1"
         id="gpPt4"
         style="fill:currentColor;stroke:currentColor;stroke-width:0.222" />
      <circle
         r="1"
         cy="0"
         cx="0"
         id="gpPt5"
         sodipodi:cx="0"
         sodipodi:cy="0"
         sodipodi:rx="1"
         sodipodi:ry="1"
         style="stroke:currentColor;stroke-width:0.222" />
      <use
         id="gpPt6"
         xlink:href="#gpPt5"
         style="fill:currentColor;stroke:none"
         x="0"
         y="0"
         width="744.09448"
         height="1052.3622" />
      <path
         d="m 0,-1.33 -1.33,2 2.66,0 z"
         id="gpPt7"
         inkscape:connector-curvature="0"
         style="stroke:currentColor;stroke-width:0.222" />
      <use
         id="gpPt8"
         xlink:href="#gpPt7"
         style="fill:currentColor;stroke:none"
         x="0"
         y="0"
         width="744.09448"
         height="1052.3622" />
      <use
         transform="scale(-1,-1)"
         id="gpPt9"
         xlink:href="#gpPt7"
         style="stroke:currentColor"
         x="0"
         y="0"
         width="744.09448"
         height="1052.3622" />
      <use
         id="gpPt10"
         xlink:href="#gpPt9"
         style="fill:currentColor;stroke:none"
         x="0"
         y="0"
         width="744.09448"
         height="1052.3622" />
      <use
         transform="matrix(0.70710678,0.70710678,-0.70710678,0.70710678,0,0)"
         id="gpPt11"
         xlink:href="#gpPt3"
         style="stroke:currentColor"
         x="0"
         y="0"
         width="744.09448"
         height="1052.3622" />
      <use
         id="gpPt12"
         xlink:href="#gpPt11"
         style="fill:currentColor;stroke:none"
         x="0"
         y="0"
         width="744.09448"
         height="1052.3622" />
    </defs>
    <marker
       inkscape:stockid="Arrow1Lend1"
       orient="auto"
       refY="0.0"
       refX="0.0"
       id="Arrow1Lend1"
       style="overflow:visible;">
      <path
         id="path4944"
         d="M 0.0,0.0 L 5.0,-5.0 L -12.5,0.0 L 5.0,5.0 L 0.0,0.0 z "
         style="stroke:#90ee90;stroke-width:1.0pt;fill:#90ee90;fill-rule:evenodd"
         transform="scale(0.8) rotate(180) translate(12.5,0)" />
    </marker>
    <marker
       inkscape:stockid="Arrow1Lend1"
       orient="auto"
       refY="0"
       refX="0"
       id="Arrow1Lend1-3"
       style="overflow:visible">
      <path
         id="path4944-2"
         d="M 0,0 5,-5 -12.5,0 5,5 0,0 z"
         style="fill:#90ee90;fill-rule:evenodd;stroke:#90ee90;stroke-width:1pt"
         transform="matrix(-0.8,0,0,-0.8,-10,0)"
         inkscape:connector-curvature="0" />
    </marker>
  </defs>
  <metadata
     id="metadata3237">
    <rdf:RDF>
      <cc:Work
         rdf:about="">
        <dc:format>image/svg+xml</dc:format>
        <dc:type
           rdf:resource="http://purl.org/dc/dcmitype/StillImage" />
        <dc:title></dc:title>
      </cc:Work>
    </rdf:RDF>
  </metadata>
  <g
     inkscape:label="レイヤー 1"
     inkscape:groupmode="layer"
     id="layer1">
    <path
       sodipodi:nodetypes="cc"
       inkscape:connector-curvature="0"
       id="path5353"
       d="M 138.85859,261.51663 619.8354,742.91187"
       style="fill:none;stroke:#90ee90;stroke-width:1px;stroke-linecap:butt;stroke-linejoin:miter;stroke-opacity:1" />
    <path
       sodipodi:nodetypes="cc"
       style="fill:none;stroke:#90ee90;stroke-width:1px;stroke-linecap:butt;stroke-linejoin:miter;stroke-opacity:1;marker-end:none"
       d="m 125,503.07647 505,0"
       id="path4478"
       inkscape:connector-curvature="0" />
    <path
       style="fill:none;stroke:#add8e6;stroke-width:2;stroke-linecap:butt;stroke-linejoin:miter;stroke-opacity:1;stroke-miterlimit:4;stroke-dasharray:8,8;opacity:0.59999999999999998;stroke-dashoffset:0"
       d="m 220,342.36218 107.14286,320.71429 214.28571,0 L 434.28571,341.6479 z"
       id="path4476"
       inkscape:connector-curvature="0" />
    <rect
       style="opacity:0.59999999999999998;fill:none;fill-opacity:1;stroke:#add8e6;stroke-width:2;stroke-linecap:round;stroke-miterlimit:4;stroke-opacity:1;stroke-dasharray:8,8;stroke-dashoffset:0;stroke-linejoin:bevel"
       id="rect4261"
       width="108.08632"
       height="107.07617"
       x="327.28943"
       y="449.30112" />
    <g
       id="g27"
       style="color:#ffffff;fill:none;stroke:currentColor;stroke-width:1;stroke-linecap:butt;stroke-linejoin:miter"
       transform="translate(75,272.36218)" />
    <g
       id="g29"
       style="color:#000000;fill:#ffffff;stroke:#ffffff;stroke-width:1;stroke-linecap:butt;stroke-linejoin:miter"
       transform="translate(75,272.36218)">
      <path
         id="path31"
         d="m 92.5,444 9,0 m 418.3,0 -9,0 h 0.01"
         inkscape:connector-curvature="0"
         style="fill:#ffffff;stroke:#ffffff" />
      <g
         id="g33"
         style="font-size:15px;text-anchor:end;fill:#ffffff;stroke:#ffffff;font-family:Arial"
         transform="translate(84.2,448.5)">
        <text
           id="text35"
           style="fill:#ffffff;stroke:#ffffff">-4</text>
      </g>
      <path
         id="path37"
         d="m 92.5,390.6 9,0 m 418.3,0 -9,0 h 0.01"
         inkscape:connector-curvature="0"
         style="fill:#ffffff;stroke:#ffffff" />
      <g
         id="g39"
         style="font-size:15px;text-anchor:end;fill:#ffffff;stroke:#ffffff;font-family:Arial"
         transform="translate(84.2,395.1)">
        <text
           id="text41"
           style="fill:#ffffff;stroke:#ffffff">-3</text>
      </g>
      <path
         id="path43"
         d="m 92.5,337.2 9,0 m 418.3,0 -9,0 h 0.01"
         inkscape:connector-curvature="0"
         style="fill:#ffffff;stroke:#ffffff" />
      <g
         id="g45"
         style="font-size:15px;text-anchor:end;fill:#ffffff;stroke:#ffffff;font-family:Arial"
         transform="translate(84.2,341.7)">
        <text
           id="text47"
           style="fill:#ffffff;stroke:#ffffff">-2</text>
      </g>
      <path
         id="path49"
         d="m 92.5,283.8 9,0 m 418.3,0 -9,0 h 0.01"
         inkscape:connector-curvature="0"
         style="fill:#ffffff;stroke:#ffffff" />
      <g
         id="g51"
         style="font-size:15px;text-anchor:end;fill:#ffffff;stroke:#ffffff;font-family:Arial"
         transform="translate(84.2,288.3)">
        <text
           id="text53"
           style="fill:#ffffff;stroke:#ffffff">-1</text>
      </g>
      <path
         id="path55"
         d="m 92.5,230.3 9,0 m 418.3,0 -9,0 h 0.01"
         inkscape:connector-curvature="0"
         style="fill:#ffffff;stroke:#ffffff" />
      <g
         id="g57"
         style="font-size:15px;text-anchor:end;fill:#ffffff;stroke:#ffffff;font-family:Arial"
         transform="translate(84.2,234.8)">
        <text
           id="text59"
           style="fill:#ffffff;stroke:#ffffff">0</text>
      </g>
      <path
         id="path61"
         d="m 92.5,176.9 9,0 m 418.3,0 -9,0 h 0.01"
         inkscape:connector-curvature="0"
         style="fill:#ffffff;stroke:#ffffff" />
      <g
         id="g63"
         style="font-size:15px;text-anchor:end;fill:#ffffff;stroke:#ffffff;font-family:Arial"
         transform="translate(84.2,181.4)">
        <text
           id="text65"
           style="fill:#ffffff;stroke:#ffffff">1</text>
      </g>
      <path
         id="path67"
         d="m 92.5,123.5 9,0 m 418.3,0 -9,0 h 0.01"
         inkscape:connector-curvature="0"
         style="fill:#ffffff;stroke:#ffffff" />
      <g
         id="g69"
         style="font-size:15px;text-anchor:end;fill:#ffffff;stroke:#ffffff;font-family:Arial"
         transform="translate(84.2,128)">
        <text
           id="text71"
           style="fill:#ffffff;stroke:#ffffff">2</text>
      </g>
      <path
         id="path73"
         d="m 92.5,70.1 9,0 m 418.3,0 -9,0 h 0.01"
         inkscape:connector-curvature="0"
         style="fill:#ffffff;stroke:#ffffff" />
      <g
         id="g75"
         style="font-size:15px;text-anchor:end;fill:#ffffff;stroke:#ffffff;font-family:Arial"
         transform="translate(84.2,74.6)">
        <text
           id="text77"
           style="fill:#ffffff;stroke:#ffffff">3</text>
      </g>
      <path
         id="path79"
         d="m 92.5,16.7 9,0 m 418.3,0 -9,0 h 0.01"
         inkscape:connector-curvature="0"
         style="fill:#ffffff;stroke:#ffffff" />
      <g
         id="g81"
         style="font-size:15px;text-anchor:end;fill:#ffffff;stroke:#ffffff;font-family:Arial"
         transform="translate(84.2,21.2)">
        <text
           id="text83"
           style="fill:#ffffff;stroke:#ffffff">4</text>
      </g>
      <path
         id="path85"
         d="m 92.5,444 0,-9 m 0,-418.3 0,9 h 0.01"
         inkscape:connector-curvature="0"
         style="fill:#ffffff;stroke:#ffffff" />
      <g
         id="g87"
         style="font-size:15px;text-anchor:middle;fill:#ffffff;stroke:#ffffff;font-family:Arial"
         transform="translate(92.5,466.5)">
        <text
           id="text89"
           style="fill:#ffffff;stroke:#ffffff">-4</text>
      </g>
      <path
         id="path91"
         d="m 145.9,444 0,-9 m 0,-418.3 0,9 h 0.01"
         inkscape:connector-curvature="0"
         style="fill:#ffffff;stroke:#ffffff" />
      <g
         id="g93"
         style="font-size:15px;text-anchor:middle;fill:#ffffff;stroke:#ffffff;font-family:Arial"
         transform="translate(145.9,466.5)">
        <text
           id="text95"
           style="fill:#ffffff;stroke:#ffffff">-3</text>
      </g>
      <path
         id="path97"
         d="m 199.3,444 0,-9 m 0,-418.3 0,9 h 0.01"
         inkscape:connector-curvature="0"
         style="fill:#ffffff;stroke:#ffffff" />
      <g
         id="g99"
         style="font-size:15px;text-anchor:middle;fill:#ffffff;stroke:#ffffff;font-family:Arial"
         transform="translate(199.3,466.5)">
        <text
           id="text101"
           style="fill:#ffffff;stroke:#ffffff">-2</text>
      </g>
      <path
         id="path103"
         d="m 252.7,444 0,-9 m 0,-418.3 0,9 h 0.01"
         inkscape:connector-curvature="0"
         style="fill:#ffffff;stroke:#ffffff" />
      <g
         id="g105"
         style="font-size:15px;text-anchor:middle;fill:#ffffff;stroke:#ffffff;font-family:Arial"
         transform="translate(252.7,466.5)">
        <text
           id="text107"
           style="fill:#ffffff;stroke:#ffffff">-1</text>
      </g>
      <path
         id="path109"
         d="m 306.2,444 0,-9 m 0,-418.3 0,9 h 0.01"
         inkscape:connector-curvature="0"
         style="fill:#ffffff;stroke:#ffffff" />
      <g
         id="g111"
         style="font-size:15px;text-anchor:middle;fill:#ffffff;stroke:#ffffff;font-family:Arial"
         transform="translate(306.2,466.5)">
        <text
           id="text113"
           style="fill:#ffffff;stroke:#ffffff">0</text>
      </g>
      <path
         id="path115"
         d="m 359.6,444 0,-9 m 0,-418.3 0,9 h 0.01"
         inkscape:connector-curvature="0"
         style="fill:#ffffff;stroke:#ffffff" />
      <g
         id="g117"
         style="font-size:15px;text-anchor:middle;fill:#ffffff;stroke:#ffffff;font-family:Arial"
         transform="translate(359.6,466.5)">
        <text
           id="text119"
           style="fill:#ffffff;stroke:#ffffff">1</text>
      </g>
      <path
         id="path121"
         d="m 413,444 0,-9 m 0,-418.3 0,9 h 0.01"
         inkscape:connector-curvature="0"
         style="fill:#ffffff;stroke:#ffffff" />
      <g
         id="g123"
         style="font-size:15px;text-anchor:middle;fill:#ffffff;stroke:#ffffff;font-family:Arial"
         transform="translate(413,466.5)">
        <text
           id="text125"
           style="fill:#ffffff;stroke:#ffffff">2</text>
      </g>
      <path
         id="path127"
         d="m 466.4,444 0,-9 m 0,-418.3 0,9 h 0.01"
         inkscape:connector-curvature="0"
         style="fill:#ffffff;stroke:#ffffff" />
      <g
         id="g129"
         style="font-size:15px;text-anchor:middle;fill:#ffffff;stroke:#ffffff;font-family:Arial"
         transform="translate(466.4,466.5)">
        <text
           id="text131"
           style="fill:#ffffff;stroke:#ffffff">3</text>
      </g>
      <path
         id="path133"
         d="m 519.8,444 0,-9 m 0,-418.3 0,9 h 0.01"
         inkscape:connector-curvature="0"
         style="fill:#ffffff;stroke:#ffffff" />
      <g
         id="g135"
         style="font-size:15px;text-anchor:middle;fill:#ffffff;stroke:#ffffff;font-family:Arial"
         transform="translate(519.8,466.5)">
        <text
           id="text137"
           style="fill:#ffffff;stroke:#ffffff">4</text>
      </g>
    </g>
    <g
       id="g139"
       style="color:#808080;fill:none;stroke:#ffffff;stroke-width:1;stroke-linecap:butt;stroke-linejoin:miter"
       transform="translate(75,272.36218)">
      <path
         id="path141"
         d="m 92.5,230.3 427.3,0 M 306.2,444 l 0,-427.3 h 0.01"
         inkscape:connector-curvature="0"
         style="stroke:#ffffff" />
    </g>
    <g
       id="g143"
       style="color:#000000;fill:none;stroke:currentColor;stroke-width:1;stroke-linecap:butt;stroke-linejoin:miter"
       transform="translate(75,272.36218)">
      <path
         id="path145"
         d="m 92.5,16.7 0,427.3 427.3,0 0,-427.3 -427.3,0 z m 0,0 h 0.01"
         inkscape:connector-curvature="0" />
    </g>
    <g
       id="g154"
       style="color:#000000;fill:none;stroke:#ffffff;stroke-width:1;stroke-linecap:butt;stroke-linejoin:miter"
       transform="translate(75,272.36218)">
      <path
         id="path156"
         d="m 92.5,16.7 0,427.3 427.3,0 0,-427.3 -427.3,0 z m 0,0 h 0.01"
         inkscape:connector-curvature="0"
         style="stroke:#ffffff" />
    </g>
    <g
       id="g5712"
       style="fill:#90ee90;fill-opacity:1"
       transform="matrix(0.35154489,0,0,0.35154489,498.48405,340.98708)">
      <g
         id="g5714"
         transform="matrix(1.0629921,0,0,-1.0629921,-186.02362,789.27165)"
         xml:space="preserve"
         stroke-miterlimit="10.433"
         font-style="normal"
         font-variant="normal"
         font-weight="normal"
         font-stretch="normal"
         font-size-adjust="none"
         letter-spacing="normal"
         word-spacing="normal"
         style="font-style:normal;font-variant:normal;font-weight:normal;font-stretch:normal;letter-spacing:normal;word-spacing:normal;text-anchor:start;fill:#90ee90;fill-opacity:1;fill-rule:evenodd;stroke:#000000;stroke-linecap:butt;stroke-linejoin:miter;stroke-miterlimit:10.43299961;stroke-opacity:1;stroke-dasharray:none;stroke-dashoffset:0"><path
           d="m 490.39,336.93 0,0.02 0,0.02 0,0.01 0,0.02 0,0.02 0,0.01 -0.01,0.02 0,0.01 -0.01,0.02 0,0.01 -0.01,0.02 0,0.01 -0.01,0.01 0,0.02 -0.01,0.01 -0.01,0.01 -0.01,0.03 -0.02,0.02 -0.01,0.03 -0.02,0.02 -0.02,0.03 -0.02,0.03 -0.02,0.02 -0.01,0.02 -0.01,0.01 c -1.84,1.85 -5.17,5.17 -8.51,10.57 -8.02,12.84 -11.66,29.04 -11.66,48.21 0,13.41 1.8,30.69 10.02,45.55 3.93,7.06 8.01,11.16 10.2,13.34 0.15,0.16 0.15,0.25 0.15,0.41 0,0.5 -0.34,0.5 -1.04,0.5 -0.71,0 -0.8,0 -1.55,-0.75 -16.69,-15.2 -21.92,-38.01 -21.92,-59 0,-19.58 4.48,-39.3 17.14,-54.2 1,-1.14 2.89,-3.19 4.94,-4.99 0.59,-0.59 0.68,-0.59 1.39,-0.59 0.7,0 1.04,0 1.04,0.5 z"
           id="path5716"
           style="fill:#90ee90;fill-opacity:1;stroke-width:0"
           inkscape:connector-curvature="0" /><path
           d="m 508.88,429.17 0.03,0.13 0.03,0.15 0.05,0.16 0.04,0.18 0.06,0.2 0.05,0.2 0.07,0.22 0.07,0.22 0.08,0.24 0.09,0.24 0.1,0.24 0.1,0.25 0.11,0.25 0.12,0.25 0.13,0.25 0.14,0.24 0.14,0.24 0.16,0.24 0.17,0.23 0.17,0.23 0.19,0.21 0.2,0.2 0.21,0.19 0.22,0.18 0.23,0.16 0.25,0.14 0.12,0.07 0.13,0.06 0.14,0.05 0.13,0.05 0.14,0.05 0.14,0.04 0.15,0.03 0.15,0.03 0.15,0.02 0.15,0.02 0.16,0.01 0.17,0 c 0.25,0 1.43,0 2.48,-0.64 -1.39,-0.25 -2.39,-1.5 -2.39,-2.69 0,-0.79 0.55,-1.75 1.89,-1.75 1.1,0 2.69,0.9 2.69,2.9 0,2.59 -2.94,3.28 -4.63,3.28 -2.89,0 -4.64,-2.64 -5.23,-3.78 -1.25,3.28 -3.94,3.78 -5.38,3.78 -5.18,0 -8.03,-6.43 -8.03,-7.68 0,-0.5 0.5,-0.5 0.61,-0.5 0.39,0 0.55,0.11 0.64,0.55 1.69,5.28 4.99,6.53 6.67,6.53 0.96,0 2.69,-0.43 2.69,-3.33 0,-1.54 -0.84,-4.89 -2.69,-11.85 -0.79,-3.1 -2.53,-5.19 -4.73,-5.19 -0.3,0 -1.44,0 -2.48,0.65 1.25,0.24 2.34,1.29 2.34,2.69 0,1.35 -1.09,1.74 -1.84,1.74 -1.5,0 -2.75,-1.3 -2.75,-2.89 0,-2.29 2.5,-3.29 4.68,-3.29 3.3,0 5.08,3.49 5.24,3.79 0.59,-1.85 2.39,-3.79 5.37,-3.79 5.14,0 7.99,6.43 7.99,7.68 0,0.5 -0.46,0.5 -0.61,0.5 -0.44,0 -0.55,-0.21 -0.64,-0.55 -1.64,-5.33 -5.03,-6.53 -6.63,-6.53 -1.95,0 -2.75,1.59 -2.75,3.29 0,1.1 0.3,2.19 0.86,4.38 z"
           id="path5718"
           style="fill:#90ee90;fill-opacity:1;stroke-width:0"
           inkscape:connector-curvature="0" /><path
           d="m 517.54,373.34 0.01,0.04 0.01,0.03 0.01,0.06 0.02,0.05 0.01,0.06 0.01,0.05 0.02,0.04 0.01,0.05 0.01,0.04 0.01,0.04 0.01,0.04 0,0.04 0.01,0.04 0.01,0.03 0,0.03 0.01,0.03 0,0.03 0.01,0.03 0,0.03 0.01,0.05 0,0.06 0,0.05 0.01,0.05 0,0.05 0,0.03 0,0.03 0,0.03 0,0.03 c 0,0.91 -0.69,1.35 -1.44,1.35 -0.5,0 -1.3,-0.3 -1.75,-1.05 -0.09,-0.25 -0.5,-1.78 -0.69,-2.69 -0.36,-1.29 -0.7,-2.64 -1,-3.98 l -2.25,-8.97 c -0.19,-0.75 -2.33,-4.23 -5.62,-4.23 -2.53,0 -3.1,2.18 -3.1,4.03 0,2.29 0.86,5.39 2.55,9.76 0.8,2.05 1,2.6 1,3.6 0,2.23 -1.59,4.08 -4.09,4.08 -4.74,0 -6.58,-7.22 -6.58,-7.68 0,-0.5 0.5,-0.5 0.61,-0.5 0.5,0 0.54,0.11 0.79,0.91 1.35,4.69 3.33,6.17 5.04,6.17 0.39,0 1.25,0 1.25,-1.59 0,-1.25 -0.5,-2.53 -0.86,-3.49 -1.99,-5.28 -2.89,-8.12 -2.89,-10.47 0,-4.42 3.14,-5.92 6.07,-5.92 1.96,0 3.64,0.85 5.03,2.24 -0.64,-2.58 -1.23,-5.03 -3.23,-7.67 -1.3,-1.69 -3.19,-3.15 -5.48,-3.15 -0.69,0 -2.94,0.16 -3.79,2.1 0.8,0 1.46,0 2.15,0.61 0.5,0.44 1,1.09 1,2.03 0,1.55 -1.35,1.75 -1.85,1.75 -1.14,0 -2.8,-0.8 -2.8,-3.24 0,-2.5 2.21,-4.34 5.29,-4.34 5.14,0 10.26,4.55 11.67,10.17 z"
           id="path5720"
           style="fill:#90ee90;fill-opacity:1;stroke-width:0"
           inkscape:connector-curvature="0" /><path
           d="m 546.93,396.16 -0.05,3.68 -0.17,3.66 -0.28,3.66 -0.4,3.64 -0.53,3.61 -0.66,3.58 -0.79,3.54 -0.94,3.49 -1.09,3.44 -0.6,1.7 -0.64,1.68 -0.68,1.66 -0.72,1.64 -0.76,1.63 -0.81,1.6 -0.84,1.58 -0.89,1.56 -0.93,1.54 -0.98,1.52 -1.02,1.49 -1.07,1.46 -1.11,1.44 -1.17,1.41 c -1,1.15 -2.89,3.18 -4.93,4.98 -0.6,0.61 -0.71,0.61 -1.39,0.61 -0.61,0 -1.05,0 -1.05,-0.5 0,-0.2 0.19,-0.41 0.3,-0.5 1.73,-1.8 5.07,-5.14 8.42,-10.51 8.01,-12.86 11.65,-29.05 11.65,-48.24 0,-13.39 -1.79,-30.69 -10.01,-45.53 -3.94,-7.08 -8.08,-11.2 -10.17,-13.3 -0.1,-0.15 -0.19,-0.29 -0.19,-0.45 0,-0.5 0.44,-0.5 1.05,-0.5 0.68,0 0.79,0 1.53,0.75 16.7,15.2 21.92,38.02 21.92,58.98 z"
           id="path5722"
           style="fill:#90ee90;fill-opacity:1;stroke-width:0"
           inkscape:connector-curvature="0" /><path
           d="m 605.43,400.06 0.14,0 0.15,0 0.14,0.01 0.07,0 0.08,0 0.07,0.01 0.07,0.01 0.07,0.01 0.07,0.01 0.07,0.01 0.06,0.02 0.07,0.02 0.06,0.02 0.06,0.03 0.06,0.02 0.06,0.03 0.05,0.04 0.05,0.04 0.05,0.04 0.04,0.04 0.04,0.05 0.02,0.03 0.02,0.03 0.01,0.03 0.02,0.03 0.01,0.03 0.02,0.03 0.01,0.03 0.01,0.04 0.01,0.03 0.01,0.04 0,0.04 0.01,0.04 0,0.04 0.01,0.04 0,0.05 0,0.04 c 0,1 -0.95,1 -1.64,1 h -29.84 c -0.71,0 -1.64,0 -1.64,-1 0,-0.98 0.93,-0.98 1.68,-0.98 z"
           id="path5724"
           style="fill:#90ee90;fill-opacity:1;stroke-width:0"
           inkscape:connector-curvature="0" /><path
           d="m 605.48,390.39 0.07,0 0.06,0 0.14,0 0.14,0 0.07,0.01 0.07,0 0.07,0.01 0.07,0.01 0.06,0.01 0.07,0.01 0.07,0.01 0.06,0.02 0.07,0.02 0.06,0.02 0.06,0.03 0.06,0.02 0.05,0.04 0.05,0.03 0.05,0.04 0.05,0.04 0.04,0.05 0.02,0.02 0.02,0.03 0.02,0.03 0.02,0.02 0.01,0.03 0.02,0.03 0.01,0.03 0.02,0.04 0.01,0.03 0.01,0.04 0.01,0.03 0.01,0.04 0,0.04 0.01,0.04 0,0.04 0.01,0.05 0,0.04 0,0.05 c 0,1 -0.95,1 -1.69,1 h -29.75 c -0.75,0 -1.68,0 -1.68,-1 0,-1 0.93,-1 1.64,-1 z"
           id="path5726"
           style="fill:#90ee90;fill-opacity:1;stroke-width:0"
           inkscape:connector-curvature="0" /><path
           d="m 634.02,403.68 h 4.69 c 0.99,0 1.49,0 1.49,1 0,0.55 -0.5,0.55 -1.4,0.55 h -4.39 c 1.8,7.08 2.05,8.08 2.05,8.38 0,0.84 -0.59,1.34 -1.44,1.34 -0.15,0 -1.54,-0.05 -2,-1.8 l -1.93,-7.92 h -4.69 c -1,0 -1.5,0 -1.5,-0.94 0,-0.61 0.4,-0.61 1.4,-0.61 h 4.38 c -3.58,-14.14 -3.78,-14.98 -3.78,-15.89 0,-2.68 1.89,-4.58 4.58,-4.58 5.07,0 7.92,7.27 7.92,7.68 0,0.5 -0.39,0.5 -0.6,0.5 -0.45,0 -0.5,-0.16 -0.75,-0.71 -2.14,-5.17 -4.78,-6.37 -6.46,-6.37 -1.05,0 -1.55,0.65 -1.55,2.3 0,1.18 0.09,1.54 0.3,2.39 z"
           id="path5728"
           style="fill:#90ee90;fill-opacity:1;stroke-width:0"
           inkscape:connector-curvature="0" /><path
           d="m 684.91,336.93 0,0.02 0,0.02 0,0.01 0,0.02 0,0.02 -0.01,0.01 0,0.02 0,0.01 -0.01,0.02 0,0.01 -0.01,0.02 0,0.01 -0.01,0.01 0,0.02 -0.01,0.01 -0.01,0.01 -0.01,0.03 -0.02,0.02 -0.01,0.03 -0.02,0.02 -0.02,0.03 -0.02,0.03 -0.02,0.02 -0.01,0.02 -0.01,0.01 c -1.84,1.85 -5.17,5.17 -8.51,10.57 -8.02,12.84 -11.66,29.04 -11.66,48.21 0,13.41 1.8,30.69 10.01,45.55 3.94,7.06 8.02,11.16 10.21,13.34 0.15,0.16 0.15,0.25 0.15,0.41 0,0.5 -0.34,0.5 -1.04,0.5 -0.71,0 -0.8,0 -1.55,-0.75 -16.69,-15.2 -21.92,-38.01 -21.92,-59 0,-19.58 4.48,-39.3 17.14,-54.2 1,-1.14 2.89,-3.19 4.94,-4.99 0.59,-0.59 0.68,-0.59 1.39,-0.59 0.7,0 1.04,0 1.04,0.5 z"
           id="path5730"
           style="fill:#90ee90;fill-opacity:1;stroke-width:0"
           inkscape:connector-curvature="0" /><path
           d="m 701.4,446.01 0,0.06 0,0.05 0,0.05 0,0.05 0,0.05 0,0.05 0,0.04 0,0.05 0,0.04 0,0.04 0,0.04 -0.01,0.04 0,0.04 0,0.04 0,0.03 -0.01,0.04 0,0.06 -0.01,0.06 -0.01,0.05 -0.02,0.05 -0.01,0.05 -0.02,0.04 -0.03,0.04 -0.02,0.04 -0.03,0.03 -0.03,0.02 -0.04,0.03 -0.04,0.02 -0.04,0.02 -0.02,0.01 -0.03,0.01 -0.02,0 -0.03,0.01 -0.03,0.01 -0.03,0 -0.03,0.01 -0.03,0 -0.03,0.01 -0.04,0 -0.04,0 -0.03,0.01 -0.04,0 -0.04,0 -0.04,0 -0.05,0.01 -0.04,0 -0.05,0 -0.05,0 -0.04,0 -0.06,0 -0.05,0 c -3.09,-3.19 -7.47,-3.19 -9.06,-3.19 v -1.55 c 1,0 3.94,0 6.52,1.3 v -25.81 c 0,-1.8 -0.15,-2.39 -4.63,-2.39 h -1.59 v -1.55 c 1.75,0.16 6.07,0.16 8.06,0.16 2,0 6.33,0 8.08,-0.16 v 1.55 h -1.6 c -4.48,0 -4.64,0.54 -4.64,2.39 z"
           id="path5732"
           style="fill:#90ee90;fill-opacity:1;stroke-width:0"
           inkscape:connector-curvature="0" /><path
           d="m 709.68,370.3 0,0.74 -0.01,0.75 -0.02,0.75 -0.03,0.74 -0.05,0.75 -0.06,0.74 -0.07,0.74 -0.1,0.73 -0.12,0.73 -0.13,0.73 -0.17,0.72 -0.19,0.72 -0.21,0.72 -0.25,0.7 -0.28,0.7 -0.15,0.35 -0.16,0.34 c -2.28,4.8 -6.37,5.6 -8.46,5.6 -2.99,0 -6.63,-1.3 -8.68,-5.94 -1.59,-3.44 -1.84,-7.33 -1.84,-11.31 0,-3.74 0.2,-8.22 2.25,-12 2.14,-4.03 5.78,-5.03 8.22,-5.03 v 1.09 c -1.94,0 -4.89,1.25 -5.78,6.03 -0.55,2.99 -0.55,7.56 -0.55,10.52 0,3.18 0,6.47 0.41,9.15 0.93,5.94 4.67,6.38 5.92,6.38 1.64,0 4.93,-0.89 5.87,-5.83 0.5,-2.78 0.5,-6.58 0.5,-9.7 0,-3.75 0,-7.13 -0.54,-10.32 -0.75,-4.73 -3.6,-6.23 -5.83,-6.23 h 0 v -1.09 c 2.68,0 6.47,1.04 8.67,5.78 1.59,3.43 1.84,7.31 1.84,11.25 z"
           id="path5734"
           style="fill:#90ee90;fill-opacity:1;stroke-width:0"
           inkscape:connector-curvature="0" /><path
           d="m 737.85,396.16 -0.05,3.68 -0.17,3.66 -0.28,3.66 -0.4,3.64 -0.52,3.61 -0.66,3.58 -0.8,3.54 -0.94,3.49 -1.09,3.44 -0.6,1.7 -0.64,1.68 -0.68,1.66 -0.72,1.64 -0.76,1.63 -0.8,1.6 -0.85,1.58 -0.89,1.56 -0.93,1.54 -0.98,1.52 -1.02,1.49 -1.07,1.46 -1.11,1.44 -1.16,1.41 c -1,1.15 -2.89,3.18 -4.94,4.98 -0.59,0.61 -0.7,0.61 -1.39,0.61 -0.61,0 -1.05,0 -1.05,-0.5 0,-0.2 0.19,-0.41 0.3,-0.5 1.73,-1.8 5.08,-5.14 8.42,-10.51 8.02,-12.86 11.66,-29.05 11.66,-48.24 0,-13.39 -1.8,-30.69 -10.02,-45.53 -3.94,-7.08 -8.08,-11.2 -10.17,-13.3 -0.09,-0.15 -0.19,-0.29 -0.19,-0.45 0,-0.5 0.44,-0.5 1.05,-0.5 0.69,0 0.8,0 1.53,0.75 16.7,15.2 21.92,38.02 21.92,58.98 z"
           id="path5736"
           style="fill:#90ee90;fill-opacity:1;stroke-width:0"
           inkscape:connector-curvature="0" /></g>    </g>
    <g
       id="g5998"
       transform="matrix(0.35154489,0,0,0.35154489,501.7813,570.16838)"
       style="fill:#90ee90;fill-opacity:1">
      <g
         word-spacing="normal"
         letter-spacing="normal"
         font-size-adjust="none"
         font-stretch="normal"
         font-weight="normal"
         font-variant="normal"
         font-style="normal"
         stroke-miterlimit="10.433"
         xml:space="preserve"
         transform="matrix(1.0629921,0,0,-1.0629921,-186.02362,789.27165)"
         id="g6000"
         style="font-style:normal;font-variant:normal;font-weight:normal;font-stretch:normal;letter-spacing:normal;word-spacing:normal;text-anchor:start;fill:#90ee90;fill-opacity:1;stroke:#000000;stroke-linecap:butt;stroke-linejoin:miter;stroke-miterlimit:10.43299961;stroke-opacity:1;stroke-dasharray:none;stroke-dashoffset:0"><path
           id="path6002"
           d="m 490.39,336.93 0,0.02 0,0.02 0,0.01 0,0.02 0,0.02 0,0.01 -0.01,0.02 0,0.01 -0.01,0.02 0,0.01 -0.01,0.02 0,0.01 -0.01,0.01 0,0.02 -0.01,0.01 -0.01,0.01 -0.01,0.03 -0.02,0.02 -0.01,0.03 -0.02,0.02 -0.02,0.03 -0.02,0.03 -0.02,0.02 -0.01,0.02 -0.01,0.01 c -1.84,1.85 -5.17,5.17 -8.51,10.57 -8.02,12.84 -11.66,29.04 -11.66,48.21 0,13.41 1.8,30.69 10.02,45.55 3.93,7.06 8.01,11.16 10.2,13.34 0.15,0.16 0.15,0.25 0.15,0.41 0,0.5 -0.34,0.5 -1.04,0.5 -0.71,0 -0.8,0 -1.55,-0.75 -16.69,-15.2 -21.92,-38.01 -21.92,-59 0,-19.58 4.48,-39.3 17.14,-54.2 1,-1.14 2.89,-3.19 4.94,-4.99 0.59,-0.59 0.68,-0.59 1.39,-0.59 0.7,0 1.04,0 1.04,0.5 z"
           inkscape:connector-curvature="0"
           style="fill:#90ee90;fill-opacity:1;stroke-width:0" /><path
           id="path6004"
           d="m 508.88,429.17 0.03,0.13 0.03,0.15 0.05,0.16 0.04,0.18 0.06,0.2 0.05,0.2 0.07,0.22 0.07,0.22 0.08,0.24 0.09,0.24 0.1,0.24 0.1,0.25 0.11,0.25 0.12,0.25 0.13,0.25 0.14,0.24 0.14,0.24 0.16,0.24 0.17,0.23 0.17,0.23 0.19,0.21 0.2,0.2 0.21,0.19 0.22,0.18 0.23,0.16 0.25,0.14 0.12,0.07 0.13,0.06 0.14,0.05 0.13,0.05 0.14,0.05 0.14,0.04 0.15,0.03 0.15,0.03 0.15,0.02 0.15,0.02 0.16,0.01 0.17,0 c 0.25,0 1.43,0 2.48,-0.64 -1.39,-0.25 -2.39,-1.5 -2.39,-2.69 0,-0.79 0.55,-1.75 1.89,-1.75 1.1,0 2.69,0.9 2.69,2.9 0,2.59 -2.94,3.28 -4.63,3.28 -2.89,0 -4.64,-2.64 -5.23,-3.78 -1.25,3.28 -3.94,3.78 -5.38,3.78 -5.18,0 -8.03,-6.43 -8.03,-7.68 0,-0.5 0.5,-0.5 0.61,-0.5 0.39,0 0.55,0.11 0.64,0.55 1.69,5.28 4.99,6.53 6.67,6.53 0.96,0 2.69,-0.43 2.69,-3.33 0,-1.54 -0.84,-4.89 -2.69,-11.85 -0.79,-3.1 -2.53,-5.19 -4.73,-5.19 -0.3,0 -1.44,0 -2.48,0.65 1.25,0.24 2.34,1.29 2.34,2.69 0,1.35 -1.09,1.74 -1.84,1.74 -1.5,0 -2.75,-1.3 -2.75,-2.89 0,-2.29 2.5,-3.29 4.68,-3.29 3.3,0 5.08,3.49 5.24,3.79 0.59,-1.85 2.39,-3.79 5.37,-3.79 5.14,0 7.99,6.43 7.99,7.68 0,0.5 -0.46,0.5 -0.61,0.5 -0.44,0 -0.55,-0.21 -0.64,-0.55 -1.64,-5.33 -5.03,-6.53 -6.63,-6.53 -1.95,0 -2.75,1.59 -2.75,3.29 0,1.1 0.3,2.19 0.86,4.38 z"
           inkscape:connector-curvature="0"
           style="fill:#90ee90;fill-opacity:1;stroke-width:0" /><path
           id="path6006"
           d="m 517.54,373.34 0.01,0.04 0.01,0.03 0.01,0.06 0.02,0.05 0.01,0.06 0.01,0.05 0.02,0.04 0.01,0.05 0.01,0.04 0.01,0.04 0.01,0.04 0,0.04 0.01,0.04 0.01,0.03 0,0.03 0.01,0.03 0,0.03 0.01,0.03 0,0.03 0.01,0.05 0,0.06 0,0.05 0.01,0.05 0,0.05 0,0.03 0,0.03 0,0.03 0,0.03 c 0,0.91 -0.69,1.35 -1.44,1.35 -0.5,0 -1.3,-0.3 -1.75,-1.05 -0.09,-0.25 -0.5,-1.78 -0.69,-2.69 -0.36,-1.29 -0.7,-2.64 -1,-3.98 l -2.25,-8.97 c -0.19,-0.75 -2.33,-4.23 -5.62,-4.23 -2.53,0 -3.1,2.18 -3.1,4.03 0,2.29 0.86,5.39 2.55,9.76 0.8,2.05 1,2.6 1,3.6 0,2.23 -1.59,4.08 -4.09,4.08 -4.74,0 -6.58,-7.22 -6.58,-7.68 0,-0.5 0.5,-0.5 0.61,-0.5 0.5,0 0.54,0.11 0.79,0.91 1.35,4.69 3.33,6.17 5.04,6.17 0.39,0 1.25,0 1.25,-1.59 0,-1.25 -0.5,-2.53 -0.86,-3.49 -1.99,-5.28 -2.89,-8.12 -2.89,-10.47 0,-4.42 3.14,-5.92 6.07,-5.92 1.96,0 3.64,0.85 5.03,2.24 -0.64,-2.58 -1.23,-5.03 -3.23,-7.67 -1.3,-1.69 -3.19,-3.15 -5.48,-3.15 -0.69,0 -2.94,0.16 -3.79,2.1 0.8,0 1.46,0 2.15,0.61 0.5,0.44 1,1.09 1,2.03 0,1.55 -1.35,1.75 -1.85,1.75 -1.14,0 -2.8,-0.8 -2.8,-3.24 0,-2.5 2.21,-4.34 5.29,-4.34 5.14,0 10.26,4.55 11.67,10.17 z"
           inkscape:connector-curvature="0"
           style="fill:#90ee90;fill-opacity:1;stroke-width:0" /><path
           id="path6008"
           d="m 546.93,396.16 -0.05,3.68 -0.17,3.66 -0.28,3.66 -0.4,3.64 -0.53,3.61 -0.66,3.58 -0.79,3.54 -0.94,3.49 -1.09,3.44 -0.6,1.7 -0.64,1.68 -0.68,1.66 -0.72,1.64 -0.76,1.63 -0.81,1.6 -0.84,1.58 -0.89,1.56 -0.93,1.54 -0.98,1.52 -1.02,1.49 -1.07,1.46 -1.11,1.44 -1.17,1.41 c -1,1.15 -2.89,3.18 -4.93,4.98 -0.6,0.61 -0.71,0.61 -1.39,0.61 -0.61,0 -1.05,0 -1.05,-0.5 0,-0.2 0.19,-0.41 0.3,-0.5 1.73,-1.8 5.07,-5.14 8.42,-10.51 8.01,-12.86 11.65,-29.05 11.65,-48.24 0,-13.39 -1.79,-30.69 -10.01,-45.53 -3.94,-7.08 -8.08,-11.2 -10.17,-13.3 -0.1,-0.15 -0.19,-0.29 -0.19,-0.45 0,-0.5 0.44,-0.5 1.05,-0.5 0.68,0 0.79,0 1.53,0.75 16.7,15.2 21.92,38.02 21.92,58.98 z"
           inkscape:connector-curvature="0"
           style="fill:#90ee90;fill-opacity:1;stroke-width:0" /><path
           id="path6010"
           d="m 605.43,400.06 0.14,0 0.15,0 0.14,0.01 0.07,0 0.08,0 0.07,0.01 0.07,0.01 0.07,0.01 0.07,0.01 0.07,0.01 0.06,0.02 0.07,0.02 0.06,0.02 0.06,0.03 0.06,0.02 0.06,0.03 0.05,0.04 0.05,0.04 0.05,0.04 0.04,0.04 0.04,0.05 0.02,0.03 0.02,0.03 0.01,0.03 0.02,0.03 0.01,0.03 0.02,0.03 0.01,0.03 0.01,0.04 0.01,0.03 0.01,0.04 0,0.04 0.01,0.04 0,0.04 0.01,0.04 0,0.05 0,0.04 c 0,1 -0.95,1 -1.64,1 h -29.84 c -0.71,0 -1.64,0 -1.64,-1 0,-0.98 0.93,-0.98 1.68,-0.98 z"
           inkscape:connector-curvature="0"
           style="fill:#90ee90;fill-opacity:1;stroke-width:0" /><path
           id="path6012"
           d="m 605.48,390.39 0.07,0 0.06,0 0.14,0 0.14,0 0.07,0.01 0.07,0 0.07,0.01 0.07,0.01 0.06,0.01 0.07,0.01 0.07,0.01 0.06,0.02 0.07,0.02 0.06,0.02 0.06,0.03 0.06,0.02 0.05,0.04 0.05,0.03 0.05,0.04 0.05,0.04 0.04,0.05 0.02,0.02 0.02,0.03 0.02,0.03 0.02,0.02 0.01,0.03 0.02,0.03 0.01,0.03 0.02,0.04 0.01,0.03 0.01,0.04 0.01,0.03 0.01,0.04 0,0.04 0.01,0.04 0,0.04 0.01,0.05 0,0.04 0,0.05 c 0,1 -0.95,1 -1.69,1 h -29.75 c -0.75,0 -1.68,0 -1.68,-1 0,-1 0.93,-1 1.64,-1 z"
           inkscape:connector-curvature="0"
           style="fill:#90ee90;fill-opacity:1;stroke-width:0" /><path
           id="path6014"
           d="m 634.02,403.68 h 4.69 c 0.99,0 1.49,0 1.49,1 0,0.55 -0.5,0.55 -1.4,0.55 h -4.39 c 1.8,7.08 2.05,8.08 2.05,8.38 0,0.84 -0.59,1.34 -1.44,1.34 -0.15,0 -1.54,-0.05 -2,-1.8 l -1.93,-7.92 h -4.69 c -1,0 -1.5,0 -1.5,-0.94 0,-0.61 0.4,-0.61 1.4,-0.61 h 4.38 c -3.58,-14.14 -3.78,-14.98 -3.78,-15.89 0,-2.68 1.89,-4.58 4.58,-4.58 5.07,0 7.92,7.27 7.92,7.68 0,0.5 -0.39,0.5 -0.6,0.5 -0.45,0 -0.5,-0.16 -0.75,-0.71 -2.14,-5.17 -4.78,-6.37 -6.46,-6.37 -1.05,0 -1.55,0.65 -1.55,2.3 0,1.18 0.09,1.54 0.3,2.39 z"
           inkscape:connector-curvature="0"
           style="fill:#90ee90;fill-opacity:1;stroke-width:0" /><path
           id="path6016"
           d="m 684.91,336.93 0,0.02 0,0.02 0,0.01 0,0.02 0,0.02 -0.01,0.01 0,0.02 0,0.01 -0.01,0.02 0,0.01 -0.01,0.02 0,0.01 -0.01,0.01 0,0.02 -0.01,0.01 -0.01,0.01 -0.01,0.03 -0.02,0.02 -0.01,0.03 -0.02,0.02 -0.02,0.03 -0.02,0.03 -0.02,0.02 -0.01,0.02 -0.01,0.01 c -1.84,1.85 -5.17,5.17 -8.51,10.57 -8.02,12.84 -11.66,29.04 -11.66,48.21 0,13.41 1.8,30.69 10.01,45.55 3.94,7.06 8.02,11.16 10.21,13.34 0.15,0.16 0.15,0.25 0.15,0.41 0,0.5 -0.34,0.5 -1.04,0.5 -0.71,0 -0.8,0 -1.55,-0.75 -16.69,-15.2 -21.92,-38.01 -21.92,-59 0,-19.58 4.48,-39.3 17.14,-54.2 1,-1.14 2.89,-3.19 4.94,-4.99 0.59,-0.59 0.68,-0.59 1.39,-0.59 0.7,0 1.04,0 1.04,0.5 z"
           inkscape:connector-curvature="0"
           style="fill:#90ee90;fill-opacity:1;stroke-width:0" /><path
           id="path6018"
           d="m 720.72,446.01 0,0.06 0,0.05 0,0.05 0,0.05 0,0.05 0,0.05 0,0.04 0,0.05 0,0.04 -0.01,0.04 0,0.04 0,0.04 0,0.04 0,0.04 -0.01,0.03 0,0.04 -0.01,0.06 -0.01,0.06 -0.01,0.05 -0.01,0.05 -0.02,0.05 -0.02,0.04 -0.02,0.04 -0.02,0.04 -0.03,0.03 -0.03,0.02 -0.04,0.03 -0.04,0.02 -0.04,0.02 -0.03,0.01 -0.02,0.01 -0.03,0 -0.02,0.01 -0.03,0.01 -0.03,0 -0.03,0.01 -0.04,0 -0.03,0.01 -0.03,0 -0.04,0 -0.04,0.01 -0.04,0 -0.04,0 -0.04,0 -0.04,0.01 -0.04,0 -0.05,0 -0.05,0 -0.05,0 -0.05,0 -0.05,0 c -3.1,-3.19 -7.47,-3.19 -9.06,-3.19 v -1.55 c 1,0 3.93,0 6.51,1.3 v -25.81 c 0,-1.8 -0.14,-2.39 -4.62,-2.39 h -1.6 v -1.55 c 1.75,0.16 6.08,0.16 8.07,0.16 2,0 6.32,0 8.07,-0.16 v 1.55 h -1.59 c -4.48,0 -4.64,0.54 -4.64,2.39 z"
           inkscape:connector-curvature="0"
           style="fill:#90ee90;fill-opacity:1;stroke-width:0" /><path
           id="path6020"
           d="m 719.59,365.81 0.16,0 0.16,0 0.15,0.01 0.08,0 0.08,0.01 0.08,0 0.07,0.01 0.07,0.01 0.07,0.01 0.07,0.02 0.07,0.02 0.07,0.02 0.06,0.02 0.06,0.02 0.06,0.03 0.06,0.03 0.05,0.04 0.05,0.03 0.04,0.05 0.05,0.04 0.04,0.05 0.01,0.03 0.02,0.03 0.02,0.03 0.01,0.03 0.01,0.03 0.02,0.03 0.01,0.04 0.01,0.03 0.01,0.04 0.01,0.04 0,0.04 0.01,0.04 0,0.04 0.01,0.04 0,0.05 0,0.04 c 0,1 -0.91,1 -1.75,1 h -26.95 c -0.85,0 -1.74,0 -1.74,-1 0,-1 0.89,-1 1.74,-1 z"
           inkscape:connector-curvature="0"
           style="fill:#90ee90;fill-opacity:1;stroke-width:0" /><path
           id="path6022"
           d="m 740.16,386.25 0,0.05 0,0.06 0,0.05 0,0.05 0,0.05 0,0.05 0,0.04 0,0.05 0,0.04 0,0.04 -0.01,0.04 0,0.04 0,0.04 0,0.03 0,0.04 -0.01,0.03 -0.01,0.07 0,0.06 -0.02,0.05 -0.01,0.05 -0.02,0.05 -0.02,0.04 -0.02,0.04 -0.02,0.03 -0.03,0.04 -0.03,0.02 -0.04,0.03 -0.04,0.02 -0.04,0.02 -0.03,0.01 -0.02,0.01 -0.03,0 -0.02,0.01 -0.03,0.01 -0.03,0 -0.03,0.01 -0.03,0 -0.04,0.01 -0.03,0 -0.04,0 -0.03,0.01 -0.04,0 -0.04,0 -0.05,0 -0.04,0 -0.04,0 -0.05,0.01 -0.05,0 -0.05,0 -0.05,0 -0.05,0 c -3.09,-3.19 -7.47,-3.19 -9.06,-3.19 v -1.55 c 1,0 3.94,0 6.51,1.3 V 358.3 c 0,-1.8 -0.14,-2.39 -4.62,-2.39 h -1.6 v -1.55 c 1.75,0.16 6.08,0.16 8.07,0.16 2,0 6.33,0 8.08,-0.16 v 1.55 h -1.6 c -4.48,0 -4.64,0.54 -4.64,2.39 z"
           inkscape:connector-curvature="0"
           style="fill:#90ee90;fill-opacity:1;stroke-width:0" /><path
           id="path6024"
           d="m 776.61,396.16 -0.05,3.68 -0.17,3.66 -0.28,3.66 -0.4,3.64 -0.53,3.61 -0.66,3.58 -0.79,3.54 -0.94,3.49 -1.09,3.44 -0.6,1.7 -0.64,1.68 -0.68,1.66 -0.72,1.64 -0.76,1.63 -0.81,1.6 -0.84,1.58 -0.89,1.56 -0.93,1.54 -0.98,1.52 -1.02,1.49 -1.07,1.46 -1.11,1.44 -1.17,1.41 c -1,1.15 -2.89,3.18 -4.93,4.98 -0.6,0.61 -0.71,0.61 -1.39,0.61 -0.61,0 -1.05,0 -1.05,-0.5 0,-0.2 0.19,-0.41 0.3,-0.5 1.73,-1.8 5.07,-5.14 8.42,-10.51 8.01,-12.86 11.65,-29.05 11.65,-48.24 0,-13.39 -1.79,-30.69 -10.01,-45.53 -3.94,-7.08 -8.08,-11.2 -10.17,-13.3 -0.1,-0.15 -0.19,-0.29 -0.19,-0.45 0,-0.5 0.44,-0.5 1.05,-0.5 0.68,0 0.79,0 1.53,0.75 16.7,15.2 21.92,38.02 21.92,58.98 z"
           inkscape:connector-curvature="0"
           style="fill:#90ee90;fill-opacity:1;stroke-width:0" /></g>    </g>
    <g
       transform="translate(74.677513,272.4892)"
       id="gnuplot_plot_1-6"
       style="fill:#ffc0cb;fill-opacity:1;stroke:#ffc0cb;stroke-opacity:1">
      <title
         id="title6344">gnuplot_plot_1</title>
      <g
         id="g6346"
         style="color:#ff0000;fill:#ffc0cb;fill-opacity:1;stroke:#ffc0cb;stroke-width:1;stroke-linecap:butt;stroke-linejoin:miter;stroke-opacity:1">
        <g
           id="g6348"
           style="fill:#ffc0cb;fill-opacity:1;stroke:#ffc0cb;stroke-opacity:1">
          <polygon
             style="fill:#ffc0cb;fill-opacity:1;stroke:#ffc0cb;stroke-opacity:1"
             id="polygon6350"
             points="252.7,378 257.3,373.4 252.7,390.6 248.1,373.4 252.7,378 " />
        </g>
        <path
           inkscape:connector-curvature="0"
           id="path6352"
           d="m 252.7,378 4.6,-4.6 -4.6,17.2 -4.6,-17.2 4.6,4.6 m 0,-94.2 0,94.2 h 0.01"
           style="fill:#ffc0cb;fill-opacity:1;stroke:#ffc0cb;stroke-opacity:1" />
        <g
           id="g6354"
           style="fill:#ffc0cb;fill-opacity:1;stroke:#ffc0cb;stroke-opacity:1">
          <polygon
             style="fill:#ffc0cb;fill-opacity:1;stroke:#ffc0cb;stroke-opacity:1"
             id="polygon6356"
             points="231.6,299.2 237.8,297.2 226,310.5 229.5,293 231.6,299.2 " />
        </g>
        <path
           inkscape:connector-curvature="0"
           id="path6358"
           d="m 231.6,299.2 6.2,-2 -11.8,13.3 3.5,-17.5 2.1,6.2 m 21.1,-42.1 -21.1,42.1 h 0.01"
           style="fill:#ffc0cb;fill-opacity:1;stroke:#ffc0cb;stroke-opacity:1" />
        <g
           id="g6360"
           style="fill:#ffc0cb;fill-opacity:1;stroke:#ffc0cb;stroke-opacity:1">
          <polygon
             style="fill:#ffc0cb;fill-opacity:1;stroke:#ffc0cb;stroke-opacity:1"
             id="polygon6362"
             points="211.9,230.3 216.5,234.9 199.3,230.3 216.5,225.7 211.9,230.3 " />
        </g>
        <path
           inkscape:connector-curvature="0"
           id="path6364"
           d="m 211.9,230.3 4.6,4.6 -17.2,-4.6 17.2,-4.6 -4.6,4.6 m 40.8,0 -40.8,0 h 0.01"
           style="fill:#ffc0cb;fill-opacity:1;stroke:#ffc0cb;stroke-opacity:1" />
        <g
           id="g6366"
           style="fill:#ffc0cb;fill-opacity:1;stroke:#ffc0cb;stroke-opacity:1">
          <polygon
             style="fill:#ffc0cb;fill-opacity:1;stroke:#ffc0cb;stroke-opacity:1"
             id="polygon6368"
             points="183.1,157.2 184.4,163.6 172.6,150.2 189.5,155.9 183.1,157.2 " />
        </g>
        <path
           inkscape:connector-curvature="0"
           id="path6370"
           d="m 183.1,157.2 1.3,6.4 -11.8,-13.4 16.9,5.7 -6.4,1.3 m 69.6,46.4 -69.6,-46.4 h 0.01"
           style="fill:#ffc0cb;fill-opacity:1;stroke:#ffc0cb;stroke-opacity:1" />
        <g
           id="g6372"
           style="fill:#ffc0cb;fill-opacity:1;stroke:#ffc0cb;stroke-opacity:1">
          <polygon
             style="fill:#ffc0cb;fill-opacity:1;stroke:#ffc0cb;stroke-opacity:1"
             id="polygon6374"
             points="154.8,79 154.8,85.6 145.9,70.1 161.4,79 154.8,79 " />
        </g>
        <path
           inkscape:connector-curvature="0"
           id="path6376"
           d="m 154.8,79 0,6.6 -8.9,-15.5 15.5,8.9 -6.6,0 M 252.7,176.9 154.8,79 h 0.01"
           style="fill:#ffc0cb;fill-opacity:1;stroke:#ffc0cb;stroke-opacity:1" />
        <g
           id="g6378"
           style="fill:#ffc0cb;fill-opacity:1;stroke:#ffc0cb;stroke-opacity:1">
          <polygon
             style="fill:#ffc0cb;fill-opacity:1;stroke:#ffc0cb;stroke-opacity:1"
             id="polygon6380"
             points="303.2,378.4 306.4,372.8 306.2,390.6 297.5,375 303.2,378.4 " />
        </g>
        <path
           inkscape:connector-curvature="0"
           id="path6382"
           d="m 303.2,378.4 3.2,-5.6 -0.2,17.8 -8.7,-15.6 5.7,3.4 m -23.8,-94.6 23.8,94.6 h 0.01"
           style="fill:#ffc0cb;fill-opacity:1;stroke:#ffc0cb;stroke-opacity:1" />
        <g
           id="g6384"
           style="fill:#ffc0cb;fill-opacity:1;stroke:#ffc0cb;stroke-opacity:1">
          <polygon
             style="fill:#ffc0cb;fill-opacity:1;stroke:#ffc0cb;stroke-opacity:1"
             id="polygon6386"
             points="206.8,80.2 205.9,86.7 199.3,70.1 213.3,81.1 206.8,80.2 " />
        </g>
        <path
           inkscape:connector-curvature="0"
           id="path6388"
           d="m 206.8,80.2 -0.9,6.5 -6.6,-16.6 14,11 -6.5,-0.9 m 72.6,96.7 -72.6,-96.7 h 0.01"
           style="fill:#ffc0cb;fill-opacity:1;stroke:#ffc0cb;stroke-opacity:1" />
        <g
           id="g6390"
           style="fill:#ffc0cb;fill-opacity:1;stroke:#ffc0cb;stroke-opacity:1">
          <polygon
             style="fill:#ffc0cb;fill-opacity:1;stroke:#ffc0cb;stroke-opacity:1"
             id="polygon6392"
             points="354,379.3 356.1,373.1 359.6,390.6 347.8,377.3 354,379.3 " />
        </g>
        <path
           inkscape:connector-curvature="0"
           id="path6394"
           d="m 354,379.3 2.1,-6.2 3.5,17.5 -11.8,-13.3 6.2,2 m -47.8,-95.5 47.8,95.5 h 0.01"
           style="fill:#ffc0cb;fill-opacity:1;stroke:#ffc0cb;stroke-opacity:1" />
        <g
           id="g6396"
           style="fill:#ffc0cb;fill-opacity:1;stroke:#ffc0cb;stroke-opacity:1">
          <polygon
             style="fill:#ffc0cb;fill-opacity:1;stroke:#ffc0cb;stroke-opacity:1"
             id="polygon6398"
             points="258.3,81.4 256.3,87.6 252.7,70.1 264.5,83.4 258.3,81.4 " />
        </g>
        <path
           inkscape:connector-curvature="0"
           id="path6400"
           d="m 258.3,81.4 -2,6.2 -3.6,-17.5 11.8,13.3 -6.2,-2 m 47.9,95.5 -47.9,-95.5 h 0.01"
           style="fill:#ffc0cb;fill-opacity:1;stroke:#ffc0cb;stroke-opacity:1" />
        <g
           id="g6402"
           style="fill:#ffc0cb;fill-opacity:1;stroke:#ffc0cb;stroke-opacity:1">
          <polygon
             style="fill:#ffc0cb;fill-opacity:1;stroke:#ffc0cb;stroke-opacity:1"
             id="polygon6404"
             points="405.5,380.5 406.4,374 413,390.6 399,379.6 405.5,380.5 " />
        </g>
        <path
           inkscape:connector-curvature="0"
           id="path6406"
           d="m 405.5,380.5 0.9,-6.5 6.6,16.6 -14,-11 6.5,0.9 m -72.6,-96.7 72.6,96.7 h 0.01"
           style="fill:#ffc0cb;fill-opacity:1;stroke:#ffc0cb;stroke-opacity:1" />
        <g
           id="g6408"
           style="fill:#ffc0cb;fill-opacity:1;stroke:#ffc0cb;stroke-opacity:1">
          <polygon
             style="fill:#ffc0cb;fill-opacity:1;stroke:#ffc0cb;stroke-opacity:1"
             id="polygon6410"
             points="309.2,82.3 305.9,87.9 306.2,70.1 314.8,85.7 309.2,82.3 " />
        </g>
        <path
           inkscape:connector-curvature="0"
           id="path6412"
           d="m 309.2,82.3 -3.3,5.6 0.3,-17.8 8.6,15.6 -5.6,-3.4 m 23.7,94.6 -23.7,-94.6 h 0.01"
           style="fill:#ffc0cb;fill-opacity:1;stroke:#ffc0cb;stroke-opacity:1" />
        <g
           id="g6414"
           style="fill:#ffc0cb;fill-opacity:1;stroke:#ffc0cb;stroke-opacity:1">
          <polygon
             style="fill:#ffc0cb;fill-opacity:1;stroke:#ffc0cb;stroke-opacity:1"
             id="polygon6416"
             points="457.5,381.7 457.5,375.1 466.4,390.6 450.9,381.7 457.5,381.7 " />
        </g>
        <path
           inkscape:connector-curvature="0"
           id="path6418"
           d="m 457.5,381.7 0,-6.6 8.9,15.5 -15.5,-8.9 6.6,0 m -97.9,-97.9 97.9,97.9 h 0.01"
           style="fill:#ffc0cb;fill-opacity:1;stroke:#ffc0cb;stroke-opacity:1" />
        <g
           id="g6420"
           style="fill:#ffc0cb;fill-opacity:1;stroke:#ffc0cb;stroke-opacity:1">
          <polygon
             style="fill:#ffc0cb;fill-opacity:1;stroke:#ffc0cb;stroke-opacity:1"
             id="polygon6422"
             points="429.2,303.5 427.9,297.1 439.7,310.5 422.8,304.8 429.2,303.5 " />
        </g>
        <path
           inkscape:connector-curvature="0"
           id="path6424"
           d="m 429.2,303.5 -1.3,-6.4 11.8,13.4 -16.9,-5.7 6.4,-1.3 m -69.6,-46.4 69.6,46.4 h 0.01"
           style="fill:#ffc0cb;fill-opacity:1;stroke:#ffc0cb;stroke-opacity:1" />
        <g
           id="g6426"
           style="fill:#ffc0cb;fill-opacity:1;stroke:#ffc0cb;stroke-opacity:1">
          <polygon
             style="fill:#ffc0cb;fill-opacity:1;stroke:#ffc0cb;stroke-opacity:1"
             id="polygon6428"
             points="400.4,230.3 395.8,225.7 413,230.3 395.8,234.9 400.4,230.3 " />
        </g>
        <path
           inkscape:connector-curvature="0"
           id="path6430"
           d="m 400.4,230.3 -4.6,-4.6 17.2,4.6 -17.2,4.6 4.6,-4.6 m -40.8,0 40.8,0 h 0.01"
           style="fill:#ffc0cb;fill-opacity:1;stroke:#ffc0cb;stroke-opacity:1" />
        <g
           id="g6432"
           style="fill:#ffc0cb;fill-opacity:1;stroke:#ffc0cb;stroke-opacity:1">
          <polygon
             style="fill:#ffc0cb;fill-opacity:1;stroke:#ffc0cb;stroke-opacity:1"
             id="polygon6434"
             points="380.7,161.5 374.5,163.5 386.3,150.2 382.8,167.7 380.7,161.5 " />
        </g>
        <path
           inkscape:connector-curvature="0"
           id="path6436"
           d="m 380.7,161.5 -6.2,2 11.8,-13.3 -3.5,17.5 -2.1,-6.2 m -21.1,42.1 21.1,-42.1 h 0.01"
           style="fill:#ffc0cb;fill-opacity:1;stroke:#ffc0cb;stroke-opacity:1" />
        <g
           id="g6438"
           style="fill:#ffc0cb;fill-opacity:1;stroke:#ffc0cb;stroke-opacity:1">
          <polygon
             style="fill:#ffc0cb;fill-opacity:1;stroke:#ffc0cb;stroke-opacity:1"
             id="polygon6440"
             points="359.6,82.7 355,87.3 359.6,70.1 364.2,87.3 359.6,82.7 " />
        </g>
        <path
           inkscape:connector-curvature="0"
           id="path6442"
           d="m 359.6,82.7 -4.6,4.6 4.6,-17.2 4.6,17.2 -4.6,-4.6 m 0,94.2 0,-94.2 h 0.01"
           style="fill:#ffc0cb;fill-opacity:1;stroke:#ffc0cb;stroke-opacity:1" />
      </g>
    </g>
  </g>
</svg>
