<?xml version="1.0" encoding="UTF-8" standalone="no"?>
<svg
   xmlns:dc="http://purl.org/dc/elements/1.1/"
   xmlns:cc="http://creativecommons.org/ns#"
   xmlns:rdf="http://www.w3.org/1999/02/22-rdf-syntax-ns#"
   xmlns:svg="http://www.w3.org/2000/svg"
   xmlns="http://www.w3.org/2000/svg"
   xmlns:xlink="http://www.w3.org/1999/xlink"
   xmlns:sodipodi="http://sodipodi.sourceforge.net/DTD/sodipodi-0.dtd"
   xmlns:inkscape="http://www.inkscape.org/namespaces/inkscape"
   width="600"
   height="480"
   viewBox="0 0 600 480"
   id="svg7085"
   version="1.1"
   inkscape:version="0.48.3.1 r9886"
   sodipodi:docname="eigenvector-example2.svg">
  <metadata
     id="metadata7363">
    <rdf:RDF>
      <cc:Work
         rdf:about="">
        <dc:format>image/svg+xml</dc:format>
        <dc:type
           rdf:resource="http://purl.org/dc/dcmitype/StillImage" />
        <dc:title>Gnuplot</dc:title>
      </cc:Work>
    </rdf:RDF>
  </metadata>
  <defs
     id="defs7361">
    <defs
       id="defs7094">
      <circle
         stroke-width="0.5"
         r="0.5"
         id="gpDot" />
      <path
         d="M-1,0 h2 M0,-1 v2"
         stroke="currentColor"
         stroke-width="0.222"
         id="gpPt0" />
      <path
         d="M-1,-1 L1,1 M1,-1 L-1,1"
         stroke="currentColor"
         stroke-width="0.222"
         id="gpPt1" />
      <path
         d="M-1,0 L1,0 M0,-1 L0,1 M-1,-1 L1,1 M-1,1 L1,-1"
         stroke="currentColor"
         stroke-width="0.222"
         id="gpPt2" />
      <rect
         height="2"
         width="2"
         y="-1"
         x="-1"
         stroke="currentColor"
         stroke-width="0.222"
         id="gpPt3" />
      <rect
         height="2"
         width="2"
         y="-1"
         x="-1"
         fill="currentColor"
         stroke="currentColor"
         stroke-width="0.222"
         id="gpPt4" />
      <circle
         r="1"
         cy="0"
         cx="0"
         stroke="currentColor"
         stroke-width="0.222"
         id="gpPt5" />
      <use
         stroke="none"
         fill="currentColor"
         id="gpPt6"
         xlink:href="#gpPt5" />
      <path
         d="M0,-1.33 L-1.33,0.67 L1.33,0.67 z"
         stroke="currentColor"
         stroke-width="0.222"
         id="gpPt7" />
      <use
         stroke="none"
         fill="currentColor"
         id="gpPt8"
         xlink:href="#gpPt7" />
      <use
         transform="rotate(180)"
         stroke="currentColor"
         id="gpPt9"
         xlink:href="#gpPt7" />
      <use
         stroke="none"
         fill="currentColor"
         id="gpPt10"
         xlink:href="#gpPt9" />
      <use
         transform="rotate(45)"
         stroke="currentColor"
         id="gpPt11"
         xlink:href="#gpPt3" />
      <use
         stroke="none"
         fill="currentColor"
         id="gpPt12"
         xlink:href="#gpPt11" />
    </defs>
  </defs>
  <sodipodi:namedview
     pagecolor="#000000"
     bordercolor="#666666"
     borderopacity="1"
     objecttolerance="10"
     gridtolerance="10"
     guidetolerance="10"
     inkscape:pageopacity="0"
     inkscape:pageshadow="2"
     inkscape:window-width="1366"
     inkscape:window-height="746"
     id="namedview7359"
     showgrid="false"
     inkscape:zoom="0.98333333"
     inkscape:cx="274.00509"
     inkscape:cy="245.43621"
     inkscape:window-x="0"
     inkscape:window-y="22"
     inkscape:window-maximized="0"
     inkscape:current-layer="g7246" />
  <title
     id="title7087">Gnuplot</title>
  <desc
     id="desc7089">Produced by GNUPLOT 4.6 patchlevel 0 </desc>
  <rect
     style="fill:none"
     id="rect7092"
     height="480"
     width="600"
     y="0"
     x="0" />
  <g
     id="g7110"
     style="color:#ffffff;fill:none;stroke:currentColor;stroke-width:1;stroke-linecap:butt;stroke-linejoin:miter" />
  <g
     id="g7112"
     style="color:#000000;fill:#ffffff;stroke:#ffffff;stroke-width:1;stroke-linecap:butt;stroke-linejoin:miter">
    <path
       inkscape:connector-curvature="0"
       id="path7114"
       d="m 92.5,444 9,0 m 418.3,0 -9,0 h 0.01"
       style="fill:#ffffff;stroke:#ffffff" />
    <g
       id="g7116"
       style="font-size:15px;text-anchor:end;fill:#ffffff;stroke:#ffffff;font-family:Arial"
       transform="translate(84.2,448.5)">
      <text
         id="text7118"
         style="fill:#ffffff;stroke:#ffffff">-5</text>
    </g>
    <path
       inkscape:connector-curvature="0"
       id="path7120"
       d="m 92.5,401.3 9,0 m 418.3,0 -9,0 h 0.01"
       style="fill:#ffffff;stroke:#ffffff" />
    <g
       id="g7122"
       style="font-size:15px;text-anchor:end;fill:#ffffff;stroke:#ffffff;font-family:Arial"
       transform="translate(84.2,405.8)">
      <text
         id="text7124"
         style="fill:#ffffff;stroke:#ffffff">-4</text>
    </g>
    <path
       inkscape:connector-curvature="0"
       id="path7126"
       d="m 92.5,358.5 9,0 m 418.3,0 -9,0 h 0.01"
       style="fill:#ffffff;stroke:#ffffff" />
    <g
       id="g7128"
       style="font-size:15px;text-anchor:end;fill:#ffffff;stroke:#ffffff;font-family:Arial"
       transform="translate(84.2,363)">
      <text
         id="text7130"
         style="fill:#ffffff;stroke:#ffffff">-3</text>
    </g>
    <path
       inkscape:connector-curvature="0"
       id="path7132"
       d="m 92.5,315.8 9,0 m 418.3,0 -9,0 h 0.01"
       style="fill:#ffffff;stroke:#ffffff" />
    <g
       id="g7134"
       style="font-size:15px;text-anchor:end;fill:#ffffff;stroke:#ffffff;font-family:Arial"
       transform="translate(84.2,320.3)">
      <text
         id="text7136"
         style="fill:#ffffff;stroke:#ffffff">-2</text>
    </g>
    <path
       inkscape:connector-curvature="0"
       id="path7138"
       d="m 92.5,273.1 9,0 m 418.3,0 -9,0 h 0.01"
       style="fill:#ffffff;stroke:#ffffff" />
    <g
       id="g7140"
       style="font-size:15px;text-anchor:end;fill:#ffffff;stroke:#ffffff;font-family:Arial"
       transform="translate(84.2,277.6)">
      <text
         id="text7142"
         style="fill:#ffffff;stroke:#ffffff">-1</text>
    </g>
    <path
       inkscape:connector-curvature="0"
       id="path7144"
       d="m 92.5,230.3 9,0 m 418.3,0 -9,0 h 0.01"
       style="fill:#ffffff;stroke:#ffffff" />
    <g
       id="g7146"
       style="font-size:15px;text-anchor:end;fill:#ffffff;stroke:#ffffff;font-family:Arial"
       transform="translate(84.2,234.8)">
      <text
         id="text7148"
         style="fill:#ffffff;stroke:#ffffff">0</text>
    </g>
    <path
       inkscape:connector-curvature="0"
       id="path7150"
       d="m 92.5,187.6 9,0 m 418.3,0 -9,0 h 0.01"
       style="fill:#ffffff;stroke:#ffffff" />
    <g
       id="g7152"
       style="font-size:15px;text-anchor:end;fill:#ffffff;stroke:#ffffff;font-family:Arial"
       transform="translate(84.2,192.1)">
      <text
         id="text7154"
         style="fill:#ffffff;stroke:#ffffff">1</text>
    </g>
    <path
       inkscape:connector-curvature="0"
       id="path7156"
       d="m 92.5,144.9 9,0 m 418.3,0 -9,0 h 0.01"
       style="fill:#ffffff;stroke:#ffffff" />
    <g
       id="g7158"
       style="font-size:15px;text-anchor:end;fill:#ffffff;stroke:#ffffff;font-family:Arial"
       transform="translate(84.2,149.4)">
      <text
         id="text7160"
         style="fill:#ffffff;stroke:#ffffff">2</text>
    </g>
    <path
       inkscape:connector-curvature="0"
       id="path7162"
       d="m 92.5,102.2 9,0 m 418.3,0 -9,0 h 0.01"
       style="fill:#ffffff;stroke:#ffffff" />
    <g
       id="g7164"
       style="font-size:15px;text-anchor:end;fill:#ffffff;stroke:#ffffff;font-family:Arial"
       transform="translate(84.2,106.7)">
      <text
         id="text7166"
         style="fill:#ffffff;stroke:#ffffff">3</text>
    </g>
    <path
       inkscape:connector-curvature="0"
       id="path7168"
       d="m 92.5,59.4 9,0 m 418.3,0 -9,0 h 0.01"
       style="fill:#ffffff;stroke:#ffffff" />
    <g
       id="g7170"
       style="font-size:15px;text-anchor:end;fill:#ffffff;stroke:#ffffff;font-family:Arial"
       transform="translate(84.2,63.9)">
      <text
         id="text7172"
         style="fill:#ffffff;stroke:#ffffff">4</text>
    </g>
    <path
       inkscape:connector-curvature="0"
       id="path7174"
       d="m 92.5,16.7 9,0 m 418.3,0 -9,0 h 0.01"
       style="fill:#ffffff;stroke:#ffffff" />
    <g
       id="g7176"
       style="font-size:15px;text-anchor:end;fill:#ffffff;stroke:#ffffff;font-family:Arial"
       transform="translate(84.2,21.2)">
      <text
         id="text7178"
         style="fill:#ffffff;stroke:#ffffff">5</text>
    </g>
    <path
       inkscape:connector-curvature="0"
       id="path7180"
       d="m 92.5,444 0,-9 m 0,-418.3 0,9 h 0.01"
       style="fill:#ffffff;stroke:#ffffff" />
    <g
       id="g7182"
       style="font-size:15px;text-anchor:middle;fill:#ffffff;stroke:#ffffff;font-family:Arial"
       transform="translate(92.5,466.5)">
      <text
         id="text7184"
         style="fill:#ffffff;stroke:#ffffff">-5</text>
    </g>
    <path
       inkscape:connector-curvature="0"
       id="path7186"
       d="m 135.2,444 0,-9 m 0,-418.3 0,9 h 0.01"
       style="fill:#ffffff;stroke:#ffffff" />
    <g
       id="g7188"
       style="font-size:15px;text-anchor:middle;fill:#ffffff;stroke:#ffffff;font-family:Arial"
       transform="translate(135.2,466.5)">
      <text
         id="text7190"
         style="fill:#ffffff;stroke:#ffffff">-4</text>
    </g>
    <path
       inkscape:connector-curvature="0"
       id="path7192"
       d="m 178,444 0,-9 m 0,-418.3 0,9 h 0.01"
       style="fill:#ffffff;stroke:#ffffff" />
    <g
       id="g7194"
       style="font-size:15px;text-anchor:middle;fill:#ffffff;stroke:#ffffff;font-family:Arial"
       transform="translate(178,466.5)">
      <text
         id="text7196"
         style="fill:#ffffff;stroke:#ffffff">-3</text>
    </g>
    <path
       inkscape:connector-curvature="0"
       id="path7198"
       d="m 220.7,444 0,-9 m 0,-418.3 0,9 h 0.01"
       style="fill:#ffffff;stroke:#ffffff" />
    <g
       id="g7200"
       style="font-size:15px;text-anchor:middle;fill:#ffffff;stroke:#ffffff;font-family:Arial"
       transform="translate(220.7,466.5)">
      <text
         id="text7202"
         style="fill:#ffffff;stroke:#ffffff">-2</text>
    </g>
    <path
       inkscape:connector-curvature="0"
       id="path7204"
       d="m 263.4,444 0,-9 m 0,-418.3 0,9 h 0.01"
       style="fill:#ffffff;stroke:#ffffff" />
    <g
       id="g7206"
       style="font-size:15px;text-anchor:middle;fill:#ffffff;stroke:#ffffff;font-family:Arial"
       transform="translate(263.4,466.5)">
      <text
         id="text7208"
         style="fill:#ffffff;stroke:#ffffff">-1</text>
    </g>
    <path
       inkscape:connector-curvature="0"
       id="path7210"
       d="m 306.2,444 0,-9 m 0,-418.3 0,9 h 0.01"
       style="fill:#ffffff;stroke:#ffffff" />
    <g
       id="g7212"
       style="font-size:15px;text-anchor:middle;fill:#ffffff;stroke:#ffffff;font-family:Arial"
       transform="translate(306.2,466.5)">
      <text
         id="text7214"
         style="fill:#ffffff;stroke:#ffffff">0</text>
    </g>
    <path
       inkscape:connector-curvature="0"
       id="path7216"
       d="m 348.9,444 0,-9 m 0,-418.3 0,9 h 0.01"
       style="fill:#ffffff;stroke:#ffffff" />
    <g
       id="g7218"
       style="font-size:15px;text-anchor:middle;fill:#ffffff;stroke:#ffffff;font-family:Arial"
       transform="translate(348.9,466.5)">
      <text
         id="text7220"
         style="fill:#ffffff;stroke:#ffffff">1</text>
    </g>
    <path
       inkscape:connector-curvature="0"
       id="path7222"
       d="m 391.6,444 0,-9 m 0,-418.3 0,9 h 0.01"
       style="fill:#ffffff;stroke:#ffffff" />
    <g
       id="g7224"
       style="font-size:15px;text-anchor:middle;fill:#ffffff;stroke:#ffffff;font-family:Arial"
       transform="translate(391.6,466.5)">
      <text
         id="text7226"
         style="fill:#ffffff;stroke:#ffffff">2</text>
    </g>
    <path
       inkscape:connector-curvature="0"
       id="path7228"
       d="m 434.3,444 0,-9 m 0,-418.3 0,9 h 0.01"
       style="fill:#ffffff;stroke:#ffffff" />
    <g
       id="g7230"
       style="font-size:15px;text-anchor:middle;fill:#ffffff;stroke:#ffffff;font-family:Arial"
       transform="translate(434.3,466.5)">
      <text
         id="text7232"
         style="fill:#ffffff;stroke:#ffffff">3</text>
    </g>
    <path
       inkscape:connector-curvature="0"
       id="path7234"
       d="m 477.1,444 0,-9 m 0,-418.3 0,9 h 0.01"
       style="fill:#ffffff;stroke:#ffffff" />
    <g
       id="g7236"
       style="font-size:15px;text-anchor:middle;fill:#ffffff;stroke:#ffffff;font-family:Arial"
       transform="translate(477.1,466.5)">
      <text
         id="text7238"
         style="fill:#ffffff;stroke:#ffffff">4</text>
    </g>
    <path
       inkscape:connector-curvature="0"
       id="path7240"
       d="m 519.8,444 0,-9 m 0,-418.3 0,9 h 0.01"
       style="fill:#ffffff;stroke:#ffffff" />
    <g
       id="g7242"
       style="font-size:15px;text-anchor:middle;fill:#ffffff;stroke:#ffffff;font-family:Arial"
       transform="translate(519.8,466.5)">
      <text
         id="text7244"
         style="fill:#ffffff;stroke:#ffffff">5</text>
    </g>
  </g>
  <g
     id="g7246"
     style="color:#808080;fill:none;stroke:currentColor;stroke-width:1;stroke-linecap:butt;stroke-linejoin:miter">
    <path
       inkscape:connector-curvature="0"
       id="path7248"
       d="m 92.5,230.3 427.3,0 M 306.2,444 l 0,-427.3 h 0.01"
       style="stroke:#ffffff" />
    <path
       style="fill:none;stroke:#90ee90;stroke-width:1px;stroke-linecap:butt;stroke-linejoin:miter;stroke-opacity:1"
       d="M 66.101695,-9.1525428 540,463.72881"
       id="path8020"
       inkscape:connector-curvature="0"
       sodipodi:nodetypes="cc" />
    <path
       style="fill:none;stroke:#90ee90;stroke-width:1px;stroke-linecap:butt;stroke-linejoin:miter;stroke-opacity:1"
       d="m 60.403698,230.4752 486.825042,0.71909"
       id="path8018"
       inkscape:connector-curvature="0"
       sodipodi:nodetypes="cc" />
    <path
       style="fill:none;stroke:#add8e6;stroke-width:1;stroke-linecap:butt;stroke-linejoin:miter;stroke-opacity:1;stroke-miterlimit:4;stroke-dasharray:4,4;stroke-dashoffset:0"
       d="m 221.48023,188.04879 84.13372,85.57191 86.291,0 -86.291,-86.291 z"
       id="path8014"
       inkscape:connector-curvature="0" />
    <path
       style="fill:none;stroke:#add8e6;stroke-width:1;stroke-linecap:butt;stroke-linejoin:miter;stroke-opacity:1;stroke-miterlimit:4;stroke-dasharray:4,4;stroke-dashoffset:0"
       d="m 92.04373,101.7578 257.43481,258.1539 170.42472,0 -258.1539,-260.311179 z"
       id="path8016"
       inkscape:connector-curvature="0" />
    <g
       id="g5712"
       style="fill:#90ee90;fill-opacity:1"
       transform="matrix(0.35154489,0,0,0.35154489,425.49264,71.25306)">
      <g
         id="g5714"
         transform="matrix(1.0629921,0,0,-1.0629921,-186.02362,789.27165)"
         xml:space="preserve"
         stroke-miterlimit="10.433"
         font-style="normal"
         font-variant="normal"
         font-weight="normal"
         font-stretch="normal"
         font-size-adjust="none"
         letter-spacing="normal"
         word-spacing="normal"
         style="font-style:normal;font-variant:normal;font-weight:normal;font-stretch:normal;letter-spacing:normal;word-spacing:normal;text-anchor:start;fill:#90ee90;fill-opacity:1;fill-rule:evenodd;stroke:#000000;stroke-linecap:butt;stroke-linejoin:miter;stroke-miterlimit:10.43299961;stroke-opacity:1;stroke-dasharray:none;stroke-dashoffset:0"><path
           d="m 490.39,336.93 0,0.02 0,0.02 0,0.01 0,0.02 0,0.02 0,0.01 -0.01,0.02 0,0.01 -0.01,0.02 0,0.01 -0.01,0.02 0,0.01 -0.01,0.01 0,0.02 -0.01,0.01 -0.01,0.01 -0.01,0.03 -0.02,0.02 -0.01,0.03 -0.02,0.02 -0.02,0.03 -0.02,0.03 -0.02,0.02 -0.01,0.02 -0.01,0.01 c -1.84,1.85 -5.17,5.17 -8.51,10.57 -8.02,12.84 -11.66,29.04 -11.66,48.21 0,13.41 1.8,30.69 10.02,45.55 3.93,7.06 8.01,11.16 10.2,13.34 0.15,0.16 0.15,0.25 0.15,0.41 0,0.5 -0.34,0.5 -1.04,0.5 -0.71,0 -0.8,0 -1.55,-0.75 -16.69,-15.2 -21.92,-38.01 -21.92,-59 0,-19.58 4.48,-39.3 17.14,-54.2 1,-1.14 2.89,-3.19 4.94,-4.99 0.59,-0.59 0.68,-0.59 1.39,-0.59 0.7,0 1.04,0 1.04,0.5 z"
           id="path5716"
           style="fill:#90ee90;fill-opacity:1;stroke-width:0"
           inkscape:connector-curvature="0" /><path
           d="m 508.88,429.17 0.03,0.13 0.03,0.15 0.05,0.16 0.04,0.18 0.06,0.2 0.05,0.2 0.07,0.22 0.07,0.22 0.08,0.24 0.09,0.24 0.1,0.24 0.1,0.25 0.11,0.25 0.12,0.25 0.13,0.25 0.14,0.24 0.14,0.24 0.16,0.24 0.17,0.23 0.17,0.23 0.19,0.21 0.2,0.2 0.21,0.19 0.22,0.18 0.23,0.16 0.25,0.14 0.12,0.07 0.13,0.06 0.14,0.05 0.13,0.05 0.14,0.05 0.14,0.04 0.15,0.03 0.15,0.03 0.15,0.02 0.15,0.02 0.16,0.01 0.17,0 c 0.25,0 1.43,0 2.48,-0.64 -1.39,-0.25 -2.39,-1.5 -2.39,-2.69 0,-0.79 0.55,-1.75 1.89,-1.75 1.1,0 2.69,0.9 2.69,2.9 0,2.59 -2.94,3.28 -4.63,3.28 -2.89,0 -4.64,-2.64 -5.23,-3.78 -1.25,3.28 -3.94,3.78 -5.38,3.78 -5.18,0 -8.03,-6.43 -8.03,-7.68 0,-0.5 0.5,-0.5 0.61,-0.5 0.39,0 0.55,0.11 0.64,0.55 1.69,5.28 4.99,6.53 6.67,6.53 0.96,0 2.69,-0.43 2.69,-3.33 0,-1.54 -0.84,-4.89 -2.69,-11.85 -0.79,-3.1 -2.53,-5.19 -4.73,-5.19 -0.3,0 -1.44,0 -2.48,0.65 1.25,0.24 2.34,1.29 2.34,2.69 0,1.35 -1.09,1.74 -1.84,1.74 -1.5,0 -2.75,-1.3 -2.75,-2.89 0,-2.29 2.5,-3.29 4.68,-3.29 3.3,0 5.08,3.49 5.24,3.79 0.59,-1.85 2.39,-3.79 5.37,-3.79 5.14,0 7.99,6.43 7.99,7.68 0,0.5 -0.46,0.5 -0.61,0.5 -0.44,0 -0.55,-0.21 -0.64,-0.55 -1.64,-5.33 -5.03,-6.53 -6.63,-6.53 -1.95,0 -2.75,1.59 -2.75,3.29 0,1.1 0.3,2.19 0.86,4.38 z"
           id="path5718"
           style="fill:#90ee90;fill-opacity:1;stroke-width:0"
           inkscape:connector-curvature="0" /><path
           d="m 517.54,373.34 0.01,0.04 0.01,0.03 0.01,0.06 0.02,0.05 0.01,0.06 0.01,0.05 0.02,0.04 0.01,0.05 0.01,0.04 0.01,0.04 0.01,0.04 0,0.04 0.01,0.04 0.01,0.03 0,0.03 0.01,0.03 0,0.03 0.01,0.03 0,0.03 0.01,0.05 0,0.06 0,0.05 0.01,0.05 0,0.05 0,0.03 0,0.03 0,0.03 0,0.03 c 0,0.91 -0.69,1.35 -1.44,1.35 -0.5,0 -1.3,-0.3 -1.75,-1.05 -0.09,-0.25 -0.5,-1.78 -0.69,-2.69 -0.36,-1.29 -0.7,-2.64 -1,-3.98 l -2.25,-8.97 c -0.19,-0.75 -2.33,-4.23 -5.62,-4.23 -2.53,0 -3.1,2.18 -3.1,4.03 0,2.29 0.86,5.39 2.55,9.76 0.8,2.05 1,2.6 1,3.6 0,2.23 -1.59,4.08 -4.09,4.08 -4.74,0 -6.58,-7.22 -6.58,-7.68 0,-0.5 0.5,-0.5 0.61,-0.5 0.5,0 0.54,0.11 0.79,0.91 1.35,4.69 3.33,6.17 5.04,6.17 0.39,0 1.25,0 1.25,-1.59 0,-1.25 -0.5,-2.53 -0.86,-3.49 -1.99,-5.28 -2.89,-8.12 -2.89,-10.47 0,-4.42 3.14,-5.92 6.07,-5.92 1.96,0 3.64,0.85 5.03,2.24 -0.64,-2.58 -1.23,-5.03 -3.23,-7.67 -1.3,-1.69 -3.19,-3.15 -5.48,-3.15 -0.69,0 -2.94,0.16 -3.79,2.1 0.8,0 1.46,0 2.15,0.61 0.5,0.44 1,1.09 1,2.03 0,1.55 -1.35,1.75 -1.85,1.75 -1.14,0 -2.8,-0.8 -2.8,-3.24 0,-2.5 2.21,-4.34 5.29,-4.34 5.14,0 10.26,4.55 11.67,10.17 z"
           id="path5720"
           style="fill:#90ee90;fill-opacity:1;stroke-width:0"
           inkscape:connector-curvature="0" /><path
           d="m 546.93,396.16 -0.05,3.68 -0.17,3.66 -0.28,3.66 -0.4,3.64 -0.53,3.61 -0.66,3.58 -0.79,3.54 -0.94,3.49 -1.09,3.44 -0.6,1.7 -0.64,1.68 -0.68,1.66 -0.72,1.64 -0.76,1.63 -0.81,1.6 -0.84,1.58 -0.89,1.56 -0.93,1.54 -0.98,1.52 -1.02,1.49 -1.07,1.46 -1.11,1.44 -1.17,1.41 c -1,1.15 -2.89,3.18 -4.93,4.98 -0.6,0.61 -0.71,0.61 -1.39,0.61 -0.61,0 -1.05,0 -1.05,-0.5 0,-0.2 0.19,-0.41 0.3,-0.5 1.73,-1.8 5.07,-5.14 8.42,-10.51 8.01,-12.86 11.65,-29.05 11.65,-48.24 0,-13.39 -1.79,-30.69 -10.01,-45.53 -3.94,-7.08 -8.08,-11.2 -10.17,-13.3 -0.1,-0.15 -0.19,-0.29 -0.19,-0.45 0,-0.5 0.44,-0.5 1.05,-0.5 0.68,0 0.79,0 1.53,0.75 16.7,15.2 21.92,38.02 21.92,58.98 z"
           id="path5722"
           style="fill:#90ee90;fill-opacity:1;stroke-width:0"
           inkscape:connector-curvature="0" /><path
           d="m 605.43,400.06 0.14,0 0.15,0 0.14,0.01 0.07,0 0.08,0 0.07,0.01 0.07,0.01 0.07,0.01 0.07,0.01 0.07,0.01 0.06,0.02 0.07,0.02 0.06,0.02 0.06,0.03 0.06,0.02 0.06,0.03 0.05,0.04 0.05,0.04 0.05,0.04 0.04,0.04 0.04,0.05 0.02,0.03 0.02,0.03 0.01,0.03 0.02,0.03 0.01,0.03 0.02,0.03 0.01,0.03 0.01,0.04 0.01,0.03 0.01,0.04 0,0.04 0.01,0.04 0,0.04 0.01,0.04 0,0.05 0,0.04 c 0,1 -0.95,1 -1.64,1 h -29.84 c -0.71,0 -1.64,0 -1.64,-1 0,-0.98 0.93,-0.98 1.68,-0.98 z"
           id="path5724"
           style="fill:#90ee90;fill-opacity:1;stroke-width:0"
           inkscape:connector-curvature="0" /><path
           d="m 605.48,390.39 0.07,0 0.06,0 0.14,0 0.14,0 0.07,0.01 0.07,0 0.07,0.01 0.07,0.01 0.06,0.01 0.07,0.01 0.07,0.01 0.06,0.02 0.07,0.02 0.06,0.02 0.06,0.03 0.06,0.02 0.05,0.04 0.05,0.03 0.05,0.04 0.05,0.04 0.04,0.05 0.02,0.02 0.02,0.03 0.02,0.03 0.02,0.02 0.01,0.03 0.02,0.03 0.01,0.03 0.02,0.04 0.01,0.03 0.01,0.04 0.01,0.03 0.01,0.04 0,0.04 0.01,0.04 0,0.04 0.01,0.05 0,0.04 0,0.05 c 0,1 -0.95,1 -1.69,1 h -29.75 c -0.75,0 -1.68,0 -1.68,-1 0,-1 0.93,-1 1.64,-1 z"
           id="path5726"
           style="fill:#90ee90;fill-opacity:1;stroke-width:0"
           inkscape:connector-curvature="0" /><path
           d="m 634.02,403.68 h 4.69 c 0.99,0 1.49,0 1.49,1 0,0.55 -0.5,0.55 -1.4,0.55 h -4.39 c 1.8,7.08 2.05,8.08 2.05,8.38 0,0.84 -0.59,1.34 -1.44,1.34 -0.15,0 -1.54,-0.05 -2,-1.8 l -1.93,-7.92 h -4.69 c -1,0 -1.5,0 -1.5,-0.94 0,-0.61 0.4,-0.61 1.4,-0.61 h 4.38 c -3.58,-14.14 -3.78,-14.98 -3.78,-15.89 0,-2.68 1.89,-4.58 4.58,-4.58 5.07,0 7.92,7.27 7.92,7.68 0,0.5 -0.39,0.5 -0.6,0.5 -0.45,0 -0.5,-0.16 -0.75,-0.71 -2.14,-5.17 -4.78,-6.37 -6.46,-6.37 -1.05,0 -1.55,0.65 -1.55,2.3 0,1.18 0.09,1.54 0.3,2.39 z"
           id="path5728"
           style="fill:#90ee90;fill-opacity:1;stroke-width:0"
           inkscape:connector-curvature="0" /><path
           d="m 684.91,336.93 0,0.02 0,0.02 0,0.01 0,0.02 0,0.02 -0.01,0.01 0,0.02 0,0.01 -0.01,0.02 0,0.01 -0.01,0.02 0,0.01 -0.01,0.01 0,0.02 -0.01,0.01 -0.01,0.01 -0.01,0.03 -0.02,0.02 -0.01,0.03 -0.02,0.02 -0.02,0.03 -0.02,0.03 -0.02,0.02 -0.01,0.02 -0.01,0.01 c -1.84,1.85 -5.17,5.17 -8.51,10.57 -8.02,12.84 -11.66,29.04 -11.66,48.21 0,13.41 1.8,30.69 10.01,45.55 3.94,7.06 8.02,11.16 10.21,13.34 0.15,0.16 0.15,0.25 0.15,0.41 0,0.5 -0.34,0.5 -1.04,0.5 -0.71,0 -0.8,0 -1.55,-0.75 -16.69,-15.2 -21.92,-38.01 -21.92,-59 0,-19.58 4.48,-39.3 17.14,-54.2 1,-1.14 2.89,-3.19 4.94,-4.99 0.59,-0.59 0.68,-0.59 1.39,-0.59 0.7,0 1.04,0 1.04,0.5 z"
           id="path5730"
           style="fill:#90ee90;fill-opacity:1;stroke-width:0"
           inkscape:connector-curvature="0" /><path
           d="m 701.4,446.01 0,0.06 0,0.05 0,0.05 0,0.05 0,0.05 0,0.05 0,0.04 0,0.05 0,0.04 0,0.04 0,0.04 -0.01,0.04 0,0.04 0,0.04 0,0.03 -0.01,0.04 0,0.06 -0.01,0.06 -0.01,0.05 -0.02,0.05 -0.01,0.05 -0.02,0.04 -0.03,0.04 -0.02,0.04 -0.03,0.03 -0.03,0.02 -0.04,0.03 -0.04,0.02 -0.04,0.02 -0.02,0.01 -0.03,0.01 -0.02,0 -0.03,0.01 -0.03,0.01 -0.03,0 -0.03,0.01 -0.03,0 -0.03,0.01 -0.04,0 -0.04,0 -0.03,0.01 -0.04,0 -0.04,0 -0.04,0 -0.05,0.01 -0.04,0 -0.05,0 -0.05,0 -0.04,0 -0.06,0 -0.05,0 c -3.09,-3.19 -7.47,-3.19 -9.06,-3.19 v -1.55 c 1,0 3.94,0 6.52,1.3 v -25.81 c 0,-1.8 -0.15,-2.39 -4.63,-2.39 h -1.59 v -1.55 c 1.75,0.16 6.07,0.16 8.06,0.16 2,0 6.33,0 8.08,-0.16 v 1.55 h -1.6 c -4.48,0 -4.64,0.54 -4.64,2.39 z"
           id="path5732"
           style="fill:#90ee90;fill-opacity:1;stroke-width:0"
           inkscape:connector-curvature="0" /><path
           d="m 709.68,370.3 0,0.74 -0.01,0.75 -0.02,0.75 -0.03,0.74 -0.05,0.75 -0.06,0.74 -0.07,0.74 -0.1,0.73 -0.12,0.73 -0.13,0.73 -0.17,0.72 -0.19,0.72 -0.21,0.72 -0.25,0.7 -0.28,0.7 -0.15,0.35 -0.16,0.34 c -2.28,4.8 -6.37,5.6 -8.46,5.6 -2.99,0 -6.63,-1.3 -8.68,-5.94 -1.59,-3.44 -1.84,-7.33 -1.84,-11.31 0,-3.74 0.2,-8.22 2.25,-12 2.14,-4.03 5.78,-5.03 8.22,-5.03 v 1.09 c -1.94,0 -4.89,1.25 -5.78,6.03 -0.55,2.99 -0.55,7.56 -0.55,10.52 0,3.18 0,6.47 0.41,9.15 0.93,5.94 4.67,6.38 5.92,6.38 1.64,0 4.93,-0.89 5.87,-5.83 0.5,-2.78 0.5,-6.58 0.5,-9.7 0,-3.75 0,-7.13 -0.54,-10.32 -0.75,-4.73 -3.6,-6.23 -5.83,-6.23 h 0 v -1.09 c 2.68,0 6.47,1.04 8.67,5.78 1.59,3.43 1.84,7.31 1.84,11.25 z"
           id="path5734"
           style="fill:#90ee90;fill-opacity:1;stroke-width:0"
           inkscape:connector-curvature="0" /><path
           d="m 737.85,396.16 -0.05,3.68 -0.17,3.66 -0.28,3.66 -0.4,3.64 -0.52,3.61 -0.66,3.58 -0.8,3.54 -0.94,3.49 -1.09,3.44 -0.6,1.7 -0.64,1.68 -0.68,1.66 -0.72,1.64 -0.76,1.63 -0.8,1.6 -0.85,1.58 -0.89,1.56 -0.93,1.54 -0.98,1.52 -1.02,1.49 -1.07,1.46 -1.11,1.44 -1.16,1.41 c -1,1.15 -2.89,3.18 -4.94,4.98 -0.59,0.61 -0.7,0.61 -1.39,0.61 -0.61,0 -1.05,0 -1.05,-0.5 0,-0.2 0.19,-0.41 0.3,-0.5 1.73,-1.8 5.08,-5.14 8.42,-10.51 8.02,-12.86 11.66,-29.05 11.66,-48.24 0,-13.39 -1.8,-30.69 -10.02,-45.53 -3.94,-7.08 -8.08,-11.2 -10.17,-13.3 -0.09,-0.15 -0.19,-0.29 -0.19,-0.45 0,-0.5 0.44,-0.5 1.05,-0.5 0.69,0 0.8,0 1.53,0.75 16.7,15.2 21.92,38.02 21.92,58.98 z"
           id="path5736"
           style="fill:#90ee90;fill-opacity:1;stroke-width:0"
           inkscape:connector-curvature="0" /></g>    </g>
    <g
       id="g5998"
       transform="matrix(0.35154489,0,0,0.35154489,424.72209,298.40046)"
       style="fill:#90ee90;fill-opacity:1">
      <g
         word-spacing="normal"
         letter-spacing="normal"
         font-size-adjust="none"
         font-stretch="normal"
         font-weight="normal"
         font-variant="normal"
         font-style="normal"
         stroke-miterlimit="10.433"
         xml:space="preserve"
         transform="matrix(1.0629921,0,0,-1.0629921,-186.02362,789.27165)"
         id="g6000"
         style="font-style:normal;font-variant:normal;font-weight:normal;font-stretch:normal;letter-spacing:normal;word-spacing:normal;text-anchor:start;fill:#90ee90;fill-opacity:1;stroke:#000000;stroke-linecap:butt;stroke-linejoin:miter;stroke-miterlimit:10.43299961;stroke-opacity:1;stroke-dasharray:none;stroke-dashoffset:0"><path
           id="path6002"
           d="m 490.39,336.93 0,0.02 0,0.02 0,0.01 0,0.02 0,0.02 0,0.01 -0.01,0.02 0,0.01 -0.01,0.02 0,0.01 -0.01,0.02 0,0.01 -0.01,0.01 0,0.02 -0.01,0.01 -0.01,0.01 -0.01,0.03 -0.02,0.02 -0.01,0.03 -0.02,0.02 -0.02,0.03 -0.02,0.03 -0.02,0.02 -0.01,0.02 -0.01,0.01 c -1.84,1.85 -5.17,5.17 -8.51,10.57 -8.02,12.84 -11.66,29.04 -11.66,48.21 0,13.41 1.8,30.69 10.02,45.55 3.93,7.06 8.01,11.16 10.2,13.34 0.15,0.16 0.15,0.25 0.15,0.41 0,0.5 -0.34,0.5 -1.04,0.5 -0.71,0 -0.8,0 -1.55,-0.75 -16.69,-15.2 -21.92,-38.01 -21.92,-59 0,-19.58 4.48,-39.3 17.14,-54.2 1,-1.14 2.89,-3.19 4.94,-4.99 0.59,-0.59 0.68,-0.59 1.39,-0.59 0.7,0 1.04,0 1.04,0.5 z"
           inkscape:connector-curvature="0"
           style="fill:#90ee90;fill-opacity:1;stroke-width:0" /><path
           id="path6004"
           d="m 508.88,429.17 0.03,0.13 0.03,0.15 0.05,0.16 0.04,0.18 0.06,0.2 0.05,0.2 0.07,0.22 0.07,0.22 0.08,0.24 0.09,0.24 0.1,0.24 0.1,0.25 0.11,0.25 0.12,0.25 0.13,0.25 0.14,0.24 0.14,0.24 0.16,0.24 0.17,0.23 0.17,0.23 0.19,0.21 0.2,0.2 0.21,0.19 0.22,0.18 0.23,0.16 0.25,0.14 0.12,0.07 0.13,0.06 0.14,0.05 0.13,0.05 0.14,0.05 0.14,0.04 0.15,0.03 0.15,0.03 0.15,0.02 0.15,0.02 0.16,0.01 0.17,0 c 0.25,0 1.43,0 2.48,-0.64 -1.39,-0.25 -2.39,-1.5 -2.39,-2.69 0,-0.79 0.55,-1.75 1.89,-1.75 1.1,0 2.69,0.9 2.69,2.9 0,2.59 -2.94,3.28 -4.63,3.28 -2.89,0 -4.64,-2.64 -5.23,-3.78 -1.25,3.28 -3.94,3.78 -5.38,3.78 -5.18,0 -8.03,-6.43 -8.03,-7.68 0,-0.5 0.5,-0.5 0.61,-0.5 0.39,0 0.55,0.11 0.64,0.55 1.69,5.28 4.99,6.53 6.67,6.53 0.96,0 2.69,-0.43 2.69,-3.33 0,-1.54 -0.84,-4.89 -2.69,-11.85 -0.79,-3.1 -2.53,-5.19 -4.73,-5.19 -0.3,0 -1.44,0 -2.48,0.65 1.25,0.24 2.34,1.29 2.34,2.69 0,1.35 -1.09,1.74 -1.84,1.74 -1.5,0 -2.75,-1.3 -2.75,-2.89 0,-2.29 2.5,-3.29 4.68,-3.29 3.3,0 5.08,3.49 5.24,3.79 0.59,-1.85 2.39,-3.79 5.37,-3.79 5.14,0 7.99,6.43 7.99,7.68 0,0.5 -0.46,0.5 -0.61,0.5 -0.44,0 -0.55,-0.21 -0.64,-0.55 -1.64,-5.33 -5.03,-6.53 -6.63,-6.53 -1.95,0 -2.75,1.59 -2.75,3.29 0,1.1 0.3,2.19 0.86,4.38 z"
           inkscape:connector-curvature="0"
           style="fill:#90ee90;fill-opacity:1;stroke-width:0" /><path
           id="path6006"
           d="m 517.54,373.34 0.01,0.04 0.01,0.03 0.01,0.06 0.02,0.05 0.01,0.06 0.01,0.05 0.02,0.04 0.01,0.05 0.01,0.04 0.01,0.04 0.01,0.04 0,0.04 0.01,0.04 0.01,0.03 0,0.03 0.01,0.03 0,0.03 0.01,0.03 0,0.03 0.01,0.05 0,0.06 0,0.05 0.01,0.05 0,0.05 0,0.03 0,0.03 0,0.03 0,0.03 c 0,0.91 -0.69,1.35 -1.44,1.35 -0.5,0 -1.3,-0.3 -1.75,-1.05 -0.09,-0.25 -0.5,-1.78 -0.69,-2.69 -0.36,-1.29 -0.7,-2.64 -1,-3.98 l -2.25,-8.97 c -0.19,-0.75 -2.33,-4.23 -5.62,-4.23 -2.53,0 -3.1,2.18 -3.1,4.03 0,2.29 0.86,5.39 2.55,9.76 0.8,2.05 1,2.6 1,3.6 0,2.23 -1.59,4.08 -4.09,4.08 -4.74,0 -6.58,-7.22 -6.58,-7.68 0,-0.5 0.5,-0.5 0.61,-0.5 0.5,0 0.54,0.11 0.79,0.91 1.35,4.69 3.33,6.17 5.04,6.17 0.39,0 1.25,0 1.25,-1.59 0,-1.25 -0.5,-2.53 -0.86,-3.49 -1.99,-5.28 -2.89,-8.12 -2.89,-10.47 0,-4.42 3.14,-5.92 6.07,-5.92 1.96,0 3.64,0.85 5.03,2.24 -0.64,-2.58 -1.23,-5.03 -3.23,-7.67 -1.3,-1.69 -3.19,-3.15 -5.48,-3.15 -0.69,0 -2.94,0.16 -3.79,2.1 0.8,0 1.46,0 2.15,0.61 0.5,0.44 1,1.09 1,2.03 0,1.55 -1.35,1.75 -1.85,1.75 -1.14,0 -2.8,-0.8 -2.8,-3.24 0,-2.5 2.21,-4.34 5.29,-4.34 5.14,0 10.26,4.55 11.67,10.17 z"
           inkscape:connector-curvature="0"
           style="fill:#90ee90;fill-opacity:1;stroke-width:0" /><path
           id="path6008"
           d="m 546.93,396.16 -0.05,3.68 -0.17,3.66 -0.28,3.66 -0.4,3.64 -0.53,3.61 -0.66,3.58 -0.79,3.54 -0.94,3.49 -1.09,3.44 -0.6,1.7 -0.64,1.68 -0.68,1.66 -0.72,1.64 -0.76,1.63 -0.81,1.6 -0.84,1.58 -0.89,1.56 -0.93,1.54 -0.98,1.52 -1.02,1.49 -1.07,1.46 -1.11,1.44 -1.17,1.41 c -1,1.15 -2.89,3.18 -4.93,4.98 -0.6,0.61 -0.71,0.61 -1.39,0.61 -0.61,0 -1.05,0 -1.05,-0.5 0,-0.2 0.19,-0.41 0.3,-0.5 1.73,-1.8 5.07,-5.14 8.42,-10.51 8.01,-12.86 11.65,-29.05 11.65,-48.24 0,-13.39 -1.79,-30.69 -10.01,-45.53 -3.94,-7.08 -8.08,-11.2 -10.17,-13.3 -0.1,-0.15 -0.19,-0.29 -0.19,-0.45 0,-0.5 0.44,-0.5 1.05,-0.5 0.68,0 0.79,0 1.53,0.75 16.7,15.2 21.92,38.02 21.92,58.98 z"
           inkscape:connector-curvature="0"
           style="fill:#90ee90;fill-opacity:1;stroke-width:0" /><path
           id="path6010"
           d="m 605.43,400.06 0.14,0 0.15,0 0.14,0.01 0.07,0 0.08,0 0.07,0.01 0.07,0.01 0.07,0.01 0.07,0.01 0.07,0.01 0.06,0.02 0.07,0.02 0.06,0.02 0.06,0.03 0.06,0.02 0.06,0.03 0.05,0.04 0.05,0.04 0.05,0.04 0.04,0.04 0.04,0.05 0.02,0.03 0.02,0.03 0.01,0.03 0.02,0.03 0.01,0.03 0.02,0.03 0.01,0.03 0.01,0.04 0.01,0.03 0.01,0.04 0,0.04 0.01,0.04 0,0.04 0.01,0.04 0,0.05 0,0.04 c 0,1 -0.95,1 -1.64,1 h -29.84 c -0.71,0 -1.64,0 -1.64,-1 0,-0.98 0.93,-0.98 1.68,-0.98 z"
           inkscape:connector-curvature="0"
           style="fill:#90ee90;fill-opacity:1;stroke-width:0" /><path
           id="path6012"
           d="m 605.48,390.39 0.07,0 0.06,0 0.14,0 0.14,0 0.07,0.01 0.07,0 0.07,0.01 0.07,0.01 0.06,0.01 0.07,0.01 0.07,0.01 0.06,0.02 0.07,0.02 0.06,0.02 0.06,0.03 0.06,0.02 0.05,0.04 0.05,0.03 0.05,0.04 0.05,0.04 0.04,0.05 0.02,0.02 0.02,0.03 0.02,0.03 0.02,0.02 0.01,0.03 0.02,0.03 0.01,0.03 0.02,0.04 0.01,0.03 0.01,0.04 0.01,0.03 0.01,0.04 0,0.04 0.01,0.04 0,0.04 0.01,0.05 0,0.04 0,0.05 c 0,1 -0.95,1 -1.69,1 h -29.75 c -0.75,0 -1.68,0 -1.68,-1 0,-1 0.93,-1 1.64,-1 z"
           inkscape:connector-curvature="0"
           style="fill:#90ee90;fill-opacity:1;stroke-width:0" /><path
           id="path6014"
           d="m 634.02,403.68 h 4.69 c 0.99,0 1.49,0 1.49,1 0,0.55 -0.5,0.55 -1.4,0.55 h -4.39 c 1.8,7.08 2.05,8.08 2.05,8.38 0,0.84 -0.59,1.34 -1.44,1.34 -0.15,0 -1.54,-0.05 -2,-1.8 l -1.93,-7.92 h -4.69 c -1,0 -1.5,0 -1.5,-0.94 0,-0.61 0.4,-0.61 1.4,-0.61 h 4.38 c -3.58,-14.14 -3.78,-14.98 -3.78,-15.89 0,-2.68 1.89,-4.58 4.58,-4.58 5.07,0 7.92,7.27 7.92,7.68 0,0.5 -0.39,0.5 -0.6,0.5 -0.45,0 -0.5,-0.16 -0.75,-0.71 -2.14,-5.17 -4.78,-6.37 -6.46,-6.37 -1.05,0 -1.55,0.65 -1.55,2.3 0,1.18 0.09,1.54 0.3,2.39 z"
           inkscape:connector-curvature="0"
           style="fill:#90ee90;fill-opacity:1;stroke-width:0" /><path
           id="path6016"
           d="m 684.91,336.93 0,0.02 0,0.02 0,0.01 0,0.02 0,0.02 -0.01,0.01 0,0.02 0,0.01 -0.01,0.02 0,0.01 -0.01,0.02 0,0.01 -0.01,0.01 0,0.02 -0.01,0.01 -0.01,0.01 -0.01,0.03 -0.02,0.02 -0.01,0.03 -0.02,0.02 -0.02,0.03 -0.02,0.03 -0.02,0.02 -0.01,0.02 -0.01,0.01 c -1.84,1.85 -5.17,5.17 -8.51,10.57 -8.02,12.84 -11.66,29.04 -11.66,48.21 0,13.41 1.8,30.69 10.01,45.55 3.94,7.06 8.02,11.16 10.21,13.34 0.15,0.16 0.15,0.25 0.15,0.41 0,0.5 -0.34,0.5 -1.04,0.5 -0.71,0 -0.8,0 -1.55,-0.75 -16.69,-15.2 -21.92,-38.01 -21.92,-59 0,-19.58 4.48,-39.3 17.14,-54.2 1,-1.14 2.89,-3.19 4.94,-4.99 0.59,-0.59 0.68,-0.59 1.39,-0.59 0.7,0 1.04,0 1.04,0.5 z"
           inkscape:connector-curvature="0"
           style="fill:#90ee90;fill-opacity:1;stroke-width:0" /><path
           id="path6018"
           d="m 720.72,446.01 0,0.06 0,0.05 0,0.05 0,0.05 0,0.05 0,0.05 0,0.04 0,0.05 0,0.04 -0.01,0.04 0,0.04 0,0.04 0,0.04 0,0.04 -0.01,0.03 0,0.04 -0.01,0.06 -0.01,0.06 -0.01,0.05 -0.01,0.05 -0.02,0.05 -0.02,0.04 -0.02,0.04 -0.02,0.04 -0.03,0.03 -0.03,0.02 -0.04,0.03 -0.04,0.02 -0.04,0.02 -0.03,0.01 -0.02,0.01 -0.03,0 -0.02,0.01 -0.03,0.01 -0.03,0 -0.03,0.01 -0.04,0 -0.03,0.01 -0.03,0 -0.04,0 -0.04,0.01 -0.04,0 -0.04,0 -0.04,0 -0.04,0.01 -0.04,0 -0.05,0 -0.05,0 -0.05,0 -0.05,0 -0.05,0 c -3.1,-3.19 -7.47,-3.19 -9.06,-3.19 v -1.55 c 1,0 3.93,0 6.51,1.3 v -25.81 c 0,-1.8 -0.14,-2.39 -4.62,-2.39 h -1.6 v -1.55 c 1.75,0.16 6.08,0.16 8.07,0.16 2,0 6.32,0 8.07,-0.16 v 1.55 h -1.59 c -4.48,0 -4.64,0.54 -4.64,2.39 z"
           inkscape:connector-curvature="0"
           style="fill:#90ee90;fill-opacity:1;stroke-width:0" /><path
           id="path6020"
           d="m 719.59,365.81 0.16,0 0.16,0 0.15,0.01 0.08,0 0.08,0.01 0.08,0 0.07,0.01 0.07,0.01 0.07,0.01 0.07,0.02 0.07,0.02 0.07,0.02 0.06,0.02 0.06,0.02 0.06,0.03 0.06,0.03 0.05,0.04 0.05,0.03 0.04,0.05 0.05,0.04 0.04,0.05 0.01,0.03 0.02,0.03 0.02,0.03 0.01,0.03 0.01,0.03 0.02,0.03 0.01,0.04 0.01,0.03 0.01,0.04 0.01,0.04 0,0.04 0.01,0.04 0,0.04 0.01,0.04 0,0.05 0,0.04 c 0,1 -0.91,1 -1.75,1 h -26.95 c -0.85,0 -1.74,0 -1.74,-1 0,-1 0.89,-1 1.74,-1 z"
           inkscape:connector-curvature="0"
           style="fill:#90ee90;fill-opacity:1;stroke-width:0" /><path
           id="path6022"
           d="m 740.16,386.25 0,0.05 0,0.06 0,0.05 0,0.05 0,0.05 0,0.05 0,0.04 0,0.05 0,0.04 0,0.04 -0.01,0.04 0,0.04 0,0.04 0,0.03 0,0.04 -0.01,0.03 -0.01,0.07 0,0.06 -0.02,0.05 -0.01,0.05 -0.02,0.05 -0.02,0.04 -0.02,0.04 -0.02,0.03 -0.03,0.04 -0.03,0.02 -0.04,0.03 -0.04,0.02 -0.04,0.02 -0.03,0.01 -0.02,0.01 -0.03,0 -0.02,0.01 -0.03,0.01 -0.03,0 -0.03,0.01 -0.03,0 -0.04,0.01 -0.03,0 -0.04,0 -0.03,0.01 -0.04,0 -0.04,0 -0.05,0 -0.04,0 -0.04,0 -0.05,0.01 -0.05,0 -0.05,0 -0.05,0 -0.05,0 c -3.09,-3.19 -7.47,-3.19 -9.06,-3.19 v -1.55 c 1,0 3.94,0 6.51,1.3 V 358.3 c 0,-1.8 -0.14,-2.39 -4.62,-2.39 h -1.6 v -1.55 c 1.75,0.16 6.08,0.16 8.07,0.16 2,0 6.33,0 8.08,-0.16 v 1.55 h -1.6 c -4.48,0 -4.64,0.54 -4.64,2.39 z"
           inkscape:connector-curvature="0"
           style="fill:#90ee90;fill-opacity:1;stroke-width:0" /><path
           id="path6024"
           d="m 776.61,396.16 -0.05,3.68 -0.17,3.66 -0.28,3.66 -0.4,3.64 -0.53,3.61 -0.66,3.58 -0.79,3.54 -0.94,3.49 -1.09,3.44 -0.6,1.7 -0.64,1.68 -0.68,1.66 -0.72,1.64 -0.76,1.63 -0.81,1.6 -0.84,1.58 -0.89,1.56 -0.93,1.54 -0.98,1.52 -1.02,1.49 -1.07,1.46 -1.11,1.44 -1.17,1.41 c -1,1.15 -2.89,3.18 -4.93,4.98 -0.6,0.61 -0.71,0.61 -1.39,0.61 -0.61,0 -1.05,0 -1.05,-0.5 0,-0.2 0.19,-0.41 0.3,-0.5 1.73,-1.8 5.07,-5.14 8.42,-10.51 8.01,-12.86 11.65,-29.05 11.65,-48.24 0,-13.39 -1.79,-30.69 -10.01,-45.53 -3.94,-7.08 -8.08,-11.2 -10.17,-13.3 -0.1,-0.15 -0.19,-0.29 -0.19,-0.45 0,-0.5 0.44,-0.5 1.05,-0.5 0.68,0 0.79,0 1.53,0.75 16.7,15.2 21.92,38.02 21.92,58.98 z"
           inkscape:connector-curvature="0"
           style="fill:#90ee90;fill-opacity:1;stroke-width:0" /></g>    </g>
  </g>
  <g
     id="g7250"
     style="color:#000000;fill:none;stroke:currentColor;stroke-width:1;stroke-linecap:butt;stroke-linejoin:miter">
    <path
       inkscape:connector-curvature="0"
       id="path7252"
       d="m 92.5,16.7 0,427.3 427.3,0 0,-427.3 -427.3,0 z m 0,0 h 0.01" />
  </g>
  <g
     id="gnuplot_plot_1"
     style="fill:#ffc0cb;fill-opacity:1;stroke:#ffc0cb;stroke-opacity:1">
    <title
       id="title7255">gnuplot_plot_1</title>
    <g
       id="g7257"
       style="color:#ff0000;fill:#ffc0cb;stroke:#ffc0cb;stroke-width:1;stroke-linecap:butt;stroke-linejoin:miter;fill-opacity:1;stroke-opacity:1">
      <g
         id="g7259"
         style="stroke:#ffc0cb;fill:#ffc0cb;fill-opacity:1;stroke-opacity:1">
        <polygon
           style="fill:#ffc0cb;fill-opacity:1;stroke:#ffc0cb;stroke-opacity:1"
           id="polygon7261"
           points="348.9,358.5 337.1,345.2 343.3,347.2 343.3,347.2 345.4,341 " />
      </g>
      <path
         inkscape:connector-curvature="0"
         id="path7263"
         d="m 343.3,347.2 2.1,-6.2 3.5,17.5 -11.8,-13.3 6.2,2 m -37.1,-74.1 37.1,74.1 h 0.01"
         style="fill:#ffc0cb;fill-opacity:1;stroke:#ffc0cb;stroke-opacity:1" />
      <g
         id="g7265"
         style="stroke:#ffc0cb;fill:#ffc0cb;fill-opacity:1;stroke-opacity:1">
        <polygon
           style="fill:#ffc0cb;fill-opacity:1;stroke:#ffc0cb;stroke-opacity:1"
           id="polygon7267"
           points="391.6,358.5 377.6,347.5 384.1,348.4 384.1,348.4 385,341.9 " />
      </g>
      <path
         inkscape:connector-curvature="0"
         id="path7269"
         d="m 384.1,348.4 0.9,-6.5 6.6,16.6 -14,-11 6.5,0.9 m -56.6,-75.3 56.6,75.3 h 0.01"
         style="fill:#ffc0cb;fill-opacity:1;stroke:#ffc0cb;stroke-opacity:1" />
      <g
         id="g7271"
         style="stroke:#ffc0cb;fill:#ffc0cb;fill-opacity:1;stroke-opacity:1">
        <polygon
           style="fill:#ffc0cb;fill-opacity:1;stroke:#ffc0cb;stroke-opacity:1"
           id="polygon7273"
           points="434.3,358.5 418.8,349.6 425.4,349.6 425.4,349.6 425.4,343 " />
      </g>
      <path
         inkscape:connector-curvature="0"
         id="path7275"
         d="m 425.4,349.6 0,-6.6 8.9,15.5 -15.5,-8.9 6.6,0 m -76.5,-76.5 76.5,76.5 h 0.01"
         style="fill:#ffc0cb;fill-opacity:1;stroke:#ffc0cb;stroke-opacity:1" />
      <g
         id="g7277"
         style="stroke:#ffc0cb;fill:#ffc0cb;fill-opacity:1;stroke-opacity:1">
        <polygon
           style="fill:#ffc0cb;fill-opacity:1;stroke:#ffc0cb;stroke-opacity:1"
           id="polygon7279"
           points="477.1,358.5 460.7,351.4 467.3,350.6 467.3,350.6 466.5,344.1 " />
      </g>
      <path
         inkscape:connector-curvature="0"
         id="path7281"
         d="m 467.3,350.6 -0.8,-6.5 10.6,14.4 -16.4,-7.1 6.6,-0.8 m -97.1,-77.5 97.1,77.5 h 0.01"
         style="fill:#ffc0cb;fill-opacity:1;stroke:#ffc0cb;stroke-opacity:1" />
      <g
         id="g7283"
         style="stroke:#ffc0cb;fill:#ffc0cb;fill-opacity:1;stroke-opacity:1">
        <polygon
           style="fill:#ffc0cb;fill-opacity:1;stroke:#ffc0cb;stroke-opacity:1"
           id="polygon7285"
           points="519.8,358.5 502.9,352.8 509.3,351.5 509.3,351.5 508,345.1 " />
      </g>
      <path
         inkscape:connector-curvature="0"
         id="path7287"
         d="m 509.3,351.5 -1.3,-6.4 11.8,13.4 -16.9,-5.7 6.4,-1.3 m -117.7,-78.4 117.7,78.4 h 0.01"
         style="fill:#ffc0cb;fill-opacity:1;stroke:#ffc0cb;stroke-opacity:1" />
      <g
         id="g7289"
         style="stroke:#ffc0cb;fill:#ffc0cb;fill-opacity:1;stroke-opacity:1">
        <polygon
           style="fill:#ffc0cb;fill-opacity:1;stroke:#ffc0cb;stroke-opacity:1"
           id="polygon7291"
           points="284.8,294.4 280.2,277.2 284.8,281.8 284.8,281.8 289.4,277.2 " />
      </g>
      <path
         inkscape:connector-curvature="0"
         id="path7293"
         d="m 284.8,281.8 4.6,-4.6 -4.6,17.2 -4.6,-17.2 4.6,4.6 m 0,-30.1 0,30.1 h 0.01"
         style="fill:#ffc0cb;fill-opacity:1;stroke:#ffc0cb;stroke-opacity:1" />
      <g
         id="g7295"
         style="stroke:#ffc0cb;fill:#ffc0cb;fill-opacity:1;stroke-opacity:1">
        <polygon
           style="fill:#ffc0cb;fill-opacity:1;stroke:#ffc0cb;stroke-opacity:1"
           id="polygon7297"
           points="455.7,294.4 438.2,290.9 444.4,288.8 444.4,288.8 442.4,282.6 " />
      </g>
      <path
         inkscape:connector-curvature="0"
         id="path7299"
         d="m 444.4,288.8 -2,-6.2 13.3,11.8 -17.5,-3.5 6.2,-2.1 m -74.2,-37.1 74.2,37.1 h 0.01"
         style="fill:#ffc0cb;fill-opacity:1;stroke:#ffc0cb;stroke-opacity:1" />
      <g
         id="g7301"
         style="stroke:#ffc0cb;fill:#ffc0cb;fill-opacity:1;stroke-opacity:1">
        <polygon
           style="fill:#ffc0cb;fill-opacity:1;stroke:#ffc0cb;stroke-opacity:1"
           id="polygon7303"
           points="220.7,230.3 237.9,225.7 233.3,230.3 233.3,230.3 237.9,234.9 " />
      </g>
      <path
         inkscape:connector-curvature="0"
         id="path7305"
         d="m 233.3,230.3 4.6,4.6 -17.2,-4.6 17.2,-4.6 -4.6,4.6 m 30.1,0 -30.1,0 h 0.01"
         style="fill:#ffc0cb;fill-opacity:1;stroke:#ffc0cb;stroke-opacity:1" />
      <g
         id="g7307"
         style="stroke:#ffc0cb;fill:#ffc0cb;fill-opacity:1;stroke-opacity:1">
        <polygon
           style="fill:#ffc0cb;fill-opacity:1;stroke:#ffc0cb;stroke-opacity:1"
           id="polygon7309"
           points="391.6,230.3 374.4,234.9 379,230.3 379,230.3 374.4,225.7 " />
      </g>
      <path
         inkscape:connector-curvature="0"
         id="path7311"
         d="m 379,230.3 -4.6,-4.6 17.2,4.6 -17.2,4.6 4.6,-4.6 m -30.1,0 30.1,0 h 0.01"
         style="fill:#ffc0cb;fill-opacity:1;stroke:#ffc0cb;stroke-opacity:1" />
      <g
         id="g7313"
         style="stroke:#ffc0cb;fill:#ffc0cb;fill-opacity:1;stroke-opacity:1">
        <polygon
           style="fill:#ffc0cb;fill-opacity:1;stroke:#ffc0cb;stroke-opacity:1"
           id="polygon7315"
           points="156.6,166.3 174.1,169.8 167.9,171.9 167.9,171.9 169.9,178.1 " />
      </g>
      <path
         inkscape:connector-curvature="0"
         id="path7317"
         d="m 167.9,171.9 2,6.2 -13.3,-11.8 17.5,3.5 -6.2,2.1 m 74.2,37.1 -74.2,-37.1 h 0.01"
         style="fill:#ffc0cb;fill-opacity:1;stroke:#ffc0cb;stroke-opacity:1" />
      <g
         id="g7319"
         style="stroke:#ffc0cb;fill:#ffc0cb;fill-opacity:1;stroke-opacity:1">
        <polygon
           style="fill:#ffc0cb;fill-opacity:1;stroke:#ffc0cb;stroke-opacity:1"
           id="polygon7321"
           points="327.5,166.3 332.1,183.5 327.5,178.9 327.5,178.9 322.9,183.5 " />
      </g>
      <path
         inkscape:connector-curvature="0"
         id="path7323"
         d="m 327.5,178.9 -4.6,4.6 4.6,-17.2 4.6,17.2 -4.6,-4.6 m 0,30.1 0,-30.1 h 0.01"
         style="fill:#ffc0cb;fill-opacity:1;stroke:#ffc0cb;stroke-opacity:1" />
      <g
         id="g7325"
         style="stroke:#ffc0cb;fill:#ffc0cb;fill-opacity:1;stroke-opacity:1">
        <polygon
           style="fill:#ffc0cb;fill-opacity:1;stroke:#ffc0cb;stroke-opacity:1"
           id="polygon7327"
           points="92.5,102.2 109.4,107.9 103,109.2 103,109.2 104.3,115.6 " />
      </g>
      <path
         inkscape:connector-curvature="0"
         id="path7329"
         d="m 103,109.2 1.3,6.4 -11.8,-13.4 16.9,5.7 -6.4,1.3 M 220.7,187.6 103,109.2 h 0.01"
         style="fill:#ffc0cb;fill-opacity:1;stroke:#ffc0cb;stroke-opacity:1" />
      <g
         id="g7331"
         style="stroke:#ffc0cb;fill:#ffc0cb;fill-opacity:1;stroke-opacity:1">
        <polygon
           style="fill:#ffc0cb;fill-opacity:1;stroke:#ffc0cb;stroke-opacity:1"
           id="polygon7333"
           points="135.2,102.2 151.6,109.3 145,110.1 145,110.1 145.8,116.6 " />
      </g>
      <path
         inkscape:connector-curvature="0"
         id="path7335"
         d="m 145,110.1 0.8,6.5 -10.6,-14.4 16.4,7.1 -6.6,0.8 m 97.1,77.5 -97.1,-77.5 h 0.01"
         style="fill:#ffc0cb;fill-opacity:1;stroke:#ffc0cb;stroke-opacity:1" />
      <g
         id="g7337"
         style="stroke:#ffc0cb;fill:#ffc0cb;fill-opacity:1;stroke-opacity:1">
        <polygon
           style="fill:#ffc0cb;fill-opacity:1;stroke:#ffc0cb;stroke-opacity:1"
           id="polygon7339"
           points="178,102.2 193.5,111.1 186.9,111.1 186.9,111.1 186.9,117.7 " />
      </g>
      <path
         inkscape:connector-curvature="0"
         id="path7341"
         d="m 186.9,111.1 0,6.6 -8.9,-15.5 15.5,8.9 -6.6,0 m 76.5,76.5 -76.5,-76.5 h 0.01"
         style="fill:#ffc0cb;fill-opacity:1;stroke:#ffc0cb;stroke-opacity:1" />
      <g
         id="g7343"
         style="stroke:#ffc0cb;fill:#ffc0cb;fill-opacity:1;stroke-opacity:1">
        <polygon
           style="fill:#ffc0cb;fill-opacity:1;stroke:#ffc0cb;stroke-opacity:1"
           id="polygon7345"
           points="220.7,102.2 234.7,113.2 228.2,112.3 228.2,112.3 227.3,118.8 " />
      </g>
      <path
         inkscape:connector-curvature="0"
         id="path7347"
         d="m 228.2,112.3 -0.9,6.5 -6.6,-16.6 14,11 -6.5,-0.9 m 56.6,75.3 -56.6,-75.3 h 0.01"
         style="fill:#ffc0cb;fill-opacity:1;stroke:#ffc0cb;stroke-opacity:1" />
      <g
         id="g7349"
         style="stroke:#ffc0cb;fill:#ffc0cb;fill-opacity:1;stroke-opacity:1">
        <polygon
           style="fill:#ffc0cb;fill-opacity:1;stroke:#ffc0cb;stroke-opacity:1"
           id="polygon7351"
           points="263.4,102.2 275.2,115.5 269,113.5 269,113.5 267,119.7 " />
      </g>
      <path
         inkscape:connector-curvature="0"
         id="path7353"
         d="m 269,113.5 -2,6.2 -3.6,-17.5 11.8,13.3 -6.2,-2 m 37.2,74.1 -37.2,-74.1 h 0.01"
         style="fill:#ffc0cb;fill-opacity:1;stroke:#ffc0cb;stroke-opacity:1" />
    </g>
  </g>
  <g
     id="g7355"
     style="color:#000000;fill:none;stroke:#ffffff;stroke-width:1;stroke-linecap:butt;stroke-linejoin:miter">
    <path
       inkscape:connector-curvature="0"
       id="path7357"
       d="m 92.5,16.7 0,427.3 427.3,0 0,-427.3 -427.3,0 z m 0,0 h 0.01"
       style="stroke:#ffffff" />
  </g>
</svg>
