<?xml version="1.0" encoding="UTF-8" standalone="no"?>
<!-- Created with Inkscape (http://www.inkscape.org/) -->

<svg
   xmlns:dc="http://purl.org/dc/elements/1.1/"
   xmlns:cc="http://creativecommons.org/ns#"
   xmlns:rdf="http://www.w3.org/1999/02/22-rdf-syntax-ns#"
   xmlns:svg="http://www.w3.org/2000/svg"
   xmlns="http://www.w3.org/2000/svg"
   xmlns:sodipodi="http://sodipodi.sourceforge.net/DTD/sodipodi-0.dtd"
   xmlns:inkscape="http://www.inkscape.org/namespaces/inkscape"
   width="210mm"
   height="297mm"
   id="svg3108"
   version="1.1"
   inkscape:version="0.48.3.1 r9886"
   sodipodi:docname="新規ドキュメント 2">
  <sodipodi:namedview
     id="base"
     pagecolor="#000000"
     bordercolor="#666666"
     borderopacity="1.0"
     inkscape:pageopacity="0"
     inkscape:pageshadow="2"
     inkscape:zoom="0.98994949"
     inkscape:cx="407.79975"
     inkscape:cy="690.9294"
     inkscape:document-units="px"
     inkscape:current-layer="layer1"
     showgrid="false"
     inkscape:window-width="1366"
     inkscape:window-height="746"
     inkscape:window-x="0"
     inkscape:window-y="22"
     inkscape:window-maximized="0" />
  <defs
     id="defs3110" />
  <metadata
     id="metadata3113">
    <rdf:RDF>
      <cc:Work
         rdf:about="">
        <dc:format>image/svg+xml</dc:format>
        <dc:type
           rdf:resource="http://purl.org/dc/dcmitype/StillImage" />
        <dc:title></dc:title>
      </cc:Work>
    </rdf:RDF>
  </metadata>
  <g
     inkscape:label="レイヤー 1"
     inkscape:groupmode="layer"
     id="layer1">
    <g
       transform="translate(-571.2899,25.027424)"
       style="color:#ffffff;fill:none;stroke:currentColor;stroke-width:1;stroke-linecap:butt;stroke-linejoin:miter"
       id="g8518" />
    <g
       transform="translate(51.567243,99.313138)"
       style="color:#000000;fill:#ffffff;stroke:#ffffff;stroke-width:1;stroke-linecap:butt;stroke-linejoin:miter"
       id="g8520">
      <path
         style="fill:#ffffff;stroke:#ffffff"
         d="m 92.5,444 9,0 m 418.3,0 -9,0 h 0.01"
         id="path8522"
         inkscape:connector-curvature="0" />
      <g
         transform="translate(84.2,448.5)"
         style="font-size:15px;text-anchor:end;fill:#ffffff;stroke:#ffffff;font-family:Arial"
         id="g8524">
        <text
           style="fill:#ffffff;stroke:#ffffff"
           id="text8526">0</text>
      </g>
      <path
         style="fill:#ffffff;stroke:#ffffff"
         d="m 92.5,337.2 9,0 m 418.3,0 -9,0 h 0.01"
         id="path8528"
         inkscape:connector-curvature="0" />
      <g
         transform="translate(84.2,341.7)"
         style="font-size:15px;text-anchor:end;fill:#ffffff;stroke:#ffffff;font-family:Arial"
         id="g8530">
        <text
           style="fill:#ffffff;stroke:#ffffff"
           id="text8532">1</text>
      </g>
      <path
         style="fill:#ffffff;stroke:#ffffff"
         d="m 92.5,230.3 9,0 m 418.3,0 -9,0 h 0.01"
         id="path8534"
         inkscape:connector-curvature="0" />
      <g
         transform="translate(84.2,234.8)"
         style="font-size:15px;text-anchor:end;fill:#ffffff;stroke:#ffffff;font-family:Arial"
         id="g8536">
        <text
           style="fill:#ffffff;stroke:#ffffff"
           id="text8538">2</text>
      </g>
      <path
         style="fill:#ffffff;stroke:#ffffff"
         d="m 92.5,123.5 9,0 m 418.3,0 -9,0 h 0.01"
         id="path8540"
         inkscape:connector-curvature="0" />
      <g
         transform="translate(84.2,128)"
         style="font-size:15px;text-anchor:end;fill:#ffffff;stroke:#ffffff;font-family:Arial"
         id="g8542">
        <text
           style="fill:#ffffff;stroke:#ffffff"
           id="text8544">3</text>
      </g>
      <path
         style="fill:#ffffff;stroke:#ffffff"
         d="m 92.5,16.7 9,0 m 418.3,0 -9,0 h 0.01"
         id="path8546"
         inkscape:connector-curvature="0" />
      <g
         transform="translate(84.2,21.2)"
         style="font-size:15px;text-anchor:end;fill:#ffffff;stroke:#ffffff;font-family:Arial"
         id="g8548">
        <text
           style="fill:#ffffff;stroke:#ffffff"
           id="text8550">4</text>
      </g>
      <path
         style="fill:#ffffff;stroke:#ffffff"
         d="m 92.5,444 0,-9 m 0,-418.3 0,9 h 0.01"
         id="path8552"
         inkscape:connector-curvature="0" />
      <g
         transform="translate(92.5,466.5)"
         style="font-size:15px;text-anchor:middle;fill:#ffffff;stroke:#ffffff;font-family:Arial"
         id="g8554">
        <text
           style="fill:#ffffff;stroke:#ffffff"
           id="text8556">0</text>
      </g>
      <path
         style="fill:#ffffff;stroke:#ffffff"
         d="m 199.3,444 0,-9 m 0,-418.3 0,9 h 0.01"
         id="path8558"
         inkscape:connector-curvature="0" />
      <g
         transform="translate(199.3,466.5)"
         style="font-size:15px;text-anchor:middle;fill:#ffffff;stroke:#ffffff;font-family:Arial"
         id="g8560">
        <text
           style="fill:#ffffff;stroke:#ffffff"
           id="text8562">1</text>
      </g>
      <path
         style="fill:#ffffff;stroke:#ffffff"
         d="m 306.2,444 0,-9 m 0,-418.3 0,9 h 0.01"
         id="path8564"
         inkscape:connector-curvature="0" />
      <g
         transform="translate(306.2,466.5)"
         style="font-size:15px;text-anchor:middle;fill:#ffffff;stroke:#ffffff;font-family:Arial"
         id="g8566">
        <text
           style="fill:#ffffff;stroke:#ffffff"
           id="text8568">2</text>
      </g>
      <path
         style="fill:#ffffff;stroke:#ffffff"
         d="m 413,444 0,-9 m 0,-418.3 0,9 h 0.01"
         id="path8570"
         inkscape:connector-curvature="0" />
      <g
         transform="translate(413,466.5)"
         style="font-size:15px;text-anchor:middle;fill:#ffffff;stroke:#ffffff;font-family:Arial"
         id="g8572">
        <text
           style="fill:#ffffff;stroke:#ffffff"
           id="text8574">3</text>
      </g>
      <path
         style="fill:#ffffff;stroke:#ffffff"
         d="m 519.8,444 0,-9 m 0,-418.3 0,9 h 0.01"
         id="path8576"
         inkscape:connector-curvature="0" />
      <g
         transform="translate(519.8,466.5)"
         style="font-size:15px;text-anchor:middle;fill:#ffffff;stroke:#ffffff;font-family:Arial"
         id="g8578">
        <text
           style="fill:#ffffff;stroke:#ffffff"
           id="text8580">4</text>
      </g>
    </g>
    <g
       transform="translate(51.567243,99.313138)"
       style="color:#808080;fill:none;stroke:currentColor;stroke-width:1;stroke-linecap:butt;stroke-linejoin:miter"
       id="g8582">
      <path
         d="m 92.5,444 427.3,0 m -427.3,0 0,-427.3 h 0.01"
         id="path8584"
         inkscape:connector-curvature="0" />
    </g>
    <g
       transform="translate(51.567243,99.313138)"
       style="color:#000000;fill:none;stroke:currentColor;stroke-width:1;stroke-linecap:butt;stroke-linejoin:miter"
       id="g8586">
      <path
         d="m 92.5,16.7 0,427.3 427.3,0 0,-427.3 -427.3,0 z m 0,0 h 0.01"
         id="path8588"
         inkscape:connector-curvature="0" />
    </g>
    <g
       transform="translate(51.567243,99.313138)"
       style="fill:#ffc0cb;fill-opacity:1;stroke:#ffc0cb;stroke-opacity:1"
       id="gnuplot_plot_1">
      <title
         id="title8591">gnuplot_plot_1</title>
      <g
         style="color:#ff0000;fill:#ffc0cb;fill-opacity:1;stroke:#ffc0cb;stroke-width:1;stroke-linecap:butt;stroke-linejoin:miter;stroke-opacity:1"
         id="g8593">
        <g
           style="fill:#ffc0cb;fill-opacity:1;stroke:#ffc0cb;stroke-opacity:1"
           id="g8595">
          <polygon
             points="409.5,141 407.4,134.8 407.4,134.8 401.2,136.8 413,123.5 "
             id="polygon8597"
             style="fill:#ffc0cb;fill-opacity:1;stroke:#ffc0cb;stroke-opacity:1" />
        </g>
        <path
           style="fill:#ffc0cb;fill-opacity:1;stroke:#ffc0cb;stroke-opacity:1"
           d="m 407.4,134.8 -6.2,2 11.8,-13.3 -3.5,17.5 -2.1,-6.2 M 306.2,337.2 407.4,134.8 h 0.01"
           id="path8599"
           inkscape:connector-curvature="0" />
      </g>
    </g>
    <g
       transform="translate(51.567243,99.313138)"
       style="color:#000000;fill:none;stroke:#ffffff;stroke-width:1;stroke-linecap:butt;stroke-linejoin:miter"
       id="g8601">
      <path
         style="stroke:#ffffff"
         d="m 92.5,16.7 0,427.3 427.3,0 0,-427.3 -427.3,0 z m 0,0 h 0.01"
         id="path8603"
         inkscape:connector-curvature="0" />
    </g>
    <path
       inkscape:connector-curvature="0"
       id="path9181"
       d="m 143.09266,435.9233 214.57628,0 0,106.77966"
       style="fill:none;stroke:#ffffff;stroke-width:1;stroke-linecap:butt;stroke-linejoin:miter;stroke-miterlimit:4;stroke-opacity:1;stroke-dasharray:4, 4;stroke-dashoffset:0" />
    <path
       inkscape:connector-curvature="0"
       id="path9183"
       d="m 143.09266,222.36398 322.37289,0 0,320.33898"
       style="fill:none;stroke:#ffffff;stroke-width:1;stroke-linecap:butt;stroke-linejoin:miter;stroke-miterlimit:4;stroke-opacity:1;stroke-dasharray:4, 4;stroke-dashoffset:0" />
    <g
       id="g3444"
       transform="matrix(0.5142491,0,0,0.5142491,60.346521,122.80088)"
       style="fill:#ffc0cb;fill-opacity:1">
      <g
         word-spacing="normal"
         letter-spacing="normal"
         font-size-adjust="none"
         font-stretch="normal"
         font-weight="normal"
         font-variant="normal"
         font-style="normal"
         stroke-miterlimit="10.433"
         xml:space="preserve"
         transform="matrix(1.0629921,0,0,-1.0629921,-186.02362,789.27165)"
         id="content"
         style="font-style:normal;font-variant:normal;font-weight:normal;font-stretch:normal;letter-spacing:normal;word-spacing:normal;text-anchor:start;fill:#ffc0cb;stroke:#000000;stroke-linecap:butt;stroke-linejoin:miter;stroke-miterlimit:10.43299960999999954;stroke-opacity:1;stroke-dasharray:none;stroke-dashoffset:0;fill-opacity:1"><path
           id="path3447"
           d="m 473.8,403.68 h 4.28 c 1,0 1.5,0 1.5,1 0,0.55 -0.5,0.55 -1.34,0.55 h -4.14 l 1.04,5.69 c 0.21,1.04 0.91,4.58 1.21,5.17 0.45,0.95 1.29,1.7 2.34,1.7 0.19,0 1.49,0 2.44,-0.9 -2.19,-0.19 -2.69,-1.94 -2.69,-2.69 0,-1.14 0.89,-1.74 1.85,-1.74 1.29,0 2.73,1.1 2.73,2.99 0,2.3 -2.3,3.44 -4.33,3.44 -1.7,0 -4.84,-0.89 -6.33,-5.83 -0.29,-1.05 -0.45,-1.55 -1.64,-7.83 h -3.43 c -0.96,0 -1.5,0 -1.5,-0.94 0,-0.61 0.45,-0.61 1.39,-0.61 h 3.29 l -3.75,-19.67 c -0.89,-4.83 -1.73,-9.37 -4.33,-9.37 -0.2,0 -1.43,0 -2.39,0.9 2.3,0.14 2.74,1.94 2.74,2.69 0,1.14 -0.89,1.75 -1.85,1.75 -1.29,0 -2.73,-1.09 -2.73,-3 0,-2.23 2.19,-3.44 4.23,-3.44 2.74,0 4.74,2.94 5.63,4.85 1.59,3.14 2.75,9.15 2.8,9.51 z"
           inkscape:connector-curvature="0"
           style="fill:#ffc0cb;stroke-width:0;fill-opacity:1" /><path
           id="path3449"
           d="m 487.05,380.51 -0.11,-0.18 -0.12,-0.17 -0.11,-0.16 -0.11,-0.16 -0.12,-0.15 -0.11,-0.14 -0.11,-0.14 -0.12,-0.14 -0.12,-0.13 -0.11,-0.12 -0.12,-0.12 -0.12,-0.12 -0.12,-0.1 -0.12,-0.11 -0.13,-0.09 -0.13,-0.1 -0.13,-0.08 -0.13,-0.09 -0.14,-0.07 -0.14,-0.08 -0.14,-0.06 -0.14,-0.07 -0.15,-0.05 -0.16,-0.06 -0.15,-0.05 -0.16,-0.04 -0.17,-0.04 -0.17,-0.03 -0.17,-0.03 -0.18,-0.02 -0.19,-0.02 -0.19,-0.02 c -0.34,-0.03 -0.8,-0.03 -0.8,-0.73 0,-0.38 0.32,-0.52 0.49,-0.52 0.9,0 2.06,0.14 3,0.14 1.11,0 2.54,-0.14 3.59,-0.14 0.17,0 0.69,0 0.69,0.77 0,0.45 -0.45,0.48 -0.58,0.48 -0.28,0.05 -1.55,0.11 -1.55,1.05 0,0.42 0.36,1.01 0.54,1.33 l 2.78,4.31 h 9.97 l -0.18,1.26 h -8.95 l 7.31,11.39 1.64,-11.39 0.18,-1.26 0.84,-5.78 c -0.14,-0.35 -0.36,-0.91 -2.41,-0.91 -0.42,0 -0.9,0 -0.9,-0.77 0,-0.14 0.09,-0.48 0.54,-0.48 1.02,0 3.49,0.14 4.5,0.14 0.63,0 1.43,-0.03 2.07,-0.03 0.62,-0.05 1.36,-0.11 1.98,-0.11 0.45,0 0.69,0.28 0.69,0.73 0,0.52 -0.41,0.52 -0.97,0.52 -2.02,0 -2.09,0.28 -2.2,1.13 l -3.07,21.5 c -0.11,0.71 -0.17,0.96 -0.82,0.96 -0.68,0 -0.88,-0.31 -1.19,-0.79 z"
           inkscape:connector-curvature="0"
           style="fill:#ffc0cb;stroke-width:0;fill-opacity:1" /><path
           id="path3451"
           d="m 555.55,336.93 0,0.02 0,0.02 0,0.01 0,0.02 0,0.02 0,0.01 -0.01,0.02 0,0.01 -0.01,0.02 0,0.01 -0.01,0.02 0,0.01 -0.01,0.01 0,0.02 -0.01,0.01 -0.01,0.01 -0.01,0.03 -0.02,0.02 -0.01,0.03 -0.02,0.02 -0.02,0.03 -0.02,0.03 -0.02,0.02 -0.01,0.02 -0.01,0.01 c -1.84,1.85 -5.17,5.17 -8.51,10.57 -8.02,12.84 -11.66,29.04 -11.66,48.21 0,13.41 1.8,30.69 10.02,45.55 3.93,7.06 8.01,11.16 10.2,13.34 0.15,0.16 0.15,0.25 0.15,0.41 0,0.5 -0.34,0.5 -1.04,0.5 -0.71,0 -0.8,0 -1.55,-0.75 -16.69,-15.2 -21.92,-38.01 -21.92,-59 0,-19.58 4.48,-39.3 17.14,-54.2 1,-1.14 2.89,-3.19 4.94,-4.99 0.59,-0.59 0.68,-0.59 1.39,-0.59 0.7,0 1.04,0 1.04,0.5 z"
           inkscape:connector-curvature="0"
           style="fill:#ffc0cb;stroke-width:0;fill-opacity:1" /><path
           id="path3453"
           d="m 563.73,417.96 5.28,5.13 c 7.76,6.87 10.76,9.56 10.76,14.55 0,5.68 -4.48,9.67 -10.56,9.67 -5.64,0 -9.33,-4.6 -9.33,-9.03 0,-2.78 2.5,-2.78 2.64,-2.78 0.86,0 2.6,0.59 2.6,2.64 0,1.29 -0.89,2.59 -2.64,2.59 -0.39,0 -0.5,0 -0.64,-0.05 1.14,3.24 3.82,5.08 6.71,5.08 4.54,0 6.69,-4.05 6.69,-8.12 0,-3.99 -2.5,-7.93 -5.23,-11.02 l -9.56,-10.66 c -0.57,-0.54 -0.57,-0.64 -0.57,-1.84 h 18.49 l 1.4,8.67 h -1.25 c -0.25,-1.5 -0.59,-3.68 -1.09,-4.43 -0.36,-0.4 -3.64,-0.4 -4.73,-0.4 z"
           inkscape:connector-curvature="0"
           style="fill:#ffc0cb;stroke-width:0;fill-opacity:1" /><path
           id="path3455"
           d="m 572.04,386.25 0,0.05 0,0.06 0,0.05 0,0.05 0,0.05 0,0.05 0,0.04 0,0.05 0,0.04 -0.01,0.04 0,0.04 0,0.04 0,0.04 0,0.03 -0.01,0.04 0,0.03 -0.01,0.07 -0.01,0.06 -0.01,0.05 -0.01,0.05 -0.02,0.05 -0.02,0.04 -0.02,0.04 -0.02,0.03 -0.03,0.04 -0.03,0.02 -0.04,0.03 -0.04,0.02 -0.04,0.02 -0.03,0.01 -0.02,0.01 -0.03,0 -0.02,0.01 -0.03,0.01 -0.03,0 -0.03,0.01 -0.04,0 -0.03,0.01 -0.03,0 -0.04,0 -0.04,0.01 -0.04,0 -0.04,0 -0.04,0 -0.04,0 -0.04,0 -0.05,0.01 -0.05,0 -0.05,0 -0.05,0 -0.05,0 c -3.1,-3.19 -7.47,-3.19 -9.06,-3.19 v -1.55 c 1,0 3.93,0 6.51,1.3 V 358.3 c 0,-1.8 -0.14,-2.39 -4.62,-2.39 h -1.6 v -1.55 c 1.75,0.16 6.08,0.16 8.07,0.16 2,0 6.32,0 8.07,-0.16 v 1.55 h -1.59 c -4.48,0 -4.64,0.54 -4.64,2.39 z"
           inkscape:connector-curvature="0"
           style="fill:#ffc0cb;stroke-width:0;fill-opacity:1" /><path
           id="path3457"
           d="m 608.49,396.16 -0.06,3.68 -0.16,3.66 -0.28,3.66 -0.4,3.64 -0.53,3.61 -0.66,3.58 -0.79,3.54 -0.94,3.49 -1.09,3.44 -0.6,1.7 -0.64,1.68 -0.68,1.66 -0.72,1.64 -0.77,1.63 -0.8,1.6 -0.84,1.58 -0.89,1.56 -0.93,1.54 -0.98,1.52 -1.02,1.49 -1.07,1.46 -1.12,1.44 -1.16,1.41 c -1,1.15 -2.89,3.18 -4.93,4.98 -0.6,0.61 -0.71,0.61 -1.4,0.61 -0.6,0 -1.04,0 -1.04,-0.5 0,-0.2 0.19,-0.41 0.29,-0.5 1.74,-1.8 5.08,-5.14 8.43,-10.51 8.01,-12.86 11.65,-29.05 11.65,-48.24 0,-13.39 -1.79,-30.69 -10.01,-45.53 -3.94,-7.08 -8.08,-11.2 -10.17,-13.3 -0.1,-0.15 -0.19,-0.29 -0.19,-0.45 0,-0.5 0.44,-0.5 1.04,-0.5 0.69,0 0.8,0 1.54,0.75 16.7,15.2 21.92,38.02 21.92,58.98 z"
           inkscape:connector-curvature="0"
           style="fill:#ffc0cb;stroke-width:0;fill-opacity:1" /><path
           id="path3459"
           d="m 667,400.06 0.14,0 0.14,0 0.14,0.01 0.08,0 0.07,0 0.07,0.01 0.07,0.01 0.07,0.01 0.07,0.01 0.07,0.01 0.07,0.02 0.06,0.02 0.07,0.02 0.06,0.03 0.05,0.02 0.06,0.03 0.05,0.04 0.05,0.04 0.05,0.04 0.04,0.04 0.04,0.05 0.02,0.03 0.02,0.03 0.02,0.03 0.01,0.03 0.02,0.03 0.01,0.03 0.01,0.03 0.01,0.04 0.01,0.03 0.01,0.04 0.01,0.04 0,0.04 0.01,0.04 0,0.04 0,0.05 0,0.04 c 0,1 -0.95,1 -1.64,1 H 637.2 c -0.7,0 -1.64,0 -1.64,-1 0,-0.98 0.94,-0.98 1.69,-0.98 z"
           inkscape:connector-curvature="0"
           style="fill:#ffc0cb;stroke-width:0;fill-opacity:1" /><path
           id="path3461"
           d="m 667.04,390.39 0.07,0 0.06,0 0.14,0 0.14,0 0.07,0.01 0.07,0 0.07,0.01 0.07,0.01 0.07,0.01 0.06,0.01 0.07,0.01 0.07,0.02 0.06,0.02 0.06,0.02 0.06,0.03 0.06,0.02 0.05,0.04 0.06,0.03 0.05,0.04 0.04,0.04 0.04,0.05 0.02,0.02 0.02,0.03 0.02,0.03 0.02,0.02 0.02,0.03 0.01,0.03 0.02,0.03 0.01,0.04 0.01,0.03 0.01,0.04 0.01,0.03 0.01,0.04 0.01,0.04 0,0.04 0.01,0.04 0,0.05 0,0.04 0,0.05 c 0,1 -0.95,1 -1.68,1 h -29.75 c -0.75,0 -1.69,0 -1.69,-1 0,-1 0.94,-1 1.64,-1 z"
           inkscape:connector-curvature="0"
           style="fill:#ffc0cb;stroke-width:0;fill-opacity:1" /><path
           id="path3463"
           d="m 720.2,336.93 -0.01,0.02 0,0.02 0,0.01 0,0.02 0,0.02 0,0.01 -0.01,0.02 0,0.01 -0.01,0.02 0,0.01 0,0.02 -0.01,0.01 -0.01,0.01 0,0.02 -0.01,0.01 -0.01,0.01 -0.01,0.03 -0.02,0.02 -0.01,0.03 -0.02,0.02 -0.02,0.03 -0.02,0.03 -0.02,0.02 -0.01,0.02 -0.01,0.01 c -1.84,1.85 -5.17,5.17 -8.51,10.57 -8.02,12.84 -11.66,29.04 -11.66,48.21 0,13.41 1.8,30.69 10.02,45.55 3.93,7.06 8.01,11.16 10.2,13.34 0.16,0.16 0.16,0.25 0.16,0.41 0,0.5 -0.35,0.5 -1.05,0.5 -0.7,0 -0.8,0 -1.55,-0.75 -16.69,-15.2 -21.92,-38.01 -21.92,-59 0,-19.58 4.48,-39.3 17.14,-54.2 1,-1.14 2.89,-3.19 4.94,-4.99 0.59,-0.59 0.69,-0.59 1.39,-0.59 0.7,0 1.05,0 1.05,0.5 z"
           inkscape:connector-curvature="0"
           style="fill:#ffc0cb;stroke-width:0;fill-opacity:1" /><path
           id="path3465"
           d="m 736.49,431.65 0.38,0.13 0.37,0.15 0.37,0.16 0.35,0.16 0.35,0.18 0.34,0.19 0.33,0.21 0.32,0.21 0.31,0.22 0.31,0.23 0.29,0.24 0.28,0.25 0.27,0.26 0.26,0.27 0.25,0.28 0.24,0.28 0.22,0.29 0.21,0.3 0.2,0.31 0.19,0.31 0.18,0.32 0.16,0.32 0.14,0.33 0.14,0.34 0.11,0.34 0.11,0.35 0.09,0.35 0.07,0.35 0.06,0.36 0.04,0.36 0.02,0.37 0.01,0.36 c 0,4.08 -4.39,6.88 -9.17,6.88 -5.03,0 -8.81,-3 -8.81,-6.78 0,-1.64 1.09,-2.6 2.54,-2.6 1.53,0 2.53,1.1 2.53,2.55 0,2.48 -2.34,2.48 -3.07,2.48 1.53,2.44 4.82,3.1 6.62,3.1 2.03,0 4.78,-1.1 4.78,-5.58 0,-0.61 -0.11,-3.48 -1.4,-5.69 -1.49,-2.39 -3.19,-2.53 -4.43,-2.59 -0.4,-0.05 -1.59,-0.14 -1.95,-0.14 -0.39,-0.05 -0.75,-0.1 -0.75,-0.6 0,-0.54 0.36,-0.54 1.2,-0.54 h 2.19 c 4.1,0 5.94,-3.39 5.94,-8.28 0,-6.77 -3.44,-8.22 -5.64,-8.22 -2.14,0 -5.88,0.84 -7.61,3.78 1.73,-0.24 3.28,0.86 3.28,2.75 0,1.8 -1.34,2.78 -2.8,2.78 -1.18,0 -2.78,-0.69 -2.78,-2.89 0,-4.53 4.63,-7.81 10.07,-7.81 6.07,0 10.6,4.53 10.6,9.61 0,4.09 -3.14,7.97 -8.31,9.01 z"
           inkscape:connector-curvature="0"
           style="fill:#ffc0cb;stroke-width:0;fill-opacity:1" /><path
           id="path3467"
           d="m 736.49,371.89 0.38,0.13 0.37,0.15 0.37,0.15 0.35,0.17 0.35,0.18 0.34,0.19 0.33,0.2 0.32,0.22 0.31,0.22 0.31,0.23 0.29,0.24 0.28,0.25 0.27,0.26 0.26,0.27 0.25,0.27 0.24,0.29 0.22,0.29 0.21,0.3 0.2,0.3 0.19,0.32 0.18,0.32 0.16,0.32 0.14,0.33 0.14,0.34 0.11,0.34 0.11,0.34 0.09,0.35 0.07,0.36 0.06,0.36 0.04,0.36 0.02,0.36 0.01,0.37 c 0,4.08 -4.39,6.88 -9.17,6.88 -5.03,0 -8.81,-3 -8.81,-6.78 0,-1.65 1.09,-2.6 2.54,-2.6 1.53,0 2.53,1.1 2.53,2.55 0,2.48 -2.34,2.48 -3.07,2.48 1.53,2.44 4.82,3.1 6.62,3.1 2.03,0 4.78,-1.1 4.78,-5.58 0,-0.61 -0.11,-3.49 -1.4,-5.69 -1.49,-2.39 -3.19,-2.53 -4.43,-2.59 -0.4,-0.05 -1.59,-0.14 -1.95,-0.14 -0.39,-0.05 -0.75,-0.1 -0.75,-0.6 0,-0.54 0.36,-0.54 1.2,-0.54 h 2.19 c 4.1,0 5.94,-3.39 5.94,-8.28 0,-6.77 -3.44,-8.22 -5.64,-8.22 -2.14,0 -5.88,0.84 -7.61,3.78 1.73,-0.24 3.28,0.86 3.28,2.75 0,1.79 -1.34,2.78 -2.8,2.78 -1.18,0 -2.78,-0.69 -2.78,-2.89 0,-4.53 4.63,-7.81 10.07,-7.81 6.07,0 10.6,4.53 10.6,9.61 0,4.09 -3.14,7.96 -8.31,9.01 z"
           inkscape:connector-curvature="0"
           style="fill:#ffc0cb;stroke-width:0;fill-opacity:1" /><path
           id="path3469"
           d="m 773.13,396.16 -0.05,3.68 -0.17,3.66 -0.28,3.66 -0.4,3.64 -0.53,3.61 -0.66,3.58 -0.79,3.54 -0.94,3.49 -1.09,3.44 -0.6,1.7 -0.64,1.68 -0.68,1.66 -0.72,1.64 -0.76,1.63 -0.81,1.6 -0.84,1.58 -0.89,1.56 -0.93,1.54 -0.98,1.52 -1.02,1.49 -1.07,1.46 -1.11,1.44 -1.17,1.41 c -1,1.15 -2.89,3.18 -4.93,4.98 -0.6,0.61 -0.71,0.61 -1.39,0.61 -0.61,0 -1.05,0 -1.05,-0.5 0,-0.2 0.19,-0.41 0.3,-0.5 1.73,-1.8 5.07,-5.14 8.42,-10.51 8.01,-12.86 11.65,-29.05 11.65,-48.24 0,-13.39 -1.79,-30.69 -10.01,-45.53 -3.94,-7.08 -8.08,-11.2 -10.17,-13.3 -0.1,-0.15 -0.19,-0.29 -0.19,-0.45 0,-0.5 0.44,-0.5 1.05,-0.5 0.68,0 0.79,0 1.53,0.75 16.7,15.2 21.92,38.02 21.92,58.98 z"
           inkscape:connector-curvature="0"
           style="fill:#ffc0cb;stroke-width:0;fill-opacity:1" /></g>    </g>
  </g>
</svg>
