<?xml version="1.0" encoding="UTF-8" standalone="no"?>
<!-- Created with Inkscape (http://www.inkscape.org/) -->

<svg
   xmlns:dc="http://purl.org/dc/elements/1.1/"
   xmlns:cc="http://creativecommons.org/ns#"
   xmlns:rdf="http://www.w3.org/1999/02/22-rdf-syntax-ns#"
   xmlns:svg="http://www.w3.org/2000/svg"
   xmlns="http://www.w3.org/2000/svg"
   xmlns:sodipodi="http://sodipodi.sourceforge.net/DTD/sodipodi-0.dtd"
   xmlns:inkscape="http://www.inkscape.org/namespaces/inkscape"
   width="210mm"
   height="297mm"
   id="svg2"
   version="1.1"
   inkscape:version="0.48.3.1 r9886"
   sodipodi:docname="新規ドキュメント 1">
  <defs
     id="defs4" />
  <sodipodi:namedview
     id="base"
     pagecolor="#000000"
     bordercolor="#666666"
     borderopacity="1.0"
     inkscape:pageopacity="0"
     inkscape:pageshadow="2"
     inkscape:zoom="0.7"
     inkscape:cx="450.53462"
     inkscape:cy="554.62389"
     inkscape:document-units="px"
     inkscape:current-layer="layer1"
     showgrid="false"
     inkscape:window-width="1366"
     inkscape:window-height="746"
     inkscape:window-x="0"
     inkscape:window-y="22"
     inkscape:window-maximized="0" />
  <metadata
     id="metadata7">
    <rdf:RDF>
      <cc:Work
         rdf:about="">
        <dc:format>image/svg+xml</dc:format>
        <dc:type
           rdf:resource="http://purl.org/dc/dcmitype/StillImage" />
        <dc:title></dc:title>
      </cc:Work>
    </rdf:RDF>
  </metadata>
  <g
     inkscape:label="レイヤー 1"
     inkscape:groupmode="layer"
     id="layer1">
    <path
       transform="translate(-102.85715,57.142852)"
       sodipodi:type="arc"
       style="fill:#ffc0cb;fill-opacity:1;stroke:none"
       id="path2985-7"
       sodipodi:cx="111.42857"
       sodipodi:cy="325.21933"
       sodipodi:rx="14.285714"
       sodipodi:ry="14.285714"
       d="m 125.71429,325.21933 a 14.285714,14.285714 0 1 1 -28.571431,0 14.285714,14.285714 0 1 1 28.571431,0 z" />
    <path
       transform="translate(-98.571431,114.28571)"
       sodipodi:type="arc"
       style="fill:#ffc0cb;fill-opacity:1;stroke:none"
       id="path2985-7-0"
       sodipodi:cx="111.42857"
       sodipodi:cy="325.21933"
       sodipodi:rx="14.285714"
       sodipodi:ry="14.285714"
       d="m 125.71429,325.21933 a 14.285714,14.285714 0 1 1 -28.571431,0 14.285714,14.285714 0 1 1 28.571431,0 z" />
    <path
       transform="translate(-88.57143,158.57142)"
       sodipodi:type="arc"
       style="fill:#ffc0cb;fill-opacity:1;stroke:none"
       id="path2985-7-0-2"
       sodipodi:cx="111.42857"
       sodipodi:cy="325.21933"
       sodipodi:rx="14.285714"
       sodipodi:ry="14.285714"
       d="m 125.71429,325.21933 a 14.285714,14.285714 0 1 1 -28.571431,0 14.285714,14.285714 0 1 1 28.571431,0 z" />
    <path
       transform="translate(162.85714,248.57143)"
       sodipodi:type="arc"
       style="fill:#ffc0cb;fill-opacity:1;stroke:none"
       id="path2985-7-0-2-8"
       sodipodi:cx="111.42857"
       sodipodi:cy="325.21933"
       sodipodi:rx="14.285714"
       sodipodi:ry="14.285714"
       d="m 125.71429,325.21933 a 14.285714,14.285714 0 1 1 -28.571431,0 14.285714,14.285714 0 1 1 28.571431,0 z" />
    <path
       transform="translate(195.71429,111.42857)"
       sodipodi:type="arc"
       style="fill:#ffc0cb;fill-opacity:1;stroke:none"
       id="path2985-7-0-2-8-1"
       sodipodi:cx="111.42857"
       sodipodi:cy="325.21933"
       sodipodi:rx="14.285714"
       sodipodi:ry="14.285714"
       d="m 125.71429,325.21933 a 14.285714,14.285714 0 1 1 -28.571431,0 14.285714,14.285714 0 1 1 28.571431,0 z" />
    <path
       transform="translate(184.28572,192.85714)"
       sodipodi:type="arc"
       style="fill:#ffc0cb;fill-opacity:1;stroke:none"
       id="path2985-7-0-2-8-1-3"
       sodipodi:cx="111.42857"
       sodipodi:cy="325.21933"
       sodipodi:rx="14.285714"
       sodipodi:ry="14.285714"
       d="m 125.71429,325.21933 a 14.285714,14.285714 0 1 1 -28.571431,0 14.285714,14.285714 0 1 1 28.571431,0 z" />
    <path
       transform="translate(191.42857,32.857143)"
       sodipodi:type="arc"
       style="fill:#ffc0cb;fill-opacity:1;stroke:none"
       id="path2985-7-0-2-8-1-3-5"
       sodipodi:cx="111.42857"
       sodipodi:cy="325.21933"
       sodipodi:rx="14.285714"
       sodipodi:ry="14.285714"
       d="m 125.71429,325.21933 a 14.285714,14.285714 0 1 1 -28.571431,0 14.285714,14.285714 0 1 1 28.571431,0 z" />
    <path
       transform="translate(104.28572,235.71429)"
       sodipodi:type="arc"
       style="fill:#ffc0cb;fill-opacity:1;stroke:none"
       id="path2985-7-0-2-8-1-3-5-7"
       sodipodi:cx="111.42857"
       sodipodi:cy="325.21933"
       sodipodi:rx="14.285714"
       sodipodi:ry="14.285714"
       d="m 125.71429,325.21933 a 14.285714,14.285714 0 1 1 -28.571431,0 14.285714,14.285714 0 1 1 28.571431,0 z" />
    <path
       transform="translate(67.142858,201.42857)"
       sodipodi:type="arc"
       style="fill:#ffc0cb;fill-opacity:1;stroke:none"
       id="path2985-7-0-2-8-1-3-5-7-1"
       sodipodi:cx="111.42857"
       sodipodi:cy="325.21933"
       sodipodi:rx="14.285714"
       sodipodi:ry="14.285714"
       d="m 125.71429,325.21933 a 14.285714,14.285714 0 1 1 -28.571431,0 14.285714,14.285714 0 1 1 28.571431,0 z" />
    <path
       transform="translate(131.42857,134.28571)"
       sodipodi:type="arc"
       style="fill:#ffc0cb;fill-opacity:1;stroke:none"
       id="path2985-7-0-2-8-1-3-5-7-1-2"
       sodipodi:cx="111.42857"
       sodipodi:cy="325.21933"
       sodipodi:rx="14.285714"
       sodipodi:ry="14.285714"
       d="m 125.71429,325.21933 a 14.285714,14.285714 0 1 1 -28.571431,0 14.285714,14.285714 0 1 1 28.571431,0 z" />
    <path
       transform="translate(65.714287,41.428571)"
       sodipodi:type="arc"
       style="fill:#ffc0cb;fill-opacity:1;stroke:none"
       id="path2985-7-0-2-8-1-3-5-7-1-2-7"
       sodipodi:cx="111.42857"
       sodipodi:cy="325.21933"
       sodipodi:rx="14.285714"
       sodipodi:ry="14.285714"
       d="m 125.71429,325.21933 a 14.285714,14.285714 0 1 1 -28.571431,0 14.285714,14.285714 0 1 1 28.571431,0 z" />
    <path
       transform="translate(20.000001,190)"
       sodipodi:type="arc"
       style="fill:#ffc0cb;fill-opacity:1;stroke:none"
       id="path2985-7-0-2-8-1-3-5-7-1-2-7-2"
       sodipodi:cx="111.42857"
       sodipodi:cy="325.21933"
       sodipodi:rx="14.285714"
       sodipodi:ry="14.285714"
       d="m 125.71429,325.21933 a 14.285714,14.285714 0 1 1 -28.571431,0 14.285714,14.285714 0 1 1 28.571431,0 z" />
    <path
       transform="translate(-31.42857,132.85714)"
       sodipodi:type="arc"
       style="fill:#ffc0cb;fill-opacity:1;stroke:none"
       id="path2985-7-0-2-8-1-3-5-7-1-2-7-2-8"
       sodipodi:cx="111.42857"
       sodipodi:cy="325.21933"
       sodipodi:rx="14.285714"
       sodipodi:ry="14.285714"
       d="m 125.71429,325.21933 a 14.285714,14.285714 0 1 1 -28.571431,0 14.285714,14.285714 0 1 1 28.571431,0 z" />
    <path
       transform="translate(-12.857142,110)"
       sodipodi:type="arc"
       style="fill:#ffc0cb;fill-opacity:1;stroke:none"
       id="path2985-7-0-2-8-1-3-5-7-1-2-7-2-8-2"
       sodipodi:cx="111.42857"
       sodipodi:cy="325.21933"
       sodipodi:rx="14.285714"
       sodipodi:ry="14.285714"
       d="m 125.71429,325.21933 a 14.285714,14.285714 0 1 1 -28.571431,0 14.285714,14.285714 0 1 1 28.571431,0 z" />
    <path
       transform="translate(2.8571442,65.714286)"
       sodipodi:type="arc"
       style="fill:#ffc0cb;fill-opacity:1;stroke:none"
       id="path2985-7-0-2-8-1-3-5-7-1-2-7-2-8-2-4"
       sodipodi:cx="111.42857"
       sodipodi:cy="325.21933"
       sodipodi:rx="14.285714"
       sodipodi:ry="14.285714"
       d="m 125.71429,325.21933 a 14.285714,14.285714 0 1 1 -28.571431,0 14.285714,14.285714 0 1 1 28.571431,0 z" />
    <path
       transform="translate(-25.714284,218.57143)"
       sodipodi:type="arc"
       style="fill:#ffc0cb;fill-opacity:1;stroke:none"
       id="path2985-7-0-2-8-1-3-5-7-1-2-7-2-8-2-4-5"
       sodipodi:cx="111.42857"
       sodipodi:cy="325.21933"
       sodipodi:rx="14.285714"
       sodipodi:ry="14.285714"
       d="m 125.71429,325.21933 a 14.285714,14.285714 0 1 1 -28.571431,0 14.285714,14.285714 0 1 1 28.571431,0 z" />
    <path
       transform="translate(423.57142,96.428561)"
       sodipodi:type="arc"
       style="fill:#ffc0cb;fill-opacity:1;stroke:none"
       id="path2985-7-8"
       sodipodi:cx="111.42857"
       sodipodi:cy="325.21933"
       sodipodi:rx="14.285714"
       sodipodi:ry="14.285714"
       d="m 125.71429,325.21933 a 14.285714,14.285714 0 1 1 -28.571431,0 14.285714,14.285714 0 1 1 28.571431,0 z" />
    <path
       transform="translate(423.57142,136.42856)"
       sodipodi:type="arc"
       style="fill:#ffc0cb;fill-opacity:1;stroke:none"
       id="path2985-7-0-21"
       sodipodi:cx="111.42857"
       sodipodi:cy="325.21933"
       sodipodi:rx="14.285714"
       sodipodi:ry="14.285714"
       d="m 125.71429,325.21933 a 14.285714,14.285714 0 1 1 -28.571431,0 14.285714,14.285714 0 1 1 28.571431,0 z" />
    <path
       transform="translate(423.57142,174.99999)"
       sodipodi:type="arc"
       style="fill:#ffc0cb;fill-opacity:1;stroke:none"
       id="path2985-7-0-2-3"
       sodipodi:cx="111.42857"
       sodipodi:cy="325.21933"
       sodipodi:rx="14.285714"
       sodipodi:ry="14.285714"
       d="m 125.71429,325.21933 a 14.285714,14.285714 0 1 1 -28.571431,0 14.285714,14.285714 0 1 1 28.571431,0 z" />
    <path
       transform="translate(559.2857,213.57142)"
       sodipodi:type="arc"
       style="fill:#ffc0cb;fill-opacity:1;stroke:none"
       id="path2985-7-0-2-8-6"
       sodipodi:cx="111.42857"
       sodipodi:cy="325.21933"
       sodipodi:rx="14.285714"
       sodipodi:ry="14.285714"
       d="m 125.71429,325.21933 a 14.285714,14.285714 0 1 1 -28.571431,0 14.285714,14.285714 0 1 1 28.571431,0 z" />
    <path
       transform="translate(559.2857,136.42856)"
       sodipodi:type="arc"
       style="fill:#ffc0cb;fill-opacity:1;stroke:none"
       id="path2985-7-0-2-8-1-36"
       sodipodi:cx="111.42857"
       sodipodi:cy="325.21933"
       sodipodi:rx="14.285714"
       sodipodi:ry="14.285714"
       d="m 125.71429,325.21933 a 14.285714,14.285714 0 1 1 -28.571431,0 14.285714,14.285714 0 1 1 28.571431,0 z" />
    <path
       transform="translate(559.2857,174.99999)"
       sodipodi:type="arc"
       style="fill:#ffc0cb;fill-opacity:1;stroke:none"
       id="path2985-7-0-2-8-1-3-9"
       sodipodi:cx="111.42857"
       sodipodi:cy="325.21933"
       sodipodi:rx="14.285714"
       sodipodi:ry="14.285714"
       d="m 125.71429,325.21933 a 14.285714,14.285714 0 1 1 -28.571431,0 14.285714,14.285714 0 1 1 28.571431,0 z" />
    <path
       transform="translate(559.2857,96.428561)"
       sodipodi:type="arc"
       style="fill:#ffc0cb;fill-opacity:1;stroke:none"
       id="path2985-7-0-2-8-1-3-5-1"
       sodipodi:cx="111.42857"
       sodipodi:cy="325.21933"
       sodipodi:rx="14.285714"
       sodipodi:ry="14.285714"
       d="m 125.71429,325.21933 a 14.285714,14.285714 0 1 1 -28.571431,0 14.285714,14.285714 0 1 1 28.571431,0 z" />
    <path
       transform="translate(512.14285,213.57142)"
       sodipodi:type="arc"
       style="fill:#ffc0cb;fill-opacity:1;stroke:none"
       id="path2985-7-0-2-8-1-3-5-7-2"
       sodipodi:cx="111.42857"
       sodipodi:cy="325.21933"
       sodipodi:rx="14.285714"
       sodipodi:ry="14.285714"
       d="m 125.71429,325.21933 a 14.285714,14.285714 0 1 1 -28.571431,0 14.285714,14.285714 0 1 1 28.571431,0 z" />
    <path
       transform="translate(466.42856,213.57142)"
       sodipodi:type="arc"
       style="fill:#ffc0cb;fill-opacity:1;stroke:none"
       id="path2985-7-0-2-8-1-3-5-7-1-3"
       sodipodi:cx="111.42857"
       sodipodi:cy="325.21933"
       sodipodi:rx="14.285714"
       sodipodi:ry="14.285714"
       d="m 125.71429,325.21933 a 14.285714,14.285714 0 1 1 -28.571431,0 14.285714,14.285714 0 1 1 28.571431,0 z" />
    <path
       transform="translate(512.14285,136.42856)"
       sodipodi:type="arc"
       style="fill:#ffc0cb;fill-opacity:1;stroke:none"
       id="path2985-7-0-2-8-1-3-5-7-1-2-8"
       sodipodi:cx="111.42857"
       sodipodi:cy="325.21933"
       sodipodi:rx="14.285714"
       sodipodi:ry="14.285714"
       d="m 125.71429,325.21933 a 14.285714,14.285714 0 1 1 -28.571431,0 14.285714,14.285714 0 1 1 28.571431,0 z" />
    <path
       transform="translate(512.14285,96.428561)"
       sodipodi:type="arc"
       style="fill:#ffc0cb;fill-opacity:1;stroke:none"
       id="path2985-7-0-2-8-1-3-5-7-1-2-7-7"
       sodipodi:cx="111.42857"
       sodipodi:cy="325.21933"
       sodipodi:rx="14.285714"
       sodipodi:ry="14.285714"
       d="m 125.71429,325.21933 a 14.285714,14.285714 0 1 1 -28.571431,0 14.285714,14.285714 0 1 1 28.571431,0 z" />
    <path
       transform="translate(512.14285,174.99999)"
       sodipodi:type="arc"
       style="fill:#ffc0cb;fill-opacity:1;stroke:none"
       id="path2985-7-0-2-8-1-3-5-7-1-2-7-2-7"
       sodipodi:cx="111.42857"
       sodipodi:cy="325.21933"
       sodipodi:rx="14.285714"
       sodipodi:ry="14.285714"
       d="m 125.71429,325.21933 a 14.285714,14.285714 0 1 1 -28.571431,0 14.285714,14.285714 0 1 1 28.571431,0 z" />
    <path
       transform="translate(466.42856,174.99999)"
       sodipodi:type="arc"
       style="fill:#ffc0cb;fill-opacity:1;stroke:none"
       id="path2985-7-0-2-8-1-3-5-7-1-2-7-2-8-4"
       sodipodi:cx="111.42857"
       sodipodi:cy="325.21933"
       sodipodi:rx="14.285714"
       sodipodi:ry="14.285714"
       d="m 125.71429,325.21933 a 14.285714,14.285714 0 1 1 -28.571431,0 14.285714,14.285714 0 1 1 28.571431,0 z" />
    <path
       transform="translate(466.42856,136.42856)"
       sodipodi:type="arc"
       style="fill:#ffc0cb;fill-opacity:1;stroke:none"
       id="path2985-7-0-2-8-1-3-5-7-1-2-7-2-8-2-0"
       sodipodi:cx="111.42857"
       sodipodi:cy="325.21933"
       sodipodi:rx="14.285714"
       sodipodi:ry="14.285714"
       d="m 125.71429,325.21933 a 14.285714,14.285714 0 1 1 -28.571431,0 14.285714,14.285714 0 1 1 28.571431,0 z" />
    <path
       transform="translate(466.42856,96.428561)"
       sodipodi:type="arc"
       style="fill:#ffc0cb;fill-opacity:1;stroke:none"
       id="path2985-7-0-2-8-1-3-5-7-1-2-7-2-8-2-4-9"
       sodipodi:cx="111.42857"
       sodipodi:cy="325.21933"
       sodipodi:rx="14.285714"
       sodipodi:ry="14.285714"
       d="m 125.71429,325.21933 a 14.285714,14.285714 0 1 1 -28.571431,0 14.285714,14.285714 0 1 1 28.571431,0 z" />
    <path
       transform="translate(423.57142,213.57142)"
       sodipodi:type="arc"
       style="fill:#ffc0cb;fill-opacity:1;stroke:none"
       id="path2985-7-0-2-8-1-3-5-7-1-2-7-2-8-2-4-5-8"
       sodipodi:cx="111.42857"
       sodipodi:cy="325.21933"
       sodipodi:rx="14.285714"
       sodipodi:ry="14.285714"
       d="m 125.71429,325.21933 a 14.285714,14.285714 0 1 1 -28.571431,0 14.285714,14.285714 0 1 1 28.571431,0 z" />
  </g>
</svg>
