<?xml version="1.0" encoding="UTF-8" standalone="no"?>
<!-- Created with Inkscape (http://www.inkscape.org/) -->

<svg
   xmlns:dc="http://purl.org/dc/elements/1.1/"
   xmlns:cc="http://creativecommons.org/ns#"
   xmlns:rdf="http://www.w3.org/1999/02/22-rdf-syntax-ns#"
   xmlns:svg="http://www.w3.org/2000/svg"
   xmlns="http://www.w3.org/2000/svg"
   xmlns:sodipodi="http://sodipodi.sourceforge.net/DTD/sodipodi-0.dtd"
   xmlns:inkscape="http://www.inkscape.org/namespaces/inkscape"
   width="210mm"
   height="297mm"
   id="svg3166"
   version="1.1"
   inkscape:version="0.48.3.1 r9886"
   sodipodi:docname="新規ドキュメント 2">
  <sodipodi:namedview
     id="base"
     pagecolor="#000000"
     bordercolor="#666666"
     borderopacity="1.0"
     inkscape:pageopacity="0"
     inkscape:pageshadow="2"
     inkscape:zoom="0.98994949"
     inkscape:cx="268.55845"
     inkscape:cy="551.17749"
     inkscape:document-units="px"
     inkscape:current-layer="layer1"
     showgrid="false"
     inkscape:window-width="1366"
     inkscape:window-height="746"
     inkscape:window-x="0"
     inkscape:window-y="22"
     inkscape:window-maximized="0" />
  <defs
     id="defs3168" />
  <metadata
     id="metadata3171">
    <rdf:RDF>
      <cc:Work
         rdf:about="">
        <dc:format>image/svg+xml</dc:format>
        <dc:type
           rdf:resource="http://purl.org/dc/dcmitype/StillImage" />
        <dc:title></dc:title>
      </cc:Work>
    </rdf:RDF>
  </metadata>
  <g
     id="layer1"
     inkscape:groupmode="layer"
     inkscape:label="レイヤー 1">
    <rect
       style="fill:none"
       id="rect9"
       height="480"
       width="600"
       y="246.6479"
       x="37.142841" />
    <g
       transform="translate(37.142859,246.64789)"
       id="g27"
       style="color:#ffffff;fill:none;stroke:currentColor;stroke-width:1;stroke-linecap:butt;stroke-linejoin:miter" />
    <g
       transform="translate(37.142859,246.64789)"
       id="g29"
       style="color:#000000;fill:none;stroke:#ffffff;stroke-width:1;stroke-linecap:butt;stroke-linejoin:miter">
      <path
         inkscape:connector-curvature="0"
         id="path31"
         d="m 37.3,422.4 9,0 m 528.7,0 -9,0 h 0.01"
         style="stroke:#ffffff" />
      <g
         id="g33"
         style="font-size:15px;text-anchor:end;fill:#000000;stroke:#ffffff;font-family:Arial"
         transform="translate(29,426.9)">
        <text
           id="text35"
           style="stroke:#ffffff">-8</text>
      </g>
      <path
         inkscape:connector-curvature="0"
         id="path37"
         d="m 37.3,371.7 9,0 m 528.7,0 -9,0 h 0.01"
         style="stroke:#ffffff" />
      <g
         id="g39"
         style="font-size:15px;text-anchor:end;fill:#000000;stroke:#ffffff;font-family:Arial"
         transform="translate(29,376.2)">
        <text
           id="text41"
           style="stroke:#ffffff">-6</text>
      </g>
      <path
         inkscape:connector-curvature="0"
         id="path43"
         d="m 37.3,321 9,0 m 528.7,0 -9,0 h 0.01"
         style="stroke:#ffffff" />
      <g
         id="g45"
         style="font-size:15px;text-anchor:end;fill:#000000;stroke:#ffffff;font-family:Arial"
         transform="translate(29,325.5)">
        <text
           id="text47"
           style="stroke:#ffffff">-4</text>
      </g>
      <path
         inkscape:connector-curvature="0"
         id="path49"
         d="m 37.3,270.3 9,0 m 528.7,0 -9,0 h 0.01"
         style="stroke:#ffffff" />
      <g
         id="g51"
         style="font-size:15px;text-anchor:end;fill:#000000;stroke:#ffffff;font-family:Arial"
         transform="translate(29,274.8)">
        <text
           id="text53"
           style="stroke:#ffffff">-2</text>
      </g>
      <path
         inkscape:connector-curvature="0"
         id="path55"
         d="m 37.3,219.5 9,0 m 528.7,0 -9,0 h 0.01"
         style="stroke:#ffffff" />
      <g
         id="g57"
         style="font-size:15px;text-anchor:end;fill:#000000;stroke:#ffffff;font-family:Arial"
         transform="translate(29,224)">
        <text
           id="text59"
           style="stroke:#ffffff">0</text>
      </g>
      <path
         inkscape:connector-curvature="0"
         id="path61"
         d="m 37.3,168.8 9,0 m 528.7,0 -9,0 h 0.01"
         style="stroke:#ffffff" />
      <g
         id="g63"
         style="font-size:15px;text-anchor:end;fill:#000000;stroke:#ffffff;font-family:Arial"
         transform="translate(29,173.3)">
        <text
           id="text65"
           style="stroke:#ffffff">2</text>
      </g>
      <path
         inkscape:connector-curvature="0"
         id="path67"
         d="m 37.3,118.1 9,0 m 528.7,0 -9,0 h 0.01"
         style="stroke:#ffffff" />
      <g
         id="g69"
         style="font-size:15px;text-anchor:end;fill:#000000;stroke:#ffffff;font-family:Arial"
         transform="translate(29,122.6)">
        <text
           id="text71"
           style="stroke:#ffffff">4</text>
      </g>
      <path
         inkscape:connector-curvature="0"
         id="path73"
         d="m 37.3,67.4 9,0 m 528.7,0 -9,0 h 0.01"
         style="stroke:#ffffff" />
      <g
         id="g75"
         style="font-size:15px;text-anchor:end;fill:#000000;stroke:#ffffff;font-family:Arial"
         transform="translate(29,71.9)">
        <text
           id="text77"
           style="stroke:#ffffff">6</text>
      </g>
      <path
         inkscape:connector-curvature="0"
         id="path79"
         d="m 37.3,16.7 9,0 m 528.7,0 -9,0 h 0.01"
         style="stroke:#ffffff" />
      <g
         id="g81"
         style="font-size:15px;text-anchor:end;fill:#000000;stroke:#ffffff;font-family:Arial"
         transform="translate(29,21.2)">
        <text
           id="text83"
           style="stroke:#ffffff">8</text>
      </g>
      <path
         inkscape:connector-curvature="0"
         id="path85"
         d="m 49.4,422.4 0,-9 m 0,-396.7 0,9 h 0.01"
         style="stroke:#ffffff" />
      <g
         id="g87"
         style="font-size:15px;text-anchor:middle;fill:#000000;stroke:#ffffff;font-family:Arial"
         transform="translate(49.4,444.9)">
        <text
           id="text89"
           style="stroke:#ffffff">-6</text>
      </g>
      <path
         inkscape:connector-curvature="0"
         id="path91"
         d="m 135,422.4 0,-9 m 0,-396.7 0,9 h 0.01"
         style="stroke:#ffffff" />
      <g
         id="g93"
         style="font-size:15px;text-anchor:middle;fill:#000000;stroke:#ffffff;font-family:Arial"
         transform="translate(135,444.9)">
        <text
           id="text95"
           style="stroke:#ffffff">-4</text>
      </g>
      <path
         inkscape:connector-curvature="0"
         id="path97"
         d="m 220.6,422.4 0,-9 m 0,-396.7 0,9 h 0.01"
         style="stroke:#ffffff" />
      <g
         id="g99"
         style="font-size:15px;text-anchor:middle;fill:#000000;stroke:#ffffff;font-family:Arial"
         transform="translate(220.6,444.9)">
        <text
           id="text101"
           style="stroke:#ffffff">-2</text>
      </g>
      <path
         inkscape:connector-curvature="0"
         id="path103"
         d="m 306.2,422.4 0,-9 m 0,-396.7 0,9 h 0.01"
         style="stroke:#ffffff" />
      <g
         id="g105"
         style="font-size:15px;text-anchor:middle;fill:#000000;stroke:#ffffff;font-family:Arial"
         transform="translate(306.2,444.9)">
        <text
           id="text107"
           style="stroke:#ffffff">0</text>
      </g>
      <path
         inkscape:connector-curvature="0"
         id="path109"
         d="m 391.7,422.4 0,-9 m 0,-396.7 0,9 h 0.01"
         style="stroke:#ffffff" />
      <g
         id="g111"
         style="font-size:15px;text-anchor:middle;fill:#000000;stroke:#ffffff;font-family:Arial"
         transform="translate(391.7,444.9)">
        <text
           id="text113"
           style="stroke:#ffffff">2</text>
      </g>
      <path
         inkscape:connector-curvature="0"
         id="path115"
         d="m 477.3,422.4 0,-9 m 0,-396.7 0,9 h 0.01"
         style="stroke:#ffffff" />
      <g
         id="g117"
         style="font-size:15px;text-anchor:middle;fill:#000000;stroke:#ffffff;font-family:Arial"
         transform="translate(477.3,444.9)">
        <text
           id="text119"
           style="stroke:#ffffff">4</text>
      </g>
      <path
         inkscape:connector-curvature="0"
         id="path121"
         d="m 562.9,422.4 0,-9 m 0,-396.7 0,9 h 0.01"
         style="stroke:#ffffff" />
      <g
         id="g123"
         style="font-size:15px;text-anchor:middle;fill:#000000;stroke:#ffffff;font-family:Arial"
         transform="translate(562.9,444.9)">
        <text
           id="text125"
           style="stroke:#ffffff">6</text>
      </g>
    </g>
    <g
       transform="translate(37.142859,246.64789)"
       id="g127"
       style="color:#808080;fill:none;stroke:currentColor;stroke-width:1;stroke-linecap:butt;stroke-linejoin:miter">
      <path
         inkscape:connector-curvature="0"
         id="path129"
         d="m 37.3,219.5 537.7,0 m -268.8,202.9 0,-405.7 h 0.01" />
    </g>
    <g
       transform="translate(37.142859,246.64789)"
       id="g131"
       style="color:#000000;fill:none;stroke:currentColor;stroke-width:1;stroke-linecap:butt;stroke-linejoin:miter">
      <path
         inkscape:connector-curvature="0"
         id="path133"
         d="m 37.3,16.7 0,405.7 537.7,0 0,-405.7 -537.7,0 z m 0,0 h 0.01" />
      <g
         id="g135"
         style="font-size:15px;text-anchor:middle;fill:#000000;stroke:none;font-family:Arial"
         transform="translate(306.1,471.9)">
        <text
           id="text137">x</text>
      </g>
    </g>
    <g
       transform="translate(37.142859,246.64789)"
       id="gnuplot_plot_1"
       style="stroke:#add8e6;stroke-opacity:1">
      <title
         id="title140">gnuplot_plot_1</title>
      <g
         id="g142"
         style="color:#0000ff;fill:none;stroke:#add8e6;stroke-width:1;stroke-linecap:butt;stroke-linejoin:miter;stroke-opacity:1">
        <path
           inkscape:connector-curvature="0"
           id="path144"
           d="m 37.3,378.9 4.6,-2.8 4.7,-2.7 4.6,-2.8 4.6,-2.7 4.7,-2.8 4.6,-2.7 4.6,-2.8 4.7,-2.7 4.6,-2.8 4.7,-2.7 4.6,-2.7 4.6,-2.8 4.7,-2.7 4.6,-2.8 4.6,-2.7 4.7,-2.8 4.6,-2.7 4.6,-2.8 4.7,-2.7 4.6,-2.8 4.6,-2.7 4.7,-2.8 4.6,-2.7 4.6,-2.8 4.7,-2.7 4.6,-2.8 4.7,-2.7 4.6,-2.7 4.6,-2.8 4.7,-2.7 4.6,-2.8 4.6,-2.7 4.7,-2.8 4.6,-2.7 4.6,-2.8 4.7,-2.7 4.6,-2.8 4.6,-2.7 4.7,-2.8 4.6,-2.7 4.6,-2.8 4.7,-2.7 4.6,-2.7 4.7,-2.8 4.6,-2.7 4.6,-2.8 4.7,-2.7 4.6,-2.8 4.6,-2.7 4.7,-2.8 4.6,-2.7 4.6,-2.8 4.7,-2.7 4.6,-2.8 4.6,-2.7 4.7,-2.8 4.6,-2.7 4.7,-2.8 4.6,-2.7 4.6,-2.7 4.7,-2.8 4.6,-2.7 4.6,-2.8 4.7,-2.7 4.6,-2.8 4.6,-2.7 4.7,-2.8 4.6,-2.7 4.6,-2.8 4.7,-2.7 4.6,-2.8 4.6,-2.7 4.7,-2.8 4.6,-2.7 4.7,-2.7 4.6,-2.8 4.6,-2.7 4.7,-2.8 4.6,-2.7 4.6,-2.8 4.7,-2.7 4.6,-2.8 4.6,-2.7 4.7,-2.8 4.6,-2.7 4.6,-2.8 4.7,-2.7 4.6,-2.8 4.6,-2.7 4.7,-2.7 4.6,-2.8 4.7,-2.7 4.6,-2.8 4.6,-2.7 4.7,-2.8 4.6,-2.7 4.6,-2.8 4.7,-2.7 4.6,-2.8 4.6,-2.7 4.7,-2.8 4.6,-2.7 4.6,-2.8 4.7,-2.7 4.6,-2.8 4.6,-2.7 4.7,-2.7 4.6,-2.8 4.7,-2.7 4.6,-2.8 4.6,-2.7 4.7,-2.8 4.6,-2.7 4.6,-2.8 4.7,-2.7 4.6,-2.8 h 0.01"
           style="stroke:#add8e6;stroke-opacity:1" />
      </g>
    </g>
    <g
       transform="translate(37.142859,246.64789)"
       id="gnuplot_plot_2"
       style="stroke:#ffc0cb;stroke-opacity:1">
      <title
         id="title147">gnuplot_plot_2</title>
      <g
         id="g149"
         style="color:#ff0000;fill:none;stroke:#ffc0cb;stroke-width:1;stroke-linecap:butt;stroke-linejoin:miter;stroke-opacity:1">
        <path
           inkscape:connector-curvature="0"
           id="path151"
           d="m 37.3,219.5 0.1,0 0.2,0 0.1,0 0.2,0 0.1,0 0.2,0 0.1,0 0.2,0 0.1,0 0.1,0 0.2,0 0.1,0 0.2,0 0.1,0 0.2,0 0.1,0 0.2,0 0.1,-0.1 0.2,0 0.1,0 0.1,0 0.2,0 0.1,-0.1 0.2,0 0.3,-0.1 0.3,0 0.2,-0.1 0.3,-0.1 0.6,-0.2 0.6,-0.3 0.6,-0.3 0.6,-0.4 0.2,-0.2 0.3,-0.2 0.3,-0.2 0.3,-0.3 0.3,-0.2 0.3,-0.3 0.3,-0.2 0.3,-0.3 0.3,-0.3 0.3,-0.3 0.2,-0.3 0.3,-0.3 0.3,-0.3 0.3,-0.4 0.3,-0.3 0.3,-0.3 0.3,-0.4 0.3,-0.3 0.3,-0.3 0.2,-0.4 0.3,-0.3 0.3,-0.4 0.3,-0.3 0.3,-0.4 0.3,-0.3 0.3,-0.3 0.3,-0.4 0.3,-0.3 0.3,-0.3 0.2,-0.3 0.3,-0.3 0.3,-0.3 0.6,-0.6 0.6,-0.5 0.6,-0.5 0.5,-0.4 0.3,-0.2 0.3,-0.2 0.3,-0.1 0.3,-0.2 0.3,-0.1 0.3,-0.2 0.3,-0.1 0.3,-0.1 0.2,-0.1 0.3,-0.1 0.3,0 0.3,-0.1 0.2,0 0.1,-0.1 0.2,0 0.1,0 0.1,0 0.2,0 0.1,0 0.2,-0.1 0.1,0 0.2,0 0.1,0 0.2,0 0.1,0 0.1,0 0.2,0 0.1,0 0.2,0 0.1,0 0.2,0 0.1,0 0.2,0 0.1,0 0.1,0 0.2,0 0.1,0 0.2,0 0.1,0 0.2,0 0.1,0 0.2,0 0.1,0 0.2,0 0.1,0 0.1,0 0.2,0 0.1,0 0.2,0 0.1,0 0.2,0 0.1,0 0.2,0 0.1,0 0.1,0 0.2,0 0.1,0 0.2,-0.1 0.1,0 0.2,0 0.3,-0.1 0.3,0 0.2,-0.1 0.3,-0.1 0.6,-0.2 0.6,-0.2 0.6,-0.3 0.5,-0.4 0.3,-0.2 0.3,-0.2 0.3,-0.2 0.3,-0.3 0.3,-0.2 0.3,-0.3 0.3,-0.3 0.3,-0.2 0.3,-0.3 0.2,-0.3 0.3,-0.4 0.3,-0.3 0.3,-0.3 0.3,-0.3 0.3,-0.4 0.3,-0.3 0.3,-0.4 0.3,-0.3 0.3,-0.4 0.2,-0.4 0.3,-0.3 0.3,-0.4 0.3,-0.3 0.3,-0.4 0.3,-0.4 0.3,-0.3 0.3,-0.4 0.3,-0.3 0.2,-0.3 0.3,-0.4 0.3,-0.3 0.3,-0.3 0.6,-0.6 0.6,-0.5 0.6,-0.5 0.5,-0.5 0.3,-0.2 0.3,-0.2 0.3,-0.1 0.3,-0.2 0.3,-0.1 0.3,-0.2 0.3,-0.1 0.3,-0.1 0.2,-0.1 0.3,-0.1 0.3,0 0.3,-0.1 0.2,0 0.1,0 0.1,0 0.2,-0.1 0.1,0 0.2,0 0.1,0 0.2,0 0.1,0 0.2,0 0.1,0 0.2,0 0.1,0 0.1,0 0.2,0 0.1,0 0.2,0.1 0.1,0 0.2,0 0.1,0 0.2,0 0.1,0 0.1,0.1 0.2,0 0.1,0 0.2,0 0.1,0 0.2,0 0.1,0.1 0.2,0 0.1,0 0.1,0 0.2,0 0.1,0 0.2,0.1 0.1,0 0.2,0 0.1,0 0.2,0 0.1,0 0.2,0 0.1,0 0.1,0 0.2,0 0.1,0 0.2,0 0.1,0 0.2,0 0.1,0 0.2,0 0.1,-0.1 0.1,0 0.2,0 0.1,0 0.2,-0.1 0.1,0 0.6,-0.2 0.6,-0.2 0.6,-0.3 0.5,-0.3 0.3,-0.2 0.3,-0.2 0.3,-0.3 0.3,-0.2 0.3,-0.3 0.3,-0.2 0.3,-0.3 0.3,-0.3 0.2,-0.3 0.3,-0.4 0.3,-0.3 0.3,-0.4 0.3,-0.3 0.3,-0.4 0.3,-0.4 0.3,-0.3 0.3,-0.4 0.3,-0.4 0.2,-0.4 0.3,-0.4 0.3,-0.4 0.3,-0.5 0.3,-0.4 0.3,-0.4 0.3,-0.4 0.3,-0.4 0.3,-0.3 0.3,-0.4 0.2,-0.4 0.3,-0.4 0.3,-0.3 0.3,-0.4 0.3,-0.3 0.3,-0.4 0.3,-0.3 0.3,-0.3 0.3,-0.2 0.3,-0.3 0.2,-0.3 0.3,-0.2 0.3,-0.2 0.3,-0.2 0.3,-0.2 0.3,-0.2 0.3,-0.1 0.3,-0.1 0.3,-0.1 0.2,-0.1 0.2,-0.1 0.1,0 0.2,0 0.1,-0.1 0.2,0 0.1,0 0.2,0 0.1,0 0.2,0 0.1,0 0.1,0 0.2,0 0.1,0 0.2,0 0.1,0 0.2,0 0.1,0 0.2,0.1 0.1,0 0.1,0 0.2,0.1 0.1,0 0.2,0 0.1,0.1 0.2,0 0.1,0.1 0.2,0 0.1,0 0.1,0.1 0.2,0 0.1,0.1 0.2,0 0.1,0.1 0.2,0 0.1,0.1 0.2,0 0.1,0.1 0.2,0 0.1,0.1 0.1,0.1 0.2,0 0.1,0.1 0.2,0 0.1,0 0.2,0.1 0.1,0 0.2,0.1 0.1,0 0.1,0.1 0.2,0 0.1,0 0.2,0.1 0.1,0 0.2,0 0.1,0 0.2,0.1 0.1,0 0.1,0 0.2,0 0.1,0 0.2,0 0.1,0 0.2,0 0.1,0 0.2,0 0.1,-0.1 0.2,0 0.1,0 0.1,0 0.2,-0.1 0.1,0 0.2,-0.1 0.3,-0.1 0.3,-0.1 0.2,-0.2 0.3,-0.2 0.3,-0.2 0.3,-0.2 0.3,-0.2 0.3,-0.3 0.3,-0.3 0.3,-0.3 0.3,-0.3 0.3,-0.4 0.2,-0.3 0.3,-0.4 0.3,-0.4 0.3,-0.4 0.3,-0.5 0.3,-0.4 0.3,-0.5 0.3,-0.5 0.3,-0.4 0.3,-0.5 0.2,-0.5 0.3,-0.6 0.3,-0.5 0.3,-0.5 0.3,-0.5 0.3,-0.5 0.3,-0.5 0.3,-0.5 0.3,-0.5 0.2,-0.5 0.3,-0.5 0.3,-0.5 0.3,-0.4 0.3,-0.5 0.3,-0.4 0.3,-0.4 0.3,-0.4 0.3,-0.4 0.3,-0.3 0.2,-0.4 0.3,-0.3 0.3,-0.3 0.6,-0.4 0.6,-0.4 0.6,-0.3 0.5,-0.1 0.2,0 0.1,0 0.2,0 0.1,0 0.2,0 0.1,0 0.2,0 0.1,0.1 0.1,0 0.2,0 0.1,0.1 0.2,0.1 0.1,0 0.2,0.1 0.1,0.1 0.2,0 0.1,0.1 0.1,0.1 0.2,0.1 0.1,0.1 0.2,0.1 0.1,0.1 0.2,0.2 0.1,0.1 0.2,0.1 0.1,0.1 0.2,0.2 0.1,0.1 0.1,0.1 0.2,0.2 0.1,0.1 0.2,0.1 0.1,0.2 0.2,0.1 0.1,0.2 0.2,0.1 0.1,0.2 0.1,0.1 0.2,0.2 0.1,0.1 0.2,0.2 0.1,0.1 0.2,0.2 0.1,0.1 0.2,0.2 0.1,0.1 0.2,0.2 0.1,0.1 0.1,0.1 0.2,0.2 0.1,0.1 0.2,0.1 0.1,0.1 0.2,0.2 0.1,0.1 0.2,0.1 0.1,0.1 0.1,0.1 0.2,0.1 0.1,0.1 0.2,0 0.1,0.1 0.2,0.1 0.1,0 0.2,0.1 0.1,0 0.1,0 0.2,0.1 0.1,0 0.2,0 0.1,0 0.2,0 0.1,0 0.2,-0.1 0.1,0 0.2,0 0.1,-0.1 0.1,-0.1 0.2,-0.1 0.1,0 0.3,-0.3 0.3,-0.2 0.3,-0.3 0.3,-0.3 0.3,-0.4 0.3,-0.4 0.3,-0.5 0.2,-0.5 0.3,-0.6 0.3,-0.6 0.3,-0.6 0.3,-0.7 0.3,-0.7 0.3,-0.7 0.3,-0.8 0.3,-0.8 0.3,-0.9 0.2,-0.8 0.3,-0.9 0.3,-0.9 0.3,-0.9 0.3,-1 0.3,-0.9 0.3,-1 0.3,-1 0.3,-0.9 0.3,-1 0.2,-0.9 0.3,-0.9 0.3,-1 0.3,-0.9 0.3,-0.8 0.3,-0.8 0.3,-0.8 0.3,-0.8 0.3,-0.7 0.2,-0.7 0.3,-0.6 0.3,-0.5 0.3,-0.5 0.2,-0.2 0.1,-0.2 0.2,-0.2 0.1,-0.2 0.1,-0.1 0.2,-0.2 0.1,-0.1 0.2,-0.1 0.1,0 0.2,-0.1 0.1,0 0.2,0 0.1,0 0.1,0 0.2,0.1 0.1,0.1 0.3,0.3 0.3,0.3 0.3,0.4 0.3,0.6 0.3,0.7 0.3,0.7 0.3,0.9 0.3,1 0.2,1.1 0.3,1.2 0.3,1.3 0.3,1.4 0.3,1.6 0.3,1.6 0.3,1.8 0.3,1.9 0.3,1.9 0.3,2.1 0.2,2.2 0.3,2.3 0.3,2.4 0.3,2.5 0.3,2.5 0.3,2.7 0.3,2.7 0.3,2.9 0.3,2.9 0.2,3 0.3,3 0.3,3.1 0.3,3.2 0.3,3.2 0.3,3.3 0.3,3.3 0.3,3.3 0.3,3.4 0.3,3.4 0.2,3.4 0.3,3.4 0.3,3.5 0.3,3.4 0.3,3.4 0.3,3.4 0.3,3.4 0.3,3.4 0.3,3.3 0.3,3.3 0.2,3.3 0.3,3.2 0.3,3.2 0.3,3.1 0.3,3 0.3,3 0.3,2.9 0.3,2.9 0.3,2.7 0.3,2.7 0.2,2.5 0.3,2.5 0.3,2.4 0.3,2.3 0.3,2.2 0.3,2.1 0.3,1.9 0.6,3.7 0.5,3.2 0.6,2.7 0.6,2.3 0.3,1 0.3,0.9 0.3,0.7 0.3,0.7 0.1,0.3 0.1,0.3 0.2,0.2 0.1,0.2 0.2,0.2 0.1,0.1 0.2,0.2 0.1,0.1 0.2,0.1 0.1,0.1 0.1,0 0.2,0 0.1,0 0.2,0 0.1,-0.1 0.2,0 0.1,-0.1 0.2,-0.1 0.1,-0.2 0.2,-0.1 0.1,-0.2 0.1,-0.2 0.2,-0.2 0.1,-0.2 0.3,-0.5 0.3,-0.5 0.3,-0.6 0.3,-0.7 0.3,-0.7 0.3,-0.8 0.3,-0.8 0.2,-0.8 0.3,-0.8 0.3,-0.9 0.3,-1 0.3,-0.9 0.3,-0.9 0.3,-1 0.3,-0.9 0.3,-1 0.3,-1 0.2,-0.9 0.3,-1 0.3,-0.9 0.3,-0.9 0.3,-0.9 0.3,-0.8 0.3,-0.9 0.3,-0.8 0.3,-0.8 0.3,-0.7 0.2,-0.7 0.3,-0.7 0.3,-0.6 0.3,-0.6 0.3,-0.6 0.3,-0.5 0.3,-0.5 0.3,-0.4 0.3,-0.4 0.3,-0.3 0.2,-0.3 0.3,-0.2 0.3,-0.3 0.2,0 0.1,-0.1 0.2,-0.1 0.1,-0.1 0.1,0 0.2,0 0.1,-0.1 0.2,0 0.1,0 0.2,0 0.1,0 0.2,0 0.1,0.1 0.1,0 0.2,0 0.1,0.1 0.2,0 0.1,0.1 0.2,0.1 0.1,0 0.2,0.1 0.1,0.1 0.2,0.1 0.1,0.1 0.1,0.1 0.2,0.1 0.1,0.2 0.2,0.1 0.1,0.1 0.2,0.1 0.1,0.2 0.2,0.1 0.1,0.1 0.1,0.2 0.2,0.1 0.1,0.2 0.2,0.1 0.1,0.2 0.2,0.1 0.1,0.2 0.2,0.1 0.1,0.2 0.1,0.1 0.2,0.2 0.1,0.1 0.2,0.2 0.1,0.1 0.2,0.2 0.1,0.1 0.2,0.1 0.1,0.2 0.2,0.1 0.1,0.1 0.1,0.2 0.2,0.1 0.1,0.1 0.2,0.1 0.1,0.2 0.2,0.1 0.1,0.1 0.2,0.1 0.1,0.1 0.1,0.1 0.2,0.1 0.1,0 0.2,0.1 0.1,0.1 0.2,0 0.1,0.1 0.2,0.1 0.1,0 0.1,0 0.2,0.1 0.1,0 0.2,0 0.1,0 0.2,0 0.1,0 0.2,0 0.1,0 0.3,-0.1 0.3,0 0.3,-0.2 0.3,-0.1 0.3,-0.2 0.2,-0.2 0.3,-0.2 0.3,-0.2 0.3,-0.3 0.3,-0.3 0.3,-0.4 0.3,-0.3 0.3,-0.4 0.3,-0.4 0.3,-0.4 0.2,-0.4 0.3,-0.5 0.3,-0.4 0.3,-0.5 0.3,-0.5 0.3,-0.5 0.3,-0.5 0.3,-0.5 0.3,-0.5 0.3,-0.5 0.2,-0.5 0.3,-0.5 0.3,-0.5 0.3,-0.6 0.3,-0.5 0.3,-0.5 0.3,-0.4 0.3,-0.5 0.3,-0.5 0.2,-0.4 0.3,-0.5 0.3,-0.4 0.3,-0.4 0.3,-0.4 0.3,-0.3 0.6,-0.7 0.6,-0.6 0.5,-0.5 0.6,-0.4 0.3,-0.2 0.3,-0.2 0.3,-0.1 0.3,-0.1 0.1,-0.1 0.2,0 0.1,-0.1 0.2,0 0.1,0 0.1,0 0.2,-0.1 0.1,0 0.2,0 0.1,0 0.2,0 0.1,0 0.2,0 0.1,0 0.1,0 0.2,0 0.1,0.1 0.2,0 0.1,0 0.2,0 0.1,0.1 0.2,0 0.1,0 0.1,0.1 0.2,0 0.1,0.1 0.2,0 0.1,0.1 0.2,0 0.1,0 0.2,0.1 0.1,0 0.2,0.1 0.1,0.1 0.1,0 0.2,0.1 0.1,0 0.2,0.1 0.1,0 0.2,0.1 0.1,0 0.2,0.1 0.1,0 0.1,0.1 0.2,0 0.1,0 0.2,0.1 0.1,0 0.2,0.1 0.1,0 0.2,0 0.1,0.1 0.1,0 0.2,0 0.1,0.1 0.2,0 0.1,0 0.2,0 0.1,0 0.2,0 0.1,0 0.2,0 0.1,0 0.1,0 0.2,0 0.1,0 0.2,0 0.1,0 0.2,-0.1 0.1,0 0.2,0 0.1,-0.1 0.3,-0.1 0.3,-0.1 0.3,-0.1 0.3,-0.1 0.3,-0.2 0.2,-0.2 0.3,-0.2 0.3,-0.2 0.3,-0.2 0.3,-0.3 0.3,-0.3 0.3,-0.2 0.3,-0.3 0.3,-0.3 0.2,-0.4 0.3,-0.3 0.3,-0.4 0.3,-0.3 0.3,-0.4 0.3,-0.4 0.3,-0.4 0.3,-0.3 0.3,-0.4 0.3,-0.4 0.2,-0.4 0.3,-0.4 0.3,-0.5 0.3,-0.4 0.3,-0.4 0.3,-0.4 0.3,-0.4 0.3,-0.4 0.3,-0.3 0.3,-0.4 0.2,-0.4 0.3,-0.3 0.3,-0.4 0.3,-0.3 0.3,-0.4 0.3,-0.3 0.6,-0.6 0.5,-0.5 0.6,-0.5 0.6,-0.4 0.3,-0.2 0.3,-0.1 0.3,-0.2 0.3,-0.1 0.3,-0.1 0.2,-0.1 0.3,-0.1 0.3,-0.1 0.2,0 0.1,-0.1 0.2,0 0.1,0 0.2,0 0.1,-0.1 0.1,0 0.2,0 0.1,0 0.2,0 0.1,0 0.2,0 0.1,0 0.2,0 0.1,0 0.1,0 0.2,0 0.1,0 0.2,0 0.1,0 0.2,0 0.1,0.1 0.2,0 0.1,0 0.1,0 0.2,0 0.1,0 0.2,0.1 0.1,0 0.2,0 0.1,0 0.2,0 0.1,0 0.2,0.1 0.1,0 0.1,0 0.2,0 0.1,0 0.2,0 0.1,0.1 0.2,0 0.1,0 0.2,0 0.1,0 0.1,0 0.2,0 0.1,0 0.2,0 0.1,0 0.2,0 0.1,0 0.2,0 0.1,-0.1 0.1,0 0.2,0 0.1,0 0.3,-0.1 0.3,0 0.3,-0.1 0.3,-0.1 0.3,-0.1 0.3,-0.1 0.3,-0.2 0.3,-0.1 0.2,-0.2 0.3,-0.1 0.3,-0.2 0.3,-0.2 0.3,-0.2 0.3,-0.3 0.3,-0.2 0.3,-0.3 0.3,-0.2 0.3,-0.3 0.2,-0.3 0.3,-0.3 0.3,-0.3 0.3,-0.3 0.3,-0.4 0.3,-0.3 0.3,-0.3 0.3,-0.4 0.3,-0.3 0.2,-0.4 0.3,-0.4 0.3,-0.3 0.3,-0.4 0.3,-0.3 0.3,-0.4 0.3,-0.4 0.3,-0.3 0.3,-0.4 0.3,-0.3 0.2,-0.4 0.3,-0.3 0.3,-0.3 0.3,-0.3 0.3,-0.4 0.3,-0.3 0.3,-0.3 0.6,-0.5 0.5,-0.5 0.6,-0.5 0.6,-0.4 0.3,-0.2 0.3,-0.2 0.3,-0.1 0.3,-0.2 0.3,-0.1 0.2,-0.1 0.3,-0.1 0.3,-0.1 0.3,-0.1 0.3,-0.1 0.3,0 0.3,-0.1 0.1,0 0.2,0 0.1,-0.1 0.2,0 0.1,0 0.1,0 0.2,0 0.1,0 0.2,0 0.1,0 0.2,0 0.1,0 0.2,0 0.1,0 0.2,0 0.1,0 0.1,0 0.2,0 0.1,0 0.2,0 0.1,0 0.2,0 0.1,0 0.2,0 0.1,0 0.1,0 0.2,0 0.1,0 0.2,0 0.1,0 0.2,0 0.1,0 0.2,0 0.1,0 0.1,0 0.2,0 0.1,0 0.2,0 0.1,0 0.2,0 0.1,-0.1 0.2,0 0.1,0 0.2,0 0.1,0 0.1,0 0.2,-0.1 0.1,0 0.3,-0.1 0.3,0 0.3,-0.1 0.3,-0.1 0.6,-0.2 0.5,-0.3 0.6,-0.3 0.6,-0.4 0.3,-0.2 0.3,-0.2 0.3,-0.3 0.3,-0.2 0.3,-0.3 0.2,-0.2 0.3,-0.3 0.3,-0.3 0.3,-0.3 0.3,-0.3 0.3,-0.3 0.3,-0.3 0.3,-0.3 0.3,-0.4 0.3,-0.3 0.2,-0.3 0.3,-0.4 0.3,-0.3 0.3,-0.4 0.3,-0.3 0.3,-0.4 0.3,-0.3 0.3,-0.3 0.3,-0.4 0.3,-0.3 0.2,-0.3 0.3,-0.4 0.3,-0.3 0.3,-0.3 0.3,-0.3 0.3,-0.3 0.3,-0.3 0.6,-0.5 0.5,-0.5 0.6,-0.5 0.6,-0.4 0.3,-0.2 0.3,-0.2 0.3,-0.2 0.3,-0.1 0.2,-0.1 0.3,-0.2 0.3,-0.1 0.3,-0.1 0.3,-0.1 0.3,-0.1 0.3,0 0.3,-0.1 0.1,0 0.2,-0.1 0.1,0 0.2,0 0.1,0 0.1,0 0.2,-0.1 0.1,0 0.2,0 0.1,0 0.2,0 0.1,0 0.2,0 0.1,0 0.1,0 0.2,0 0.1,0 0.2,0 0.1,0 0.2,0 0.1,0 0.2,0 0.1,0 0.2,-0.1 0.1,0 0.1,0 0.2,0 0.1,0 0.2,0 0.1,0 0.2,0 0.1,0 0.2,0 0.1,0 0.1,0 0.2,0 0.1,0 0.2,0 0.1,0 0.2,0 0.1,0 0.2,-0.1 0.1,0 0.1,0 0.2,0 0.1,0 0.2,-0.1 0.1,0 0.3,-0.1 0.3,0 0.3,-0.1 0.3,-0.1 0.6,-0.2 0.5,-0.3 0.6,-0.3 0.6,-0.4 0.3,-0.2 0.3,-0.2 0.3,-0.2 0.3,-0.3 0.3,-0.2 0.2,-0.3 0.3,-0.2 0.3,-0.3 0.3,-0.3 0.3,-0.3 0.3,-0.3 0.3,-0.3 0.3,-0.3 0.3,-0.4 0.2,-0.3 0.3,-0.3 0.3,-0.4 0.3,-0.3 0.3,-0.3 0.3,-0.4 0.3,-0.3 0.3,-0.4 0.3,-0.3 0.3,-0.4 0.2,-0.3 0.3,-0.3 0.3,-0.4 0.3,-0.3 0.3,-0.3 0.3,-0.3 0.3,-0.3 0.3,-0.3 0.6,-0.6 0.5,-0.5 0.6,-0.5 0.6,-0.4 0.3,-0.2 0.3,-0.2 0.3,-0.1 0.3,-0.2 0.2,-0.1 0.3,-0.2 0.3,-0.1 0.3,-0.1 0.3,-0.1 0.3,-0.1 0.3,0 0.3,-0.1 0.1,0 0.2,-0.1 0.1,0 0.1,0 0.2,0 0.1,0 0.2,0 0.1,-0.1 0.2,0 0.1,0 0.2,0 0.1,0 0.2,0 0.1,0 0.1,0 0.2,0 0.1,0 0.2,0 0.1,0 0.2,0 0.1,0 0.2,0 0.1,0 0.1,0 0.2,0 0.1,0 0.2,0 0.1,0 0.2,0 0.1,0 0.2,0 0.1,0 0.1,0 0.2,0 0.1,0 0.2,0 0.1,0 0.2,0 0.1,0 0.2,0 0.1,0 0.2,0 0.1,0 0.1,0 0.2,0 0.1,-0.1 0.2,0 0.1,0 0.3,-0.1 0.3,0 0.3,-0.1 0.3,-0.1 0.6,-0.2 0.5,-0.2 0.6,-0.3 0.6,-0.4 0.3,-0.2 0.3,-0.2 0.3,-0.2 0.3,-0.3 0.2,-0.2 0.3,-0.3 0.3,-0.3 0.3,-0.2 0.3,-0.3 0.3,-0.3 0.3,-0.4 0.3,-0.3 0.3,-0.3 0.3,-0.3 0.2,-0.4 0.3,-0.3 0.3,-0.4 0.3,-0.3 0.3,-0.4 0.3,-0.4 0.3,-0.3 0.3,-0.4 0.3,-0.3 0.3,-0.4 0.2,-0.4 0.3,-0.3 0.3,-0.4 0.3,-0.3 0.3,-0.3 0.3,-0.4 0.3,-0.3 0.3,-0.3 0.5,-0.6 0.6,-0.5 0.6,-0.5 0.6,-0.5 0.3,-0.2 0.3,-0.2 0.3,-0.1 0.2,-0.2 0.3,-0.1 0.3,-0.2 0.3,-0.1 0.3,-0.1 0.3,-0.1 0.3,-0.1 0.3,0 0.3,-0.1 0.1,0 0.2,0 0.1,0 0.1,-0.1 0.2,0 0.1,0 0.2,0 0.1,0 0.2,0 0.1,0 0.2,0 0.1,0 0.1,0 0.2,0 0.1,0 0.2,0 0.1,0.1 0.2,0 0.1,0 0.2,0 0.1,0 0.1,0 0.2,0.1 0.1,0 0.2,0 0.1,0 0.2,0 0.1,0 0.2,0.1 0.1,0 0.2,0 0.1,0 0.1,0 0.2,0 0.1,0.1 0.2,0 0.1,0 0.2,0 0.1,0 0.2,0 0.1,0 0.1,0 0.2,0 0.1,0 0.2,0 0.1,0 0.2,0 0.1,0 0.2,0 0.1,0 0.1,-0.1 0.2,0 0.1,0 0.2,0 0.1,-0.1 0.2,0 0.6,-0.2 0.5,-0.2 0.6,-0.3 0.6,-0.3 0.3,-0.2 0.3,-0.2 0.3,-0.3 0.3,-0.2 0.2,-0.3 0.3,-0.2 0.3,-0.3 0.3,-0.3 0.3,-0.3 0.3,-0.4 0.3,-0.3 0.3,-0.4 0.3,-0.3 0.2,-0.4 0.3,-0.4 0.3,-0.3 0.3,-0.4 0.3,-0.4 0.3,-0.4 0.3,-0.4 0.3,-0.4 0.3,-0.5 0.3,-0.4 0.2,-0.4 0.3,-0.4 0.3,-0.4 0.3,-0.3 0.3,-0.4 0.3,-0.4 0.3,-0.4 0.3,-0.3 0.3,-0.4 0.3,-0.3 0.2,-0.4 0.3,-0.3 0.3,-0.3 0.3,-0.2 0.3,-0.3 0.3,-0.3 0.3,-0.2 0.3,-0.2 0.3,-0.2 0.2,-0.2 0.3,-0.2 0.3,-0.1 0.3,-0.1 0.3,-0.1 0.3,-0.1 0.1,-0.1 0.2,0 0.1,0 0.2,-0.1 0.1,0 0.2,0 0.1,0 0.2,0 0.1,0 0.1,0 0.2,0 0.1,0 0.2,0 0.1,0 0.2,0 0.1,0 0.2,0 0.1,0.1 0.2,0 0.1,0 0.1,0.1 0.2,0 0.1,0 0.2,0.1 0.1,0 0.2,0.1 0.1,0 0.2,0 0.1,0.1 0.1,0 0.2,0.1 0.1,0 0.2,0.1 0.1,0 0.2,0.1 0.1,0 0.2,0.1 0.1,0 0.1,0.1 0.2,0.1 0.1,0 0.2,0.1 0.1,0 0.2,0 0.1,0.1 0.2,0 0.1,0.1 0.2,0 0.1,0.1 0.1,0 0.2,0 0.1,0.1 0.2,0 0.1,0 0.2,0 0.1,0.1 0.2,0 0.1,0 0.1,0 0.2,0 0.1,0 0.2,0 0.1,0 0.2,0 0.1,0 0.2,-0.1 0.1,0 0.1,0 0.2,0 0.1,-0.1 0.2,0 0.1,-0.1 0.3,-0.1 0.3,-0.1 0.3,-0.2 0.3,-0.2 0.3,-0.2 0.3,-0.2 0.3,-0.2 0.2,-0.3 0.3,-0.3 0.3,-0.3 0.3,-0.3 0.3,-0.4 0.3,-0.3 0.3,-0.4 0.3,-0.4 0.3,-0.4 0.3,-0.5 0.2,-0.4 0.3,-0.5 0.3,-0.5 0.3,-0.4 0.3,-0.5 0.3,-0.5 0.3,-0.6 0.3,-0.5 0.3,-0.5 0.2,-0.5 0.3,-0.5 0.3,-0.5 0.3,-0.5 0.3,-0.5 0.3,-0.5 0.3,-0.5 0.3,-0.5 0.3,-0.4 0.3,-0.5 0.2,-0.4 0.3,-0.4 0.3,-0.4 0.3,-0.4 0.3,-0.3 0.3,-0.4 0.3,-0.3 0.3,-0.3 0.6,-0.4 0.5,-0.4 0.6,-0.3 0.6,-0.1 0.1,0 0.2,0 0.1,0 0.2,0 0.1,0 0.2,0 0.1,0 0.2,0.1 0.1,0 0.1,0 0.2,0.1 0.1,0.1 0.2,0 0.1,0.1 0.2,0.1 0.1,0 0.2,0.1 0.1,0.1 0.1,0.1 0.2,0.1 0.1,0.1 0.2,0.1 0.1,0.2 0.2,0.1 0.1,0.1 0.2,0.1 0.1,0.2 0.1,0.1 0.2,0.1 0.1,0.2 0.2,0.1 0.1,0.1 0.2,0.2 0.1,0.1 0.2,0.2 0.1,0.1 0.2,0.2 0.1,0.1 0.1,0.2 0.2,0.1 0.1,0.2 0.2,0.1 0.1,0.2 0.2,0.1 0.1,0.2 0.2,0.1 0.1,0.2 0.1,0.1 0.2,0.1 0.1,0.2 0.2,0.1 0.1,0.1 0.2,0.1 0.1,0.2 0.2,0.1 0.1,0.1 0.1,0.1 0.2,0.1 0.1,0.1 0.2,0.1 0.1,0 0.2,0.1 0.1,0.1 0.2,0 0.1,0.1 0.2,0 0.1,0 0.1,0.1 0.2,0 0.1,0 0.2,0 0.1,0 0.2,0 0.1,-0.1 0.2,0 0.1,0 0.1,-0.1 0.2,-0.1 0.1,-0.1 0.2,0 0.3,-0.3 0.3,-0.2 0.2,-0.3 0.3,-0.3 0.3,-0.4 0.3,-0.4 0.3,-0.5 0.3,-0.5 0.3,-0.6 0.3,-0.6 0.3,-0.6 0.3,-0.7 0.2,-0.7 0.3,-0.7 0.3,-0.8 0.3,-0.8 0.3,-0.9 0.3,-0.8 0.3,-0.9 0.3,-0.9 0.3,-0.9 0.3,-1 0.2,-0.9 0.3,-1 0.3,-1 0.3,-0.9 0.3,-1 0.3,-0.9 0.3,-0.9 0.3,-1 0.3,-0.9 0.3,-0.8 0.2,-0.8 0.3,-0.8 0.3,-0.8 0.3,-0.7 0.3,-0.7 0.3,-0.6 0.3,-0.5 0.3,-0.5 0.1,-0.2 0.2,-0.2 0.1,-0.2 0.1,-0.2 0.2,-0.1 0.1,-0.2 0.2,-0.1 0.1,-0.1 0.2,0 0.1,-0.1 0.2,0 0.1,0 0.2,0 0.1,0 0.1,0.1 0.2,0.1 0.3,0.3 0.3,0.3 0.3,0.4 0.2,0.6 0.3,0.7 0.3,0.7 0.3,0.9 0.3,1 0.3,1.1 0.3,1.2 0.3,1.3 0.3,1.4 0.3,1.6 0.2,1.6 0.3,1.8 0.3,1.9 0.3,1.9 0.3,2.1 0.3,2.2 0.3,2.3 0.3,2.4 0.3,2.5 0.2,2.5 0.3,2.7 0.3,2.7 0.3,2.9 0.3,2.9 0.3,3 0.3,3 0.3,3.1 0.3,3.2 0.3,3.2 0.2,3.3 0.3,3.3 0.3,3.3 0.3,3.4 0.3,3.4 0.3,3.4 0.3,3.4 0.3,3.4 0.3,3.5 0.3,3.4 0.2,3.4 0.3,3.4 0.3,3.4 0.3,3.3 0.3,3.3 0.3,3.3 0.3,3.2 0.3,3.2 0.3,3.1 0.3,3 0.2,3 0.3,2.9 0.3,2.9 0.3,2.7 0.3,2.7 0.3,2.5 0.3,2.5 0.3,2.4 0.3,2.3 0.2,2.2 0.3,2.1 0.3,1.9 0.6,3.7 0.6,3.2 0.6,2.7 0.5,2.3 0.3,1 0.3,0.9 0.3,0.7 0.3,0.7 0.1,0.3 0.2,0.3 0.1,0.2 0.2,0.2 0.1,0.2 0.2,0.1 0.1,0.2 0.2,0.1 0.1,0.1 0.2,0.1 0.1,0 0.1,0 0.2,0 0.1,0 0.2,-0.1 0.1,0 0.2,-0.1 0.1,-0.1 0.2,-0.2 0.1,-0.1 0.1,-0.2 0.2,-0.2 0.1,-0.2 0.2,-0.2 0.3,-0.5 0.3,-0.5 0.3,-0.6 0.2,-0.7 0.3,-0.7 0.3,-0.8 0.3,-0.8 0.3,-0.8 0.3,-0.8 0.3,-0.9 0.3,-1 0.3,-0.9 0.2,-0.9 0.3,-1 0.3,-0.9 0.3,-1 0.3,-1 0.3,-0.9 0.3,-1 0.3,-0.9 0.3,-0.9 0.3,-0.9 0.2,-0.8 0.3,-0.9 0.3,-0.8 0.3,-0.8 0.3,-0.7 0.3,-0.7 0.3,-0.7 0.3,-0.6 0.3,-0.6 0.3,-0.6 0.2,-0.5 0.3,-0.5 0.3,-0.4 0.3,-0.4 0.3,-0.3 0.3,-0.3 0.3,-0.2 0.3,-0.3 0.1,0 0.2,-0.1 0.1,-0.1 0.1,-0.1 0.2,0 0.1,0 0.2,-0.1 0.1,0 0.2,0 0.1,0 0.2,0 0.1,0 0.2,0.1 0.1,0 0.1,0 0.2,0.1 0.1,0 0.2,0.1 0.1,0.1 0.2,0 0.1,0.1 0.2,0.1 0.1,0.1 0.1,0.1 0.2,0.1 0.1,0.1 0.2,0.2 0.1,0.1 0.2,0.1 0.1,0.1 0.2,0.2 0.1,0.1 0.1,0.1 0.2,0.2 0.1,0.1 0.2,0.2 0.1,0.1 0.2,0.2 0.1,0.1 0.2,0.2 0.1,0.1 0.2,0.2 0.1,0.1 0.1,0.2 0.2,0.1 0.1,0.2 0.2,0.1 0.1,0.2 0.2,0.1 0.1,0.1 0.2,0.2 0.1,0.1 0.1,0.1 0.2,0.2 0.1,0.1 0.2,0.1 0.1,0.1 0.2,0.2 0.1,0.1 0.2,0.1 0.1,0.1 0.2,0.1 0.1,0.1 0.1,0.1 0.2,0 0.1,0.1 0.2,0.1 0.1,0 0.2,0.1 0.1,0.1 0.2,0 0.1,0 0.1,0.1 0.2,0 0.1,0 0.2,0 0.1,0 0.2,0 0.1,0 0.2,0 0.2,-0.1 0.3,0 0.3,-0.2 0.3,-0.1 0.3,-0.2 0.3,-0.2 0.3,-0.2 0.3,-0.2 0.3,-0.3 0.3,-0.3 0.2,-0.4 0.3,-0.3 0.3,-0.4 0.3,-0.4 0.3,-0.4 0.3,-0.4 0.3,-0.5 0.3,-0.4 0.3,-0.5 0.3,-0.5 0.2,-0.5 0.3,-0.5 0.3,-0.5 0.3,-0.5 0.3,-0.5 0.3,-0.5 0.3,-0.5 0.3,-0.5 0.3,-0.6 0.2,-0.5 0.3,-0.5 0.3,-0.4 0.3,-0.5 0.3,-0.5 0.3,-0.4 0.3,-0.5 0.3,-0.4 0.3,-0.4 0.3,-0.4 0.2,-0.3 0.6,-0.7 0.6,-0.6 0.6,-0.5 0.6,-0.4 0.3,-0.2 0.2,-0.2 0.3,-0.1 0.3,-0.1 0.2,-0.1 0.1,0 0.2,-0.1 0.1,0 0.1,0 0.2,0 0.1,-0.1 0.2,0 0.1,0 0.2,0 0.1,0 0.2,0 0.1,0 0.2,0 0.1,0 0.1,0 0.2,0.1 0.1,0 0.2,0 0.1,0 0.2,0.1 0.1,0 0.2,0 0.1,0.1 0.1,0 0.2,0.1 0.1,0 0.2,0.1 0.1,0 0.2,0 0.1,0.1 0.2,0 0.1,0.1 0.1,0.1 0.2,0 0.1,0.1 0.2,0 0.1,0.1 0.2,0 0.1,0.1 0.2,0 0.1,0.1 0.2,0 0.1,0.1 0.1,0 0.2,0 0.1,0.1 0.2,0 0.1,0.1 0.2,0 0.1,0 0.2,0.1 0.1,0 0.1,0 0.2,0.1 0.1,0 0.2,0 0.1,0 0.2,0 0.1,0 0.2,0 0.1,0 0.1,0 0.2,0 0.1,0 0.2,0 0.1,0 0.2,0 0.1,-0.1 0.2,0 0.1,0 0.2,-0.1 0.2,-0.1 0.3,-0.1 0.3,-0.1 0.3,-0.1 0.3,-0.2 0.3,-0.2 0.3,-0.2 0.3,-0.2 0.3,-0.2 0.2,-0.3 0.3,-0.3 0.3,-0.2 0.3,-0.3 0.3,-0.3 0.3,-0.4 0.3,-0.3 0.3,-0.4 0.3,-0.3 0.3,-0.4 0.2,-0.4 0.3,-0.4 0.3,-0.3 0.3,-0.4 0.3,-0.4 0.3,-0.4 0.3,-0.4 0.3,-0.5 0.3,-0.4 0.3,-0.4 0.2,-0.4 0.3,-0.4 0.3,-0.4 0.3,-0.3 0.3,-0.4 0.3,-0.4 0.3,-0.3 0.3,-0.4 0.3,-0.3 0.3,-0.4 0.2,-0.3 0.6,-0.6 0.6,-0.5 0.6,-0.5 0.6,-0.4 0.2,-0.2 0.3,-0.1 0.3,-0.2 0.3,-0.1 0.3,-0.1 0.3,-0.1 0.3,-0.1 0.3,-0.1 0.1,0 0.2,-0.1 0.1,0 0.2,0 0.1,0 0.1,-0.1 0.2,0 0.1,0 0.2,0 0.1,0 0.2,0 0.1,0 0.2,0 0.1,0 0.1,0 0.2,0 0.1,0 0.2,0 0.1,0 0.2,0 0.1,0 0.2,0.1 0.1,0 0.2,0 0.1,0 0.1,0 0.2,0 0.1,0.1 0.2,0 0.1,0 0.2,0 0.1,0 0.2,0 0.1,0.1 0.1,0 0.2,0 0.1,0 0.2,0 0.1,0 0.2,0.1 0.1,0 0.2,0 0.1,0 0.1,0 0.2,0 0.1,0 0.2,0 0.1,0 0.2,0 0.1,0 0.2,0 0.1,0 0.2,-0.1 0.1,0 0.1,0 0.2,0 0.3,-0.1 0.3,0 0.3,-0.1 0.2,-0.1 0.3,-0.1 0.3,-0.1 0.3,-0.2 0.3,-0.1 0.3,-0.2 0.3,-0.1 0.3,-0.2 0.3,-0.2 0.3,-0.2 0.2,-0.3 0.3,-0.2 0.3,-0.3 0.3,-0.2 0.3,-0.3 0.3,-0.3 0.3,-0.3 0.3,-0.3 0.3,-0.3 0.3,-0.4 0.2,-0.3 0.3,-0.3 0.3,-0.4 0.3,-0.3 0.3,-0.4 0.3,-0.4 0.3,-0.3 0.3,-0.4 0.3,-0.3 0.2,-0.4 0.3,-0.4 0.3,-0.3 0.3,-0.4 0.3,-0.3 0.3,-0.4 0.3,-0.3 0.3,-0.3 0.3,-0.3 0.3,-0.4 0.2,-0.3 0.3,-0.3 0.6,-0.5 0.6,-0.5 0.6,-0.5 0.6,-0.4 0.2,-0.2 0.3,-0.2 0.3,-0.1 0.3,-0.2 0.3,-0.1 0.3,-0.1 0.3,-0.1 0.3,-0.1 0.3,-0.1 0.2,-0.1 0.3,0 0.3,-0.1 0.2,0 0.1,0 0.2,-0.1 0.1,0 0.2,0 0.1,0 0.1,0 0.2,0 0.1,0 0.2,0 0.1,0 0.2,0 0.1,0 0.2,0 0.1,0 0.1,0 0.2,0 0.1,0 0.2,0 0.1,0 0.2,0 0.1,0 0.2,0 0.1,0 0.2,0 0.1,0 0.1,0 0.2,0 0.1,0 0.2,0 0.1,0 0.2,0 0.1,0 0.2,0 0.1,0 0.1,0 0.2,0 0.1,0 0.2,0 0.1,0 0.2,-0.1 0.1,0 0.2,0 0.1,0 0.1,0 0.2,0 0.1,-0.1 0.2,0 0.3,-0.1 0.3,0 0.3,-0.1 0.2,-0.1 0.6,-0.2 0.6,-0.3 0.6,-0.3 0.6,-0.4 0.2,-0.2 0.3,-0.2 0.3,-0.3 0.3,-0.2 0.3,-0.3 0.3,-0.2 0.3,-0.3 0.3,-0.3 0.3,-0.3 0.3,-0.3 0.2,-0.3 0.3,-0.3 0.3,-0.3 0.3,-0.4 0.3,-0.3 0.3,-0.3 0.3,-0.4 0.3,-0.3 0.3,-0.4 0.3,-0.3 0.2,-0.4 0.3,-0.3 0.3,-0.3 0.3,-0.4 0.3,-0.3 0.3,-0.3 0.3,-0.4 0.3,-0.3 0.3,-0.3 0.2,-0.3 0.3,-0.3 0.3,-0.3 0.6,-0.5 0.6,-0.5 0.6,-0.5 0.5,-0.4 0.3,-0.2 0.3,-0.2 0.3,-0.2 0.3,-0.1 0.3,-0.1 0.3,-0.2 0.3,-0.1 0.3,-0.1 0.3,-0.1 0.2,-0.1 0.3,0 0.3,-0.1 0.2,0 0.1,-0.1 0.2,0 0.1,0 0.1,0 0.2,0 0.1,-0.1 0.2,0 0.1,0 0.2,0 0.1,0 0.2,0 0.1,0 0.2,0 0.1,0 0.1,0 0.2,0 0.1,0 0.2,0 0.1,0 0.2,0 0.1,0 0.2,0 0.1,-0.1 h 0.01"
           style="stroke:#ffc0cb;stroke-opacity:1" />
      </g>
    </g>
    <g
       transform="translate(37.142859,246.64789)"
       id="g153"
       style="color:#000000;fill:none;stroke:#ffffff;stroke-width:1;stroke-linecap:butt;stroke-linejoin:miter">
      <path
         inkscape:connector-curvature="0"
         id="path155"
         d="m 37.3,16.7 0,405.7 537.7,0 0,-405.7 -537.7,0 z m 0,0 h 0.01"
         style="stroke:#ffffff" />
    </g>
    <g
       style="fill:#ffffff"
       transform="matrix(0.92381061,0,0,0.92381061,207.43712,435.11837)"
       id="g4133">
      <g
         id="content"
         transform="matrix(0.68571429,0,0,-0.68571429,-120,450)"
         xml:space="preserve"
         stroke-miterlimit="10.433"
         font-style="normal"
         font-variant="normal"
         font-weight="normal"
         font-stretch="normal"
         font-size-adjust="none"
         letter-spacing="normal"
         word-spacing="normal"
         style="font-style:normal;font-variant:normal;font-weight:normal;font-stretch:normal;letter-spacing:normal;word-spacing:normal;text-anchor:start;fill:#ffffff;stroke:#000000;stroke-linecap:butt;stroke-linejoin:miter;stroke-miterlimit:10.43299961;stroke-opacity:1;stroke-dasharray:none;stroke-dashoffset:0"><path
           d="m 479.74,425.18 0.01,0.04 0.01,0.03 0.01,0.06 0.02,0.05 0.01,0.06 0.01,0.05 0.02,0.04 0.01,0.05 0.01,0.04 0.01,0.04 0,0.04 0.01,0.04 0.01,0.04 0.01,0.03 0,0.03 0.01,0.03 0,0.03 0.01,0.03 0,0.03 0.01,0.05 0,0.06 0,0.05 0,0.05 0.01,0.05 0,0.03 0,0.03 0,0.03 0,0.03 c 0,0.91 -0.69,1.35 -1.44,1.35 -0.5,0 -1.3,-0.3 -1.75,-1.05 -0.1,-0.25 -0.5,-1.78 -0.69,-2.69 -0.36,-1.29 -0.7,-2.64 -1,-3.98 l -2.25,-8.97 c -0.19,-0.75 -2.33,-4.23 -5.62,-4.23 -2.54,0 -3.1,2.18 -3.1,4.03 0,2.29 0.86,5.39 2.55,9.76 0.8,2.05 1,2.6 1,3.6 0,2.23 -1.59,4.07 -4.09,4.07 -4.74,0 -6.58,-7.21 -6.58,-7.67 0,-0.5 0.5,-0.5 0.61,-0.5 0.5,0 0.54,0.11 0.79,0.91 1.35,4.69 3.33,6.17 5.03,6.17 0.4,0 1.25,0 1.25,-1.59 0,-1.25 -0.5,-2.53 -0.85,-3.49 -1.99,-5.28 -2.9,-8.12 -2.9,-10.47 0,-4.42 3.15,-5.92 6.08,-5.92 1.96,0 3.64,0.85 5.03,2.24 -0.64,-2.58 -1.23,-5.03 -3.23,-7.68 -1.3,-1.68 -3.19,-3.14 -5.48,-3.14 -0.69,0 -2.94,0.16 -3.79,2.1 0.8,0 1.46,0 2.14,0.61 0.5,0.43 1,1.09 1,2.03 0,1.55 -1.34,1.75 -1.84,1.75 -1.14,0 -2.8,-0.8 -2.8,-3.24 0,-2.5 2.21,-4.34 5.29,-4.34 5.14,0 10.26,4.55 11.67,10.17 z"
           id="path4136"
           inkscape:connector-curvature="0"
           style="fill:#ffffff;stroke-width:0" /><path
           d="m 529.83,422.5 0.14,0 0.15,0 0.14,0 0.07,0.01 0.08,0 0.07,0.01 0.07,0.01 0.07,0.01 0.07,0.01 0.07,0.01 0.06,0.02 0.07,0.02 0.06,0.02 0.06,0.02 0.06,0.03 0.06,0.03 0.05,0.04 0.05,0.03 0.05,0.05 0.04,0.04 0.04,0.05 0.02,0.03 0.02,0.03 0.01,0.02 0.02,0.03 0.01,0.03 0.01,0.04 0.02,0.03 0.01,0.04 0.01,0.03 0.01,0.04 0,0.04 0.01,0.04 0,0.04 0.01,0.04 0,0.04 0,0.05 c 0,1 -0.95,1 -1.64,1 h -29.84 c -0.71,0 -1.65,0 -1.65,-1 0,-0.98 0.94,-0.98 1.69,-0.98 z"
           id="path4138"
           inkscape:connector-curvature="0"
           style="fill:#ffffff;stroke-width:0" /><path
           d="m 529.88,412.82 0.06,0 0.07,0 0.14,0.01 0.14,0 0.07,0 0.07,0.01 0.06,0.01 0.07,0 0.07,0.01 0.07,0.02 0.07,0.01 0.06,0.02 0.07,0.02 0.06,0.02 0.06,0.02 0.05,0.03 0.06,0.03 0.05,0.04 0.05,0.04 0.05,0.04 0.04,0.05 0.02,0.02 0.02,0.03 0.02,0.02 0.02,0.03 0.01,0.03 0.02,0.03 0.01,0.03 0.01,0.03 0.02,0.04 0.01,0.03 0.01,0.04 0.01,0.04 0,0.04 0.01,0.04 0,0.04 0.01,0.04 0,0.05 0,0.04 c 0,1 -0.95,1 -1.69,1 h -29.75 c -0.75,0 -1.69,0 -1.69,-1 0,-1 0.94,-1 1.65,-1 z"
           id="path4140"
           inkscape:connector-curvature="0"
           style="fill:#ffffff;stroke-width:0" /><path
           d="m 584.47,455.25 -0.46,-0.38 -0.46,-0.36 -0.47,-0.35 -0.47,-0.33 -0.47,-0.31 -0.48,-0.29 -0.48,-0.27 -0.48,-0.24 -0.24,-0.12 -0.24,-0.11 -0.24,-0.1 -0.24,-0.09 -0.24,-0.09 -0.25,-0.08 -0.24,-0.08 -0.24,-0.07 -0.24,-0.06 -0.24,-0.05 -0.24,-0.05 -0.24,-0.03 -0.24,-0.03 -0.24,-0.02 -0.24,-0.02 -0.24,0 c -1.99,0 -3.44,0.84 -5.17,1.84 -1.46,0.85 -3,1.69 -4.99,1.69 -1.25,0 -2.54,-0.39 -3.64,-0.89 -1,-0.5 -2,-1.05 -2.84,-1.75 l -2.69,-2.19 0.7,-0.84 c 2.44,2.03 5.08,3.53 7.61,3.53 2,0 3.45,-0.84 5.19,-1.84 1.45,-0.85 2.98,-1.69 4.98,-1.69 1.25,0 2.55,0.39 3.65,0.89 0.98,0.5 1.98,1.05 2.82,1.75 l 2.71,2.19 z"
           id="path4142"
           inkscape:connector-curvature="0"
           style="fill:#ffffff;stroke-width:0" /><path
           d="m 566.44,426.12 h 4.28 c 1,0 1.5,0 1.5,1 0,0.55 -0.5,0.55 -1.34,0.55 h -4.14 l 1.04,5.69 c 0.21,1.04 0.91,4.57 1.21,5.17 0.45,0.95 1.29,1.7 2.34,1.7 0.19,0 1.49,0 2.44,-0.91 -2.19,-0.18 -2.69,-1.93 -2.69,-2.68 0,-1.14 0.89,-1.74 1.85,-1.74 1.29,0 2.73,1.1 2.73,2.99 0,2.29 -2.3,3.43 -4.33,3.43 -1.7,0 -4.84,-0.89 -6.33,-5.82 -0.29,-1.05 -0.45,-1.55 -1.64,-7.83 h -3.43 c -0.96,0 -1.5,0 -1.5,-0.94 0,-0.61 0.45,-0.61 1.39,-0.61 h 3.29 l -3.75,-19.67 c -0.89,-4.83 -1.73,-9.38 -4.33,-9.38 -0.2,0 -1.43,0 -2.38,0.91 2.29,0.14 2.73,1.94 2.73,2.69 0,1.14 -0.89,1.75 -1.85,1.75 -1.29,0 -2.73,-1.1 -2.73,-3 0,-2.24 2.19,-3.44 4.23,-3.44 2.74,0 4.74,2.94 5.63,4.84 1.59,3.14 2.75,9.16 2.8,9.52 z"
           id="path4144"
           inkscape:connector-curvature="0"
           style="fill:#ffffff;stroke-width:0" /><path
           d="m 584.19,420.92 0,0.04 0,0.04 0,0.05 0,0.04 0,0.03 0,0.04 0,0.04 0,0.03 -0.01,0.04 0,0.03 0,0.03 0,0.03 0,0.03 -0.01,0.03 0,0.03 0,0.02 -0.01,0.03 0,0.02 -0.01,0.03 0,0.02 -0.02,0.04 -0.01,0.04 -0.02,0.03 -0.02,0.03 -0.02,0.03 -0.02,0.03 -0.03,0.02 -0.03,0.02 -0.03,0.02 -0.04,0.01 -0.04,0.01 -0.05,0.02 -0.02,0 -0.02,0 -0.03,0.01 -0.03,0 -0.02,0.01 -0.03,0 -0.03,0 -0.03,0 -0.03,0 -0.04,0.01 -0.03,0 -0.04,0 -0.03,0 -0.04,0 -0.04,0 -0.04,0 -0.04,0 -0.05,0 -0.04,0 -0.04,0 c -2.24,-2.2 -5.4,-2.23 -6.83,-2.23 v -1.25 c 0.84,0 3.14,0 5.04,0.97 v -17.77 c 0,-1.16 0,-1.61 -3.48,-1.61 h -1.31 v -1.25 c 0.62,0.03 4.9,0.14 6.2,0.14 1.08,0 5.47,-0.11 6.23,-0.14 v 1.25 h -1.32 c -3.49,0 -3.49,0.45 -3.49,1.61 z"
           id="path4146"
           inkscape:connector-curvature="0"
           style="fill:#ffffff;stroke-width:0" /><path
           d="m 610.3,409.87 0,0.71 -0.02,0.68 -0.03,0.66 -0.04,0.64 -0.06,0.62 -0.08,0.6 -0.09,0.57 -0.11,0.56 -0.12,0.55 -0.15,0.53 -0.17,0.51 -0.19,0.5 -0.21,0.49 -0.24,0.48 -0.26,0.47 -0.14,0.23 -0.15,0.23 c -1.08,1.61 -3.24,3 -6.03,3 v -0.98 c 1.89,0 3.7,-1.14 4.32,-3.17 0.57,-1.88 0.6,-4.39 0.6,-7.43 0,-2.57 0,-5.15 -0.45,-7.34 -0.71,-3.17 -3.07,-3.94 -4.47,-3.94 h 0 c -1.6,0 -3.72,0.94 -4.43,3.8 -0.48,2.05 -0.48,4.91 -0.48,7.48 0,2.55 0,5.21 0.52,7.11 0.73,2.75 2.96,3.49 4.39,3.49 v 0.98 c -8.08,0 -8.08,-9.51 -8.08,-12.03 0,-2.5 0,-11.81 8.08,-11.81 8.09,0 8.09,9.31 8.09,11.81 z"
           id="path4148"
           inkscape:connector-curvature="0"
           style="fill:#ffffff;stroke-width:0" /><path
           d="m 631.25,394.25 0,0.02 -0.01,0.03 0,0.01 0,0.02 0,0.01 -0.01,0.02 0,0.01 -0.01,0.02 -0.01,0.02 -0.01,0.02 -0.01,0.02 -0.01,0.03 -0.02,0.02 -0.02,0.03 -0.02,0.03 -0.02,0.03 -0.03,0.03 -0.03,0.04 -0.02,0.02 -0.01,0.02 -0.02,0.02 -0.02,0.02 -0.02,0.02 -0.02,0.03 -0.02,0.02 -0.02,0.02 -0.02,0.03 -0.03,0.02 -0.02,0.03 -0.03,0.03 -0.02,0.03 -0.03,0.03 -0.03,0.03 -0.03,0.03 -0.03,0.03 -0.03,0.03 -0.04,0.04 -0.03,0.03 -0.03,0.04 -0.04,0.03 -0.04,0.04 -0.04,0.04 c -6.22,6.28 -7.81,15.69 -7.81,23.31 0,8.67 1.89,17.35 8.01,23.56 0.65,0.61 0.65,0.71 0.65,0.86 0,0.35 -0.19,0.49 -0.49,0.49 -0.5,0 -4.98,-3.38 -7.92,-9.7 -2.55,-5.49 -3.14,-11.02 -3.14,-15.21 0,-3.89 0.55,-9.9 3.28,-15.54 2.99,-6.13 7.28,-9.36 7.78,-9.36 0.3,0 0.49,0.14 0.49,0.5 z"
           id="path4150"
           inkscape:connector-curvature="0"
           style="fill:#ffffff;stroke-width:0" /><path
           d="m 650.72,421.25 0.03,0.13 0.03,0.15 0.05,0.16 0.04,0.18 0.06,0.19 0.05,0.21 0.07,0.22 0.07,0.22 0.08,0.23 0.09,0.24 0.1,0.25 0.1,0.24 0.11,0.25 0.12,0.25 0.13,0.25 0.14,0.25 0.14,0.24 0.16,0.24 0.17,0.23 0.17,0.22 0.19,0.22 0.2,0.2 0.21,0.19 0.22,0.18 0.23,0.16 0.25,0.14 0.12,0.07 0.13,0.06 0.14,0.05 0.13,0.05 0.14,0.05 0.14,0.04 0.15,0.03 0.15,0.03 0.15,0.02 0.15,0.02 0.16,0.01 0.17,0 c 0.25,0 1.43,0 2.48,-0.64 -1.39,-0.25 -2.39,-1.5 -2.39,-2.69 0,-0.79 0.55,-1.75 1.89,-1.75 1.09,0 2.69,0.89 2.69,2.89 0,2.6 -2.94,3.28 -4.63,3.28 -2.89,0 -4.64,-2.64 -5.23,-3.78 -1.25,3.28 -3.94,3.78 -5.38,3.78 -5.18,0 -8.03,-6.42 -8.03,-7.67 0,-0.5 0.5,-0.5 0.61,-0.5 0.39,0 0.55,0.11 0.64,0.55 1.69,5.28 4.99,6.53 6.67,6.53 0.96,0 2.69,-0.44 2.69,-3.33 0,-1.54 -0.84,-4.89 -2.69,-11.86 -0.79,-3.09 -2.53,-5.18 -4.73,-5.18 -0.3,0 -1.44,0 -2.48,0.65 1.25,0.24 2.34,1.28 2.34,2.69 0,1.34 -1.09,1.73 -1.84,1.73 -1.5,0 -2.75,-1.29 -2.75,-2.89 0,-2.28 2.5,-3.28 4.68,-3.28 3.3,0 5.08,3.49 5.24,3.78 0.59,-1.84 2.39,-3.78 5.37,-3.78 5.14,0 7.99,6.42 7.99,7.67 0,0.5 -0.46,0.5 -0.61,0.5 -0.44,0 -0.55,-0.2 -0.64,-0.54 -1.64,-5.33 -5.03,-6.53 -6.63,-6.53 -1.95,0 -2.75,1.59 -2.75,3.29 0,1.1 0.3,2.19 0.86,4.38 z"
           id="path4152"
           inkscape:connector-curvature="0"
           style="fill:#ffffff;stroke-width:0" /><path
           d="m 676.91,418.65 -0.01,0.37 0,0.39 -0.01,0.39 -0.01,0.41 -0.04,0.84 -0.06,0.88 -0.08,0.92 -0.11,0.95 -0.14,0.97 -0.16,1.01 -0.2,1.02 -0.23,1.03 -0.26,1.05 -0.31,1.06 -0.35,1.07 -0.39,1.07 -0.21,0.53 -0.23,0.53 -0.24,0.53 -0.25,0.53 c -2.98,6.12 -7.26,9.36 -7.76,9.36 -0.3,0 -0.5,-0.19 -0.5,-0.49 0,-0.15 0,-0.25 0.94,-1.15 4.89,-4.92 7.73,-12.85 7.73,-23.27 0,-8.51 -1.84,-17.28 -8.03,-23.56 -0.64,-0.59 -0.64,-0.7 -0.64,-0.84 0,-0.3 0.2,-0.5 0.5,-0.5 0.5,0 4.97,3.39 7.92,9.71 2.53,5.47 3.13,11 3.13,15.19 z"
           id="path4154"
           inkscape:connector-curvature="0"
           style="fill:#ffffff;stroke-width:0" /></g>    </g>
    <g
       id="g3421"
       style="fill:#ffffff"
       transform="matrix(0.54716525,0,0,0.54716525,277.14557,134.5392)">
      <g
         word-spacing="normal"
         letter-spacing="normal"
         font-size-adjust="none"
         font-stretch="normal"
         font-weight="normal"
         font-variant="normal"
         font-style="normal"
         stroke-miterlimit="10.433"
         xml:space="preserve"
         transform="matrix(1.0629921,0,0,-1.0629921,-186.02362,789.27165)"
         id="g3423"
         style="font-style:normal;font-variant:normal;font-weight:normal;font-stretch:normal;letter-spacing:normal;word-spacing:normal;text-anchor:start;fill:#ffffff;fill-opacity:1;fill-rule:evenodd;stroke:#000000;stroke-linecap:butt;stroke-linejoin:miter;stroke-miterlimit:10.43299961;stroke-opacity:1;stroke-dasharray:none;stroke-dashoffset:0"><path
           id="path3425"
           d="m 479.74,425.18 0.01,0.04 0.01,0.03 0.01,0.06 0.02,0.05 0.01,0.06 0.01,0.05 0.02,0.04 0.01,0.05 0.01,0.04 0.01,0.04 0,0.04 0.01,0.04 0.01,0.04 0.01,0.03 0,0.03 0.01,0.03 0,0.03 0.01,0.03 0,0.03 0.01,0.05 0,0.06 0,0.05 0,0.05 0.01,0.05 0,0.03 0,0.03 0,0.03 0,0.03 c 0,0.91 -0.69,1.35 -1.44,1.35 -0.5,0 -1.3,-0.3 -1.75,-1.05 -0.1,-0.25 -0.5,-1.78 -0.69,-2.69 -0.36,-1.29 -0.7,-2.64 -1,-3.98 l -2.25,-8.97 c -0.19,-0.75 -2.33,-4.23 -5.62,-4.23 -2.54,0 -3.1,2.18 -3.1,4.03 0,2.29 0.86,5.39 2.55,9.76 0.8,2.05 1,2.6 1,3.6 0,2.23 -1.59,4.07 -4.09,4.07 -4.74,0 -6.58,-7.21 -6.58,-7.67 0,-0.5 0.5,-0.5 0.61,-0.5 0.5,0 0.54,0.11 0.79,0.91 1.35,4.69 3.33,6.17 5.03,6.17 0.4,0 1.25,0 1.25,-1.59 0,-1.25 -0.5,-2.53 -0.85,-3.49 -1.99,-5.28 -2.9,-8.12 -2.9,-10.47 0,-4.42 3.15,-5.92 6.08,-5.92 1.96,0 3.64,0.85 5.03,2.24 -0.64,-2.58 -1.23,-5.03 -3.23,-7.68 -1.3,-1.68 -3.19,-3.14 -5.48,-3.14 -0.69,0 -2.94,0.16 -3.79,2.1 0.8,0 1.46,0 2.14,0.61 0.5,0.43 1,1.09 1,2.03 0,1.55 -1.34,1.75 -1.84,1.75 -1.14,0 -2.8,-0.8 -2.8,-3.24 0,-2.5 2.21,-4.34 5.29,-4.34 5.14,0 10.26,4.55 11.67,10.17 z"
           style="fill:#ffffff;stroke-width:0"
           inkscape:connector-curvature="0" /><path
           id="path3427"
           d="m 529.83,422.5 0.14,0 0.15,0 0.14,0 0.07,0.01 0.08,0 0.07,0.01 0.07,0.01 0.07,0.01 0.07,0.01 0.07,0.01 0.06,0.02 0.07,0.02 0.06,0.02 0.06,0.02 0.06,0.03 0.06,0.03 0.05,0.04 0.05,0.03 0.05,0.05 0.04,0.04 0.04,0.05 0.02,0.03 0.02,0.03 0.01,0.02 0.02,0.03 0.01,0.03 0.01,0.04 0.02,0.03 0.01,0.04 0.01,0.03 0.01,0.04 0,0.04 0.01,0.04 0,0.04 0.01,0.04 0,0.04 0,0.05 c 0,1 -0.95,1 -1.64,1 h -29.84 c -0.71,0 -1.65,0 -1.65,-1 0,-0.98 0.94,-0.98 1.69,-0.98 z"
           style="fill:#ffffff;stroke-width:0"
           inkscape:connector-curvature="0" /><path
           id="path3429"
           d="m 529.88,412.82 0.06,0 0.07,0 0.14,0.01 0.14,0 0.07,0 0.07,0.01 0.06,0.01 0.07,0 0.07,0.01 0.07,0.02 0.07,0.01 0.06,0.02 0.07,0.02 0.06,0.02 0.06,0.02 0.05,0.03 0.06,0.03 0.05,0.04 0.05,0.04 0.05,0.04 0.04,0.05 0.02,0.02 0.02,0.03 0.02,0.02 0.02,0.03 0.01,0.03 0.02,0.03 0.01,0.03 0.01,0.03 0.02,0.04 0.01,0.03 0.01,0.04 0.01,0.04 0,0.04 0.01,0.04 0,0.04 0.01,0.04 0,0.05 0,0.04 c 0,1 -0.95,1 -1.69,1 h -29.75 c -0.75,0 -1.69,0 -1.69,-1 0,-1 0.94,-1 1.65,-1 z"
           style="fill:#ffffff;stroke-width:0"
           inkscape:connector-curvature="0" /><path
           id="path3431"
           d="m 566.44,426.12 h 4.28 c 1,0 1.5,0 1.5,1 0,0.55 -0.5,0.55 -1.34,0.55 h -4.15 l 1.05,5.69 c 0.2,1.04 0.91,4.57 1.2,5.17 0.46,0.95 1.3,1.7 2.35,1.7 0.19,0 1.48,0 2.44,-0.91 -2.19,-0.18 -2.69,-1.93 -2.69,-2.68 0,-1.14 0.89,-1.74 1.84,-1.74 1.3,0 2.74,1.1 2.74,2.99 0,2.29 -2.3,3.43 -4.33,3.43 -1.71,0 -4.85,-0.89 -6.33,-5.82 -0.3,-1.05 -0.45,-1.55 -1.64,-7.83 h -3.44 c -0.95,0 -1.5,0 -1.5,-0.94 0,-0.61 0.46,-0.61 1.39,-0.61 h 3.3 l -3.75,-19.67 c -0.89,-4.83 -1.74,-9.38 -4.33,-9.38 -0.2,0 -1.44,0 -2.39,0.91 2.3,0.14 2.74,1.94 2.74,2.69 0,1.14 -0.9,1.75 -1.85,1.75 -1.3,0 -2.73,-1.1 -2.73,-3 0,-2.24 2.18,-3.44 4.23,-3.44 2.74,0 4.74,2.94 5.63,4.84 1.59,3.14 2.75,9.16 2.79,9.52 z"
           style="fill:#ffffff;stroke-width:0"
           inkscape:connector-curvature="0" /><path
           id="path3433"
           d="m 594.4,394.25 0,0.02 0,0.03 -0.01,0.01 0,0.02 0,0.01 -0.01,0.02 0,0.01 -0.01,0.02 -0.01,0.02 -0.01,0.02 -0.01,0.02 -0.01,0.03 -0.02,0.02 -0.02,0.03 -0.02,0.03 -0.02,0.03 -0.03,0.03 -0.03,0.04 -0.01,0.02 -0.02,0.02 -0.02,0.02 -0.02,0.02 -0.02,0.02 -0.02,0.03 -0.02,0.02 -0.02,0.02 -0.02,0.03 -0.02,0.02 -0.03,0.03 -0.02,0.03 -0.03,0.03 -0.03,0.03 -0.03,0.03 -0.03,0.03 -0.03,0.03 -0.03,0.03 -0.03,0.04 -0.04,0.03 -0.03,0.04 -0.04,0.03 -0.04,0.04 -0.04,0.04 c -6.21,6.28 -7.81,15.69 -7.81,23.31 0,8.67 1.89,17.35 8.02,23.56 0.64,0.61 0.64,0.71 0.64,0.86 0,0.35 -0.19,0.49 -0.49,0.49 -0.5,0 -4.98,-3.38 -7.92,-9.7 -2.54,-5.49 -3.14,-11.02 -3.14,-15.21 0,-3.89 0.55,-9.9 3.28,-15.54 2.99,-6.13 7.28,-9.36 7.78,-9.36 0.3,0 0.49,0.14 0.49,0.5 z"
           style="fill:#ffffff;stroke-width:0"
           inkscape:connector-curvature="0" /><path
           id="path3435"
           d="m 613.87,421.25 0.03,0.13 0.04,0.15 0.04,0.16 0.04,0.18 0.06,0.19 0.06,0.21 0.06,0.22 0.08,0.22 0.08,0.23 0.08,0.24 0.1,0.25 0.1,0.24 0.11,0.25 0.12,0.25 0.13,0.25 0.14,0.25 0.15,0.24 0.15,0.24 0.17,0.23 0.18,0.22 0.18,0.22 0.2,0.2 0.21,0.19 0.22,0.18 0.23,0.16 0.25,0.14 0.13,0.07 0.13,0.06 0.13,0.05 0.13,0.05 0.14,0.05 0.15,0.04 0.14,0.03 0.15,0.03 0.15,0.02 0.16,0.02 0.16,0.01 0.16,0 c 0.25,0 1.44,0 2.48,-0.64 -1.39,-0.25 -2.39,-1.5 -2.39,-2.69 0,-0.79 0.55,-1.75 1.89,-1.75 1.1,0 2.69,0.89 2.69,2.89 0,2.6 -2.94,3.28 -4.63,3.28 -2.88,0 -4.63,-2.64 -5.23,-3.78 -1.25,3.28 -3.94,3.78 -5.37,3.78 -5.19,0 -8.03,-6.42 -8.03,-7.67 0,-0.5 0.5,-0.5 0.6,-0.5 0.4,0 0.55,0.11 0.65,0.55 1.68,5.28 4.98,6.53 6.67,6.53 0.95,0 2.68,-0.44 2.68,-3.33 0,-1.54 -0.84,-4.89 -2.68,-11.86 -0.8,-3.09 -2.54,-5.18 -4.74,-5.18 -0.3,0 -1.43,0 -2.48,0.65 1.25,0.24 2.34,1.28 2.34,2.69 0,1.34 -1.09,1.73 -1.84,1.73 -1.5,0 -2.75,-1.29 -2.75,-2.89 0,-2.28 2.5,-3.28 4.68,-3.28 3.3,0 5.08,3.49 5.24,3.78 0.59,-1.84 2.39,-3.78 5.38,-3.78 5.13,0 7.98,6.42 7.98,7.67 0,0.5 -0.45,0.5 -0.61,0.5 -0.44,0 -0.55,-0.2 -0.64,-0.54 -1.64,-5.33 -5.03,-6.53 -6.63,-6.53 -1.95,0 -2.75,1.59 -2.75,3.29 0,1.1 0.3,2.19 0.86,4.38 z"
           style="fill:#ffffff;stroke-width:0"
           inkscape:connector-curvature="0" /><path
           id="path3437"
           d="m 640.06,418.65 0,0.37 -0.01,0.39 -0.01,0.39 -0.01,0.41 -0.04,0.84 -0.06,0.88 -0.08,0.92 -0.11,0.95 -0.13,0.97 -0.17,1.01 -0.19,1.02 -0.23,1.03 -0.27,1.05 -0.31,1.06 -0.34,1.07 -0.4,1.07 -0.21,0.53 -0.23,0.53 -0.23,0.53 -0.25,0.53 c -2.99,6.12 -7.27,9.36 -7.77,9.36 -0.29,0 -0.5,-0.19 -0.5,-0.49 0,-0.15 0,-0.25 0.94,-1.15 4.89,-4.92 7.73,-12.85 7.73,-23.27 0,-8.51 -1.84,-17.28 -8.03,-23.56 -0.64,-0.59 -0.64,-0.7 -0.64,-0.84 0,-0.3 0.21,-0.5 0.5,-0.5 0.5,0 4.97,3.39 7.92,9.71 2.54,5.47 3.13,11 3.13,15.19 z"
           style="fill:#ffffff;stroke-width:0"
           inkscape:connector-curvature="0" /></g>    </g>
    <g
       id="g3623"
       style="fill:#ffffff"
       transform="matrix(0.55904337,0,0,0.55904337,29.55879,260.92842)">
      <g
         id="g3625"
         transform="matrix(1.0629921,0,0,-1.0629921,-186.02362,789.27165)"
         xml:space="preserve"
         stroke-miterlimit="10.433"
         font-style="normal"
         font-variant="normal"
         font-weight="normal"
         font-stretch="normal"
         font-size-adjust="none"
         letter-spacing="normal"
         word-spacing="normal"
         style="font-style:normal;font-variant:normal;font-weight:normal;font-stretch:normal;letter-spacing:normal;word-spacing:normal;text-anchor:start;fill:#ffffff;fill-opacity:1;fill-rule:evenodd;stroke:#000000;stroke-linecap:butt;stroke-linejoin:miter;stroke-miterlimit:10.43299961;stroke-opacity:1;stroke-dasharray:none;stroke-dashoffset:0"><path
           d="m 488.35,417.65 0.16,0 0.16,0 0.15,0.01 0.08,0 0.08,0.01 0.07,0 0.08,0.01 0.07,0.01 0.07,0.01 0.07,0.02 0.07,0.02 0.07,0.02 0.06,0.02 0.06,0.02 0.06,0.03 0.05,0.03 0.06,0.04 0.05,0.03 0.04,0.05 0.04,0.04 0.04,0.05 0.02,0.03 0.02,0.03 0.01,0.03 0.02,0.03 0.01,0.03 0.02,0.03 0.01,0.04 0.01,0.03 0.01,0.04 0,0.04 0.01,0.04 0.01,0.04 0,0.04 0.01,0.04 0,0.05 0,0.04 c 0,1 -0.91,1 -1.75,1 h -26.96 c -0.84,0 -1.73,0 -1.73,-1 0,-1 0.89,-1 1.73,-1 z"
           id="path3627"
           style="fill:#ffffff;stroke-width:0"
           inkscape:connector-curvature="0" /><path
           d="m 507.48,424.78 h 5.62 c -1.64,-7.38 -2.09,-9.52 -2.09,-12.85 0,-0.75 0,-2.09 0.41,-3.79 0.5,-2.19 1.05,-2.49 1.8,-2.49 0.98,0 2.03,0.89 2.03,1.89 0,0.3 0,0.41 -0.3,1.1 -1.44,3.59 -1.44,6.82 -1.44,8.22 0,2.64 0.34,5.34 0.89,7.92 h 5.69 c 0.64,0 2.44,0 2.44,1.7 0,1.19 -1.05,1.19 -2,1.19 h -16.69 c -1.09,0 -2.98,0 -5.17,-2.35 -1.75,-1.93 -3.05,-4.23 -3.05,-4.48 0,-0.05 0,-0.48 0.59,-0.48 0.41,0 0.5,0.18 0.8,0.59 2.45,3.83 5.35,3.83 6.33,3.83 h 2.84 c -1.59,-6.02 -4.28,-12.05 -6.37,-16.58 -0.41,-0.75 -0.41,-0.86 -0.41,-1.2 0,-0.96 0.8,-1.35 1.46,-1.35 1.5,0 1.89,1.39 2.48,3.24 0.7,2.29 0.7,2.39 1.34,4.89 z"
           id="path3629"
           style="fill:#ffffff;stroke-width:0"
           inkscape:connector-curvature="0" /></g>    </g>
    <g
       id="g3823"
       style="fill:#ffffff"
       transform="matrix(0.55904337,0,0,0.55904337,286.67054,261.62903)">
      <g
         word-spacing="normal"
         letter-spacing="normal"
         font-size-adjust="none"
         font-stretch="normal"
         font-weight="normal"
         font-variant="normal"
         font-style="normal"
         stroke-miterlimit="10.433"
         xml:space="preserve"
         transform="matrix(1.0629921,0,0,-1.0629921,-186.02362,789.27165)"
         id="g3825"
         style="font-style:normal;font-variant:normal;font-weight:normal;font-stretch:normal;letter-spacing:normal;word-spacing:normal;text-anchor:start;fill:#ffffff;fill-opacity:1;fill-rule:evenodd;stroke:#000000;stroke-linecap:butt;stroke-linejoin:miter;stroke-miterlimit:10.43299961;stroke-opacity:1;stroke-dasharray:none;stroke-dashoffset:0"><path
           id="path3827"
           d="m 468.72,424.78 h 5.63 c -1.64,-7.38 -2.1,-9.52 -2.1,-12.85 0,-0.75 0,-2.09 0.41,-3.79 0.5,-2.19 1.05,-2.49 1.8,-2.49 0.98,0 2.03,0.89 2.03,1.89 0,0.3 0,0.41 -0.3,1.1 -1.44,3.59 -1.44,6.82 -1.44,8.22 0,2.64 0.35,5.34 0.89,7.92 h 5.69 c 0.64,0 2.44,0 2.44,1.7 0,1.19 -1.05,1.19 -2,1.19 h -16.69 c -1.09,0 -2.98,0 -5.17,-2.35 -1.75,-1.93 -3.05,-4.23 -3.05,-4.48 0,-0.05 0,-0.48 0.6,-0.48 0.4,0 0.5,0.18 0.79,0.59 2.46,3.83 5.35,3.83 6.33,3.83 h 2.85 c -1.6,-6.02 -4.29,-12.05 -6.38,-16.58 -0.41,-0.75 -0.41,-0.86 -0.41,-1.2 0,-0.96 0.8,-1.35 1.46,-1.35 1.5,0 1.89,1.39 2.48,3.24 0.71,2.29 0.71,2.39 1.35,4.89 z"
           style="fill:#ffffff;stroke-width:0"
           inkscape:connector-curvature="0" /></g>    </g>
  </g>
</svg>
