<?xml version="1.0" encoding="UTF-8" standalone="no"?>
<!-- Created with Inkscape (http://www.inkscape.org/) -->

<svg
   xmlns:dc="http://purl.org/dc/elements/1.1/"
   xmlns:cc="http://creativecommons.org/ns#"
   xmlns:rdf="http://www.w3.org/1999/02/22-rdf-syntax-ns#"
   xmlns:svg="http://www.w3.org/2000/svg"
   xmlns="http://www.w3.org/2000/svg"
   xmlns:xlink="http://www.w3.org/1999/xlink"
   xmlns:sodipodi="http://sodipodi.sourceforge.net/DTD/sodipodi-0.dtd"
   xmlns:inkscape="http://www.inkscape.org/namespaces/inkscape"
   width="210mm"
   height="297mm"
   id="svg3242"
   version="1.1"
   inkscape:version="0.48.3.1 r9886"
   sodipodi:docname="新規ドキュメント 2">
  <sodipodi:namedview
     id="base"
     pagecolor="#000000"
     bordercolor="#666666"
     borderopacity="1.0"
     inkscape:pageopacity="0"
     inkscape:pageshadow="2"
     inkscape:zoom="0.98994949"
     inkscape:cx="399.10742"
     inkscape:cy="586.7431"
     inkscape:document-units="px"
     inkscape:current-layer="layer1"
     showgrid="false"
     inkscape:window-width="1366"
     inkscape:window-height="746"
     inkscape:window-x="0"
     inkscape:window-y="22"
     inkscape:window-maximized="0" />
  <defs
     id="defs3244">
    <defs
       id="defs11">
      <circle
         style="stroke-width:0.5"
         sodipodi:ry="0.5"
         sodipodi:rx="0.5"
         sodipodi:cy="0"
         sodipodi:cx="0"
         cy="0"
         cx="0"
         id="gpDot"
         r="0.5" />
      <path
         style="stroke:currentColor;stroke-width:0.222"
         inkscape:connector-curvature="0"
         id="gpPt0"
         d="M -1,0 H 1 M 0,-1 v 2" />
      <path
         style="stroke:currentColor;stroke-width:0.222"
         inkscape:connector-curvature="0"
         id="gpPt1"
         d="M -1,-1 1,1 M 1,-1 -1,1" />
      <path
         style="stroke:currentColor;stroke-width:0.222"
         inkscape:connector-curvature="0"
         id="gpPt2"
         d="M -1,0 1,0 M 0,-1 0,1 m -1,-2 2,2 m -2,0 2,-2" />
      <rect
         style="stroke:currentColor;stroke-width:0.222"
         id="gpPt3"
         x="-1"
         y="-1"
         width="2"
         height="2" />
      <rect
         style="fill:currentColor;stroke:currentColor;stroke-width:0.222"
         id="gpPt4"
         x="-1"
         y="-1"
         width="2"
         height="2" />
      <circle
         style="stroke:currentColor;stroke-width:0.222"
         sodipodi:ry="1"
         sodipodi:rx="1"
         sodipodi:cy="0"
         sodipodi:cx="0"
         id="gpPt5"
         cx="0"
         cy="0"
         r="1" />
      <use
         height="1052.3622"
         width="744.09448"
         y="0"
         x="0"
         style="fill:currentColor;stroke:none"
         xlink:href="#gpPt5"
         id="gpPt6" />
      <path
         style="stroke:currentColor;stroke-width:0.222"
         inkscape:connector-curvature="0"
         id="gpPt7"
         d="m 0,-1.33 -1.33,2 2.66,0 z" />
      <use
         height="1052.3622"
         width="744.09448"
         y="0"
         x="0"
         style="fill:currentColor;stroke:none"
         xlink:href="#gpPt7"
         id="gpPt8" />
      <use
         height="1052.3622"
         width="744.09448"
         y="0"
         x="0"
         style="stroke:currentColor"
         xlink:href="#gpPt7"
         id="gpPt9"
         transform="scale(-1,-1)" />
      <use
         height="1052.3622"
         width="744.09448"
         y="0"
         x="0"
         style="fill:currentColor;stroke:none"
         xlink:href="#gpPt9"
         id="gpPt10" />
      <use
         height="1052.3622"
         width="744.09448"
         y="0"
         x="0"
         style="stroke:currentColor"
         xlink:href="#gpPt3"
         id="gpPt11"
         transform="matrix(0.70710678,0.70710678,-0.70710678,0.70710678,0,0)" />
      <use
         height="1052.3622"
         width="744.09448"
         y="0"
         x="0"
         style="fill:currentColor;stroke:none"
         xlink:href="#gpPt11"
         id="gpPt12" />
    </defs>
  </defs>
  <metadata
     id="metadata3247">
    <rdf:RDF>
      <cc:Work
         rdf:about="">
        <dc:format>image/svg+xml</dc:format>
        <dc:type
           rdf:resource="http://purl.org/dc/dcmitype/StillImage" />
        <dc:title></dc:title>
      </cc:Work>
    </rdf:RDF>
  </metadata>
  <g
     id="layer1"
     inkscape:groupmode="layer"
     inkscape:label="レイヤー 1">
    <rect
       style="fill:none"
       x="95.994225"
       y="246.95969"
       width="600"
       height="480"
       id="rect9" />
    <g
       transform="translate(95.994228,246.95969)"
       style="color:#ffffff;fill:none;stroke:currentColor;stroke-width:1;stroke-linecap:butt;stroke-linejoin:miter"
       id="g27" />
    <g
       transform="translate(95.994228,246.95969)"
       style="color:#000000;fill:none;stroke:#ffffff;stroke-width:1;stroke-linecap:butt;stroke-linejoin:miter"
       id="g29">
      <path
         style="stroke:#ffffff"
         inkscape:connector-curvature="0"
         d="m 37.3,422.4 9,0 m 528.7,0 -9,0 h 0.01"
         id="path31" />
      <g
         transform="translate(29,426.9)"
         style="font-size:15px;text-anchor:end;fill:#000000;stroke:#ffffff;font-family:Arial"
         id="g33">
        <text
           style="stroke:#ffffff"
           id="text35">-4</text>
      </g>
      <path
         style="stroke:#ffffff"
         inkscape:connector-curvature="0"
         d="m 37.3,371.7 9,0 m 528.7,0 -9,0 h 0.01"
         id="path37" />
      <g
         transform="translate(29,376.2)"
         style="font-size:15px;text-anchor:end;fill:#000000;stroke:#ffffff;font-family:Arial"
         id="g39">
        <text
           style="stroke:#ffffff"
           id="text41">-3</text>
      </g>
      <path
         style="stroke:#ffffff"
         inkscape:connector-curvature="0"
         d="m 37.3,321 9,0 m 528.7,0 -9,0 h 0.01"
         id="path43" />
      <g
         transform="translate(29,325.5)"
         style="font-size:15px;text-anchor:end;fill:#000000;stroke:#ffffff;font-family:Arial"
         id="g45">
        <text
           style="stroke:#ffffff"
           id="text47">-2</text>
      </g>
      <path
         style="stroke:#ffffff"
         inkscape:connector-curvature="0"
         d="m 37.3,270.3 9,0 m 528.7,0 -9,0 h 0.01"
         id="path49" />
      <g
         transform="translate(29,274.8)"
         style="font-size:15px;text-anchor:end;fill:#000000;stroke:#ffffff;font-family:Arial"
         id="g51">
        <text
           style="stroke:#ffffff"
           id="text53">-1</text>
      </g>
      <path
         style="stroke:#ffffff"
         inkscape:connector-curvature="0"
         d="m 37.3,219.5 9,0 m 528.7,0 -9,0 h 0.01"
         id="path55" />
      <g
         transform="translate(29,224)"
         style="font-size:15px;text-anchor:end;fill:#000000;stroke:#ffffff;font-family:Arial"
         id="g57">
        <text
           style="stroke:#ffffff"
           id="text59">0</text>
      </g>
      <path
         style="stroke:#ffffff"
         inkscape:connector-curvature="0"
         d="m 37.3,168.8 9,0 m 528.7,0 -9,0 h 0.01"
         id="path61" />
      <g
         transform="translate(29,173.3)"
         style="font-size:15px;text-anchor:end;fill:#000000;stroke:#ffffff;font-family:Arial"
         id="g63">
        <text
           style="stroke:#ffffff"
           id="text65">1</text>
      </g>
      <path
         style="stroke:#ffffff"
         inkscape:connector-curvature="0"
         d="m 37.3,118.1 9,0 m 528.7,0 -9,0 h 0.01"
         id="path67" />
      <g
         transform="translate(29,122.6)"
         style="font-size:15px;text-anchor:end;fill:#000000;stroke:#ffffff;font-family:Arial"
         id="g69">
        <text
           style="stroke:#ffffff"
           id="text71">2</text>
      </g>
      <path
         style="stroke:#ffffff"
         inkscape:connector-curvature="0"
         d="m 37.3,67.4 9,0 m 528.7,0 -9,0 h 0.01"
         id="path73" />
      <g
         transform="translate(29,71.9)"
         style="font-size:15px;text-anchor:end;fill:#000000;stroke:#ffffff;font-family:Arial"
         id="g75">
        <text
           style="stroke:#ffffff"
           id="text77">3</text>
      </g>
      <path
         style="stroke:#ffffff"
         inkscape:connector-curvature="0"
         d="m 37.3,16.7 9,0 m 528.7,0 -9,0 h 0.01"
         id="path79" />
      <g
         transform="translate(29,21.2)"
         style="font-size:15px;text-anchor:end;fill:#000000;stroke:#ffffff;font-family:Arial"
         id="g81">
        <text
           style="stroke:#ffffff"
           id="text83">4</text>
      </g>
      <path
         style="stroke:#ffffff"
         inkscape:connector-curvature="0"
         d="m 49.4,422.4 0,-9 m 0,-396.7 0,9 h 0.01"
         id="path85" />
      <g
         transform="translate(49.4,444.9)"
         style="font-size:15px;text-anchor:middle;fill:#000000;stroke:#ffffff;font-family:Arial"
         id="g87">
        <text
           style="stroke:#ffffff"
           id="text89">-6</text>
      </g>
      <path
         style="stroke:#ffffff"
         inkscape:connector-curvature="0"
         d="m 135,422.4 0,-9 m 0,-396.7 0,9 h 0.01"
         id="path91" />
      <g
         transform="translate(135,444.9)"
         style="font-size:15px;text-anchor:middle;fill:#000000;stroke:#ffffff;font-family:Arial"
         id="g93">
        <text
           style="stroke:#ffffff"
           id="text95">-4</text>
      </g>
      <path
         style="stroke:#ffffff"
         inkscape:connector-curvature="0"
         d="m 220.6,422.4 0,-9 m 0,-396.7 0,9 h 0.01"
         id="path97" />
      <g
         transform="translate(220.6,444.9)"
         style="font-size:15px;text-anchor:middle;fill:#000000;stroke:#ffffff;font-family:Arial"
         id="g99">
        <text
           style="stroke:#ffffff"
           id="text101">-2</text>
      </g>
      <path
         style="stroke:#ffffff"
         inkscape:connector-curvature="0"
         d="m 306.2,422.4 0,-9 m 0,-396.7 0,9 h 0.01"
         id="path103" />
      <g
         transform="translate(306.2,444.9)"
         style="font-size:15px;text-anchor:middle;fill:#000000;stroke:#ffffff;font-family:Arial"
         id="g105">
        <text
           style="stroke:#ffffff"
           id="text107">0</text>
      </g>
      <path
         style="stroke:#ffffff"
         inkscape:connector-curvature="0"
         d="m 391.7,422.4 0,-9 m 0,-396.7 0,9 h 0.01"
         id="path109" />
      <g
         transform="translate(391.7,444.9)"
         style="font-size:15px;text-anchor:middle;fill:#000000;stroke:#ffffff;font-family:Arial"
         id="g111">
        <text
           style="stroke:#ffffff"
           id="text113">2</text>
      </g>
      <path
         style="stroke:#ffffff"
         inkscape:connector-curvature="0"
         d="m 477.3,422.4 0,-9 m 0,-396.7 0,9 h 0.01"
         id="path115" />
      <g
         transform="translate(477.3,444.9)"
         style="font-size:15px;text-anchor:middle;fill:#000000;stroke:#ffffff;font-family:Arial"
         id="g117">
        <text
           style="stroke:#ffffff"
           id="text119">4</text>
      </g>
      <path
         style="stroke:#ffffff"
         inkscape:connector-curvature="0"
         d="m 562.9,422.4 0,-9 m 0,-396.7 0,9 h 0.01"
         id="path121" />
      <g
         transform="translate(562.9,444.9)"
         style="font-size:15px;text-anchor:middle;fill:#000000;stroke:#ffffff;font-family:Arial"
         id="g123">
        <text
           style="stroke:#ffffff"
           id="text125">6</text>
      </g>
    </g>
    <g
       transform="translate(95.994228,246.95969)"
       style="color:#808080;fill:none;stroke:#ffffff;stroke-width:1;stroke-linecap:butt;stroke-linejoin:miter"
       id="g127">
      <path
         style="stroke:#ffffff"
         inkscape:connector-curvature="0"
         d="m 37.3,219.5 537.7,0 m -268.8,202.9 0,-405.7 h 0.01"
         id="path129" />
    </g>
    <g
       transform="translate(95.994228,246.95969)"
       style="color:#000000;fill:none;stroke:currentColor;stroke-width:1;stroke-linecap:butt;stroke-linejoin:miter"
       id="g131">
      <path
         inkscape:connector-curvature="0"
         d="m 37.3,16.7 0,405.7 537.7,0 0,-405.7 -537.7,0 z m 0,0 h 0.01"
         id="path133" />
      <g
         transform="translate(306.1,471.9)"
         style="font-size:15px;text-anchor:middle;fill:#000000;stroke:none;font-family:Arial"
         id="g135">
        <text
           id="text137">x</text>
      </g>
    </g>
    <g
       style="stroke:#ffc0cb;stroke-opacity:1"
       transform="translate(95.994228,246.95969)"
       id="gnuplot_plot_1">
      <title
         id="title140">gnuplot_plot_1</title>
      <g
         style="color:#0000ff;fill:none;stroke:#ffc0cb;stroke-width:1;stroke-linecap:butt;stroke-linejoin:miter;stroke-opacity:1"
         id="g142">
        <path
           style="stroke:#ffc0cb;stroke-opacity:1"
           inkscape:connector-curvature="0"
           d="m 135,422.4 4.3,-5.1 4.6,-5.5 4.6,-5.5 4.7,-5.5 4.6,-5.5 4.7,-5.4 4.6,-5.5 4.6,-5.5 4.7,-5.5 4.6,-5.5 4.6,-5.5 4.7,-5.5 4.6,-5.5 4.6,-5.5 4.7,-5.5 4.6,-5.5 4.6,-5.5 4.7,-5.5 4.6,-5.5 4.6,-5.5 4.7,-5.5 4.6,-5.4 4.7,-5.5 4.6,-5.5 4.6,-5.5 4.7,-5.5 4.6,-5.5 4.6,-5.5 4.7,-5.5 4.6,-5.5 4.6,-5.5 4.7,-5.5 4.6,-5.5 4.6,-5.5 4.7,-5.5 4.6,-5.5 4.7,-5.5 4.6,-5.4 4.6,-5.5 4.7,-5.5 4.6,-5.5 4.6,-5.5 4.7,-5.5 4.6,-5.5 4.6,-5.5 4.7,-5.5 4.6,-5.5 4.6,-5.5 4.7,-5.5 4.6,-5.5 4.6,-5.5 4.7,-5.5 4.6,-5.4 4.7,-5.5 4.6,-5.5 4.6,-5.5 4.7,-5.5 4.6,-5.5 4.6,-5.5 4.7,-5.5 4.6,-5.5 4.6,-5.5 4.7,-5.5 4.6,-5.5 4.6,-5.5 4.7,-5.5 4.6,-5.5 4.6,-5.5 4.7,-5.4 4.6,-5.5 4.7,-5.5 4.6,-5.5 4.6,-5.5 4.3,-5.1 h 0.01"
           id="path144" />
      </g>
    </g>
    <g
       style="stroke:#add8e6;stroke-opacity:1"
       transform="translate(95.994228,246.95969)"
       id="gnuplot_plot_2">
      <title
         id="title147">gnuplot_plot_2</title>
      <g
         style="color:#ff0000;fill:none;stroke:#add8e6;stroke-width:1;stroke-linecap:butt;stroke-linejoin:miter;stroke-opacity:1"
         id="g149">
        <path
           style="stroke:#add8e6;stroke-opacity:1"
           inkscape:connector-curvature="0"
           d="m 37.3,219.5 0.1,0 0.2,0 0.1,0 0.2,0 0.1,0 0.2,0 0.1,0 0.2,0 0.1,0 0.1,0 0.2,0 0.1,0 0.2,0 0.1,0 0.2,-0.1 0.1,0 0.2,0 0.1,-0.1 0.2,0 0.1,0 0.1,-0.1 0.2,0 0.1,-0.1 0.2,0 0.3,-0.2 0.3,-0.1 0.2,-0.2 0.3,-0.2 0.6,-0.4 0.6,-0.5 0.6,-0.7 0.6,-0.7 0.2,-0.4 0.3,-0.4 0.3,-0.5 0.3,-0.5 0.3,-0.4 0.3,-0.6 0.3,-0.5 0.3,-0.6 0.3,-0.5 0.3,-0.6 0.2,-0.6 0.3,-0.7 0.3,-0.6 0.3,-0.7 0.3,-0.6 0.3,-0.7 0.3,-0.7 0.3,-0.6 0.3,-0.7 0.2,-0.7 0.3,-0.7 0.3,-0.7 0.3,-0.7 0.3,-0.7 0.3,-0.6 0.3,-0.7 0.3,-0.7 0.3,-0.6 0.3,-0.7 0.2,-0.6 0.3,-0.6 0.3,-0.6 0.6,-1.1 0.6,-1 0.6,-1 0.5,-0.8 0.3,-0.4 0.3,-0.4 0.3,-0.3 0.3,-0.3 0.3,-0.3 0.3,-0.3 0.3,-0.2 0.3,-0.2 0.2,-0.2 0.3,-0.2 0.3,-0.1 0.3,-0.1 0.2,-0.1 0.1,-0.1 0.2,0 0.1,0 0.1,-0.1 0.2,0 0.1,0 0.2,-0.1 0.1,0 0.2,0 0.1,0 0.2,0 0.1,0 0.1,-0.1 0.2,0 0.1,0 0.2,0 0.1,0 0.2,0 0.1,0 0.2,0 0.1,0.1 0.1,0 0.2,0 0.1,0 0.2,0 0.1,0 0.2,0 0.1,0 0.2,0 0.1,0 0.2,0 0.1,0 0.1,0 0.2,0 0.1,0 0.2,0 0.1,0 0.2,0 0.1,0 0.2,0 0.1,-0.1 0.1,0 0.2,0 0.1,0 0.2,-0.1 0.1,0 0.2,-0.1 0.3,-0.1 0.3,-0.1 0.2,-0.2 0.3,-0.1 0.6,-0.4 0.6,-0.5 0.6,-0.6 0.5,-0.8 0.3,-0.4 0.3,-0.4 0.3,-0.4 0.3,-0.5 0.3,-0.5 0.3,-0.5 0.3,-0.6 0.3,-0.5 0.3,-0.6 0.2,-0.6 0.3,-0.7 0.3,-0.6 0.3,-0.7 0.3,-0.6 0.3,-0.7 0.3,-0.7 0.3,-0.7 0.3,-0.7 0.3,-0.8 0.2,-0.7 0.3,-0.7 0.3,-0.7 0.3,-0.7 0.3,-0.8 0.3,-0.7 0.3,-0.7 0.3,-0.7 0.3,-0.7 0.2,-0.6 0.3,-0.7 0.3,-0.6 0.3,-0.6 0.6,-1.2 0.6,-1.1 0.6,-1 0.5,-0.9 0.3,-0.4 0.3,-0.4 0.3,-0.3 0.3,-0.3 0.3,-0.3 0.3,-0.3 0.3,-0.2 0.3,-0.2 0.2,-0.2 0.3,-0.2 0.3,-0.1 0.3,-0.1 0.2,-0.1 0.1,0 0.1,0 0.2,-0.1 0.1,0 0.2,0 0.1,0 0.2,0 0.1,0 0.2,0 0.1,0 0.2,0 0.1,0 0.1,0 0.2,0 0.1,0 0.2,0.1 0.1,0 0.2,0 0.1,0.1 0.2,0 0.1,0 0.1,0.1 0.2,0 0.1,0 0.2,0.1 0.1,0 0.2,0 0.1,0.1 0.2,0 0.1,0 0.1,0.1 0.2,0 0.1,0 0.2,0.1 0.1,0 0.2,0 0.1,0 0.2,0 0.1,0.1 0.2,0 0.1,0 0.1,0 0.2,0 0.1,0 0.2,0 0.1,-0.1 0.2,0 0.1,0 0.2,0 0.1,-0.1 0.1,0 0.2,-0.1 0.1,0 0.2,-0.1 0.1,0 0.6,-0.4 0.6,-0.4 0.6,-0.6 0.5,-0.7 0.3,-0.4 0.3,-0.4 0.3,-0.5 0.3,-0.5 0.3,-0.5 0.3,-0.5 0.3,-0.6 0.3,-0.6 0.2,-0.6 0.3,-0.7 0.3,-0.7 0.3,-0.7 0.3,-0.7 0.3,-0.7 0.3,-0.8 0.3,-0.7 0.3,-0.8 0.3,-0.8 0.2,-0.8 0.3,-0.8 0.3,-0.8 0.3,-0.9 0.3,-0.8 0.3,-0.8 0.3,-0.8 0.3,-0.8 0.3,-0.7 0.3,-0.8 0.2,-0.8 0.3,-0.7 0.3,-0.7 0.3,-0.7 0.3,-0.7 0.3,-0.7 0.3,-0.6 0.3,-0.6 0.3,-0.5 0.3,-0.6 0.2,-0.5 0.3,-0.4 0.3,-0.5 0.3,-0.4 0.3,-0.3 0.3,-0.4 0.3,-0.3 0.3,-0.2 0.3,-0.2 0.2,-0.2 0.2,-0.1 0.1,-0.1 0.2,0 0.1,-0.1 0.2,0 0.1,-0.1 0.2,0 0.1,0 0.2,0 0.1,0 0.1,0 0.2,0 0.1,0 0.2,0 0.1,0.1 0.2,0 0.1,0 0.2,0.1 0.1,0 0.1,0.1 0.2,0.1 0.1,0 0.2,0.1 0.1,0.1 0.2,0.1 0.1,0.1 0.2,0 0.1,0.1 0.1,0.1 0.2,0.1 0.1,0.1 0.2,0.1 0.1,0.1 0.2,0.1 0.1,0.1 0.2,0.1 0.1,0.1 0.2,0.1 0.1,0.1 0.1,0.2 0.2,0.1 0.1,0.1 0.2,0 0.1,0.1 0.2,0.1 0.1,0.1 0.2,0.1 0.1,0.1 0.1,0.1 0.2,0 0.1,0.1 0.2,0.1 0.1,0 0.2,0.1 0.1,0 0.2,0.1 0.1,0 0.1,0 0.2,0 0.1,0 0.2,0 0.1,0 0.2,0 0.1,0 0.2,0 0.1,-0.1 0.2,0 0.1,-0.1 0.1,0 0.2,-0.1 0.1,-0.1 0.2,-0.1 0.3,-0.2 0.3,-0.3 0.2,-0.3 0.3,-0.4 0.3,-0.4 0.3,-0.4 0.3,-0.5 0.3,-0.5 0.3,-0.6 0.3,-0.6 0.3,-0.7 0.3,-0.7 0.2,-0.7 0.3,-0.8 0.3,-0.8 0.3,-0.8 0.3,-0.9 0.3,-0.9 0.3,-0.9 0.3,-1 0.3,-0.9 0.3,-1 0.2,-1 0.3,-1.1 0.3,-1 0.3,-1 0.3,-1 0.3,-1.1 0.3,-1 0.3,-1 0.3,-1 0.2,-1 0.3,-1 0.3,-0.9 0.3,-0.9 0.3,-0.9 0.3,-0.9 0.3,-0.8 0.3,-0.8 0.3,-0.7 0.3,-0.7 0.2,-0.7 0.3,-0.6 0.3,-0.6 0.6,-0.9 0.6,-0.7 0.6,-0.6 0.5,-0.2 0.2,-0.1 0.1,0 0.2,0 0.1,0 0.2,0 0.1,0.1 0.2,0 0.1,0.1 0.1,0.1 0.2,0 0.1,0.1 0.2,0.2 0.1,0.1 0.2,0.1 0.1,0.2 0.2,0.1 0.1,0.2 0.1,0.2 0.2,0.2 0.1,0.2 0.2,0.2 0.1,0.2 0.2,0.3 0.1,0.2 0.2,0.2 0.1,0.3 0.2,0.3 0.1,0.2 0.1,0.3 0.2,0.3 0.1,0.3 0.2,0.2 0.1,0.3 0.2,0.3 0.1,0.3 0.2,0.3 0.1,0.3 0.1,0.3 0.2,0.3 0.1,0.3 0.2,0.3 0.1,0.3 0.2,0.3 0.1,0.3 0.2,0.3 0.1,0.3 0.2,0.3 0.1,0.3 0.1,0.2 0.2,0.3 0.1,0.3 0.2,0.2 0.1,0.2 0.2,0.3 0.1,0.2 0.2,0.2 0.1,0.2 0.1,0.2 0.2,0.2 0.1,0.2 0.2,0.1 0.1,0.2 0.2,0.1 0.1,0.1 0.2,0.1 0.1,0.1 0.1,0 0.2,0.1 0.1,0 0.2,0 0.1,0 0.2,0 0.1,0 0.2,-0.1 0.1,-0.1 0.2,0 0.1,-0.2 0.1,-0.1 0.2,-0.2 0.1,-0.1 0.3,-0.5 0.3,-0.5 0.3,-0.5 0.3,-0.7 0.3,-0.8 0.3,-0.8 0.3,-1 0.2,-1 0.3,-1.1 0.3,-1.2 0.3,-1.2 0.3,-1.4 0.3,-1.4 0.3,-1.5 0.3,-1.6 0.3,-1.6 0.3,-1.7 0.2,-1.7 0.3,-1.8 0.3,-1.8 0.3,-1.8 0.3,-1.9 0.3,-1.9 0.3,-1.9 0.3,-2 0.3,-1.9 0.3,-1.9 0.2,-1.9 0.3,-1.8 0.3,-1.9 0.3,-1.8 0.3,-1.7 0.3,-1.6 0.3,-1.6 0.3,-1.6 0.3,-1.4 0.2,-1.3 0.3,-1.2 0.3,-1.1 0.3,-1 0.2,-0.4 0.1,-0.4 0.2,-0.4 0.1,-0.3 0.1,-0.3 0.2,-0.3 0.1,-0.2 0.2,-0.2 0.1,-0.1 0.2,-0.1 0.1,-0.1 0.2,0 0.1,0.1 0.1,0 0.2,0.2 0.1,0.2 0.3,0.5 0.3,0.7 0.3,0.8 0.3,1.2 0.3,1.3 0.3,1.5 0.3,1.7 0.3,2 0.2,2.2 0.3,2.4 0.3,2.6 0.3,2.9 0.3,3.1 0.3,3.3 0.3,3.5 0.3,3.8 0.3,3.9 0.3,4.2 0.2,4.3 0.3,4.6 0.3,4.8 0.3,5 0.3,5.1 0.3,5.3 0.3,5.5 0.3,5.7 0.3,5.8 0.2,6 0.3,6.1 0.3,6.2 0.3,6.3 0.3,6.4 0.3,6.6 0.3,6.6 0.3,6.7 0.3,6.7 0.3,6.8 0.2,6.8 0.3,6.9 0.3,6.9 0.3,6.8 0.3,6.9 0.3,6.8 0.3,6.8 0.3,6.7 0.3,6.7 0.3,6.6 0.2,6.6 0.3,6.4 0.3,6.3 0.3,6.2 0.3,6.1 0.3,6 0.3,5.8 0.3,5.7 0.3,5.5 0.3,5.3 0.2,5.1 0.3,5 0.3,4.8 0.3,4.6 0.3,4.3 0.3,4.2 0.3,3.9 0.6,7.3 0.5,6.4 0.6,5.5 0.6,4.6 0.3,2 0.3,1.7 0.3,1.5 0.3,1.3 0.1,0.6 0.1,0.6 0.2,0.4 0.1,0.4 0.2,0.4 0.1,0.3 0.2,0.3 0.1,0.2 0.2,0.2 0.1,0.2 0.1,0 0.2,0.1 0.1,0 0.2,-0.1 0.1,-0.1 0.2,-0.1 0.1,-0.2 0.2,-0.2 0.1,-0.3 0.2,-0.3 0.1,-0.3 0.1,-0.4 0.2,-0.4 0.1,-0.4 0.3,-1 0.3,-1.1 0.3,-1.2 0.3,-1.3 0.3,-1.4 0.3,-1.6 0.3,-1.6 0.2,-1.6 0.3,-1.7 0.3,-1.8 0.3,-1.9 0.3,-1.8 0.3,-1.9 0.3,-1.9 0.3,-1.9 0.3,-2 0.3,-1.9 0.2,-1.9 0.3,-1.9 0.3,-1.8 0.3,-1.8 0.3,-1.8 0.3,-1.7 0.3,-1.7 0.3,-1.6 0.3,-1.6 0.3,-1.5 0.2,-1.4 0.3,-1.4 0.3,-1.2 0.3,-1.2 0.3,-1.1 0.3,-1 0.3,-1 0.3,-0.8 0.3,-0.8 0.3,-0.7 0.2,-0.5 0.3,-0.5 0.3,-0.5 0.2,-0.1 0.1,-0.2 0.2,-0.1 0.1,-0.2 0.1,0 0.2,-0.1 0.1,-0.1 0.2,0 0.1,0 0.2,0 0.1,0 0.2,0 0.1,0.1 0.1,0 0.2,0.1 0.1,0.1 0.2,0.1 0.1,0.1 0.2,0.2 0.1,0.1 0.2,0.2 0.1,0.2 0.2,0.2 0.1,0.2 0.1,0.2 0.2,0.2 0.1,0.3 0.2,0.2 0.1,0.2 0.2,0.3 0.1,0.3 0.2,0.2 0.1,0.3 0.1,0.3 0.2,0.3 0.1,0.3 0.2,0.3 0.1,0.3 0.2,0.3 0.1,0.3 0.2,0.3 0.1,0.3 0.1,0.3 0.2,0.3 0.1,0.3 0.2,0.3 0.1,0.3 0.2,0.3 0.1,0.2 0.2,0.3 0.1,0.3 0.2,0.3 0.1,0.2 0.1,0.3 0.2,0.3 0.1,0.2 0.2,0.2 0.1,0.3 0.2,0.2 0.1,0.2 0.2,0.2 0.1,0.2 0.1,0.2 0.2,0.2 0.1,0.1 0.2,0.2 0.1,0.1 0.2,0.1 0.1,0.2 0.2,0.1 0.1,0 0.1,0.1 0.2,0.1 0.1,0 0.2,0.1 0.1,0 0.2,0 0.1,0 0.2,0 0.1,-0.1 0.3,-0.1 0.3,-0.1 0.3,-0.3 0.3,-0.3 0.3,-0.3 0.2,-0.4 0.3,-0.4 0.3,-0.5 0.3,-0.6 0.3,-0.6 0.3,-0.7 0.3,-0.7 0.3,-0.7 0.3,-0.8 0.3,-0.8 0.2,-0.9 0.3,-0.9 0.3,-0.9 0.3,-0.9 0.3,-1 0.3,-1 0.3,-1 0.3,-1 0.3,-1 0.3,-1.1 0.2,-1 0.3,-1 0.3,-1 0.3,-1.1 0.3,-1 0.3,-1 0.3,-0.9 0.3,-1 0.3,-0.9 0.2,-0.9 0.3,-0.9 0.3,-0.8 0.3,-0.8 0.3,-0.8 0.3,-0.7 0.6,-1.4 0.6,-1.2 0.5,-1 0.6,-0.8 0.3,-0.4 0.3,-0.3 0.3,-0.3 0.3,-0.2 0.1,-0.1 0.2,-0.1 0.1,-0.1 0.2,0 0.1,-0.1 0.1,0 0.2,-0.1 0.1,0 0.2,0 0.1,0 0.2,0 0.1,0 0.2,0 0.1,0 0.1,0 0.2,0 0.1,0.1 0.2,0 0.1,0.1 0.2,0 0.1,0.1 0.2,0.1 0.1,0 0.1,0.1 0.2,0.1 0.1,0.1 0.2,0.1 0.1,0.1 0.2,0.1 0.1,0 0.2,0.1 0.1,0.1 0.2,0.2 0.1,0.1 0.1,0.1 0.2,0.1 0.1,0.1 0.2,0.1 0.1,0.1 0.2,0.1 0.1,0.1 0.2,0.1 0.1,0.1 0.1,0.1 0.2,0.1 0.1,0 0.2,0.1 0.1,0.1 0.2,0.1 0.1,0.1 0.2,0 0.1,0.1 0.1,0.1 0.2,0 0.1,0.1 0.2,0 0.1,0 0.2,0.1 0.1,0 0.2,0 0.1,0 0.2,0 0.1,0 0.1,0 0.2,0 0.1,0 0.2,-0.1 0.1,0 0.2,-0.1 0.1,0 0.2,-0.1 0.1,-0.1 0.3,-0.2 0.3,-0.2 0.3,-0.2 0.3,-0.3 0.3,-0.4 0.2,-0.3 0.3,-0.4 0.3,-0.5 0.3,-0.4 0.3,-0.5 0.3,-0.6 0.3,-0.5 0.3,-0.6 0.3,-0.6 0.2,-0.7 0.3,-0.7 0.3,-0.7 0.3,-0.7 0.3,-0.7 0.3,-0.8 0.3,-0.8 0.3,-0.7 0.3,-0.8 0.3,-0.8 0.2,-0.8 0.3,-0.8 0.3,-0.9 0.3,-0.8 0.3,-0.8 0.3,-0.8 0.3,-0.8 0.3,-0.8 0.3,-0.7 0.3,-0.8 0.2,-0.7 0.3,-0.7 0.3,-0.7 0.3,-0.7 0.3,-0.7 0.3,-0.6 0.6,-1.2 0.5,-1 0.6,-1 0.6,-0.8 0.3,-0.4 0.3,-0.3 0.3,-0.3 0.3,-0.3 0.3,-0.2 0.2,-0.2 0.3,-0.2 0.3,-0.2 0.2,0 0.1,-0.1 0.2,0 0.1,-0.1 0.2,0 0.1,-0.1 0.1,0 0.2,0 0.1,0 0.2,-0.1 0.1,0 0.2,0 0.1,0 0.2,0 0.1,0 0.1,0 0.2,0.1 0.1,0 0.2,0 0.1,0 0.2,0 0.1,0.1 0.2,0 0.1,0 0.1,0.1 0.2,0 0.1,0 0.2,0.1 0.1,0 0.2,0 0.1,0.1 0.2,0 0.1,0 0.2,0.1 0.1,0 0.1,0 0.2,0.1 0.1,0 0.2,0 0.1,0.1 0.2,0 0.1,0 0.2,0 0.1,0 0.1,0 0.2,0 0.1,0 0.2,0 0.1,0 0.2,0 0.1,0 0.2,0 0.1,-0.1 0.1,0 0.2,0 0.1,-0.1 0.3,-0.1 0.3,-0.1 0.3,-0.2 0.3,-0.2 0.3,-0.2 0.3,-0.2 0.3,-0.3 0.3,-0.3 0.2,-0.3 0.3,-0.3 0.3,-0.4 0.3,-0.4 0.3,-0.4 0.3,-0.5 0.3,-0.5 0.3,-0.5 0.3,-0.5 0.3,-0.6 0.2,-0.6 0.3,-0.6 0.3,-0.6 0.3,-0.6 0.3,-0.7 0.3,-0.6 0.3,-0.7 0.3,-0.7 0.3,-0.7 0.2,-0.7 0.3,-0.8 0.3,-0.7 0.3,-0.7 0.3,-0.7 0.3,-0.7 0.3,-0.8 0.3,-0.7 0.3,-0.7 0.3,-0.7 0.2,-0.7 0.3,-0.6 0.3,-0.7 0.3,-0.6 0.3,-0.7 0.3,-0.6 0.3,-0.6 0.6,-1.1 0.5,-1 0.6,-0.9 0.6,-0.8 0.3,-0.4 0.3,-0.4 0.3,-0.3 0.3,-0.3 0.3,-0.2 0.2,-0.3 0.3,-0.2 0.3,-0.2 0.3,-0.1 0.3,-0.2 0.3,-0.1 0.3,-0.1 0.1,-0.1 0.2,0 0.1,-0.1 0.2,0 0.1,0 0.1,0 0.2,-0.1 0.1,0 0.2,0 0.1,0 0.2,0 0.1,0 0.2,0 0.1,0 0.2,0 0.1,0 0.1,0 0.2,0 0.1,0 0.2,0 0.1,0 0.2,0 0.1,0 0.2,0 0.1,0 0.1,0 0.2,0.1 0.1,0 0.2,0 0.1,0 0.2,0 0.1,0 0.2,0 0.1,0 0.1,-0.1 0.2,0 0.1,0 0.2,0 0.1,0 0.2,0 0.1,-0.1 0.2,0 0.1,0 0.2,-0.1 0.1,0 0.1,0 0.2,-0.1 0.1,-0.1 0.3,-0.1 0.3,-0.1 0.3,-0.2 0.3,-0.2 0.6,-0.4 0.5,-0.6 0.6,-0.6 0.6,-0.8 0.3,-0.4 0.3,-0.4 0.3,-0.5 0.3,-0.5 0.3,-0.5 0.2,-0.5 0.3,-0.6 0.3,-0.5 0.3,-0.6 0.3,-0.6 0.3,-0.6 0.3,-0.7 0.3,-0.6 0.3,-0.7 0.3,-0.7 0.2,-0.6 0.3,-0.7 0.3,-0.7 0.3,-0.7 0.3,-0.7 0.3,-0.7 0.3,-0.7 0.3,-0.6 0.3,-0.7 0.3,-0.7 0.2,-0.6 0.3,-0.7 0.3,-0.6 0.3,-0.7 0.3,-0.6 0.3,-0.6 0.3,-0.5 0.6,-1.1 0.5,-1 0.6,-1 0.6,-0.8 0.3,-0.4 0.3,-0.3 0.3,-0.4 0.3,-0.3 0.2,-0.2 0.3,-0.3 0.3,-0.2 0.3,-0.2 0.3,-0.2 0.3,-0.2 0.3,-0.1 0.3,-0.2 0.1,0 0.2,-0.1 0.1,0 0.2,-0.1 0.1,0 0.1,0 0.2,-0.1 0.1,0 0.2,0 0.1,-0.1 0.2,0 0.1,0 0.2,0 0.1,0 0.1,0 0.2,0 0.1,0 0.2,0 0.1,0 0.2,0 0.1,0 0.2,0 0.1,0 0.2,-0.1 0.1,0 0.1,0 0.2,0 0.1,0 0.2,0 0.1,0 0.2,0 0.1,0 0.2,0 0.1,0 0.1,0 0.2,0 0.1,0 0.2,0 0.1,-0.1 0.2,0 0.1,0 0.2,-0.1 0.1,0 0.1,0 0.2,-0.1 0.1,0 0.2,-0.1 0.1,0 0.3,-0.2 0.3,-0.1 0.3,-0.2 0.3,-0.2 0.6,-0.4 0.5,-0.5 0.6,-0.7 0.6,-0.7 0.3,-0.4 0.3,-0.4 0.3,-0.5 0.3,-0.5 0.3,-0.4 0.2,-0.6 0.3,-0.5 0.3,-0.6 0.3,-0.5 0.3,-0.6 0.3,-0.6 0.3,-0.7 0.3,-0.6 0.3,-0.7 0.2,-0.6 0.3,-0.7 0.3,-0.7 0.3,-0.6 0.3,-0.7 0.3,-0.7 0.3,-0.7 0.3,-0.7 0.3,-0.7 0.3,-0.7 0.2,-0.6 0.3,-0.7 0.3,-0.7 0.3,-0.6 0.3,-0.7 0.3,-0.6 0.3,-0.6 0.3,-0.6 0.6,-1.1 0.5,-1 0.6,-1 0.6,-0.8 0.3,-0.4 0.3,-0.4 0.3,-0.3 0.3,-0.3 0.2,-0.3 0.3,-0.3 0.3,-0.2 0.3,-0.2 0.3,-0.2 0.3,-0.2 0.3,-0.1 0.3,-0.1 0.1,-0.1 0.2,-0.1 0.1,0 0.1,0 0.2,-0.1 0.1,0 0.2,0 0.1,-0.1 0.2,0 0.1,0 0.2,0 0.1,0 0.2,0 0.1,-0.1 0.1,0 0.2,0 0.1,0 0.2,0 0.1,0 0.2,0 0.1,0 0.2,0.1 0.1,0 0.1,0 0.2,0 0.1,0 0.2,0 0.1,0 0.2,0 0.1,0 0.2,0 0.1,0 0.1,0 0.2,0 0.1,0 0.2,0 0.1,0 0.2,0 0.1,0 0.2,0 0.1,0 0.2,-0.1 0.1,0 0.1,0 0.2,0 0.1,-0.1 0.2,0 0.1,-0.1 0.3,-0.1 0.3,-0.1 0.3,-0.2 0.3,-0.1 0.6,-0.4 0.5,-0.5 0.6,-0.6 0.6,-0.8 0.3,-0.4 0.3,-0.4 0.3,-0.4 0.3,-0.5 0.2,-0.5 0.3,-0.5 0.3,-0.6 0.3,-0.5 0.3,-0.6 0.3,-0.6 0.3,-0.7 0.3,-0.6 0.3,-0.7 0.3,-0.6 0.2,-0.7 0.3,-0.7 0.3,-0.7 0.3,-0.7 0.3,-0.8 0.3,-0.7 0.3,-0.7 0.3,-0.7 0.3,-0.7 0.3,-0.8 0.2,-0.7 0.3,-0.7 0.3,-0.7 0.3,-0.7 0.3,-0.6 0.3,-0.7 0.3,-0.6 0.3,-0.6 0.5,-1.2 0.6,-1.1 0.6,-1 0.6,-0.9 0.3,-0.4 0.3,-0.4 0.3,-0.3 0.2,-0.3 0.3,-0.3 0.3,-0.3 0.3,-0.2 0.3,-0.2 0.3,-0.2 0.3,-0.2 0.3,-0.1 0.3,-0.1 0.1,-0.1 0.2,0 0.1,0 0.1,-0.1 0.2,0 0.1,0 0.2,0 0.1,0 0.2,0 0.1,0 0.2,0 0.1,0 0.1,0 0.2,0 0.1,0 0.2,0 0.1,0.1 0.2,0 0.1,0 0.2,0.1 0.1,0 0.1,0 0.2,0.1 0.1,0 0.2,0 0.1,0.1 0.2,0 0.1,0 0.2,0.1 0.1,0 0.2,0 0.1,0.1 0.1,0 0.2,0 0.1,0.1 0.2,0 0.1,0 0.2,0 0.1,0 0.2,0.1 0.1,0 0.1,0 0.2,0 0.1,0 0.2,0 0.1,0 0.2,-0.1 0.1,0 0.2,0 0.1,0 0.1,-0.1 0.2,0 0.1,-0.1 0.2,0 0.1,-0.1 0.2,0 0.6,-0.4 0.5,-0.4 0.6,-0.6 0.6,-0.7 0.3,-0.4 0.3,-0.4 0.3,-0.5 0.3,-0.5 0.2,-0.5 0.3,-0.5 0.3,-0.6 0.3,-0.6 0.3,-0.6 0.3,-0.7 0.3,-0.7 0.3,-0.7 0.3,-0.7 0.2,-0.7 0.3,-0.8 0.3,-0.7 0.3,-0.8 0.3,-0.8 0.3,-0.8 0.3,-0.8 0.3,-0.8 0.3,-0.9 0.3,-0.8 0.2,-0.8 0.3,-0.8 0.3,-0.8 0.3,-0.7 0.3,-0.8 0.3,-0.8 0.3,-0.7 0.3,-0.7 0.3,-0.7 0.3,-0.7 0.2,-0.7 0.3,-0.6 0.3,-0.6 0.3,-0.5 0.3,-0.6 0.3,-0.5 0.3,-0.4 0.3,-0.5 0.3,-0.4 0.2,-0.3 0.3,-0.4 0.3,-0.3 0.3,-0.2 0.3,-0.2 0.3,-0.2 0.1,-0.1 0.2,-0.1 0.1,0 0.2,-0.1 0.1,0 0.2,-0.1 0.1,0 0.2,0 0.1,0 0.1,0 0.2,0 0.1,0 0.2,0 0.1,0 0.2,0.1 0.1,0 0.2,0 0.1,0.1 0.2,0 0.1,0.1 0.1,0.1 0.2,0 0.1,0.1 0.2,0.1 0.1,0.1 0.2,0.1 0.1,0 0.2,0.1 0.1,0.1 0.1,0.1 0.2,0.1 0.1,0.1 0.2,0.1 0.1,0.1 0.2,0.1 0.1,0.1 0.2,0.1 0.1,0.1 0.1,0.1 0.2,0.2 0.1,0.1 0.2,0.1 0.1,0 0.2,0.1 0.1,0.1 0.2,0.1 0.1,0.1 0.2,0.1 0.1,0.1 0.1,0 0.2,0.1 0.1,0.1 0.2,0 0.1,0.1 0.2,0 0.1,0.1 0.2,0 0.1,0 0.1,0 0.2,0 0.1,0 0.2,0 0.1,0 0.2,0 0.1,0 0.2,-0.1 0.1,0 0.1,-0.1 0.2,0 0.1,-0.1 0.2,-0.1 0.1,-0.1 0.3,-0.2 0.3,-0.3 0.3,-0.3 0.3,-0.4 0.3,-0.4 0.3,-0.4 0.3,-0.5 0.2,-0.5 0.3,-0.6 0.3,-0.6 0.3,-0.7 0.3,-0.7 0.3,-0.7 0.3,-0.8 0.3,-0.8 0.3,-0.8 0.3,-0.9 0.2,-0.9 0.3,-0.9 0.3,-1 0.3,-0.9 0.3,-1 0.3,-1 0.3,-1.1 0.3,-1 0.3,-1 0.2,-1 0.3,-1.1 0.3,-1 0.3,-1 0.3,-1 0.3,-1 0.3,-1 0.3,-0.9 0.3,-0.9 0.3,-0.9 0.2,-0.9 0.3,-0.8 0.3,-0.8 0.3,-0.7 0.3,-0.7 0.3,-0.7 0.3,-0.6 0.3,-0.6 0.6,-0.9 0.5,-0.7 0.6,-0.6 0.6,-0.2 0.1,-0.1 0.2,0 0.1,0 0.2,0 0.1,0 0.2,0.1 0.1,0 0.2,0.1 0.1,0.1 0.1,0 0.2,0.1 0.1,0.2 0.2,0.1 0.1,0.1 0.2,0.2 0.1,0.1 0.2,0.2 0.1,0.2 0.1,0.2 0.2,0.2 0.1,0.2 0.2,0.2 0.1,0.3 0.2,0.2 0.1,0.2 0.2,0.3 0.1,0.3 0.1,0.2 0.2,0.3 0.1,0.3 0.2,0.3 0.1,0.2 0.2,0.3 0.1,0.3 0.2,0.3 0.1,0.3 0.2,0.3 0.1,0.3 0.1,0.3 0.2,0.3 0.1,0.3 0.2,0.3 0.1,0.3 0.2,0.3 0.1,0.3 0.2,0.3 0.1,0.3 0.1,0.3 0.2,0.2 0.1,0.3 0.2,0.3 0.1,0.2 0.2,0.2 0.1,0.3 0.2,0.2 0.1,0.2 0.1,0.2 0.2,0.2 0.1,0.2 0.2,0.2 0.1,0.1 0.2,0.2 0.1,0.1 0.2,0.1 0.1,0.1 0.2,0.1 0.1,0 0.1,0.1 0.2,0 0.1,0 0.2,0 0.1,0 0.2,0 0.1,-0.1 0.2,-0.1 0.1,0 0.1,-0.2 0.2,-0.1 0.1,-0.2 0.2,-0.1 0.3,-0.5 0.3,-0.5 0.2,-0.5 0.3,-0.7 0.3,-0.8 0.3,-0.8 0.3,-1 0.3,-1 0.3,-1.1 0.3,-1.2 0.3,-1.2 0.3,-1.4 0.2,-1.4 0.3,-1.5 0.3,-1.6 0.3,-1.6 0.3,-1.7 0.3,-1.7 0.3,-1.8 0.3,-1.8 0.3,-1.8 0.3,-1.9 0.2,-1.9 0.3,-1.9 0.3,-2 0.3,-1.9 0.3,-1.9 0.3,-1.9 0.3,-1.8 0.3,-1.9 0.3,-1.8 0.3,-1.7 0.2,-1.6 0.3,-1.6 0.3,-1.6 0.3,-1.4 0.3,-1.3 0.3,-1.2 0.3,-1.1 0.3,-1 0.1,-0.4 0.2,-0.4 0.1,-0.4 0.1,-0.3 0.2,-0.3 0.1,-0.3 0.2,-0.2 0.1,-0.2 0.2,-0.1 0.1,-0.1 0.2,-0.1 0.1,0 0.2,0.1 0.1,0 0.1,0.2 0.2,0.2 0.3,0.5 0.3,0.7 0.3,0.8 0.2,1.2 0.3,1.3 0.3,1.5 0.3,1.7 0.3,2 0.3,2.2 0.3,2.4 0.3,2.6 0.3,2.9 0.3,3.1 0.2,3.3 0.3,3.5 0.3,3.8 0.3,3.9 0.3,4.2 0.3,4.3 0.3,4.6 0.3,4.8 0.3,5 0.2,5.1 0.3,5.3 0.3,5.5 0.3,5.7 0.3,5.8 0.3,6 0.3,6.1 0.3,6.2 0.3,6.3 0.3,6.4 0.2,6.6 0.3,6.6 0.3,6.7 0.3,6.7 0.3,6.8 0.3,6.8 0.3,6.9 0.3,6.8 0.3,6.9 0.3,6.9 0.2,6.8 0.3,6.8 0.3,6.7 0.3,6.7 0.3,6.6 0.3,6.6 0.3,6.4 0.3,6.3 0.3,6.2 0.3,6.1 0.2,6 0.3,5.8 0.3,5.7 0.3,5.5 0.3,5.3 0.3,5.1 0.3,5 0.3,4.8 0.3,4.6 0.2,4.3 0.3,4.2 0.3,3.9 0.6,7.3 0.6,6.4 0.6,5.5 0.5,4.6 0.3,2 0.3,1.7 0.3,1.5 0.3,1.3 0.1,0.6 0.2,0.6 0.1,0.4 0.2,0.4 0.1,0.4 0.2,0.3 0.1,0.3 0.2,0.2 0.1,0.2 0.2,0.2 0.1,0 0.1,0.1 0.2,0 0.1,-0.1 0.2,-0.1 0.1,-0.1 0.2,-0.2 0.1,-0.2 0.2,-0.3 0.1,-0.3 0.1,-0.3 0.2,-0.4 0.1,-0.4 0.2,-0.4 0.3,-1 0.3,-1.1 0.3,-1.2 0.2,-1.3 0.3,-1.4 0.3,-1.6 0.3,-1.6 0.3,-1.6 0.3,-1.7 0.3,-1.8 0.3,-1.9 0.3,-1.8 0.2,-1.9 0.3,-1.9 0.3,-1.9 0.3,-2 0.3,-1.9 0.3,-1.9 0.3,-1.9 0.3,-1.8 0.3,-1.8 0.3,-1.8 0.2,-1.7 0.3,-1.7 0.3,-1.6 0.3,-1.6 0.3,-1.5 0.3,-1.4 0.3,-1.4 0.3,-1.2 0.3,-1.2 0.3,-1.1 0.2,-1 0.3,-1 0.3,-0.8 0.3,-0.8 0.3,-0.7 0.3,-0.5 0.3,-0.5 0.3,-0.5 0.1,-0.1 0.2,-0.2 0.1,-0.1 0.1,-0.2 0.2,0 0.1,-0.1 0.2,-0.1 0.1,0 0.2,0 0.1,0 0.2,0 0.1,0 0.2,0.1 0.1,0 0.1,0.1 0.2,0.1 0.1,0.1 0.2,0.1 0.1,0.2 0.2,0.1 0.1,0.2 0.2,0.2 0.1,0.2 0.1,0.2 0.2,0.2 0.1,0.2 0.2,0.3 0.1,0.2 0.2,0.2 0.1,0.3 0.2,0.3 0.1,0.2 0.1,0.3 0.2,0.3 0.1,0.3 0.2,0.3 0.1,0.3 0.2,0.3 0.1,0.3 0.2,0.3 0.1,0.3 0.2,0.3 0.1,0.3 0.1,0.3 0.2,0.3 0.1,0.3 0.2,0.3 0.1,0.3 0.2,0.2 0.1,0.3 0.2,0.3 0.1,0.3 0.1,0.2 0.2,0.3 0.1,0.3 0.2,0.2 0.1,0.2 0.2,0.3 0.1,0.2 0.2,0.2 0.1,0.2 0.2,0.2 0.1,0.2 0.1,0.2 0.2,0.1 0.1,0.2 0.2,0.1 0.1,0.1 0.2,0.2 0.1,0.1 0.2,0 0.1,0.1 0.1,0.1 0.2,0 0.1,0.1 0.2,0 0.1,0 0.2,0 0.1,0 0.2,-0.1 0.2,-0.1 0.3,-0.1 0.3,-0.3 0.3,-0.3 0.3,-0.3 0.3,-0.4 0.3,-0.4 0.3,-0.5 0.3,-0.6 0.3,-0.6 0.2,-0.7 0.3,-0.7 0.3,-0.7 0.3,-0.8 0.3,-0.8 0.3,-0.9 0.3,-0.9 0.3,-0.9 0.3,-0.9 0.3,-1 0.2,-1 0.3,-1 0.3,-1 0.3,-1 0.3,-1.1 0.3,-1 0.3,-1 0.3,-1 0.3,-1.1 0.2,-1 0.3,-1 0.3,-0.9 0.3,-1 0.3,-0.9 0.3,-0.9 0.3,-0.9 0.3,-0.8 0.3,-0.8 0.3,-0.8 0.2,-0.7 0.6,-1.4 0.6,-1.2 0.6,-1 0.6,-0.8 0.3,-0.4 0.2,-0.3 0.3,-0.3 0.3,-0.2 0.2,-0.1 0.1,-0.1 0.2,-0.1 0.1,0 0.1,-0.1 0.2,0 0.1,-0.1 0.2,0 0.1,0 0.2,0 0.1,0 0.2,0 0.1,0 0.2,0 0.1,0 0.1,0 0.2,0.1 0.1,0 0.2,0.1 0.1,0 0.2,0.1 0.1,0.1 0.2,0 0.1,0.1 0.1,0.1 0.2,0.1 0.1,0.1 0.2,0.1 0.1,0.1 0.2,0 0.1,0.1 0.2,0.1 0.1,0.2 0.1,0.1 0.2,0.1 0.1,0.1 0.2,0.1 0.1,0.1 0.2,0.1 0.1,0.1 0.2,0.1 0.1,0.1 0.2,0.1 0.1,0.1 0.1,0.1 0.2,0 0.1,0.1 0.2,0.1 0.1,0.1 0.2,0.1 0.1,0 0.2,0.1 0.1,0.1 0.1,0 0.2,0.1 0.1,0 0.2,0 0.1,0.1 0.2,0 0.1,0 0.2,0 0.1,0 0.1,0 0.2,0 0.1,0 0.2,0 0.1,-0.1 0.2,0 0.1,-0.1 0.2,0 0.1,-0.1 0.2,-0.1 0.2,-0.2 0.3,-0.2 0.3,-0.2 0.3,-0.3 0.3,-0.4 0.3,-0.3 0.3,-0.4 0.3,-0.5 0.3,-0.4 0.2,-0.5 0.3,-0.6 0.3,-0.5 0.3,-0.6 0.3,-0.6 0.3,-0.7 0.3,-0.7 0.3,-0.7 0.3,-0.7 0.3,-0.7 0.2,-0.8 0.3,-0.8 0.3,-0.7 0.3,-0.8 0.3,-0.8 0.3,-0.8 0.3,-0.8 0.3,-0.9 0.3,-0.8 0.3,-0.8 0.2,-0.8 0.3,-0.8 0.3,-0.8 0.3,-0.7 0.3,-0.8 0.3,-0.7 0.3,-0.7 0.3,-0.7 0.3,-0.7 0.3,-0.7 0.2,-0.6 0.6,-1.2 0.6,-1 0.6,-1 0.6,-0.8 0.2,-0.4 0.3,-0.3 0.3,-0.3 0.3,-0.3 0.3,-0.2 0.3,-0.2 0.3,-0.2 0.3,-0.2 0.1,0 0.2,-0.1 0.1,0 0.2,-0.1 0.1,0 0.1,-0.1 0.2,0 0.1,0 0.2,0 0.1,-0.1 0.2,0 0.1,0 0.2,0 0.1,0 0.1,0 0.2,0 0.1,0.1 0.2,0 0.1,0 0.2,0 0.1,0 0.2,0.1 0.1,0 0.2,0 0.1,0.1 0.1,0 0.2,0 0.1,0.1 0.2,0 0.1,0 0.2,0.1 0.1,0 0.2,0 0.1,0.1 0.1,0 0.2,0 0.1,0.1 0.2,0 0.1,0 0.2,0.1 0.1,0 0.2,0 0.1,0 0.1,0 0.2,0 0.1,0 0.2,0 0.1,0 0.2,0 0.1,0 0.2,0 0.1,0 0.2,-0.1 0.1,0 0.1,0 0.2,-0.1 0.3,-0.1 0.3,-0.1 0.3,-0.2 0.2,-0.2 0.3,-0.2 0.3,-0.2 0.3,-0.3 0.3,-0.3 0.3,-0.3 0.3,-0.3 0.3,-0.4 0.3,-0.4 0.3,-0.4 0.2,-0.5 0.3,-0.5 0.3,-0.5 0.3,-0.5 0.3,-0.6 0.3,-0.6 0.3,-0.6 0.3,-0.6 0.3,-0.6 0.3,-0.7 0.2,-0.6 0.3,-0.7 0.3,-0.7 0.3,-0.7 0.3,-0.7 0.3,-0.8 0.3,-0.7 0.3,-0.7 0.3,-0.7 0.2,-0.7 0.3,-0.8 0.3,-0.7 0.3,-0.7 0.3,-0.7 0.3,-0.7 0.3,-0.6 0.3,-0.7 0.3,-0.6 0.3,-0.7 0.2,-0.6 0.3,-0.6 0.6,-1.1 0.6,-1 0.6,-0.9 0.6,-0.8 0.2,-0.4 0.3,-0.4 0.3,-0.3 0.3,-0.3 0.3,-0.2 0.3,-0.3 0.3,-0.2 0.3,-0.2 0.3,-0.1 0.2,-0.2 0.3,-0.1 0.3,-0.1 0.2,-0.1 0.1,0 0.2,-0.1 0.1,0 0.2,0 0.1,0 0.1,-0.1 0.2,0 0.1,0 0.2,0 0.1,0 0.2,0 0.1,0 0.2,0 0.1,0 0.1,0 0.2,0 0.1,0 0.2,0 0.1,0 0.2,0 0.1,0 0.2,0 0.1,0 0.2,0 0.1,0 0.1,0.1 0.2,0 0.1,0 0.2,0 0.1,0 0.2,0 0.1,0 0.2,0 0.1,-0.1 0.1,0 0.2,0 0.1,0 0.2,0 0.1,0 0.2,-0.1 0.1,0 0.2,0 0.1,-0.1 0.1,0 0.2,0 0.1,-0.1 0.2,-0.1 0.3,-0.1 0.3,-0.1 0.3,-0.2 0.2,-0.2 0.6,-0.4 0.6,-0.6 0.6,-0.6 0.6,-0.8 0.2,-0.4 0.3,-0.4 0.3,-0.5 0.3,-0.5 0.3,-0.5 0.3,-0.5 0.3,-0.6 0.3,-0.5 0.3,-0.6 0.3,-0.6 0.2,-0.6 0.3,-0.7 0.3,-0.6 0.3,-0.7 0.3,-0.7 0.3,-0.6 0.3,-0.7 0.3,-0.7 0.3,-0.7 0.3,-0.7 0.2,-0.7 0.3,-0.7 0.3,-0.6 0.3,-0.7 0.3,-0.7 0.3,-0.6 0.3,-0.7 0.3,-0.6 0.3,-0.7 0.2,-0.6 0.3,-0.6 0.3,-0.5 0.6,-1.1 0.6,-1 0.6,-1 0.5,-0.8 0.3,-0.4 0.3,-0.3 0.3,-0.4 0.3,-0.3 0.3,-0.2 0.3,-0.3 0.3,-0.2 0.3,-0.2 0.3,-0.2 0.2,-0.2 0.3,-0.1 0.3,-0.2 0.2,0 0.1,-0.1 0.2,0 0.1,-0.1 0.1,0 0.2,0 0.1,-0.1 0.2,0 0.1,0 0.2,-0.1 0.1,0 0.2,0 0.1,0 0.2,0 0.1,0 0.1,0 0.2,0 0.1,0 0.2,0 0.1,0 0.2,0 0.1,0 0.2,0 0.1,-0.1 h 0.01"
           id="path151" />
      </g>
    </g>
    <g
       style="stroke:#90ee90;stroke-opacity:1"
       transform="translate(95.994228,246.95969)"
       id="gnuplot_plot_3">
      <title
         id="title154">gnuplot_plot_3</title>
      <g
         style="color:#008000;fill:none;stroke:#90ee90;stroke-width:1;stroke-linecap:butt;stroke-linejoin:miter;stroke-opacity:1"
         id="g156">
        <path
           style="stroke:#90ee90;stroke-opacity:1"
           inkscape:connector-curvature="0"
           d="m 37.3,219.6 0.1,-0.1 0.2,0 0.1,0 0.2,-0.1 0.1,-0.2 0.2,-0.2 0.1,-0.3 0.2,-0.3 0.1,-0.4 0.1,-0.3 0.2,-0.3 0.1,-0.3 0.2,-0.3 0.1,-0.2 0.2,-0.1 0.1,-0.1 0.2,0 0.1,0 0.2,0 0.1,0 0.1,-0.1 0.2,-0.1 0.1,-0.1 0.2,-0.2 0.1,-0.2 0.2,-0.3 0.1,-0.4 0.2,-0.3 0.1,-0.3 0.1,-0.4 0.2,-0.2 0.1,-0.2 0.2,-0.2 0.1,-0.1 0.2,-0.1 0.1,0 0.2,0 0.1,0 0.1,0 0.2,-0.1 0.1,-0.1 0.2,-0.2 0.1,-0.2 0.2,-0.3 0.1,-0.3 0.2,-0.3 0.1,-0.4 0.2,-0.3 0.1,-0.3 0.1,-0.2 0.2,-0.2 0.1,-0.1 0.2,-0.1 0.1,-0.1 0.2,0 0.1,0 0.2,0 0.1,0 0.1,-0.1 0.2,-0.1 0.1,-0.2 0.2,-0.3 0.1,-0.3 0.2,-0.3 0.1,-0.4 0.2,-0.3 0.1,-0.3 0.2,-0.3 0.1,-0.2 0.1,-0.2 0.2,-0.1 0.1,0 0.2,0 0.1,0 0.2,0 0.1,-0.1 0.2,0 0.1,-0.1 0.1,-0.2 0.2,-0.2 0.1,-0.3 0.2,-0.3 0.1,-0.4 0.2,-0.3 0.1,-0.3 0.2,-0.3 0.1,-0.3 0.1,-0.2 0.2,-0.1 0.1,-0.1 0.2,0 0.1,0 0.2,0 0.1,0 0.2,-0.1 0.1,0 0.2,-0.2 0.1,-0.2 0.1,-0.3 0.2,-0.3 0.1,-0.3 0.2,-0.3 0.1,-0.4 0.2,-0.3 0.1,-0.2 0.2,-0.3 0.1,-0.1 0.1,-0.1 0.2,-0.1 0.1,0 0.2,0 0.1,0 0.2,0 0.1,-0.1 0.2,-0.1 0.1,-0.2 0.1,-0.2 0.2,-0.3 0.1,-0.3 0.2,-0.3 0.1,-0.4 0.2,-0.3 0.1,-0.3 0.2,-0.2 0.1,-0.2 0.2,-0.1 0.1,-0.1 0.1,0 0.2,0 0.1,0 0.2,-0.1 0.1,0 0.2,-0.1 0.1,-0.1 0.2,-0.2 0.1,-0.3 0.1,-0.3 0.2,-0.4 0.1,-0.3 0.2,-0.3 0.1,-0.3 0.2,-0.3 0.1,-0.2 0.2,-0.2 0.1,-0.1 0.1,0 0.2,0 0.1,0 0.2,0 0.1,0 0.2,-0.1 0.1,-0.1 0.2,-0.2 0.1,-0.2 0.2,-0.3 0.1,-0.4 0.1,-0.3 0.2,-0.4 0.1,-0.3 0.2,-0.3 0.1,-0.2 0.2,-0.2 0.1,-0.1 0.2,-0.1 0.1,0 0.1,0 0.2,0 0.1,0 0.2,0 0.1,-0.1 0.2,-0.2 0.1,-0.2 0.2,-0.3 0.1,-0.3 0.1,-0.3 0.2,-0.4 0.1,-0.3 0.2,-0.3 0.1,-0.3 0.2,-0.2 0.1,-0.1 0.2,-0.1 0.1,-0.1 0.2,0 0.1,0 0.1,0 0.2,0 0.1,0 0.2,-0.2 0.1,-0.2 0.2,-0.2 0.1,-0.3 0.2,-0.3 0.1,-0.4 0.1,-0.3 0.2,-0.3 0.1,-0.3 0.2,-0.3 0.1,-0.1 0.2,-0.2 0.1,0 0.2,0 0.1,0 0.2,0 0.1,0 0.1,-0.1 0.2,-0.1 0.1,-0.1 0.2,-0.2 0.1,-0.3 0.2,-0.3 0.1,-0.4 0.2,-0.3 0.1,-0.4 0.1,-0.3 0.2,-0.2 0.1,-0.2 0.2,-0.2 0.1,-0.1 0.2,0 0.1,0 0.2,0 0.1,0 0.1,0 0.2,-0.1 0.1,-0.1 0.2,-0.2 0.1,-0.2 0.2,-0.3 0.1,-0.4 0.2,-0.3 0.1,-0.4 0.2,-0.3 0.1,-0.3 0.1,-0.2 0.2,-0.2 0.1,-0.1 0.2,-0.1 0.1,0 0.2,0 0.1,0 0.2,0 0.1,0 0.1,-0.1 0.2,-0.2 0.1,-0.2 0.2,-0.3 0.1,-0.3 0.2,-0.3 0.1,-0.4 0.2,-0.3 0.1,-0.4 0.1,-0.2 0.2,-0.2 0.1,-0.1 0.2,-0.1 0.1,0 0.2,0 0.1,0 0.2,0 0.1,0 0.2,-0.1 0.1,-0.1 0.1,-0.2 0.2,-0.3 0.1,-0.3 0.2,-0.3 0.1,-0.4 0.2,-0.4 0.1,-0.3 0.2,-0.3 0.1,-0.2 0.1,-0.2 0.2,-0.1 0.1,0 0.2,0 0.1,0 0.2,0 0.1,0 0.2,0 0.1,-0.1 0.1,-0.2 0.2,-0.2 0.1,-0.3 0.2,-0.3 0.1,-0.4 0.2,-0.4 0.1,-0.3 0.2,-0.3 0.1,-0.3 0.2,-0.2 0.1,-0.1 0.1,-0.1 0.2,0 0.1,0 0.2,0 0.1,0 0.2,0 0.1,0 0.2,-0.2 0.1,-0.2 0.1,-0.2 0.2,-0.4 0.1,-0.3 0.2,-0.4 0.1,-0.3 0.2,-0.4 0.1,-0.3 0.2,-0.2 0.1,-0.1 0.1,-0.1 0.2,-0.1 0.1,0 0.2,0.1 0.1,0 0.2,0 0.1,-0.1 0.2,-0.1 0.1,-0.1 0.2,-0.3 0.1,-0.3 0.1,-0.3 0.2,-0.4 0.1,-0.3 0.2,-0.4 0.1,-0.3 0.2,-0.3 0.1,-0.2 0.2,-0.1 0.1,0 0.1,-0.1 0.2,0.1 0.1,0 0.2,0 0.1,0 0.2,-0.1 0.1,-0.1 0.2,-0.2 0.1,-0.3 0.2,-0.3 0.1,-0.4 0.1,-0.3 0.2,-0.4 0.1,-0.3 0.2,-0.3 0.1,-0.3 0.2,-0.1 0.1,-0.1 0.2,0 0.1,0 0.1,0 0.2,0 0.1,0.1 0.2,-0.1 0.1,-0.1 0.2,-0.2 0.1,-0.2 0.2,-0.3 0.1,-0.4 0.1,-0.3 0.2,-0.4 0.1,-0.4 0.2,-0.3 0.1,-0.2 0.2,-0.2 0.1,-0.1 0.2,-0.1 0.1,0 0.2,0 0.1,0.1 0.1,0 0.2,0 0.1,-0.1 0.2,-0.1 0.1,-0.2 0.2,-0.3 0.1,-0.4 0.2,-0.3 0.1,-0.4 0.1,-0.4 0.2,-0.3 0.1,-0.3 0.2,-0.2 0.1,-0.2 0.2,-0.1 0.1,0 0.2,0 0.1,0.1 0.1,0 0.2,0 0.1,0 0.2,-0.1 0.1,-0.2 0.2,-0.2 0.1,-0.4 0.2,-0.3 0.1,-0.4 0.2,-0.4 0.1,-0.3 0.1,-0.4 0.2,-0.2 0.1,-0.2 0.2,-0.1 0.1,-0.1 0.2,0 0.1,0.1 0.2,0 0.1,0.1 0.1,0 0.2,-0.1 0.1,-0.2 0.2,-0.2 0.1,-0.3 0.2,-0.3 0.1,-0.4 0.2,-0.4 0.1,-0.4 0.1,-0.3 0.2,-0.3 0.1,-0.2 0.2,-0.2 0.1,0 0.2,0 0.1,0 0.2,0 0.1,0.1 0.2,0 0.1,0 0.1,-0.1 0.2,-0.2 0.1,-0.3 0.2,-0.3 0.1,-0.4 0.2,-0.4 0.1,-0.4 0.2,-0.3 0.1,-0.4 0.1,-0.2 0.2,-0.2 0.1,-0.1 0.2,0 0.1,0 0.2,0 0.1,0.1 0.2,0 0.1,0 0.1,0 0.2,-0.2 0.1,-0.2 0.2,-0.3 0.1,-0.3 0.2,-0.4 0.1,-0.5 0.2,-0.3 0.1,-0.4 0.2,-0.3 0.1,-0.2 0.1,-0.1 0.2,-0.1 0.1,0 0.2,0 0.1,0.1 0.2,0.1 0.1,0 0.2,0 0.1,-0.1 0.1,-0.2 0.2,-0.3 0.1,-0.3 0.2,-0.4 0.1,-0.4 0.2,-0.4 0.1,-0.4 0.2,-0.4 0.1,-0.2 0.2,-0.2 0.1,-0.1 0.1,0 0.2,0 0.1,0.1 0.2,0.1 0.1,0 0.2,0 0.1,0 0.2,-0.2 0.1,-0.2 0.1,-0.3 0.2,-0.4 0.1,-0.4 0.2,-0.4 0.1,-0.4 0.2,-0.4 0.1,-0.3 0.2,-0.2 0.1,-0.1 0.1,-0.1 0.2,0 0.1,0.1 0.2,0.1 0.1,0.1 0.2,0 0.1,0 0.2,-0.1 0.1,-0.2 0.2,-0.3 0.1,-0.4 0.1,-0.4 0.2,-0.4 0.1,-0.4 0.2,-0.4 0.1,-0.4 0.2,-0.2 0.1,-0.2 0.2,-0.1 0.1,0 0.1,0.1 0.2,0.1 0.1,0.1 0.2,0 0.1,0 0.2,0 0.1,-0.2 0.2,-0.2 0.1,-0.3 0.1,-0.4 0.2,-0.5 0.1,-0.4 0.2,-0.4 0.1,-0.4 0.2,-0.3 0.1,-0.2 0.2,-0.1 0.1,-0.1 0.2,0.1 0.1,0.1 0.1,0.1 0.2,0 0.1,0.1 0.2,0 0.1,-0.1 0.2,-0.2 0.1,-0.3 0.2,-0.4 0.1,-0.4 0.1,-0.5 0.2,-0.4 0.1,-0.4 0.2,-0.4 0.1,-0.2 0.2,-0.2 0.1,-0.1 0.2,0 0.1,0.1 0.1,0.1 0.2,0.2 0.1,0 0.2,0.1 0.1,-0.1 0.2,-0.2 0.1,-0.2 0.2,-0.4 0.1,-0.4 0.2,-0.4 0.1,-0.5 0.1,-0.4 0.2,-0.4 0.1,-0.3 0.2,-0.2 0.1,-0.2 0.2,0 0.1,0.1 0.2,0.1 0.1,0.1 0.1,0.1 0.2,0.1 0.1,0 0.2,-0.1 0.1,-0.2 0.2,-0.3 0.1,-0.4 0.2,-0.5 0.1,-0.5 0.2,-0.4 0.1,-0.5 0.1,-0.3 0.2,-0.3 0.1,-0.1 0.2,-0.1 0.1,0.1 0.2,0.1 0.1,0.1 0.2,0.1 0.1,0.1 0.1,0.1 0.2,-0.1 0.1,-0.1 0.2,-0.3 0.1,-0.4 0.2,-0.4 0.1,-0.5 0.2,-0.5 0.1,-0.5 0.1,-0.4 0.2,-0.3 0.1,-0.2 0.2,-0.1 0.1,0 0.2,0.1 0.1,0.2 0.2,0.1 0.1,0.2 0.2,0 0.1,0 0.1,-0.1 0.2,-0.2 0.1,-0.3 0.2,-0.4 0.1,-0.5 0.2,-0.5 0.1,-0.5 0.2,-0.5 0.1,-0.4 0.1,-0.2 0.2,-0.2 0.1,0 0.2,0.1 0.1,0.1 0.2,0.2 0.1,0.2 0.2,0.1 0.1,0 0.1,0 0.2,-0.2 0.1,-0.3 0.2,-0.4 0.1,-0.4 0.2,-0.6 0.1,-0.5 0.2,-0.5 0.1,-0.4 0.2,-0.3 0.1,-0.2 0.1,-0.1 0.2,0 0.1,0.1 0.2,0.2 0.1,0.2 0.2,0.2 0.1,0.1 0.2,0 0.1,-0.1 0.1,-0.2 0.2,-0.4 0.1,-0.5 0.2,-0.5 0.1,-0.5 0.2,-0.6 0.1,-0.5 0.2,-0.3 0.1,-0.3 0.1,-0.1 0.2,0 0.1,0.1 0.2,0.1 0.1,0.3 0.2,0.2 0.1,0.1 0.2,0.1 0.1,0 0.2,-0.2 0.1,-0.3 0.1,-0.5 0.2,-0.5 0.1,-0.5 0.2,-0.6 0.1,-0.6 0.2,-0.4 0.1,-0.3 0.2,-0.2 0.1,-0.1 0.1,0.1 0.2,0.1 0.1,0.3 0.2,0.2 0.1,0.3 0.2,0.1 0.1,0 0.2,-0.1 0.1,-0.2 0.1,-0.4 0.2,-0.5 0.1,-0.6 0.2,-0.6 0.1,-0.6 0.2,-0.6 0.1,-0.4 0.2,-0.2 0.1,-0.2 0.2,0.1 0.1,0.1 0.1,0.3 0.2,0.3 0.1,0.2 0.2,0.2 0.1,0.1 0.2,0 0.1,-0.2 0.2,-0.3 0.1,-0.5 0.1,-0.6 0.2,-0.6 0.1,-0.7 0.2,-0.6 0.1,-0.5 0.2,-0.3 0.1,-0.2 0.2,0 0.1,0.1 0.2,0.2 0.1,0.3 0.1,0.4 0.2,0.2 0.1,0.2 0.2,0.1 0.1,-0.1 0.2,-0.3 0.1,-0.4 0.2,-0.6 0.1,-0.7 0.1,-0.7 0.2,-0.6 0.1,-0.6 0.2,-0.4 0.1,-0.3 0.2,-0.1 0.1,0.1 0.2,0.2 0.1,0.3 0.1,0.4 0.2,0.3 0.1,0.3 0.2,0.1 0.1,0 0.2,-0.2 0.1,-0.4 0.2,-0.5 0.1,-0.7 0.2,-0.7 0.1,-0.8 0.1,-0.6 0.2,-0.6 0.1,-0.3 0.2,-0.2 0.1,0 0.2,0.2 0.1,0.3 0.2,0.4 0.1,0.4 0.1,0.4 0.2,0.3 0.1,0.1 0.2,-0.2 0.1,-0.3 0.2,-0.5 0.1,-0.7 0.2,-0.7 0.1,-0.8 0.1,-0.8 0.2,-0.7 0.1,-0.4 0.2,-0.3 0.1,-0.1 0.2,0.1 0.1,0.4 0.2,0.4 0.1,0.5 0.2,0.5 0.1,0.4 0.1,0.2 0.2,0 0.1,-0.3 0.2,-0.4 0.1,-0.7 0.2,-0.8 0.1,-0.8 0.2,-0.9 0.1,-0.8 0.1,-0.6 0.2,-0.4 0.1,-0.2 0.2,0.1 0.1,0.3 0.2,0.4 0.1,0.6 0.2,0.6 0.1,0.5 0.1,0.4 0.2,0.1 0.1,-0.1 0.2,-0.4 0.1,-0.6 0.2,-0.8 0.1,-1 0.2,-1 0.1,-0.9 0.2,-0.8 0.1,-0.6 0.1,-0.3 0.2,0 0.1,0.3 0.2,0.5 0.1,0.6 0.2,0.7 0.1,0.7 0.2,0.5 0.1,0.3 0.1,0.1 0.2,-0.3 0.1,-0.6 0.2,-0.8 0.1,-1 0.2,-1.1 0.1,-1.1 0.2,-1 0.1,-0.8 0.1,-0.5 0.2,-0.1 0.1,0.2 0.2,0.5 0.1,0.7 0.2,0.8 0.1,0.9 0.2,0.8 0.1,0.5 0.2,0.3 0.1,-0.2 0.1,-0.4 0.2,-0.9 0.1,-1.1 0.2,-1.3 0.1,-1.3 0.2,-1.2 0.1,-1.1 0.2,-0.7 0.1,-0.3 0.1,0.1 0.2,0.4 0.1,0.8 0.3,2.2 0.3,1.9 0.3,0.7 0.3,-1.2 0.1,-1.2 0.2,-1.5 0.1,-1.6 0.2,-1.6 0.1,-1.4 0.2,-1.1 0.1,-0.6 0.2,-0.1 0.1,0.5 0.1,0.9 0.2,1.2 0.1,1.5 0.2,1.5 0.1,1.3 0.2,1 0.1,0.5 0.2,-0.1 0.1,-0.8 0.1,-1.3 0.2,-1.7 0.1,-2.1 0.2,-2.2 0.1,-2 0.2,-1.7 0.1,-1.1 0.2,-0.4 0.1,0.4 0.2,1 0.1,1.7 0.1,2.1 0.2,2.2 0.1,2.2 0.2,1.8 0.1,1.1 0.2,0.4 0.1,-0.6 0.2,-1.5 0.1,-2.4 0.1,-2.9 0.2,-3.3 0.1,-3.2 0.2,-2.9 0.1,-2.1 0.2,-1.2 0.1,0.1 0.2,1.4 0.1,2.5 0.1,3.5 0.2,4.1 0.1,4.2 0.2,3.9 0.1,2.9 0.2,1.6 0.1,-0.1 0.2,-2 0.1,-4 0.2,-5.7 0.1,-7 0.1,-7.6 0.2,-7.4 0.1,-6.3 0.2,-4.1 0.1,-1.1 0.2,2.8 0.1,7.3 0.2,12.4 0.1,17.4 0.1,22.3 0.2,26.8 0.1,30.2 0.2,32.8 0.1,34.2 0.2,34.1 0.1,32.8 0.2,30.2 0.1,26.8 0.1,22.3 0.2,17.4 0.1,12.4 0.2,7.3 0.1,2.8 0.2,-1.1 0.1,-4.1 0.2,-6.3 0.1,-7.4 0.2,-7.6 0.1,-7 0.1,-5.7 0.2,-4 0.1,-2 0.2,-0.1 0.1,1.6 0.2,2.9 0.1,3.9 0.2,4.2 0.1,4.1 0.1,3.5 0.2,2.5 0.1,1.4 0.2,0.1 0.1,-1.2 0.2,-2.1 0.1,-2.9 0.2,-3.2 0.1,-3.3 0.2,-2.9 0.1,-2.4 0.1,-1.5 0.2,-0.6 0.1,0.4 0.2,1.1 0.1,1.8 0.2,2.2 0.1,2.2 0.2,2.1 0.1,1.7 0.1,1 0.2,0.4 0.1,-0.4 0.2,-1.1 0.1,-1.7 0.2,-2 0.1,-2.2 0.2,-2.1 0.1,-1.7 0.1,-1.3 0.2,-0.8 0.1,-0.1 0.2,0.5 0.1,1 0.2,1.3 0.1,1.5 0.2,1.5 0.1,1.2 0.2,0.9 0.1,0.5 0.1,-0.1 0.2,-0.6 0.1,-1.1 0.2,-1.4 0.1,-1.6 0.2,-1.6 0.1,-1.5 0.2,-1.2 0.1,-0.8 0.1,-0.4 0.2,0.2 0.1,0.5 0.2,0.8 0.1,1.1 0.2,1.1 0.1,1.1 0.2,0.8 0.1,0.4 0.1,0.1 0.2,-0.3 0.1,-0.7 0.2,-1.1 0.1,-1.2 0.2,-1.3 0.1,-1.3 0.2,-1.1 0.1,-0.9 0.2,-0.4 0.1,-0.2 0.1,0.3 0.2,0.5 0.1,0.8 0.2,0.9 0.1,0.8 0.2,0.7 0.1,0.5 0.2,0.2 0.1,-0.1 0.1,-0.5 0.2,-0.8 0.1,-1 0.2,-1.1 0.1,-1.1 0.2,-1 0.1,-0.8 0.2,-0.6 0.1,-0.3 0.1,0.1 0.2,0.3 0.1,0.5 0.2,0.7 0.1,0.7 0.2,0.6 0.1,0.5 0.2,0.3 0.1,0 0.2,-0.3 0.1,-0.6 0.1,-0.8 0.2,-0.9 0.1,-1 0.2,-1 0.1,-0.8 0.2,-0.6 0.1,-0.4 0.2,-0.1 0.1,0.1 0.1,0.4 0.2,0.5 0.1,0.6 0.2,0.6 0.1,0.4 0.2,0.3 0.1,0.1 0.2,-0.2 0.1,-0.4 0.1,-0.6 0.2,-0.8 0.1,-0.9 0.2,-0.8 0.1,-0.8 0.2,-0.7 0.1,-0.4 0.2,-0.3 0.1,0 0.2,0.2 0.1,0.4 0.1,0.5 0.2,0.5 0.1,0.4 0.2,0.4 0.1,0.1 0.2,-0.1 0.1,-0.3 0.2,-0.4 0.1,-0.7 0.1,-0.8 0.2,-0.8 0.1,-0.7 0.2,-0.7 0.1,-0.5 0.2,-0.3 0.1,-0.2 0.2,0.1 0.1,0.3 0.2,0.4 0.1,0.4 0.1,0.4 0.2,0.3 0.1,0.2 0.2,0 0.1,-0.2 0.2,-0.3 0.1,-0.6 0.2,-0.6 0.1,-0.8 0.1,-0.7 0.2,-0.7 0.1,-0.5 0.2,-0.4 0.1,-0.2 0.2,0 0.1,0.1 0.2,0.3 0.1,0.3 0.1,0.4 0.2,0.3 0.1,0.2 0.2,0.1 0.1,-0.1 0.2,-0.3 0.1,-0.4 0.2,-0.6 0.1,-0.6 0.2,-0.7 0.1,-0.7 0.1,-0.6 0.2,-0.4 0.1,-0.3 0.2,-0.1 0.1,0.1 0.2,0.2 0.1,0.2 0.2,0.4 0.1,0.3 0.1,0.2 0.2,0.1 0.1,0 0.2,-0.2 0.1,-0.3 0.2,-0.5 0.1,-0.6 0.2,-0.7 0.1,-0.6 0.1,-0.6 0.2,-0.5 0.1,-0.3 0.2,-0.2 0.1,0 0.2,0.1 0.1,0.2 0.2,0.2 0.1,0.3 0.2,0.3 0.1,0.1 0.1,0.1 0.2,-0.2 0.1,-0.2 0.2,-0.4 0.1,-0.6 0.2,-0.6 0.1,-0.6 0.2,-0.6 0.1,-0.5 0.1,-0.4 0.2,-0.2 0.1,-0.1 0.2,0 0.1,0.1 0.2,0.3 0.1,0.2 0.2,0.3 0.1,0.1 0.1,0.1 0.2,-0.1 0.1,-0.2 0.2,-0.3 0.1,-0.4 0.2,-0.6 0.1,-0.6 0.2,-0.5 0.1,-0.5 0.2,-0.5 0.1,-0.3 0.1,-0.2 0.2,0 0.1,0.1 0.2,0.1 0.1,0.2 0.2,0.3 0.1,0.1 0.2,0.1 0.1,0 0.1,-0.1 0.2,-0.3 0.1,-0.3 0.2,-0.5 0.1,-0.6 0.2,-0.5 0.1,-0.5 0.2,-0.5 0.1,-0.4 0.1,-0.2 0.2,-0.1 0.1,0 0.2,0.1 0.1,0.2 0.2,0.2 0.1,0.2 0.2,0.1 0.1,0 0.2,-0.1 0.1,-0.2 0.1,-0.3 0.2,-0.4 0.1,-0.5 0.2,-0.5 0.1,-0.6 0.2,-0.4 0.1,-0.4 0.2,-0.3 0.1,-0.2 0.1,0 0.2,0 0.1,0.1 0.2,0.2 0.1,0.2 0.2,0.1 0.1,0.1 0.2,0 0.1,-0.2 0.2,-0.2 0.1,-0.4 0.1,-0.5 0.2,-0.5 0.1,-0.5 0.2,-0.5 0.1,-0.4 0.2,-0.3 0.1,-0.2 0.2,-0.1 0.1,0 0.1,0 0.2,0.2 0.1,0.1 0.2,0.2 0.1,0.1 0.2,0 0.1,-0.1 0.2,-0.2 0.1,-0.3 0.1,-0.4 0.2,-0.5 0.1,-0.5 0.2,-0.5 0.1,-0.4 0.2,-0.4 0.1,-0.3 0.2,-0.1 0.1,-0.1 0.2,0.1 0.1,0.1 0.1,0.1 0.2,0.1 0.1,0.1 0.2,0.1 0.1,-0.1 0.2,-0.1 0.1,-0.3 0.2,-0.3 0.1,-0.5 0.1,-0.4 0.2,-0.5 0.1,-0.5 0.2,-0.4 0.1,-0.3 0.2,-0.2 0.1,-0.1 0.2,0 0.1,0.1 0.1,0.1 0.2,0.1 0.1,0.1 0.2,0.1 0.1,0 0.2,-0.2 0.1,-0.2 0.2,-0.3 0.1,-0.4 0.2,-0.4 0.1,-0.5 0.1,-0.4 0.2,-0.4 0.1,-0.4 0.2,-0.2 0.1,-0.2 0.2,-0.1 0.1,0.1 0.2,0 0.1,0.2 0.1,0.1 0.2,0.1 0.1,0 0.2,-0.1 0.1,-0.2 0.2,-0.2 0.1,-0.4 0.2,-0.4 0.1,-0.4 0.1,-0.5 0.2,-0.4 0.1,-0.4 0.2,-0.3 0.1,-0.2 0.2,-0.1 0.1,0 0.2,0.1 0.1,0 0.2,0.1 0.1,0.1 0.1,0.1 0.2,-0.1 0.1,-0.1 0.2,-0.2 0.1,-0.3 0.2,-0.4 0.1,-0.4 0.2,-0.4 0.1,-0.5 0.1,-0.4 0.2,-0.3 0.1,-0.2 0.2,-0.2 0.1,0 0.2,0 0.1,0 0.2,0.1 0.1,0.1 0.1,0.1 0.2,0 0.1,-0.1 0.2,-0.2 0.1,-0.2 0.2,-0.4 0.1,-0.4 0.2,-0.4 0.1,-0.4 0.2,-0.4 0.1,-0.4 0.1,-0.3 0.2,-0.2 0.1,-0.1 0.2,0 0.1,0 0.2,0.1 0.1,0.1 0.2,0.1 0.1,0 0.1,-0.1 0.2,-0.1 0.1,-0.2 0.2,-0.3 0.1,-0.4 0.2,-0.4 0.1,-0.4 0.2,-0.4 0.1,-0.4 0.2,-0.3 0.1,-0.2 0.1,-0.2 0.2,0 0.1,0 0.2,0 0.1,0.1 0.2,0.1 0.1,0 0.2,0 0.1,-0.1 0.1,-0.2 0.2,-0.2 0.1,-0.4 0.2,-0.4 0.1,-0.4 0.2,-0.4 0.1,-0.4 0.2,-0.3 0.1,-0.3 0.1,-0.2 0.2,-0.1 0.1,0 0.2,0 0.1,0.1 0.2,0.1 0.1,0 0.2,0 0.1,-0.1 0.2,-0.1 0.1,-0.2 0.1,-0.3 0.2,-0.4 0.1,-0.3 0.2,-0.5 0.1,-0.4 0.2,-0.3 0.1,-0.3 0.2,-0.2 0.1,-0.2 0.1,0 0.2,0 0.1,0 0.2,0.1 0.1,0 0.2,0 0.1,0 0.2,-0.1 0.1,-0.2 0.1,-0.2 0.2,-0.4 0.1,-0.3 0.2,-0.4 0.1,-0.4 0.2,-0.4 0.1,-0.3 0.2,-0.3 0.1,-0.2 0.2,-0.1 0.1,0 0.1,0 0.2,0.1 0.1,0 0.2,0 0.1,0 0.2,0 0.1,-0.2 0.2,-0.2 0.1,-0.3 0.1,-0.3 0.2,-0.4 0.1,-0.4 0.2,-0.4 0.1,-0.3 0.2,-0.3 0.1,-0.2 0.2,-0.2 0.1,-0.1 0.1,0 0.2,0.1 0.1,0 0.2,0.1 0.1,0 0.2,-0.1 0.1,-0.1 0.2,-0.2 0.1,-0.2 0.2,-0.4 0.1,-0.3 0.1,-0.4 0.2,-0.4 0.1,-0.3 0.2,-0.4 0.1,-0.2 0.2,-0.2 0.1,-0.1 0.2,0 0.1,0 0.1,0 0.2,0.1 0.1,0 0.2,0 0.1,-0.1 0.2,-0.2 0.1,-0.2 0.2,-0.3 0.1,-0.3 0.2,-0.4 0.1,-0.4 0.1,-0.3 0.2,-0.4 0.1,-0.3 0.2,-0.2 0.1,-0.1 0.2,-0.1 0.1,0 0.2,0 0.1,0.1 0.1,0 0.2,0 0.1,-0.1 0.2,-0.1 0.1,-0.2 0.2,-0.2 0.1,-0.3 0.2,-0.4 0.1,-0.4 0.1,-0.3 0.2,-0.4 0.1,-0.3 0.2,-0.2 0.1,-0.2 0.2,-0.1 0.1,-0.1 0.2,0.1 0.1,0 0.2,0 0.1,0 0.1,0 0.2,-0.1 0.1,-0.1 0.2,-0.3 0.1,-0.3 0.2,-0.3 0.1,-0.4 0.2,-0.3 0.1,-0.4 0.1,-0.3 0.2,-0.3 0.1,-0.2 0.2,-0.1 0.1,-0.1 0.2,0 0.1,0 0.2,0 0.1,0.1 0.1,-0.1 0.2,0 0.1,-0.1 0.2,-0.2 0.1,-0.3 0.2,-0.3 0.1,-0.4 0.2,-0.3 0.1,-0.4 0.2,-0.3 0.1,-0.3 0.1,-0.3 0.2,-0.1 0.1,-0.1 0.2,-0.1 0.1,0 0.2,0 0.1,0.1 0.2,0 0.1,-0.1 0.1,-0.1 0.2,-0.1 0.1,-0.2 0.2,-0.3 0.1,-0.4 0.2,-0.3 0.1,-0.4 0.2,-0.3 0.1,-0.4 0.1,-0.2 0.2,-0.2 0.1,-0.2 0.2,0 0.1,0 0.2,0 0.1,0 0.2,0 0.1,0 0.2,-0.1 0.1,-0.1 0.1,-0.2 0.2,-0.3 0.1,-0.3 0.3,-0.7 0.3,-0.7 0.3,-0.5 0.3,-0.3 0.1,0 0.2,0 0.1,0 0.2,0 0.1,0 0.2,0 0.1,-0.1 0.1,-0.2 0.2,-0.2 0.1,-0.3 0.2,-0.3 0.1,-0.4 0.2,-0.4 0.1,-0.3 0.2,-0.3 0.1,-0.3 0.2,-0.2 0.1,-0.1 0.1,-0.1 0.2,0 0.1,0 0.2,0 0.1,0 0.2,0 0.1,-0.1 0.2,-0.1 0.1,-0.2 0.1,-0.2 0.2,-0.4 0.1,-0.3 0.2,-0.4 0.1,-0.3 0.2,-0.3 0.1,-0.3 0.2,-0.2 0.1,-0.2 0.2,-0.1 0.1,0 0.1,0 0.2,0 0.1,0 0.2,0 0.1,-0.1 0.2,-0.1 0.1,-0.2 0.2,-0.2 0.1,-0.3 0.1,-0.3 0.2,-0.4 0.1,-0.3 0.2,-0.4 0.1,-0.3 0.2,-0.2 0.1,-0.2 0.2,-0.1 0.1,-0.1 0.1,0 0.2,0 0.1,0 0.2,0 0.1,0 0.2,-0.1 0.1,-0.2 0.2,-0.2 0.1,-0.2 0.2,-0.3 0.1,-0.4 0.1,-0.3 0.2,-0.4 0.1,-0.3 0.2,-0.3 0.1,-0.2 0.2,-0.1 0.1,-0.1 0.2,-0.1 0.1,0 0.1,0 0.2,0 0.1,0 0.2,0 0.1,-0.2 0.2,-0.1 0.1,-0.3 0.2,-0.3 0.1,-0.3 0.1,-0.3 0.2,-0.4 0.1,-0.3 0.2,-0.3 0.1,-0.2 0.2,-0.2 0.1,-0.2 0.2,0 0.1,0 0.2,0 0.1,0 0.1,0 0.2,-0.1 0.1,-0.1 0.2,-0.1 0.1,-0.2 0.2,-0.3 0.1,-0.3 0.2,-0.3 0.1,-0.4 0.1,-0.3 0.2,-0.3 0.1,-0.3 0.2,-0.2 0.1,-0.2 0.2,-0.1 0.1,0 0.3,0 0.3,0 0.3,-0.2 0.3,-0.4 0.1,-0.3 0.2,-0.3 0.1,-0.4 0.2,-0.3 0.1,-0.4 0.1,-0.3 0.2,-0.2 0.1,-0.2 0.2,-0.1 0.1,-0.1 0.2,0 0.1,0 0.2,0 0.1,0 0.1,0 0.2,-0.1 0.1,-0.2 0.2,-0.2 0.1,-0.3 0.2,-0.3 0.1,-0.3 0.2,-0.3 0.1,-0.4 0.1,-0.3 0.2,-0.3 0.1,-0.2 0.2,-0.1 0.1,-0.1 0.2,0 0.1,-0.1 0.2,0 0.1,0 0.2,0 0.1,-0.1 0.1,-0.1 0.2,-0.2 0.1,-0.2 0.2,-0.3 0.1,-0.3 0.2,-0.4 0.1,-0.3 0.2,-0.3 0.1,-0.3 0.1,-0.2 0.2,-0.2 0.1,-0.1 0.2,-0.1 0.1,0 0.2,0 0.1,0 0.2,0 0.1,-0.1 0.2,-0.1 0.1,-0.1 0.1,-0.3 0.2,-0.2 0.1,-0.3 0.2,-0.4 0.1,-0.3 0.2,-0.3 0.1,-0.3 0.2,-0.3 0.1,-0.2 0.1,-0.2 0.2,0 0.1,-0.1 0.2,0 0.1,0 0.2,0 0.1,0 0.2,-0.1 0.1,-0.1 0.1,-0.2 0.2,-0.3 0.1,-0.3 0.2,-0.3 0.1,-0.3 0.2,-0.4 0.1,-0.3 0.2,-0.3 0.1,-0.2 0.2,-0.2 0.1,-0.1 0.1,0 0.2,-0.1 0.1,0 0.2,0 0.1,0 0.2,0 0.1,-0.1 0.2,-0.2 0.1,-0.2 0.1,-0.3 0.2,-0.3 0.1,-0.3 0.2,-0.4 0.1,-0.3 0.2,-0.3 0.1,-0.3 0.2,-0.2 0.1,-0.1 0.1,-0.1 0.2,0 0.1,0 0.2,0 0.1,0 0.2,-0.1 0.1,-0.1 0.2,-0.1 0.1,-0.2 0.2,-0.2 0.1,-0.3 0.3,-0.7 0.3,-0.6 0.3,-0.5 0.3,-0.3 0.1,-0.1 0.1,0 0.2,0 0.1,0 0.2,0 0.1,-0.1 0.2,-0.1 0.1,-0.2 0.2,-0.2 0.1,-0.2 0.1,-0.4 0.2,-0.3 0.1,-0.3 0.2,-0.4 0.1,-0.3 0.2,-0.2 0.1,-0.2 0.2,-0.1 0.1,-0.1 0.2,-0.1 0.1,0 0.1,0 0.2,0 0.1,0 0.2,-0.1 0.1,-0.1 0.2,-0.2 0.1,-0.3 0.2,-0.3 0.1,-0.3 0.1,-0.3 0.2,-0.4 0.1,-0.3 0.2,-0.3 0.1,-0.2 0.2,-0.2 0.1,-0.1 0.2,0 0.1,0 0.2,-0.1 0.1,0 0.1,0 0.2,0 0.1,-0.1 0.2,-0.2 0.1,-0.2 0.2,-0.3 0.1,-0.3 0.2,-0.4 0.1,-0.3 0.1,-0.3 0.2,-0.3 0.1,-0.3 0.2,-0.2 0.1,-0.1 0.2,-0.1 0.1,0 0.2,0 0.1,0 0.1,0 0.2,-0.1 0.1,-0.1 0.2,-0.1 0.1,-0.2 0.2,-0.2 0.1,-0.3 0.2,-0.4 0.1,-0.3 0.2,-0.3 0.1,-0.4 0.1,-0.2 0.2,-0.2 0.1,-0.2 0.2,-0.1 0.1,-0.1 0.2,0 0.1,0 0.2,0 0.1,0 0.1,-0.1 0.2,-0.1 0.1,-0.2 0.2,-0.2 0.1,-0.3 0.2,-0.3 0.1,-0.3 0.2,-0.4 0.1,-0.3 0.1,-0.3 0.2,-0.2 0.1,-0.2 0.2,-0.1 0.1,-0.1 0.2,-0.1 0.1,0 0.2,0 0.1,0 0.2,0 0.1,-0.1 0.1,-0.1 0.2,-0.2 0.1,-0.3 0.2,-0.3 0.1,-0.3 0.2,-0.4 0.1,-0.3 0.2,-0.3 0.1,-0.3 0.1,-0.2 0.2,-0.2 0.1,-0.1 0.2,0 0.1,0 0.2,0 0.1,0 0.2,-0.1 0.1,0 0.1,-0.1 0.2,-0.2 0.1,-0.2 0.2,-0.3 0.1,-0.3 0.2,-0.4 0.1,-0.3 0.2,-0.3 0.1,-0.3 0.2,-0.3 0.1,-0.2 0.1,-0.1 0.2,-0.1 0.1,0 0.2,0 0.1,0 0.2,0 0.1,-0.1 0.2,0 0.1,-0.2 0.1,-0.2 0.2,-0.3 0.1,-0.3 0.2,-0.3 0.1,-0.3 0.2,-0.4 0.1,-0.3 0.2,-0.2 0.1,-0.3 0.1,-0.1 0.2,-0.1 0.1,-0.1 0.2,0 0.1,0 0.2,0 0.1,0 0.2,-0.1 0.1,-0.1 0.2,-0.2 0.1,-0.2 0.1,-0.3 0.2,-0.3 0.1,-0.3 0.2,-0.4 0.1,-0.3 0.2,-0.3 0.1,-0.2 0.2,-0.2 0.1,-0.1 0.1,-0.1 0.2,0 0.1,0 0.2,0 0.1,-0.1 0.2,0 0.1,-0.1 0.2,-0.1 0.1,-0.2 0.2,-0.3 0.1,-0.3 0.1,-0.4 0.2,-0.3 0.1,-0.3 0.2,-0.3 0.1,-0.3 0.2,-0.2 0.1,-0.2 0.2,-0.1 0.1,0 0.1,0 0.2,0 0.1,0 0.2,0 0.1,-0.1 0.2,-0.1 0.1,-0.2 0.2,-0.2 0.1,-0.3 0.1,-0.4 0.2,-0.3 0.1,-0.4 0.2,-0.3 0.1,-0.3 0.2,-0.2 0.1,-0.2 0.2,-0.1 0.1,-0.1 0.2,0 0.1,0 0.1,0 0.2,0 0.1,0 0.2,-0.1 0.1,-0.2 0.2,-0.2 0.1,-0.3 0.2,-0.3 0.1,-0.3 0.1,-0.4 0.2,-0.3 0.1,-0.3 0.2,-0.3 0.1,-0.2 0.2,-0.1 0.1,-0.1 0.2,-0.1 0.1,0 0.1,0 0.2,0 0.1,0 0.2,0 0.1,-0.2 0.2,-0.2 0.1,-0.2 0.2,-0.3 0.1,-0.3 0.2,-0.4 0.1,-0.3 0.1,-0.3 0.2,-0.3 0.1,-0.3 0.2,-0.1 0.1,-0.2 0.2,0 0.1,0 0.2,0 0.1,0 0.1,0 0.2,-0.1 0.1,-0.1 0.2,-0.1 0.1,-0.2 0.2,-0.3 0.1,-0.3 0.2,-0.4 0.1,-0.3 0.1,-0.4 0.2,-0.3 0.1,-0.2 0.2,-0.2 0.1,-0.2 0.2,-0.1 0.1,0 0.2,0 0.1,0 0.2,0 0.1,0 0.1,-0.1 0.2,-0.1 0.1,-0.2 0.2,-0.2 0.1,-0.3 0.2,-0.4 0.1,-0.3 0.2,-0.4 0.1,-0.3 0.1,-0.3 0.2,-0.2 0.1,-0.2 0.2,-0.1 0.1,-0.1 0.2,0 0.1,0 0.2,0 0.1,0 0.1,0 0.2,-0.1 0.1,-0.2 0.2,-0.2 0.1,-0.3 0.2,-0.3 0.1,-0.3 0.2,-0.4 0.1,-0.3 0.2,-0.4 0.1,-0.2 0.1,-0.2 0.2,-0.1 0.1,-0.1 0.2,0 0.1,0 0.2,0 0.1,0 0.2,0 0.1,-0.1 0.1,-0.1 0.2,-0.2 0.1,-0.3 0.2,-0.3 0.1,-0.3 0.2,-0.4 0.1,-0.4 0.2,-0.3 0.1,-0.3 0.2,-0.2 0.1,-0.2 0.1,-0.1 0.2,0 0.1,0 0.2,0 0.1,0 0.2,0 0.1,0 0.2,-0.1 0.1,-0.2 0.1,-0.2 0.2,-0.3 0.1,-0.3 0.2,-0.4 0.1,-0.4 0.2,-0.3 0.1,-0.3 0.2,-0.3 0.1,-0.2 0.1,-0.1 0.2,-0.1 0.1,0 0.2,0 0.1,0 0.2,0 0.1,0 0.2,0 0.1,-0.2 0.2,-0.2 0.1,-0.2 0.1,-0.4 0.2,-0.3 0.1,-0.4 0.2,-0.3 0.1,-0.4 0.2,-0.3 0.1,-0.2 0.2,-0.1 0.1,-0.1 0.1,-0.1 0.2,0 0.1,0.1 0.2,0 0.1,0 0.2,-0.1 0.1,-0.1 0.2,-0.1 0.1,-0.3 0.1,-0.3 0.2,-0.3 0.1,-0.4 0.2,-0.3 0.1,-0.4 0.2,-0.3 0.1,-0.3 0.2,-0.2 0.1,-0.1 0.2,0 0.1,-0.1 0.1,0.1 0.2,0 0.1,0 0.2,0 0.1,-0.1 0.2,-0.1 0.1,-0.2 0.2,-0.3 0.1,-0.3 0.1,-0.4 0.2,-0.3 0.1,-0.4 0.2,-0.3 0.1,-0.3 0.2,-0.3 0.1,-0.1 0.2,-0.1 0.1,0 0.1,0 0.2,0 0.1,0 0.2,0.1 0.1,-0.1 0.2,-0.1 0.1,-0.2 0.2,-0.2 0.1,-0.3 0.2,-0.4 0.1,-0.3 0.1,-0.4 0.2,-0.4 0.1,-0.3 0.2,-0.2 0.1,-0.2 0.2,-0.1 0.1,-0.1 0.2,0 0.1,0 0.1,0.1 0.2,0 0.1,0 0.2,-0.1 0.1,-0.1 0.2,-0.2 0.1,-0.3 0.2,-0.4 0.1,-0.3 0.1,-0.4 0.2,-0.4 0.1,-0.3 0.2,-0.3 0.1,-0.2 0.2,-0.2 0.1,-0.1 0.2,0 0.1,0 0.2,0.1 0.1,0 0.1,0 0.2,0 0.1,-0.1 0.2,-0.2 0.1,-0.2 0.2,-0.4 0.1,-0.3 0.2,-0.4 0.1,-0.4 0.1,-0.3 0.2,-0.4 0.1,-0.2 0.2,-0.2 0.1,-0.1 0.2,-0.1 0.1,0 0.2,0.1 0.1,0 0.2,0.1 0.1,0 0.1,-0.1 0.2,-0.2 0.1,-0.2 0.2,-0.3 0.1,-0.3 0.2,-0.4 0.1,-0.4 0.2,-0.4 0.1,-0.3 0.1,-0.3 0.2,-0.2 0.1,-0.2 0.2,0 0.1,0 0.2,0 0.1,0 0.2,0.1 0.1,0 0.1,0 0.2,-0.1 0.1,-0.2 0.2,-0.3 0.1,-0.3 0.2,-0.4 0.1,-0.4 0.2,-0.4 0.1,-0.3 0.2,-0.4 0.1,-0.2 0.1,-0.2 0.2,-0.1 0.1,0 0.2,0 0.1,0 0.2,0.1 0.1,0 0.2,0 0.1,0 0.1,-0.2 0.2,-0.2 0.1,-0.3 0.2,-0.3 0.1,-0.4 0.2,-0.5 0.1,-0.3 0.2,-0.4 0.1,-0.3 0.1,-0.2 0.2,-0.1 0.1,-0.1 0.2,0 0.1,0 0.2,0.1 0.1,0.1 0.2,0 0.1,0 0.2,-0.1 0.1,-0.2 0.1,-0.3 0.2,-0.3 0.1,-0.4 0.2,-0.4 0.1,-0.4 0.2,-0.4 0.1,-0.4 0.2,-0.2 0.1,-0.2 0.1,-0.1 0.2,0 0.1,0 0.2,0.1 0.1,0.1 0.2,0 0.1,0 0.2,0 0.1,-0.2 0.1,-0.2 0.2,-0.3 0.1,-0.4 0.2,-0.4 0.1,-0.4 0.2,-0.4 0.1,-0.4 0.2,-0.3 0.1,-0.2 0.2,-0.1 0.1,-0.1 0.1,0 0.2,0.1 0.1,0.1 0.2,0.1 0.1,0 0.2,0 0.1,-0.1 0.2,-0.2 0.1,-0.3 0.1,-0.4 0.2,-0.4 0.1,-0.4 0.2,-0.4 0.1,-0.4 0.2,-0.4 0.1,-0.2 0.2,-0.2 0.1,-0.1 0.2,0 0.1,0.1 0.1,0.1 0.2,0.1 0.1,0 0.2,0 0.1,0 0.2,-0.2 0.1,-0.2 0.2,-0.3 0.1,-0.4 0.1,-0.5 0.2,-0.4 0.1,-0.4 0.2,-0.4 0.1,-0.3 0.2,-0.2 0.1,-0.1 0.2,-0.1 0.1,0.1 0.1,0.1 0.2,0.1 0.1,0 0.2,0.1 0.1,0 0.2,-0.1 0.1,-0.2 0.2,-0.3 0.1,-0.4 0.2,-0.4 0.1,-0.5 0.1,-0.4 0.2,-0.4 0.1,-0.4 0.2,-0.2 0.1,-0.2 0.2,-0.1 0.1,0 0.2,0.1 0.1,0.1 0.1,0.2 0.2,0 0.1,0.1 0.2,-0.1 0.1,-0.2 0.2,-0.2 0.1,-0.4 0.2,-0.4 0.1,-0.4 0.1,-0.5 0.2,-0.4 0.1,-0.4 0.2,-0.3 0.1,-0.2 0.2,-0.2 0.1,0 0.2,0.1 0.1,0.1 0.2,0.1 0.1,0.1 0.1,0.1 0.2,0 0.1,-0.1 0.2,-0.2 0.1,-0.3 0.2,-0.4 0.1,-0.5 0.2,-0.5 0.1,-0.4 0.1,-0.5 0.2,-0.3 0.1,-0.3 0.2,-0.1 0.1,-0.1 0.2,0.1 0.1,0.1 0.2,0.1 0.1,0.1 0.1,0.1 0.2,0.1 0.1,-0.1 0.2,-0.1 0.1,-0.3 0.2,-0.4 0.1,-0.4 0.2,-0.5 0.1,-0.5 0.2,-0.5 0.1,-0.4 0.1,-0.3 0.2,-0.2 0.1,-0.1 0.2,0 0.1,0.1 0.2,0.2 0.1,0.1 0.2,0.2 0.1,0 0.1,0 0.2,-0.1 0.1,-0.2 0.2,-0.3 0.1,-0.4 0.2,-0.5 0.1,-0.5 0.2,-0.5 0.1,-0.5 0.1,-0.4 0.2,-0.2 0.1,-0.2 0.2,0 0.1,0.1 0.2,0.1 0.1,0.2 0.2,0.2 0.1,0.1 0.2,0 0.1,0 0.1,-0.2 0.2,-0.3 0.1,-0.4 0.2,-0.4 0.1,-0.6 0.2,-0.5 0.1,-0.5 0.2,-0.4 0.1,-0.3 0.1,-0.2 0.2,-0.1 0.1,0 0.2,0.1 0.1,0.2 0.2,0.2 0.1,0.2 0.2,0.1 0.1,0 0.2,-0.1 0.1,-0.2 0.1,-0.4 0.2,-0.5 0.1,-0.5 0.2,-0.5 0.1,-0.6 0.2,-0.5 0.1,-0.3 0.2,-0.3 0.1,-0.1 0.1,0 0.2,0.1 0.1,0.1 0.2,0.3 0.1,0.2 0.2,0.1 0.1,0.1 0.2,0 0.1,-0.2 0.1,-0.3 0.2,-0.5 0.1,-0.5 0.2,-0.5 0.1,-0.6 0.2,-0.6 0.1,-0.4 0.2,-0.3 0.1,-0.2 0.2,-0.1 0.1,0.1 0.1,0.1 0.2,0.3 0.1,0.2 0.2,0.3 0.1,0.1 0.2,0 0.1,-0.1 0.2,-0.2 0.1,-0.4 0.1,-0.5 0.2,-0.6 0.1,-0.6 0.2,-0.6 0.1,-0.6 0.2,-0.4 0.1,-0.2 0.2,-0.2 0.1,0.1 0.1,0.1 0.2,0.3 0.1,0.3 0.2,0.2 0.1,0.2 0.2,0.1 0.1,0 0.2,-0.2 0.1,-0.3 0.2,-0.5 0.1,-0.6 0.1,-0.6 0.2,-0.7 0.1,-0.6 0.2,-0.5 0.1,-0.3 0.2,-0.2 0.1,0 0.2,0.1 0.1,0.2 0.1,0.3 0.2,0.4 0.1,0.2 0.2,0.2 0.1,0.1 0.2,-0.1 0.1,-0.3 0.2,-0.4 0.1,-0.6 0.1,-0.7 0.2,-0.7 0.1,-0.6 0.2,-0.6 0.1,-0.4 0.2,-0.3 0.1,-0.1 0.2,0.1 0.1,0.2 0.2,0.3 0.1,0.4 0.1,0.3 0.2,0.3 0.1,0.1 0.2,0 0.1,-0.2 0.2,-0.4 0.1,-0.5 0.2,-0.7 0.1,-0.7 0.1,-0.8 0.2,-0.6 0.1,-0.6 0.2,-0.3 0.1,-0.2 0.2,0 0.1,0.2 0.2,0.3 0.1,0.4 0.1,0.4 0.2,0.4 0.1,0.3 0.2,0.1 0.1,-0.2 0.2,-0.3 0.1,-0.5 0.2,-0.7 0.1,-0.7 0.2,-0.8 0.1,-0.8 0.1,-0.7 0.2,-0.4 0.1,-0.3 0.2,-0.1 0.1,0.1 0.2,0.4 0.1,0.4 0.2,0.5 0.1,0.5 0.1,0.4 0.2,0.2 0.1,0 0.2,-0.3 0.1,-0.4 0.2,-0.7 0.1,-0.8 0.2,-0.8 0.1,-0.9 0.2,-0.8 0.1,-0.6 0.1,-0.4 0.2,-0.2 0.1,0.1 0.2,0.3 0.1,0.4 0.2,0.6 0.1,0.6 0.2,0.5 0.1,0.4 0.1,0.1 0.2,-0.1 0.1,-0.4 0.2,-0.6 0.1,-0.8 0.2,-1 0.1,-1 0.2,-0.9 0.1,-0.8 0.1,-0.6 0.2,-0.3 0.1,0 0.2,0.3 0.1,0.5 0.2,0.6 0.1,0.7 0.2,0.7 0.1,0.5 0.2,0.3 0.1,0.1 0.1,-0.3 0.2,-0.6 0.1,-0.8 0.2,-1 0.1,-1.1 0.2,-1.1 0.1,-1 0.2,-0.8 0.1,-0.5 0.1,-0.1 0.2,0.2 0.1,0.5 0.2,0.7 0.1,0.8 0.2,0.9 0.1,0.8 0.2,0.5 0.1,0.3 0.1,-0.2 0.2,-0.4 0.1,-0.9 0.2,-1.1 0.1,-1.3 0.2,-1.3 0.1,-1.2 0.2,-1.1 0.1,-0.7 0.2,-0.3 0.1,0.1 0.1,0.4 0.2,0.8 0.3,2.2 0.3,1.9 0.3,0.7 0.2,-1.2 0.2,-1.2 0.1,-1.5 0.2,-1.6 0.1,-1.6 0.2,-1.4 0.1,-1.1 0.2,-0.6 0.1,-0.1 0.1,0.5 0.2,0.9 0.1,1.2 0.2,1.5 0.1,1.5 0.2,1.3 0.1,1 0.2,0.5 0.1,-0.1 0.2,-0.8 0.1,-1.3 0.1,-1.7 0.2,-2.1 0.1,-2.2 0.2,-2 0.1,-1.7 0.2,-1.1 0.1,-0.4 0.2,0.4 0.1,1 0.1,1.7 0.2,2.1 0.1,2.2 0.2,2.2 0.1,1.8 0.2,1.1 0.1,0.4 0.2,-0.6 0.1,-1.5 0.1,-2.4 0.2,-2.9 0.1,-3.3 0.2,-3.2 0.1,-2.9 0.2,-2.1 0.1,-1.2 0.2,0.1 0.1,1.4 0.2,2.5 0.1,3.5 0.1,4.1 0.2,4.2 0.1,3.9 0.2,2.9 0.1,1.6 0.2,-0.1 0.1,-2 0.2,-4 0.1,-5.7 0.1,-7 0.2,-7.6 0.1,-7.4 0.2,-6.3 0.1,-4.1 0.2,-1.1 0.1,2.8 0.2,7.3 0.1,12.4 0.2,17.4 0.1,22.3 0.1,26.8 0.2,30.2 0.1,32.8 0.2,34.1 0.1,34.2 0.2,32.8 0.1,30.2 0.2,26.8 0.1,22.3 0.1,17.4 0.2,12.4 0.1,7.3 0.2,2.8 0.1,-1.1 0.2,-4.1 0.1,-6.3 0.2,-7.4 0.1,-7.6 0.1,-7 0.2,-5.7 0.1,-4 0.2,-2 0.1,-0.1 0.2,1.6 0.1,2.9 0.2,3.9 0.1,4.2 0.2,4.1 0.1,3.5 0.1,2.5 0.2,1.4 0.1,0.1 0.2,-1.2 0.1,-2.1 0.2,-2.9 0.1,-3.2 0.2,-3.3 0.1,-2.9 0.1,-2.4 0.2,-1.5 0.1,-0.6 0.2,0.4 0.1,1.1 0.2,1.8 0.1,2.2 0.2,2.2 0.1,2.1 0.1,1.7 0.2,1 0.1,0.4 0.2,-0.4 0.1,-1.1 0.2,-1.7 0.1,-2 0.2,-2.2 0.1,-2.1 0.2,-1.7 0.1,-1.3 0.1,-0.8 0.2,-0.1 0.1,0.5 0.2,1 0.1,1.3 0.2,1.5 0.1,1.5 0.2,1.2 0.1,0.9 0.1,0.5 0.2,-0.1 0.1,-0.6 0.2,-1.1 0.1,-1.4 0.2,-1.6 0.1,-1.6 0.2,-1.5 0.1,-1.2 0.1,-0.8 0.2,-0.4 0.1,0.2 0.2,0.5 0.1,0.8 0.2,1.1 0.1,1.1 0.2,1.1 0.1,0.8 0.2,0.4 0.1,0.1 0.1,-0.3 0.2,-0.7 0.1,-1.1 0.2,-1.2 0.1,-1.3 0.2,-1.3 0.1,-1.1 0.2,-0.9 0.1,-0.4 0.1,-0.2 0.2,0.3 0.1,0.5 0.2,0.8 0.1,0.9 0.2,0.8 0.1,0.7 0.2,0.5 0.1,0.2 0.2,-0.1 0.1,-0.5 0.1,-0.8 0.2,-1 0.1,-1.1 0.2,-1.1 0.1,-1 0.2,-0.8 0.1,-0.6 0.2,-0.3 0.1,0.1 0.1,0.3 0.2,0.5 0.1,0.7 0.2,0.7 0.1,0.6 0.2,0.5 0.1,0.3 0.2,0 0.1,-0.3 0.1,-0.6 0.2,-0.8 0.1,-0.9 0.2,-1 0.1,-1 0.2,-0.8 0.1,-0.6 0.2,-0.4 0.1,-0.1 0.2,0.1 0.1,0.4 0.1,0.5 0.2,0.6 0.1,0.6 0.2,0.4 0.1,0.3 0.2,0.1 0.1,-0.2 0.2,-0.4 0.1,-0.6 0.1,-0.8 0.2,-0.9 0.1,-0.8 0.2,-0.8 0.1,-0.7 0.2,-0.4 0.1,-0.3 0.2,0 0.1,0.2 0.1,0.4 0.2,0.5 0.1,0.5 0.2,0.4 0.1,0.4 0.2,0.1 0.1,-0.1 0.2,-0.3 0.1,-0.4 0.2,-0.7 0.1,-0.8 0.1,-0.8 0.2,-0.7 0.1,-0.7 0.2,-0.5 0.1,-0.3 0.2,-0.2 0.1,0.1 0.2,0.3 0.1,0.4 0.1,0.4 0.2,0.4 0.1,0.3 0.2,0.2 0.1,0 0.2,-0.2 0.1,-0.3 0.2,-0.6 0.1,-0.6 0.1,-0.8 0.2,-0.7 0.1,-0.7 0.2,-0.5 0.1,-0.4 0.2,-0.2 0.1,0 0.2,0.1 0.1,0.3 0.2,0.3 0.1,0.4 0.1,0.3 0.2,0.2 0.1,0.1 0.2,-0.1 0.1,-0.3 0.2,-0.4 0.1,-0.6 0.2,-0.6 0.1,-0.7 0.1,-0.7 0.2,-0.6 0.1,-0.4 0.2,-0.3 0.1,-0.1 0.2,0.1 0.1,0.2 0.2,0.2 0.1,0.4 0.1,0.3 0.2,0.2 0.1,0.1 0.2,0 0.1,-0.2 0.2,-0.3 0.1,-0.5 0.2,-0.6 0.1,-0.7 0.2,-0.6 0.1,-0.6 0.1,-0.5 0.2,-0.3 0.1,-0.2 0.2,0 0.1,0.1 0.2,0.2 0.1,0.2 0.2,0.3 0.1,0.3 0.1,0.1 0.2,0.1 0.1,-0.2 0.2,-0.2 0.1,-0.4 0.2,-0.6 0.1,-0.6 0.2,-0.6 0.1,-0.6 0.2,-0.5 0.1,-0.4 0.1,-0.2 0.2,-0.1 0.1,0 0.2,0.1 0.1,0.3 0.2,0.2 0.1,0.3 0.2,0.1 0.1,0.1 0.1,-0.1 0.2,-0.2 0.1,-0.3 0.2,-0.4 0.1,-0.6 0.2,-0.6 0.1,-0.5 0.2,-0.5 0.1,-0.5 0.1,-0.3 0.2,-0.2 0.1,0 0.2,0.1 0.1,0.1 0.2,0.2 0.1,0.3 0.2,0.1 0.1,0.1 0.2,0 0.1,-0.1 0.1,-0.3 0.2,-0.3 0.1,-0.5 0.2,-0.6 0.1,-0.5 0.2,-0.5 0.1,-0.5 0.2,-0.4 0.1,-0.2 0.1,-0.1 0.2,0 0.1,0.1 0.2,0.2 0.1,0.2 0.2,0.2 0.1,0.1 0.2,0 0.1,-0.1 0.1,-0.2 0.2,-0.3 0.1,-0.4 0.2,-0.5 0.1,-0.5 0.2,-0.6 0.1,-0.4 0.2,-0.4 0.1,-0.3 0.2,-0.2 0.1,0 0.1,0 0.2,0.1 0.1,0.2 0.2,0.2 0.1,0.1 0.2,0.1 0.1,0 0.2,-0.2 0.1,-0.2 0.1,-0.4 0.2,-0.5 0.1,-0.5 0.2,-0.5 0.1,-0.5 0.2,-0.4 0.1,-0.3 0.2,-0.2 0.1,-0.1 0.1,0 0.2,0 0.1,0.2 0.2,0.1 0.1,0.2 0.2,0.1 0.1,0 0.2,-0.1 0.1,-0.2 0.2,-0.3 0.1,-0.4 0.1,-0.5 0.2,-0.5 0.1,-0.5 0.2,-0.4 0.1,-0.4 0.2,-0.3 0.1,-0.1 0.2,-0.1 0.1,0.1 0.1,0.1 0.2,0.1 0.1,0.1 0.2,0.1 0.1,0.1 0.2,-0.1 0.1,-0.1 0.2,-0.3 0.1,-0.3 0.1,-0.5 0.2,-0.4 0.1,-0.5 0.2,-0.5 0.1,-0.4 0.2,-0.3 0.1,-0.2 0.2,-0.1 0.1,0 0.2,0.1 0.1,0.1 0.1,0.1 0.2,0.1 0.1,0.1 0.2,0 0.1,-0.2 0.2,-0.2 0.1,-0.3 0.2,-0.4 0.1,-0.4 0.1,-0.5 0.2,-0.4 0.1,-0.4 0.2,-0.4 0.1,-0.2 0.2,-0.2 0.1,-0.1 0.2,0.1 0.1,0 0.2,0.2 0.1,0.1 0.1,0.1 0.2,0 0.1,-0.1 0.2,-0.2 0.1,-0.2 0.2,-0.4 0.1,-0.4 0.2,-0.4 0.1,-0.5 0.1,-0.4 0.2,-0.4 0.1,-0.3 0.2,-0.2 0.1,-0.1 0.2,0 0.1,0.1 0.2,0 0.1,0.1 0.1,0.1 0.2,0.1 0.1,-0.1 0.2,-0.1 0.1,-0.2 0.2,-0.3 0.1,-0.4 0.2,-0.4 0.1,-0.4 0.2,-0.5 0.1,-0.4 0.1,-0.3 0.2,-0.2 0.1,-0.2 0.2,0 0.1,0 0.2,0 0.1,0.1 0.2,0.1 0.1,0.1 0.1,0 0.2,-0.1 0.1,-0.2 0.2,-0.2 0.1,-0.4 0.2,-0.4 0.1,-0.4 0.2,-0.4 0.1,-0.4 0.1,-0.4 0.2,-0.3 0.1,-0.2 0.2,-0.1 0.1,0 0.2,0 0.1,0.1 0.2,0.1 0.1,0.1 0.2,0 0.1,-0.1 0.1,-0.1 0.2,-0.2 0.1,-0.3 0.2,-0.4 0.1,-0.4 0.2,-0.4 0.1,-0.4 0.2,-0.4 0.1,-0.3 0.1,-0.2 0.2,-0.2 0.1,0 0.2,0 0.1,0 0.2,0.1 0.1,0.1 0.2,0 0.1,0 0.1,-0.1 0.2,-0.2 0.1,-0.2 0.2,-0.4 0.1,-0.4 0.2,-0.4 0.1,-0.4 0.2,-0.4 0.1,-0.3 0.2,-0.3 0.1,-0.2 0.1,-0.1 0.2,0 0.1,0 0.2,0.1 0.1,0.1 0.2,0 0.1,0 0.2,-0.1 0.1,-0.1 0.1,-0.2 0.2,-0.3 0.1,-0.4 0.2,-0.3 0.1,-0.5 0.2,-0.4 0.1,-0.3 0.2,-0.3 0.1,-0.2 0.2,-0.2 0.1,0 0.1,0 0.2,0 0.1,0.1 0.2,0 0.1,0 0.2,0 0.1,-0.1 0.2,-0.2 0.1,-0.2 0.1,-0.4 0.2,-0.3 0.1,-0.4 0.2,-0.4 0.1,-0.4 0.2,-0.3 0.1,-0.3 0.2,-0.2 0.1,-0.1 0.1,0 0.2,0 0.1,0.1 0.2,0 0.1,0 0.2,0 0.1,0 0.2,-0.2 0.1,-0.2 0.2,-0.3 0.1,-0.3 0.1,-0.4 0.2,-0.4 0.1,-0.4 0.2,-0.3 0.1,-0.3 0.2,-0.2 0.1,-0.2 0.2,-0.1 0.1,0 0.1,0.1 0.2,0 0.1,0.1 0.2,0 0.1,-0.1 0.2,-0.1 0.1,-0.2 0.2,-0.2 0.1,-0.4 0.1,-0.3 0.2,-0.4 0.1,-0.4 0.2,-0.3 0.1,-0.4 0.2,-0.2 0.1,-0.2 0.2,-0.1 0.1,0 0.2,0 0.1,0 0.1,0.1 0.2,0 0.1,0 0.2,-0.1 0.1,-0.2 0.2,-0.2 0.1,-0.3 0.2,-0.3 0.1,-0.4 0.1,-0.4 0.2,-0.3 0.1,-0.4 0.2,-0.3 0.1,-0.2 0.2,-0.1 0.1,-0.1 0.2,0 0.1,0 0.1,0.1 0.2,0 0.1,0 0.2,-0.1 0.1,-0.1 0.2,-0.2 0.1,-0.2 0.2,-0.3 0.1,-0.4 0.2,-0.4 0.1,-0.3 0.1,-0.4 0.2,-0.3 0.1,-0.2 0.2,-0.2 0.1,-0.1 0.2,-0.1 0.1,0.1 0.2,0 0.1,0 0.1,0 0.2,0 0.1,-0.1 0.2,-0.1 0.1,-0.3 0.2,-0.3 0.1,-0.3 0.2,-0.4 0.1,-0.3 0.1,-0.4 0.2,-0.3 0.1,-0.3 0.2,-0.2 0.1,-0.1 0.2,-0.1 0.1,0 0.2,0 0.1,0 0.2,0.1 0.1,-0.1 0.1,0 0.2,-0.1 0.1,-0.2 0.2,-0.3 0.1,-0.3 0.2,-0.4 0.1,-0.3 0.2,-0.4 0.1,-0.3 0.1,-0.3 0.2,-0.3 0.1,-0.1 0.2,-0.1 0.1,-0.1 0.2,0 0.1,0 0.2,0.1 0.1,0 0.2,-0.1 0.1,-0.1 0.1,-0.1 0.2,-0.2 0.1,-0.3 0.2,-0.4 0.1,-0.3 0.2,-0.4 0.1,-0.3 0.2,-0.4 0.1,-0.2 0.1,-0.2 0.2,-0.2 0.1,0 0.2,0 0.1,0 0.2,0 0.1,0 0.2,0 0.1,-0.1 0.1,-0.1 0.2,-0.2 0.1,-0.3 0.2,-0.3 0.3,-0.7 0.3,-0.7 0.3,-0.5 0.2,-0.3 0.2,0 0.1,0 0.2,0 0.1,0 0.2,0 0.1,0 0.2,-0.1 0.1,-0.2 0.1,-0.2 0.2,-0.3 0.1,-0.3 0.2,-0.4 0.1,-0.4 0.2,-0.3 0.1,-0.3 0.2,-0.3 0.1,-0.2 0.1,-0.1 0.2,-0.1 0.1,0 0.2,0 0.1,0 0.2,0 0.1,0 0.2,-0.1 0.1,-0.1 0.2,-0.2 0.1,-0.2 0.1,-0.4 0.2,-0.3 0.1,-0.4 0.2,-0.3 0.1,-0.3 0.2,-0.3 0.1,-0.2 0.2,-0.2 0.1,-0.1 0.1,0 0.2,0 0.1,0 0.2,0 0.1,0 0.2,-0.1 0.1,-0.1 0.2,-0.2 0.1,-0.2 0.1,-0.3 0.2,-0.3 0.1,-0.4 0.2,-0.3 0.1,-0.4 0.2,-0.3 0.1,-0.2 0.2,-0.2 0.1,-0.1 0.2,-0.1 0.1,0 0.1,0 0.2,0 0.1,0 0.2,0 0.1,-0.1 0.2,-0.2 0.1,-0.2 0.2,-0.2 0.1,-0.3 0.1,-0.4 0.2,-0.3 0.1,-0.4 0.2,-0.3 0.1,-0.3 0.2,-0.2 0.1,-0.1 0.2,-0.1 0.1,-0.1 0.1,0 0.2,0 0.1,0 0.2,0 0.1,0 0.2,-0.2 0.1,-0.1 0.2,-0.3 0.1,-0.3 0.2,-0.3 0.1,-0.3 0.1,-0.4 0.2,-0.3 0.1,-0.3 0.2,-0.2 0.1,-0.2 0.2,-0.2 0.1,0 0.2,0 0.1,0 0.1,0 0.2,0 0.1,-0.1 0.2,-0.1 0.1,-0.1 0.2,-0.2 0.1,-0.3 0.2,-0.3 0.1,-0.3 0.2,-0.4 0.1,-0.3 0.1,-0.3 0.2,-0.3 0.1,-0.2 0.2,-0.2 0.1,-0.1 0.2,0 0.3,0 0.2,0 0.3,-0.2 0.3,-0.4 0.2,-0.3 0.1,-0.3 0.2,-0.4 0.1,-0.3 0.1,-0.4 0.2,-0.3 0.1,-0.2 0.2,-0.2 0.1,-0.1 0.2,-0.1 0.1,0 0.2,0 0.1,0 0.2,0 0.1,0 0.1,-0.1 0.2,-0.2 0.1,-0.2 0.2,-0.3 0.1,-0.3 0.2,-0.3 0.1,-0.3 0.2,-0.4 0.1,-0.3 0.1,-0.3 0.2,-0.2 0.1,-0.1 0.2,-0.1 0.1,0 0.2,-0.1 0.1,0 0.2,0 0.1,0 0.1,-0.1 0.2,-0.1 0.1,-0.2 0.2,-0.2 0.1,-0.3 0.2,-0.3 0.1,-0.4 0.2,-0.3 0.1,-0.3 0.2,-0.3 0.1,-0.2 0.1,-0.2 0.2,-0.1 0.1,-0.1 0.2,0 0.1,0 0.2,0 0.1,0 0.2,-0.1 0.1,-0.1 0.1,-0.1 0.2,-0.3 0.1,-0.2 0.2,-0.3 0.1,-0.4 0.2,-0.3 0.1,-0.3 0.2,-0.3 0.1,-0.3 0.1,-0.2 0.2,-0.2 0.1,0 0.2,-0.1 0.1,0 0.2,0 0.1,0 0.2,0 0.1,-0.1 0.2,-0.1 0.1,-0.2 0.1,-0.3 0.2,-0.3 0.1,-0.3 0.2,-0.3 0.1,-0.4 0.2,-0.3 0.1,-0.3 0.2,-0.2 0.1,-0.2 0.1,-0.1 0.2,0 0.1,-0.1 0.2,0 0.1,0 0.2,0 0.1,0 0.2,-0.1 0.1,-0.2 0.1,-0.2 0.2,-0.3 0.1,-0.3 0.2,-0.3 0.1,-0.4 0.2,-0.3 0.1,-0.3 0.2,-0.3 0.1,-0.2 0.2,-0.1 0.1,-0.1 0.1,0 0.2,0 0.1,0 0.2,0 0.1,-0.1 0.2,-0.1 0.1,-0.1 0.2,-0.2 0.1,-0.2 0.1,-0.3 0.3,-0.7 0.3,-0.6 0.3,-0.5 0.3,-0.3 0.2,-0.1 0.1,0 0.1,0 0.2,0 0.1,0 0.2,-0.1 0.1,-0.1 0.2,-0.2 0.1,-0.2 0.2,-0.2 0.1,-0.4 0.1,-0.3 0.2,-0.3 0.1,-0.4 0.2,-0.3 0.1,-0.2 0.2,-0.2 0.1,-0.1 0.2,-0.1 0.1,-0.1 0.1,0 0.2,0 0.1,0 0.2,0 0.1,-0.1 0.2,-0.1 0.1,-0.2 0.2,-0.3 0.1,-0.3 0.2,-0.3 0.1,-0.3 0.1,-0.4 0.2,-0.3 0.1,-0.3 0.2,-0.2 0.1,-0.2 0.2,-0.1 0.1,0 0.2,0 0.1,-0.1 h 0.01"
           id="path158" />
      </g>
    </g>
    <g
       transform="translate(95.994228,246.95969)"
       style="color:#000000;fill:none;stroke:#ffffff;stroke-width:1;stroke-linecap:butt;stroke-linejoin:miter"
       id="g160">
      <path
         style="stroke:#ffffff"
         inkscape:connector-curvature="0"
         d="m 37.3,16.7 0,405.7 537.7,0 0,-405.7 -537.7,0 z m 0,0 h 0.01"
         id="path162" />
    </g>
    <g
       id="g4374"
       style="fill:#ffffff"
       transform="matrix(0.52099119,0,0,0.52099119,384.94466,274.55208)">
      <g
         word-spacing="normal"
         letter-spacing="normal"
         font-size-adjust="none"
         font-stretch="normal"
         font-weight="normal"
         font-variant="normal"
         font-style="normal"
         stroke-miterlimit="10.433"
         xml:space="preserve"
         transform="matrix(1.0629921,0,0,-1.0629921,-186.02362,789.27165)"
         id="content"
         style="font-style:normal;font-variant:normal;font-weight:normal;font-stretch:normal;letter-spacing:normal;word-spacing:normal;text-anchor:start;fill:#ffffff;fill-opacity:1;fill-rule:evenodd;stroke:#000000;stroke-linecap:butt;stroke-linejoin:miter;stroke-miterlimit:10.43299961;stroke-opacity:1;stroke-dasharray:none;stroke-dashoffset:0"><path
           id="path4377"
           d="m 468.72,424.78 h 5.63 c -1.64,-7.38 -2.1,-9.52 -2.1,-12.85 0,-0.75 0,-2.09 0.41,-3.79 0.5,-2.19 1.05,-2.49 1.8,-2.49 0.98,0 2.03,0.89 2.03,1.89 0,0.3 0,0.41 -0.3,1.1 -1.44,3.59 -1.44,6.82 -1.44,8.22 0,2.64 0.35,5.34 0.89,7.92 h 5.69 c 0.64,0 2.44,0 2.44,1.7 0,1.19 -1.05,1.19 -2,1.19 h -16.69 c -1.09,0 -2.98,0 -5.17,-2.35 -1.75,-1.93 -3.05,-4.23 -3.05,-4.48 0,-0.05 0,-0.48 0.6,-0.48 0.4,0 0.5,0.18 0.79,0.59 2.46,3.83 5.35,3.83 6.33,3.83 h 2.85 c -1.6,-6.02 -4.29,-12.05 -6.38,-16.58 -0.41,-0.75 -0.41,-0.86 -0.41,-1.2 0,-0.96 0.8,-1.35 1.46,-1.35 1.5,0 1.89,1.39 2.48,3.24 0.71,2.29 0.71,2.39 1.35,4.89 z"
           style="fill:#ffffff;stroke-width:0"
           inkscape:connector-curvature="0" /></g>    </g>
    <g
       id="g4565"
       style="fill:#ffffff"
       transform="matrix(0.52099119,0,0,0.52099119,67.756764,275.56223)">
      <g
         id="g4567"
         transform="matrix(1.0629921,0,0,-1.0629921,-186.02362,789.27165)"
         xml:space="preserve"
         stroke-miterlimit="10.433"
         font-style="normal"
         font-variant="normal"
         font-weight="normal"
         font-stretch="normal"
         font-size-adjust="none"
         letter-spacing="normal"
         word-spacing="normal"
         style="font-style:normal;font-variant:normal;font-weight:normal;font-stretch:normal;letter-spacing:normal;word-spacing:normal;text-anchor:start;fill:#ffffff;fill-opacity:1;fill-rule:evenodd;stroke:#000000;stroke-linecap:butt;stroke-linejoin:miter;stroke-miterlimit:10.43299961;stroke-opacity:1;stroke-dasharray:none;stroke-dashoffset:0"><path
           d="m 488.35,417.65 0.16,0 0.16,0 0.15,0.01 0.08,0 0.08,0.01 0.07,0 0.08,0.01 0.07,0.01 0.07,0.01 0.07,0.02 0.07,0.02 0.07,0.02 0.06,0.02 0.06,0.02 0.06,0.03 0.05,0.03 0.06,0.04 0.05,0.03 0.04,0.05 0.04,0.04 0.04,0.05 0.02,0.03 0.02,0.03 0.01,0.03 0.02,0.03 0.01,0.03 0.02,0.03 0.01,0.04 0.01,0.03 0.01,0.04 0,0.04 0.01,0.04 0.01,0.04 0,0.04 0.01,0.04 0,0.05 0,0.04 c 0,1 -0.91,1 -1.75,1 h -26.96 c -0.84,0 -1.73,0 -1.73,-1 0,-1 0.89,-1 1.73,-1 z"
           id="path4569"
           style="fill:#ffffff;stroke-width:0"
           inkscape:connector-curvature="0" /><path
           d="m 507.48,424.78 h 5.62 c -1.64,-7.38 -2.09,-9.52 -2.09,-12.85 0,-0.75 0,-2.09 0.41,-3.79 0.5,-2.19 1.05,-2.49 1.8,-2.49 0.98,0 2.03,0.89 2.03,1.89 0,0.3 0,0.41 -0.3,1.1 -1.44,3.59 -1.44,6.82 -1.44,8.22 0,2.64 0.34,5.34 0.89,7.92 h 5.69 c 0.64,0 2.44,0 2.44,1.7 0,1.19 -1.05,1.19 -2,1.19 h -16.69 c -1.09,0 -2.98,0 -5.17,-2.35 -1.75,-1.93 -3.05,-4.23 -3.05,-4.48 0,-0.05 0,-0.48 0.59,-0.48 0.41,0 0.5,0.18 0.8,0.59 2.45,3.83 5.35,3.83 6.33,3.83 h 2.84 c -1.59,-6.02 -4.28,-12.05 -6.37,-16.58 -0.41,-0.75 -0.41,-0.86 -0.41,-1.2 0,-0.96 0.8,-1.35 1.46,-1.35 1.5,0 1.89,1.39 2.48,3.24 0.7,2.29 0.7,2.39 1.34,4.89 z"
           id="path4571"
           style="fill:#ffffff;stroke-width:0"
           inkscape:connector-curvature="0" /></g>    </g>
    <g
       id="g4767"
       style="fill:#ffffff"
       transform="matrix(0.47369066,0,0,0.47369066,421.18948,122.09853)">
      <g
         word-spacing="normal"
         letter-spacing="normal"
         font-size-adjust="none"
         font-stretch="normal"
         font-weight="normal"
         font-variant="normal"
         font-style="normal"
         stroke-miterlimit="10.433"
         xml:space="preserve"
         transform="matrix(1.0629921,0,0,-1.0629921,-186.02362,789.27165)"
         id="g4769"
         style="font-style:normal;font-variant:normal;font-weight:normal;font-stretch:normal;letter-spacing:normal;word-spacing:normal;text-anchor:start;fill:#ffc0cb;fill-opacity:1;fill-rule:evenodd;stroke:none"><path
           id="path4771"
           d="m 479.74,425.18 0.01,0.04 0.01,0.03 0.01,0.06 0.02,0.05 0.01,0.06 0.01,0.05 0.02,0.04 0.01,0.05 0.01,0.04 0.01,0.04 0,0.04 0.01,0.04 0.01,0.04 0.01,0.03 0,0.03 0.01,0.03 0,0.03 0.01,0.03 0,0.03 0.01,0.05 0,0.06 0,0.05 0,0.05 0.01,0.05 0,0.03 0,0.03 0,0.03 0,0.03 c 0,0.91 -0.69,1.35 -1.44,1.35 -0.5,0 -1.3,-0.3 -1.75,-1.05 -0.1,-0.25 -0.5,-1.78 -0.69,-2.69 -0.36,-1.29 -0.7,-2.64 -1,-3.98 l -2.25,-8.97 c -0.19,-0.75 -2.33,-4.23 -5.62,-4.23 -2.54,0 -3.1,2.18 -3.1,4.03 0,2.29 0.86,5.39 2.55,9.76 0.8,2.05 1,2.6 1,3.6 0,2.23 -1.59,4.07 -4.09,4.07 -4.74,0 -6.58,-7.21 -6.58,-7.67 0,-0.5 0.5,-0.5 0.61,-0.5 0.5,0 0.54,0.11 0.79,0.91 1.35,4.69 3.33,6.17 5.03,6.17 0.4,0 1.25,0 1.25,-1.59 0,-1.25 -0.5,-2.53 -0.85,-3.49 -1.99,-5.28 -2.9,-8.12 -2.9,-10.47 0,-4.42 3.15,-5.92 6.08,-5.92 1.96,0 3.64,0.85 5.03,2.24 -0.64,-2.58 -1.23,-5.03 -3.23,-7.68 -1.3,-1.68 -3.19,-3.14 -5.48,-3.14 -0.69,0 -2.94,0.16 -3.79,2.1 0.8,0 1.46,0 2.14,0.61 0.5,0.43 1,1.09 1,2.03 0,1.55 -1.34,1.75 -1.84,1.75 -1.14,0 -2.8,-0.8 -2.8,-3.24 0,-2.5 2.21,-4.34 5.29,-4.34 5.14,0 10.26,4.55 11.67,10.17 z"
           style="fill:#ffc0cb;fill-opacity:1;stroke:none"
           inkscape:connector-curvature="0" /><path
           id="path4773"
           d="m 529.83,422.5 0.14,0 0.15,0 0.14,0 0.07,0.01 0.08,0 0.07,0.01 0.07,0.01 0.07,0.01 0.07,0.01 0.07,0.01 0.06,0.02 0.07,0.02 0.06,0.02 0.06,0.02 0.06,0.03 0.06,0.03 0.05,0.04 0.05,0.03 0.05,0.05 0.04,0.04 0.04,0.05 0.02,0.03 0.02,0.03 0.01,0.02 0.02,0.03 0.01,0.03 0.01,0.04 0.02,0.03 0.01,0.04 0.01,0.03 0.01,0.04 0,0.04 0.01,0.04 0,0.04 0.01,0.04 0,0.04 0,0.05 c 0,1 -0.95,1 -1.64,1 h -29.84 c -0.71,0 -1.65,0 -1.65,-1 0,-0.98 0.94,-0.98 1.69,-0.98 z"
           style="fill:#ffc0cb;fill-opacity:1;stroke:none"
           inkscape:connector-curvature="0" /><path
           id="path4775"
           d="m 529.88,412.82 0.06,0 0.07,0 0.14,0.01 0.14,0 0.07,0 0.07,0.01 0.06,0.01 0.07,0 0.07,0.01 0.07,0.02 0.07,0.01 0.06,0.02 0.07,0.02 0.06,0.02 0.06,0.02 0.05,0.03 0.06,0.03 0.05,0.04 0.05,0.04 0.05,0.04 0.04,0.05 0.02,0.02 0.02,0.03 0.02,0.02 0.02,0.03 0.01,0.03 0.02,0.03 0.01,0.03 0.01,0.03 0.02,0.04 0.01,0.03 0.01,0.04 0.01,0.04 0,0.04 0.01,0.04 0,0.04 0.01,0.04 0,0.05 0,0.04 c 0,1 -0.95,1 -1.69,1 h -29.75 c -0.75,0 -1.69,0 -1.69,-1 0,-1 0.94,-1 1.65,-1 z"
           style="fill:#ffc0cb;fill-opacity:1;stroke:none"
           inkscape:connector-curvature="0" /><path
           id="path4777"
           d="m 564.8,421.25 0.03,0.13 0.03,0.15 0.04,0.16 0.05,0.18 0.05,0.19 0.06,0.21 0.07,0.22 0.07,0.22 0.08,0.23 0.09,0.24 0.09,0.25 0.11,0.24 0.11,0.25 0.12,0.25 0.13,0.25 0.13,0.25 0.15,0.24 0.16,0.24 0.17,0.23 0.17,0.22 0.19,0.22 0.2,0.2 0.21,0.19 0.22,0.18 0.23,0.16 0.24,0.14 0.13,0.07 0.13,0.06 0.13,0.05 0.14,0.05 0.14,0.05 0.14,0.04 0.15,0.03 0.15,0.03 0.15,0.02 0.15,0.02 0.16,0.01 0.16,0 c 0.25,0 1.44,0 2.49,-0.64 -1.39,-0.25 -2.39,-1.5 -2.39,-2.69 0,-0.79 0.55,-1.75 1.89,-1.75 1.09,0 2.69,0.89 2.69,2.89 0,2.6 -2.94,3.28 -4.63,3.28 -2.89,0 -4.64,-2.64 -5.23,-3.78 -1.25,3.28 -3.94,3.78 -5.38,3.78 -5.19,0 -8.03,-6.42 -8.03,-7.67 0,-0.5 0.5,-0.5 0.61,-0.5 0.39,0 0.55,0.11 0.64,0.55 1.69,5.28 4.99,6.53 6.67,6.53 0.96,0 2.69,-0.44 2.69,-3.33 0,-1.54 -0.84,-4.89 -2.69,-11.86 -0.79,-3.09 -2.53,-5.18 -4.73,-5.18 -0.3,0 -1.44,0 -2.49,0.65 1.25,0.24 2.35,1.28 2.35,2.69 0,1.34 -1.1,1.73 -1.85,1.73 -1.5,0 -2.75,-1.29 -2.75,-2.89 0,-2.28 2.5,-3.28 4.69,-3.28 3.3,0 5.08,3.49 5.24,3.78 0.59,-1.84 2.39,-3.78 5.37,-3.78 5.14,0 7.99,6.42 7.99,7.67 0,0.5 -0.46,0.5 -0.61,0.5 -0.44,0 -0.55,-0.2 -0.65,-0.54 -1.64,-5.33 -5.03,-6.53 -6.62,-6.53 -1.95,0 -2.75,1.59 -2.75,3.29 0,1.1 0.3,2.19 0.86,4.38 z"
           style="fill:#ffc0cb;fill-opacity:1;stroke:none"
           inkscape:connector-curvature="0" /></g>    </g>
    <g
       id="g4985"
       style="fill:#add8e6;fill-opacity:1"
       transform="matrix(0.47369066,0,0,0.47369066,194.06066,202.18369)">
      <g
         id="g4987"
         transform="matrix(1.0629921,0,0,-1.0629921,-186.02362,789.27165)"
         xml:space="preserve"
         stroke-miterlimit="10.433"
         font-style="normal"
         font-variant="normal"
         font-weight="normal"
         font-stretch="normal"
         font-size-adjust="none"
         letter-spacing="normal"
         word-spacing="normal"
         style="font-style:normal;font-variant:normal;font-weight:normal;font-stretch:normal;letter-spacing:normal;word-spacing:normal;text-anchor:start;fill:#add8e6;fill-opacity:1;fill-rule:evenodd;stroke:#000000;stroke-linecap:butt;stroke-linejoin:miter;stroke-miterlimit:10.43299961;stroke-opacity:1;stroke-dasharray:none;stroke-dashoffset:0"><path
           d="m 479.74,425.18 0.01,0.04 0.01,0.03 0.01,0.06 0.02,0.05 0.01,0.06 0.01,0.05 0.02,0.04 0.01,0.05 0.01,0.04 0.01,0.04 0,0.04 0.01,0.04 0.01,0.04 0.01,0.03 0,0.03 0.01,0.03 0,0.03 0.01,0.03 0,0.03 0.01,0.05 0,0.06 0,0.05 0,0.05 0.01,0.05 0,0.03 0,0.03 0,0.03 0,0.03 c 0,0.91 -0.69,1.35 -1.44,1.35 -0.5,0 -1.3,-0.3 -1.75,-1.05 -0.1,-0.25 -0.5,-1.78 -0.69,-2.69 -0.36,-1.29 -0.7,-2.64 -1,-3.98 l -2.25,-8.97 c -0.19,-0.75 -2.33,-4.23 -5.62,-4.23 -2.54,0 -3.1,2.18 -3.1,4.03 0,2.29 0.86,5.39 2.55,9.76 0.8,2.05 1,2.6 1,3.6 0,2.23 -1.59,4.07 -4.09,4.07 -4.74,0 -6.58,-7.21 -6.58,-7.67 0,-0.5 0.5,-0.5 0.61,-0.5 0.5,0 0.54,0.11 0.79,0.91 1.35,4.69 3.33,6.17 5.03,6.17 0.4,0 1.25,0 1.25,-1.59 0,-1.25 -0.5,-2.53 -0.85,-3.49 -1.99,-5.28 -2.9,-8.12 -2.9,-10.47 0,-4.42 3.15,-5.92 6.08,-5.92 1.96,0 3.64,0.85 5.03,2.24 -0.64,-2.58 -1.23,-5.03 -3.23,-7.68 -1.3,-1.68 -3.19,-3.14 -5.48,-3.14 -0.69,0 -2.94,0.16 -3.79,2.1 0.8,0 1.46,0 2.14,0.61 0.5,0.43 1,1.09 1,2.03 0,1.55 -1.34,1.75 -1.84,1.75 -1.14,0 -2.8,-0.8 -2.8,-3.24 0,-2.5 2.21,-4.34 5.29,-4.34 5.14,0 10.26,4.55 11.67,10.17 z"
           id="path4989"
           style="fill:#add8e6;fill-opacity:1;stroke-width:0"
           inkscape:connector-curvature="0" /><path
           d="m 529.83,422.5 0.14,0 0.15,0 0.14,0 0.07,0.01 0.08,0 0.07,0.01 0.07,0.01 0.07,0.01 0.07,0.01 0.07,0.01 0.06,0.02 0.07,0.02 0.06,0.02 0.06,0.02 0.06,0.03 0.06,0.03 0.05,0.04 0.05,0.03 0.05,0.05 0.04,0.04 0.04,0.05 0.02,0.03 0.02,0.03 0.01,0.02 0.02,0.03 0.01,0.03 0.01,0.04 0.02,0.03 0.01,0.04 0.01,0.03 0.01,0.04 0,0.04 0.01,0.04 0,0.04 0.01,0.04 0,0.04 0,0.05 c 0,1 -0.95,1 -1.64,1 h -29.84 c -0.71,0 -1.65,0 -1.65,-1 0,-0.98 0.94,-0.98 1.69,-0.98 z"
           id="path4991"
           style="fill:#add8e6;fill-opacity:1;stroke-width:0"
           inkscape:connector-curvature="0" /><path
           d="m 529.88,412.82 0.06,0 0.07,0 0.14,0.01 0.14,0 0.07,0 0.07,0.01 0.06,0.01 0.07,0 0.07,0.01 0.07,0.02 0.07,0.01 0.06,0.02 0.07,0.02 0.06,0.02 0.06,0.02 0.05,0.03 0.06,0.03 0.05,0.04 0.05,0.04 0.05,0.04 0.04,0.05 0.02,0.02 0.02,0.03 0.02,0.02 0.02,0.03 0.01,0.03 0.02,0.03 0.01,0.03 0.01,0.03 0.02,0.04 0.01,0.03 0.01,0.04 0.01,0.04 0,0.04 0.01,0.04 0,0.04 0.01,0.04 0,0.05 0,0.04 c 0,1 -0.95,1 -1.69,1 h -29.75 c -0.75,0 -1.69,0 -1.69,-1 0,-1 0.94,-1 1.65,-1 z"
           id="path4993"
           style="fill:#add8e6;fill-opacity:1;stroke-width:0"
           inkscape:connector-curvature="0" /><path
           d="m 584.47,455.25 -0.46,-0.38 -0.46,-0.36 -0.47,-0.35 -0.47,-0.33 -0.47,-0.31 -0.48,-0.29 -0.48,-0.27 -0.48,-0.24 -0.24,-0.12 -0.24,-0.11 -0.24,-0.1 -0.24,-0.09 -0.24,-0.09 -0.25,-0.08 -0.24,-0.08 -0.24,-0.07 -0.24,-0.06 -0.24,-0.05 -0.24,-0.05 -0.24,-0.03 -0.24,-0.03 -0.24,-0.02 -0.24,-0.02 -0.24,0 c -1.99,0 -3.44,0.84 -5.17,1.84 -1.46,0.85 -3,1.69 -4.99,1.69 -1.25,0 -2.54,-0.39 -3.64,-0.89 -1,-0.5 -2,-1.05 -2.84,-1.75 l -2.69,-2.19 0.7,-0.84 c 2.44,2.03 5.08,3.53 7.61,3.53 2,0 3.45,-0.84 5.19,-1.84 1.45,-0.85 2.98,-1.69 4.98,-1.69 1.25,0 2.55,0.39 3.65,0.89 0.98,0.5 1.98,1.05 2.82,1.75 l 2.71,2.19 z"
           id="path4995"
           style="fill:#add8e6;fill-opacity:1;stroke-width:0"
           inkscape:connector-curvature="0" /><path
           d="m 566.44,426.12 h 4.28 c 1,0 1.5,0 1.5,1 0,0.55 -0.5,0.55 -1.34,0.55 h -4.14 l 1.04,5.69 c 0.21,1.04 0.91,4.57 1.21,5.17 0.45,0.95 1.29,1.7 2.34,1.7 0.19,0 1.49,0 2.44,-0.91 -2.19,-0.18 -2.69,-1.93 -2.69,-2.68 0,-1.14 0.89,-1.74 1.85,-1.74 1.29,0 2.73,1.1 2.73,2.99 0,2.29 -2.3,3.43 -4.33,3.43 -1.7,0 -4.84,-0.89 -6.33,-5.82 -0.29,-1.05 -0.45,-1.55 -1.64,-7.83 h -3.43 c -0.96,0 -1.5,0 -1.5,-0.94 0,-0.61 0.45,-0.61 1.39,-0.61 h 3.29 l -3.75,-19.67 c -0.89,-4.83 -1.73,-9.38 -4.33,-9.38 -0.2,0 -1.43,0 -2.38,0.91 2.29,0.14 2.73,1.94 2.73,2.69 0,1.14 -0.89,1.75 -1.85,1.75 -1.29,0 -2.73,-1.1 -2.73,-3 0,-2.24 2.19,-3.44 4.23,-3.44 2.74,0 4.74,2.94 5.63,4.84 1.59,3.14 2.75,9.16 2.8,9.52 z"
           id="path4997"
           style="fill:#add8e6;fill-opacity:1;stroke-width:0"
           inkscape:connector-curvature="0" /><path
           d="m 584.19,420.92 0,0.04 0,0.04 0,0.05 0,0.04 0,0.03 0,0.04 0,0.04 0,0.03 -0.01,0.04 0,0.03 0,0.03 0,0.03 0,0.03 -0.01,0.03 0,0.03 0,0.02 -0.01,0.03 0,0.02 -0.01,0.03 0,0.02 -0.02,0.04 -0.01,0.04 -0.02,0.03 -0.02,0.03 -0.02,0.03 -0.02,0.03 -0.03,0.02 -0.03,0.02 -0.03,0.02 -0.04,0.01 -0.04,0.01 -0.05,0.02 -0.02,0 -0.02,0 -0.03,0.01 -0.03,0 -0.02,0.01 -0.03,0 -0.03,0 -0.03,0 -0.03,0 -0.04,0.01 -0.03,0 -0.04,0 -0.03,0 -0.04,0 -0.04,0 -0.04,0 -0.04,0 -0.05,0 -0.04,0 -0.04,0 c -2.24,-2.2 -5.4,-2.23 -6.83,-2.23 v -1.25 c 0.84,0 3.14,0 5.04,0.97 v -17.77 c 0,-1.16 0,-1.61 -3.48,-1.61 h -1.31 v -1.25 c 0.62,0.03 4.9,0.14 6.2,0.14 1.08,0 5.47,-0.11 6.23,-0.14 v 1.25 h -1.32 c -3.49,0 -3.49,0.45 -3.49,1.61 z"
           id="path4999"
           style="fill:#add8e6;fill-opacity:1;stroke-width:0"
           inkscape:connector-curvature="0" /><path
           d="m 610.3,409.87 0,0.71 -0.02,0.68 -0.03,0.66 -0.04,0.64 -0.06,0.62 -0.08,0.6 -0.09,0.57 -0.11,0.56 -0.12,0.55 -0.15,0.53 -0.17,0.51 -0.19,0.5 -0.21,0.49 -0.24,0.48 -0.26,0.47 -0.14,0.23 -0.15,0.23 c -1.08,1.61 -3.24,3 -6.03,3 v -0.98 c 1.89,0 3.7,-1.14 4.32,-3.17 0.57,-1.88 0.6,-4.39 0.6,-7.43 0,-2.57 0,-5.15 -0.45,-7.34 -0.71,-3.17 -3.07,-3.94 -4.47,-3.94 h 0 c -1.6,0 -3.72,0.94 -4.43,3.8 -0.48,2.05 -0.48,4.91 -0.48,7.48 0,2.55 0,5.21 0.52,7.11 0.73,2.75 2.96,3.49 4.39,3.49 v 0.98 c -8.08,0 -8.08,-9.51 -8.08,-12.03 0,-2.5 0,-11.81 8.08,-11.81 8.09,0 8.09,9.31 8.09,11.81 z"
           id="path5001"
           style="fill:#add8e6;fill-opacity:1;stroke-width:0"
           inkscape:connector-curvature="0" /><path
           d="m 631.25,394.25 0,0.02 -0.01,0.03 0,0.01 0,0.02 0,0.01 -0.01,0.02 0,0.01 -0.01,0.02 -0.01,0.02 -0.01,0.02 -0.01,0.02 -0.01,0.03 -0.02,0.02 -0.02,0.03 -0.02,0.03 -0.02,0.03 -0.03,0.03 -0.03,0.04 -0.02,0.02 -0.01,0.02 -0.02,0.02 -0.02,0.02 -0.02,0.02 -0.02,0.03 -0.02,0.02 -0.02,0.02 -0.02,0.03 -0.03,0.02 -0.02,0.03 -0.03,0.03 -0.02,0.03 -0.03,0.03 -0.03,0.03 -0.03,0.03 -0.03,0.03 -0.03,0.03 -0.04,0.04 -0.03,0.03 -0.03,0.04 -0.04,0.03 -0.04,0.04 -0.04,0.04 c -6.22,6.28 -7.81,15.69 -7.81,23.31 0,8.67 1.89,17.35 8.01,23.56 0.65,0.61 0.65,0.71 0.65,0.86 0,0.35 -0.19,0.49 -0.49,0.49 -0.5,0 -4.98,-3.38 -7.92,-9.7 -2.55,-5.49 -3.14,-11.02 -3.14,-15.21 0,-3.89 0.55,-9.9 3.28,-15.54 2.99,-6.13 7.28,-9.36 7.78,-9.36 0.3,0 0.49,0.14 0.49,0.5 z"
           id="path5003"
           style="fill:#add8e6;fill-opacity:1;stroke-width:0"
           inkscape:connector-curvature="0" /><path
           d="m 650.72,421.25 0.03,0.13 0.03,0.15 0.05,0.16 0.04,0.18 0.06,0.19 0.05,0.21 0.07,0.22 0.07,0.22 0.08,0.23 0.09,0.24 0.1,0.25 0.1,0.24 0.11,0.25 0.12,0.25 0.13,0.25 0.14,0.25 0.14,0.24 0.16,0.24 0.17,0.23 0.17,0.22 0.19,0.22 0.2,0.2 0.21,0.19 0.22,0.18 0.23,0.16 0.25,0.14 0.12,0.07 0.13,0.06 0.14,0.05 0.13,0.05 0.14,0.05 0.14,0.04 0.15,0.03 0.15,0.03 0.15,0.02 0.15,0.02 0.16,0.01 0.17,0 c 0.25,0 1.43,0 2.48,-0.64 -1.39,-0.25 -2.39,-1.5 -2.39,-2.69 0,-0.79 0.55,-1.75 1.89,-1.75 1.09,0 2.69,0.89 2.69,2.89 0,2.6 -2.94,3.28 -4.63,3.28 -2.89,0 -4.64,-2.64 -5.23,-3.78 -1.25,3.28 -3.94,3.78 -5.38,3.78 -5.18,0 -8.03,-6.42 -8.03,-7.67 0,-0.5 0.5,-0.5 0.61,-0.5 0.39,0 0.55,0.11 0.64,0.55 1.69,5.28 4.99,6.53 6.67,6.53 0.96,0 2.69,-0.44 2.69,-3.33 0,-1.54 -0.84,-4.89 -2.69,-11.86 -0.79,-3.09 -2.53,-5.18 -4.73,-5.18 -0.3,0 -1.44,0 -2.48,0.65 1.25,0.24 2.34,1.28 2.34,2.69 0,1.34 -1.09,1.73 -1.84,1.73 -1.5,0 -2.75,-1.29 -2.75,-2.89 0,-2.28 2.5,-3.28 4.68,-3.28 3.3,0 5.08,3.49 5.24,3.78 0.59,-1.84 2.39,-3.78 5.37,-3.78 5.14,0 7.99,6.42 7.99,7.67 0,0.5 -0.46,0.5 -0.61,0.5 -0.44,0 -0.55,-0.2 -0.64,-0.54 -1.64,-5.33 -5.03,-6.53 -6.63,-6.53 -1.95,0 -2.75,1.59 -2.75,3.29 0,1.1 0.3,2.19 0.86,4.38 z"
           id="path5005"
           style="fill:#add8e6;fill-opacity:1;stroke-width:0"
           inkscape:connector-curvature="0" /><path
           d="m 676.91,418.65 -0.01,0.37 0,0.39 -0.01,0.39 -0.01,0.41 -0.04,0.84 -0.06,0.88 -0.08,0.92 -0.11,0.95 -0.14,0.97 -0.16,1.01 -0.2,1.02 -0.23,1.03 -0.26,1.05 -0.31,1.06 -0.35,1.07 -0.39,1.07 -0.21,0.53 -0.23,0.53 -0.24,0.53 -0.25,0.53 c -2.98,6.12 -7.26,9.36 -7.76,9.36 -0.3,0 -0.5,-0.19 -0.5,-0.49 0,-0.15 0,-0.25 0.94,-1.15 4.89,-4.92 7.73,-12.85 7.73,-23.27 0,-8.51 -1.84,-17.28 -8.03,-23.56 -0.64,-0.59 -0.64,-0.7 -0.64,-0.84 0,-0.3 0.2,-0.5 0.5,-0.5 0.5,0 4.97,3.39 7.92,9.71 2.53,5.47 3.13,11 3.13,15.19 z"
           id="path5007"
           style="fill:#add8e6;fill-opacity:1;stroke-width:0"
           inkscape:connector-curvature="0" /></g>    </g>
    <g
       id="g5239"
       style="fill:#90ee90;fill-opacity:1"
       transform="matrix(0.47369066,0,0,0.47369066,237.68597,143.22268)">
      <g
         word-spacing="normal"
         letter-spacing="normal"
         font-size-adjust="none"
         font-stretch="normal"
         font-weight="normal"
         font-variant="normal"
         font-style="normal"
         stroke-miterlimit="10.433"
         xml:space="preserve"
         transform="matrix(1.0629921,0,0,-1.0629921,-186.02362,789.27165)"
         id="g5241"
         style="font-style:normal;font-variant:normal;font-weight:normal;font-stretch:normal;letter-spacing:normal;word-spacing:normal;text-anchor:start;fill:#90ee90;fill-opacity:1;fill-rule:evenodd;stroke:#000000;stroke-linecap:butt;stroke-linejoin:miter;stroke-miterlimit:10.43299961;stroke-opacity:1;stroke-dasharray:none;stroke-dashoffset:0"><path
           id="path5243"
           d="m 479.74,425.18 0.01,0.04 0.01,0.03 0.01,0.06 0.02,0.05 0.01,0.06 0.01,0.05 0.02,0.04 0.01,0.05 0.01,0.04 0.01,0.04 0,0.04 0.01,0.04 0.01,0.04 0.01,0.03 0,0.03 0.01,0.03 0,0.03 0.01,0.03 0,0.03 0.01,0.05 0,0.06 0,0.05 0,0.05 0.01,0.05 0,0.03 0,0.03 0,0.03 0,0.03 c 0,0.91 -0.69,1.35 -1.44,1.35 -0.5,0 -1.3,-0.3 -1.75,-1.05 -0.1,-0.25 -0.5,-1.78 -0.69,-2.69 -0.36,-1.29 -0.7,-2.64 -1,-3.98 l -2.25,-8.97 c -0.19,-0.75 -2.33,-4.23 -5.62,-4.23 -2.54,0 -3.1,2.18 -3.1,4.03 0,2.29 0.86,5.39 2.55,9.76 0.8,2.05 1,2.6 1,3.6 0,2.23 -1.59,4.07 -4.09,4.07 -4.74,0 -6.58,-7.21 -6.58,-7.67 0,-0.5 0.5,-0.5 0.61,-0.5 0.5,0 0.54,0.11 0.79,0.91 1.35,4.69 3.33,6.17 5.03,6.17 0.4,0 1.25,0 1.25,-1.59 0,-1.25 -0.5,-2.53 -0.85,-3.49 -1.99,-5.28 -2.9,-8.12 -2.9,-10.47 0,-4.42 3.15,-5.92 6.08,-5.92 1.96,0 3.64,0.85 5.03,2.24 -0.64,-2.58 -1.23,-5.03 -3.23,-7.68 -1.3,-1.68 -3.19,-3.14 -5.48,-3.14 -0.69,0 -2.94,0.16 -3.79,2.1 0.8,0 1.46,0 2.14,0.61 0.5,0.43 1,1.09 1,2.03 0,1.55 -1.34,1.75 -1.84,1.75 -1.14,0 -2.8,-0.8 -2.8,-3.24 0,-2.5 2.21,-4.34 5.29,-4.34 5.14,0 10.26,4.55 11.67,10.17 z"
           style="fill:#90ee90;fill-opacity:1;stroke-width:0"
           inkscape:connector-curvature="0" /><path
           id="path5245"
           d="m 529.83,422.5 0.14,0 0.15,0 0.14,0 0.07,0.01 0.08,0 0.07,0.01 0.07,0.01 0.07,0.01 0.07,0.01 0.07,0.01 0.06,0.02 0.07,0.02 0.06,0.02 0.06,0.02 0.06,0.03 0.06,0.03 0.05,0.04 0.05,0.03 0.05,0.05 0.04,0.04 0.04,0.05 0.02,0.03 0.02,0.03 0.01,0.02 0.02,0.03 0.01,0.03 0.01,0.04 0.02,0.03 0.01,0.04 0.01,0.03 0.01,0.04 0,0.04 0.01,0.04 0,0.04 0.01,0.04 0,0.04 0,0.05 c 0,1 -0.95,1 -1.64,1 h -29.84 c -0.71,0 -1.65,0 -1.65,-1 0,-0.98 0.94,-0.98 1.69,-0.98 z"
           style="fill:#90ee90;fill-opacity:1;stroke-width:0"
           inkscape:connector-curvature="0" /><path
           id="path5247"
           d="m 529.88,412.82 0.06,0 0.07,0 0.14,0.01 0.14,0 0.07,0 0.07,0.01 0.06,0.01 0.07,0 0.07,0.01 0.07,0.02 0.07,0.01 0.06,0.02 0.07,0.02 0.06,0.02 0.06,0.02 0.05,0.03 0.06,0.03 0.05,0.04 0.05,0.04 0.05,0.04 0.04,0.05 0.02,0.02 0.02,0.03 0.02,0.02 0.02,0.03 0.01,0.03 0.02,0.03 0.01,0.03 0.01,0.03 0.02,0.04 0.01,0.03 0.01,0.04 0.01,0.04 0,0.04 0.01,0.04 0,0.04 0.01,0.04 0,0.05 0,0.04 c 0,1 -0.95,1 -1.69,1 h -29.75 c -0.75,0 -1.69,0 -1.69,-1 0,-1 0.94,-1 1.65,-1 z"
           style="fill:#90ee90;fill-opacity:1;stroke-width:0"
           inkscape:connector-curvature="0" /><path
           id="path5249"
           d="m 584.47,455.25 -0.46,-0.38 -0.46,-0.36 -0.47,-0.35 -0.47,-0.33 -0.47,-0.31 -0.48,-0.29 -0.48,-0.27 -0.48,-0.24 -0.24,-0.12 -0.24,-0.11 -0.24,-0.1 -0.24,-0.09 -0.24,-0.09 -0.25,-0.08 -0.24,-0.08 -0.24,-0.07 -0.24,-0.06 -0.24,-0.05 -0.24,-0.05 -0.24,-0.03 -0.24,-0.03 -0.24,-0.02 -0.24,-0.02 -0.24,0 c -1.99,0 -3.44,0.84 -5.17,1.84 -1.46,0.85 -3,1.69 -4.99,1.69 -1.25,0 -2.54,-0.39 -3.64,-0.89 -1,-0.5 -2,-1.05 -2.84,-1.75 l -2.69,-2.19 0.7,-0.84 c 2.44,2.03 5.08,3.53 7.61,3.53 2,0 3.45,-0.84 5.19,-1.84 1.45,-0.85 2.98,-1.69 4.98,-1.69 1.25,0 2.55,0.39 3.65,0.89 0.98,0.5 1.98,1.05 2.82,1.75 l 2.71,2.19 z"
           style="fill:#90ee90;fill-opacity:1;stroke-width:0"
           inkscape:connector-curvature="0" /><path
           id="path5251"
           d="m 566.44,426.12 h 4.28 c 1,0 1.5,0 1.5,1 0,0.55 -0.5,0.55 -1.34,0.55 h -4.14 l 1.04,5.69 c 0.21,1.04 0.91,4.57 1.21,5.17 0.45,0.95 1.29,1.7 2.34,1.7 0.19,0 1.49,0 2.44,-0.91 -2.19,-0.18 -2.69,-1.93 -2.69,-2.68 0,-1.14 0.89,-1.74 1.85,-1.74 1.29,0 2.73,1.1 2.73,2.99 0,2.29 -2.3,3.43 -4.33,3.43 -1.7,0 -4.84,-0.89 -6.33,-5.82 -0.29,-1.05 -0.45,-1.55 -1.64,-7.83 h -3.43 c -0.96,0 -1.5,0 -1.5,-0.94 0,-0.61 0.45,-0.61 1.39,-0.61 h 3.29 l -3.75,-19.67 c -0.89,-4.83 -1.73,-9.38 -4.33,-9.38 -0.2,0 -1.43,0 -2.38,0.91 2.29,0.14 2.73,1.94 2.73,2.69 0,1.14 -0.89,1.75 -1.85,1.75 -1.29,0 -2.73,-1.1 -2.73,-3 0,-2.24 2.19,-3.44 4.23,-3.44 2.74,0 4.74,2.94 5.63,4.84 1.59,3.14 2.75,9.16 2.8,9.52 z"
           style="fill:#90ee90;fill-opacity:1;stroke-width:0"
           inkscape:connector-curvature="0" /><path
           id="path5253"
           d="m 584.19,420.92 0,0.04 0,0.04 0,0.05 0,0.04 0,0.03 0,0.04 0,0.04 0,0.03 -0.01,0.04 0,0.03 0,0.03 0,0.03 0,0.03 -0.01,0.03 0,0.03 0,0.02 -0.01,0.03 0,0.02 -0.01,0.03 0,0.02 -0.02,0.04 -0.01,0.04 -0.02,0.03 -0.02,0.03 -0.02,0.03 -0.02,0.03 -0.03,0.02 -0.03,0.02 -0.03,0.02 -0.04,0.01 -0.04,0.01 -0.05,0.02 -0.02,0 -0.02,0 -0.03,0.01 -0.03,0 -0.02,0.01 -0.03,0 -0.03,0 -0.03,0 -0.03,0 -0.04,0.01 -0.03,0 -0.04,0 -0.03,0 -0.04,0 -0.04,0 -0.04,0 -0.04,0 -0.05,0 -0.04,0 -0.04,0 c -2.24,-2.2 -5.4,-2.23 -6.83,-2.23 v -1.25 c 0.84,0 3.14,0 5.04,0.97 v -17.77 c 0,-1.16 0,-1.61 -3.48,-1.61 h -1.31 v -1.25 c 0.62,0.03 4.9,0.14 6.2,0.14 1.08,0 5.47,-0.11 6.23,-0.14 v 1.25 h -1.32 c -3.49,0 -3.49,0.45 -3.49,1.61 z"
           style="fill:#90ee90;fill-opacity:1;stroke-width:0"
           inkscape:connector-curvature="0" /><path
           id="path5255"
           d="m 610.3,409.87 0,0.71 -0.02,0.68 -0.03,0.66 -0.04,0.64 -0.06,0.62 -0.08,0.6 -0.09,0.57 -0.11,0.56 -0.12,0.55 -0.15,0.53 -0.17,0.51 -0.19,0.5 -0.21,0.49 -0.24,0.48 -0.26,0.47 -0.14,0.23 -0.15,0.23 c -1.08,1.61 -3.24,3 -6.03,3 v -0.98 c 1.89,0 3.7,-1.14 4.32,-3.17 0.57,-1.88 0.6,-4.39 0.6,-7.43 0,-2.57 0,-5.15 -0.45,-7.34 -0.71,-3.17 -3.07,-3.94 -4.47,-3.94 h 0 c -1.6,0 -3.72,0.94 -4.43,3.8 -0.48,2.05 -0.48,4.91 -0.48,7.48 0,2.55 0,5.21 0.52,7.11 0.73,2.75 2.96,3.49 4.39,3.49 v 0.98 c -8.08,0 -8.08,-9.51 -8.08,-12.03 0,-2.5 0,-11.81 8.08,-11.81 8.09,0 8.09,9.31 8.09,11.81 z"
           style="fill:#90ee90;fill-opacity:1;stroke-width:0"
           inkscape:connector-curvature="0" /><path
           id="path5257"
           d="m 630.1,409.87 -0.01,0.71 -0.01,0.68 -0.03,0.66 -0.05,0.64 -0.06,0.62 -0.07,0.6 -0.09,0.57 -0.11,0.56 -0.13,0.55 -0.14,0.53 -0.17,0.51 -0.19,0.5 -0.22,0.49 -0.23,0.48 -0.27,0.47 -0.14,0.23 -0.15,0.23 c -1.07,1.61 -3.23,3 -6.03,3 v -0.98 c 1.9,0 3.71,-1.14 4.33,-3.17 0.57,-1.88 0.6,-4.39 0.6,-7.43 0,-2.57 0,-5.15 -0.46,-7.34 -0.7,-3.17 -3.06,-3.94 -4.47,-3.94 h 0 c -1.59,0 -3.72,0.94 -4.42,3.8 -0.48,2.05 -0.48,4.91 -0.48,7.48 0,2.55 0,5.21 0.51,7.11 0.74,2.75 2.97,3.49 4.39,3.49 v 0.98 c -8.07,0 -8.07,-9.51 -8.07,-12.03 0,-2.5 0,-11.81 8.07,-11.81 8.1,0 8.1,9.31 8.1,11.81 z"
           style="fill:#90ee90;fill-opacity:1;stroke-width:0"
           inkscape:connector-curvature="0" /><path
           id="path5259"
           d="m 651.16,394.25 0,0.02 0,0.03 0,0.01 0,0.02 0,0.01 -0.01,0.02 0,0.01 -0.01,0.02 -0.01,0.02 -0.01,0.02 -0.01,0.02 -0.02,0.03 -0.01,0.02 -0.02,0.03 -0.02,0.03 -0.03,0.03 -0.02,0.03 -0.03,0.04 -0.02,0.02 -0.01,0.02 -0.02,0.02 -0.02,0.02 -0.02,0.02 -0.02,0.03 -0.02,0.02 -0.02,0.02 -0.02,0.03 -0.03,0.02 -0.02,0.03 -0.03,0.03 -0.03,0.03 -0.02,0.03 -0.03,0.03 -0.03,0.03 -0.03,0.03 -0.03,0.03 -0.04,0.04 -0.03,0.03 -0.04,0.04 -0.03,0.03 -0.04,0.04 -0.04,0.04 c -6.22,6.28 -7.81,15.69 -7.81,23.31 0,8.67 1.89,17.35 8.01,23.56 0.64,0.61 0.64,0.71 0.64,0.86 0,0.35 -0.18,0.49 -0.48,0.49 -0.5,0 -4.98,-3.38 -7.92,-9.7 -2.55,-5.49 -3.14,-11.02 -3.14,-15.21 0,-3.89 0.54,-9.9 3.28,-15.54 2.98,-6.13 7.28,-9.36 7.78,-9.36 0.3,0 0.48,0.14 0.48,0.5 z"
           style="fill:#90ee90;fill-opacity:1;stroke-width:0"
           inkscape:connector-curvature="0" /><path
           id="path5261"
           d="m 670.64,421.25 0.03,0.13 0.03,0.15 0.04,0.16 0.05,0.18 0.05,0.19 0.06,0.21 0.07,0.22 0.07,0.22 0.08,0.23 0.09,0.24 0.09,0.25 0.11,0.24 0.11,0.25 0.12,0.25 0.13,0.25 0.13,0.25 0.15,0.24 0.16,0.24 0.17,0.23 0.17,0.22 0.19,0.22 0.2,0.2 0.21,0.19 0.22,0.18 0.23,0.16 0.24,0.14 0.13,0.07 0.13,0.06 0.13,0.05 0.14,0.05 0.14,0.05 0.14,0.04 0.15,0.03 0.15,0.03 0.15,0.02 0.15,0.02 0.16,0.01 0.16,0 c 0.25,0 1.44,0 2.49,-0.64 -1.39,-0.25 -2.39,-1.5 -2.39,-2.69 0,-0.79 0.55,-1.75 1.89,-1.75 1.09,0 2.69,0.89 2.69,2.89 0,2.6 -2.94,3.28 -4.63,3.28 -2.89,0 -4.64,-2.64 -5.23,-3.78 -1.25,3.28 -3.94,3.78 -5.38,3.78 -5.19,0 -8.03,-6.42 -8.03,-7.67 0,-0.5 0.5,-0.5 0.61,-0.5 0.39,0 0.55,0.11 0.64,0.55 1.69,5.28 4.99,6.53 6.67,6.53 0.95,0 2.69,-0.44 2.69,-3.33 0,-1.54 -0.84,-4.89 -2.69,-11.86 -0.8,-3.09 -2.53,-5.18 -4.73,-5.18 -0.3,0 -1.44,0 -2.49,0.65 1.25,0.24 2.35,1.28 2.35,2.69 0,1.34 -1.1,1.73 -1.85,1.73 -1.5,0 -2.75,-1.29 -2.75,-2.89 0,-2.28 2.5,-3.28 4.69,-3.28 3.3,0 5.08,3.49 5.23,3.78 0.6,-1.84 2.4,-3.78 5.38,-3.78 5.14,0 7.99,6.42 7.99,7.67 0,0.5 -0.46,0.5 -0.62,0.5 -0.43,0 -0.54,-0.2 -0.63,-0.54 -1.65,-5.33 -5.04,-6.53 -6.63,-6.53 -1.95,0 -2.75,1.59 -2.75,3.29 0,1.1 0.3,2.19 0.86,4.38 z"
           style="fill:#90ee90;fill-opacity:1;stroke-width:0"
           inkscape:connector-curvature="0" /><path
           id="path5263"
           d="m 696.82,418.65 0,0.37 0,0.39 -0.01,0.39 -0.01,0.41 -0.04,0.84 -0.06,0.88 -0.09,0.92 -0.1,0.95 -0.14,0.97 -0.16,1.01 -0.2,1.02 -0.23,1.03 -0.26,1.05 -0.31,1.06 -0.35,1.07 -0.39,1.07 -0.21,0.53 -0.23,0.53 -0.24,0.53 -0.25,0.53 c -2.98,6.12 -7.26,9.36 -7.76,9.36 -0.3,0 -0.5,-0.19 -0.5,-0.49 0,-0.15 0,-0.25 0.94,-1.15 4.88,-4.92 7.73,-12.85 7.73,-23.27 0,-8.51 -1.85,-17.28 -8.03,-23.56 -0.64,-0.59 -0.64,-0.7 -0.64,-0.84 0,-0.3 0.2,-0.5 0.5,-0.5 0.5,0 4.97,3.39 7.92,9.71 2.53,5.47 3.12,11 3.12,15.19 z"
           style="fill:#90ee90;fill-opacity:1;stroke-width:0"
           inkscape:connector-curvature="0" /></g>    </g>
    <path
       style="fill:none;stroke:#90ee90;stroke-width:1px;stroke-linecap:butt;stroke-linejoin:miter;stroke-opacity:1"
       d="M 512.14734,337.17418 C 501.03566,320.00159 500.02551,320.00159 500.02551,320.00159"
       id="path5392"
       inkscape:connector-curvature="0" />
    <path
       style="fill:none;stroke:#add8e6;stroke-width:1px;stroke-linecap:butt;stroke-linejoin:miter;stroke-opacity:1"
       d="m 452.54834,365.45845 17.17259,9.09137"
       id="path5394"
       inkscape:connector-curvature="0" />
  </g>
</svg>
