<?xml version="1.0" encoding="UTF-8" standalone="no"?>
<!-- Created with Inkscape (http://www.inkscape.org/) -->

<svg
   xmlns:dc="http://purl.org/dc/elements/1.1/"
   xmlns:cc="http://creativecommons.org/ns#"
   xmlns:rdf="http://www.w3.org/1999/02/22-rdf-syntax-ns#"
   xmlns:svg="http://www.w3.org/2000/svg"
   xmlns="http://www.w3.org/2000/svg"
   xmlns:sodipodi="http://sodipodi.sourceforge.net/DTD/sodipodi-0.dtd"
   xmlns:inkscape="http://www.inkscape.org/namespaces/inkscape"
   width="210mm"
   height="297mm"
   id="svg3038"
   version="1.1"
   inkscape:version="0.48.3.1 r9886"
   sodipodi:docname="新規ドキュメント 2">
  <sodipodi:namedview
     id="base"
     pagecolor="#000000"
     bordercolor="#666666"
     borderopacity="1.0"
     inkscape:pageopacity="1"
     inkscape:pageshadow="2"
     inkscape:zoom="0.98994949"
     inkscape:cx="154.43262"
     inkscape:cy="507.22194"
     inkscape:document-units="px"
     inkscape:current-layer="layer1"
     showgrid="false"
     inkscape:window-width="1366"
     inkscape:window-height="746"
     inkscape:window-x="0"
     inkscape:window-y="22"
     inkscape:window-maximized="0" />
  <defs
     id="defs3040">
    <marker
       inkscape:stockid="Arrow1Lend"
       orient="auto"
       refY="0"
       refX="0"
       id="Arrow1Lend"
       style="overflow:visible">
      <path
         id="path4233"
         d="M 0,0 5,-5 -12.5,0 5,5 0,0 z"
         style="fill-rule:evenodd;stroke:#000000;stroke-width:1pt"
         transform="matrix(-0.8,0,0,-0.8,-10,0)"
         inkscape:connector-curvature="0" />
    </marker>
    <marker
       inkscape:stockid="Arrow1Lend"
       orient="auto"
       refY="0"
       refX="0"
       id="marker3024"
       style="overflow:visible">
      <path
         id="path3026"
         d="M 0,0 5,-5 -12.5,0 5,5 0,0 z"
         style="fill-rule:evenodd;stroke:#000000;stroke-width:1pt"
         transform="matrix(-0.8,0,0,-0.8,-10,0)"
         inkscape:connector-curvature="0" />
    </marker>
    <marker
       inkscape:stockid="Arrow1Lendf"
       orient="auto"
       refY="0"
       refX="0"
       id="Arrow1Lendf"
       style="overflow:visible">
      <path
         id="path4976"
         d="M 0,0 5,-5 -12.5,0 5,5 0,0 z"
         style="stroke:#ffffff;stroke-width:1pt;fill:#ffffff;fill-rule:evenodd"
         transform="matrix(-0.8,0,0,-0.8,-10,0)"
         inkscape:connector-curvature="0" />
    </marker>
    <marker
       inkscape:stockid="Arrow1LendD"
       orient="auto"
       refY="0"
       refX="0"
       id="Arrow1LendD"
       style="overflow:visible">
      <path
         id="path4979"
         d="M 0,0 5,-5 -12.5,0 5,5 0,0 z"
         style="stroke:#ffffff;stroke-width:1pt;fill:#ffffff;fill-rule:evenodd"
         transform="matrix(-0.8,0,0,-0.8,-10,0)"
         inkscape:connector-curvature="0" />
    </marker>
  </defs>
  <metadata
     id="metadata3043">
    <rdf:RDF>
      <cc:Work
         rdf:about="">
        <dc:format>image/svg+xml</dc:format>
        <dc:type
           rdf:resource="http://purl.org/dc/dcmitype/StillImage" />
        <dc:title></dc:title>
      </cc:Work>
    </rdf:RDF>
  </metadata>
  <g
     id="layer1"
     inkscape:groupmode="layer"
     inkscape:label="レイヤー 1">
    <path
       style="stroke-linejoin:miter;color:#ff0000;stroke:#add8ef;stroke-linecap:butt;stroke-width:0.80286710999999999;fill:none;stroke-opacity:0.94117647"
       d="m 131.38255,455.45679 5.2,-14.69678 5.3,-13.40758 5.2,-11.86056 5.3,-10.12015 5.3,-8.25083 5.2,-6.25258 5.3,-4.12541 5.3,-1.93378 5.2,0.32229 5.3,2.44947 5.30001,4.70554 5.2,6.7038 5.3,8.7665 5.2,10.57137 5.3,12.24731 5.3,13.72989 5.2,14.95462 5.3,16.05043 5.3,16.75949 5.2,17.2107 5.3,17.46854 5.3,17.40408 5.2,17.01732 5.3,16.43719 5.2,15.53476 5.3,14.37448 5.3,13.02083 5.2,11.4738 5.3,9.66894 5.3,7.73514 5.2,5.7369 5.3,3.54528 5.3,1.41811 5.2,-0.83797 5.3,-3.0296 5.2,-5.22123 5.3,-7.21947 5.3,-9.21772 5.2,-11.02258 5.3,-12.63407 5.3,-14.05219 5.2,-15.27691 5.3,-16.24381 5.3,-16.88841 5.2,-17.33962 5.3,-17.46854 5.2,-17.33962 5.3,-16.88841 5.3,-16.24381 5.2,-15.27691 5.3,-14.05219 5.3,-12.63407 5.2,-11.02259 5.3,-9.21771 5.3,-7.21948 5.2,-5.22122 5.3,-3.0296 5.2,-0.83797 5.3,1.41811 5.3,3.54527 5.2,5.7369 5.3,7.73515 5.3,9.66894 5.2,11.4738 5.3,13.02083 5.3,14.37448 5.2,15.53475 5.3,16.43719 5.2,17.01733 5.3,17.40408 5.3,17.46854 5.2,17.2107 5.3,16.75949 5.3,16.05043 5.2,14.95462 5.3,13.72988 5.3,12.24732 5.2,10.57137 5.3,8.7665 5.2,6.70379 5.3,4.70555 5.3,2.44946 5.2,0.3223 5.3,-1.93379 5.3,-4.12541 5.2,-6.25257 5.3,-8.25083 5.3,-10.12015 5.2,-11.86056 5.3,-13.40759 5.2,-14.69678 5.3,-15.72813 5.3,-16.63057 5.2,-17.14624 5.3,-17.40408 0.01,0"
       id="path156"
       inkscape:connector-curvature="0" />
    <path
       style="stroke-linejoin:miter;stroke-opacity:1;stroke:#ffffff;stroke-linecap:butt;stroke-width:1px;fill:#ffffff"
       d="M 84.857125,529.42363"
       id="path3246"
       inkscape:connector-curvature="0" />
    <path
       style="stroke-linejoin:miter;marker-end:url(#Arrow1LendD);stroke-opacity:1;stroke:#ffffff;stroke-linecap:butt;stroke-width:1px;fill:#ffffff"
       d="m 132.368,677.38836 0,-330.05235"
       id="path3248"
       inkscape:connector-curvature="0"
       sodipodi:nodetypes="cc" />
    <path
       style="fill:#ffffff;stroke:#ffffff;stroke-width:1px;stroke-linecap:butt;stroke-linejoin:miter;stroke-opacity:1;marker-end:url(#Arrow1Lendf)"
       d="m 132.2558,522.41454 532.88707,0"
       id="path3250"
       inkscape:connector-curvature="0"
       sodipodi:nodetypes="cc" />
    <path
       style="stroke-linejoin:miter;marker-end:none;stroke-opacity:1;stroke-dashoffset:0;stroke:#ffffff;stroke-linecap:butt;stroke-miterlimit:4;stroke-dasharray:8, 8;stroke-width:1;fill:#ffffff"
       d="m 131.5303,384.19465 493.40315,0"
       id="path3256"
       inkscape:connector-curvature="0"
       sodipodi:nodetypes="cc" />
    <path
       style="stroke-linejoin:miter;marker-end:none;stroke-opacity:1;stroke-dashoffset:0;stroke:#ffffff;stroke-linecap:butt;stroke-miterlimit:4;stroke-dasharray:8, 8;stroke-width:1;fill:#ffffff"
       d="m 133.62454,660.63444 493.40315,0"
       id="path3256-8"
       inkscape:connector-curvature="0"
       sodipodi:nodetypes="cc" />
    <g
       style="stroke:#ffffff;fill:#ffffff"
       transform="matrix(0.5203864,0,0,0.5203864,-44.290933,167.62888)"
       id="g3098">
      <g
         style="font-style:normal;font-variant:normal;font-weight:normal;font-stretch:normal;letter-spacing:normal;word-spacing:normal;text-anchor:start;fill:#ffffff;stroke:#ffffff;stroke-linecap:butt;stroke-linejoin:miter;stroke-miterlimit:10.43299960999999954;stroke-opacity:1;stroke-dasharray:none;stroke-dashoffset:0"
         word-spacing="normal"
         letter-spacing="normal"
         font-size-adjust="none"
         font-stretch="normal"
         font-weight="normal"
         font-variant="normal"
         font-style="normal"
         stroke-miterlimit="10.433"
         xml:space="preserve"
         transform="matrix(1.0629921,0,0,-1.0629921,-186.02362,789.27165)"
         id="g3100"><path
           style="fill:#ffffff;stroke-width:0;stroke:#ffffff"
           inkscape:connector-curvature="0"
           id="path3102"
           d="m 472.16,421.25 0.03,0.13 0.04,0.15 0.04,0.16 0.04,0.18 0.06,0.19 0.06,0.21 0.06,0.22 0.07,0.22 0.08,0.23 0.09,0.24 0.1,0.25 0.1,0.24 0.11,0.25 0.12,0.25 0.13,0.25 0.14,0.25 0.15,0.24 0.15,0.24 0.17,0.23 0.18,0.22 0.18,0.22 0.2,0.2 0.21,0.19 0.22,0.18 0.23,0.16 0.25,0.14 0.12,0.07 0.13,0.06 0.14,0.05 0.13,0.05 0.14,0.05 0.14,0.04 0.15,0.03 0.15,0.03 0.15,0.02 0.16,0.02 0.16,0.01 0.16,0 c 0.25,0 1.44,0 2.48,-0.64 -1.39,-0.25 -2.39,-1.5 -2.39,-2.69 0,-0.79 0.55,-1.75 1.89,-1.75 1.1,0 2.69,0.89 2.69,2.89 0,2.6 -2.94,3.28 -4.63,3.28 -2.89,0 -4.64,-2.64 -5.23,-3.78 -1.25,3.28 -3.94,3.78 -5.37,3.78 -5.19,0 -8.04,-6.42 -8.04,-7.67 0,-0.5 0.5,-0.5 0.61,-0.5 0.39,0 0.55,0.11 0.64,0.55 1.69,5.28 4.99,6.53 6.68,6.53 0.95,0 2.68,-0.44 2.68,-3.33 0,-1.54 -0.84,-4.89 -2.68,-11.86 -0.8,-3.09 -2.54,-5.18 -4.74,-5.18 -0.3,0 -1.44,0 -2.48,0.65 1.25,0.24 2.34,1.28 2.34,2.69 0,1.34 -1.09,1.73 -1.84,1.73 -1.5,0 -2.75,-1.29 -2.75,-2.89 0,-2.28 2.5,-3.28 4.68,-3.28 3.3,0 5.08,3.49 5.24,3.78 0.59,-1.84 2.39,-3.78 5.37,-3.78 5.14,0 7.99,6.42 7.99,7.67 0,0.5 -0.45,0.5 -0.61,0.5 -0.44,0 -0.55,-0.2 -0.64,-0.54 -1.64,-5.33 -5.03,-6.53 -6.63,-6.53 -1.95,0 -2.75,1.59 -2.75,3.29 0,1.1 0.3,2.19 0.86,4.38 z" /></g>    </g>
    <g
       style="stroke:#ffffff;fill:#ffffff"
       transform="matrix(0.5203864,0,0,0.5203864,505.23205,359.55786)"
       id="g3146">
      <g
         style="font-style:normal;font-variant:normal;font-weight:normal;font-stretch:normal;letter-spacing:normal;word-spacing:normal;text-anchor:start;fill:#ffffff;stroke:#ffffff;stroke-linecap:butt;stroke-linejoin:miter;stroke-miterlimit:10.43299960999999954;stroke-opacity:1;stroke-dasharray:none;stroke-dashoffset:0"
         id="g3148"
         transform="matrix(1.0629921,0,0,-1.0629921,-186.02362,789.27165)"
         xml:space="preserve"
         stroke-miterlimit="10.433"
         font-style="normal"
         font-variant="normal"
         font-weight="normal"
         font-stretch="normal"
         font-size-adjust="none"
         letter-spacing="normal"
         word-spacing="normal"><path
           style="fill:#ffffff;stroke-width:0;stroke:#ffffff"
           inkscape:connector-curvature="0"
           d="m 465.79,426.12 h 4.68 c 0.99,0 1.49,0 1.49,1 0,0.55 -0.5,0.55 -1.39,0.55 h -4.39 c 1.79,7.08 2.04,8.08 2.04,8.37 0,0.85 -0.59,1.35 -1.43,1.35 -0.16,0 -1.55,-0.05 -2,-1.8 l -1.94,-7.92 h -4.69 c -1,0 -1.5,0 -1.5,-0.94 0,-0.61 0.41,-0.61 1.41,-0.61 h 4.37 c -3.58,-14.14 -3.78,-14.98 -3.78,-15.89 0,-2.69 1.89,-4.58 4.58,-4.58 5.08,0 7.92,7.27 7.92,7.67 0,0.5 -0.39,0.5 -0.59,0.5 -0.46,0 -0.5,-0.15 -0.75,-0.7 -2.14,-5.17 -4.78,-6.37 -6.47,-6.37 -1.05,0 -1.55,0.65 -1.55,2.29 0,1.19 0.09,1.55 0.3,2.39 z"
           id="path3150" /></g>    </g>
    <g
       style="stroke:#ffffff;fill:#ffffff"
       transform="matrix(0.5203864,0,0,0.5203864,328.45536,252.4817)"
       id="g3200">
      <g
         style="font-style:normal;font-variant:normal;font-weight:normal;font-stretch:normal;letter-spacing:normal;word-spacing:normal;text-anchor:start;fill:#ffffff;stroke:#ffffff;stroke-linecap:butt;stroke-linejoin:miter;stroke-miterlimit:10.43299960999999954;stroke-opacity:1;stroke-dasharray:none;stroke-dashoffset:0"
         word-spacing="normal"
         letter-spacing="normal"
         font-size-adjust="none"
         font-stretch="normal"
         font-weight="normal"
         font-variant="normal"
         font-style="normal"
         stroke-miterlimit="10.433"
         xml:space="preserve"
         transform="matrix(1.0629921,0,0,-1.0629921,-186.02362,789.27165)"
         id="g3202"><path
           style="fill:#ffffff;stroke-width:0;stroke:#ffffff"
           inkscape:connector-curvature="0"
           id="path3204"
           d="m 472.16,398.81 0.03,0.13 0.04,0.15 0.04,0.16 0.04,0.18 0.06,0.2 0.06,0.2 0.06,0.22 0.07,0.22 0.08,0.24 0.09,0.24 0.1,0.24 0.1,0.25 0.11,0.25 0.12,0.25 0.13,0.25 0.14,0.24 0.15,0.25 0.15,0.23 0.17,0.23 0.18,0.23 0.18,0.21 0.2,0.2 0.21,0.19 0.22,0.18 0.23,0.16 0.25,0.14 0.12,0.07 0.13,0.06 0.14,0.05 0.13,0.05 0.14,0.05 0.14,0.04 0.15,0.03 0.15,0.03 0.15,0.02 0.16,0.02 0.16,0.01 0.16,0 c 0.25,0 1.44,0 2.48,-0.64 -1.39,-0.25 -2.39,-1.5 -2.39,-2.68 0,-0.8 0.55,-1.75 1.89,-1.75 1.1,0 2.69,0.89 2.69,2.89 0,2.59 -2.94,3.28 -4.63,3.28 -2.89,0 -4.64,-2.64 -5.23,-3.78 -1.25,3.28 -3.94,3.78 -5.37,3.78 -5.19,0 -8.04,-6.42 -8.04,-7.67 0,-0.5 0.5,-0.5 0.61,-0.5 0.39,0 0.55,0.1 0.64,0.54 1.69,5.28 4.99,6.53 6.68,6.53 0.95,0 2.68,-0.43 2.68,-3.32 0,-1.55 -0.84,-4.9 -2.68,-11.86 -0.8,-3.1 -2.54,-5.19 -4.74,-5.19 -0.3,0 -1.44,0 -2.48,0.65 1.25,0.24 2.34,1.29 2.34,2.69 0,1.35 -1.09,1.74 -1.84,1.74 -1.5,0 -2.75,-1.3 -2.75,-2.89 0,-2.29 2.5,-3.29 4.68,-3.29 3.3,0 5.08,3.49 5.24,3.79 0.59,-1.85 2.39,-3.79 5.37,-3.79 5.14,0 7.99,6.43 7.99,7.68 0,0.5 -0.45,0.5 -0.61,0.5 -0.44,0 -0.55,-0.21 -0.64,-0.55 -1.64,-5.33 -5.03,-6.53 -6.63,-6.53 -1.95,0 -2.75,1.59 -2.75,3.3 0,1.09 0.3,2.18 0.86,4.37 z" /><path
           style="fill:#ffffff;stroke-width:0;stroke:#ffffff"
           inkscape:connector-curvature="0"
           id="path3206"
           d="m 532.11,400.06 0.14,0 0.15,0 0.14,0.01 0.07,0 0.08,0 0.07,0.01 0.07,0.01 0.07,0.01 0.07,0.01 0.07,0.01 0.06,0.02 0.07,0.02 0.06,0.02 0.06,0.03 0.06,0.02 0.06,0.03 0.05,0.04 0.05,0.04 0.05,0.04 0.04,0.04 0.04,0.05 0.02,0.03 0.02,0.03 0.01,0.03 0.02,0.03 0.01,0.03 0.02,0.03 0.01,0.03 0.01,0.04 0.01,0.03 0.01,0.04 0,0.04 0.01,0.04 0,0.04 0.01,0.04 0,0.05 0,0.04 c 0,1 -0.95,1 -1.64,1 h -29.84 c -0.71,0 -1.64,0 -1.64,-1 0,-0.98 0.93,-0.98 1.68,-0.98 z" /><path
           style="fill:#ffffff;stroke-width:0;stroke:#ffffff"
           inkscape:connector-curvature="0"
           id="path3208"
           d="m 532.16,390.39 0.07,0 0.06,0 0.14,0 0.14,0 0.07,0.01 0.07,0 0.07,0.01 0.07,0.01 0.06,0.01 0.07,0.01 0.07,0.01 0.06,0.02 0.07,0.02 0.06,0.02 0.06,0.03 0.06,0.02 0.05,0.04 0.05,0.03 0.05,0.04 0.05,0.04 0.04,0.05 0.02,0.02 0.02,0.03 0.02,0.03 0.02,0.02 0.01,0.03 0.02,0.03 0.01,0.03 0.02,0.04 0.01,0.03 0.01,0.04 0.01,0.03 0.01,0.04 0,0.04 0.01,0.04 0,0.04 0.01,0.05 0,0.04 0,0.05 c 0,1 -0.95,1 -1.69,1 h -29.75 c -0.75,0 -1.68,0 -1.68,-1 0,-1 0.93,-1 1.64,-1 z" /><path
           style="fill:#ffffff;stroke-width:0;stroke:#ffffff"
           inkscape:connector-curvature="0"
           id="path3210"
           d="m 559.35,389.5 -0.18,-0.31 -0.19,-0.29 -0.19,-0.28 -0.18,-0.26 -0.19,-0.25 -0.19,-0.23 -0.18,-0.22 -0.19,-0.21 -0.18,-0.2 -0.19,-0.18 -0.19,-0.17 -0.18,-0.16 -0.19,-0.15 -0.19,-0.14 -0.19,-0.13 -0.19,-0.12 -0.19,-0.11 -0.19,-0.1 -0.19,-0.09 -0.19,-0.09 -0.19,-0.07 -0.19,-0.07 -0.2,-0.06 -0.19,-0.06 -0.2,-0.05 -0.19,-0.04 -0.2,-0.04 -0.2,-0.03 -0.4,-0.05 -0.41,-0.03 c -0.61,-0.05 -1.05,-0.05 -1.05,-1 0,-0.3 0.25,-0.55 0.64,-0.55 1.35,0 2.9,0.16 4.28,0.16 1.65,0 3.4,-0.16 4.99,-0.16 0.3,0 0.95,0 0.95,0.95 0,0.55 -0.45,0.6 -0.79,0.6 -1.16,0.09 -2.35,0.5 -2.35,1.73 0,0.61 0.3,1.16 0.69,1.85 l 3.8,6.39 h 12.5 l -0.14,1.53 h -11.43 l 9.83,16.45 1.6,-16.45 0.14,-1.53 c 0.11,-1.05 0.79,-7.83 0.79,-8.33 0,-1.5 -2.59,-1.64 -3.58,-1.64 -0.7,0 -1.2,0 -1.2,-1 0,-0.55 0.6,-0.55 0.7,-0.55 2.04,0 4.19,0.16 6.22,0.16 1.25,0 4.4,-0.16 5.65,-0.16 0.29,0 0.88,0 0.88,1 0,0.55 -0.5,0.55 -1.13,0.55 -3.1,0 -3.1,0.34 -3.25,1.8 l -3.04,31.12 c -0.11,1 -0.11,1.2 -0.95,1.2 -0.8,0 -0.98,-0.34 -1.3,-0.84 z" /><path
           style="fill:#ffffff;stroke-width:0;stroke:#ffffff"
           inkscape:connector-curvature="0"
           id="path3212"
           d="m 606.39,393.43 0.11,-0.02 0.13,-0.02 0.14,-0.03 0.16,-0.03 0.17,-0.04 0.18,-0.05 0.18,-0.05 0.2,-0.05 0.21,-0.07 0.21,-0.07 0.21,-0.08 0.22,-0.08 0.22,-0.1 0.22,-0.1 0.23,-0.11 0.21,-0.12 0.22,-0.13 0.21,-0.14 0.21,-0.16 0.19,-0.16 0.19,-0.18 0.19,-0.18 0.16,-0.2 0.16,-0.21 0.14,-0.23 0.07,-0.12 0.06,-0.12 0.06,-0.12 0.06,-0.13 0.04,-0.13 0.05,-0.14 0.04,-0.14 0.04,-0.14 0.03,-0.15 0.02,-0.15 0.02,-0.15 0.02,-0.16 0.01,-0.16 0,-0.17 c 0,-2.53 -1.75,-4.53 -5.63,-4.53 -4.18,0 -5.98,2.84 -6.93,7.08 -0.14,0.64 -0.19,0.84 -0.69,0.84 -0.66,0 -0.66,-0.34 -0.66,-1.25 v -6.58 c 0,-0.84 0,-1.19 0.55,-1.19 0.25,0 0.3,0.05 1.25,1 0.09,0.1 0.09,0.19 1,1.15 2.19,-2.1 4.44,-2.15 5.48,-2.15 5.72,0 8.02,3.35 8.02,6.93 0,2.64 -1.5,4.14 -2.09,4.73 -1.65,1.59 -3.6,2 -5.69,2.39 -2.78,0.55 -6.13,1.2 -6.13,4.1 0,1.73 1.3,3.78 5.58,3.78 5.48,0 5.74,-4.49 5.83,-6.03 0.06,-0.46 0.5,-0.46 0.61,-0.46 0.64,0 0.64,0.25 0.64,1.21 v 5.03 c 0,0.84 0,1.18 -0.55,1.18 -0.25,0 -0.34,0 -1,-0.59 -0.14,-0.2 -0.64,-0.64 -0.84,-0.8 -1.89,1.39 -3.94,1.39 -4.69,1.39 -6.08,0 -7.97,-3.32 -7.97,-6.12 0,-1.74 0.8,-3.14 2.14,-4.24 1.6,-1.29 3,-1.59 6.58,-2.28 z" /><path
           style="fill:#ffffff;stroke-width:0;stroke:#ffffff"
           inkscape:connector-curvature="0"
           id="path3214"
           d="m 624.52,405.78 -6.97,-0.55 v -1.55 c 3.24,0 3.69,-0.29 3.69,-2.73 v -13.41 c 0,-2.23 -0.54,-2.23 -3.89,-2.23 v -1.55 c 1.6,0.05 4.28,0.16 5.49,0.16 1.75,0 3.48,-0.11 5.18,-0.16 v 1.55 c -3.29,0 -3.5,0.25 -3.5,2.19 z" /><path
           style="fill:#ffffff;stroke-width:0;stroke:#ffffff"
           inkscape:connector-curvature="0"
           id="path3216"
           d="m 624.73,414.45 -0.01,0.15 -0.01,0.14 -0.02,0.14 -0.02,0.14 -0.03,0.13 -0.04,0.13 -0.04,0.13 -0.05,0.12 -0.05,0.12 -0.07,0.12 -0.06,0.11 -0.07,0.11 -0.08,0.1 -0.08,0.1 -0.08,0.09 -0.09,0.09 -0.1,0.08 -0.09,0.08 -0.1,0.08 -0.11,0.06 -0.1,0.07 -0.12,0.06 -0.11,0.05 -0.11,0.05 -0.12,0.04 -0.12,0.04 -0.13,0.04 -0.12,0.02 -0.13,0.02 -0.13,0.02 -0.12,0.01 -0.13,0 c -1.55,0 -2.64,-1.34 -2.64,-2.64 0,-1.34 1.09,-2.64 2.64,-2.64 1.39,0 2.64,1.05 2.64,2.64 z" /><path
           style="fill:#ffffff;stroke-width:0;stroke:#ffffff"
           inkscape:connector-curvature="0"
           id="path3218"
           d="m 634.99,400.9 v -13.36 c 0,-2.23 -0.54,-2.23 -3.89,-2.23 v -1.55 c 1.75,0.05 4.28,0.16 5.63,0.16 1.29,0 3.89,-0.11 5.57,-0.16 v 1.55 c -3.32,0 -3.87,0 -3.87,2.23 v 9.17 c 0,5.19 3.53,7.97 6.72,7.97 3.14,0 3.69,-2.68 3.69,-5.53 v -11.61 c 0,-2.23 -0.55,-2.23 -3.89,-2.23 v -1.55 c 1.75,0.05 4.29,0.16 5.64,0.16 1.29,0 3.87,-0.11 5.57,-0.16 v 1.55 c -2.59,0 -3.84,0 -3.89,1.5 v 9.51 c 0,4.29 0,5.83 -1.54,7.61 -0.69,0.86 -2.35,1.85 -5.22,1.85 -3.64,0 -5.99,-2.14 -7.38,-5.22 v 5.22 l -7.03,-0.55 v -1.55 c 3.49,0 3.89,-0.34 3.89,-2.78 z" /><path
           style="fill:#ffffff;stroke-width:0;stroke:#ffffff"
           inkscape:connector-curvature="0"
           id="path3220"
           d="m 700.4,336.93 -0.01,0.02 0,0.02 0,0.01 0,0.02 0,0.02 0,0.01 -0.01,0.02 0,0.01 -0.01,0.02 0,0.01 -0.01,0.02 0,0.01 -0.01,0.01 0,0.02 -0.01,0.01 -0.01,0.01 -0.01,0.03 -0.02,0.02 -0.01,0.03 -0.02,0.02 -0.02,0.03 -0.02,0.03 -0.02,0.02 -0.01,0.02 -0.01,0.01 c -1.84,1.85 -5.17,5.17 -8.51,10.57 -8.02,12.84 -11.66,29.04 -11.66,48.21 0,13.41 1.8,30.69 10.01,45.55 3.94,7.06 8.02,11.16 10.21,13.34 0.16,0.16 0.16,0.25 0.16,0.41 0,0.5 -0.35,0.5 -1.05,0.5 -0.7,0 -0.8,0 -1.55,-0.75 -16.69,-15.2 -21.92,-38.01 -21.92,-59 0,-19.58 4.48,-39.3 17.14,-54.2 1,-1.14 2.89,-3.19 4.94,-4.99 0.59,-0.59 0.69,-0.59 1.39,-0.59 0.7,0 1.05,0 1.05,0.5 z" /><path
           style="fill:#ffffff;stroke-width:0;stroke:#ffffff"
           inkscape:connector-curvature="0"
           id="path3222"
           d="m 725.35,361.98 -10.7,37.38 -6.93,-8.13 0.8,-0.75 3.39,3.98 11.45,-39.95 c 1.64,0 1.69,0 2.1,1.2 l 27.34,86.49 c 0.25,0.75 0.25,0.95 0.25,1 0,0.55 -0.39,1 -0.98,1 -0.75,0 -0.96,-0.66 -1.16,-1.3 z" /><polyline
           style="fill:#ffffff;fill-rule:nonzero;stroke-width:0;stroke:#ffffff"
           id="polyline3224"
           points="752,442 799.4,442 799.4,444.04 752,444.04 " /><path
           style="fill:#ffffff;stroke-width:0;stroke:#ffffff"
           inkscape:connector-curvature="0"
           id="path3226"
           d="m 775.55,426.46 0,0 0,0.01 0,0 0,0.01 0.01,0 0,0.01 0,0 0,0.01 0,0.01 0.01,0.01 0,0.01 0.01,0.02 0,0.02 0.01,0.02 0,0.02 0.01,0.02 0.01,0.02 0,0.03 0.01,0.02 0.01,0.05 0.01,0.04 0.01,0.03 0,0.02 0.01,0.02 0,0.02 0.01,0.02 0,0.02 0,0.02 0.01,0.01 0,0.01 0,0.01 0,0 0,0.01 0,0 0.01,0.01 0,0 0,0.01 0,0 0,0 0,0.01 0,0 c 0,0.19 -0.14,0.5 -0.57,0.5 -0.68,0 -3.57,-0.28 -4.45,-0.36 -0.28,-0.03 -0.76,-0.06 -0.76,-0.8 0,-0.48 0.48,-0.48 0.9,-0.48 1.67,0 1.67,-0.25 1.67,-0.53 0,-0.24 -0.07,-0.46 -0.14,-0.77 l -4.92,-19.72 c -0.17,-0.62 -0.17,-0.69 -0.17,-0.76 0,-0.52 0.42,-1.11 1.19,-1.11 0.94,0 1.39,0.68 1.61,1.45 0.06,0.14 1.56,6.28 1.7,6.77 2.47,-0.25 4.45,-1.05 4.45,-2.86 0,-0.18 0,-0.35 -0.06,-0.69 -0.14,-0.53 -0.14,-0.7 -0.14,-1.1 0,-2.46 2.02,-3.57 3.69,-3.57 3.39,0 4.43,5.29 4.43,5.32 0,0.46 -0.45,0.46 -0.56,0.46 -0.48,0 -0.53,-0.17 -0.7,-0.85 -0.41,-1.5 -1.36,-3.96 -3.06,-3.96 -0.94,0 -1.22,0.87 -1.22,1.81 0,0.59 0,0.65 0.2,1.56 0.05,0.11 0.19,0.7 0.19,1.09 0,3.1 -4.19,3.58 -5.66,3.69 1.02,0.63 2.3,1.78 2.89,2.3 1.78,1.67 3.53,3.31 5.47,3.31 0.42,0 0.88,-0.11 1.16,-0.45 -1.5,-0.25 -1.81,-1.42 -1.81,-1.96 0,-0.76 0.59,-1.28 1.39,-1.28 0.95,0 1.98,0.77 1.98,2.22 0,1.16 -0.83,2.44 -2.67,2.44 -1.99,0 -3.8,-1.42 -5.58,-3.06 -1.47,-1.39 -2.61,-2.47 -4.05,-3.07 z" /><polyline
           style="fill:#ffffff;fill-rule:nonzero;stroke-width:0;stroke:#ffffff"
           id="polyline3228"
           points="758,395 793.4,395 793.4,397.04 758,397.04 " /><path
           style="fill:#ffffff;stroke-width:0;stroke:#ffffff"
           inkscape:connector-curvature="0"
           id="path3230"
           d="m 773.16,369.43 -0.01,-0.07 -0.02,-0.07 -0.02,-0.07 -0.02,-0.07 -0.02,-0.08 -0.01,-0.08 -0.04,-0.15 -0.04,-0.17 -0.04,-0.16 -0.04,-0.16 -0.02,-0.07 -0.02,-0.08 -0.02,-0.08 -0.02,-0.07 -0.02,-0.07 -0.01,-0.07 -0.02,-0.07 -0.01,-0.06 -0.02,-0.06 -0.01,-0.06 -0.01,-0.05 -0.01,-0.05 -0.01,-0.04 -0.01,-0.04 0,-0.04 -0.01,-0.03 0,-0.02 0,-0.02 c 0,-0.77 0.62,-1.11 1.17,-1.11 0.64,0 1.19,0.45 1.36,0.76 0.19,0.32 0.45,1.43 0.64,2.16 0.17,0.66 0.55,2.27 0.77,3.14 0.2,0.77 0.4,1.53 0.59,2.33 0.38,1.5 0.38,1.56 1.08,2.65 1.11,1.71 2.86,3.69 5.56,3.69 1.95,0 2.06,-1.61 2.06,-2.44 0,-2.09 -1.5,-5.95 -2.06,-7.42 -0.37,-0.98 -0.51,-1.29 -0.51,-1.89 0,-1.84 1.53,-2.98 3.31,-2.98 3.48,0 5.01,4.79 5.01,5.33 0,0.45 -0.45,0.45 -0.56,0.45 -0.48,0 -0.51,-0.2 -0.65,-0.59 -0.8,-2.79 -2.3,-4.22 -3.69,-4.22 -0.74,0 -0.88,0.48 -0.88,1.22 0,0.79 0.17,1.25 0.8,2.82 0.42,1.08 1.84,4.77 1.84,6.72 0,0.56 0,2.03 -1.28,3.03 -0.59,0.46 -1.61,0.94 -3.25,0.94 -3.12,0 -5.04,-2.05 -6.15,-3.51 -0.29,2.96 -2.77,3.51 -4.54,3.51 -2.89,0 -4.84,-1.76 -5.89,-3.16 -0.25,2.4 -2.29,3.16 -3.73,3.16 -1.5,0 -2.3,-1.08 -2.75,-1.87 -0.77,-1.29 -1.25,-3.29 -1.25,-3.46 0,-0.45 0.48,-0.45 0.59,-0.45 0.49,0 0.52,0.11 0.77,1.05 0.51,2.06 1.19,3.76 2.55,3.76 0.9,0 1.14,-0.76 1.14,-1.7 0,-0.67 -0.32,-1.95 -0.57,-2.89 -0.23,-0.95 -0.57,-2.38 -0.76,-3.14 l -1.11,-4.47 c -0.14,-0.44 -0.34,-1.31 -0.34,-1.42 0,-0.77 0.62,-1.11 1.18,-1.11 0.63,0 1.17,0.45 1.36,0.76 0.17,0.32 0.46,1.43 0.63,2.16 0.17,0.66 0.54,2.27 0.76,3.14 0.21,0.77 0.42,1.53 0.6,2.33 0.37,1.44 0.45,1.7 1.45,3.14 0.98,1.39 2.62,3.2 5.23,3.2 2.02,0 2.05,-1.78 2.05,-2.44 0,-0.87 -0.09,-1.32 -0.59,-3.28 z" /><path
           style="fill:#ffffff;stroke-width:0;stroke:#ffffff"
           inkscape:connector-curvature="0"
           id="path3232"
           d="m 809.59,403.68 h 4.68 c 0.99,0 1.49,0 1.49,1 0,0.55 -0.5,0.55 -1.39,0.55 h -4.39 c 1.79,7.08 2.04,8.08 2.04,8.38 0,0.84 -0.59,1.34 -1.43,1.34 -0.16,0 -1.55,-0.05 -2,-1.8 l -1.94,-7.92 h -4.69 c -1,0 -1.5,0 -1.5,-0.94 0,-0.61 0.41,-0.61 1.41,-0.61 h 4.37 c -3.58,-14.14 -3.78,-14.98 -3.78,-15.89 0,-2.68 1.89,-4.58 4.58,-4.58 5.08,0 7.92,7.27 7.92,7.68 0,0.5 -0.39,0.5 -0.59,0.5 -0.46,0 -0.5,-0.16 -0.75,-0.71 -2.14,-5.17 -4.78,-6.37 -6.47,-6.37 -1.05,0 -1.55,0.65 -1.55,2.3 0,1.18 0.1,1.54 0.3,2.39 z" /><path
           style="fill:#ffffff;stroke-width:0;stroke:#ffffff"
           inkscape:connector-curvature="0"
           id="path3234"
           d="m 848.73,395.21 h 13.91 c 0.69,0 1.64,0 1.64,1 0,1 -0.95,1 -1.64,1 h -13.91 v 13.96 c 0,0.69 0,1.64 -1,1.64 -0.98,0 -0.98,-0.95 -0.98,-1.64 V 397.21 H 832.8 c -0.71,0 -1.64,0 -1.64,-1 0,-1 0.93,-1 1.64,-1 h 13.95 v -13.93 c 0,-0.71 0,-1.66 0.98,-1.66 1,0 1,0.95 1,1.66 z" /><path
           style="fill:#ffffff;stroke-width:0;stroke:#ffffff"
           inkscape:connector-curvature="0"
           id="path3236"
           d="m 900.04,417.14 0,0 0,0.01 0,0.01 0,0 0.01,0.01 0,0.01 0,0.01 0,0.01 0,0.02 0.01,0.02 0,0.02 0.01,0.03 0,0.02 0.01,0.03 0.01,0.03 0,0.02 0.01,0.03 0.01,0.03 0.01,0.06 0.02,0.06 0,0.03 0.01,0.03 0.01,0.02 0,0.03 0.01,0.02 0,0.03 0.01,0.02 0,0.02 0.01,0.01 0,0 0,0.01 0,0.01 0,0.01 0.01,0 0,0.01 0,0.01 0,0 0,0 0,0.01 0,0 c 0,0.05 0,0.5 -0.6,0.5 -0.5,0 -0.54,-0.16 -0.75,-1 l -2.88,-11.5 c -7.93,-0.25 -15.25,-6.88 -15.25,-13.66 0,-4.73 3.48,-8.67 9.56,-9.01 l 0.25,1.09 c -2.99,0.14 -6.58,1.89 -6.58,6.88 0,5.98 4.3,12.95 11.72,13.59 l -5.14,-20.47 -0.25,-1.09 c -0.39,-1.55 -0.74,-3.14 -1.14,-4.69 -0.6,-2.34 -1.1,-4.23 -1.1,-4.39 0,-0.48 0.35,-0.55 0.6,-0.55 0.25,0 0.36,0.07 0.5,0.21 0.09,0.09 0.4,1.29 0.54,2 l 1.89,7.42 0.25,1.09 5.15,20.47 c 3.78,-0.19 6.62,-2.48 6.62,-6.87 0,-5.88 -4.28,-13 -11.77,-13.6 l -0.25,-1.09 c 8.03,0.25 15.25,6.97 15.25,13.64 0,3.94 -2.64,8.53 -9.56,9.03 z" /><path
           style="fill:#ffffff;stroke-width:0;stroke:#ffffff"
           inkscape:connector-curvature="0"
           id="path3238"
           d="m 934.17,396.16 -0.05,3.68 -0.17,3.66 -0.28,3.66 -0.4,3.64 -0.52,3.61 -0.66,3.58 -0.8,3.54 -0.94,3.49 -1.09,3.44 -0.6,1.7 -0.64,1.68 -0.68,1.66 -0.72,1.64 -0.76,1.63 -0.8,1.6 -0.85,1.58 -0.89,1.56 -0.93,1.54 -0.98,1.52 -1.02,1.49 -1.07,1.46 -1.11,1.44 -1.16,1.41 c -1,1.15 -2.89,3.18 -4.94,4.98 -0.59,0.61 -0.7,0.61 -1.39,0.61 -0.61,0 -1.05,0 -1.05,-0.5 0,-0.2 0.19,-0.41 0.3,-0.5 1.73,-1.8 5.08,-5.14 8.42,-10.51 8.02,-12.86 11.66,-29.05 11.66,-48.24 0,-13.39 -1.8,-30.69 -10.02,-45.53 -3.94,-7.08 -8.08,-11.2 -10.17,-13.3 -0.09,-0.15 -0.19,-0.29 -0.19,-0.45 0,-0.5 0.44,-0.5 1.05,-0.5 0.69,0 0.8,0 1.53,0.75 16.7,15.2 21.92,38.02 21.92,58.98 z" /></g>    </g>
    <g
       style="stroke:#ffffff;fill:#ffffff"
       transform="matrix(0.5203864,0,0,0.5203864,-17.016815,361.25329)"
       id="g3432">
      <g
         style="font-style:normal;font-variant:normal;font-weight:normal;font-stretch:normal;letter-spacing:normal;word-spacing:normal;text-anchor:start;fill:#ffffff;stroke:#ffffff;stroke-linecap:butt;stroke-linejoin:miter;stroke-miterlimit:10.43299960999999954;stroke-opacity:1;stroke-dasharray:none;stroke-dashoffset:0"
         word-spacing="normal"
         letter-spacing="normal"
         font-size-adjust="none"
         font-stretch="normal"
         font-weight="normal"
         font-variant="normal"
         font-style="normal"
         stroke-miterlimit="10.433"
         xml:space="preserve"
         transform="matrix(1.0629921,0,0,-1.0629921,-186.02362,789.27165)"
         id="g3434"><path
           style="fill:#ffffff;stroke-width:0;stroke:#ffffff"
           inkscape:connector-curvature="0"
           id="path3436"
           d="m 478.44,422.14 0,0.74 -0.01,0.75 -0.02,0.75 -0.04,0.74 -0.04,0.75 -0.06,0.74 -0.08,0.74 -0.09,0.73 -0.12,0.73 -0.14,0.73 -0.16,0.72 -0.19,0.72 -0.21,0.72 -0.25,0.7 -0.28,0.7 -0.15,0.35 -0.16,0.34 c -2.28,4.8 -6.37,5.6 -8.47,5.6 -2.98,0 -6.62,-1.3 -8.67,-5.94 -1.59,-3.44 -1.84,-7.33 -1.84,-11.31 0,-3.74 0.2,-8.22 2.25,-12 2.14,-4.03 5.78,-5.03 8.22,-5.03 v 1.09 c -1.94,0 -4.89,1.25 -5.79,6.03 -0.54,2.98 -0.54,7.56 -0.54,10.52 0,3.18 0,6.46 0.4,9.15 0.94,5.94 4.68,6.38 5.93,6.38 1.64,0 4.93,-0.89 5.87,-5.83 0.5,-2.78 0.5,-6.58 0.5,-9.7 0,-3.75 0,-7.13 -0.55,-10.32 -0.75,-4.73 -3.59,-6.23 -5.82,-6.23 h 0 v -1.09 c 2.68,0 6.46,1.04 8.67,5.78 1.59,3.43 1.84,7.31 1.84,11.25 z" /></g>    </g>
    <g
       style="stroke:#ffffff;fill:#ffffff"
       transform="matrix(0.5203864,0,0,0.5203864,-50.351849,207.02483)"
       id="g3540">
      <g
         style="font-style:normal;font-variant:normal;font-weight:normal;font-stretch:normal;letter-spacing:normal;word-spacing:normal;text-anchor:start;fill:#ffffff;stroke:#ffffff;stroke-linecap:butt;stroke-linejoin:miter;stroke-miterlimit:10.43299960999999954;stroke-opacity:1;stroke-dasharray:none;stroke-dashoffset:0"
         id="g3542"
         transform="matrix(1.0629921,0,0,-1.0629921,-186.02362,789.27165)"
         xml:space="preserve"
         stroke-miterlimit="10.433"
         font-style="normal"
         font-variant="normal"
         font-weight="normal"
         font-stretch="normal"
         font-size-adjust="none"
         letter-spacing="normal"
         word-spacing="normal"><path
           style="fill:#ffffff;stroke-width:0;stroke:#ffffff"
           inkscape:connector-curvature="0"
           d="m 464.44,411.93 -0.19,-0.3 -0.18,-0.29 -0.19,-0.28 -0.19,-0.26 -0.18,-0.25 -0.19,-0.23 -0.19,-0.22 -0.18,-0.21 -0.19,-0.2 -0.19,-0.18 -0.18,-0.17 -0.19,-0.16 -0.19,-0.15 -0.18,-0.14 -0.19,-0.13 -0.19,-0.12 -0.19,-0.11 -0.19,-0.1 -0.19,-0.09 -0.19,-0.09 -0.19,-0.07 -0.2,-0.07 -0.19,-0.07 -0.2,-0.05 -0.19,-0.05 -0.2,-0.04 -0.2,-0.04 -0.19,-0.03 -0.41,-0.05 -0.4,-0.03 c -0.61,-0.05 -1.05,-0.05 -1.05,-1 0,-0.3 0.25,-0.55 0.64,-0.55 1.34,0 2.89,0.16 4.28,0.16 1.64,0 3.39,-0.16 4.99,-0.16 0.29,0 0.95,0 0.95,0.95 0,0.55 -0.45,0.6 -0.8,0.6 -1.15,0.09 -2.34,0.5 -2.34,1.73 0,0.61 0.3,1.16 0.69,1.84 l 3.79,6.39 h 12.5 l -0.14,1.54 h -11.42 l 9.83,16.45 1.59,-16.45 0.14,-1.54 c 0.11,-1.04 0.8,-7.82 0.8,-8.32 0,-1.5 -2.59,-1.64 -3.58,-1.64 -0.7,0 -1.2,0 -1.2,-1 0,-0.55 0.59,-0.55 0.7,-0.55 2.03,0 4.19,0.16 6.22,0.16 1.25,0 4.39,-0.16 5.64,-0.16 0.3,0 0.89,0 0.89,1 0,0.55 -0.5,0.55 -1.14,0.55 -3.09,0 -3.09,0.34 -3.25,1.79 l -3.03,31.13 c -0.11,1 -0.11,1.2 -0.95,1.2 -0.8,0 -0.99,-0.34 -1.3,-0.84 z"
           id="path3544" /></g>    </g>
    <path
       style="stroke-linejoin:miter;stroke-opacity:1;stroke-dashoffset:0;stroke:#ffffff;stroke-linecap:butt;stroke-miterlimit:4;stroke-dasharray:8, 8;stroke-width:1;fill:none"
       d="m 132.32998,451.32142 260.61936,0 0,70.71068"
       id="path3740"
       inkscape:connector-curvature="0" />
    <g
       style="stroke:#ffffff;fill:#ffffff"
       transform="matrix(0.5203864,0,0,0.5203864,214.83164,365.50714)"
       id="g4589">
      <g
         style="font-style:normal;font-variant:normal;font-weight:normal;font-stretch:normal;letter-spacing:normal;word-spacing:normal;text-anchor:start;fill:#ffffff;stroke:#ffffff;stroke-linecap:butt;stroke-linejoin:miter;stroke-miterlimit:10.43299960999999954;stroke-opacity:1;stroke-dasharray:none;stroke-dashoffset:0"
         id="g4591"
         transform="matrix(1.0629921,0,0,-1.0629921,-186.02362,789.27165)"
         xml:space="preserve"
         stroke-miterlimit="10.433"
         font-style="normal"
         font-variant="normal"
         font-weight="normal"
         font-stretch="normal"
         font-size-adjust="none"
         letter-spacing="normal"
         word-spacing="normal"><path
           style="fill:#ffffff;stroke-width:0;stroke:#ffffff"
           inkscape:connector-curvature="0"
           d="m 461.85,410.04 5.28,5.13 c 7.76,6.87 10.76,9.56 10.76,14.54 0,5.69 -4.48,9.68 -10.56,9.68 -5.64,0 -9.33,-4.6 -9.33,-9.03 0,-2.79 2.5,-2.79 2.64,-2.79 0.86,0 2.6,0.6 2.6,2.64 0,1.3 -0.89,2.6 -2.64,2.6 -0.39,0 -0.5,0 -0.64,-0.05 1.14,3.24 3.83,5.08 6.72,5.08 4.53,0 6.68,-4.05 6.68,-8.13 0,-3.98 -2.5,-7.92 -5.23,-11.01 l -9.56,-10.66 C 458,407.5 458,407.4 458,406.2 h 18.49 l 1.4,8.67 h -1.25 c -0.25,-1.5 -0.59,-3.69 -1.09,-4.44 -0.36,-0.39 -3.64,-0.39 -4.73,-0.39 z"
           id="path4593" /><path
           style="fill:#ffffff;stroke-width:0;stroke:#ffffff"
           inkscape:connector-curvature="0"
           d="m 493.68,424.78 h 5.62 c -1.64,-7.38 -2.09,-9.52 -2.09,-12.85 0,-0.75 0,-2.09 0.41,-3.79 0.5,-2.19 1.04,-2.49 1.79,-2.49 0.99,0 2.04,0.89 2.04,1.89 0,0.3 0,0.41 -0.3,1.1 -1.44,3.59 -1.44,6.82 -1.44,8.22 0,2.64 0.34,5.34 0.89,7.92 h 5.69 c 0.64,0 2.44,0 2.44,1.7 0,1.19 -1.05,1.19 -2,1.19 h -16.69 c -1.09,0 -2.99,0 -5.17,-2.35 -1.75,-1.93 -3.05,-4.23 -3.05,-4.48 0,-0.05 0,-0.48 0.59,-0.48 0.41,0 0.5,0.18 0.8,0.59 2.45,3.83 5.34,3.83 6.33,3.83 h 2.84 c -1.59,-6.02 -4.28,-12.05 -6.37,-16.58 -0.41,-0.75 -0.41,-0.86 -0.41,-1.2 0,-0.96 0.8,-1.35 1.45,-1.35 1.5,0 1.9,1.39 2.49,3.24 0.7,2.29 0.7,2.39 1.34,4.89 z"
           id="path4595" /><path
           style="fill:#ffffff;stroke-width:0;stroke:#ffffff"
           inkscape:connector-curvature="0"
           d="m 531.84,387.28 0.08,0 0.06,0 0.07,0 0.07,0 0.06,0 0.06,0 0.06,0 0.06,0 0.05,0.01 0.06,0 0.05,0 0.05,0 0.09,0.01 0.09,0 0.09,0.01 0.07,0.01 0.08,0.01 0.06,0.02 0.07,0.01 0.06,0.02 0.05,0.02 0.05,0.02 0.05,0.03 0.05,0.03 0.04,0.03 0.04,0.04 0.04,0.03 0.04,0.05 0.04,0.04 0.04,0.05 0.03,0.06 0.04,0.05 0.04,0.07 0.04,0.06 0.04,0.08 0.04,0.07 0.04,0.08 0.05,0.09 27.25,56.89 c 0.34,0.66 0.34,0.75 0.34,0.91 0,0.54 -0.39,1 -0.98,1 -0.66,0 -0.86,-0.46 -1.11,-1 l -25.71,-53.61 -10.61,24.7 -6.92,-5.33 0.75,-0.79 3.53,2.68 z"
           id="path4597" /><polyline
           style="fill:#ffffff;fill-rule:nonzero;stroke-width:0;stroke:#ffffff"
           points="561,445 608.4,445 608.4,447.04 561,447.04 "
           id="polyline4599" /><path
           style="fill:#ffffff;stroke-width:0;stroke:#ffffff"
           inkscape:connector-curvature="0"
           d="m 581.65,428.59 -0.02,-0.07 -0.02,-0.07 -0.02,-0.07 -0.02,-0.07 -0.01,-0.08 -0.02,-0.08 -0.04,-0.15 -0.04,-0.17 -0.04,-0.16 -0.04,-0.16 -0.02,-0.07 -0.02,-0.08 -0.02,-0.08 -0.02,-0.07 -0.02,-0.07 -0.01,-0.07 -0.02,-0.07 -0.01,-0.06 -0.02,-0.06 -0.01,-0.06 -0.01,-0.05 -0.01,-0.05 -0.01,-0.04 -0.01,-0.04 0,-0.04 -0.01,-0.03 0,-0.02 0,-0.02 c 0,-0.77 0.62,-1.11 1.17,-1.11 0.64,0 1.19,0.45 1.36,0.76 0.19,0.32 0.46,1.43 0.64,2.16 0.17,0.66 0.55,2.27 0.77,3.14 0.2,0.77 0.4,1.53 0.59,2.33 0.38,1.5 0.38,1.56 1.08,2.65 1.11,1.71 2.86,3.69 5.56,3.69 1.95,0 2.07,-1.61 2.07,-2.44 0,-2.09 -1.5,-5.95 -2.07,-7.42 -0.37,-0.98 -0.51,-1.29 -0.51,-1.89 0,-1.84 1.53,-2.98 3.31,-2.98 3.48,0 5.02,4.79 5.02,5.33 0,0.45 -0.46,0.45 -0.57,0.45 -0.48,0 -0.51,-0.2 -0.65,-0.59 -0.8,-2.79 -2.3,-4.22 -3.69,-4.22 -0.74,0 -0.88,0.48 -0.88,1.22 0,0.79 0.17,1.25 0.8,2.82 0.42,1.08 1.84,4.77 1.84,6.72 0,0.56 0,2.03 -1.28,3.03 -0.59,0.46 -1.61,0.94 -3.25,0.94 -3.12,0 -5.04,-2.05 -6.15,-3.51 -0.29,2.96 -2.77,3.51 -4.54,3.51 -2.88,0 -4.84,-1.76 -5.88,-3.16 -0.25,2.4 -2.3,3.16 -3.74,3.16 -1.5,0 -2.3,-1.08 -2.75,-1.87 -0.76,-1.29 -1.25,-3.29 -1.25,-3.46 0,-0.45 0.49,-0.45 0.59,-0.45 0.49,0 0.52,0.11 0.77,1.05 0.51,2.06 1.19,3.76 2.55,3.76 0.9,0 1.14,-0.76 1.14,-1.7 0,-0.67 -0.31,-1.95 -0.56,-2.89 -0.24,-0.95 -0.58,-2.38 -0.77,-3.14 l -1.11,-4.47 c -0.14,-0.44 -0.34,-1.31 -0.34,-1.42 0,-0.77 0.62,-1.11 1.18,-1.11 0.63,0 1.17,0.45 1.36,0.76 0.18,0.32 0.46,1.43 0.63,2.16 0.17,0.66 0.55,2.27 0.76,3.14 0.21,0.77 0.42,1.53 0.6,2.33 0.37,1.44 0.45,1.7 1.45,3.14 0.99,1.39 2.62,3.2 5.24,3.2 2.01,0 2.04,-1.78 2.04,-2.44 0,-0.87 -0.09,-1.32 -0.59,-3.28 z"
           id="path4601" /><polyline
           style="fill:#ffffff;fill-rule:nonzero;stroke-width:0;stroke:#ffffff"
           points="566,418 601.4,418 601.4,420.04 566,420.04 "
           id="polyline4603" /><path
           style="fill:#ffffff;stroke-width:0;stroke:#ffffff"
           inkscape:connector-curvature="0"
           d="m 584.03,412.18 0,0 0,0.01 0,0 0,0.01 0.01,0 0,0.01 0,0 0,0.01 0,0.01 0.01,0 0,0.02 0.01,0.02 0,0.02 0.01,0.02 0,0.02 0.01,0.02 0.01,0.02 0,0.02 0.01,0.03 0.01,0.04 0.01,0.05 0.01,0.02 0,0.03 0.01,0.02 0,0.02 0.01,0.02 0,0.02 0,0.01 0.01,0.02 0,0.01 0,0 0,0.01 0,0.01 0,0 0.01,0.01 0,0 0,0.01 0,0 0,0 0,0.01 0,0 c 0,0.18 -0.14,0.5 -0.57,0.5 -0.68,0 -3.57,-0.28 -4.45,-0.36 -0.28,-0.03 -0.76,-0.07 -0.76,-0.8 0,-0.48 0.48,-0.48 0.9,-0.48 1.68,0 1.68,-0.25 1.68,-0.54 0,-0.23 -0.08,-0.45 -0.15,-0.76 l -4.92,-19.72 c -0.17,-0.62 -0.17,-0.69 -0.17,-0.77 0,-0.51 0.42,-1.1 1.19,-1.1 0.93,0 1.39,0.68 1.61,1.45 0.06,0.14 1.56,6.28 1.7,6.76 2.47,-0.25 4.45,-1.04 4.45,-2.86 0,-0.17 0,-0.34 -0.06,-0.68 -0.14,-0.53 -0.14,-0.71 -0.14,-1.1 0,-2.47 2.02,-3.57 3.69,-3.57 3.39,0 4.43,5.29 4.43,5.32 0,0.46 -0.45,0.46 -0.56,0.46 -0.48,0 -0.53,-0.18 -0.7,-0.85 -0.41,-1.5 -1.36,-3.97 -3.06,-3.97 -0.94,0 -1.22,0.88 -1.22,1.82 0,0.59 0,0.65 0.2,1.56 0.05,0.11 0.19,0.7 0.19,1.09 0,3.1 -4.19,3.58 -5.66,3.69 1.02,0.63 2.3,1.78 2.89,2.3 1.79,1.67 3.54,3.31 5.47,3.31 0.42,0 0.88,-0.11 1.16,-0.45 -1.5,-0.25 -1.81,-1.43 -1.81,-1.96 0,-0.76 0.59,-1.28 1.39,-1.28 0.95,0 1.98,0.77 1.98,2.22 0,1.16 -0.83,2.44 -2.67,2.44 -1.98,0 -3.8,-1.42 -5.58,-3.06 -1.47,-1.39 -2.61,-2.47 -4.05,-3.07 z"
           id="path4605" /></g>    </g>
    <g
       style="stroke:#ffffff;fill:#ffffff"
       id="g4743"
       transform="matrix(0.48807651,0,0,0.48807651,-57.228421,491.10111)">
      <g
         word-spacing="normal"
         letter-spacing="normal"
         font-size-adjust="none"
         font-stretch="normal"
         font-weight="normal"
         font-variant="normal"
         font-style="normal"
         stroke-miterlimit="10.433"
         xml:space="preserve"
         transform="matrix(1.0629921,0,0,-1.0629921,-186.02362,789.27165)"
         id="content"
         style="font-style:normal;font-variant:normal;font-weight:normal;font-stretch:normal;letter-spacing:normal;word-spacing:normal;text-anchor:start;fill:#ffffff;stroke:#ffffff;stroke-linecap:butt;stroke-linejoin:miter;stroke-miterlimit:10.43299960999999954;stroke-opacity:1;stroke-dasharray:none;stroke-dashoffset:0"><path
           id="path4746"
           d="m 488.35,417.65 0.16,0 0.16,0 0.15,0.01 0.08,0 0.08,0.01 0.07,0 0.08,0.01 0.07,0.01 0.07,0.01 0.07,0.02 0.07,0.02 0.07,0.02 0.06,0.02 0.06,0.02 0.06,0.03 0.05,0.03 0.06,0.04 0.05,0.03 0.04,0.05 0.04,0.04 0.04,0.05 0.02,0.03 0.02,0.03 0.01,0.03 0.02,0.03 0.01,0.03 0.02,0.03 0.01,0.04 0.01,0.03 0.01,0.04 0,0.04 0.01,0.04 0.01,0.04 0,0.04 0.01,0.04 0,0.05 0,0.04 c 0,1 -0.91,1 -1.75,1 h -26.96 c -0.84,0 -1.73,0 -1.73,-1 0,-1 0.89,-1 1.73,-1 z"
           inkscape:connector-curvature="0"
           style="fill:#ffffff;stroke-width:0;stroke:#ffffff" /><path
           id="path4748"
           d="m 503.2,411.93 -0.19,-0.3 -0.19,-0.29 -0.18,-0.28 -0.19,-0.26 -0.19,-0.25 -0.18,-0.23 -0.19,-0.22 -0.18,-0.21 -0.19,-0.2 -0.19,-0.18 -0.18,-0.17 -0.19,-0.16 -0.19,-0.15 -0.19,-0.14 -0.18,-0.13 -0.19,-0.12 -0.19,-0.11 -0.19,-0.1 -0.19,-0.09 -0.19,-0.09 -0.2,-0.07 -0.19,-0.07 -0.19,-0.07 -0.2,-0.05 -0.19,-0.05 -0.2,-0.04 -0.2,-0.04 -0.2,-0.03 -0.4,-0.05 -0.41,-0.03 c -0.61,-0.05 -1.04,-0.05 -1.04,-1 0,-0.3 0.25,-0.55 0.64,-0.55 1.34,0 2.89,0.16 4.28,0.16 1.64,0 3.39,-0.16 4.98,-0.16 0.3,0 0.96,0 0.96,0.95 0,0.55 -0.46,0.6 -0.8,0.6 -1.16,0.09 -2.34,0.5 -2.34,1.73 0,0.61 0.29,1.16 0.68,1.84 l 3.8,6.39 h 12.5 l -0.14,1.54 h -11.42 l 9.83,16.45 1.59,-16.45 0.14,-1.54 c 0.11,-1.04 0.8,-7.82 0.8,-8.32 0,-1.5 -2.6,-1.64 -3.58,-1.64 -0.7,0 -1.2,0 -1.2,-1 0,-0.55 0.59,-0.55 0.7,-0.55 2.03,0 4.19,0.16 6.22,0.16 1.25,0 4.39,-0.16 5.64,-0.16 0.29,0 0.89,0 0.89,1 0,0.55 -0.5,0.55 -1.14,0.55 -3.09,0 -3.09,0.34 -3.25,1.79 l -3.03,31.13 c -0.11,1 -0.11,1.2 -0.96,1.2 -0.79,0 -0.98,-0.34 -1.29,-0.84 z"
           inkscape:connector-curvature="0"
           style="fill:#ffffff;stroke-width:0;stroke:#ffffff" /></g>    </g>
    <g
       style="stroke:#ffffff;fill:#ffffff"
       transform="matrix(0.51143538,0,0,0.51143538,-110.9947,272.89585)"
       id="g4880">
      <g
         style="font-style:normal;font-variant:normal;font-weight:normal;font-stretch:normal;letter-spacing:normal;word-spacing:normal;text-anchor:start;fill:#ffffff;stroke:#ffffff;stroke-linecap:butt;stroke-linejoin:miter;stroke-miterlimit:10.43299960999999954;stroke-opacity:1;stroke-dasharray:none;stroke-dashoffset:0"
         id="g4882"
         transform="matrix(1.0629921,0,0,-1.0629921,-186.02362,789.27165)"
         xml:space="preserve"
         stroke-miterlimit="10.433"
         font-style="normal"
         font-variant="normal"
         font-weight="normal"
         font-stretch="normal"
         font-size-adjust="none"
         letter-spacing="normal"
         word-spacing="normal"><path
           style="fill:#ffffff;stroke-width:0;stroke:#ffffff"
           inkscape:connector-curvature="0"
           d="m 464.44,411.93 -0.19,-0.3 -0.18,-0.29 -0.19,-0.28 -0.19,-0.26 -0.18,-0.25 -0.19,-0.23 -0.19,-0.22 -0.18,-0.21 -0.19,-0.2 -0.19,-0.18 -0.18,-0.17 -0.19,-0.16 -0.19,-0.15 -0.18,-0.14 -0.19,-0.13 -0.19,-0.12 -0.19,-0.11 -0.19,-0.1 -0.19,-0.09 -0.19,-0.09 -0.19,-0.07 -0.2,-0.07 -0.19,-0.07 -0.2,-0.05 -0.19,-0.05 -0.2,-0.04 -0.2,-0.04 -0.19,-0.03 -0.41,-0.05 -0.4,-0.03 c -0.61,-0.05 -1.05,-0.05 -1.05,-1 0,-0.3 0.25,-0.55 0.64,-0.55 1.34,0 2.89,0.16 4.28,0.16 1.64,0 3.39,-0.16 4.99,-0.16 0.29,0 0.95,0 0.95,0.95 0,0.55 -0.45,0.6 -0.8,0.6 -1.15,0.09 -2.34,0.5 -2.34,1.73 0,0.61 0.3,1.16 0.69,1.84 l 3.79,6.39 h 12.5 l -0.14,1.54 h -11.42 l 9.83,16.45 1.59,-16.45 0.14,-1.54 c 0.11,-1.04 0.8,-7.82 0.8,-8.32 0,-1.5 -2.59,-1.64 -3.58,-1.64 -0.7,0 -1.2,0 -1.2,-1 0,-0.55 0.59,-0.55 0.7,-0.55 2.03,0 4.19,0.16 6.22,0.16 1.25,0 4.39,-0.16 5.64,-0.16 0.3,0 0.89,0 0.89,1 0,0.55 -0.5,0.55 -1.14,0.55 -3.09,0 -3.09,0.34 -3.25,1.79 l -3.03,31.13 c -0.11,1 -0.11,1.2 -0.95,1.2 -0.8,0 -0.99,-0.34 -1.3,-0.84 z"
           id="path4884" /><path
           style="fill:#ffffff;stroke-width:0;stroke:#ffffff"
           inkscape:connector-curvature="0"
           d="m 511.48,415.87 0.11,-0.02 0.13,-0.02 0.14,-0.03 0.15,-0.04 0.17,-0.04 0.18,-0.04 0.19,-0.05 0.2,-0.06 0.2,-0.06 0.21,-0.07 0.22,-0.08 0.22,-0.08 0.22,-0.1 0.22,-0.1 0.22,-0.11 0.22,-0.12 0.22,-0.14 0.21,-0.14 0.2,-0.15 0.2,-0.16 0.19,-0.18 0.18,-0.19 0.17,-0.2 0.16,-0.21 0.14,-0.22 0.07,-0.12 0.06,-0.12 0.06,-0.13 0.05,-0.12 0.05,-0.14 0.05,-0.13 0.04,-0.14 0.03,-0.14 0.03,-0.15 0.03,-0.15 0.02,-0.16 0.01,-0.15 0.01,-0.17 0,-0.16 c 0,-2.53 -1.75,-4.53 -5.62,-4.53 -4.19,0 -5.99,2.84 -6.94,7.07 -0.14,0.64 -0.19,0.85 -0.69,0.85 -0.65,0 -0.65,-0.35 -0.65,-1.25 v -6.58 c 0,-0.84 0,-1.19 0.54,-1.19 0.25,0 0.3,0.05 1.25,1 0.1,0.1 0.1,0.19 1,1.14 2.19,-2.09 4.44,-2.14 5.49,-2.14 5.72,0 8.01,3.35 8.01,6.92 0,2.64 -1.5,4.14 -2.09,4.74 -1.64,1.59 -3.59,2 -5.69,2.39 -2.78,0.55 -6.12,1.2 -6.12,4.09 0,1.74 1.3,3.78 5.58,3.78 5.48,0 5.73,-4.48 5.82,-6.03 0.07,-0.45 0.5,-0.45 0.61,-0.45 0.64,0 0.64,0.25 0.64,1.2 v 5.03 c 0,0.85 0,1.19 -0.54,1.19 -0.25,0 -0.35,0 -1,-0.59 -0.14,-0.21 -0.64,-0.64 -0.85,-0.8 -1.89,1.39 -3.93,1.39 -4.68,1.39 -6.08,0 -7.97,-3.33 -7.97,-6.12 0,-1.74 0.79,-3.14 2.14,-4.24 1.59,-1.29 3,-1.59 6.58,-2.28 z"
           id="path4886" /><path
           style="fill:#ffffff;stroke-width:0;stroke:#ffffff"
           inkscape:connector-curvature="0"
           d="m 529.61,428.21 -6.97,-0.54 v -1.55 c 3.24,0 3.69,-0.3 3.69,-2.73 v -13.41 c 0,-2.23 -0.55,-2.23 -3.89,-2.23 v -1.55 c 1.59,0.05 4.28,0.16 5.48,0.16 1.75,0 3.49,-0.11 5.19,-0.16 v 1.55 c -3.3,0 -3.5,0.25 -3.5,2.18 z"
           id="path4888" /><path
           style="fill:#ffffff;stroke-width:0;stroke:#ffffff"
           inkscape:connector-curvature="0"
           d="m 529.81,436.89 0,0.14 -0.01,0.15 -0.02,0.14 -0.02,0.14 -0.04,0.13 -0.03,0.13 -0.05,0.13 -0.05,0.12 -0.05,0.12 -0.06,0.12 -0.07,0.11 -0.07,0.1 -0.07,0.1 -0.08,0.1 -0.09,0.1 -0.09,0.08 -0.09,0.09 -0.1,0.08 -0.1,0.07 -0.1,0.07 -0.11,0.07 -0.11,0.06 -0.11,0.05 -0.12,0.05 -0.12,0.04 -0.12,0.04 -0.12,0.03 -0.13,0.03 -0.12,0.02 -0.13,0.01 -0.13,0.01 -0.13,0.01 c -1.55,0 -2.64,-1.35 -2.64,-2.64 0,-1.35 1.09,-2.64 2.64,-2.64 1.39,0 2.64,1.04 2.64,2.64 z"
           id="path4890" /><path
           style="fill:#ffffff;stroke-width:0;stroke:#ffffff"
           inkscape:connector-curvature="0"
           d="m 540.08,423.34 v -13.36 c 0,-2.23 -0.55,-2.23 -3.89,-2.23 v -1.55 c 1.75,0.05 4.28,0.16 5.62,0.16 1.3,0 3.89,-0.11 5.58,-0.16 v 1.55 c -3.33,0 -3.87,0 -3.87,2.23 v 9.17 c 0,5.19 3.53,7.97 6.71,7.97 3.15,0 3.69,-2.69 3.69,-5.53 v -11.61 c 0,-2.23 -0.54,-2.23 -3.89,-2.23 v -1.55 c 1.75,0.05 4.3,0.16 5.64,0.16 1.3,0 3.88,-0.11 5.58,-0.16 v 1.55 c -2.59,0 -3.84,0 -3.89,1.5 v 9.51 c 0,4.28 0,5.83 -1.55,7.61 -0.69,0.86 -2.34,1.84 -5.22,1.84 -3.64,0 -5.98,-2.14 -7.37,-5.21 v 5.21 l -7.03,-0.54 v -1.55 c 3.48,0 3.89,-0.34 3.89,-2.78 z"
           id="path4892" /><path
           style="fill:#ffffff;stroke-width:0;stroke:#ffffff"
           inkscape:connector-curvature="0"
           d="m 592.48,439.57 0,0.01 0,0.01 0,0 0,0.01 0,0.01 0,0.01 0,0 0,0.01 0.01,0.02 0,0.03 0.01,0.02 0,0.02 0.01,0.03 0,0.03 0.01,0.02 0.01,0.03 0,0.03 0.01,0.03 0.01,0.06 0.02,0.06 0.01,0.03 0,0.02 0.01,0.03 0.01,0.03 0,0.02 0.01,0.02 0,0.02 0.01,0.02 0,0.01 0,0.01 0,0.01 0.01,0.01 0,0 0,0.01 0,0.01 0,0 0,0.01 0,0 0,0 0,0.01 c 0,0.04 0,0.5 -0.59,0.5 -0.5,0 -0.55,-0.16 -0.75,-1 l -2.89,-11.5 c -7.92,-0.25 -15.25,-6.88 -15.25,-13.66 0,-4.73 3.48,-8.67 9.56,-9.01 l 0.25,1.09 c -2.98,0.14 -6.58,1.89 -6.58,6.87 0,5.99 4.3,12.96 11.72,13.6 l -5.14,-20.47 -0.25,-1.09 c -0.39,-1.55 -0.73,-3.15 -1.14,-4.69 -0.59,-2.35 -1.09,-4.24 -1.09,-4.39 0,-0.49 0.34,-0.55 0.59,-0.55 0.25,0 0.36,0.06 0.5,0.2 0.09,0.1 0.41,1.3 0.55,2 l 1.89,7.43 0.25,1.09 5.14,20.47 c 3.78,-0.19 6.62,-2.49 6.62,-6.88 0,-5.87 -4.28,-13 -11.76,-13.59 l -0.25,-1.09 c 8.03,0.25 15.25,6.96 15.25,13.64 0,3.93 -2.64,8.53 -9.56,9.03 z"
           id="path4894" /></g>    </g>
  </g>
</svg>
