<?xml version="1.0" encoding="UTF-8" standalone="no"?>
<svg
   xmlns:dc="http://purl.org/dc/elements/1.1/"
   xmlns:cc="http://creativecommons.org/ns#"
   xmlns:rdf="http://www.w3.org/1999/02/22-rdf-syntax-ns#"
   xmlns:svg="http://www.w3.org/2000/svg"
   xmlns="http://www.w3.org/2000/svg"
   xmlns:xlink="http://www.w3.org/1999/xlink"
   xmlns:sodipodi="http://sodipodi.sourceforge.net/DTD/sodipodi-0.dtd"
   xmlns:inkscape="http://www.inkscape.org/namespaces/inkscape"
   width="600"
   height="480"
   viewBox="0 0 600 480"
   id="svg2"
   version="1.1"
   inkscape:version="0.48.3.1 r9886"
   sodipodi:docname="projection.svg.2013_11_08_00_53_22.0.svg">
  <sodipodi:namedview
     pagecolor="#000000"
     bordercolor="#666666"
     borderopacity="1"
     objecttolerance="10"
     gridtolerance="10"
     guidetolerance="10"
     inkscape:pageopacity="0"
     inkscape:pageshadow="2"
     inkscape:window-width="1362"
     inkscape:window-height="742"
     id="namedview350"
     showgrid="false"
     inkscape:zoom="0.98333333"
     inkscape:cx="274.05765"
     inkscape:cy="240.93015"
     inkscape:window-x="0"
     inkscape:window-y="22"
     inkscape:window-maximized="0"
     inkscape:current-layer="svg2" />
  <metadata
     id="metadata354">
    <rdf:RDF>
      <cc:Work
         rdf:about="">
        <dc:format>image/svg+xml</dc:format>
        <dc:type
           rdf:resource="http://purl.org/dc/dcmitype/StillImage" />
        <dc:title>Gnuplot</dc:title>
      </cc:Work>
    </rdf:RDF>
  </metadata>
  <defs
     id="defs352">
    <defs
       id="defs11">
      <circle
         stroke-width="0.5"
         r="0.5"
         id="gpDot" />
      <path
         d="M-1,0 h2 M0,-1 v2"
         stroke="currentColor"
         stroke-width="0.222"
         id="gpPt0" />
      <path
         d="M-1,-1 L1,1 M1,-1 L-1,1"
         stroke="currentColor"
         stroke-width="0.222"
         id="gpPt1" />
      <path
         d="M-1,0 L1,0 M0,-1 L0,1 M-1,-1 L1,1 M-1,1 L1,-1"
         stroke="currentColor"
         stroke-width="0.222"
         id="gpPt2" />
      <rect
         height="2"
         width="2"
         y="-1"
         x="-1"
         stroke="currentColor"
         stroke-width="0.222"
         id="gpPt3" />
      <rect
         height="2"
         width="2"
         y="-1"
         x="-1"
         fill="currentColor"
         stroke="currentColor"
         stroke-width="0.222"
         id="gpPt4" />
      <circle
         r="1"
         cy="0"
         cx="0"
         stroke="currentColor"
         stroke-width="0.222"
         id="gpPt5" />
      <use
         stroke="none"
         fill="currentColor"
         id="gpPt6"
         xlink:href="#gpPt5" />
      <path
         d="M0,-1.33 L-1.33,0.67 L1.33,0.67 z"
         stroke="currentColor"
         stroke-width="0.222"
         id="gpPt7" />
      <use
         stroke="none"
         fill="currentColor"
         id="gpPt8"
         xlink:href="#gpPt7" />
      <use
         transform="rotate(180)"
         stroke="currentColor"
         id="gpPt9"
         xlink:href="#gpPt7" />
      <use
         stroke="none"
         fill="currentColor"
         id="gpPt10"
         xlink:href="#gpPt9" />
      <use
         transform="rotate(45)"
         stroke="currentColor"
         id="gpPt11"
         xlink:href="#gpPt3" />
      <use
         stroke="none"
         fill="currentColor"
         id="gpPt12"
         xlink:href="#gpPt11" />
    </defs>
  </defs>
  <title
     id="title4">Gnuplot</title>
  <desc
     id="desc6">Produced by GNUPLOT 4.6 patchlevel 0 </desc>
  <rect
     style="fill:none"
     id="rect9"
     height="480"
     width="600"
     y="-1.0169492"
     x="6.1016951" />
  <g
     id="g27"
     style="color:#ffffff;fill:none;stroke:currentColor;stroke-width:1;stroke-linecap:butt;stroke-linejoin:miter" />
  <g
     transform="translate(6.1016949,-1.0169492)"
     id="g29"
     style="color:#000000;fill:#ffffff;stroke:#ffffff;stroke-width:1;stroke-linecap:butt;stroke-linejoin:miter">
    <path
       inkscape:connector-curvature="0"
       id="path31"
       d="m 92.5,444 9,0 m 418.3,0 -9,0 h 0.01"
       style="fill:#ffffff;stroke:#ffffff" />
    <g
       id="g33"
       style="font-size:15px;text-anchor:end;fill:#ffffff;stroke:#ffffff;font-family:Arial"
       transform="translate(84.2,448.5)">
      <text
         id="text35"
         style="fill:#ffffff;stroke:#ffffff">-6</text>
    </g>
    <path
       inkscape:connector-curvature="0"
       id="path37"
       d="m 92.5,372.8 9,0 m 418.3,0 -9,0 h 0.01"
       style="fill:#ffffff;stroke:#ffffff" />
    <g
       id="g39"
       style="font-size:15px;text-anchor:end;fill:#ffffff;stroke:#ffffff;font-family:Arial"
       transform="translate(84.2,377.3)">
      <text
         id="text41"
         style="fill:#ffffff;stroke:#ffffff">-4</text>
    </g>
    <path
       inkscape:connector-curvature="0"
       id="path43"
       d="m 92.5,301.6 9,0 m 418.3,0 -9,0 h 0.01"
       style="fill:#ffffff;stroke:#ffffff" />
    <g
       id="g45"
       style="font-size:15px;text-anchor:end;fill:#ffffff;stroke:#ffffff;font-family:Arial"
       transform="translate(84.2,306.1)">
      <text
         id="text47"
         style="fill:#ffffff;stroke:#ffffff">-2</text>
    </g>
    <path
       inkscape:connector-curvature="0"
       id="path49"
       d="m 92.5,230.3 9,0 m 418.3,0 -9,0 h 0.01"
       style="fill:#ffffff;stroke:#ffffff" />
    <g
       id="g51"
       style="font-size:15px;text-anchor:end;fill:#ffffff;stroke:#ffffff;font-family:Arial"
       transform="translate(84.2,234.8)">
      <text
         id="text53"
         style="fill:#ffffff;stroke:#ffffff">0</text>
    </g>
    <path
       inkscape:connector-curvature="0"
       id="path55"
       d="m 92.5,159.1 9,0 m 418.3,0 -9,0 h 0.01"
       style="fill:#ffffff;stroke:#ffffff" />
    <g
       id="g57"
       style="font-size:15px;text-anchor:end;fill:#ffffff;stroke:#ffffff;font-family:Arial"
       transform="translate(84.2,163.6)">
      <text
         id="text59"
         style="fill:#ffffff;stroke:#ffffff">2</text>
    </g>
    <path
       inkscape:connector-curvature="0"
       id="path61"
       d="m 92.5,87.9 9,0 m 418.3,0 -9,0 h 0.01"
       style="fill:#ffffff;stroke:#ffffff" />
    <g
       id="g63"
       style="font-size:15px;text-anchor:end;fill:#ffffff;stroke:#ffffff;font-family:Arial"
       transform="translate(84.2,92.4)">
      <text
         id="text65"
         style="fill:#ffffff;stroke:#ffffff">4</text>
    </g>
    <path
       inkscape:connector-curvature="0"
       id="path67"
       d="m 92.5,16.7 9,0 m 418.3,0 -9,0 h 0.01"
       style="fill:#ffffff;stroke:#ffffff" />
    <g
       id="g69"
       style="font-size:15px;text-anchor:end;fill:#ffffff;stroke:#ffffff;font-family:Arial"
       transform="translate(84.2,21.2)">
      <text
         id="text71"
         style="fill:#ffffff;stroke:#ffffff">6</text>
    </g>
    <path
       inkscape:connector-curvature="0"
       id="path73"
       d="m 92.5,444 0,-9 m 0,-418.3 0,9 h 0.01"
       style="fill:#ffffff;stroke:#ffffff" />
    <g
       id="g75"
       style="font-size:15px;text-anchor:middle;fill:#ffffff;stroke:#ffffff;font-family:Arial"
       transform="translate(92.5,466.5)">
      <text
         id="text77"
         style="fill:#ffffff;stroke:#ffffff">-6</text>
    </g>
    <path
       inkscape:connector-curvature="0"
       id="path79"
       d="m 163.7,444 0,-9 m 0,-418.3 0,9 h 0.01"
       style="fill:#ffffff;stroke:#ffffff" />
    <g
       id="g81"
       style="font-size:15px;text-anchor:middle;fill:#ffffff;stroke:#ffffff;font-family:Arial"
       transform="translate(163.7,466.5)">
      <text
         id="text83"
         style="fill:#ffffff;stroke:#ffffff">-4</text>
    </g>
    <path
       inkscape:connector-curvature="0"
       id="path85"
       d="m 234.9,444 0,-9 m 0,-418.3 0,9 h 0.01"
       style="fill:#ffffff;stroke:#ffffff" />
    <g
       id="g87"
       style="font-size:15px;text-anchor:middle;fill:#ffffff;stroke:#ffffff;font-family:Arial"
       transform="translate(234.9,466.5)">
      <text
         id="text89"
         style="fill:#ffffff;stroke:#ffffff">-2</text>
    </g>
    <path
       inkscape:connector-curvature="0"
       id="path91"
       d="m 306.2,444 0,-9 m 0,-418.3 0,9 h 0.01"
       style="fill:#ffffff;stroke:#ffffff" />
    <g
       id="g93"
       style="font-size:15px;text-anchor:middle;fill:#ffffff;stroke:#ffffff;font-family:Arial"
       transform="translate(306.2,466.5)">
      <text
         id="text95"
         style="fill:#ffffff;stroke:#ffffff">0</text>
    </g>
    <path
       inkscape:connector-curvature="0"
       id="path97"
       d="m 377.4,444 0,-9 m 0,-418.3 0,9 h 0.01"
       style="fill:#ffffff;stroke:#ffffff" />
    <g
       id="g99"
       style="font-size:15px;text-anchor:middle;fill:#ffffff;stroke:#ffffff;font-family:Arial"
       transform="translate(377.4,466.5)">
      <text
         id="text101"
         style="fill:#ffffff;stroke:#ffffff">2</text>
    </g>
    <path
       inkscape:connector-curvature="0"
       id="path103"
       d="m 448.6,444 0,-9 m 0,-418.3 0,9 h 0.01"
       style="fill:#ffffff;stroke:#ffffff" />
    <g
       id="g105"
       style="font-size:15px;text-anchor:middle;fill:#ffffff;stroke:#ffffff;font-family:Arial"
       transform="translate(448.6,466.5)">
      <text
         id="text107"
         style="fill:#ffffff;stroke:#ffffff">4</text>
    </g>
    <path
       inkscape:connector-curvature="0"
       id="path109"
       d="m 519.8,444 0,-9 m 0,-418.3 0,9 h 0.01"
       style="fill:#ffffff;stroke:#ffffff" />
    <g
       id="g111"
       style="font-size:15px;text-anchor:middle;fill:#ffffff;stroke:#ffffff;font-family:Arial"
       transform="translate(519.8,466.5)">
      <text
         id="text113"
         style="fill:#ffffff;stroke:#ffffff">6</text>
    </g>
  </g>
  <g
     transform="translate(6.1016949,-1.0169492)"
     id="g115"
     style="color:#808080;fill:none;stroke:#ffffff;stroke-width:1;stroke-linecap:butt;stroke-linejoin:miter">
    <path
       inkscape:connector-curvature="0"
       id="path117"
       d="m 92.5,230.3 427.3,0 M 306.2,444 l 0,-427.3 h 0.01"
       style="stroke:#ffffff" />
  </g>
  <g
     transform="translate(6.1016949,-1.0169492)"
     id="g119"
     style="color:#000000;fill:none;stroke:currentColor;stroke-width:1;stroke-linecap:butt;stroke-linejoin:miter">
    <path
       inkscape:connector-curvature="0"
       id="path121"
       d="m 92.5,16.7 0,427.3 427.3,0 0,-427.3 -427.3,0 z m 0,0 h 0.01" />
  </g>
  <g
     transform="translate(6.1016949,-1.0169492)"
     id="gnuplot_plot_1">
    <title
       id="title124">gnuplot_plot_1</title>
    <g
       id="g126"
       style="color:#ff0000;fill:none;stroke:currentColor;stroke-width:1;stroke-linecap:butt;stroke-linejoin:miter">
      <use
         height="480"
         width="600"
         y="0"
         x="0"
         style="color:#ffc0cb"
         id="use128"
         transform="matrix(4.5,0,0,4.5,484.2,230.3)"
         xlink:href="#gpPt6" />
      <use
         height="480"
         width="600"
         y="0"
         x="0"
         style="color:#ffc0cb"
         id="use130"
         transform="matrix(4.5,0,0,4.5,482.7,207.1)"
         xlink:href="#gpPt6" />
      <use
         height="480"
         width="600"
         y="0"
         x="0"
         style="color:#ffc0cb"
         id="use132"
         transform="matrix(4.5,0,0,4.5,478.1,184.3)"
         xlink:href="#gpPt6" />
      <use
         height="480"
         width="600"
         y="0"
         x="0"
         style="color:#ffc0cb"
         id="use134"
         transform="matrix(4.5,0,0,4.5,470.6,162.2)"
         xlink:href="#gpPt6" />
      <use
         height="480"
         width="600"
         y="0"
         x="0"
         style="color:#ffc0cb"
         id="use136"
         transform="matrix(4.5,0,0,4.5,460.3,141.3)"
         xlink:href="#gpPt6" />
      <use
         height="480"
         width="600"
         y="0"
         x="0"
         style="color:#ffc0cb"
         id="use138"
         transform="matrix(4.5,0,0,4.5,447.4,122)"
         xlink:href="#gpPt6" />
      <use
         height="480"
         width="600"
         y="0"
         x="0"
         style="color:#ffc0cb"
         id="use140"
         transform="matrix(4.5,0,0,4.5,432,104.5)"
         xlink:href="#gpPt6" />
      <use
         height="480"
         width="600"
         y="0"
         x="0"
         style="color:#ffc0cb"
         id="use142"
         transform="matrix(4.5,0,0,4.5,414.5,89.1)"
         xlink:href="#gpPt6" />
      <use
         height="480"
         width="600"
         y="0"
         x="0"
         style="color:#ffc0cb"
         id="use144"
         transform="matrix(4.5,0,0,4.5,395.2,76.2)"
         xlink:href="#gpPt6" />
      <use
         height="480"
         width="600"
         y="0"
         x="0"
         style="color:#ffc0cb"
         id="use146"
         transform="matrix(4.5,0,0,4.5,374.3,65.9)"
         xlink:href="#gpPt6" />
      <use
         height="480"
         width="600"
         y="0"
         x="0"
         style="color:#ffc0cb"
         id="use148"
         transform="matrix(4.5,0,0,4.5,352.2,58.4)"
         xlink:href="#gpPt6" />
      <use
         height="480"
         width="600"
         y="0"
         x="0"
         style="color:#ffc0cb"
         id="use150"
         transform="matrix(4.5,0,0,4.5,329.4,53.8)"
         xlink:href="#gpPt6" />
      <use
         height="480"
         width="600"
         y="0"
         x="0"
         style="color:#ffc0cb"
         id="use152"
         transform="matrix(4.5,0,0,4.5,306.2,52.3)"
         xlink:href="#gpPt6" />
      <use
         height="480"
         width="600"
         y="0"
         x="0"
         style="color:#ffc0cb"
         id="use154"
         transform="matrix(4.5,0,0,4.5,282.9,53.8)"
         xlink:href="#gpPt6" />
      <use
         height="480"
         width="600"
         y="0"
         x="0"
         style="color:#ffc0cb"
         id="use156"
         transform="matrix(4.5,0,0,4.5,260.1,58.4)"
         xlink:href="#gpPt6" />
      <use
         height="480"
         width="600"
         y="0"
         x="0"
         style="color:#ffc0cb"
         id="use158"
         transform="matrix(4.5,0,0,4.5,238,65.9)"
         xlink:href="#gpPt6" />
      <use
         height="480"
         width="600"
         y="0"
         x="0"
         style="color:#ffc0cb"
         id="use160"
         transform="matrix(4.5,0,0,4.5,217.1,76.2)"
         xlink:href="#gpPt6" />
      <use
         height="480"
         width="600"
         y="0"
         x="0"
         style="color:#ffc0cb"
         id="use162"
         transform="matrix(4.5,0,0,4.5,197.8,89.1)"
         xlink:href="#gpPt6" />
      <use
         height="480"
         width="600"
         y="0"
         x="0"
         style="color:#ffc0cb"
         id="use164"
         transform="matrix(4.5,0,0,4.5,180.3,104.5)"
         xlink:href="#gpPt6" />
      <use
         height="480"
         width="600"
         y="0"
         x="0"
         style="color:#ffc0cb"
         id="use166"
         transform="matrix(4.5,0,0,4.5,164.9,122)"
         xlink:href="#gpPt6" />
      <use
         height="480"
         width="600"
         y="0"
         x="0"
         style="color:#ffc0cb"
         id="use168"
         transform="matrix(4.5,0,0,4.5,152,141.3)"
         xlink:href="#gpPt6" />
      <use
         height="480"
         width="600"
         y="0"
         x="0"
         style="color:#ffc0cb"
         id="use170"
         transform="matrix(4.5,0,0,4.5,141.7,162.2)"
         xlink:href="#gpPt6" />
      <use
         height="480"
         width="600"
         y="0"
         x="0"
         style="color:#ffc0cb"
         id="use172"
         transform="matrix(4.5,0,0,4.5,134.2,184.3)"
         xlink:href="#gpPt6" />
      <use
         height="480"
         width="600"
         y="0"
         x="0"
         style="color:#ffc0cb"
         id="use174"
         transform="matrix(4.5,0,0,4.5,129.6,207.1)"
         xlink:href="#gpPt6" />
      <use
         height="480"
         width="600"
         y="0"
         x="0"
         style="color:#ffc0cb"
         id="use176"
         transform="matrix(4.5,0,0,4.5,128.1,230.3)"
         xlink:href="#gpPt6" />
      <use
         height="480"
         width="600"
         y="0"
         x="0"
         style="color:#ffc0cb"
         id="use178"
         transform="matrix(4.5,0,0,4.5,129.6,253.6)"
         xlink:href="#gpPt6" />
      <use
         height="480"
         width="600"
         y="0"
         x="0"
         style="color:#ffc0cb"
         id="use180"
         transform="matrix(4.5,0,0,4.5,134.2,276.4)"
         xlink:href="#gpPt6" />
      <use
         height="480"
         width="600"
         y="0"
         x="0"
         style="color:#ffc0cb"
         id="use182"
         transform="matrix(4.5,0,0,4.5,141.7,298.5)"
         xlink:href="#gpPt6" />
      <use
         height="480"
         width="600"
         y="0"
         x="0"
         style="color:#ffc0cb"
         id="use184"
         transform="matrix(4.5,0,0,4.5,152,319.4)"
         xlink:href="#gpPt6" />
      <use
         height="480"
         width="600"
         y="0"
         x="0"
         style="color:#ffc0cb"
         id="use186"
         transform="matrix(4.5,0,0,4.5,164.9,338.7)"
         xlink:href="#gpPt6" />
      <use
         height="480"
         width="600"
         y="0"
         x="0"
         style="color:#ffc0cb"
         id="use188"
         transform="matrix(4.5,0,0,4.5,180.3,356.2)"
         xlink:href="#gpPt6" />
      <use
         height="480"
         width="600"
         y="0"
         x="0"
         style="color:#ffc0cb"
         id="use190"
         transform="matrix(4.5,0,0,4.5,197.8,371.6)"
         xlink:href="#gpPt6" />
      <use
         height="480"
         width="600"
         y="0"
         x="0"
         style="color:#ffc0cb"
         id="use192"
         transform="matrix(4.5,0,0,4.5,217.1,384.5)"
         xlink:href="#gpPt6" />
      <use
         height="480"
         width="600"
         y="0"
         x="0"
         style="color:#ffc0cb"
         id="use194"
         transform="matrix(4.5,0,0,4.5,238,394.8)"
         xlink:href="#gpPt6" />
      <use
         height="480"
         width="600"
         y="0"
         x="0"
         style="color:#ffc0cb"
         id="use196"
         transform="matrix(4.5,0,0,4.5,260.1,402.3)"
         xlink:href="#gpPt6" />
      <use
         height="480"
         width="600"
         y="0"
         x="0"
         style="color:#ffc0cb"
         id="use198"
         transform="matrix(4.5,0,0,4.5,282.9,406.9)"
         xlink:href="#gpPt6" />
      <use
         height="480"
         width="600"
         y="0"
         x="0"
         style="color:#ffc0cb"
         id="use200"
         transform="matrix(4.5,0,0,4.5,306.1,408.4)"
         xlink:href="#gpPt6" />
      <use
         height="480"
         width="600"
         y="0"
         x="0"
         style="color:#ffc0cb"
         id="use202"
         transform="matrix(4.5,0,0,4.5,329.4,406.9)"
         xlink:href="#gpPt6" />
      <use
         height="480"
         width="600"
         y="0"
         x="0"
         style="color:#ffc0cb"
         id="use204"
         transform="matrix(4.5,0,0,4.5,352.2,402.3)"
         xlink:href="#gpPt6" />
      <use
         height="480"
         width="600"
         y="0"
         x="0"
         style="color:#ffc0cb"
         id="use206"
         transform="matrix(4.5,0,0,4.5,374.3,394.8)"
         xlink:href="#gpPt6" />
      <use
         height="480"
         width="600"
         y="0"
         x="0"
         style="color:#ffc0cb"
         id="use208"
         transform="matrix(4.5,0,0,4.5,395.2,384.5)"
         xlink:href="#gpPt6" />
      <use
         height="480"
         width="600"
         y="0"
         x="0"
         style="color:#ffc0cb"
         id="use210"
         transform="matrix(4.5,0,0,4.5,414.5,371.6)"
         xlink:href="#gpPt6" />
      <use
         height="480"
         width="600"
         y="0"
         x="0"
         style="color:#ffc0cb"
         id="use212"
         transform="matrix(4.5,0,0,4.5,432,356.2)"
         xlink:href="#gpPt6" />
      <use
         height="480"
         width="600"
         y="0"
         x="0"
         style="color:#ffc0cb"
         id="use214"
         transform="matrix(4.5,0,0,4.5,447.4,338.7)"
         xlink:href="#gpPt6" />
      <use
         height="480"
         width="600"
         y="0"
         x="0"
         style="color:#ffc0cb"
         id="use216"
         transform="matrix(4.5,0,0,4.5,460.3,319.4)"
         xlink:href="#gpPt6" />
      <use
         height="480"
         width="600"
         y="0"
         x="0"
         style="color:#ffc0cb"
         id="use218"
         transform="matrix(4.5,0,0,4.5,470.6,298.5)"
         xlink:href="#gpPt6" />
      <use
         height="480"
         width="600"
         y="0"
         x="0"
         style="color:#ffc0cb"
         id="use220"
         transform="matrix(4.5,0,0,4.5,478.1,276.4)"
         xlink:href="#gpPt6" />
      <use
         height="480"
         width="600"
         y="0"
         x="0"
         style="color:#ffc0cb"
         id="use222"
         transform="matrix(4.5,0,0,4.5,482.7,253.6)"
         xlink:href="#gpPt6" />
    </g>
  </g>
  <g
     transform="translate(6.1016949,-1.0169492)"
     id="gnuplot_plot_2">
    <title
       id="title225">gnuplot_plot_2</title>
    <g
       id="g227"
       style="color:#008000;fill:none;stroke:currentColor;stroke-width:1;stroke-linecap:butt;stroke-linejoin:miter">
      <use
         height="480"
         width="600"
         y="0"
         x="0"
         style="color:#add8e6"
         id="use229"
         transform="matrix(4.5,0,0,4.5,484.2,52.3)"
         xlink:href="#gpPt6" />
      <use
         height="480"
         width="600"
         y="0"
         x="0"
         style="color:#add8e6"
         id="use231"
         transform="matrix(4.5,0,0,4.5,494.3,42.2)"
         xlink:href="#gpPt6" />
      <use
         height="480"
         width="600"
         y="0"
         x="0"
         style="color:#add8e6"
         id="use233"
         transform="matrix(4.5,0,0,4.5,501.2,35.3)"
         xlink:href="#gpPt6" />
      <use
         height="480"
         width="600"
         y="0"
         x="0"
         style="color:#add8e6"
         id="use235"
         transform="matrix(4.5,0,0,4.5,504.7,31.8)"
         xlink:href="#gpPt6" />
      <use
         height="480"
         width="600"
         y="0"
         x="0"
         style="color:#add8e6"
         id="use237"
         transform="matrix(4.5,0,0,4.5,504.8,31.7)"
         xlink:href="#gpPt6" />
      <use
         height="480"
         width="600"
         y="0"
         x="0"
         style="color:#add8e6"
         id="use239"
         transform="matrix(4.5,0,0,4.5,501.6,34.9)"
         xlink:href="#gpPt6" />
      <use
         height="480"
         width="600"
         y="0"
         x="0"
         style="color:#add8e6"
         id="use241"
         transform="matrix(4.5,0,0,4.5,495,41.5)"
         xlink:href="#gpPt6" />
      <use
         height="480"
         width="600"
         y="0"
         x="0"
         style="color:#add8e6"
         id="use243"
         transform="matrix(4.5,0,0,4.5,485.2,51.3)"
         xlink:href="#gpPt6" />
      <use
         height="480"
         width="600"
         y="0"
         x="0"
         style="color:#add8e6"
         id="use245"
         transform="matrix(4.5,0,0,4.5,472.3,64.2)"
         xlink:href="#gpPt6" />
      <use
         height="480"
         width="600"
         y="0"
         x="0"
         style="color:#add8e6"
         id="use247"
         transform="matrix(4.5,0,0,4.5,456.5,80)"
         xlink:href="#gpPt6" />
      <use
         height="480"
         width="600"
         y="0"
         x="0"
         style="color:#add8e6"
         id="use249"
         transform="matrix(4.5,0,0,4.5,438.2,98.3)"
         xlink:href="#gpPt6" />
      <use
         height="480"
         width="600"
         y="0"
         x="0"
         style="color:#add8e6"
         id="use251"
         transform="matrix(4.5,0,0,4.5,417.6,118.9)"
         xlink:href="#gpPt6" />
      <use
         height="480"
         width="600"
         y="0"
         x="0"
         style="color:#add8e6"
         id="use253"
         transform="matrix(4.5,0,0,4.5,395.2,141.3)"
         xlink:href="#gpPt6" />
      <use
         height="480"
         width="600"
         y="0"
         x="0"
         style="color:#add8e6"
         id="use255"
         transform="matrix(4.5,0,0,4.5,371.2,165.3)"
         xlink:href="#gpPt6" />
      <use
         height="480"
         width="600"
         y="0"
         x="0"
         style="color:#add8e6"
         id="use257"
         transform="matrix(4.5,0,0,4.5,346.1,190.4)"
         xlink:href="#gpPt6" />
      <use
         height="480"
         width="600"
         y="0"
         x="0"
         style="color:#add8e6"
         id="use259"
         transform="matrix(4.5,0,0,4.5,320.3,216.2)"
         xlink:href="#gpPt6" />
      <use
         height="480"
         width="600"
         y="0"
         x="0"
         style="color:#add8e6"
         id="use261"
         transform="matrix(4.5,0,0,4.5,294.2,242.3)"
         xlink:href="#gpPt6" />
      <use
         height="480"
         width="600"
         y="0"
         x="0"
         style="color:#add8e6"
         id="use263"
         transform="matrix(4.5,0,0,4.5,268.4,268.1)"
         xlink:href="#gpPt6" />
      <use
         height="480"
         width="600"
         y="0"
         x="0"
         style="color:#add8e6"
         id="use265"
         transform="matrix(4.5,0,0,4.5,243.2,293.3)"
         xlink:href="#gpPt6" />
      <use
         height="480"
         width="600"
         y="0"
         x="0"
         style="color:#add8e6"
         id="use267"
         transform="matrix(4.5,0,0,4.5,219.1,317.4)"
         xlink:href="#gpPt6" />
      <use
         height="480"
         width="600"
         y="0"
         x="0"
         style="color:#add8e6"
         id="use269"
         transform="matrix(4.5,0,0,4.5,196.5,340)"
         xlink:href="#gpPt6" />
      <use
         height="480"
         width="600"
         y="0"
         x="0"
         style="color:#add8e6"
         id="use271"
         transform="matrix(4.5,0,0,4.5,175.7,360.8)"
         xlink:href="#gpPt6" />
      <use
         height="480"
         width="600"
         y="0"
         x="0"
         style="color:#add8e6"
         id="use273"
         transform="matrix(4.5,0,0,4.5,157.2,379.3)"
         xlink:href="#gpPt6" />
      <use
         height="480"
         width="600"
         y="0"
         x="0"
         style="color:#add8e6"
         id="use275"
         transform="matrix(4.5,0,0,4.5,141.3,395.2)"
         xlink:href="#gpPt6" />
      <use
         height="480"
         width="600"
         y="0"
         x="0"
         style="color:#add8e6"
         id="use277"
         transform="matrix(4.5,0,0,4.5,128.1,408.4)"
         xlink:href="#gpPt6" />
      <use
         height="480"
         width="600"
         y="0"
         x="0"
         style="color:#add8e6"
         id="use279"
         transform="matrix(4.5,0,0,4.5,118,418.5)"
         xlink:href="#gpPt6" />
      <use
         height="480"
         width="600"
         y="0"
         x="0"
         style="color:#add8e6"
         id="use281"
         transform="matrix(4.5,0,0,4.5,111.1,425.4)"
         xlink:href="#gpPt6" />
      <use
         height="480"
         width="600"
         y="0"
         x="0"
         style="color:#add8e6"
         id="use283"
         transform="matrix(4.5,0,0,4.5,107.6,428.9)"
         xlink:href="#gpPt6" />
      <use
         height="480"
         width="600"
         y="0"
         x="0"
         style="color:#add8e6"
         id="use285"
         transform="matrix(4.5,0,0,4.5,107.5,429)"
         xlink:href="#gpPt6" />
      <use
         height="480"
         width="600"
         y="0"
         x="0"
         style="color:#add8e6"
         id="use287"
         transform="matrix(4.5,0,0,4.5,110.7,425.8)"
         xlink:href="#gpPt6" />
      <use
         height="480"
         width="600"
         y="0"
         x="0"
         style="color:#add8e6"
         id="use289"
         transform="matrix(4.5,0,0,4.5,117.3,419.2)"
         xlink:href="#gpPt6" />
      <use
         height="480"
         width="600"
         y="0"
         x="0"
         style="color:#add8e6"
         id="use291"
         transform="matrix(4.5,0,0,4.5,127.1,409.4)"
         xlink:href="#gpPt6" />
      <use
         height="480"
         width="600"
         y="0"
         x="0"
         style="color:#add8e6"
         id="use293"
         transform="matrix(4.5,0,0,4.5,140,396.5)"
         xlink:href="#gpPt6" />
      <use
         height="480"
         width="600"
         y="0"
         x="0"
         style="color:#add8e6"
         id="use295"
         transform="matrix(4.5,0,0,4.5,155.8,380.7)"
         xlink:href="#gpPt6" />
      <use
         height="480"
         width="600"
         y="0"
         x="0"
         style="color:#add8e6"
         id="use297"
         transform="matrix(4.5,0,0,4.5,174.1,362.4)"
         xlink:href="#gpPt6" />
      <use
         height="480"
         width="600"
         y="0"
         x="0"
         style="color:#add8e6"
         id="use299"
         transform="matrix(4.5,0,0,4.5,194.7,341.8)"
         xlink:href="#gpPt6" />
      <use
         height="480"
         width="600"
         y="0"
         x="0"
         style="color:#add8e6"
         id="use301"
         transform="matrix(4.5,0,0,4.5,217.1,319.4)"
         xlink:href="#gpPt6" />
      <use
         height="480"
         width="600"
         y="0"
         x="0"
         style="color:#add8e6"
         id="use303"
         transform="matrix(4.5,0,0,4.5,241.1,295.4)"
         xlink:href="#gpPt6" />
      <use
         height="480"
         width="600"
         y="0"
         x="0"
         style="color:#add8e6"
         id="use305"
         transform="matrix(4.5,0,0,4.5,266.2,270.3)"
         xlink:href="#gpPt6" />
      <use
         height="480"
         width="600"
         y="0"
         x="0"
         style="color:#add8e6"
         id="use307"
         transform="matrix(4.5,0,0,4.5,292,244.5)"
         xlink:href="#gpPt6" />
      <use
         height="480"
         width="600"
         y="0"
         x="0"
         style="color:#add8e6"
         id="use309"
         transform="matrix(4.5,0,0,4.5,318.1,218.4)"
         xlink:href="#gpPt6" />
      <use
         height="480"
         width="600"
         y="0"
         x="0"
         style="color:#add8e6"
         id="use311"
         transform="matrix(4.5,0,0,4.5,343.9,192.6)"
         xlink:href="#gpPt6" />
      <use
         height="480"
         width="600"
         y="0"
         x="0"
         style="color:#add8e6"
         id="use313"
         transform="matrix(4.5,0,0,4.5,369.1,167.4)"
         xlink:href="#gpPt6" />
      <use
         height="480"
         width="600"
         y="0"
         x="0"
         style="color:#add8e6"
         id="use315"
         transform="matrix(4.5,0,0,4.5,393.2,143.3)"
         xlink:href="#gpPt6" />
      <use
         height="480"
         width="600"
         y="0"
         x="0"
         style="color:#add8e6"
         id="use317"
         transform="matrix(4.5,0,0,4.5,415.8,120.7)"
         xlink:href="#gpPt6" />
      <use
         height="480"
         width="600"
         y="0"
         x="0"
         style="color:#add8e6"
         id="use319"
         transform="matrix(4.5,0,0,4.5,436.6,99.9)"
         xlink:href="#gpPt6" />
      <use
         height="480"
         width="600"
         y="0"
         x="0"
         style="color:#add8e6"
         id="use321"
         transform="matrix(4.5,0,0,4.5,455.1,81.4)"
         xlink:href="#gpPt6" />
      <use
         height="480"
         width="600"
         y="0"
         x="0"
         style="color:#add8e6"
         id="use323"
         transform="matrix(4.5,0,0,4.5,471,65.5)"
         xlink:href="#gpPt6" />
    </g>
  </g>
  <g
     transform="translate(6.1016949,-1.0169492)"
     id="gnuplot_plot_3">
    <title
       id="title326">gnuplot_plot_3</title>
    <g
       id="g328"
       style="color:#0000ff;fill:none;stroke:currentColor;stroke-width:1;stroke-linecap:butt;stroke-linejoin:miter">
      <path
         style="stroke:#90ee90"
         inkscape:connector-curvature="0"
         id="path330"
         d="m 488.8,69.6 -4.6,-17.3 -4.6,17.3 m 4.6,160.7 0,-178 m 13.5,7.5 -3.4,-17.6 -5.8,17 m -5.8,147.9 11.6,-164.9 m 8.8,10.9 -1.9,-17.8 -7.2,16.4 m -15.9,132.6 23.1,-149 m 3.6,14.4 -0.1,-17.9 -8.9,15.6 M 470.6,162.2 504.7,31.8 M 502.6,49.5 504.8,31.7 494,46 m -33.7,95.3 44.5,-109.6 m -8.4,20.4 5.2,-17.2 -13.1,12.3 M 447.4,122 501.6,34.9 M 486,57 l 9,-15.5 -15.5,9 m -47.5,54 63,-63 m -22.9,22.1 13.1,-12.3 -17.5,4 m -53.2,33.8 70.7,-37.8 m -29.3,20.1 16.4,-7.2 -17.8,-1.9 m -59.3,13.9 77.1,-12 M 438.6,81.6 456.5,80 440.2,72.5 M 374.3,65.9 456.5,80 m -36,15.3 17.7,3 -13.8,-11.5 m -72.2,-28.4 86,39.9 m -37.3,14.1 16.7,6.5 -11.2,-14 m -77,-51.1 88.2,65.1 m -37.9,13.4 15.5,9 -9,-15.5 m -80,-73.5 89,89 m -38.4,13.3 14.4,10.7 -7.1,-16.5 m -81.2,-95 88.3,111.5 m -38.4,13.1 13.3,12 -5.5,-17.1 m -80.5,-114.9 86,132 m -38.2,12.8 12.4,13 -4.2,-17.4 M 238,65.9 320.3,216.2 m -37.6,12.3 11.5,13.8 -3,-17.7 M 217.1,76.2 294.2,242.3 m -36.5,11.4 10.7,14.4 -2,-17.8 m -68.6,-161.2 70.6,179 m -35.1,10.2 9.9,15 -1,-17.9 m -61.9,-170.9 62.9,188.8 m -33.2,8.6 9.1,15.5 -0.1,-17.9 M 164.9,122 219.1,317.4 m -30.9,6.7 8.3,15.9 0.7,-17.9 M 152,141.3 196.5,340 m -28.3,4.5 7.5,16.3 1.6,-17.9 m -35.6,-180.7 34,198.6 m -25.1,1.8 6.6,16.7 2.5,-17.8 m -25.5,-177.2 23,195 m -21.6,-1.1 5.7,17 3.5,-17.6 m -15.2,-170.5 11.7,188.1 m -17.8,-4.1 4.6,17.3 4.6,-17.3 m -4.6,-160.8 0,178.1 m -13.5,-7.5 3.4,17.6 5.8,-17 M 129.6,253.6 118,418.5 m -8.8,-10.9 1.9,17.8 7.2,-16.4 m 15.9,-132.6 -23.1,149 m -3.6,-14.4 0.1,17.9 8.9,-15.6 m 25.2,-114.8 -34.1,130.4 m 2.1,-17.7 -2.2,17.8 10.8,-14.3 M 152,319.4 107.5,429 m 8.4,-20.4 -5.2,17.2 13.1,-12.3 m 41.1,-74.8 -54.2,87.1 m 15.6,-22.1 -9,15.5 15.5,-9 m 47.5,-54 -63,63 m 22.9,-22.1 -13.1,12.3 17.5,-4 m 53.2,-33.8 -70.7,37.8 m 29.3,-20.1 -16.4,7.2 17.8,1.9 m 59.3,-13.9 -77.1,12 m 33.7,-17.4 -17.9,1.6 16.3,7.5 m 65.9,6.6 -82.2,-14.1 m 36,-15.3 -17.7,-3 13.8,11.5 m 72.2,28.4 -86,-39.9 m 37.3,-14.1 -16.7,-6.5 11.2,14 m 77,51.1 -88.2,-65.1 m 37.9,-13.4 -15.5,-9 9,15.5 m 80,73.5 -89,-89 m 38.4,-13.3 -14.4,-10.7 7.1,16.5 m 81.2,95 -88.3,-111.5 m 38.4,-13.1 -13.3,-12 5.5,17.1 m 80.5,114.9 -86,-132 m 38.2,-12.8 -12.4,-13 4.2,17.4 M 374.3,394.8 292,244.5 m 37.6,-12.3 -11.5,-13.8 3,17.7 m 74.1,148.4 -77.1,-166.1 m 36.5,-11.4 -10.7,-14.4 2,17.8 m 68.6,161.2 -70.6,-179 m 35.1,-10.2 -9.9,-15 1,17.9 M 432,356.2 369.1,167.4 m 33.2,-8.6 -9.1,-15.5 0.1,17.9 m 54.1,177.5 -54.2,-195.4 m 30.9,-6.7 -8.3,-15.9 -0.7,17.9 m 45.2,180.8 -44.5,-198.7 m 28.3,-4.5 -7.5,-16.3 -1.6,17.9 m 35.6,180.7 -34,-198.6 m 25.1,-1.8 -6.6,-16.7 -2.5,17.8 m 25.5,177.2 -23,-195 m 21.6,1.1 -5.7,-17 -3.5,17.6 M 482.7,253.6 471,65.5 h 0.01" />
    </g>
  </g>
  <g
     transform="translate(6.1016949,-1.0169492)"
     id="gnuplot_plot_4">
    <title
       id="title333">gnuplot_plot_4</title>
    <g
       id="g335"
       style="color:#00ffff;fill:none;stroke:currentColor;stroke-width:1;stroke-linecap:butt;stroke-linejoin:miter">
      <path
         style="stroke:#ffffff"
         inkscape:connector-curvature="0"
         id="path337"
         d="m 92.5,444 4.3,-4.3 4.3,-4.3 4.3,-4.3 4.4,-4.4 4.3,-4.3 4.3,-4.3 4.3,-4.3 4.3,-4.3 4.3,-4.3 4.4,-4.4 4.3,-4.3 4.3,-4.3 4.3,-4.3 4.3,-4.3 4.3,-4.3 4.4,-4.4 4.3,-4.3 4.3,-4.3 4.3,-4.3 4.3,-4.3 4.3,-4.3 4.4,-4.4 4.3,-4.3 4.3,-4.3 4.3,-4.3 4.3,-4.3 4.3,-4.3 4.4,-4.4 4.3,-4.3 4.3,-4.3 4.3,-4.3 4.3,-4.3 4.3,-4.3 4.3,-4.3 4.4,-4.4 4.3,-4.3 4.3,-4.3 4.3,-4.3 4.3,-4.3 4.3,-4.3 4.4,-4.4 4.3,-4.3 4.3,-4.3 4.3,-4.3 4.3,-4.3 4.3,-4.3 4.4,-4.4 4.3,-4.3 4.3,-4.3 4.3,-4.3 4.3,-4.3 4.3,-4.3 4.4,-4.4 4.3,-4.3 4.3,-4.3 4.3,-4.3 4.3,-4.3 4.3,-4.3 4.4,-4.4 4.3,-4.3 4.3,-4.3 4.3,-4.3 4.3,-4.3 4.3,-4.3 4.4,-4.4 4.3,-4.3 4.3,-4.3 4.3,-4.3 4.3,-4.3 4.3,-4.3 4.3,-4.3 4.4,-4.4 4.3,-4.3 4.3,-4.3 4.3,-4.3 4.3,-4.3 4.3,-4.3 4.4,-4.4 4.3,-4.3 4.3,-4.3 4.3,-4.3 4.3,-4.3 4.3,-4.3 4.4,-4.4 4.3,-4.3 4.3,-4.3 4.3,-4.3 4.3,-4.3 4.3,-4.3 4.4,-4.4 4.3,-4.3 4.3,-4.3 4.3,-4.3 4.3,-4.3 4.3,-4.3 4.4,-4.4 4.3,-4.3 4.3,-4.3 4.3,-4.3 h 0.01" />
    </g>
  </g>
  <g
     transform="translate(6.1016949,-1.0169492)"
     id="gnuplot_plot_5">
    <title
       id="title340">gnuplot_plot_5</title>
    <g
       id="g342"
       style="color:#157545;fill:none;stroke:currentColor;stroke-width:1;stroke-linecap:butt;stroke-linejoin:miter">
      <path
         style="stroke:#ffffff"
         inkscape:connector-curvature="0"
         id="path344"
         d="m 199.3,16.7 1.1,2.2 4.3,8.6 4.3,8.6 4.4,8.7 4.3,8.6 4.3,8.6 4.3,8.7 4.3,8.6 4.3,8.6 4.3,8.6 4.4,8.7 4.3,8.6 4.3,8.6 4.3,8.7 4.3,8.6 4.3,8.6 4.4,8.7 4.3,8.6 4.3,8.6 4.3,8.7 4.3,8.6 4.3,8.6 4.4,8.7 4.3,8.6 4.3,8.6 4.3,8.7 4.3,8.6 4.3,8.6 4.4,8.7 4.3,8.6 4.3,8.6 4.3,8.7 4.3,8.6 4.3,8.6 4.4,8.7 4.3,8.6 4.3,8.6 4.3,8.7 4.3,8.6 4.3,8.6 4.4,8.7 4.3,8.6 4.3,8.6 4.3,8.6 4.3,8.7 4.3,8.6 4.3,8.6 4.4,8.7 4.3,8.6 4.3,8.6 1.1,2.2 h 0.01" />
    </g>
  </g>
  <g
     transform="translate(6.1016949,-1.0169492)"
     id="g346"
     style="color:#000000;fill:none;stroke:#ffffff;stroke-width:1;stroke-linecap:butt;stroke-linejoin:miter">
    <path
       inkscape:connector-curvature="0"
       id="path348"
       d="m 92.5,16.7 0,427.3 427.3,0 0,-427.3 -427.3,0 z m 0,0 h 0.01"
       style="stroke:#ffffff" />
  </g>
  <g
     transform="translate(326.44068,-167.79661)"
     id="g3697"
     style="fill:#ffffff">
    <g
       style="font-style:normal;font-variant:normal;font-weight:normal;font-stretch:normal;letter-spacing:normal;word-spacing:normal;text-anchor:start;fill:#ffffff;stroke:#000000;stroke-linecap:butt;stroke-linejoin:miter;stroke-miterlimit:10.43299961;stroke-opacity:1;stroke-dasharray:none;stroke-dashoffset:0"
       id="content"
       transform="matrix(0.68571429,0,0,-0.68571429,-120,450)"
       xml:space="preserve"
       stroke-miterlimit="10.433"
       font-style="normal"
       font-variant="normal"
       font-weight="normal"
       font-stretch="normal"
       font-size-adjust="none"
       letter-spacing="normal"
       word-spacing="normal"><path
         style="fill:#ffffff;stroke-width:0"
         inkscape:connector-curvature="0"
         d="m 479.74,425.18 0.01,0.04 0.01,0.03 0.01,0.06 0.02,0.05 0.01,0.06 0.01,0.05 0.02,0.04 0.01,0.05 0.01,0.04 0.01,0.04 0,0.04 0.01,0.04 0.01,0.04 0.01,0.03 0,0.03 0.01,0.03 0,0.03 0.01,0.03 0,0.03 0.01,0.05 0,0.06 0,0.05 0,0.05 0.01,0.05 0,0.03 0,0.03 0,0.03 0,0.03 c 0,0.91 -0.69,1.35 -1.44,1.35 -0.5,0 -1.3,-0.3 -1.75,-1.05 -0.1,-0.25 -0.5,-1.78 -0.69,-2.69 -0.36,-1.29 -0.7,-2.64 -1,-3.98 l -2.25,-8.97 c -0.19,-0.75 -2.33,-4.23 -5.62,-4.23 -2.54,0 -3.1,2.18 -3.1,4.03 0,2.29 0.86,5.39 2.55,9.76 0.8,2.05 1,2.6 1,3.6 0,2.23 -1.59,4.07 -4.09,4.07 -4.74,0 -6.58,-7.21 -6.58,-7.67 0,-0.5 0.5,-0.5 0.61,-0.5 0.5,0 0.54,0.11 0.79,0.91 1.35,4.69 3.33,6.17 5.03,6.17 0.4,0 1.25,0 1.25,-1.59 0,-1.25 -0.5,-2.53 -0.85,-3.49 -1.99,-5.28 -2.9,-8.12 -2.9,-10.47 0,-4.42 3.15,-5.92 6.08,-5.92 1.96,0 3.64,0.85 5.03,2.24 -0.64,-2.58 -1.23,-5.03 -3.23,-7.68 -1.3,-1.68 -3.19,-3.14 -5.48,-3.14 -0.69,0 -2.94,0.16 -3.79,2.1 0.8,0 1.46,0 2.14,0.61 0.5,0.43 1,1.09 1,2.03 0,1.55 -1.34,1.75 -1.84,1.75 -1.14,0 -2.8,-0.8 -2.8,-3.24 0,-2.5 2.21,-4.34 5.29,-4.34 5.14,0 10.26,4.55 11.67,10.17 z"
         id="path3700" /><path
         style="fill:#ffffff;stroke-width:0"
         inkscape:connector-curvature="0"
         d="m 529.83,422.5 0.14,0 0.15,0 0.14,0 0.07,0.01 0.08,0 0.07,0.01 0.07,0.01 0.07,0.01 0.07,0.01 0.07,0.01 0.06,0.02 0.07,0.02 0.06,0.02 0.06,0.02 0.06,0.03 0.06,0.03 0.05,0.04 0.05,0.03 0.05,0.05 0.04,0.04 0.04,0.05 0.02,0.03 0.02,0.03 0.01,0.02 0.02,0.03 0.01,0.03 0.01,0.04 0.02,0.03 0.01,0.04 0.01,0.03 0.01,0.04 0,0.04 0.01,0.04 0,0.04 0.01,0.04 0,0.04 0,0.05 c 0,1 -0.95,1 -1.64,1 h -29.84 c -0.71,0 -1.65,0 -1.65,-1 0,-0.98 0.94,-0.98 1.69,-0.98 z"
         id="path3702" /><path
         style="fill:#ffffff;stroke-width:0"
         inkscape:connector-curvature="0"
         d="m 529.88,412.82 0.06,0 0.07,0 0.14,0.01 0.14,0 0.07,0 0.07,0.01 0.06,0.01 0.07,0 0.07,0.01 0.07,0.02 0.07,0.01 0.06,0.02 0.07,0.02 0.06,0.02 0.06,0.02 0.05,0.03 0.06,0.03 0.05,0.04 0.05,0.04 0.05,0.04 0.04,0.05 0.02,0.02 0.02,0.03 0.02,0.02 0.02,0.03 0.01,0.03 0.02,0.03 0.01,0.03 0.01,0.03 0.02,0.04 0.01,0.03 0.01,0.04 0.01,0.04 0,0.04 0.01,0.04 0,0.04 0.01,0.04 0,0.05 0,0.04 c 0,1 -0.95,1 -1.69,1 h -29.75 c -0.75,0 -1.69,0 -1.69,-1 0,-1 0.94,-1 1.65,-1 z"
         id="path3704" /><path
         style="fill:#ffffff;stroke-width:0"
         inkscape:connector-curvature="0"
         d="m 564.8,421.25 0.03,0.13 0.03,0.15 0.04,0.16 0.05,0.18 0.05,0.19 0.06,0.21 0.07,0.22 0.07,0.22 0.08,0.23 0.09,0.24 0.09,0.25 0.11,0.24 0.11,0.25 0.12,0.25 0.13,0.25 0.13,0.25 0.15,0.24 0.16,0.24 0.17,0.23 0.17,0.22 0.19,0.22 0.2,0.2 0.21,0.19 0.22,0.18 0.23,0.16 0.24,0.14 0.13,0.07 0.13,0.06 0.13,0.05 0.14,0.05 0.14,0.05 0.14,0.04 0.15,0.03 0.15,0.03 0.15,0.02 0.15,0.02 0.16,0.01 0.16,0 c 0.25,0 1.44,0 2.49,-0.64 -1.39,-0.25 -2.39,-1.5 -2.39,-2.69 0,-0.79 0.55,-1.75 1.89,-1.75 1.09,0 2.69,0.89 2.69,2.89 0,2.6 -2.94,3.28 -4.63,3.28 -2.89,0 -4.64,-2.64 -5.23,-3.78 -1.25,3.28 -3.94,3.78 -5.38,3.78 -5.19,0 -8.03,-6.42 -8.03,-7.67 0,-0.5 0.5,-0.5 0.61,-0.5 0.39,0 0.55,0.11 0.64,0.55 1.69,5.28 4.99,6.53 6.67,6.53 0.96,0 2.69,-0.44 2.69,-3.33 0,-1.54 -0.84,-4.89 -2.69,-11.86 -0.79,-3.09 -2.53,-5.18 -4.73,-5.18 -0.3,0 -1.44,0 -2.49,0.65 1.25,0.24 2.35,1.28 2.35,2.69 0,1.34 -1.1,1.73 -1.85,1.73 -1.5,0 -2.75,-1.29 -2.75,-2.89 0,-2.28 2.5,-3.28 4.69,-3.28 3.3,0 5.08,3.49 5.24,3.78 0.59,-1.84 2.39,-3.78 5.37,-3.78 5.14,0 7.99,6.42 7.99,7.67 0,0.5 -0.46,0.5 -0.61,0.5 -0.44,0 -0.55,-0.2 -0.65,-0.54 -1.64,-5.33 -5.03,-6.53 -6.62,-6.53 -1.95,0 -2.75,1.59 -2.75,3.29 0,1.1 0.3,2.19 0.86,4.38 z"
         id="path3706" /></g>  </g>
  <g
     id="g4963"
     style="fill:#ffffff"
     transform="translate(-61.016947,-171.86441)">
    <g
       word-spacing="normal"
       letter-spacing="normal"
       font-size-adjust="none"
       font-stretch="normal"
       font-weight="normal"
       font-variant="normal"
       font-style="normal"
       stroke-miterlimit="10.433"
       xml:space="preserve"
       transform="matrix(0.68571429,0,0,-0.68571429,-120,450)"
       id="g4965"
       style="font-style:normal;font-variant:normal;font-weight:normal;font-stretch:normal;letter-spacing:normal;word-spacing:normal;text-anchor:start;fill:#ffffff;fill-opacity:1;fill-rule:evenodd;stroke:#000000;stroke-linecap:butt;stroke-linejoin:miter;stroke-miterlimit:10.43299961;stroke-opacity:1;stroke-dasharray:none;stroke-dashoffset:0"><path
         id="path4967"
         d="m 479.74,425.18 0.01,0.04 0.01,0.03 0.01,0.06 0.02,0.05 0.01,0.06 0.01,0.05 0.02,0.04 0.01,0.05 0.01,0.04 0.01,0.04 0,0.04 0.01,0.04 0.01,0.04 0.01,0.03 0,0.03 0.01,0.03 0,0.03 0.01,0.03 0,0.03 0.01,0.05 0,0.06 0,0.05 0,0.05 0.01,0.05 0,0.03 0,0.03 0,0.03 0,0.03 c 0,0.91 -0.69,1.35 -1.44,1.35 -0.5,0 -1.3,-0.3 -1.75,-1.05 -0.1,-0.25 -0.5,-1.78 -0.69,-2.69 -0.36,-1.29 -0.7,-2.64 -1,-3.98 l -2.25,-8.97 c -0.19,-0.75 -2.33,-4.23 -5.62,-4.23 -2.54,0 -3.1,2.18 -3.1,4.03 0,2.29 0.86,5.39 2.55,9.76 0.8,2.05 1,2.6 1,3.6 0,2.23 -1.59,4.07 -4.09,4.07 -4.74,0 -6.58,-7.21 -6.58,-7.67 0,-0.5 0.5,-0.5 0.61,-0.5 0.5,0 0.54,0.11 0.79,0.91 1.35,4.69 3.33,6.17 5.03,6.17 0.4,0 1.25,0 1.25,-1.59 0,-1.25 -0.5,-2.53 -0.85,-3.49 -1.99,-5.28 -2.9,-8.12 -2.9,-10.47 0,-4.42 3.15,-5.92 6.08,-5.92 1.96,0 3.64,0.85 5.03,2.24 -0.64,-2.58 -1.23,-5.03 -3.23,-7.68 -1.3,-1.68 -3.19,-3.14 -5.48,-3.14 -0.69,0 -2.94,0.16 -3.79,2.1 0.8,0 1.46,0 2.14,0.61 0.5,0.43 1,1.09 1,2.03 0,1.55 -1.34,1.75 -1.84,1.75 -1.14,0 -2.8,-0.8 -2.8,-3.24 0,-2.5 2.21,-4.34 5.29,-4.34 5.14,0 10.26,4.55 11.67,10.17 z"
         style="fill:#ffffff;stroke-width:0"
         inkscape:connector-curvature="0" /><path
         id="path4969"
         d="m 529.83,422.5 0.14,0 0.15,0 0.14,0 0.07,0.01 0.08,0 0.07,0.01 0.07,0.01 0.07,0.01 0.07,0.01 0.07,0.01 0.06,0.02 0.07,0.02 0.06,0.02 0.06,0.02 0.06,0.03 0.06,0.03 0.05,0.04 0.05,0.03 0.05,0.05 0.04,0.04 0.04,0.05 0.02,0.03 0.02,0.03 0.01,0.02 0.02,0.03 0.01,0.03 0.01,0.04 0.02,0.03 0.01,0.04 0.01,0.03 0.01,0.04 0,0.04 0.01,0.04 0,0.04 0.01,0.04 0,0.04 0,0.05 c 0,1 -0.95,1 -1.64,1 h -29.84 c -0.71,0 -1.65,0 -1.65,-1 0,-0.98 0.94,-0.98 1.69,-0.98 z"
         style="fill:#ffffff;stroke-width:0"
         inkscape:connector-curvature="0" /><path
         id="path4971"
         d="m 529.88,412.82 0.06,0 0.07,0 0.14,0.01 0.14,0 0.07,0 0.07,0.01 0.06,0.01 0.07,0 0.07,0.01 0.07,0.02 0.07,0.01 0.06,0.02 0.07,0.02 0.06,0.02 0.06,0.02 0.05,0.03 0.06,0.03 0.05,0.04 0.05,0.04 0.05,0.04 0.04,0.05 0.02,0.02 0.02,0.03 0.02,0.02 0.02,0.03 0.01,0.03 0.02,0.03 0.01,0.03 0.01,0.03 0.02,0.04 0.01,0.03 0.01,0.04 0.01,0.04 0,0.04 0.01,0.04 0,0.04 0.01,0.04 0,0.05 0,0.04 c 0,1 -0.95,1 -1.69,1 h -29.75 c -0.75,0 -1.69,0 -1.69,-1 0,-1 0.94,-1 1.65,-1 z"
         style="fill:#ffffff;stroke-width:0"
         inkscape:connector-curvature="0" /><path
         id="path4973"
         d="m 580.98,417.65 0.16,0 0.16,0 0.16,0.01 0.08,0 0.07,0.01 0.08,0 0.07,0.01 0.08,0.01 0.07,0.01 0.07,0.02 0.07,0.02 0.06,0.02 0.07,0.02 0.06,0.02 0.05,0.03 0.06,0.03 0.05,0.04 0.05,0.03 0.05,0.05 0.04,0.04 0.04,0.05 0.02,0.03 0.01,0.03 0.02,0.03 0.01,0.03 0.02,0.03 0.01,0.03 0.01,0.04 0.01,0.03 0.01,0.04 0.01,0.04 0.01,0.04 0,0.04 0.01,0.04 0,0.04 0,0.05 0,0.04 c 0,1 -0.9,1 -1.75,1 h -26.95 c -0.84,0 -1.73,0 -1.73,-1 0,-1 0.89,-1 1.73,-1 z"
         style="fill:#ffffff;stroke-width:0"
         inkscape:connector-curvature="0" /><path
         id="path4975"
         d="m 593.24,410.04 5.28,5.13 c 7.77,6.87 10.77,9.56 10.77,14.54 0,5.69 -4.49,9.68 -10.56,9.68 -5.64,0 -9.33,-4.6 -9.33,-9.03 0,-2.79 2.5,-2.79 2.64,-2.79 0.86,0 2.59,0.6 2.59,2.64 0,1.3 -0.89,2.6 -2.64,2.6 -0.39,0 -0.5,0 -0.64,-0.05 1.14,3.24 3.83,5.08 6.72,5.08 4.53,0 6.69,-4.05 6.69,-8.13 0,-3.98 -2.5,-7.92 -5.24,-11.01 l -9.56,-10.66 c -0.56,-0.54 -0.56,-0.64 -0.56,-1.84 h 18.48 l 1.41,8.67 h -1.25 c -0.25,-1.5 -0.59,-3.69 -1.09,-4.44 -0.36,-0.39 -3.65,-0.39 -4.74,-0.39 z"
         style="fill:#ffffff;stroke-width:0"
         inkscape:connector-curvature="0" /><path
         id="path4977"
         d="m 628.51,421.25 0.03,0.13 0.04,0.15 0.04,0.16 0.05,0.18 0.05,0.19 0.06,0.21 0.06,0.22 0.08,0.22 0.08,0.23 0.08,0.24 0.1,0.25 0.1,0.24 0.11,0.25 0.12,0.25 0.13,0.25 0.14,0.25 0.15,0.24 0.15,0.24 0.17,0.23 0.18,0.22 0.18,0.22 0.2,0.2 0.21,0.19 0.22,0.18 0.24,0.16 0.24,0.14 0.13,0.07 0.13,0.06 0.13,0.05 0.13,0.05 0.14,0.05 0.15,0.04 0.14,0.03 0.15,0.03 0.15,0.02 0.16,0.02 0.16,0.01 0.16,0 c 0.25,0 1.44,0 2.48,-0.64 -1.39,-0.25 -2.39,-1.5 -2.39,-2.69 0,-0.79 0.55,-1.75 1.89,-1.75 1.1,0 2.69,0.89 2.69,2.89 0,2.6 -2.94,3.28 -4.62,3.28 -2.9,0 -4.65,-2.64 -5.24,-3.78 -1.25,3.28 -3.94,3.78 -5.37,3.78 -5.19,0 -8.04,-6.42 -8.04,-7.67 0,-0.5 0.5,-0.5 0.62,-0.5 0.38,0 0.54,0.11 0.63,0.55 1.69,5.28 4.99,6.53 6.68,6.53 0.95,0 2.69,-0.44 2.69,-3.33 0,-1.54 -0.85,-4.89 -2.69,-11.86 -0.8,-3.09 -2.53,-5.18 -4.74,-5.18 -0.29,0 -1.44,0 -2.48,0.65 1.25,0.24 2.34,1.28 2.34,2.69 0,1.34 -1.09,1.73 -1.84,1.73 -1.5,0 -2.75,-1.29 -2.75,-2.89 0,-2.28 2.5,-3.28 4.69,-3.28 3.29,0 5.07,3.49 5.23,3.78 0.59,-1.84 2.39,-3.78 5.37,-3.78 5.15,0 7.99,6.42 7.99,7.67 0,0.5 -0.45,0.5 -0.61,0.5 -0.44,0 -0.55,-0.2 -0.64,-0.54 -1.64,-5.33 -5.03,-6.53 -6.62,-6.53 -1.96,0 -2.75,1.59 -2.75,3.29 0,1.1 0.29,2.19 0.85,4.38 z"
         style="fill:#ffffff;stroke-width:0"
         inkscape:connector-curvature="0" /></g>  </g>
</svg>
