<?xml version="1.0" encoding="UTF-8" standalone="no"?>
<svg
   xmlns:dc="http://purl.org/dc/elements/1.1/"
   xmlns:cc="http://creativecommons.org/ns#"
   xmlns:rdf="http://www.w3.org/1999/02/22-rdf-syntax-ns#"
   xmlns:svg="http://www.w3.org/2000/svg"
   xmlns="http://www.w3.org/2000/svg"
   xmlns:xlink="http://www.w3.org/1999/xlink"
   xmlns:sodipodi="http://sodipodi.sourceforge.net/DTD/sodipodi-0.dtd"
   xmlns:inkscape="http://www.inkscape.org/namespaces/inkscape"
   width="600"
   height="480"
   viewBox="0 0 600 480"
   id="svg2"
   version="1.1"
   inkscape:version="0.48.3.1 r9886"
   sodipodi:docname="least-square-example.svg">
  <metadata
     id="metadata227">
    <rdf:RDF>
      <cc:Work
         rdf:about="">
        <dc:format>image/svg+xml</dc:format>
        <dc:type
           rdf:resource="http://purl.org/dc/dcmitype/StillImage" />
        <dc:title>Gnuplot</dc:title>
      </cc:Work>
    </rdf:RDF>
  </metadata>
  <defs
     id="defs225">
    <defs
       id="defs11">
      <circle
         stroke-width="0.5"
         r="0.5"
         id="gpDot" />
      <path
         d="M-1,0 h2 M0,-1 v2"
         stroke="currentColor"
         stroke-width="0.222"
         id="gpPt0" />
      <path
         d="M-1,-1 L1,1 M1,-1 L-1,1"
         stroke="currentColor"
         stroke-width="0.222"
         id="gpPt1" />
      <path
         d="M-1,0 L1,0 M0,-1 L0,1 M-1,-1 L1,1 M-1,1 L1,-1"
         stroke="currentColor"
         stroke-width="0.222"
         id="gpPt2" />
      <rect
         height="2"
         width="2"
         y="-1"
         x="-1"
         stroke="currentColor"
         stroke-width="0.222"
         id="gpPt3" />
      <rect
         height="2"
         width="2"
         y="-1"
         x="-1"
         fill="currentColor"
         stroke="currentColor"
         stroke-width="0.222"
         id="gpPt4" />
      <circle
         r="1"
         cy="0"
         cx="0"
         stroke="currentColor"
         stroke-width="0.222"
         id="gpPt5" />
      <use
         stroke="none"
         fill="currentColor"
         id="gpPt6"
         xlink:href="#gpPt5" />
      <path
         d="M0,-1.33 L-1.33,0.67 L1.33,0.67 z"
         stroke="currentColor"
         stroke-width="0.222"
         id="gpPt7" />
      <use
         stroke="none"
         fill="currentColor"
         id="gpPt8"
         xlink:href="#gpPt7" />
      <use
         transform="rotate(180)"
         stroke="currentColor"
         id="gpPt9"
         xlink:href="#gpPt7" />
      <use
         stroke="none"
         fill="currentColor"
         id="gpPt10"
         xlink:href="#gpPt9" />
      <use
         transform="rotate(45)"
         stroke="currentColor"
         id="gpPt11"
         xlink:href="#gpPt3" />
      <use
         stroke="none"
         fill="currentColor"
         id="gpPt12"
         xlink:href="#gpPt11" />
    </defs>
  </defs>
  <sodipodi:namedview
     pagecolor="#000000"
     bordercolor="#666666"
     borderopacity="1"
     objecttolerance="10"
     gridtolerance="10"
     guidetolerance="10"
     inkscape:pageopacity="0"
     inkscape:pageshadow="2"
     inkscape:window-width="736"
     inkscape:window-height="480"
     id="namedview223"
     showgrid="false"
     inkscape:zoom="0.69532167"
     inkscape:cx="371.07789"
     inkscape:cy="166.13134"
     inkscape:window-x="0"
     inkscape:window-y="0"
     inkscape:window-maximized="0"
     inkscape:current-layer="svg2" />
  <title
     id="title4">Gnuplot</title>
  <desc
     id="desc6">Produced by GNUPLOT 4.6 patchlevel 0 </desc>
  <rect
     style="fill:none;stroke:#ffffff"
     id="rect9"
     height="480"
     width="600"
     y="0"
     x="0" />
  <g
     id="g27"
     style="color:#ffffff;fill:none;stroke:currentColor;stroke-width:1;stroke-linecap:butt;stroke-linejoin:miter" />
  <path
     style="color:#000000;fill:#ffffff;stroke:#ffffff;stroke-width:1;stroke-linecap:butt;stroke-linejoin:miter"
     d="m 37.3,444 9,0 m 528.7,0 -9,0 h 0.01"
     id="path31"
     inkscape:connector-curvature="0" />
  <g
     transform="translate(29,448.5)"
     style="font-size:15px;text-anchor:end;color:#000000;fill:#ffffff;stroke:#ffffff;stroke-width:1;stroke-linecap:butt;stroke-linejoin:miter;font-family:Arial"
     id="g33">
    <text
       style="stroke:#ffffff;fill:#ffffff"
       id="text35">-1</text>
  </g>
  <path
     style="color:#000000;fill:none;stroke:#ffffff;stroke-width:1;stroke-linecap:butt;stroke-linejoin:miter"
     d="m 37.3,383 9,0 m 528.7,0 -9,0 h 0.01"
     id="path37"
     inkscape:connector-curvature="0" />
  <g
     transform="translate(29,387.5)"
     style="font-size:15px;text-anchor:end;color:#000000;fill:#ffffff;stroke:#ffffff;stroke-width:1;stroke-linecap:butt;stroke-linejoin:miter;font-family:Arial"
     id="g39">
    <text
       style="stroke:#ffffff;fill:#ffffff"
       id="text41">0</text>
  </g>
  <path
     style="color:#000000;fill:none;stroke:#ffffff;stroke-width:1;stroke-linecap:butt;stroke-linejoin:miter"
     d="m 37.3,321.9 9,0 m 528.7,0 -9,0 h 0.01"
     id="path43"
     inkscape:connector-curvature="0" />
  <g
     transform="translate(29,326.4)"
     style="font-size:15px;text-anchor:end;color:#000000;fill:#ffffff;stroke:#ffffff;stroke-width:1;stroke-linecap:butt;stroke-linejoin:miter;font-family:Arial"
     id="g45">
    <text
       style="stroke:#ffffff;fill:#ffffff"
       id="text47">1</text>
  </g>
  <path
     style="color:#000000;fill:none;stroke:#ffffff;stroke-width:1;stroke-linecap:butt;stroke-linejoin:miter"
     d="m 37.3,260.9 9,0 m 528.7,0 -9,0 h 0.01"
     id="path49"
     inkscape:connector-curvature="0" />
  <g
     transform="translate(29,265.4)"
     style="font-size:15px;text-anchor:end;color:#000000;fill:#ffffff;stroke:#ffffff;stroke-width:1;stroke-linecap:butt;stroke-linejoin:miter;font-family:Arial"
     id="g51">
    <text
       style="stroke:#ffffff;fill:#ffffff"
       id="text53">2</text>
  </g>
  <path
     style="color:#000000;fill:none;stroke:#ffffff;stroke-width:1;stroke-linecap:butt;stroke-linejoin:miter"
     d="m 37.3,199.8 9,0 m 528.7,0 -9,0 h 0.01"
     id="path55"
     inkscape:connector-curvature="0" />
  <g
     transform="translate(29,204.3)"
     style="font-size:15px;text-anchor:end;color:#000000;fill:#ffffff;stroke:#ffffff;stroke-width:1;stroke-linecap:butt;stroke-linejoin:miter;font-family:Arial"
     id="g57">
    <text
       style="stroke:#ffffff;fill:#ffffff"
       id="text59">3</text>
  </g>
  <path
     style="color:#000000;fill:none;stroke:#ffffff;stroke-width:1;stroke-linecap:butt;stroke-linejoin:miter"
     d="m 37.3,138.8 9,0 m 528.7,0 -9,0 h 0.01"
     id="path61"
     inkscape:connector-curvature="0" />
  <g
     transform="translate(29,143.3)"
     style="font-size:15px;text-anchor:end;color:#000000;fill:#ffffff;stroke:#ffffff;stroke-width:1;stroke-linecap:butt;stroke-linejoin:miter;font-family:Arial"
     id="g63">
    <text
       style="stroke:#ffffff;fill:#ffffff"
       id="text65">4</text>
  </g>
  <path
     style="color:#000000;fill:none;stroke:#ffffff;stroke-width:1;stroke-linecap:butt;stroke-linejoin:miter"
     d="m 37.3,77.7 9,0 m 528.7,0 -9,0 h 0.01"
     id="path67"
     inkscape:connector-curvature="0" />
  <g
     transform="translate(29,82.2)"
     style="font-size:15px;text-anchor:end;color:#000000;fill:#ffffff;stroke:#ffffff;stroke-width:1;stroke-linecap:butt;stroke-linejoin:miter;font-family:Arial"
     id="g69">
    <text
       style="stroke:#ffffff;fill:#ffffff"
       id="text71">5</text>
  </g>
  <path
     style="color:#000000;fill:none;stroke:#ffffff;stroke-width:1;stroke-linecap:butt;stroke-linejoin:miter"
     d="m 37.3,16.7 9,0 m 528.7,0 -9,0 h 0.01"
     id="path73"
     inkscape:connector-curvature="0" />
  <g
     transform="translate(29,21.2)"
     style="font-size:15px;text-anchor:end;color:#000000;fill:#ffffff;stroke:#ffffff;stroke-width:1;stroke-linecap:butt;stroke-linejoin:miter;font-family:Arial"
     id="g75">
    <text
       style="stroke:#ffffff;fill:#ffffff"
       id="text77">6</text>
  </g>
  <path
     style="color:#000000;fill:#ffffff;stroke:#ffffff;stroke-width:1;stroke-linecap:butt;stroke-linejoin:miter"
     d="m 37.3,444 0,-9 m 0,-418.3 0,9 h 0.01"
     id="path79"
     inkscape:connector-curvature="0" />
  <g
     transform="translate(37.3,466.5)"
     style="font-size:15px;text-anchor:middle;color:#000000;fill:#ffffff;stroke:#ffffff;stroke-width:1;stroke-linecap:butt;stroke-linejoin:miter;font-family:Arial"
     id="g81">
    <text
       style="stroke:#ffffff;fill:#ffffff"
       id="text83">0</text>
  </g>
  <path
     style="color:#000000;fill:none;stroke:#ffffff;stroke-width:1;stroke-linecap:butt;stroke-linejoin:miter"
     d="m 91.1,444 0,-9 m 0,-418.3 0,9 h 0.01"
     id="path85"
     inkscape:connector-curvature="0" />
  <g
     transform="translate(91.1,466.5)"
     style="font-size:15px;text-anchor:middle;color:#000000;fill:#ffffff;stroke:#ffffff;stroke-width:1;stroke-linecap:butt;stroke-linejoin:miter;font-family:Arial"
     id="g87">
    <text
       style="stroke:#ffffff;fill:#ffffff"
       id="text89">1</text>
  </g>
  <path
     style="color:#000000;fill:none;stroke:#ffffff;stroke-width:1;stroke-linecap:butt;stroke-linejoin:miter"
     d="m 144.8,444 0,-9 m 0,-418.3 0,9 h 0.01"
     id="path91"
     inkscape:connector-curvature="0" />
  <g
     transform="translate(144.8,466.5)"
     style="font-size:15px;text-anchor:middle;color:#000000;fill:#ffffff;stroke:#ffffff;stroke-width:1;stroke-linecap:butt;stroke-linejoin:miter;font-family:Arial"
     id="g93">
    <text
       style="stroke:#ffffff;fill:#ffffff"
       id="text95">2</text>
  </g>
  <path
     style="color:#000000;fill:none;stroke:#ffffff;stroke-width:1;stroke-linecap:butt;stroke-linejoin:miter"
     d="m 198.6,444 0,-9 m 0,-418.3 0,9 h 0.01"
     id="path97"
     inkscape:connector-curvature="0" />
  <g
     transform="translate(198.6,466.5)"
     style="font-size:15px;text-anchor:middle;color:#000000;fill:#ffffff;stroke:#ffffff;stroke-width:1;stroke-linecap:butt;stroke-linejoin:miter;font-family:Arial"
     id="g99">
    <text
       style="stroke:#ffffff;fill:#ffffff"
       id="text101">3</text>
  </g>
  <path
     style="color:#000000;fill:none;stroke:#ffffff;stroke-width:1;stroke-linecap:butt;stroke-linejoin:miter"
     d="m 252.4,444 0,-9 m 0,-418.3 0,9 h 0.01"
     id="path103"
     inkscape:connector-curvature="0" />
  <g
     transform="translate(252.4,466.5)"
     style="font-size:15px;text-anchor:middle;color:#000000;fill:#ffffff;stroke:#ffffff;stroke-width:1;stroke-linecap:butt;stroke-linejoin:miter;font-family:Arial"
     id="g105">
    <text
       style="stroke:#ffffff;fill:#ffffff"
       id="text107">4</text>
  </g>
  <path
     style="color:#000000;fill:none;stroke:#ffffff;stroke-width:1;stroke-linecap:butt;stroke-linejoin:miter"
     d="m 306.2,444 0,-9 m 0,-418.3 0,9 h 0.01"
     id="path109"
     inkscape:connector-curvature="0" />
  <g
     transform="translate(306.2,466.5)"
     style="font-size:15px;text-anchor:middle;color:#000000;fill:#ffffff;stroke:#ffffff;stroke-width:1;stroke-linecap:butt;stroke-linejoin:miter;font-family:Arial"
     id="g111">
    <text
       style="stroke:#ffffff;fill:#ffffff"
       id="text113">5</text>
  </g>
  <path
     style="color:#000000;fill:none;stroke:#ffffff;stroke-width:1;stroke-linecap:butt;stroke-linejoin:miter"
     d="m 359.9,444 0,-9 m 0,-418.3 0,9 h 0.01"
     id="path115"
     inkscape:connector-curvature="0" />
  <g
     transform="translate(359.9,466.5)"
     style="font-size:15px;text-anchor:middle;color:#000000;fill:#ffffff;stroke:#ffffff;stroke-width:1;stroke-linecap:butt;stroke-linejoin:miter;font-family:Arial"
     id="g117">
    <text
       style="stroke:#ffffff;fill:#ffffff"
       id="text119">6</text>
  </g>
  <path
     style="color:#000000;fill:none;stroke:#ffffff;stroke-width:1;stroke-linecap:butt;stroke-linejoin:miter"
     d="m 413.7,444 0,-9 m 0,-418.3 0,9 h 0.01"
     id="path121"
     inkscape:connector-curvature="0" />
  <g
     transform="translate(413.7,466.5)"
     style="font-size:15px;text-anchor:middle;color:#000000;fill:#ffffff;stroke:#ffffff;stroke-width:1;stroke-linecap:butt;stroke-linejoin:miter;font-family:Arial"
     id="g123">
    <text
       style="stroke:#ffffff;fill:#ffffff"
       id="text125">7</text>
  </g>
  <path
     style="color:#000000;fill:none;stroke:#ffffff;stroke-width:1;stroke-linecap:butt;stroke-linejoin:miter"
     d="m 467.5,444 0,-9 m 0,-418.3 0,9 h 0.01"
     id="path127"
     inkscape:connector-curvature="0" />
  <g
     transform="translate(467.5,466.5)"
     style="font-size:15px;text-anchor:middle;color:#000000;fill:#ffffff;stroke:#ffffff;stroke-width:1;stroke-linecap:butt;stroke-linejoin:miter;font-family:Arial"
     id="g129">
    <text
       style="stroke:#ffffff;fill:#ffffff"
       id="text131">8</text>
  </g>
  <path
     style="color:#000000;fill:none;stroke:#ffffff;stroke-width:1;stroke-linecap:butt;stroke-linejoin:miter"
     d="m 521.2,444 0,-9 m 0,-418.3 0,9 h 0.01"
     id="path133"
     inkscape:connector-curvature="0" />
  <g
     transform="translate(521.2,466.5)"
     style="font-size:15px;text-anchor:middle;color:#000000;fill:#ffffff;stroke:#ffffff;stroke-width:1;stroke-linecap:butt;stroke-linejoin:miter;font-family:Arial"
     id="g135">
    <text
       style="stroke:#ffffff;fill:#ffffff"
       id="text137">9</text>
  </g>
  <path
     style="color:#000000;fill:none;stroke:#ffffff;stroke-width:1;stroke-linecap:butt;stroke-linejoin:miter"
     d="m 575,444 0,-9 m 0,-418.3 0,9 h 0.01"
     id="path139"
     inkscape:connector-curvature="0" />
  <g
     transform="translate(575,466.5)"
     style="font-size:15px;text-anchor:middle;color:#000000;fill:#ffffff;stroke:#ffffff;stroke-width:1;stroke-linecap:butt;stroke-linejoin:miter;font-family:Arial"
     id="g141">
    <text
       style="stroke:#ffffff;fill:#ffffff"
       id="text143">10</text>
  </g>
  <path
     style="color:#000000;fill:none;stroke:#ffffff;stroke-width:1;stroke-linecap:butt;stroke-linejoin:miter"
     d="m 37.3,16.7 0,427.3 537.7,0 0,-427.3 -537.7,0 z m 0,0 h 0.01"
     id="path145"
     inkscape:connector-curvature="0" />
  <g
     id="gnuplot_plot_1"
     style="stroke:#ffffff">
    <title
       id="title148">gnuplot_plot_1</title>
    <g
       id="g150"
       style="color:#ff0000;fill:none;stroke:#ffffff;stroke-width:1;stroke-linecap:butt;stroke-linejoin:miter">
      <use
         height="480"
         width="600"
         y="0"
         x="0"
         style="color:#ffffff;stroke:#ffffff"
         id="use152"
         transform="matrix(4.5,0,0,4.5,339.6,207.7)"
         xlink:href="#gpPt0" />
      <use
         height="480"
         width="600"
         y="0"
         x="0"
         style="color:#ffffff;stroke:#ffffff"
         id="use154"
         transform="matrix(4.5,0,0,4.5,237,265.3)"
         xlink:href="#gpPt0" />
      <use
         height="480"
         width="600"
         y="0"
         x="0"
         style="color:#ffffff;stroke:#ffffff"
         id="use156"
         transform="matrix(4.5,0,0,4.5,124.1,296.3)"
         xlink:href="#gpPt0" />
      <use
         height="480"
         width="600"
         y="0"
         x="0"
         style="color:#ffffff;stroke:#ffffff"
         id="use158"
         transform="matrix(4.5,0,0,4.5,219.2,259.6)"
         xlink:href="#gpPt0" />
      <use
         height="480"
         width="600"
         y="0"
         x="0"
         style="color:#ffffff;stroke:#ffffff"
         id="use160"
         transform="matrix(4.5,0,0,4.5,123.9,328.6)"
         xlink:href="#gpPt0" />
      <use
         height="480"
         width="600"
         y="0"
         x="0"
         style="color:#ffffff;stroke:#ffffff"
         id="use162"
         transform="matrix(4.5,0,0,4.5,408.9,127.6)"
         xlink:href="#gpPt0" />
      <use
         height="480"
         width="600"
         y="0"
         x="0"
         style="color:#ffffff;stroke:#ffffff"
         id="use164"
         transform="matrix(4.5,0,0,4.5,558.8,88.6)"
         xlink:href="#gpPt0" />
      <use
         height="480"
         width="600"
         y="0"
         x="0"
         style="color:#ffffff;stroke:#ffffff"
         id="use166"
         transform="matrix(4.5,0,0,4.5,352.9,210)"
         xlink:href="#gpPt0" />
      <use
         height="480"
         width="600"
         y="0"
         x="0"
         style="color:#ffffff;stroke:#ffffff"
         id="use168"
         transform="matrix(4.5,0,0,4.5,572.2,72.9)"
         xlink:href="#gpPt0" />
      <use
         height="480"
         width="600"
         y="0"
         x="0"
         style="color:#ffffff;stroke:#ffffff"
         id="use170"
         transform="matrix(4.5,0,0,4.5,491.3,108)"
         xlink:href="#gpPt0" />
      <use
         height="480"
         width="600"
         y="0"
         x="0"
         style="color:#ffffff;stroke:#ffffff"
         id="use172"
         transform="matrix(4.5,0,0,4.5,232.7,244.5)"
         xlink:href="#gpPt0" />
      <use
         height="480"
         width="600"
         y="0"
         x="0"
         style="color:#ffffff;stroke:#ffffff"
         id="use174"
         transform="matrix(4.5,0,0,4.5,130.6,347.7)"
         xlink:href="#gpPt0" />
      <use
         height="480"
         width="600"
         y="0"
         x="0"
         style="color:#ffffff;stroke:#ffffff"
         id="use176"
         transform="matrix(4.5,0,0,4.5,38,350.2)"
         xlink:href="#gpPt0" />
      <use
         height="480"
         width="600"
         y="0"
         x="0"
         style="color:#ffffff;stroke:#ffffff"
         id="use178"
         transform="matrix(4.5,0,0,4.5,265,268)"
         xlink:href="#gpPt0" />
      <use
         height="480"
         width="600"
         y="0"
         x="0"
         style="color:#ffffff;stroke:#ffffff"
         id="use180"
         transform="matrix(4.5,0,0,4.5,377.6,166.5)"
         xlink:href="#gpPt0" />
      <use
         height="480"
         width="600"
         y="0"
         x="0"
         style="color:#ffffff;stroke:#ffffff"
         id="use182"
         transform="matrix(4.5,0,0,4.5,204.4,295.2)"
         xlink:href="#gpPt0" />
      <use
         height="480"
         width="600"
         y="0"
         x="0"
         style="color:#ffffff;stroke:#ffffff"
         id="use184"
         transform="matrix(4.5,0,0,4.5,252.5,273.3)"
         xlink:href="#gpPt0" />
      <use
         height="480"
         width="600"
         y="0"
         x="0"
         style="color:#ffffff;stroke:#ffffff"
         id="use186"
         transform="matrix(4.5,0,0,4.5,181.4,285.8)"
         xlink:href="#gpPt0" />
      <use
         height="480"
         width="600"
         y="0"
         x="0"
         style="color:#ffffff;stroke:#ffffff"
         id="use188"
         transform="matrix(4.5,0,0,4.5,315.8,234.1)"
         xlink:href="#gpPt0" />
      <use
         height="480"
         width="600"
         y="0"
         x="0"
         style="color:#ffffff;stroke:#ffffff"
         id="use190"
         transform="matrix(4.5,0,0,4.5,69.5,387.5)"
         xlink:href="#gpPt0" />
      <use
         height="480"
         width="600"
         y="0"
         x="0"
         style="color:#ffffff;stroke:#ffffff"
         id="use192"
         transform="matrix(4.5,0,0,4.5,154.5,313.4)"
         xlink:href="#gpPt0" />
      <use
         height="480"
         width="600"
         y="0"
         x="0"
         style="color:#ffffff;stroke:#ffffff"
         id="use194"
         transform="matrix(4.5,0,0,4.5,453.2,167.2)"
         xlink:href="#gpPt0" />
      <use
         height="480"
         width="600"
         y="0"
         x="0"
         style="color:#ffffff;stroke:#ffffff"
         id="use196"
         transform="matrix(4.5,0,0,4.5,330.4,168.1)"
         xlink:href="#gpPt0" />
      <use
         height="480"
         width="600"
         y="0"
         x="0"
         style="color:#ffffff;stroke:#ffffff"
         id="use198"
         transform="matrix(4.5,0,0,4.5,566.2,87.2)"
         xlink:href="#gpPt0" />
      <use
         height="480"
         width="600"
         y="0"
         x="0"
         style="color:#ffffff;stroke:#ffffff"
         id="use200"
         transform="matrix(4.5,0,0,4.5,348.2,210.5)"
         xlink:href="#gpPt0" />
      <use
         height="480"
         width="600"
         y="0"
         x="0"
         style="color:#ffffff;stroke:#ffffff"
         id="use202"
         transform="matrix(4.5,0,0,4.5,199.4,256.2)"
         xlink:href="#gpPt0" />
      <use
         height="480"
         width="600"
         y="0"
         x="0"
         style="color:#ffffff;stroke:#ffffff"
         id="use204"
         transform="matrix(4.5,0,0,4.5,406.7,168.5)"
         xlink:href="#gpPt0" />
      <use
         height="480"
         width="600"
         y="0"
         x="0"
         style="color:#ffffff;stroke:#ffffff"
         id="use206"
         transform="matrix(4.5,0,0,4.5,288.2,232.1)"
         xlink:href="#gpPt0" />
      <use
         height="480"
         width="600"
         y="0"
         x="0"
         style="color:#ffffff;stroke:#ffffff"
         id="use208"
         transform="matrix(4.5,0,0,4.5,181.5,287.2)"
         xlink:href="#gpPt0" />
      <use
         height="480"
         width="600"
         y="0"
         x="0"
         style="color:#ffffff;stroke:#ffffff"
         id="use210"
         transform="matrix(4.5,0,0,4.5,299.6,200.7)"
         xlink:href="#gpPt0" />
    </g>
  </g>
  <g
     id="gnuplot_plot_2"
     style="stroke:#ffc0cb;stroke-opacity:1;stroke-width:2;stroke-miterlimit:4;stroke-dasharray:none">
    <title
       id="title213">gnuplot_plot_2</title>
    <g
       id="g215"
       style="color:#008000;fill:none;stroke:#ffc0cb;stroke-width:2;stroke-linecap:butt;stroke-linejoin:miter;stroke-opacity:1;stroke-miterlimit:4;stroke-dasharray:none">
      <path
         inkscape:connector-curvature="0"
         id="path217"
         d="m 38,371.1 5.4,-3 5.3,-3 5.4,-3 5.4,-3 5.4,-3 5.4,-3 5.4,-3 5.4,-3 5.4,-3 5.4,-3 5.4,-3 5.4,-3 5.4,-3 5.4,-3.1 5.4,-3 5.4,-3 5.4,-3 5.4,-3 5.4,-3 5.4,-3 5.4,-3 5.4,-3 5.4,-3 5.4,-3 5.4,-3 5.4,-3 5.4,-3 5.4,-3 5.4,-3.1 5.4,-3 5.4,-3 5.4,-3 5.3,-3 5.4,-3 5.4,-3 5.4,-3 5.4,-3 5.4,-3 5.4,-3 5.4,-3 5.4,-3 5.4,-3 5.4,-3 5.4,-3.1 5.4,-3 5.4,-3 5.4,-3 5.4,-3 5.4,-3 5.4,-3 5.4,-3 5.4,-3 5.4,-3 5.4,-3 5.4,-3 5.4,-3 5.4,-3 5.4,-3 5.4,-3.1 5.4,-3 5.4,-3 5.4,-3 5.4,-3 5.3,-3 5.4,-3 5.4,-3 5.4,-3 5.4,-3 5.4,-3 5.4,-3 5.4,-3 5.4,-3 5.4,-3 5.4,-3.1 5.4,-3 5.4,-3 5.4,-3 5.4,-3 5.4,-3 5.4,-3 5.4,-3 5.4,-3 5.4,-3 5.4,-3 5.4,-3 5.4,-3 5.4,-3 5.4,-3 5.4,-3.1 5.4,-3 5.4,-3 5.4,-3 5.4,-3 5.4,-3 5.3,-3 5.4,-3 5.4,-3 5.4,-3 5.4,-3 h 0.01"
         style="stroke:#ffc0cb;stroke-opacity:1;stroke-width:2;stroke-miterlimit:4;stroke-dasharray:none" />
    </g>
  </g>
  <g
     id="g219"
     style="color:#000000;fill:none;stroke:#ffffff;stroke-width:1;stroke-linecap:butt;stroke-linejoin:miter">
    <path
       inkscape:connector-curvature="0"
       id="path221"
       d="m 37.3,16.7 0,427.3 537.7,0 0,-427.3 -537.7,0 z m 0,0 h 0.01"
       style="stroke:#ffffff" />
  </g>
</svg>
