<?xml version="1.0" encoding="UTF-8" standalone="no"?>
<!-- Created with Inkscape (http://www.inkscape.org/) -->

<svg
   xmlns:dc="http://purl.org/dc/elements/1.1/"
   xmlns:cc="http://creativecommons.org/ns#"
   xmlns:rdf="http://www.w3.org/1999/02/22-rdf-syntax-ns#"
   xmlns:svg="http://www.w3.org/2000/svg"
   xmlns="http://www.w3.org/2000/svg"
   xmlns:sodipodi="http://sodipodi.sourceforge.net/DTD/sodipodi-0.dtd"
   xmlns:inkscape="http://www.inkscape.org/namespaces/inkscape"
   width="210mm"
   height="297mm"
   id="svg2"
   version="1.1"
   inkscape:version="0.48.3.1 r9886"
   sodipodi:docname="multiple-integral2.svg">
  <sodipodi:namedview
     id="base"
     pagecolor="#000000"
     bordercolor="#666666"
     borderopacity="1.0"
     inkscape:pageopacity="0"
     inkscape:pageshadow="2"
     inkscape:zoom="0.60847701"
     inkscape:cx="566.35907"
     inkscape:cy="735.54292"
     inkscape:document-units="px"
     inkscape:current-layer="layer1"
     showgrid="false"
     inkscape:window-width="1366"
     inkscape:window-height="746"
     inkscape:window-x="0"
     inkscape:window-y="22"
     inkscape:window-maximized="0" />
  <defs
     id="defs4">
    <marker
       inkscape:stockid="Arrow1Lend"
       orient="auto"
       refY="0.0"
       refX="0.0"
       id="Arrow1Lend"
       style="overflow:visible;">
      <path
         id="path4903"
         d="M 0.0,0.0 L 5.0,-5.0 L -12.5,0.0 L 5.0,5.0 L 0.0,0.0 z "
         style="fill-rule:evenodd;stroke:#000000;stroke-width:1.0pt;"
         transform="scale(0.8) rotate(180) translate(12.5,0)" />
    </marker>
    <marker
       inkscape:stockid="Arrow1LendB"
       orient="auto"
       refY="0.0"
       refX="0.0"
       id="Arrow1LendB"
       style="overflow:visible;">
      <path
         id="path5346"
         d="M 0.0,0.0 L 5.0,-5.0 L -12.5,0.0 L 5.0,5.0 L 0.0,0.0 z "
         style="stroke:#ffffff;stroke-width:1.0pt;fill:#ffffff;fill-rule:evenodd"
         transform="scale(0.8) rotate(180) translate(12.5,0)" />
    </marker>
    <marker
       inkscape:stockid="Arrow1Lenda"
       orient="auto"
       refY="0.0"
       refX="0.0"
       id="Arrow1Lenda"
       style="overflow:visible;">
      <path
         id="path5349"
         d="M 0.0,0.0 L 5.0,-5.0 L -12.5,0.0 L 5.0,5.0 L 0.0,0.0 z "
         style="stroke:#ffffff;stroke-width:1.0pt;fill:#ffffff;fill-rule:evenodd"
         transform="scale(0.8) rotate(180) translate(12.5,0)" />
    </marker>
  </defs>
  <metadata
     id="metadata7">
    <rdf:RDF>
      <cc:Work
         rdf:about="">
        <dc:format>image/svg+xml</dc:format>
        <dc:type
           rdf:resource="http://purl.org/dc/dcmitype/StillImage" />
        <dc:title></dc:title>
      </cc:Work>
    </rdf:RDF>
  </metadata>
  <g
     id="layer1"
     inkscape:groupmode="layer"
     inkscape:label="レイヤー 1">
    <path
       inkscape:connector-curvature="0"
       id="path2985"
       d="M 342.85714,408.07647 C 335.71429,412.36218 18.571429,563.79075 18.571429,563.79075"
       style="stroke-linejoin:miter;marker-end:url(#Arrow1Lenda);stroke-opacity:1;stroke:#ffffff;stroke-linecap:butt;stroke-width:1px;fill:none" />
    <path
       inkscape:connector-curvature="0"
       id="path2987"
       d="m 342.44171,408.89502 522.24887,0"
       style="stroke-linejoin:miter;marker-end:url(#Arrow1LendB);stroke-opacity:1;stroke:#ffffff;stroke-linecap:butt;stroke-width:1px;fill:none" />
    <path
       inkscape:connector-curvature="0"
       id="path3003"
       d="m 330.31988,615.97628 c -31.49782,-7.66868 -50.56748,-42.08408 -45.17021,-73.22929 3.56742,-40.52278 34.12385,-79.0456 75.66861,-84.62669 65.80596,-16.25847 135.30053,-26.97263 202.51085,-13.08512 46.17855,13.00798 82.66794,67.14599 63.02918,114.07682 -16.5201,33.07534 -52.3593,51.55363 -86.58845,61.22864 -68.94039,17.51152 -140.04283,0.0439 -209.44998,-4.36436 z"
       style="fill:none;stroke:#ffffff;stroke-width:1px;stroke-linecap:butt;stroke-linejoin:miter;stroke-opacity:1" />
    <g
       transform="matrix(0.52927641,0,0,0.52927641,477.71754,347.78397)"
       style="fill:#ffffff"
       id="g3469">
      <g
         style="font-style:normal;font-variant:normal;font-weight:normal;font-stretch:normal;letter-spacing:normal;word-spacing:normal;text-anchor:start;fill:#ffffff;fill-opacity:1;fill-rule:evenodd;stroke:#000000;stroke-linecap:butt;stroke-linejoin:miter;stroke-miterlimit:10.43299961;stroke-opacity:1;stroke-dasharray:none;stroke-dashoffset:0"
         id="g3471"
         transform="matrix(1.0629921,0,0,-1.0629921,-186.02362,789.27165)"
         xml:space="preserve"
         stroke-miterlimit="10.433"
         font-style="normal"
         font-variant="normal"
         font-weight="normal"
         font-stretch="normal"
         font-size-adjust="none"
         letter-spacing="normal"
         word-spacing="normal"><path
           inkscape:connector-curvature="0"
           style="fill:#ffffff;stroke-width:0"
           d="m 463.44,410.09 -0.04,-0.18 -0.05,-0.17 -0.04,-0.16 -0.05,-0.15 -0.04,-0.15 -0.05,-0.13 -0.04,-0.13 -0.05,-0.12 -0.06,-0.11 -0.06,-0.11 -0.06,-0.1 -0.07,-0.09 -0.08,-0.09 -0.09,-0.07 -0.09,-0.08 -0.11,-0.06 -0.11,-0.07 -0.12,-0.05 -0.14,-0.05 -0.15,-0.05 -0.16,-0.04 -0.09,-0.02 -0.08,-0.01 -0.1,-0.02 -0.1,-0.02 -0.1,-0.01 -0.1,-0.01 -0.11,-0.01 -0.11,-0.02 -0.12,-0.01 -0.12,-0.01 -0.13,0 -0.13,-0.01 -0.13,-0.01 -0.15,0 -0.14,-0.01 -0.15,0 -0.16,-0.01 -0.16,0 -0.16,0 -0.17,0 -0.18,0 -0.18,0 c -0.84,0 -1.39,0 -1.39,-0.96 0,-0.59 0.44,-0.59 1.39,-0.59 h 16.48 l -0.89,1.55 h -5.62 c -0.7,0 -0.8,0 -1.11,0.04 -0.48,0.05 -0.64,0.1 -0.64,0.5 0,0.14 0,0.25 0.25,1.14 l 6.83,27.36 c 0.43,1.74 0.54,1.89 2.68,1.89 h 5.33 c 4.89,0 9.02,-2.64 9.02,-9.22 0,-2.43 -1,-10.6 -5.24,-16.09 -1.43,-1.84 -5.37,-5.62 -11.5,-5.62 l 0.89,-1.55 c 10.36,0 20.19,10.51 20.19,21.42 0,7.03 -4.23,12.61 -11.72,12.61 h -16.73 c -0.95,0 -1.5,0 -1.5,-0.95 0,-0.6 0.45,-0.6 1.45,-0.6 0.64,0 1.55,-0.04 2.14,-0.09 0.8,-0.11 1.1,-0.25 1.1,-0.8 0,-0.2 -0.05,-0.36 -0.21,-0.95 z"
           id="path3473" /></g>    </g>
    <g
       id="g4506"
       style="fill:#ffffff"
       transform="matrix(0.52927641,0,0,0.52927641,400.05554,-44.682871)">
      <g
         word-spacing="normal"
         letter-spacing="normal"
         font-size-adjust="none"
         font-stretch="normal"
         font-weight="normal"
         font-variant="normal"
         font-style="normal"
         stroke-miterlimit="10.433"
         xml:space="preserve"
         transform="matrix(1.0629921,0,0,-1.0629921,-186.02362,789.27165)"
         id="g4508"
         style="font-style:normal;font-variant:normal;font-weight:normal;font-stretch:normal;letter-spacing:normal;word-spacing:normal;text-anchor:start;fill:#ffffff;fill-opacity:1;fill-rule:evenodd;stroke:#000000;stroke-linecap:butt;stroke-linejoin:miter;stroke-miterlimit:10.43299961;stroke-opacity:1;stroke-dasharray:none;stroke-dashoffset:0"><path
           id="path4510"
           d="m 462.14,410.34 0.25,0.27 0.24,0.25 0.24,0.25 0.23,0.24 0.22,0.23 0.22,0.22 0.21,0.22 0.2,0.21 0.2,0.2 0.2,0.19 0.19,0.19 0.19,0.19 0.18,0.17 0.19,0.18 0.35,0.33 0.34,0.32 0.33,0.3 0.33,0.29 0.32,0.29 0.65,0.56 0.33,0.29 0.33,0.28 c 0,0.05 3.08,2.69 4.88,4.49 4.73,4.64 5.83,7.03 5.83,7.21 0,0.5 -0.46,0.5 -0.55,0.5 -0.35,0 -0.5,-0.09 -0.75,-0.54 -1.49,-2.39 -2.53,-3.19 -3.74,-3.19 -1.2,0 -1.79,0.75 -2.54,1.59 -0.94,1.16 -1.78,2.14 -3.44,2.14 -3.73,0 -6.02,-4.62 -6.02,-5.67 0,-0.25 0.14,-0.54 0.6,-0.54 0.45,0 0.54,0.25 0.64,0.54 0.95,2.3 3.84,2.35 4.23,2.35 1.05,0 2,-0.36 3.14,-0.75 2,-0.75 2.55,-0.75 3.85,-0.75 -1.8,-2.14 -5.99,-5.74 -6.92,-6.53 l -4.49,-4.18 c -3.39,-3.34 -5.14,-6.18 -5.14,-6.53 0,-0.5 0.5,-0.5 0.59,-0.5 0.41,0 0.5,0.1 0.8,0.64 1.16,1.75 2.64,3.1 4.24,3.1 1.15,0 1.65,-0.46 2.89,-1.89 0.86,-1.05 1.75,-1.85 3.18,-1.85 4.94,0 7.83,6.33 7.83,7.67 0,0.25 -0.2,0.5 -0.59,0.5 -0.46,0 -0.55,-0.29 -0.71,-0.65 -1.14,-3.24 -4.32,-4.17 -5.98,-4.17 -0.98,0 -1.89,0.29 -2.94,0.64 -1.68,0.64 -2.43,0.84 -3.48,0.84 -0.1,0 -0.89,0 -1.35,-0.14 z"
           style="fill:#ffffff;stroke-width:0"
           inkscape:connector-curvature="0" /><path
           id="path4512"
           d="m 528.99,422.5 0.14,0 0.15,0 0.14,0 0.07,0.01 0.08,0 0.07,0.01 0.07,0.01 0.07,0.01 0.07,0.01 0.07,0.01 0.06,0.02 0.07,0.02 0.06,0.02 0.06,0.02 0.06,0.03 0.06,0.03 0.05,0.04 0.05,0.03 0.05,0.05 0.04,0.04 0.04,0.05 0.02,0.03 0.02,0.03 0.01,0.02 0.02,0.03 0.01,0.03 0.01,0.04 0.02,0.03 0.01,0.04 0.01,0.03 0.01,0.04 0,0.04 0.01,0.04 0,0.04 0.01,0.04 0,0.04 0,0.05 c 0,1 -0.95,1 -1.64,1 H 499.2 c -0.71,0 -1.65,0 -1.65,-1 0,-0.98 0.94,-0.98 1.69,-0.98 z"
           style="fill:#ffffff;stroke-width:0"
           inkscape:connector-curvature="0" /><path
           id="path4514"
           d="m 529.04,412.82 0.06,0 0.07,0 0.14,0.01 0.14,0 0.07,0 0.07,0.01 0.07,0.01 0.06,0 0.07,0.01 0.07,0.02 0.07,0.01 0.06,0.02 0.07,0.02 0.06,0.02 0.06,0.02 0.05,0.03 0.06,0.03 0.05,0.04 0.05,0.04 0.05,0.04 0.04,0.05 0.02,0.02 0.02,0.03 0.02,0.02 0.02,0.03 0.01,0.03 0.02,0.03 0.01,0.03 0.01,0.03 0.02,0.04 0.01,0.03 0.01,0.04 0.01,0.04 0,0.04 0.01,0.04 0,0.04 0.01,0.04 0,0.05 0,0.04 c 0,1 -0.95,1 -1.69,1 h -29.75 c -0.75,0 -1.69,0 -1.69,-1 0,-1 0.94,-1 1.65,-1 z"
           style="fill:#ffffff;stroke-width:0"
           inkscape:connector-curvature="0" /><path
           id="path4516"
           d="m 565.59,426.12 h 4.29 c 1,0 1.5,0 1.5,1 0,0.55 -0.5,0.55 -1.35,0.55 h -4.14 l 1.05,5.69 c 0.2,1.04 0.9,4.57 1.2,5.17 0.45,0.95 1.3,1.7 2.34,1.7 0.19,0 1.49,0 2.44,-0.91 -2.19,-0.18 -2.69,-1.93 -2.69,-2.68 0,-1.14 0.89,-1.74 1.85,-1.74 1.3,0 2.73,1.1 2.73,2.99 0,2.29 -2.29,3.43 -4.33,3.43 -1.7,0 -4.84,-0.89 -6.32,-5.82 -0.3,-1.05 -0.46,-1.55 -1.64,-7.83 h -3.44 c -0.96,0 -1.5,0 -1.5,-0.94 0,-0.61 0.45,-0.61 1.39,-0.61 h 3.3 l -3.75,-19.67 c -0.9,-4.83 -1.74,-9.38 -4.33,-9.38 -0.21,0 -1.44,0 -2.39,0.91 2.29,0.14 2.73,1.94 2.73,2.69 0,1.14 -0.89,1.75 -1.84,1.75 -1.3,0 -2.74,-1.1 -2.74,-3 0,-2.24 2.19,-3.44 4.24,-3.44 2.73,0 4.73,2.94 5.62,4.84 1.6,3.14 2.75,9.16 2.8,9.52 z"
           style="fill:#ffffff;stroke-width:0"
           inkscape:connector-curvature="0" /><path
           id="path4518"
           d="m 593.56,394.25 0,0.02 0,0.03 0,0.01 -0.01,0.02 0,0.01 0,0.02 -0.01,0.01 -0.01,0.02 -0.01,0.02 -0.01,0.02 -0.01,0.02 -0.01,0.03 -0.02,0.02 -0.02,0.03 -0.02,0.03 -0.02,0.03 -0.03,0.03 -0.03,0.04 -0.01,0.02 -0.02,0.02 -0.02,0.02 -0.02,0.02 -0.01,0.02 -0.02,0.03 -0.03,0.02 -0.02,0.02 -0.02,0.03 -0.02,0.02 -0.03,0.03 -0.02,0.03 -0.03,0.03 -0.03,0.03 -0.03,0.03 -0.03,0.03 -0.03,0.03 -0.03,0.03 -0.03,0.04 -0.04,0.03 -0.03,0.04 -0.04,0.03 -0.04,0.04 -0.03,0.04 c -6.22,6.28 -7.82,15.69 -7.82,23.31 0,8.67 1.89,17.35 8.02,23.56 0.64,0.61 0.64,0.71 0.64,0.86 0,0.35 -0.19,0.49 -0.49,0.49 -0.5,0 -4.98,-3.38 -7.92,-9.7 -2.55,-5.49 -3.14,-11.02 -3.14,-15.21 0,-3.89 0.55,-9.9 3.28,-15.54 2.99,-6.13 7.28,-9.36 7.78,-9.36 0.3,0 0.49,0.14 0.49,0.5 z"
           style="fill:#ffffff;stroke-width:0"
           inkscape:connector-curvature="0" /><path
           id="path4520"
           d="m 613.03,421.25 0.03,0.13 0.04,0.15 0.04,0.16 0.04,0.18 0.06,0.19 0.06,0.21 0.06,0.22 0.08,0.22 0.08,0.23 0.08,0.24 0.1,0.25 0.1,0.24 0.11,0.25 0.12,0.25 0.13,0.25 0.14,0.25 0.15,0.24 0.15,0.24 0.17,0.23 0.18,0.22 0.18,0.22 0.2,0.2 0.21,0.19 0.22,0.18 0.23,0.16 0.25,0.14 0.13,0.07 0.13,0.06 0.13,0.05 0.13,0.05 0.14,0.05 0.15,0.04 0.14,0.03 0.15,0.03 0.15,0.02 0.16,0.02 0.16,0.01 0.16,0 c 0.25,0 1.44,0 2.48,-0.64 -1.39,-0.25 -2.39,-1.5 -2.39,-2.69 0,-0.79 0.55,-1.75 1.89,-1.75 1.1,0 2.69,0.89 2.69,2.89 0,2.6 -2.94,3.28 -4.62,3.28 -2.9,0 -4.64,-2.64 -5.24,-3.78 -1.25,3.28 -3.94,3.78 -5.37,3.78 -5.19,0 -8.03,-6.42 -8.03,-7.67 0,-0.5 0.5,-0.5 0.6,-0.5 0.4,0 0.55,0.11 0.64,0.55 1.69,5.28 4.99,6.53 6.68,6.53 0.95,0 2.68,-0.44 2.68,-3.33 0,-1.54 -0.84,-4.89 -2.68,-11.86 -0.8,-3.09 -2.53,-5.18 -4.74,-5.18 -0.29,0 -1.44,0 -2.48,0.65 1.25,0.24 2.34,1.28 2.34,2.69 0,1.34 -1.09,1.73 -1.84,1.73 -1.5,0 -2.75,-1.29 -2.75,-2.89 0,-2.28 2.5,-3.28 4.69,-3.28 3.29,0 5.07,3.49 5.23,3.78 0.59,-1.84 2.39,-3.78 5.37,-3.78 5.15,0 7.99,6.42 7.99,7.67 0,0.5 -0.45,0.5 -0.61,0.5 -0.44,0 -0.55,-0.2 -0.64,-0.54 -1.64,-5.33 -5.03,-6.53 -6.63,-6.53 -1.95,0 -2.75,1.59 -2.75,3.29 0,1.1 0.3,2.19 0.86,4.38 z"
           style="fill:#ffffff;stroke-width:0"
           inkscape:connector-curvature="0" /><path
           id="path4522"
           d="m 634.94,406.25 -0.01,0.3 -0.01,0.3 -0.01,0.29 -0.03,0.28 -0.03,0.27 -0.04,0.26 -0.04,0.26 -0.06,0.24 -0.05,0.24 -0.07,0.23 -0.07,0.22 -0.08,0.21 -0.08,0.2 -0.09,0.19 -0.09,0.19 -0.1,0.17 -0.11,0.16 -0.11,0.16 -0.12,0.14 -0.12,0.13 -0.13,0.13 -0.14,0.11 -0.13,0.1 -0.15,0.1 -0.15,0.08 -0.15,0.07 -0.16,0.06 -0.16,0.05 -0.17,0.04 -0.17,0.03 -0.18,0.01 -0.18,0.01 c -1.64,0 -2.64,-1.25 -2.64,-2.64 0,-1.34 1,-2.64 2.64,-2.64 0.59,0 1.25,0.2 1.75,0.64 0.14,0.11 0.2,0.16 0.25,0.16 0.05,0 0.09,-0.05 0.09,-0.75 0,-3.69 -1.73,-6.68 -3.39,-8.32 -0.54,-0.54 -0.54,-0.65 -0.54,-0.79 0,-0.36 0.25,-0.55 0.5,-0.55 0.54,0 4.53,3.83 4.53,9.66 z"
           style="fill:#ffffff;stroke-width:0"
           inkscape:connector-curvature="0" /><path
           id="path4524"
           d="m 671.12,425.18 0.01,0.04 0.01,0.03 0.01,0.06 0.02,0.05 0.01,0.06 0.02,0.05 0.01,0.04 0.01,0.05 0.01,0.04 0.01,0.04 0.01,0.04 0.01,0.04 0,0.04 0.01,0.03 0.01,0.03 0,0.03 0.01,0.03 0,0.03 0,0.03 0.01,0.05 0,0.06 0.01,0.05 0,0.05 0,0.05 0,0.03 0,0.03 0,0.03 0,0.03 c 0,0.91 -0.69,1.35 -1.44,1.35 -0.5,0 -1.3,-0.3 -1.75,-1.05 -0.09,-0.25 -0.5,-1.78 -0.69,-2.69 -0.36,-1.29 -0.7,-2.64 -1,-3.98 l -2.25,-8.97 c -0.18,-0.75 -2.33,-4.23 -5.62,-4.23 -2.53,0 -3.09,2.18 -3.09,4.03 0,2.29 0.85,5.39 2.54,9.76 0.8,2.05 1,2.6 1,3.6 0,2.23 -1.59,4.07 -4.09,4.07 -4.74,0 -6.58,-7.21 -6.58,-7.67 0,-0.5 0.5,-0.5 0.61,-0.5 0.5,0 0.55,0.11 0.8,0.91 1.34,4.69 3.32,6.17 5.03,6.17 0.39,0 1.25,0 1.25,-1.59 0,-1.25 -0.5,-2.53 -0.86,-3.49 -1.99,-5.28 -2.89,-8.12 -2.89,-10.47 0,-4.42 3.14,-5.92 6.07,-5.92 1.96,0 3.65,0.85 5.04,2.24 -0.64,-2.58 -1.24,-5.03 -3.24,-7.68 -1.3,-1.68 -3.18,-3.14 -5.48,-3.14 -0.69,0 -2.94,0.16 -3.78,2.1 0.79,0 1.45,0 2.14,0.61 0.5,0.43 1,1.09 1,2.03 0,1.55 -1.35,1.75 -1.85,1.75 -1.14,0 -2.79,-0.8 -2.79,-3.24 0,-2.5 2.2,-4.34 5.28,-4.34 5.14,0 10.26,4.55 11.67,10.17 z"
           style="fill:#ffffff;stroke-width:0"
           inkscape:connector-curvature="0" /><path
           id="path4526"
           d="m 687.57,418.65 0,0.37 -0.01,0.39 -0.01,0.39 -0.01,0.41 -0.04,0.84 -0.06,0.88 -0.08,0.92 -0.11,0.95 -0.13,0.97 -0.17,1.01 -0.19,1.02 -0.23,1.03 -0.27,1.05 -0.3,1.06 -0.35,1.07 -0.4,1.07 -0.21,0.53 -0.22,0.53 -0.24,0.53 -0.25,0.53 c -2.99,6.12 -7.27,9.36 -7.77,9.36 -0.29,0 -0.5,-0.19 -0.5,-0.49 0,-0.15 0,-0.25 0.94,-1.15 4.89,-4.92 7.74,-12.85 7.74,-23.27 0,-8.51 -1.85,-17.28 -8.04,-23.56 -0.64,-0.59 -0.64,-0.7 -0.64,-0.84 0,-0.3 0.21,-0.5 0.5,-0.5 0.5,0 4.97,3.39 7.93,9.71 2.53,5.47 3.12,11 3.12,15.19 z"
           style="fill:#ffffff;stroke-width:0"
           inkscape:connector-curvature="0" /></g>    </g>
    <g
       id="g4666"
       style="fill:#f9f9f9"
       transform="matrix(0.64748792,0,0,0.64748792,-165.11227,356.45523)">
      <g
         id="g4668"
         transform="matrix(1.0629921,0,0,-1.0629921,-186.02362,789.27165)"
         xml:space="preserve"
         stroke-miterlimit="10.433"
         font-style="normal"
         font-variant="normal"
         font-weight="normal"
         font-stretch="normal"
         font-size-adjust="none"
         letter-spacing="normal"
         word-spacing="normal"
         style="font-style:normal;font-variant:normal;font-weight:normal;font-stretch:normal;letter-spacing:normal;word-spacing:normal;text-anchor:start;fill:#f9f9f9;fill-opacity:1;fill-rule:evenodd;stroke:#000000;stroke-linecap:butt;stroke-linejoin:miter;stroke-miterlimit:10.43299961;stroke-opacity:1;stroke-dasharray:none;stroke-dashoffset:0"><path
           d="m 472.16,421.25 0.03,0.13 0.04,0.15 0.04,0.16 0.04,0.18 0.06,0.19 0.06,0.21 0.06,0.22 0.07,0.22 0.08,0.23 0.09,0.24 0.1,0.25 0.1,0.24 0.11,0.25 0.12,0.25 0.13,0.25 0.14,0.25 0.15,0.24 0.15,0.24 0.17,0.23 0.18,0.22 0.18,0.22 0.2,0.2 0.21,0.19 0.22,0.18 0.23,0.16 0.25,0.14 0.12,0.07 0.13,0.06 0.14,0.05 0.13,0.05 0.14,0.05 0.14,0.04 0.15,0.03 0.15,0.03 0.15,0.02 0.16,0.02 0.16,0.01 0.16,0 c 0.25,0 1.44,0 2.48,-0.64 -1.39,-0.25 -2.39,-1.5 -2.39,-2.69 0,-0.79 0.55,-1.75 1.89,-1.75 1.1,0 2.69,0.89 2.69,2.89 0,2.6 -2.94,3.28 -4.63,3.28 -2.89,0 -4.64,-2.64 -5.23,-3.78 -1.25,3.28 -3.94,3.78 -5.37,3.78 -5.19,0 -8.04,-6.42 -8.04,-7.67 0,-0.5 0.5,-0.5 0.61,-0.5 0.39,0 0.55,0.11 0.64,0.55 1.69,5.28 4.99,6.53 6.68,6.53 0.95,0 2.68,-0.44 2.68,-3.33 0,-1.54 -0.84,-4.89 -2.68,-11.86 -0.8,-3.09 -2.54,-5.18 -4.74,-5.18 -0.3,0 -1.44,0 -2.48,0.65 1.25,0.24 2.34,1.28 2.34,2.69 0,1.34 -1.09,1.73 -1.84,1.73 -1.5,0 -2.75,-1.29 -2.75,-2.89 0,-2.28 2.5,-3.28 4.68,-3.28 3.3,0 5.08,3.49 5.24,3.78 0.59,-1.84 2.39,-3.78 5.37,-3.78 5.14,0 7.99,6.42 7.99,7.67 0,0.5 -0.45,0.5 -0.61,0.5 -0.44,0 -0.55,-0.2 -0.64,-0.54 -1.64,-5.33 -5.03,-6.53 -6.63,-6.53 -1.95,0 -2.75,1.59 -2.75,3.29 0,1.1 0.3,2.19 0.86,4.38 z"
           id="path4670"
           style="fill:#f9f9f9;stroke-width:0"
           inkscape:connector-curvature="0" /></g>    </g>
    <g
       id="g4816"
       style="fill:#f9f9f9"
       transform="matrix(0.64748792,0,0,0.64748792,698.32271,172.84457)">
      <g
         word-spacing="normal"
         letter-spacing="normal"
         font-size-adjust="none"
         font-stretch="normal"
         font-weight="normal"
         font-variant="normal"
         font-style="normal"
         stroke-miterlimit="10.433"
         xml:space="preserve"
         transform="matrix(1.0629921,0,0,-1.0629921,-186.02362,789.27165)"
         id="g4818"
         style="font-style:normal;font-variant:normal;font-weight:normal;font-stretch:normal;letter-spacing:normal;word-spacing:normal;text-anchor:start;fill:#f9f9f9;fill-opacity:1;fill-rule:evenodd;stroke:#000000;stroke-linecap:butt;stroke-linejoin:miter;stroke-miterlimit:10.43299961;stroke-opacity:1;stroke-dasharray:none;stroke-dashoffset:0"><path
           id="path4820"
           d="m 479.74,425.18 0.01,0.04 0.01,0.03 0.01,0.06 0.02,0.05 0.01,0.06 0.01,0.05 0.02,0.04 0.01,0.05 0.01,0.04 0.01,0.04 0,0.04 0.01,0.04 0.01,0.04 0.01,0.03 0,0.03 0.01,0.03 0,0.03 0.01,0.03 0,0.03 0.01,0.05 0,0.06 0,0.05 0,0.05 0.01,0.05 0,0.03 0,0.03 0,0.03 0,0.03 c 0,0.91 -0.69,1.35 -1.44,1.35 -0.5,0 -1.3,-0.3 -1.75,-1.05 -0.1,-0.25 -0.5,-1.78 -0.69,-2.69 -0.36,-1.29 -0.7,-2.64 -1,-3.98 l -2.25,-8.97 c -0.19,-0.75 -2.33,-4.23 -5.62,-4.23 -2.54,0 -3.1,2.18 -3.1,4.03 0,2.29 0.86,5.39 2.55,9.76 0.8,2.05 1,2.6 1,3.6 0,2.23 -1.59,4.07 -4.09,4.07 -4.74,0 -6.58,-7.21 -6.58,-7.67 0,-0.5 0.5,-0.5 0.61,-0.5 0.5,0 0.54,0.11 0.79,0.91 1.35,4.69 3.33,6.17 5.03,6.17 0.4,0 1.25,0 1.25,-1.59 0,-1.25 -0.5,-2.53 -0.85,-3.49 -1.99,-5.28 -2.9,-8.12 -2.9,-10.47 0,-4.42 3.15,-5.92 6.08,-5.92 1.96,0 3.64,0.85 5.03,2.24 -0.64,-2.58 -1.23,-5.03 -3.23,-7.68 -1.3,-1.68 -3.19,-3.14 -5.48,-3.14 -0.69,0 -2.94,0.16 -3.79,2.1 0.8,0 1.46,0 2.14,0.61 0.5,0.43 1,1.09 1,2.03 0,1.55 -1.34,1.75 -1.84,1.75 -1.14,0 -2.8,-0.8 -2.8,-3.24 0,-2.5 2.21,-4.34 5.29,-4.34 5.14,0 10.26,4.55 11.67,10.17 z"
           style="fill:#f9f9f9;stroke-width:0"
           inkscape:connector-curvature="0" /></g>    </g>
    <path
       style="fill:none;stroke:#ffffff;stroke-width:1px;stroke-linecap:butt;stroke-linejoin:miter;stroke-opacity:1"
       d="m 284.71275,552.66226 0,-298.65786"
       id="path3067"
       inkscape:connector-curvature="0" />
    <path
       style="fill:#ffffff;stroke:#ffffff;stroke-width:1px;stroke-linecap:butt;stroke-linejoin:miter;stroke-opacity:1"
       d="m 632.17851,524.77203 0,-323.06181"
       id="path3069"
       inkscape:connector-curvature="0" />
    <path
       style="fill:none;stroke:#ffffff;stroke-width:1px;stroke-linecap:butt;stroke-linejoin:miter;stroke-opacity:1"
       d="m 285.1941,255.50686 c 97.84991,50.32114 317.12654,20.44709 349.30859,-53.79664"
       id="path3071"
       inkscape:connector-curvature="0"
       sodipodi:nodetypes="cc" />
    <path
       style="fill:none;stroke:#ffffff;stroke-width:1px;stroke-linecap:butt;stroke-linejoin:miter;stroke-opacity:1"
       d="M 284.31641,252.82499 C 300.52536,154.51105 579.02794,144.70006 632.72727,202.69984"
       id="path3086"
       inkscape:connector-curvature="0"
       sodipodi:nodetypes="cc" />
    <path
       style="fill:none;stroke:#ffffff;stroke-width:1;stroke-linecap:butt;stroke-linejoin:miter;stroke-opacity:1;stroke-miterlimit:4;stroke-dasharray:4,4;stroke-dashoffset:0"
       d="m 285.13814,253.64671 c 85.19459,-73.0058 207.84053,-78.77964 314.05635,-64.7752 12.12352,2.5434 24.07841,6.76036 34.35451,13.82835"
       id="path3098"
       inkscape:connector-curvature="0" />
    <path
       style="opacity:0.6;fill:#ffc0cb;fill-opacity:1;stroke:#ffffff;stroke-width:0.82172376000000003;stroke-miterlimit:4;stroke-opacity:1;stroke-dasharray:3.28689492999999988, 3.28689492999999988;stroke-dashoffset:0"
       d="m 285.32956,345.64093 c 0,-48.81039 0.13281,-88.74616 0.29513,-88.74616 0.16233,0 3.02809,1.2618 6.36836,2.804 33.27199,15.36166 82.00731,22.80284 137.54902,21.00175 63.69948,-2.06562 121.64576,-15.2322 161.46871,-36.68898 15.3172,-8.25298 29.57562,-19.64011 36.71376,-29.32051 l 3.55071,-4.81531 0,99.11473 0,99.11473 -145.33499,-0.0201 -145.33499,-0.02 -26.92437,13.16098 c -14.8084,7.23859 -27.24543,13.16104 -27.63785,13.16104 -0.3991,0 -0.71349,-39.10483 -0.71349,-88.74617 z"
       id="path3895"
       inkscape:connector-curvature="0" />
    <path
       style="opacity:0.6;fill:#ffc0cb;fill-opacity:1;stroke:#ffffff;stroke-width:0.82172376;stroke-miterlimit:4;stroke-opacity:1;stroke-dasharray:3.28689493, 3.28689493;stroke-dashoffset:0"
       d="m 383.52554,278.42337 c -35.95715,-2.67647 -71.97215,-11.00211 -92.72942,-21.43639 -4.49654,-2.26031 -4.72072,-2.50847 -3.49233,-3.86584 1.6852,-1.86211 1.67918,-2.87012 -0.0133,-2.22067 -2.85688,1.09628 0.83384,-10.0186 6.10832,-18.39565 11.9237,-18.93751 35.28305,-34.34978 69.5836,-45.91058 77.02866,-25.96206 194.82551,-24.52715 249.34266,3.03731 5.55745,2.8099 7.78908,4.35939 7.62527,5.29443 -0.30808,1.75843 3.05717,3.6407 3.9439,2.20594 0.44685,-0.72302 1.01097,-0.42933 1.96133,1.02109 0.73373,1.11983 2.25332,2.45488 3.37685,2.9668 1.35248,0.61623 2.04279,1.59926 2.04279,2.90904 0,5.42989 -15.1771,21.75174 -28.5335,30.6857 -34.8065,23.28168 -94.32815,39.64748 -159.21635,43.77737 -15.05132,0.95797 -46.69491,0.92181 -59.99986,-0.0685 l 0,-2e-5 z m -89.5208,-30.66472 c 1.88136,-1.37569 0.9043,-2.8649 -1.06474,-1.62286 -1.53874,0.97061 -2.36155,2.78826 -1.26219,2.78826 0.40323,0 1.45035,-0.52443 2.32693,-1.1654 z m 6.37045,-4.94478 c 1.9798,-1.50105 0.33161,-2.48708 -1.86463,-1.11551 -0.92228,0.57598 -1.67687,1.32805 -1.67687,1.67129 0,0.98149 1.90909,0.68189 3.5415,-0.55578 z m 7.48793,-6.31896 c -0.45247,-0.73211 -1.40049,-0.41437 -3.41944,1.14606 -1.85276,1.43199 -0.16808,2.25161 1.87563,0.91252 1.10242,-0.72234 1.79714,-1.6487 1.54381,-2.05858 l 0,0 z m 5.75592,-2.79039 c 0.8709,-0.65888 1.33256,-1.44886 1.02591,-1.75551 -0.6601,-0.66011 -4.66368,1.33398 -4.66368,2.32287 0,1.05456 1.88187,0.76106 3.63777,-0.56736 l 0,0 z m 6.57379,-4.10862 c 0.8709,-0.65888 1.33468,-1.44674 1.03063,-1.7508 -0.82609,-0.82608 -4.84188,1.23382 -4.25538,2.1828 0.67274,1.08851 1.33161,1.00025 3.22475,-0.432 l 0,0 z m 7.06112,-4.11083 c 0.57169,-0.68885 0.83352,-1.45836 0.58185,-1.71003 -0.62884,-0.62884 -3.88523,1.18964 -3.88523,2.16966 0,1.23221 2.14723,0.93344 3.30338,-0.45963 z m 7.82641,-4.55872 c 0.98551,-1.59458 -0.3678,-1.82551 -2.50223,-0.42698 -2.40399,1.57516 -2.03952,3.44121 0.41551,2.12732 0.85129,-0.4556 1.79032,-1.22075 2.08672,-1.70034 z m 5.79586,-2.43661 c 1.57296,-0.59804 1.9829,-1.11097 1.3743,-1.71958 -0.97541,-0.9754 -4.33065,0.40292 -4.33065,1.77902 0,0.99218 0.20099,0.98814 2.95635,-0.0594 l 0,0 z m 7.63165,-3.57924 c 1.23725,-0.6858 1.62224,-1.29504 1.04413,-1.65233 -1.06649,-0.65912 -4.23661,0.84049 -4.23661,2.00412 0,1.05161 0.82454,0.96075 3.19248,-0.35179 l 0,0 z m 7.12615,-3.3077 c 0.87658,-0.64097 1.39332,-1.36585 1.14832,-1.61085 -0.82042,-0.82042 -4.07144,0.48872 -4.07144,1.63951 0,1.45045 0.91256,1.4415 2.92312,-0.0287 l 0,0 z m 7.28122,-2.62027 c 0.71489,-0.27432 1.29979,-1.00196 1.29979,-1.61697 0,-1.35036 -3.42976,-0.33168 -3.92934,1.16707 -0.34885,1.04653 0.63576,1.21499 2.62955,0.4499 l 0,0 z m 7.77917,-3.11099 c 1.07794,-0.5975 1.60433,-1.30611 1.16975,-1.57469 -1.26682,-0.78294 -4.36223,0.34002 -4.36223,1.58254 0,1.3959 0.66293,1.39427 3.19248,-0.008 l 0,4e-5 z m 8.28785,-2.93192 c 0.66484,-0.42046 0.95939,-1.01387 0.65456,-1.31869 -0.7722,-0.77221 -4.73938,0.31786 -4.73938,1.30225 0,1.01623 2.48808,1.02625 4.08482,0.0164 l 0,0 z m 7.39552,-2.46517 c 0.66483,-0.42046 0.9858,-0.98745 0.71325,-1.26 -0.69702,-0.69703 -4.79807,0.42863 -4.79807,1.31698 0,0.95533 2.54015,0.91989 4.08482,-0.057 l 0,10e-6 z m 8.10541,-3.32298 c 0.24405,-0.73216 -0.0945,-0.90525 -1.05205,-0.53782 -0.77655,0.29799 -1.75144,0.5418 -2.16643,0.5418 -0.41498,0 -0.75452,0.54275 -0.75452,1.20611 0,1.49517 3.41829,0.45403 3.973,-1.21009 l 0,0 z m 8.2827,-1.29539 c 0.18924,-0.18924 0.11477,-0.57337 -0.16548,-0.85362 -0.77834,-0.77834 -4.6947,0.41959 -4.6947,1.43601 0,0.81631 3.93273,0.34506 4.86018,-0.58239 l 0,0 z m 7.46567,-2.46839 c 0,-0.61105 -0.55466,-0.93772 -1.23258,-0.72593 -0.67792,0.21179 -1.81069,0.56735 -2.51725,0.79013 -2.04712,0.64546 -0.61269,1.88075 1.67591,1.44326 1.14066,-0.21805 2.07392,-0.89641 2.07392,-1.50746 z m 206.07338,0.35392 c -0.44169,-1.3251 -3.7654,-2.44653 -4.36684,-1.47339 -0.26939,0.43588 0.36595,1.13573 1.41187,1.5552 2.61491,1.04875 3.32528,1.02908 2.95497,-0.0818 l 0,10e-6 z m -198.23321,-1.57117 c 0.2979,-0.48201 0.41217,-1.00403 0.25393,-1.16002 -0.56557,-0.55754 -4.8072,0.59877 -4.8072,1.31049 0,1.0319 3.90222,0.90295 4.55327,-0.15047 z m 7.77258,-1.68457 c 0,-0.39926 -1.10932,-0.72593 -2.46517,-0.72593 -2.26658,0 -3.09875,0.73596 -2.035,1.79971 0.66228,0.66228 4.50017,-0.25348 4.50017,-1.07378 z m 183.04407,0.71209 c -0.40484,-1.23293 -4.73002,-1.89864 -4.73002,-0.72803 0,0.7028 1.06027,1.10036 4.38253,1.64328 0.37663,0.0615 0.53299,-0.35032 0.34749,-0.91525 l 0,0 z m -175.99221,-1.43802 c 0.64096,0 1.16538,-0.39434 1.16538,-0.8763 0,-1.28532 -4.32617,-0.55867 -4.77366,0.80181 -0.26731,0.81267 0.0402,0.99649 1.03099,0.61629 0.77655,-0.29799 1.93633,-0.5418 2.57729,-0.5418 z m 168.79702,-0.82172 c 0,-0.45195 -1.10932,-0.82173 -2.46517,-0.82173 -1.35584,0 -2.46517,0.36978 -2.46517,0.82173 0,0.45195 1.10933,0.82172 2.46517,0.82172 1.35585,0 2.46517,-0.36977 2.46517,-0.82172 z m -159.8961,-0.70711 c 0.24036,-0.38891 0.25349,-0.89064 0.0292,-1.11495 -0.64608,-0.64608 -4.47782,0.29189 -4.47782,1.09613 0,0.93464 3.87251,0.95102 4.44864,0.0188 l 0,0 z m 151.67887,-0.11462 c 0,-0.45194 -0.52443,-0.82172 -1.16538,-0.82172 -0.64096,0 -1.75029,-0.22445 -2.46517,-0.49878 -0.85294,-0.3273 -1.2998,-0.0448 -1.2998,0.82173 0,0.9194 0.74878,1.3205 2.46517,1.3205 1.35585,0 2.46518,-0.36978 2.46518,-0.82173 z m -144.64718,-0.78962 c 0.66483,-0.42046 0.95939,-1.01387 0.65456,-1.31869 -0.7722,-0.77221 -4.73938,0.31786 -4.73938,1.30225 0,1.01623 2.48808,1.02624 4.08482,0.0164 l 0,0 z m 136.42994,-0.0164 c 0,-0.98439 -3.96718,-2.07446 -4.73938,-1.30225 -0.714,0.714 1.43692,2.07942 3.30136,2.09573 0.79091,0.007 1.43802,-0.35015 1.43802,-0.79348 z M 457.89154,185.5581 c 0,-0.40066 -1.10933,-0.72846 -2.46517,-0.72846 -1.50044,0 -2.46517,0.42667 -2.46517,1.09027 0,0.74399 0.78294,0.97535 2.46517,0.72846 1.35584,-0.199 2.46517,-0.68962 2.46517,-1.09027 z m 119.50663,1.00264 c 0.24952,-0.40373 -0.51184,-0.9764 -1.69192,-1.27257 -2.37764,-0.59676 -3.21853,-0.20014 -2.39631,1.13025 0.65728,1.0635 3.45863,1.16103 4.08823,0.14232 z m -112.40628,-0.90938 c 0.66763,0 0.98535,-0.36977 0.70603,-0.82172 -0.85389,-1.38162 -4.51949,-0.97708 -4.51949,0.49878 0,0.86652 0.44686,1.14902 1.2998,0.82172 0.71488,-0.27433 1.84603,-0.49878 2.51366,-0.49878 z m 104.65408,0 c 0,-0.45195 -0.52443,-0.82172 -1.16538,-0.82172 -0.64096,0 -1.75029,-0.22445 -2.46517,-0.49878 -0.85294,-0.3273 -1.29979,-0.0448 -1.29979,0.82172 0,0.91941 0.74877,1.32051 2.46517,1.32051 1.35584,0 2.46517,-0.36978 2.46517,-0.82173 z m -97.44147,-0.49878 c 0.71489,-0.27432 1.29979,-0.85355 1.29979,-1.28716 0,-1.14925 -4.33167,-0.45437 -4.73001,0.75879 -0.35959,1.09509 1.29088,1.34932 3.43022,0.52837 z m 89.22423,-0.32294 c 0,-0.45195 -1.10933,-0.82173 -2.46517,-0.82173 -1.35585,0 -2.46517,0.36978 -2.46517,0.82173 0,0.45195 1.10932,0.82172 2.46517,0.82172 1.35584,0 2.46517,-0.36977 2.46517,-0.82172 z m -79.7072,-0.82173 c 0,-0.45194 -1.10933,-0.82172 -2.46517,-0.82172 -1.35585,0 -2.46517,0.36978 -2.46517,0.82172 0,0.45195 1.10932,0.82173 2.46517,0.82173 1.35584,0 2.46517,-0.36978 2.46517,-0.82173 z m 64.09445,0 c 0,-0.45194 -0.52442,-0.82172 -1.16538,-0.82172 -0.64096,0 -1.75029,-0.22445 -2.46517,-0.49878 -0.85294,-0.3273 -1.29979,-0.0448 -1.29979,0.82173 0,0.91941 0.74878,1.3205 2.46517,1.3205 1.35584,0 2.46517,-0.36978 2.46517,-0.82173 z m 7.39551,0 c 0,-0.45194 -0.92444,-0.82172 -2.05431,-0.82172 -1.12987,0 -2.05431,0.36978 -2.05431,0.82172 0,0.45195 0.92444,0.82173 2.05431,0.82173 1.12987,0 2.05431,-0.36978 2.05431,-0.82173 z m -63.27272,-0.82172 c 0,-0.45195 -1.10933,-0.82172 -2.46518,-0.82172 -1.35584,0 -2.46517,0.36977 -2.46517,0.82172 0,0.45195 1.10933,0.82172 2.46517,0.82172 1.35585,0 2.46518,-0.36977 2.46518,-0.82172 z m 7.39551,0 c 0,-0.45195 -0.92444,-0.82172 -2.05431,-0.82172 -1.12987,0 -2.05431,0.36977 -2.05431,0.82172 0,0.45195 0.92444,0.82172 2.05431,0.82172 1.12987,0 2.05431,-0.36977 2.05431,-0.82172 z m 8.21724,0 c 0,-0.45195 -1.10933,-0.82172 -2.46517,-0.82172 -1.35585,0 -2.46518,0.36977 -2.46518,0.82172 0,0.45195 1.10933,0.82172 2.46518,0.82172 1.35584,0 2.46517,-0.36977 2.46517,-0.82172 z m 8.05973,-0.0616 c -0.16194,-0.48584 -0.56253,-0.85562 -0.89019,-0.82172 -0.32767,0.0339 -1.33531,0.0616 -2.2392,0.0616 -0.9039,0 -1.64345,0.36977 -1.64345,0.82172 0,0.45195 1.14014,0.82172 2.53365,0.82172 1.44174,0 2.40675,-0.38069 2.23919,-0.88335 z m 7.96388,0.0616 c 0.27932,-0.45195 -0.0384,-0.82172 -0.70603,-0.82172 -0.66762,0 -1.79877,-0.22445 -2.51366,-0.49878 -0.85294,-0.3273 -1.29979,-0.0448 -1.29979,0.82172 0,1.47586 3.66559,1.8804 4.51948,0.49878 z m 7.80637,0 c 0,-0.45195 -1.10932,-0.82172 -2.46517,-0.82172 -1.35584,0 -2.46517,0.36977 -2.46517,0.82172 0,0.45195 1.10933,0.82172 2.46517,0.82172 1.35585,0 2.46517,-0.36977 2.46517,-0.82172 z m 8.21724,0 c 0,-0.45195 -1.10933,-0.82172 -2.46517,-0.82172 -1.35584,0 -2.46517,0.36977 -2.46517,0.82172 0,0.45195 1.10933,0.82172 2.46517,0.82172 1.35584,0 2.46517,-0.36977 2.46517,-0.82172 z"
       id="path3897"
       inkscape:connector-curvature="0" />
    <path
       style="opacity:0.6;fill:#ffc0cb;fill-opacity:1;stroke:#ffffff;stroke-width:0.82172376;stroke-miterlimit:4;stroke-opacity:1;stroke-dasharray:3.28689493, 3.28689493;stroke-dashoffset:0"
       d="m 285.58137,484.86179 0.15905,-47.96782 27.76339,-13.45603 27.76339,-13.45604 145.00402,0 145.00403,0 -0.0628,52.79575 c -0.0619,51.99141 -0.0851,52.72064 -1.52726,47.86541 -9.03092,-30.40422 -34.27229,-56.38042 -63.737,-65.5925 -12.96445,-4.05331 -41.71552,-7.1035 -66.97048,-7.10486 -38.4148,-0.002 -76.01412,4.88498 -126.54546,16.448 -7.90909,1.80983 -16.96859,3.88052 -20.13223,4.60153 -30.02666,6.84328 -56.15205,33.96078 -65.22935,67.70642 l -1.64837,6.12795 0.15905,-47.96781 z"
       id="path3899"
       inkscape:connector-curvature="0" />
    <path
       style="opacity:0.6;fill:#ffc0cb;fill-opacity:1;stroke:#ffffff;stroke-width:0.82172376;stroke-miterlimit:4;stroke-opacity:1;stroke-dasharray:3.28689493, 3.28689493;stroke-dashoffset:0"
       d="m 443.92224,626.08956 c -12.91723,-0.87323 -21.89238,-1.75048 -58.75325,-5.74269 -16.27013,-1.76213 -34.75891,-3.60711 -41.08619,-4.09994 -13.72381,-1.06895 -17.08528,-1.82566 -24.65171,-5.54941 -14.23455,-7.00541 -25.01595,-19.95879 -30.95627,-37.1926 -2.55942,-7.42528 -2.69042,-8.38804 -2.68349,-19.72137 0.0111,-18.08022 3.15268,-31.30078 11.13026,-46.83825 10.29292,-20.0469 27.47434,-35.9775 46.67451,-43.27657 8.03798,-3.05569 52.74116,-12.9657 76.96691,-17.06239 49.35644,-8.34639 97.06262,-9.09559 134.58837,-2.11364 10.35746,1.92709 16.11435,3.91065 24.87359,8.5703 21.08528,11.21674 38.84456,31.68738 46.28034,53.3461 5.62878,16.39534 5.63004,35.25117 0.003,49.81233 -4.39538,11.37466 -16.68212,26.21584 -29.92493,36.14643 -22.70035,17.02264 -51.12714,27.73614 -86.31272,32.52957 -11.54612,1.57297 -50.20823,2.26973 -66.14876,1.19213 l 5e-5,0 z"
       id="path3901"
       inkscape:connector-curvature="0" />
  </g>
</svg>
