<?xml version="1.0" encoding="UTF-8" standalone="no"?>
<!-- Created with Inkscape (http://www.inkscape.org/) -->

<svg
   xmlns:dc="http://purl.org/dc/elements/1.1/"
   xmlns:cc="http://creativecommons.org/ns#"
   xmlns:rdf="http://www.w3.org/1999/02/22-rdf-syntax-ns#"
   xmlns:svg="http://www.w3.org/2000/svg"
   xmlns="http://www.w3.org/2000/svg"
   xmlns:sodipodi="http://sodipodi.sourceforge.net/DTD/sodipodi-0.dtd"
   xmlns:inkscape="http://www.inkscape.org/namespaces/inkscape"
   width="210mm"
   height="297mm"
   id="svg2"
   version="1.1"
   inkscape:version="0.48.3.1 r9886"
   sodipodi:docname="multiple-integral.svg">
  <sodipodi:namedview
     id="base"
     pagecolor="#000000"
     bordercolor="#666666"
     borderopacity="1.0"
     inkscape:pageopacity="0"
     inkscape:pageshadow="2"
     inkscape:zoom="0.86051644"
     inkscape:cx="401.08435"
     inkscape:cy="686.57124"
     inkscape:document-units="px"
     inkscape:current-layer="layer1"
     showgrid="false"
     inkscape:window-width="1366"
     inkscape:window-height="746"
     inkscape:window-x="0"
     inkscape:window-y="22"
     inkscape:window-maximized="0" />
  <defs
     id="defs4">
    <marker
       inkscape:stockid="Arrow1Lend"
       orient="auto"
       refY="0.0"
       refX="0.0"
       id="Arrow1Lend"
       style="overflow:visible;">
      <path
         id="path4903"
         d="M 0.0,0.0 L 5.0,-5.0 L -12.5,0.0 L 5.0,5.0 L 0.0,0.0 z "
         style="fill-rule:evenodd;stroke:#000000;stroke-width:1.0pt;"
         transform="scale(0.8) rotate(180) translate(12.5,0)" />
    </marker>
    <marker
       inkscape:stockid="Arrow1LendB"
       orient="auto"
       refY="0.0"
       refX="0.0"
       id="Arrow1LendB"
       style="overflow:visible;">
      <path
         id="path5346"
         d="M 0.0,0.0 L 5.0,-5.0 L -12.5,0.0 L 5.0,5.0 L 0.0,0.0 z "
         style="stroke:#ffffff;stroke-width:1.0pt;fill:#ffffff;fill-rule:evenodd"
         transform="scale(0.8) rotate(180) translate(12.5,0)" />
    </marker>
    <marker
       inkscape:stockid="Arrow1Lenda"
       orient="auto"
       refY="0.0"
       refX="0.0"
       id="Arrow1Lenda"
       style="overflow:visible;">
      <path
         id="path5349"
         d="M 0.0,0.0 L 5.0,-5.0 L -12.5,0.0 L 5.0,5.0 L 0.0,0.0 z "
         style="stroke:#ffffff;stroke-width:1.0pt;fill:#ffffff;fill-rule:evenodd"
         transform="scale(0.8) rotate(180) translate(12.5,0)" />
    </marker>
  </defs>
  <metadata
     id="metadata7">
    <rdf:RDF>
      <cc:Work
         rdf:about="">
        <dc:format>image/svg+xml</dc:format>
        <dc:type
           rdf:resource="http://purl.org/dc/dcmitype/StillImage" />
        <dc:title></dc:title>
      </cc:Work>
    </rdf:RDF>
  </metadata>
  <g
     id="layer1"
     inkscape:groupmode="layer"
     inkscape:label="レイヤー 1">
    <path
       inkscape:connector-curvature="0"
       id="path2985"
       d="M 342.85714,408.07647 C 335.71429,412.36218 18.571429,563.79075 18.571429,563.79075"
       style="stroke-linejoin:miter;marker-end:url(#Arrow1Lenda);stroke-opacity:1;stroke:#ffffff;stroke-linecap:butt;stroke-width:1px;fill:none" />
    <path
       inkscape:connector-curvature="0"
       id="path2987"
       d="m 342.44171,408.89502 522.24887,0"
       style="stroke-linejoin:miter;marker-end:url(#Arrow1LendB);stroke-opacity:1;stroke:#ffffff;stroke-linecap:butt;stroke-width:1px;fill:none" />
    <path
       inkscape:connector-curvature="0"
       id="path3003"
       d="m 330.31988,615.97628 c -31.49782,-7.66868 -50.56748,-42.08408 -45.17021,-73.22929 3.56742,-40.52278 34.12385,-79.0456 75.66861,-84.62669 65.80596,-16.25847 135.30053,-26.97263 202.51085,-13.08512 46.17855,13.00798 82.66794,67.14599 63.02918,114.07682 -16.5201,33.07534 -52.3593,51.55363 -86.58845,61.22864 -68.94039,17.51152 -140.04283,0.0439 -209.44998,-4.36436 z"
       style="fill:none;stroke:#ffffff;stroke-width:1px;stroke-linecap:butt;stroke-linejoin:miter;stroke-opacity:1" />
    <path
       sodipodi:nodetypes="cc"
       inkscape:connector-curvature="0"
       id="path2987-6"
       d="m 167.18025,492.73767 308.09653,0"
       style="fill:none;stroke:#ffffff;stroke-width:1px;stroke-linecap:butt;stroke-linejoin:miter;stroke-opacity:1" />
    <path
       sodipodi:nodetypes="cc"
       inkscape:connector-curvature="0"
       id="path2987-6-4"
       d="m 109.60155,520.01179 308.09653,0"
       style="fill:none;stroke:#ffffff;stroke-width:1px;stroke-linecap:butt;stroke-linejoin:miter;stroke-opacity:1" />
    <path
       sodipodi:nodetypes="cc"
       inkscape:connector-curvature="0"
       id="path2985-0"
       d="m 652.06684,408.81961 c -7.14285,4.28571 -235.39229,111.26757 -235.39229,111.26757"
       style="fill:none;stroke:#ffffff;stroke-width:1px;stroke-linecap:butt;stroke-linejoin:miter;stroke-opacity:1" />
    <path
       sodipodi:nodetypes="cc"
       inkscape:connector-curvature="0"
       id="path2985-0-0"
       d="m 574.2851,408.81961 c -7.14285,4.28571 -228.32123,112.27772 -228.32123,112.27772"
       style="fill:none;stroke:#ffffff;stroke-width:1px;stroke-linecap:butt;stroke-linejoin:miter;stroke-opacity:1" />
    <g
       transform="matrix(0.52927641,0,0,0.52927641,-84.551901,326.63442)"
       style="fill:#ffffff"
       id="g3132">
      <g
         style="font-style:normal;font-variant:normal;font-weight:normal;font-stretch:normal;letter-spacing:normal;word-spacing:normal;text-anchor:start;fill:#ffffff;fill-opacity:1;fill-rule:evenodd;stroke:#000000;stroke-linecap:butt;stroke-linejoin:miter;stroke-miterlimit:10.43299961;stroke-opacity:1;stroke-dasharray:none;stroke-dashoffset:0"
         word-spacing="normal"
         letter-spacing="normal"
         font-size-adjust="none"
         font-stretch="normal"
         font-weight="normal"
         font-variant="normal"
         font-style="normal"
         stroke-miterlimit="10.433"
         xml:space="preserve"
         transform="matrix(1.0629921,0,0,-1.0629921,-186.02362,789.27165)"
         id="content"><path
           inkscape:connector-curvature="0"
           style="fill:#ffffff;stroke-width:0"
           id="path3135"
           d="m 472.16,421.25 0.03,0.13 0.04,0.15 0.04,0.16 0.04,0.18 0.06,0.19 0.06,0.21 0.06,0.22 0.07,0.22 0.08,0.23 0.09,0.24 0.1,0.25 0.1,0.24 0.11,0.25 0.12,0.25 0.13,0.25 0.14,0.25 0.15,0.24 0.15,0.24 0.17,0.23 0.18,0.22 0.18,0.22 0.2,0.2 0.21,0.19 0.22,0.18 0.23,0.16 0.25,0.14 0.12,0.07 0.13,0.06 0.14,0.05 0.13,0.05 0.14,0.05 0.14,0.04 0.15,0.03 0.15,0.03 0.15,0.02 0.16,0.02 0.16,0.01 0.16,0 c 0.25,0 1.44,0 2.48,-0.64 -1.39,-0.25 -2.39,-1.5 -2.39,-2.69 0,-0.79 0.55,-1.75 1.89,-1.75 1.1,0 2.69,0.89 2.69,2.89 0,2.6 -2.94,3.28 -4.63,3.28 -2.89,0 -4.64,-2.64 -5.23,-3.78 -1.25,3.28 -3.94,3.78 -5.37,3.78 -5.19,0 -8.04,-6.42 -8.04,-7.67 0,-0.5 0.5,-0.5 0.61,-0.5 0.39,0 0.55,0.11 0.64,0.55 1.69,5.28 4.99,6.53 6.68,6.53 0.95,0 2.68,-0.44 2.68,-3.33 0,-1.54 -0.84,-4.89 -2.68,-11.86 -0.8,-3.09 -2.54,-5.18 -4.74,-5.18 -0.3,0 -1.44,0 -2.48,0.65 1.25,0.24 2.34,1.28 2.34,2.69 0,1.34 -1.09,1.73 -1.84,1.73 -1.5,0 -2.75,-1.29 -2.75,-2.89 0,-2.28 2.5,-3.28 4.68,-3.28 3.3,0 5.08,3.49 5.24,3.78 0.59,-1.84 2.39,-3.78 5.37,-3.78 5.14,0 7.99,6.42 7.99,7.67 0,0.5 -0.45,0.5 -0.61,0.5 -0.44,0 -0.55,-0.2 -0.64,-0.54 -1.64,-5.33 -5.03,-6.53 -6.63,-6.53 -1.95,0 -2.75,1.59 -2.75,3.29 0,1.1 0.3,2.19 0.86,4.38 z" /><path
           inkscape:connector-curvature="0"
           style="fill:#ffffff;stroke-width:0"
           id="path3137"
           d="m 495.26,420.54 0,0.05 -0.01,0.06 0,0.05 -0.01,0.06 -0.01,0.05 -0.02,0.06 -0.01,0.05 -0.02,0.06 -0.03,0.06 -0.02,0.05 -0.03,0.06 -0.03,0.05 -0.03,0.06 -0.04,0.05 -0.03,0.05 -0.05,0.05 -0.04,0.05 -0.05,0.05 -0.05,0.04 -0.05,0.05 -0.06,0.04 -0.06,0.03 -0.06,0.04 -0.06,0.03 -0.07,0.03 -0.07,0.03 -0.08,0.02 -0.08,0.02 -0.08,0.01 -0.08,0.01 -0.09,0.01 -0.09,0 c -0.94,0 -1.95,-0.91 -1.95,-1.92 0,-0.59 0.45,-1.33 1.4,-1.33 1,0 1.96,0.99 1.96,1.92 z" /><path
           inkscape:connector-curvature="0"
           style="fill:#ffffff;stroke-width:0"
           id="path3139"
           d="m 488.15,402.84 -0.06,-0.17 -0.05,-0.17 -0.03,-0.08 -0.02,-0.09 -0.03,-0.08 -0.02,-0.09 -0.02,-0.09 -0.02,-0.09 -0.02,-0.1 -0.01,-0.09 -0.02,-0.1 0,-0.05 -0.01,-0.05 0,-0.06 0,-0.05 0,-0.05 0,-0.06 c 0,-1.64 1.39,-2.95 3.29,-2.95 3.49,0 5.03,4.79 5.03,5.33 0,0.45 -0.45,0.45 -0.56,0.45 -0.48,0 -0.53,-0.2 -0.67,-0.59 -0.8,-2.79 -2.33,-4.22 -3.69,-4.22 -0.7,0 -0.87,0.45 -0.87,1.22 0,0.79 0.25,1.46 0.56,2.23 0.34,0.94 0.73,1.87 1.11,2.78 0.31,0.84 1.58,4.02 1.72,4.44 0.09,0.34 0.2,0.76 0.2,1.11 0,1.64 -1.39,2.95 -3.31,2.95 -3.45,0 -5.05,-4.73 -5.05,-5.33 0,-0.45 0.49,-0.45 0.6,-0.45 0.48,0 0.51,0.17 0.62,0.56 0.91,3 2.44,4.25 3.72,4.25 0.56,0 0.87,-0.28 0.87,-1.22 0,-0.79 -0.2,-1.32 -1.07,-3.48 z" /></g>    </g>
    <g
       transform="matrix(0.52927641,0,0,0.52927641,-48.527733,295.50568)"
       style="fill:#ffffff"
       id="g3173">
      <g
         style="font-style:normal;font-variant:normal;font-weight:normal;font-stretch:normal;letter-spacing:normal;word-spacing:normal;text-anchor:start;fill:#ffffff;fill-opacity:1;fill-rule:evenodd;stroke:#000000;stroke-linecap:butt;stroke-linejoin:miter;stroke-miterlimit:10.43299961;stroke-opacity:1;stroke-dasharray:none;stroke-dashoffset:0"
         id="g3175"
         transform="matrix(1.0629921,0,0,-1.0629921,-186.02362,789.27165)"
         xml:space="preserve"
         stroke-miterlimit="10.433"
         font-style="normal"
         font-variant="normal"
         font-weight="normal"
         font-stretch="normal"
         font-size-adjust="none"
         letter-spacing="normal"
         word-spacing="normal"><path
           inkscape:connector-curvature="0"
           style="fill:#ffffff;stroke-width:0"
           d="m 472.16,421.25 0.03,0.13 0.04,0.15 0.04,0.16 0.04,0.18 0.06,0.19 0.06,0.21 0.06,0.22 0.07,0.22 0.08,0.23 0.09,0.24 0.1,0.25 0.1,0.24 0.11,0.25 0.12,0.25 0.13,0.25 0.14,0.25 0.15,0.24 0.15,0.24 0.17,0.23 0.18,0.22 0.18,0.22 0.2,0.2 0.21,0.19 0.22,0.18 0.23,0.16 0.25,0.14 0.12,0.07 0.13,0.06 0.14,0.05 0.13,0.05 0.14,0.05 0.14,0.04 0.15,0.03 0.15,0.03 0.15,0.02 0.16,0.02 0.16,0.01 0.16,0 c 0.25,0 1.44,0 2.48,-0.64 -1.39,-0.25 -2.39,-1.5 -2.39,-2.69 0,-0.79 0.55,-1.75 1.89,-1.75 1.1,0 2.69,0.89 2.69,2.89 0,2.6 -2.94,3.28 -4.63,3.28 -2.89,0 -4.64,-2.64 -5.23,-3.78 -1.25,3.28 -3.94,3.78 -5.37,3.78 -5.19,0 -8.04,-6.42 -8.04,-7.67 0,-0.5 0.5,-0.5 0.61,-0.5 0.39,0 0.55,0.11 0.64,0.55 1.69,5.28 4.99,6.53 6.68,6.53 0.95,0 2.68,-0.44 2.68,-3.33 0,-1.54 -0.84,-4.89 -2.68,-11.86 -0.8,-3.09 -2.54,-5.18 -4.74,-5.18 -0.3,0 -1.44,0 -2.48,0.65 1.25,0.24 2.34,1.28 2.34,2.69 0,1.34 -1.09,1.73 -1.84,1.73 -1.5,0 -2.75,-1.29 -2.75,-2.89 0,-2.28 2.5,-3.28 4.68,-3.28 3.3,0 5.08,3.49 5.24,3.78 0.59,-1.84 2.39,-3.78 5.37,-3.78 5.14,0 7.99,6.42 7.99,7.67 0,0.5 -0.45,0.5 -0.61,0.5 -0.44,0 -0.55,-0.2 -0.64,-0.54 -1.64,-5.33 -5.03,-6.53 -6.63,-6.53 -1.95,0 -2.75,1.59 -2.75,3.29 0,1.1 0.3,2.19 0.86,4.38 z"
           id="path3177" /><path
           inkscape:connector-curvature="0"
           style="fill:#ffffff;stroke-width:0"
           d="m 495.26,420.54 0,0.05 -0.01,0.06 0,0.05 -0.01,0.06 -0.01,0.05 -0.02,0.06 -0.01,0.05 -0.02,0.06 -0.03,0.06 -0.02,0.05 -0.03,0.06 -0.03,0.05 -0.03,0.06 -0.04,0.05 -0.03,0.05 -0.05,0.05 -0.04,0.05 -0.05,0.05 -0.05,0.04 -0.05,0.05 -0.06,0.04 -0.06,0.03 -0.06,0.04 -0.06,0.03 -0.07,0.03 -0.07,0.03 -0.08,0.02 -0.08,0.02 -0.08,0.01 -0.08,0.01 -0.09,0.01 -0.09,0 c -0.94,0 -1.95,-0.91 -1.95,-1.92 0,-0.59 0.45,-1.33 1.4,-1.33 1,0 1.96,0.99 1.96,1.92 z"
           id="path3179" /><path
           inkscape:connector-curvature="0"
           style="fill:#ffffff;stroke-width:0"
           d="m 488.15,402.84 -0.06,-0.17 -0.05,-0.17 -0.03,-0.08 -0.02,-0.09 -0.03,-0.08 -0.02,-0.09 -0.02,-0.09 -0.02,-0.09 -0.02,-0.1 -0.01,-0.09 -0.02,-0.1 0,-0.05 -0.01,-0.05 0,-0.06 0,-0.05 0,-0.05 0,-0.06 c 0,-1.64 1.39,-2.95 3.29,-2.95 3.49,0 5.03,4.79 5.03,5.33 0,0.45 -0.45,0.45 -0.56,0.45 -0.48,0 -0.53,-0.2 -0.67,-0.59 -0.8,-2.79 -2.33,-4.22 -3.69,-4.22 -0.7,0 -0.87,0.45 -0.87,1.22 0,0.79 0.25,1.46 0.56,2.23 0.34,0.94 0.73,1.87 1.11,2.78 0.31,0.84 1.58,4.02 1.72,4.44 0.09,0.34 0.2,0.76 0.2,1.11 0,1.64 -1.39,2.95 -3.31,2.95 -3.45,0 -5.05,-4.73 -5.05,-5.33 0,-0.45 0.49,-0.45 0.6,-0.45 0.48,0 0.51,0.17 0.62,0.56 0.91,3 2.44,4.25 3.72,4.25 0.56,0 0.87,-0.28 0.87,-1.22 0,-0.79 -0.2,-1.32 -1.07,-3.48 z"
           id="path3181" /><path
           inkscape:connector-curvature="0"
           style="fill:#ffffff;stroke-width:0"
           d="m 523.92,406.64 0.06,0 0.05,0 0.11,0 0.12,0 0.06,0.01 0.06,0 0.05,0.01 0.06,0 0.06,0.01 0.06,0.01 0.06,0.01 0.05,0.02 0.05,0.01 0.06,0.02 0.05,0.02 0.05,0.03 0.05,0.02 0.04,0.03 0.04,0.04 0.04,0.03 0.04,0.04 0.02,0.02 0.01,0.02 0.02,0.03 0.01,0.02 0.02,0.02 0.01,0.03 0.01,0.03 0.02,0.02 0.01,0.03 0.01,0.03 0,0.03 0.01,0.03 0.01,0.04 0,0.03 0.01,0.04 0,0.03 0,0.04 0,0.04 c 0,0.86 -0.79,0.86 -1.39,0.86 h -20.76 c -0.57,0 -1.39,0 -1.39,-0.83 0,-0.87 0.79,-0.87 1.39,-0.87 z"
           id="path3183" /><path
           inkscape:connector-curvature="0"
           style="fill:#ffffff;stroke-width:0"
           d="m 540.75,420.92 0,0.04 0,0.04 0,0.05 0,0.04 0,0.03 0,0.04 0,0.04 0,0.03 -0.01,0.04 0,0.03 0,0.03 0,0.03 0,0.03 -0.01,0.03 0,0.03 -0.01,0.02 0,0.03 0,0.02 -0.01,0.03 0,0.02 -0.02,0.04 -0.01,0.04 -0.02,0.03 -0.02,0.03 -0.02,0.03 -0.02,0.03 -0.03,0.02 -0.03,0.02 -0.04,0.02 -0.03,0.01 -0.04,0.01 -0.05,0.02 -0.02,0 -0.03,0 -0.02,0.01 -0.03,0 -0.03,0.01 -0.02,0 -0.03,0 -0.03,0 -0.04,0 -0.03,0.01 -0.03,0 -0.04,0 -0.04,0 -0.03,0 -0.04,0 -0.04,0 -0.04,0 -0.05,0 -0.04,0 -0.05,0 c -2.23,-2.2 -5.39,-2.23 -6.82,-2.23 v -1.25 c 0.84,0 3.14,0 5.04,0.97 v -17.77 c 0,-1.16 0,-1.61 -3.48,-1.61 h -1.32 v -1.25 c 0.63,0.03 4.91,0.14 6.21,0.14 1.08,0 5.47,-0.11 6.23,-0.14 v 1.25 h -1.33 c -3.48,0 -3.48,0.45 -3.48,1.61 z"
           id="path3185" /></g>    </g>
    <g
       transform="matrix(0.52927641,0,0,0.52927641,496.61719,211.37783)"
       style="fill:#ffffff"
       id="g3233">
      <g
         style="font-style:normal;font-variant:normal;font-weight:normal;font-stretch:normal;letter-spacing:normal;word-spacing:normal;text-anchor:start;fill:#ffffff;fill-opacity:1;fill-rule:evenodd;stroke:#000000;stroke-linecap:butt;stroke-linejoin:miter;stroke-miterlimit:10.43299961;stroke-opacity:1;stroke-dasharray:none;stroke-dashoffset:0"
         word-spacing="normal"
         letter-spacing="normal"
         font-size-adjust="none"
         font-stretch="normal"
         font-weight="normal"
         font-variant="normal"
         font-style="normal"
         stroke-miterlimit="10.433"
         xml:space="preserve"
         transform="matrix(1.0629921,0,0,-1.0629921,-186.02362,789.27165)"
         id="g3235"><path
           inkscape:connector-curvature="0"
           style="fill:#ffffff;stroke-width:0"
           id="path3237"
           d="m 479.74,425.18 0.01,0.04 0.01,0.03 0.01,0.06 0.02,0.05 0.01,0.06 0.01,0.05 0.02,0.04 0.01,0.05 0.01,0.04 0.01,0.04 0,0.04 0.01,0.04 0.01,0.04 0.01,0.03 0,0.03 0.01,0.03 0,0.03 0.01,0.03 0,0.03 0.01,0.05 0,0.06 0,0.05 0,0.05 0.01,0.05 0,0.03 0,0.03 0,0.03 0,0.03 c 0,0.91 -0.69,1.35 -1.44,1.35 -0.5,0 -1.3,-0.3 -1.75,-1.05 -0.1,-0.25 -0.5,-1.78 -0.69,-2.69 -0.36,-1.29 -0.7,-2.64 -1,-3.98 l -2.25,-8.97 c -0.19,-0.75 -2.33,-4.23 -5.62,-4.23 -2.54,0 -3.1,2.18 -3.1,4.03 0,2.29 0.86,5.39 2.55,9.76 0.8,2.05 1,2.6 1,3.6 0,2.23 -1.59,4.07 -4.09,4.07 -4.74,0 -6.58,-7.21 -6.58,-7.67 0,-0.5 0.5,-0.5 0.61,-0.5 0.5,0 0.54,0.11 0.79,0.91 1.35,4.69 3.33,6.17 5.03,6.17 0.4,0 1.25,0 1.25,-1.59 0,-1.25 -0.5,-2.53 -0.85,-3.49 -1.99,-5.28 -2.9,-8.12 -2.9,-10.47 0,-4.42 3.15,-5.92 6.08,-5.92 1.96,0 3.64,0.85 5.03,2.24 -0.64,-2.58 -1.23,-5.03 -3.23,-7.68 -1.3,-1.68 -3.19,-3.14 -5.48,-3.14 -0.69,0 -2.94,0.16 -3.79,2.1 0.8,0 1.46,0 2.14,0.61 0.5,0.43 1,1.09 1,2.03 0,1.55 -1.34,1.75 -1.84,1.75 -1.14,0 -2.8,-0.8 -2.8,-3.24 0,-2.5 2.21,-4.34 5.29,-4.34 5.14,0 10.26,4.55 11.67,10.17 z" /><path
           inkscape:connector-curvature="0"
           style="fill:#ffffff;stroke-width:0"
           id="path3239"
           d="m 491.3,420.54 0,0.05 -0.01,0.06 0,0.05 -0.01,0.06 -0.01,0.05 -0.02,0.06 -0.02,0.05 -0.01,0.06 -0.03,0.06 -0.02,0.05 -0.03,0.06 -0.03,0.05 -0.03,0.06 -0.04,0.05 -0.04,0.05 -0.04,0.05 -0.04,0.05 -0.05,0.05 -0.05,0.04 -0.05,0.05 -0.06,0.04 -0.06,0.03 -0.06,0.04 -0.06,0.03 -0.07,0.03 -0.07,0.03 -0.08,0.02 -0.08,0.02 -0.08,0.01 -0.08,0.01 -0.09,0.01 -0.09,0 c -0.94,0 -1.95,-0.91 -1.95,-1.92 0,-0.59 0.45,-1.33 1.4,-1.33 1,0 1.96,0.99 1.96,1.92 z" /><path
           inkscape:connector-curvature="0"
           style="fill:#ffffff;stroke-width:0"
           id="path3241"
           d="m 484.19,402.84 -0.06,-0.17 -0.05,-0.17 -0.03,-0.08 -0.02,-0.09 -0.03,-0.08 -0.02,-0.09 -0.02,-0.09 -0.02,-0.09 -0.02,-0.1 -0.02,-0.09 -0.01,-0.1 0,-0.05 -0.01,-0.05 0,-0.06 0,-0.05 0,-0.05 0,-0.06 c 0,-1.64 1.39,-2.95 3.29,-2.95 3.49,0 5.03,4.79 5.03,5.33 0,0.45 -0.45,0.45 -0.56,0.45 -0.48,0 -0.53,-0.2 -0.67,-0.59 -0.8,-2.79 -2.33,-4.22 -3.69,-4.22 -0.7,0 -0.87,0.45 -0.87,1.22 0,0.79 0.25,1.46 0.56,2.23 0.34,0.94 0.73,1.87 1.11,2.78 0.31,0.84 1.58,4.02 1.72,4.44 0.09,0.34 0.2,0.76 0.2,1.11 0,1.64 -1.39,2.95 -3.31,2.95 -3.46,0 -5.05,-4.73 -5.05,-5.33 0,-0.45 0.48,-0.45 0.59,-0.45 0.49,0 0.52,0.17 0.63,0.56 0.91,3 2.44,4.25 3.72,4.25 0.56,0 0.87,-0.28 0.87,-1.22 0,-0.79 -0.2,-1.32 -1.07,-3.48 z" /></g>    </g>
    <g
       transform="matrix(0.52927641,0,0,0.52927641,384.86276,207.26921)"
       style="fill:#ffffff"
       id="g3299">
      <g
         style="font-style:normal;font-variant:normal;font-weight:normal;font-stretch:normal;letter-spacing:normal;word-spacing:normal;text-anchor:start;fill:#ffffff;fill-opacity:1;fill-rule:evenodd;stroke:#000000;stroke-linecap:butt;stroke-linejoin:miter;stroke-miterlimit:10.43299961;stroke-opacity:1;stroke-dasharray:none;stroke-dashoffset:0"
         id="g3301"
         transform="matrix(1.0629921,0,0,-1.0629921,-186.02362,789.27165)"
         xml:space="preserve"
         stroke-miterlimit="10.433"
         font-style="normal"
         font-variant="normal"
         font-weight="normal"
         font-stretch="normal"
         font-size-adjust="none"
         letter-spacing="normal"
         word-spacing="normal"><path
           inkscape:connector-curvature="0"
           style="fill:#ffffff;stroke-width:0"
           d="m 479.74,425.18 0.01,0.04 0.01,0.03 0.01,0.06 0.02,0.05 0.01,0.06 0.01,0.05 0.02,0.04 0.01,0.05 0.01,0.04 0.01,0.04 0,0.04 0.01,0.04 0.01,0.04 0.01,0.03 0,0.03 0.01,0.03 0,0.03 0.01,0.03 0,0.03 0.01,0.05 0,0.06 0,0.05 0,0.05 0.01,0.05 0,0.03 0,0.03 0,0.03 0,0.03 c 0,0.91 -0.69,1.35 -1.44,1.35 -0.5,0 -1.3,-0.3 -1.75,-1.05 -0.1,-0.25 -0.5,-1.78 -0.69,-2.69 -0.36,-1.29 -0.7,-2.64 -1,-3.98 l -2.25,-8.97 c -0.19,-0.75 -2.33,-4.23 -5.62,-4.23 -2.54,0 -3.1,2.18 -3.1,4.03 0,2.29 0.86,5.39 2.55,9.76 0.8,2.05 1,2.6 1,3.6 0,2.23 -1.59,4.07 -4.09,4.07 -4.74,0 -6.58,-7.21 -6.58,-7.67 0,-0.5 0.5,-0.5 0.61,-0.5 0.5,0 0.54,0.11 0.79,0.91 1.35,4.69 3.33,6.17 5.03,6.17 0.4,0 1.25,0 1.25,-1.59 0,-1.25 -0.5,-2.53 -0.85,-3.49 -1.99,-5.28 -2.9,-8.12 -2.9,-10.47 0,-4.42 3.15,-5.92 6.08,-5.92 1.96,0 3.64,0.85 5.03,2.24 -0.64,-2.58 -1.23,-5.03 -3.23,-7.68 -1.3,-1.68 -3.19,-3.14 -5.48,-3.14 -0.69,0 -2.94,0.16 -3.79,2.1 0.8,0 1.46,0 2.14,0.61 0.5,0.43 1,1.09 1,2.03 0,1.55 -1.34,1.75 -1.84,1.75 -1.14,0 -2.8,-0.8 -2.8,-3.24 0,-2.5 2.21,-4.34 5.29,-4.34 5.14,0 10.26,4.55 11.67,10.17 z"
           id="path3303" /><path
           inkscape:connector-curvature="0"
           style="fill:#ffffff;stroke-width:0"
           d="m 491.3,420.54 0,0.05 -0.01,0.06 0,0.05 -0.01,0.06 -0.01,0.05 -0.02,0.06 -0.02,0.05 -0.01,0.06 -0.03,0.06 -0.02,0.05 -0.03,0.06 -0.03,0.05 -0.03,0.06 -0.04,0.05 -0.04,0.05 -0.04,0.05 -0.04,0.05 -0.05,0.05 -0.05,0.04 -0.05,0.05 -0.06,0.04 -0.06,0.03 -0.06,0.04 -0.06,0.03 -0.07,0.03 -0.07,0.03 -0.08,0.02 -0.08,0.02 -0.08,0.01 -0.08,0.01 -0.09,0.01 -0.09,0 c -0.94,0 -1.95,-0.91 -1.95,-1.92 0,-0.59 0.45,-1.33 1.4,-1.33 1,0 1.96,0.99 1.96,1.92 z"
           id="path3305" /><path
           inkscape:connector-curvature="0"
           style="fill:#ffffff;stroke-width:0"
           d="m 484.19,402.84 -0.06,-0.17 -0.05,-0.17 -0.03,-0.08 -0.02,-0.09 -0.03,-0.08 -0.02,-0.09 -0.02,-0.09 -0.02,-0.09 -0.02,-0.1 -0.02,-0.09 -0.01,-0.1 0,-0.05 -0.01,-0.05 0,-0.06 0,-0.05 0,-0.05 0,-0.06 c 0,-1.64 1.39,-2.95 3.29,-2.95 3.49,0 5.03,4.79 5.03,5.33 0,0.45 -0.45,0.45 -0.56,0.45 -0.48,0 -0.53,-0.2 -0.67,-0.59 -0.8,-2.79 -2.33,-4.22 -3.69,-4.22 -0.7,0 -0.87,0.45 -0.87,1.22 0,0.79 0.25,1.46 0.56,2.23 0.34,0.94 0.73,1.87 1.11,2.78 0.31,0.84 1.58,4.02 1.72,4.44 0.09,0.34 0.2,0.76 0.2,1.11 0,1.64 -1.39,2.95 -3.31,2.95 -3.46,0 -5.05,-4.73 -5.05,-5.33 0,-0.45 0.48,-0.45 0.59,-0.45 0.49,0 0.52,0.17 0.63,0.56 0.91,3 2.44,4.25 3.72,4.25 0.56,0 0.87,-0.28 0.87,-1.22 0,-0.79 -0.2,-1.32 -1.07,-3.48 z"
           id="path3307" /><path
           inkscape:connector-curvature="0"
           style="fill:#ffffff;stroke-width:0"
           d="m 519.96,406.64 0.05,0 0.06,0 0.11,0 0.12,0 0.06,0.01 0.06,0 0.05,0.01 0.06,0 0.06,0.01 0.06,0.01 0.05,0.01 0.06,0.02 0.05,0.01 0.06,0.02 0.05,0.02 0.05,0.03 0.05,0.02 0.04,0.03 0.04,0.04 0.04,0.03 0.04,0.04 0.02,0.02 0.01,0.02 0.02,0.03 0.01,0.02 0.02,0.02 0.01,0.03 0.01,0.03 0.02,0.02 0.01,0.03 0.01,0.03 0,0.03 0.01,0.03 0.01,0.04 0,0.03 0.01,0.04 0,0.03 0,0.04 0,0.04 c 0,0.86 -0.8,0.86 -1.39,0.86 H 499.2 c -0.57,0 -1.4,0 -1.4,-0.83 0,-0.87 0.8,-0.87 1.4,-0.87 z"
           id="path3309" /><path
           inkscape:connector-curvature="0"
           style="fill:#ffffff;stroke-width:0"
           d="m 536.79,420.92 0,0.04 0,0.04 0,0.05 0,0.04 0,0.03 0,0.04 0,0.04 -0.01,0.03 0,0.04 0,0.03 0,0.03 0,0.03 -0.01,0.03 0,0.03 0,0.03 -0.01,0.02 0,0.03 0,0.02 -0.01,0.03 -0.01,0.02 -0.01,0.04 -0.01,0.04 -0.02,0.03 -0.02,0.03 -0.02,0.03 -0.03,0.03 -0.02,0.02 -0.03,0.02 -0.04,0.02 -0.03,0.01 -0.04,0.01 -0.05,0.02 -0.02,0 -0.03,0 -0.02,0.01 -0.03,0 -0.03,0.01 -0.03,0 -0.02,0 -0.04,0 -0.03,0 -0.03,0.01 -0.03,0 -0.04,0 -0.04,0 -0.03,0 -0.04,0 -0.04,0 -0.05,0 -0.04,0 -0.04,0 -0.05,0 c -2.23,-2.2 -5.39,-2.23 -6.83,-2.23 v -1.25 c 0.85,0 3.14,0 5.05,0.97 v -17.77 c 0,-1.16 0,-1.61 -3.48,-1.61 h -1.32 v -1.25 c 0.63,0.03 4.91,0.14 6.21,0.14 1.08,0 5.47,-0.11 6.23,-0.14 v 1.25 h -1.33 c -3.48,0 -3.48,0.45 -3.48,1.61 z"
           id="path3311" /></g>    </g>
    <g
       transform="matrix(0.52927641,0,0,0.52927641,477.71754,347.78397)"
       style="fill:#ffffff"
       id="g3469">
      <g
         style="font-style:normal;font-variant:normal;font-weight:normal;font-stretch:normal;letter-spacing:normal;word-spacing:normal;text-anchor:start;fill:#ffffff;fill-opacity:1;fill-rule:evenodd;stroke:#000000;stroke-linecap:butt;stroke-linejoin:miter;stroke-miterlimit:10.43299961;stroke-opacity:1;stroke-dasharray:none;stroke-dashoffset:0"
         id="g3471"
         transform="matrix(1.0629921,0,0,-1.0629921,-186.02362,789.27165)"
         xml:space="preserve"
         stroke-miterlimit="10.433"
         font-style="normal"
         font-variant="normal"
         font-weight="normal"
         font-stretch="normal"
         font-size-adjust="none"
         letter-spacing="normal"
         word-spacing="normal"><path
           inkscape:connector-curvature="0"
           style="fill:#ffffff;stroke-width:0"
           d="m 463.44,410.09 -0.04,-0.18 -0.05,-0.17 -0.04,-0.16 -0.05,-0.15 -0.04,-0.15 -0.05,-0.13 -0.04,-0.13 -0.05,-0.12 -0.06,-0.11 -0.06,-0.11 -0.06,-0.1 -0.07,-0.09 -0.08,-0.09 -0.09,-0.07 -0.09,-0.08 -0.11,-0.06 -0.11,-0.07 -0.12,-0.05 -0.14,-0.05 -0.15,-0.05 -0.16,-0.04 -0.09,-0.02 -0.08,-0.01 -0.1,-0.02 -0.1,-0.02 -0.1,-0.01 -0.1,-0.01 -0.11,-0.01 -0.11,-0.02 -0.12,-0.01 -0.12,-0.01 -0.13,0 -0.13,-0.01 -0.13,-0.01 -0.15,0 -0.14,-0.01 -0.15,0 -0.16,-0.01 -0.16,0 -0.16,0 -0.17,0 -0.18,0 -0.18,0 c -0.84,0 -1.39,0 -1.39,-0.96 0,-0.59 0.44,-0.59 1.39,-0.59 h 16.48 l -0.89,1.55 h -5.62 c -0.7,0 -0.8,0 -1.11,0.04 -0.48,0.05 -0.64,0.1 -0.64,0.5 0,0.14 0,0.25 0.25,1.14 l 6.83,27.36 c 0.43,1.74 0.54,1.89 2.68,1.89 h 5.33 c 4.89,0 9.02,-2.64 9.02,-9.22 0,-2.43 -1,-10.6 -5.24,-16.09 -1.43,-1.84 -5.37,-5.62 -11.5,-5.62 l 0.89,-1.55 c 10.36,0 20.19,10.51 20.19,21.42 0,7.03 -4.23,12.61 -11.72,12.61 h -16.73 c -0.95,0 -1.5,0 -1.5,-0.95 0,-0.6 0.45,-0.6 1.45,-0.6 0.64,0 1.55,-0.04 2.14,-0.09 0.8,-0.11 1.1,-0.25 1.1,-0.8 0,-0.2 -0.05,-0.36 -0.21,-0.95 z"
           id="path3473" /></g>    </g>
    <path
       sodipodi:nodetypes="ccccc"
       inkscape:connector-curvature="0"
       id="path3516"
       d="m 161.62441,284.64625 c 26.28715,26.4848 70.1391,50.57619 117.31276,50.44092 65.6036,4.82453 164.86726,-11.51694 230.60351,-11.15223 66.06866,-4.28071 97.54746,-14.65876 152.37559,-51.21043 12.42072,-10.09319 18.70385,-25.37389 18.92654,-41.61635"
       style="fill:none;stroke:#ffffff;stroke-width:1px;stroke-linecap:butt;stroke-linejoin:miter;stroke-opacity:1" />
    <path
       sodipodi:nodetypes="ccc"
       inkscape:connector-curvature="0"
       id="path3533"
       d="m 161.62441,284.64625 c 36.8973,-131.14065 297.504,-153.51044 382.7184,-129.57902 94.37355,30.22089 117.89844,43.76182 135.48986,77.05108"
       style="fill:none;stroke:#ffffff;stroke-width:1px;stroke-linecap:butt;stroke-linejoin:miter;stroke-opacity:1" />
    <path
       sodipodi:nodetypes="cc"
       inkscape:connector-curvature="0"
       id="path3547"
       d="m 162.63456,284.64625 c 25.62436,-100.21949 435.55292,-90.50337 517.1641,-52.52796"
       style="fill:none;stroke:#ffffff;stroke-width:1;stroke-linecap:butt;stroke-linejoin:miter;stroke-opacity:1;stroke-miterlimit:4;stroke-dasharray:4,4;stroke-dashoffset:0" />
    <path
       inkscape:connector-curvature="0"
       id="path3568"
       d="m 348.50263,519.00164 0,-294.96454"
       style="fill:none;stroke:#ffffff;stroke-width:1;stroke-linecap:butt;stroke-linejoin:miter;stroke-opacity:1;stroke-miterlimit:4;stroke-dasharray:4,4;stroke-dashoffset:0" />
    <path
       inkscape:connector-curvature="0"
       id="path3570"
       d="m 417.193,519.00164 0,-273.75134"
       style="fill:none;stroke:#ffffff;stroke-width:1;stroke-linecap:butt;stroke-linejoin:miter;stroke-opacity:1;stroke-miterlimit:4;stroke-dasharray:4,4;stroke-dashoffset:0" />
    <path
       inkscape:connector-curvature="0"
       id="path3572"
       d="m 474.7717,491.72752 0,-295.9747"
       style="fill:none;stroke:#ffffff;stroke-width:1;stroke-linecap:butt;stroke-linejoin:miter;stroke-opacity:1;stroke-miterlimit:4;stroke-dasharray:4,4;stroke-dashoffset:0" />
    <path
       inkscape:connector-curvature="0"
       id="path3574"
       d="m 404.06102,492.73767 0,-324.25896"
       style="fill:none;stroke:#ffffff;stroke-width:1;stroke-linecap:butt;stroke-linejoin:miter;stroke-opacity:1;stroke-miterlimit:4;stroke-dasharray:4,4;stroke-dashoffset:0" />
    <path
       inkscape:connector-curvature="0"
       id="path3578"
       d="m 417.02479,245.01862 c 12.47456,-22.54648 31.32237,-44.74015 57.93153,-49.71392"
       style="fill:none;stroke:#ffffff;stroke-width:1px;stroke-linecap:butt;stroke-linejoin:miter;stroke-opacity:1" />
    <path
       sodipodi:nodetypes="ccc"
       inkscape:connector-curvature="0"
       id="path3616"
       d="m 348,224.06466 c 4.54152,-26.31103 25.83119,-48.96271 51.48276,-55.77989 l 4.39445,0.72445"
       style="fill:none;stroke:#ffffff;stroke-width:1px;stroke-linecap:butt;stroke-linejoin:miter;stroke-opacity:1" />
    <path
       inkscape:connector-curvature="0"
       id="path3634"
       d="m 348,224.06466 c 24.25459,-3.149 55.9178,-3.25746 69.43517,21.36475"
       style="fill:none;stroke:#ffffff;stroke-width:1px;stroke-linecap:butt;stroke-linejoin:miter;stroke-opacity:1" />
    <path
       inkscape:connector-curvature="0"
       id="path3651"
       d="m 403.87721,168.59831 c 25.82764,-1.61632 56.41103,3.66644 71.07911,27.52775"
       style="fill:none;stroke:#ffffff;stroke-width:1px;stroke-linecap:butt;stroke-linejoin:miter;stroke-opacity:1" />
    <path
       inkscape:connector-curvature="0"
       id="path4437"
       d="m 352.60095,519.00226 c 0.18831,-0.15767 11.80827,-5.8892 25.82213,-12.73672 l 25.47975,-12.45004 6.29357,0 c 4.26475,0 6.42792,0.33112 6.71035,1.02715 0.33204,0.81832 0.56618,0.81587 1.1516,-0.0121 0.57108,-0.80767 6.37534,-0.99077 26.04802,-0.82172 l 25.31322,0.21752 -24.95832,11.71934 c -13.72707,6.44564 -25.23565,11.71495 -25.57461,11.70957 -0.33896,-0.005 -0.61629,-0.74933 -0.61629,-1.65323 0,-0.9039 -0.36978,-1.64345 -0.82173,-1.64345 -0.45194,0 -0.82172,1.10933 -0.82172,2.46517 l 0,2.46517 -32.18418,0 c -17.7013,0 -32.03011,-0.129 -31.84179,-0.28667 z m 65.66942,-9.98487 c 0,-1.12987 -0.36978,-2.05431 -0.82173,-2.05431 -0.45194,0 -0.82172,0.92444 -0.82172,2.05431 0,1.12987 0.36978,2.05431 0.82172,2.05431 0.45195,0 0.82173,-0.92444 0.82173,-2.05431 z m 0,-7.80638 c 0,-1.35584 -0.36978,-2.46517 -0.82173,-2.46517 -0.45194,0 -0.82172,1.10933 -0.82172,2.46517 0,1.35585 0.36978,2.46517 0.82172,2.46517 0.45195,0 0.82173,-1.10932 0.82173,-2.46517 z"
       style="fill:#add8e6;stroke:none;stroke-width:0.82172376000000003;stroke-miterlimit:4;stroke-opacity:1;stroke-dasharray:3.28689491999999994, 3.28689491999999994;stroke-dashoffset:0;fill-opacity:1;opacity:0.59999999999999998" />
    <path
       inkscape:connector-curvature="0"
       id="path4439"
       d="m 415.75387,241.03955 c -1.80227,-3.36758 -9.60077,-10.04669 -14.78757,-12.66498 -2.6071,-1.31606 -7.82285,-3.23567 -11.59055,-4.2658 -6.08796,-1.66451 -8.69865,-1.87153 -23.45761,-1.86003 l -16.60725,0.0129 0.47092,-2.06723 c 1.13124,-4.96599 6.17953,-16.0291 9.79825,-21.47242 8.51085,-12.80214 22.52595,-23.69573 36.28192,-28.20102 4.82791,-1.58121 7.61736,-1.12926 7.61736,1.23418 0,0.87344 0.36978,1.58807 0.82172,1.58807 0.45195,0 0.82173,-0.92444 0.82173,-2.05431 0,-2.03589 0.0645,-2.05417 7.19008,-2.03925 18.02918,0.0377 34.54836,4.26552 46.12661,11.80525 6.01045,3.91399 14.6809,12.59915 13.55215,13.57516 -0.39604,0.34246 -2.38407,1.09674 -4.41784,1.67619 -16.50572,4.70272 -35.21644,21.18831 -47.83881,42.14968 l -2.83987,4.71602 -1.14124,-2.13243 z m -10.63108,-14.28426 c 0,-1.35585 -0.36978,-2.46517 -0.82173,-2.46517 -0.45194,0 -0.82172,1.10932 -0.82172,2.46517 0,1.35584 0.36978,2.46517 0.82172,2.46517 0.45195,0 0.82173,-1.10933 0.82173,-2.46517 z m 0,-8.21724 c 0,-1.35584 -0.36978,-2.46517 -0.82173,-2.46517 -0.45194,0 -0.82172,1.10933 -0.82172,2.46517 0,1.35584 0.36978,2.46517 0.82172,2.46517 0.45195,0 0.82173,-1.10933 0.82173,-2.46517 z m 0,-7.80638 c 0,-1.12987 -0.36978,-2.05431 -0.82173,-2.05431 -0.45194,0 -0.82172,0.92444 -0.82172,2.05431 0,1.12987 0.36978,2.05431 0.82172,2.05431 0.45195,0 0.82173,-0.92444 0.82173,-2.05431 z m 0,-7.80637 c 0,-1.35585 -0.36978,-2.46517 -0.82173,-2.46517 -0.45194,0 -0.82172,1.10932 -0.82172,2.46517 0,1.35584 0.36978,2.46517 0.82172,2.46517 0.45195,0 0.82173,-1.10933 0.82173,-2.46517 z m 0,-8.21724 c 0,-1.35584 -0.36978,-2.46517 -0.82173,-2.46517 -0.45194,0 -0.82172,1.10933 -0.82172,2.46517 0,1.35585 0.36978,2.46517 0.82172,2.46517 0.45195,0 0.82173,-1.10932 0.82173,-2.46517 z m 0,-8.21724 c 0,-1.35584 -0.36978,-2.46517 -0.82173,-2.46517 -0.45194,0 -0.82172,1.10933 -0.82172,2.46517 0,1.35585 0.36978,2.46518 0.82172,2.46518 0.45195,0 0.82173,-1.10933 0.82173,-2.46518 z m 0,-7.80637 c 0,-1.12987 -0.36978,-2.05431 -0.82173,-2.05431 -0.45194,0 -0.82172,0.92444 -0.82172,2.05431 0,1.12987 0.36978,2.05431 0.82172,2.05431 0.45195,0 0.82173,-0.92444 0.82173,-2.05431 z"
       style="opacity:0.8;fill:#ffc0cb;fill-opacity:1;stroke:none" />
    <path
       inkscape:connector-curvature="0"
       id="path4441"
       d="m 369.44324,518.49742 -13.90387,-0.44107 24.86821,-12.21614 c 24.74865,-12.15741 24.88859,-12.21339 29.10576,-11.64312 2.33065,0.31516 16.25526,0.56237 30.94357,0.54935 l 26.70602,-0.0237 -4.93034,2.33002 c -34.9807,16.5315 -42.7129,19.824 -43.62524,18.57631 -1.39133,-1.90276 -1.98043,-1.5474 -1.98043,1.19465 l 0,2.46517 -16.63991,-0.17521 c -9.15194,-0.0964 -22.89664,-0.37371 -30.54377,-0.6163 z m 48.82713,-9.48003 c 0,-1.12987 -0.36978,-2.05431 -0.82173,-2.05431 -0.45194,0 -0.82172,0.92444 -0.82172,2.05431 0,1.12987 0.36978,2.05431 0.82172,2.05431 0.45195,0 0.82173,-0.92444 0.82173,-2.05431 z m 0,-7.80638 c 0,-1.35584 -0.36978,-2.46517 -0.82173,-2.46517 -0.45194,0 -0.82172,1.10933 -0.82172,2.46517 0,1.35585 0.36978,2.46517 0.82172,2.46517 0.45195,0 0.82173,-1.10932 0.82173,-2.46517 z"
       style="opacity:0.80000000000000004;fill:#ffc0cb;fill-opacity:1;stroke:#ffc0cb;stroke-opacity:1" />
    <path
       inkscape:connector-curvature="0"
       id="path4443"
       d="m 415.01643,239.37394 c -0.98438,-1.38244 -3.7056,-4.0846 -6.04714,-6.00481 -3.91596,-3.21132 -4.23691,-3.7384 -4.00233,-6.57276 0.14763,-1.78378 -0.1119,-3.08146 -0.61629,-3.08146 -0.47923,0 -0.87133,1.24024 -0.87133,2.7561 l 0,2.7561 -4.11616,-1.96993 c -8.63988,-4.13489 -15.3255,-5.18572 -32.99285,-5.18572 -10.06696,0 -16.30303,-0.30714 -16.30303,-0.80296 0,-1.69135 4.31485,-12.16681 7.09899,-17.23469 7.68512,-13.98901 20.76824,-25.72217 35.38229,-31.73142 6.03752,-2.48261 9.8045,-2.61011 10.5199,-0.35608 0.59175,1.86445 2.05431,2.2286 2.05431,0.51148 0,-2.93187 2.14118,-3.2903 13.81052,-2.31182 21.66807,1.81687 35.14245,6.88484 46.49637,17.48815 3.48631,3.25582 6.04206,6.18259 5.67945,6.50393 -0.36262,0.32133 -3.20542,1.54881 -6.31734,2.72772 -15.40737,5.83692 -30.37219,18.88585 -42.57087,37.12069 -2.72108,4.06753 -5.05256,7.50924 -5.18107,7.64825 -0.1285,0.13901 -1.03904,-0.87834 -2.02342,-2.26077 l 0,0 z m -9.89364,-21.00024 c 0,-1.58181 -0.36978,-2.87603 -0.82173,-2.87603 -0.45194,0 -0.82172,1.29422 -0.82172,2.87603 0,1.58182 0.36978,2.87604 0.82172,2.87604 0.45195,0 0.82173,-1.29422 0.82173,-2.87604 z m 0,-7.80637 c 0,-1.35585 -0.36978,-2.46517 -0.82173,-2.46517 -0.45194,0 -0.82172,1.10932 -0.82172,2.46517 0,1.35584 0.36978,2.46517 0.82172,2.46517 0.45195,0 0.82173,-1.10933 0.82173,-2.46517 z m 0,-7.80638 c 0,-1.58181 -0.36978,-2.87603 -0.82173,-2.87603 -0.45194,0 -0.82172,1.29422 -0.82172,2.87603 0,1.58182 0.36978,2.87604 0.82172,2.87604 0.45195,0 0.82173,-1.29422 0.82173,-2.87604 z m 0,-8.21723 c 0,-1.58182 -0.36978,-2.87604 -0.82173,-2.87604 -0.45194,0 -0.82172,1.29422 -0.82172,2.87604 0,1.58181 0.36978,2.87603 0.82172,2.87603 0.45195,0 0.82173,-1.29422 0.82173,-2.87603 z m 0,-8.21724 c 0,-1.58182 -0.36978,-2.87603 -0.82173,-2.87603 -0.45194,0 -0.82172,1.29421 -0.82172,2.87603 0,1.58182 0.36978,2.87603 0.82172,2.87603 0.45195,0 0.82173,-1.29421 0.82173,-2.87603 z m 0,-7.85487 c 0,-1.46653 -0.34231,-2.30211 -0.82173,-2.00582 -0.45194,0.27932 -0.82172,1.41047 -0.82172,2.51367 0,1.1032 0.36978,2.00581 0.82172,2.00581 0.45195,0 0.82173,-1.13115 0.82173,-2.51366 z"
       style="opacity:0.8;fill:#ffc0cb;fill-opacity:1;stroke:#ffc0cb;stroke-width:0.82172376;stroke-miterlimit:4;stroke-opacity:1;stroke-dasharray:3.28689492, 3.28689492;stroke-dashoffset:0" />
    <path
       inkscape:connector-curvature="0"
       id="path4445"
       d="m 358.4449,518.04097 c -1.43948,-0.20907 0.0355,-1.2787 6.14694,-4.4576 4.42248,-2.30038 8.51029,-4.18251 9.08402,-4.18251 0.57373,0 1.04315,-0.36978 1.04315,-0.82172 0,-0.45195 0.22891,-0.59282 0.50869,-0.31304 0.27977,0.27977 1.04914,-0.0318 1.70969,-0.69232 0.66056,-0.66056 1.54097,-0.9909 1.95649,-0.7341 0.41551,0.2568 0.75547,0.0535 0.75547,-0.45181 0,-0.50529 0.36978,-0.69018 0.82173,-0.41086 0.45194,0.27932 0.82172,0.0546 0.82172,-0.49932 0,-0.55395 0.23731,-0.76987 0.52735,-0.47982 0.29004,0.29004 3.61803,-1.15738 7.39551,-3.21649 3.77749,-2.05911 6.87383,-3.43656 6.88075,-3.061 0.007,0.37556 0.31143,0.21196 0.67669,-0.36356 0.36525,-0.57553 1.43275,-1.19444 2.37222,-1.37536 0.93947,-0.18093 2.76118,-0.86305 4.04823,-1.51583 1.28706,-0.65279 3.07965,-1.05672 3.98355,-0.89764 1.5451,0.27193 8.40321,0.28747 19.72137,0.0447 2.71169,-0.0582 12.69563,-0.005 22.18654,0.1171 l 17.2562,0.22287 -2.87571,1.53073 c -1.58164,0.84191 -3.15318,1.35925 -3.49232,1.14965 -0.33915,-0.2096 -0.61663,0.0323 -0.61663,0.53762 0,0.5053 -0.36977,0.69019 -0.82172,0.41087 -0.45195,-0.27932 -0.82172,-0.0546 -0.82172,0.49932 0,0.55394 -0.2459,0.76127 -0.54644,0.46073 -0.30055,-0.30055 -2.10074,0.36443 -4.00043,1.47773 -1.8997,1.11329 -3.68756,1.79059 -3.97304,1.50512 -0.28548,-0.28548 -0.51905,-0.0658 -0.51905,0.48812 0,0.55394 -0.36978,0.77864 -0.82173,0.49932 -0.45195,-0.27932 -0.82172,-0.0546 -0.82172,0.49932 0,0.55394 -0.24135,0.76582 -0.53633,0.47084 -0.29499,-0.29499 -2.51365,0.59496 -4.93035,1.97766 -2.4167,1.3827 -4.39401,2.27015 -4.39401,1.97211 0,-0.29804 -2.40354,0.80224 -5.3412,2.44508 -2.93766,1.64283 -5.34121,2.73871 -5.34121,2.43527 0,-0.30343 -0.55466,-0.0914 -1.23258,0.47127 -0.67792,0.56262 -1.23259,0.81471 -1.23259,0.5602 0,-0.25451 -1.002,0.0571 -2.22668,0.69247 -1.96683,1.02041 -2.40545,0.99344 -3.75855,-0.2311 -0.84252,-0.76247 -1.46072,-1.02692 -1.37376,-0.58765 0.087,0.43926 0.11431,1.64878 0.0608,2.68782 l -0.0973,1.88917 -28.14404,-0.23913 c -15.47922,-0.13152 -28.99631,-0.36291 -30.03798,-0.5142 z m 59.82547,-8.72857 c 0,-1.1032 -0.36978,-2.23435 -0.82173,-2.51367 -0.47941,-0.29629 -0.82172,0.53929 -0.82172,2.00582 0,1.38251 0.36978,2.51366 0.82172,2.51366 0.45195,0 0.82173,-0.90261 0.82173,-2.00581 z m 0,-8.26573 c 0,-1.58182 -0.36978,-2.87604 -0.82173,-2.87604 -0.45194,0 -0.82172,1.29422 -0.82172,2.87604 0,1.58182 0.36978,2.87603 0.82172,2.87603 0.45195,0 0.82173,-1.29421 0.82173,-2.87603 z"
       style="opacity:0.8;fill:#ffc0cb;fill-opacity:1;stroke:#ffc0cb;stroke-width:0.82172376;stroke-miterlimit:4;stroke-opacity:1;stroke-dasharray:3.28689492, 3.28689492;stroke-dashoffset:0" />
    <g
       id="g4506"
       style="fill:#ffffff"
       transform="matrix(0.52927641,0,0,0.52927641,537.2834,41.598121)">
      <g
         word-spacing="normal"
         letter-spacing="normal"
         font-size-adjust="none"
         font-stretch="normal"
         font-weight="normal"
         font-variant="normal"
         font-style="normal"
         stroke-miterlimit="10.433"
         xml:space="preserve"
         transform="matrix(1.0629921,0,0,-1.0629921,-186.02362,789.27165)"
         id="g4508"
         style="font-style:normal;font-variant:normal;font-weight:normal;font-stretch:normal;letter-spacing:normal;word-spacing:normal;text-anchor:start;fill:#ffffff;fill-opacity:1;fill-rule:evenodd;stroke:#000000;stroke-linecap:butt;stroke-linejoin:miter;stroke-miterlimit:10.43299961;stroke-opacity:1;stroke-dasharray:none;stroke-dashoffset:0"><path
           id="path4510"
           d="m 462.14,410.34 0.25,0.27 0.24,0.25 0.24,0.25 0.23,0.24 0.22,0.23 0.22,0.22 0.21,0.22 0.2,0.21 0.2,0.2 0.2,0.19 0.19,0.19 0.19,0.19 0.18,0.17 0.19,0.18 0.35,0.33 0.34,0.32 0.33,0.3 0.33,0.29 0.32,0.29 0.65,0.56 0.33,0.29 0.33,0.28 c 0,0.05 3.08,2.69 4.88,4.49 4.73,4.64 5.83,7.03 5.83,7.21 0,0.5 -0.46,0.5 -0.55,0.5 -0.35,0 -0.5,-0.09 -0.75,-0.54 -1.49,-2.39 -2.53,-3.19 -3.74,-3.19 -1.2,0 -1.79,0.75 -2.54,1.59 -0.94,1.16 -1.78,2.14 -3.44,2.14 -3.73,0 -6.02,-4.62 -6.02,-5.67 0,-0.25 0.14,-0.54 0.6,-0.54 0.45,0 0.54,0.25 0.64,0.54 0.95,2.3 3.84,2.35 4.23,2.35 1.05,0 2,-0.36 3.14,-0.75 2,-0.75 2.55,-0.75 3.85,-0.75 -1.8,-2.14 -5.99,-5.74 -6.92,-6.53 l -4.49,-4.18 c -3.39,-3.34 -5.14,-6.18 -5.14,-6.53 0,-0.5 0.5,-0.5 0.59,-0.5 0.41,0 0.5,0.1 0.8,0.64 1.16,1.75 2.64,3.1 4.24,3.1 1.15,0 1.65,-0.46 2.89,-1.89 0.86,-1.05 1.75,-1.85 3.18,-1.85 4.94,0 7.83,6.33 7.83,7.67 0,0.25 -0.2,0.5 -0.59,0.5 -0.46,0 -0.55,-0.29 -0.71,-0.65 -1.14,-3.24 -4.32,-4.17 -5.98,-4.17 -0.98,0 -1.89,0.29 -2.94,0.64 -1.68,0.64 -2.43,0.84 -3.48,0.84 -0.1,0 -0.89,0 -1.35,-0.14 z"
           style="fill:#ffffff;stroke-width:0"
           inkscape:connector-curvature="0" /><path
           id="path4512"
           d="m 528.99,422.5 0.14,0 0.15,0 0.14,0 0.07,0.01 0.08,0 0.07,0.01 0.07,0.01 0.07,0.01 0.07,0.01 0.07,0.01 0.06,0.02 0.07,0.02 0.06,0.02 0.06,0.02 0.06,0.03 0.06,0.03 0.05,0.04 0.05,0.03 0.05,0.05 0.04,0.04 0.04,0.05 0.02,0.03 0.02,0.03 0.01,0.02 0.02,0.03 0.01,0.03 0.01,0.04 0.02,0.03 0.01,0.04 0.01,0.03 0.01,0.04 0,0.04 0.01,0.04 0,0.04 0.01,0.04 0,0.04 0,0.05 c 0,1 -0.95,1 -1.64,1 H 499.2 c -0.71,0 -1.65,0 -1.65,-1 0,-0.98 0.94,-0.98 1.69,-0.98 z"
           style="fill:#ffffff;stroke-width:0"
           inkscape:connector-curvature="0" /><path
           id="path4514"
           d="m 529.04,412.82 0.06,0 0.07,0 0.14,0.01 0.14,0 0.07,0 0.07,0.01 0.07,0.01 0.06,0 0.07,0.01 0.07,0.02 0.07,0.01 0.06,0.02 0.07,0.02 0.06,0.02 0.06,0.02 0.05,0.03 0.06,0.03 0.05,0.04 0.05,0.04 0.05,0.04 0.04,0.05 0.02,0.02 0.02,0.03 0.02,0.02 0.02,0.03 0.01,0.03 0.02,0.03 0.01,0.03 0.01,0.03 0.02,0.04 0.01,0.03 0.01,0.04 0.01,0.04 0,0.04 0.01,0.04 0,0.04 0.01,0.04 0,0.05 0,0.04 c 0,1 -0.95,1 -1.69,1 h -29.75 c -0.75,0 -1.69,0 -1.69,-1 0,-1 0.94,-1 1.65,-1 z"
           style="fill:#ffffff;stroke-width:0"
           inkscape:connector-curvature="0" /><path
           id="path4516"
           d="m 565.59,426.12 h 4.29 c 1,0 1.5,0 1.5,1 0,0.55 -0.5,0.55 -1.35,0.55 h -4.14 l 1.05,5.69 c 0.2,1.04 0.9,4.57 1.2,5.17 0.45,0.95 1.3,1.7 2.34,1.7 0.19,0 1.49,0 2.44,-0.91 -2.19,-0.18 -2.69,-1.93 -2.69,-2.68 0,-1.14 0.89,-1.74 1.85,-1.74 1.3,0 2.73,1.1 2.73,2.99 0,2.29 -2.29,3.43 -4.33,3.43 -1.7,0 -4.84,-0.89 -6.32,-5.82 -0.3,-1.05 -0.46,-1.55 -1.64,-7.83 h -3.44 c -0.96,0 -1.5,0 -1.5,-0.94 0,-0.61 0.45,-0.61 1.39,-0.61 h 3.3 l -3.75,-19.67 c -0.9,-4.83 -1.74,-9.38 -4.33,-9.38 -0.21,0 -1.44,0 -2.39,0.91 2.29,0.14 2.73,1.94 2.73,2.69 0,1.14 -0.89,1.75 -1.84,1.75 -1.3,0 -2.74,-1.1 -2.74,-3 0,-2.24 2.19,-3.44 4.24,-3.44 2.73,0 4.73,2.94 5.62,4.84 1.6,3.14 2.75,9.16 2.8,9.52 z"
           style="fill:#ffffff;stroke-width:0"
           inkscape:connector-curvature="0" /><path
           id="path4518"
           d="m 593.56,394.25 0,0.02 0,0.03 0,0.01 -0.01,0.02 0,0.01 0,0.02 -0.01,0.01 -0.01,0.02 -0.01,0.02 -0.01,0.02 -0.01,0.02 -0.01,0.03 -0.02,0.02 -0.02,0.03 -0.02,0.03 -0.02,0.03 -0.03,0.03 -0.03,0.04 -0.01,0.02 -0.02,0.02 -0.02,0.02 -0.02,0.02 -0.01,0.02 -0.02,0.03 -0.03,0.02 -0.02,0.02 -0.02,0.03 -0.02,0.02 -0.03,0.03 -0.02,0.03 -0.03,0.03 -0.03,0.03 -0.03,0.03 -0.03,0.03 -0.03,0.03 -0.03,0.03 -0.03,0.04 -0.04,0.03 -0.03,0.04 -0.04,0.03 -0.04,0.04 -0.03,0.04 c -6.22,6.28 -7.82,15.69 -7.82,23.31 0,8.67 1.89,17.35 8.02,23.56 0.64,0.61 0.64,0.71 0.64,0.86 0,0.35 -0.19,0.49 -0.49,0.49 -0.5,0 -4.98,-3.38 -7.92,-9.7 -2.55,-5.49 -3.14,-11.02 -3.14,-15.21 0,-3.89 0.55,-9.9 3.28,-15.54 2.99,-6.13 7.28,-9.36 7.78,-9.36 0.3,0 0.49,0.14 0.49,0.5 z"
           style="fill:#ffffff;stroke-width:0"
           inkscape:connector-curvature="0" /><path
           id="path4520"
           d="m 613.03,421.25 0.03,0.13 0.04,0.15 0.04,0.16 0.04,0.18 0.06,0.19 0.06,0.21 0.06,0.22 0.08,0.22 0.08,0.23 0.08,0.24 0.1,0.25 0.1,0.24 0.11,0.25 0.12,0.25 0.13,0.25 0.14,0.25 0.15,0.24 0.15,0.24 0.17,0.23 0.18,0.22 0.18,0.22 0.2,0.2 0.21,0.19 0.22,0.18 0.23,0.16 0.25,0.14 0.13,0.07 0.13,0.06 0.13,0.05 0.13,0.05 0.14,0.05 0.15,0.04 0.14,0.03 0.15,0.03 0.15,0.02 0.16,0.02 0.16,0.01 0.16,0 c 0.25,0 1.44,0 2.48,-0.64 -1.39,-0.25 -2.39,-1.5 -2.39,-2.69 0,-0.79 0.55,-1.75 1.89,-1.75 1.1,0 2.69,0.89 2.69,2.89 0,2.6 -2.94,3.28 -4.62,3.28 -2.9,0 -4.64,-2.64 -5.24,-3.78 -1.25,3.28 -3.94,3.78 -5.37,3.78 -5.19,0 -8.03,-6.42 -8.03,-7.67 0,-0.5 0.5,-0.5 0.6,-0.5 0.4,0 0.55,0.11 0.64,0.55 1.69,5.28 4.99,6.53 6.68,6.53 0.95,0 2.68,-0.44 2.68,-3.33 0,-1.54 -0.84,-4.89 -2.68,-11.86 -0.8,-3.09 -2.53,-5.18 -4.74,-5.18 -0.29,0 -1.44,0 -2.48,0.65 1.25,0.24 2.34,1.28 2.34,2.69 0,1.34 -1.09,1.73 -1.84,1.73 -1.5,0 -2.75,-1.29 -2.75,-2.89 0,-2.28 2.5,-3.28 4.69,-3.28 3.29,0 5.07,3.49 5.23,3.78 0.59,-1.84 2.39,-3.78 5.37,-3.78 5.15,0 7.99,6.42 7.99,7.67 0,0.5 -0.45,0.5 -0.61,0.5 -0.44,0 -0.55,-0.2 -0.64,-0.54 -1.64,-5.33 -5.03,-6.53 -6.63,-6.53 -1.95,0 -2.75,1.59 -2.75,3.29 0,1.1 0.3,2.19 0.86,4.38 z"
           style="fill:#ffffff;stroke-width:0"
           inkscape:connector-curvature="0" /><path
           id="path4522"
           d="m 634.94,406.25 -0.01,0.3 -0.01,0.3 -0.01,0.29 -0.03,0.28 -0.03,0.27 -0.04,0.26 -0.04,0.26 -0.06,0.24 -0.05,0.24 -0.07,0.23 -0.07,0.22 -0.08,0.21 -0.08,0.2 -0.09,0.19 -0.09,0.19 -0.1,0.17 -0.11,0.16 -0.11,0.16 -0.12,0.14 -0.12,0.13 -0.13,0.13 -0.14,0.11 -0.13,0.1 -0.15,0.1 -0.15,0.08 -0.15,0.07 -0.16,0.06 -0.16,0.05 -0.17,0.04 -0.17,0.03 -0.18,0.01 -0.18,0.01 c -1.64,0 -2.64,-1.25 -2.64,-2.64 0,-1.34 1,-2.64 2.64,-2.64 0.59,0 1.25,0.2 1.75,0.64 0.14,0.11 0.2,0.16 0.25,0.16 0.05,0 0.09,-0.05 0.09,-0.75 0,-3.69 -1.73,-6.68 -3.39,-8.32 -0.54,-0.54 -0.54,-0.65 -0.54,-0.79 0,-0.36 0.25,-0.55 0.5,-0.55 0.54,0 4.53,3.83 4.53,9.66 z"
           style="fill:#ffffff;stroke-width:0"
           inkscape:connector-curvature="0" /><path
           id="path4524"
           d="m 671.12,425.18 0.01,0.04 0.01,0.03 0.01,0.06 0.02,0.05 0.01,0.06 0.02,0.05 0.01,0.04 0.01,0.05 0.01,0.04 0.01,0.04 0.01,0.04 0.01,0.04 0,0.04 0.01,0.03 0.01,0.03 0,0.03 0.01,0.03 0,0.03 0,0.03 0.01,0.05 0,0.06 0.01,0.05 0,0.05 0,0.05 0,0.03 0,0.03 0,0.03 0,0.03 c 0,0.91 -0.69,1.35 -1.44,1.35 -0.5,0 -1.3,-0.3 -1.75,-1.05 -0.09,-0.25 -0.5,-1.78 -0.69,-2.69 -0.36,-1.29 -0.7,-2.64 -1,-3.98 l -2.25,-8.97 c -0.18,-0.75 -2.33,-4.23 -5.62,-4.23 -2.53,0 -3.09,2.18 -3.09,4.03 0,2.29 0.85,5.39 2.54,9.76 0.8,2.05 1,2.6 1,3.6 0,2.23 -1.59,4.07 -4.09,4.07 -4.74,0 -6.58,-7.21 -6.58,-7.67 0,-0.5 0.5,-0.5 0.61,-0.5 0.5,0 0.55,0.11 0.8,0.91 1.34,4.69 3.32,6.17 5.03,6.17 0.39,0 1.25,0 1.25,-1.59 0,-1.25 -0.5,-2.53 -0.86,-3.49 -1.99,-5.28 -2.89,-8.12 -2.89,-10.47 0,-4.42 3.14,-5.92 6.07,-5.92 1.96,0 3.65,0.85 5.04,2.24 -0.64,-2.58 -1.24,-5.03 -3.24,-7.68 -1.3,-1.68 -3.18,-3.14 -5.48,-3.14 -0.69,0 -2.94,0.16 -3.78,2.1 0.79,0 1.45,0 2.14,0.61 0.5,0.43 1,1.09 1,2.03 0,1.55 -1.35,1.75 -1.85,1.75 -1.14,0 -2.79,-0.8 -2.79,-3.24 0,-2.5 2.2,-4.34 5.28,-4.34 5.14,0 10.26,4.55 11.67,10.17 z"
           style="fill:#ffffff;stroke-width:0"
           inkscape:connector-curvature="0" /><path
           id="path4526"
           d="m 687.57,418.65 0,0.37 -0.01,0.39 -0.01,0.39 -0.01,0.41 -0.04,0.84 -0.06,0.88 -0.08,0.92 -0.11,0.95 -0.13,0.97 -0.17,1.01 -0.19,1.02 -0.23,1.03 -0.27,1.05 -0.3,1.06 -0.35,1.07 -0.4,1.07 -0.21,0.53 -0.22,0.53 -0.24,0.53 -0.25,0.53 c -2.99,6.12 -7.27,9.36 -7.77,9.36 -0.29,0 -0.5,-0.19 -0.5,-0.49 0,-0.15 0,-0.25 0.94,-1.15 4.89,-4.92 7.74,-12.85 7.74,-23.27 0,-8.51 -1.85,-17.28 -8.04,-23.56 -0.64,-0.59 -0.64,-0.7 -0.64,-0.84 0,-0.3 0.21,-0.5 0.5,-0.5 0.5,0 4.97,3.39 7.93,9.71 2.53,5.47 3.12,11 3.12,15.19 z"
           style="fill:#ffffff;stroke-width:0"
           inkscape:connector-curvature="0" /></g>    </g>
    <g
       id="g4666"
       style="fill:#f9f9f9"
       transform="matrix(0.64748792,0,0,0.64748792,-165.11227,356.45523)">
      <g
         id="g4668"
         transform="matrix(1.0629921,0,0,-1.0629921,-186.02362,789.27165)"
         xml:space="preserve"
         stroke-miterlimit="10.433"
         font-style="normal"
         font-variant="normal"
         font-weight="normal"
         font-stretch="normal"
         font-size-adjust="none"
         letter-spacing="normal"
         word-spacing="normal"
         style="font-style:normal;font-variant:normal;font-weight:normal;font-stretch:normal;letter-spacing:normal;word-spacing:normal;text-anchor:start;fill:#f9f9f9;fill-opacity:1;fill-rule:evenodd;stroke:#000000;stroke-linecap:butt;stroke-linejoin:miter;stroke-miterlimit:10.43299961;stroke-opacity:1;stroke-dasharray:none;stroke-dashoffset:0"><path
           d="m 472.16,421.25 0.03,0.13 0.04,0.15 0.04,0.16 0.04,0.18 0.06,0.19 0.06,0.21 0.06,0.22 0.07,0.22 0.08,0.23 0.09,0.24 0.1,0.25 0.1,0.24 0.11,0.25 0.12,0.25 0.13,0.25 0.14,0.25 0.15,0.24 0.15,0.24 0.17,0.23 0.18,0.22 0.18,0.22 0.2,0.2 0.21,0.19 0.22,0.18 0.23,0.16 0.25,0.14 0.12,0.07 0.13,0.06 0.14,0.05 0.13,0.05 0.14,0.05 0.14,0.04 0.15,0.03 0.15,0.03 0.15,0.02 0.16,0.02 0.16,0.01 0.16,0 c 0.25,0 1.44,0 2.48,-0.64 -1.39,-0.25 -2.39,-1.5 -2.39,-2.69 0,-0.79 0.55,-1.75 1.89,-1.75 1.1,0 2.69,0.89 2.69,2.89 0,2.6 -2.94,3.28 -4.63,3.28 -2.89,0 -4.64,-2.64 -5.23,-3.78 -1.25,3.28 -3.94,3.78 -5.37,3.78 -5.19,0 -8.04,-6.42 -8.04,-7.67 0,-0.5 0.5,-0.5 0.61,-0.5 0.39,0 0.55,0.11 0.64,0.55 1.69,5.28 4.99,6.53 6.68,6.53 0.95,0 2.68,-0.44 2.68,-3.33 0,-1.54 -0.84,-4.89 -2.68,-11.86 -0.8,-3.09 -2.54,-5.18 -4.74,-5.18 -0.3,0 -1.44,0 -2.48,0.65 1.25,0.24 2.34,1.28 2.34,2.69 0,1.34 -1.09,1.73 -1.84,1.73 -1.5,0 -2.75,-1.29 -2.75,-2.89 0,-2.28 2.5,-3.28 4.68,-3.28 3.3,0 5.08,3.49 5.24,3.78 0.59,-1.84 2.39,-3.78 5.37,-3.78 5.14,0 7.99,6.42 7.99,7.67 0,0.5 -0.45,0.5 -0.61,0.5 -0.44,0 -0.55,-0.2 -0.64,-0.54 -1.64,-5.33 -5.03,-6.53 -6.63,-6.53 -1.95,0 -2.75,1.59 -2.75,3.29 0,1.1 0.3,2.19 0.86,4.38 z"
           id="path4670"
           style="fill:#f9f9f9;stroke-width:0"
           inkscape:connector-curvature="0" /></g>    </g>
    <g
       id="g4816"
       style="fill:#f9f9f9"
       transform="matrix(0.64748792,0,0,0.64748792,698.32271,172.84457)">
      <g
         word-spacing="normal"
         letter-spacing="normal"
         font-size-adjust="none"
         font-stretch="normal"
         font-weight="normal"
         font-variant="normal"
         font-style="normal"
         stroke-miterlimit="10.433"
         xml:space="preserve"
         transform="matrix(1.0629921,0,0,-1.0629921,-186.02362,789.27165)"
         id="g4818"
         style="font-style:normal;font-variant:normal;font-weight:normal;font-stretch:normal;letter-spacing:normal;word-spacing:normal;text-anchor:start;fill:#f9f9f9;fill-opacity:1;fill-rule:evenodd;stroke:#000000;stroke-linecap:butt;stroke-linejoin:miter;stroke-miterlimit:10.43299961;stroke-opacity:1;stroke-dasharray:none;stroke-dashoffset:0"><path
           id="path4820"
           d="m 479.74,425.18 0.01,0.04 0.01,0.03 0.01,0.06 0.02,0.05 0.01,0.06 0.01,0.05 0.02,0.04 0.01,0.05 0.01,0.04 0.01,0.04 0,0.04 0.01,0.04 0.01,0.04 0.01,0.03 0,0.03 0.01,0.03 0,0.03 0.01,0.03 0,0.03 0.01,0.05 0,0.06 0,0.05 0,0.05 0.01,0.05 0,0.03 0,0.03 0,0.03 0,0.03 c 0,0.91 -0.69,1.35 -1.44,1.35 -0.5,0 -1.3,-0.3 -1.75,-1.05 -0.1,-0.25 -0.5,-1.78 -0.69,-2.69 -0.36,-1.29 -0.7,-2.64 -1,-3.98 l -2.25,-8.97 c -0.19,-0.75 -2.33,-4.23 -5.62,-4.23 -2.54,0 -3.1,2.18 -3.1,4.03 0,2.29 0.86,5.39 2.55,9.76 0.8,2.05 1,2.6 1,3.6 0,2.23 -1.59,4.07 -4.09,4.07 -4.74,0 -6.58,-7.21 -6.58,-7.67 0,-0.5 0.5,-0.5 0.61,-0.5 0.5,0 0.54,0.11 0.79,0.91 1.35,4.69 3.33,6.17 5.03,6.17 0.4,0 1.25,0 1.25,-1.59 0,-1.25 -0.5,-2.53 -0.85,-3.49 -1.99,-5.28 -2.9,-8.12 -2.9,-10.47 0,-4.42 3.15,-5.92 6.08,-5.92 1.96,0 3.64,0.85 5.03,2.24 -0.64,-2.58 -1.23,-5.03 -3.23,-7.68 -1.3,-1.68 -3.19,-3.14 -5.48,-3.14 -0.69,0 -2.94,0.16 -3.79,2.1 0.8,0 1.46,0 2.14,0.61 0.5,0.43 1,1.09 1,2.03 0,1.55 -1.34,1.75 -1.84,1.75 -1.14,0 -2.8,-0.8 -2.8,-3.24 0,-2.5 2.21,-4.34 5.29,-4.34 5.14,0 10.26,4.55 11.67,10.17 z"
           style="fill:#f9f9f9;stroke-width:0"
           inkscape:connector-curvature="0" /></g>    </g>
    <path
       inkscape:connector-curvature="0"
       id="path5504"
       d="m 282.05389,334.06151 c -32.17595,-1.40067 -49.60697,-5.70433 -75.29286,-18.5896 -11.61097,-5.82461 -28.08277,-16.93182 -36.44934,-24.5784 -6.53893,-5.9762 -7.2387,-8.51055 -3.73217,-13.51682 1.00614,-1.43647 1.56266,-3.63159 1.23671,-4.87804 -0.43397,-1.65949 -0.12857,-2.0882 1.14058,-1.60118 1.02949,0.39506 2.05705,-0.17874 2.53075,-1.41317 0.44734,-1.16577 0.23726,-2.26504 -0.47846,-2.5036 -0.76752,-0.25585 0.18884,-3.04306 2.40008,-6.99473 32.87779,-58.75548 123.80565,-99.50071 245.68761,-110.09386 16.95069,-1.47324 29.63839,-1.77047 54.61836,-1.27954 46.31577,0.91024 55.64665,2.50153 97.1072,16.56071 61.05235,20.70271 85.88517,34.48426 100.57853,55.81838 4.20292,6.10245 4.27091,6.36 2.10657,7.97988 -2.12333,1.58918 -2.04414,1.71369 1.56447,2.4602 2.09053,0.43247 4.04501,1.18115 4.34326,1.66374 1.11129,1.79808 -2.05984,14.74705 -5.2611,21.48318 -5.01361,10.5497 -10.05875,15.55774 -25.14217,24.95724 -47.99453,29.9087 -79.30366,39.53338 -139.85293,42.99192 -30.90149,1.76508 -33.70069,1.67131 -33.70069,-1.12882 0,-1.27831 -0.52294,-2.32419 -1.16209,-2.32419 -0.63915,0 -1.1621,1.01384 -1.1621,2.25298 0,2.71887 -0.25491,2.75713 -35.44383,5.31868 -14.06132,1.02358 -27.91928,2.07751 -30.79546,2.34206 -2.87618,0.26455 -16.64815,1.36903 -30.60437,2.4544 -21.87346,1.70109 -25.52161,1.7456 -26.43762,0.32258 -0.87274,-1.35579 -1.2404,-1.37546 -2.05726,-0.11005 -0.54703,0.8474 -3.03101,1.74457 -5.51994,1.9937 -10.01487,1.00247 -41.68457,1.21933 -60.22173,0.41238 l 0,-3e-5 z m 67.89837,-9.17624 c 0,-1.2783 -0.52294,-2.32418 -1.16209,-2.32418 -0.63915,0 -1.16209,1.04588 -1.16209,2.32418 0,1.27831 0.52294,2.32419 1.16209,2.32419 0.63915,0 1.16209,-1.04588 1.16209,-2.32419 z m 68.56348,0 c 0,-1.2783 -0.52294,-2.32418 -1.16209,-2.32418 -0.63915,0 -1.16209,1.04588 -1.16209,2.32418 0,1.27831 0.52294,2.32419 1.16209,2.32419 0.63915,0 1.16209,-1.04588 1.16209,-2.32419 z m -14.33757,-3.7768 c -0.32238,-0.79894 -0.58615,-0.14526 -0.58615,1.45262 0,1.59788 0.26377,2.25155 0.58615,1.45261 0.32237,-0.79893 0.32237,-2.10629 0,-2.90523 z m -54.22591,-4.35785 c 0,-1.2783 -0.52294,-2.32418 -1.16209,-2.32418 -0.63915,0 -1.16209,1.04588 -1.16209,2.32418 0,1.27831 0.52294,2.32419 1.16209,2.32419 0.63915,0 1.16209,-1.04588 1.16209,-2.32419 z m 68.56348,0 c 0,-1.2783 -0.52294,-2.32418 -1.16209,-2.32418 -0.63915,0 -1.16209,1.04588 -1.16209,2.32418 0,1.27831 0.52294,2.32419 1.16209,2.32419 0.63915,0 1.16209,-1.04588 1.16209,-2.32419 z m -14.33757,-3.7768 c -0.32238,-0.79894 -0.58615,-0.14526 -0.58615,1.45262 0,1.59788 0.26377,2.25155 0.58615,1.45261 0.32237,-0.79893 0.32237,-2.10629 0,-2.90523 z m 71.28012,0.87157 c 0,-1.59788 -0.52294,-2.90523 -1.16209,-2.90523 -1.29826,0 -1.59288,3.83021 -0.38736,5.03573 1.28102,1.28102 1.54945,0.91193 1.54945,-2.1305 z m -125.50603,-4.64837 c 0,-1.59788 -0.52294,-2.90523 -1.16209,-2.90523 -0.63915,0 -1.16209,1.30735 -1.16209,2.90523 0,1.59788 0.52294,2.90523 1.16209,2.90523 0.63915,0 1.16209,-1.30735 1.16209,-2.90523 z m 68.56348,0 c 0,-1.59788 -0.52294,-2.90523 -1.16209,-2.90523 -0.63915,0 -1.16209,1.30735 -1.16209,2.90523 0,1.59788 0.52294,2.90523 1.16209,2.90523 0.63915,0 1.16209,-1.30735 1.16209,-2.90523 z m -14.30189,-3.75469 c -0.29463,-1.13068 -0.55508,-0.48695 -0.57877,1.4305 -0.0237,1.91746 0.21739,2.84255 0.53572,2.05578 0.31832,-0.78677 0.33769,-2.3556 0.0431,-3.48628 l -6e-5,0 z m 71.24444,0.19983 c 0,-1.68662 -0.503,-2.66294 -1.16209,-2.2556 -0.63915,0.39501 -1.1621,1.73323 -1.1621,2.97381 0,1.24059 0.52295,2.2556 1.1621,2.2556 0.63915,0 1.16209,-1.33822 1.16209,-2.97381 z m -125.50603,-4.57979 c 0,-1.59788 -0.52294,-2.90523 -1.16209,-2.90523 -0.63915,0 -1.16209,1.30735 -1.16209,2.90523 0,1.59788 0.52294,2.90523 1.16209,2.90523 0.63915,0 1.16209,-1.30735 1.16209,-2.90523 z m 68.56348,0 c 0,-1.59788 -0.52294,-2.90523 -1.16209,-2.90523 -0.63915,0 -1.16209,1.30735 -1.16209,2.90523 0,1.59788 0.52294,2.90523 1.16209,2.90523 0.63915,0 1.16209,-1.30735 1.16209,-2.90523 z m -14.30189,-3.75469 c -0.29463,-1.13068 -0.55508,-0.48695 -0.57877,1.4305 -0.0237,1.91746 0.21739,2.84255 0.53572,2.05578 0.31832,-0.78677 0.33769,-2.3556 0.0431,-3.48628 l -6e-5,0 z m 71.24444,0.19983 c 0,-1.68662 -0.503,-2.66294 -1.16209,-2.2556 -0.63915,0.39501 -1.1621,1.73323 -1.1621,2.97381 0,1.24059 0.52295,2.2556 1.1621,2.2556 0.63915,0 1.16209,-1.33822 1.16209,-2.97381 z m -125.50603,-4.57979 c 0,-1.59788 -0.52294,-2.90523 -1.16209,-2.90523 -0.63915,0 -1.16209,1.30735 -1.16209,2.90523 0,1.59788 0.52294,2.90523 1.16209,2.90523 0.63915,0 1.16209,-1.30735 1.16209,-2.90523 z m 68.56348,0 c 0,-1.59788 -0.52294,-2.90523 -1.16209,-2.90523 -0.63915,0 -1.16209,1.30735 -1.16209,2.90523 0,1.59788 0.52294,2.90523 1.16209,2.90523 0.63915,0 1.16209,-1.30735 1.16209,-2.90523 z m -14.30189,-3.75469 c -0.29463,-1.13068 -0.55508,-0.48695 -0.57877,1.4305 -0.0237,1.91746 0.21739,2.84255 0.53572,2.05578 0.31832,-0.78677 0.33769,-2.3556 0.0431,-3.48628 l -6e-5,0 z m 71.24444,0.84946 c 0,-1.2783 -0.52294,-2.32419 -1.16209,-2.32419 -0.63915,0 -1.1621,1.04589 -1.1621,2.32419 0,1.2783 0.52295,2.32418 1.1621,2.32418 0.63915,0 1.16209,-1.04588 1.16209,-2.32418 z M 349.95226,285.4427 c 0,-1.24058 -0.52294,-2.5788 -1.16209,-2.97382 -0.65909,-0.40733 -1.16209,0.56899 -1.16209,2.2556 0,1.6356 0.52294,2.97382 1.16209,2.97382 0.63915,0 1.16209,-1.01502 1.16209,-2.2556 z m 68.56348,-0.64963 c 0,-1.59788 -0.52294,-2.90523 -1.16209,-2.90523 -0.63915,0 -1.16209,1.30735 -1.16209,2.90523 0,1.59788 0.52294,2.90523 1.16209,2.90523 0.63915,0 1.16209,-1.30735 1.16209,-2.90523 z m -14.33757,-3.19575 c -0.32238,-0.79894 -0.58615,-0.14527 -0.58615,1.45261 0,1.59788 0.26377,2.25156 0.58615,1.45262 0.32237,-0.79894 0.32237,-2.1063 0,-2.90523 z m 71.28012,0.29052 c 0,-1.2783 -0.52294,-2.32419 -1.16209,-2.32419 -0.63915,0 -1.1621,1.04589 -1.1621,2.32419 0,1.2783 0.52295,2.32418 1.1621,2.32418 0.63915,0 1.16209,-1.04588 1.16209,-2.32418 z m -125.50603,-4.64837 c 0,-1.27831 -0.52294,-2.32419 -1.16209,-2.32419 -0.63915,0 -1.16209,1.04588 -1.16209,2.32419 0,1.2783 0.52294,2.32418 1.16209,2.32418 0.63915,0 1.16209,-1.04588 1.16209,-2.32418 z m 68.56348,0 c 0,-1.27831 -0.52294,-2.32419 -1.16209,-2.32419 -0.63915,0 -1.16209,1.04588 -1.16209,2.32419 0,1.2783 0.52294,2.32418 1.16209,2.32418 0.63915,0 1.16209,-1.04588 1.16209,-2.32418 z m -14.33757,-3.7768 c -0.32238,-0.79894 -0.58615,-0.14527 -0.58615,1.45261 0,1.59788 0.26377,2.25156 0.58615,1.45262 0.32237,-0.79894 0.32237,-2.1063 0,-2.90523 z m 71.28012,0.29052 c 0,-1.2783 -0.52294,-2.32419 -1.16209,-2.32419 -0.63915,0 -1.1621,1.04589 -1.1621,2.32419 0,1.2783 0.52295,2.32418 1.1621,2.32418 0.63915,0 1.16209,-1.04588 1.16209,-2.32418 z m -125.50603,-4.64837 c 0,-1.2783 -0.52294,-2.32419 -1.16209,-2.32419 -0.63915,0 -1.16209,1.04589 -1.16209,2.32419 0,1.2783 0.52294,2.32418 1.16209,2.32418 0.63915,0 1.16209,-1.04588 1.16209,-2.32418 z m 68.56348,0 c 0,-1.2783 -0.52294,-2.32419 -1.16209,-2.32419 -0.63915,0 -1.16209,1.04589 -1.16209,2.32419 0,1.2783 0.52294,2.32418 1.16209,2.32418 0.63915,0 1.16209,-1.04588 1.16209,-2.32418 z m -14.33757,-3.7768 c -0.32238,-0.79894 -0.58615,-0.14527 -0.58615,1.45261 0,1.59788 0.26377,2.25156 0.58615,1.45262 0.32237,-0.79894 0.32237,-2.1063 0,-2.90523 z m 71.28012,0.29052 c 0,-1.2783 -0.52294,-2.32419 -1.16209,-2.32419 -0.63915,0 -1.1621,1.04589 -1.1621,2.32419 0,1.2783 0.52295,2.32418 1.1621,2.32418 0.63915,0 1.16209,-1.04588 1.16209,-2.32418 z m -298.02903,-2.4015 c 1.3627,-2.2049 -0.62476,-2.74898 -2.64866,-0.72508 -1.81163,1.81164 -1.81482,1.96449 -0.0409,1.96449 1.05796,0 2.26827,-0.55774 2.68957,-1.23941 z m 172.523,-2.24687 c 0,-1.2783 -0.52294,-2.32419 -1.16209,-2.32419 -0.63915,0 -1.16209,1.04589 -1.16209,2.32419 0,1.2783 0.52294,2.32418 1.16209,2.32418 0.63915,0 1.16209,-1.04588 1.16209,-2.32418 z m 68.56348,0 c 0,-1.2783 -0.52294,-2.32419 -1.16209,-2.32419 -0.63915,0 -1.16209,1.04589 -1.16209,2.32419 0,1.2783 0.52294,2.32418 1.16209,2.32418 0.63915,0 1.16209,-1.04588 1.16209,-2.32418 z m -14.33757,-3.7768 c -0.32238,-0.79894 -0.58615,-0.14527 -0.58615,1.45261 0,1.59788 0.26377,2.25156 0.58615,1.45262 0.32237,-0.79894 0.32237,-2.1063 0,-2.90523 z m -220.40518,-1.05475 c 0,-0.58338 -1.06053,-0.49311 -2.35674,0.2006 -1.2962,0.6937 -2.03406,1.78338 -1.63968,2.4215 0.79472,1.28587 3.99642,-0.81481 3.99642,-2.6221 z m 291.6853,1.34527 c 0,-1.2783 -0.52294,-2.32419 -1.16209,-2.32419 -0.63915,0 -1.1621,1.04589 -1.1621,2.32419 0,1.2783 0.52295,2.32418 1.1621,2.32418 0.63915,0 1.16209,-1.04588 1.16209,-2.32418 z m -284.71275,-5.97568 c 0,-0.68505 -0.82718,-0.92812 -1.83818,-0.54016 -1.011,0.38795 -2.05688,0.70537 -2.32418,0.70537 -0.26731,0 -0.48601,0.80282 -0.48601,1.78403 0,1.42392 0.46914,1.53295 2.32419,0.54016 1.2783,-0.68413 2.32418,-1.80436 2.32418,-2.4894 z m 159.20672,1.32731 c 0,-1.2783 -0.52294,-2.32419 -1.16209,-2.32419 -0.63915,0 -1.16209,1.04589 -1.16209,2.32419 0,1.2783 0.52294,2.32418 1.16209,2.32418 0.63915,0 1.16209,-1.04588 1.16209,-2.32418 z m 68.56348,0 c 0,-1.2783 -0.52294,-2.32419 -1.16209,-2.32419 -0.63915,0 -1.16209,1.04589 -1.16209,2.32419 0,1.2783 0.52294,2.32418 1.16209,2.32418 0.63915,0 1.16209,-1.04588 1.16209,-2.32418 z m -14.33757,-3.7768 c -0.32238,-0.79894 -0.58615,-0.14527 -0.58615,1.45261 0,1.59788 0.26377,2.25156 0.58615,1.45262 0.32237,-0.79894 0.32237,-2.1063 0,-2.90523 z m 71.28012,0.87157 c 0,-1.59788 -0.52294,-2.90524 -1.16209,-2.90524 -1.29826,0 -1.59288,3.83022 -0.38736,5.03574 1.28102,1.28102 1.54945,0.91192 1.54945,-2.1305 z M 197.2867,247.36838 c -0.95787,-0.95786 -4.21697,0.57646 -4.21697,1.98527 0,0.85944 0.74311,0.84176 2.42371,-0.0577 1.33305,-0.71343 2.14001,-1.58084 1.79326,-1.92759 l 0,0 z m 152.66556,-2.66751 c 0,-1.2783 -0.52294,-2.32419 -1.16209,-2.32419 -0.63915,0 -1.16209,1.04589 -1.16209,2.32419 0,1.2783 0.52294,2.32418 1.16209,2.32418 0.63915,0 1.16209,-1.04588 1.16209,-2.32418 z m 70.14634,-2.22094 c 6.13117,-12.80245 27.68355,-36.12813 33.38155,-36.12813 1.22241,0 2.22256,-0.51413 2.22256,-1.14251 0,-1.58449 10.25675,-6.6309 15.46191,-7.60739 2.50225,-0.46943 4.29367,-1.47882 4.29367,-2.41931 0,-0.88759 -3.09979,-4.7136 -6.88841,-8.50222 -8.06526,-8.06526 -19.46245,-13.9734 -32.62275,-16.91117 -11.57742,-2.58442 -34.97018,-3.08179 -41.53221,-0.88305 -13.90081,4.65777 -28.71069,16.43689 -37.36287,29.71677 -2.62658,4.03143 -4.7756,7.8904 -4.7756,8.57549 0,0.68509 -1.43809,1.64745 -3.19576,2.13859 -2.38776,0.66719 -2.68157,1.0144 -1.16209,1.37328 2.42523,0.5728 2.4209,0.49538 0.44378,7.91949 l -1.56229,5.86646 18.13591,-0.056 c 18.6975,-0.0577 25.25042,0.97564 34.11469,5.37972 3.37007,1.67436 4.3841,2.88415 4.47368,5.33727 0.11342,3.10722 0.13182,3.11504 0.89677,0.3821 0.75242,-2.68816 0.98158,-2.56687 6.27567,3.32144 3.02211,3.36131 5.49475,6.57786 5.49475,7.14788 0,2.39845 1.89163,0.69968 3.90704,-3.50871 l 0,-1e-5 z m -215.9412,2.14362 c 0.42129,-0.68167 0.527,-1.47839 0.23491,-1.77049 -0.81054,-0.81053 -4.35002,0.79414 -4.35002,1.97214 0,1.45469 3.18798,1.29848 4.11511,-0.20165 z m 200.05645,-3.09632 c -0.29463,-1.13068 -0.55508,-0.48695 -0.57877,1.4305 -0.0237,1.91745 0.21739,2.84255 0.53572,2.05578 0.31832,-0.78678 0.33769,-2.3556 0.0431,-3.48628 l -6e-5,0 z m 71.24444,0.26841 c 0,-1.59788 -0.52294,-2.90524 -1.16209,-2.90524 -1.29826,0 -1.59288,3.83022 -0.38736,5.03574 1.28102,1.28102 1.54945,0.91192 1.54945,-2.1305 z m -264.32834,-0.65837 c 0.4213,-0.68167 0.52701,-1.47839 0.23491,-1.77049 -0.81053,-0.81053 -4.35002,0.79414 -4.35002,1.97214 0,1.45469 3.18798,1.29848 4.11511,-0.20165 z m 7.50582,-3.62971 c 0,-1.54278 -3.77141,-0.6706 -4.32791,1.00088 -0.28828,0.86588 0.41668,1.1337 1.93737,0.73603 1.3148,-0.34383 2.39054,-1.12543 2.39054,-1.73691 z m 131.31649,-0.3603 c 0,-1.59787 -0.52294,-2.90523 -1.16209,-2.90523 -0.63915,0 -1.16209,1.30736 -1.16209,2.90523 0,1.59788 0.52294,2.90524 1.16209,2.90524 0.63915,0 1.16209,-1.30736 1.16209,-2.90524 z m -124.37758,-1.69774 c 0.94021,-0.59462 1.40727,-1.38333 1.03789,-1.7527 -0.91544,-0.91544 -4.49052,0.5428 -4.49052,1.83164 0,1.32453 1.27967,1.29528 3.45263,-0.0789 l 0,1e-5 z m 249.88361,-1.85712 c 0,-1.68662 -0.503,-2.66294 -1.16209,-2.2556 -0.63915,0.39502 -1.1621,1.73323 -1.1621,2.97382 0,1.24058 0.52295,2.2556 1.1621,2.2556 0.63915,0 1.16209,-1.33822 1.16209,-2.97382 z m -242.91106,-0.46707 c 0.94022,-0.59461 1.40727,-1.38332 1.0379,-1.7527 -0.91544,-0.91544 -4.49052,0.5428 -4.49052,1.83164 0,1.32454 1.27967,1.29528 3.45262,-0.0789 l 0,0 z m 9.3304,-3.75242 c 0,-1.54278 -3.77142,-0.6706 -4.32791,1.00088 -0.28828,0.86588 0.41667,1.1337 1.93736,0.73603 1.3148,-0.34383 2.39055,-1.12543 2.39055,-1.73691 z m 108.07463,-0.3603 c 0,-1.59787 -0.52294,-2.90523 -1.16209,-2.90523 -0.63915,0 -1.16209,1.30736 -1.16209,2.90523 0,1.59788 0.52294,2.90524 1.16209,2.90524 0.63915,0 1.16209,-1.30736 1.16209,-2.90524 z m -100.03682,-1.30645 c 0.26631,-0.24018 0.17499,-0.7459 -0.20295,-1.12384 -1.00147,-1.00147 -5.51068,0.63987 -5.51068,2.00587 0,1.02039 4.34852,0.34909 5.71363,-0.88203 z m 419.07909,-0.35937 c -0.9404,-1.52159 -4.11511,-1.64698 -4.11511,-0.16252 0,0.59228 0.91515,1.28044 2.03367,1.52923 2.53602,0.56409 3.0615,0.21906 2.08144,-1.36671 l 0,0 z m -193.53624,-1.88904 c 0,-1.68662 -0.503,-2.66294 -1.16209,-2.2556 -0.63915,0.39502 -1.1621,1.73323 -1.1621,2.97382 0,1.24058 0.52295,2.2556 1.1621,2.2556 0.63915,0 1.16209,-1.33822 1.16209,-2.97382 z m -219.00672,0.57232 c 0.4213,-0.68168 0.52701,-1.4784 0.23492,-1.7705 -0.81054,-0.81053 -4.35003,0.79414 -4.35003,1.97214 0,1.4547 3.18799,1.29848 4.11511,-0.20164 z m 405.52262,-1.08478 c -0.39502,-0.63915 -1.73324,-1.16209 -2.97382,-1.16209 -1.24058,0 -2.2556,0.52294 -2.2556,1.16209 0,0.63915 1.33822,1.16209 2.97382,1.16209 1.68662,0 2.66294,-0.503 2.2556,-1.16209 z m -396.8547,-1.16209 c 0,-0.63915 -1.04589,-1.1621 -2.32419,-1.1621 -1.2783,0 -2.32419,0.52295 -2.32419,1.1621 0,0.63915 1.04589,1.16209 2.32419,1.16209 1.2783,0 2.32419,-0.52294 2.32419,-1.16209 z m 389.3011,0.12433 c 0,-1.28884 -3.57509,-2.74708 -4.49053,-1.83164 -0.36937,0.36937 0.0977,1.15809 1.0379,1.7527 2.17296,1.37422 3.45263,1.40347 3.45263,0.0789 z M 273.1573,221.89569 c 0.26631,-0.24017 0.17498,-0.7459 -0.20295,-1.12383 -1.00147,-1.00147 -5.51068,0.63986 -5.51068,2.00586 0,1.02039 4.34852,0.3491 5.71363,-0.88203 z m 373.12864,-0.43668 c 0,-0.63915 -1.04588,-1.16209 -2.32419,-1.16209 -1.2783,0 -2.32418,0.52294 -2.32418,1.16209 0,0.63915 1.04588,1.16209 2.32418,1.16209 1.27831,0 2.32419,-0.52294 2.32419,-1.16209 z m -366.05925,-1.16209 c 0,-0.63915 -1.04588,-1.1621 -2.32418,-1.1621 -1.2783,0 -2.32419,0.52295 -2.32419,1.1621 0,0.63915 1.04589,1.16209 2.32419,1.16209 1.2783,0 2.32418,-0.52294 2.32418,-1.16209 z m 359.08669,0.12433 c 0,-1.03795 -2.73264,-2.44852 -4.74342,-2.44852 -1.89898,0 -1.12956,2.13743 0.96662,2.68522 3.34768,0.87484 3.7768,0.84795 3.7768,-0.2367 z M 287.7803,219.13482 c 0.39502,-0.63915 -0.35853,-1.16209 -1.67456,-1.16209 -1.31602,0 -2.39277,0.52294 -2.39277,1.16209 0,0.63916 0.75355,1.1621 1.67455,1.1621 0.92101,0 1.99776,-0.52294 2.39278,-1.1621 z m 187.67799,-1.16209 c 0,-1.2783 -0.52294,-2.32418 -1.16209,-2.32418 -0.63915,0 -1.1621,1.04588 -1.1621,2.32418 0,1.2783 0.52295,2.32419 1.1621,2.32419 0.63915,0 1.16209,-1.04589 1.16209,-2.32419 z m -180.15804,0.0454 c 2.31878,-1.46644 1.09882,-2.43053 -2.03769,-1.61032 -1.40299,0.36689 -2.26444,1.13057 -1.91434,1.69705 0.80368,1.30037 1.79303,1.27866 3.95203,-0.0867 z m 335.29744,-0.0454 c -0.39502,-0.63915 -1.44091,-1.16209 -2.32419,-1.16209 -0.88328,0 -1.92917,0.52294 -2.32419,1.16209 -0.40895,0.6617 0.59185,1.16209 2.32419,1.16209 1.73234,0 2.73314,-0.50039 2.32419,-1.16209 z m -326.06388,-1.8875 c 0.2663,-0.24018 0.17498,-0.7459 -0.20295,-1.12384 -1.00147,-1.00147 -5.51068,0.63987 -5.51068,2.00587 0,1.02039 4.34852,0.34909 5.71363,-0.88203 z m 318.51027,0.72541 c 0,-0.63915 -1.04588,-1.16209 -2.32418,-1.16209 -1.27831,0 -2.32419,0.52294 -2.32419,1.16209 0,0.63915 1.04588,1.16209 2.32419,1.16209 1.2783,0 2.32418,-0.52294 2.32418,-1.16209 z m -311.16517,-2.51331 c -1.13373,-1.13374 -4.92408,-0.12197 -4.92408,1.3144 0,0.48214 1.34398,0.61969 2.98661,0.30568 1.77676,-0.33965 2.56161,-0.99594 1.93747,-1.62008 z m 303.03052,1.35122 c 0,-0.63915 -1.04588,-1.1621 -2.32418,-1.1621 -1.27831,0 -2.32419,0.52295 -2.32419,1.1621 0,0.63915 1.04588,1.16209 2.32419,1.16209 1.2783,0 2.32418,-0.52294 2.32418,-1.16209 z m -6.97256,-1.1621 c 0,-0.63915 -1.30735,-1.16209 -2.90523,-1.16209 -1.59787,0 -2.90523,0.52294 -2.90523,1.16209 0,0.63915 1.30736,1.1621 2.90523,1.1621 1.59788,0 2.90523,-0.52295 2.90523,-1.1621 z m -288.19902,-1.16209 c 0,-1.45601 -1.23326,-1.45601 -3.48628,0 -1.40957,0.91094 -1.24279,1.12991 0.87157,1.1443 1.43809,0.01 2.61471,-0.50515 2.61471,-1.1443 z m 7.5536,0 c 0.39502,-0.63915 -0.35853,-1.16209 -1.67455,-1.16209 -1.31602,0 -2.39277,0.52294 -2.39277,1.16209 0,0.63915 0.75355,1.16209 1.67455,1.16209 0.92101,0 1.99775,-0.52294 2.39277,-1.16209 z m 272.51077,0 c 0,-0.63915 -1.30735,-1.16209 -2.90523,-1.16209 -1.59787,0 -2.90523,0.52294 -2.90523,1.16209 0,0.63915 1.30736,1.16209 2.90523,1.16209 1.59788,0 2.90523,-0.52294 2.90523,-1.16209 z m -263.79507,-1.16209 c 0,-0.63915 -1.04588,-1.16209 -2.32419,-1.16209 -1.2783,0 -2.32418,0.52294 -2.32418,1.16209 0,0.63915 1.04588,1.16209 2.32418,1.16209 1.27831,0 2.32419,-0.52294 2.32419,-1.16209 z m 247.52578,0 c 0,-0.63915 -1.17662,-1.15409 -2.61471,-1.1443 -2.11436,0.0144 -2.28115,0.23336 -0.87157,1.1443 2.25302,1.45601 3.48628,1.45601 3.48628,0 z m 6.57003,-0.15576 c -1.53775,-0.89383 -2.50902,-0.88382 -3.42818,0.0353 -0.93528,0.93529 -0.35438,1.27295 2.14567,1.24717 3.0053,-0.031 3.1635,-0.18917 1.28251,-1.28251 l 0,0 z M 344.1418,211.00018 c 0,-0.63916 -1.30736,-1.1621 -2.90523,-1.1621 -1.59788,0 -2.90523,0.52294 -2.90523,1.1621 0,0.63915 1.30735,1.16209 2.90523,1.16209 1.59787,0 2.90523,-0.52294 2.90523,-1.16209 z m 131.31649,-1.1621 c 0,-1.2783 -0.52294,-2.32418 -1.16209,-2.32418 -0.63915,0 -1.1621,1.04588 -1.1621,2.32418 0,1.2783 0.52295,2.32419 1.1621,2.32419 0.63915,0 1.16209,-1.04589 1.16209,-2.32419 z m 99.93999,1.1621 c 0,-0.63916 -1.04589,-1.1621 -2.32419,-1.1621 -1.2783,0 -2.32419,0.52294 -2.32419,1.1621 0,0.63915 1.04589,1.16209 2.32419,1.16209 1.2783,0 2.32419,-0.52294 2.32419,-1.16209 z m -16.2693,-1.1621 c 0,-0.63915 -1.17662,-1.15408 -2.61471,-1.1443 -2.11436,0.0144 -2.28115,0.23337 -0.87157,1.1443 2.25302,1.45601 3.48628,1.45601 3.48628,0 z m 8.13465,0 c 0,-0.63915 -1.04589,-1.16209 -2.32419,-1.16209 -1.2783,0 -2.32419,0.52294 -2.32419,1.16209 0,0.63915 1.04589,1.1621 2.32419,1.1621 1.2783,0 2.32419,-0.52295 2.32419,-1.1621 z m -23.24186,-1.16209 c 0,-0.63915 -1.43809,-1.15409 -3.19576,-1.1443 -2.49029,0.0139 -2.81095,0.26647 -1.45261,1.1443 2.27367,1.46936 4.64837,1.46936 4.64837,0 z m 8.13465,0 c 0,-0.63915 -1.30736,-1.16209 -2.90523,-1.16209 -1.59788,0 -2.90524,0.52294 -2.90524,1.16209 0,0.63915 1.30736,1.16209 2.90524,1.16209 1.59787,0 2.90523,-0.52294 2.90523,-1.16209 z m -24.40395,-1.16209 c 0,-0.63915 -1.04588,-1.1621 -2.32419,-1.1621 -1.2783,0 -2.32418,0.52295 -2.32418,1.1621 0,0.63915 1.04588,1.16209 2.32418,1.16209 1.27831,0 2.32419,-0.52294 2.32419,-1.16209 z m 8.13465,0 c 0,-0.63915 -1.30736,-1.1621 -2.90523,-1.1621 -1.59788,0 -2.90524,0.52295 -2.90524,1.1621 0,0.63915 1.30736,1.16209 2.90524,1.16209 1.59787,0 2.90523,-0.52294 2.90523,-1.16209 z m -40.67325,-1.1621 c 0,-0.63915 -1.17662,-1.15408 -2.61471,-1.14429 -2.11436,0.0144 -2.28114,0.23336 -0.87157,1.14429 2.25302,1.45602 3.48628,1.45602 3.48628,0 z m 8.13465,0 c 0,-0.63915 -1.04588,-1.16209 -2.32419,-1.16209 -1.2783,0 -2.32418,0.52294 -2.32418,1.16209 0,0.63915 1.04588,1.1621 2.32418,1.1621 1.27831,0 2.32419,-0.52295 2.32419,-1.1621 z m 8.13465,0 c 0,-0.63915 -1.04588,-1.16209 -2.32419,-1.16209 -1.2783,0 -2.32418,0.52294 -2.32418,1.16209 0,0.63915 1.04588,1.1621 2.32418,1.1621 1.27831,0 2.32419,-0.52295 2.32419,-1.1621 z m 7.5536,0 c -0.39502,-0.63915 -1.47177,-1.16209 -2.39277,-1.16209 -0.92101,0 -1.67455,0.52294 -1.67455,1.16209 0,0.63915 1.07675,1.1621 2.39277,1.1621 1.31602,0 2.06957,-0.52295 1.67455,-1.1621 z m -55.19941,-1.16209 c 0,-0.63915 -1.04588,-1.16209 -2.32418,-1.16209 -1.27831,0 -2.32419,0.52294 -2.32419,1.16209 0,0.63915 1.04588,1.16209 2.32419,1.16209 1.2783,0 2.32418,-0.52294 2.32418,-1.16209 z m 8.13465,0 c 0,-0.63915 -1.30735,-1.16209 -2.90523,-1.16209 -1.59788,0 -2.90523,0.52294 -2.90523,1.16209 0,0.63915 1.30735,1.16209 2.90523,1.16209 1.59788,0 2.90523,-0.52294 2.90523,-1.16209 z m 8.13465,0 c 0,-0.63915 -1.04588,-1.16209 -2.32418,-1.16209 -1.54946,0 -2.32419,-0.77473 -2.32419,-2.32419 0,-1.2783 -0.52294,-2.32418 -1.16209,-2.32418 -1.30642,0 -1.51728,2.37058 -0.45672,5.13437 0.76382,1.99048 6.26718,2.58417 6.26718,0.67609 z m 7.55361,0 c -0.39502,-0.63915 -1.73324,-1.16209 -2.97382,-1.16209 -1.24058,0 -2.2556,0.52294 -2.2556,1.16209 0,0.63915 1.33822,1.16209 2.97382,1.16209 1.68661,0 2.66293,-0.503 2.2556,-1.16209 z"
       style="opacity:0.40000000000000002;fill:none;fill-opacity:1;stroke:#ffffff;stroke-width:1.16209279999999993;stroke-miterlimit:4;stroke-opacity:1;stroke-dasharray:4.64837136999999956, 4.64837136999999956;stroke-dashoffset:0" />
    <path
       inkscape:connector-curvature="0"
       id="path5508"
       d="m 292.49758,516.6887 c 1.10597,-3.58526 3.54509,-8.37337 8.28778,-16.2693 l 4.01356,-6.68204 21.31774,0 c 15.91792,0 21.48945,0.36795 21.99562,1.45262 0.54231,1.16209 0.81347,1.16209 1.35578,0 0.51174,-1.09658 6.56427,-1.43638 24.69447,-1.38639 l 24.01659,0.0662 -23.69575,11.84523 c -15.91558,7.95601 -23.86468,11.36828 -24.21027,10.39261 -0.81286,-2.29491 -2.64502,-1.69119 -2.64502,0.87157 0,2.25981 -0.77473,2.32419 -27.96854,2.32419 l -27.96854,0 0.80658,-2.61471 z m 57.45468,-7.84413 c 0,-1.2783 -0.52294,-2.32418 -1.16209,-2.32418 -0.63915,0 -1.16209,1.04588 -1.16209,2.32418 0,1.2783 0.52294,2.32419 1.16209,2.32419 0.63915,0 1.16209,-1.04589 1.16209,-2.32419 z m 0,-8.13465 c 0,-1.2783 -0.52294,-2.32418 -1.16209,-2.32418 -0.63915,0 -1.16209,1.04588 -1.16209,2.32418 0,1.2783 0.52294,2.32419 1.16209,2.32419 0.63915,0 1.16209,-1.04589 1.16209,-2.32419 z"
       style="opacity:0.40000000000000002;fill:none;fill-opacity:1;stroke:#ffffff;stroke-width:1.16209279999999993;stroke-miterlimit:4;stroke-opacity:1;stroke-dasharray:4.64837136999999956, 4.64837136999999956;stroke-dashoffset:0" />
    <path
       inkscape:connector-curvature="0"
       id="path5510"
       d="m 313.4106,484.3365 c 10.6216,-10.79385 31.01648,-23.37292 34.45238,-21.24942 0.65288,0.4035 1.52623,0.18481 1.9408,-0.48597 0.41457,-0.67079 11.73009,-3.61888 25.14559,-6.55132 13.41551,-2.93244 25.27946,-5.53211 26.36433,-5.77704 1.12012,-0.25289 2.19175,0.37955 2.4799,1.46354 0.46081,1.73352 0.5198,1.72963 0.64222,-0.0424 0.0959,-1.38736 1.89798,-2.31005 6.23579,-3.1927 10.84108,-2.20594 36.5606,-5.75055 47.03576,-6.48236 5.60853,-0.39183 11.37394,-0.95307 12.81203,-1.24721 1.79874,-0.36791 2.6147,0.0161 2.6147,1.23047 0,0.97091 0.52295,1.76528 1.1621,1.76528 0.63915,0 1.16209,-0.78441 1.16209,-1.74314 0,-1.46788 2.52317,-1.73355 15.97878,-1.68244 l 15.97877,0.0607 -15.68825,7.94952 c -8.62854,4.37224 -16.13892,7.67705 -16.68974,7.34403 -0.55084,-0.33302 -1.38908,0.0216 -1.86278,0.78808 -1.19633,1.9357 -54.65933,28.07763 -54.65933,26.7269 0,-0.60202 -0.52294,-1.09457 -1.16209,-1.09457 -0.63915,0 -1.16209,0.79121 -1.16209,1.75824 0,0.96703 -2.38052,2.91479 -5.29004,4.32834 -4.55289,2.21196 -5.44105,2.33131 -6.37372,0.85647 -0.91222,-1.44251 -1.08649,-1.39384 -1.10147,0.30764 -0.0166,1.88796 -3.21363,2.02024 -48.47091,2.00549 l -48.45311,-0.0158 6.90829,-7.02032 z m 36.54166,0.68517 c 0,-1.59788 -0.52294,-2.90523 -1.16209,-2.90523 -0.63915,0 -1.16209,1.30735 -1.16209,2.90523 0,1.59788 0.52294,2.90523 1.16209,2.90523 0.63915,0 1.16209,-1.30735 1.16209,-2.90523 z m 54.26159,-3.75469 c -0.29464,-1.13068 -0.55508,-0.48695 -0.57877,1.4305 -0.0237,1.91745 0.21739,2.84256 0.53571,2.05578 0.31833,-0.78677 0.3377,-2.3556 0.0431,-3.48628 l 0,0 z m -54.26159,-4.37996 c 0,-1.59788 -0.52294,-2.90523 -1.16209,-2.90523 -0.63915,0 -1.16209,1.30735 -1.16209,2.90523 0,1.59788 0.52294,2.90523 1.16209,2.90523 0.63915,0 1.16209,-1.30735 1.16209,-2.90523 z m 68.56348,0 c 0,-1.59788 -0.52294,-2.90523 -1.16209,-2.90523 -0.63915,0 -1.16209,1.30735 -1.16209,2.90523 0,1.59788 0.52294,2.90523 1.16209,2.90523 0.63915,0 1.16209,-1.30735 1.16209,-2.90523 z m -14.30189,-3.75469 c -0.29464,-1.13068 -0.55508,-0.48695 -0.57877,1.4305 -0.0237,1.91746 0.21739,2.84256 0.53571,2.05578 0.31833,-0.78677 0.3377,-2.3556 0.0431,-3.48628 l 0,0 z m -54.26159,-3.79892 c 0,-1.2783 -0.52294,-2.32418 -1.16209,-2.32418 -0.63915,0 -1.16209,1.04588 -1.16209,2.32418 0,1.27831 0.52294,2.32419 1.16209,2.32419 0.63915,0 1.16209,-1.04588 1.16209,-2.32419 z m 68.56348,0 c 0,-1.2783 -0.52294,-2.32418 -1.16209,-2.32418 -0.63915,0 -1.16209,1.04588 -1.16209,2.32418 0,1.27831 0.52294,2.32419 1.16209,2.32419 0.63915,0 1.16209,-1.04588 1.16209,-2.32419 z m -14.33757,-3.7768 c -0.32238,-0.79894 -0.58615,-0.14526 -0.58615,1.45262 0,1.59788 0.26377,2.25155 0.58615,1.45261 0.32237,-0.79893 0.32237,-2.10629 0,-2.90523 z m 14.33757,-4.35785 c 0,-1.2783 -0.52294,-2.32418 -1.16209,-2.32418 -0.63915,0 -1.16209,1.04588 -1.16209,2.32418 0,1.27831 0.52294,2.32419 1.16209,2.32419 0.63915,0 1.16209,-1.04588 1.16209,-2.32419 z m -14.33757,-3.7768 c -0.32238,-0.79894 -0.58615,-0.14526 -0.58615,1.45262 0,1.59788 0.26377,2.25155 0.58615,1.45261 0.32237,-0.79893 0.32237,-2.10629 0,-2.90523 z m 14.33757,-4.35785 c 0,-1.2783 -0.52294,-2.32418 -1.16209,-2.32418 -0.63915,0 -1.16209,1.04588 -1.16209,2.32418 0,1.27831 0.52294,2.32419 1.16209,2.32419 0.63915,0 1.16209,-1.04588 1.16209,-2.32419 z m 56.94255,-3.48627 c 0,-1.27831 -0.52294,-2.32419 -1.16209,-2.32419 -0.63915,0 -1.1621,1.04588 -1.1621,2.32419 0,1.2783 0.52295,2.32418 1.1621,2.32418 0.63915,0 1.16209,-1.04588 1.16209,-2.32418 z"
       style="opacity:0.40000000000000002;fill:none;fill-opacity:1;stroke:#ffffff;stroke-width:1.16209279999999993;stroke-miterlimit:4;stroke-opacity:1;stroke-dasharray:4.64837136999999956, 4.64837136999999956;stroke-dashoffset:0" />
    <path
       inkscape:connector-curvature="0"
       id="path5512"
       d="m 420.25888,486.09538 c 5.75236,-2.81795 29.02327,-14.3191 51.71313,-25.55811 l 41.2543,-20.43456 10.45883,0.71726 c 11.44087,0.7846 39.77827,5.04882 42.17128,6.34595 0.88355,0.47892 -17.32387,9.6606 -44.38828,22.38421 -42.40674,19.93639 -45.92387,21.38497 -46.3816,19.10293 -0.489,-2.43795 -0.50638,-2.43566 -1.36866,0.18083 l -0.87337,2.65013 -31.52223,-0.13254 -31.52223,-0.13254 10.45883,-5.12356 z m 55.19941,-4.62857 c 0,-1.68663 -0.503,-2.66295 -1.16209,-2.25561 -0.63915,0.39502 -1.1621,1.73324 -1.1621,2.97382 0,1.24058 0.52295,2.2556 1.1621,2.2556 0.63915,0 1.16209,-1.33822 1.16209,-2.97381 z m 0,-7.48502 c 0,-1.27831 -0.52294,-2.32419 -1.16209,-2.32419 -0.63915,0 -1.1621,1.04588 -1.1621,2.32419 0,1.2783 0.52295,2.32418 1.1621,2.32418 0.63915,0 1.16209,-1.04588 1.16209,-2.32418 z m 0,-8.13465 c 0,-1.27831 -0.52294,-2.32419 -1.16209,-2.32419 -0.63915,0 -1.1621,1.04588 -1.1621,2.32419 0,1.2783 0.52295,2.32418 1.1621,2.32418 0.63915,0 1.16209,-1.04588 1.16209,-2.32418 z"
       style="opacity:0.40000000000000002;fill:none;fill-opacity:1;stroke:#ffffff;stroke-width:1.16209279999999993;stroke-miterlimit:4;stroke-opacity:1;stroke-dasharray:4.64837136999999956, 4.64837136999999956;stroke-dashoffset:0" />
    <g
       id="g3151"
       style="fill:#ffffff"
       transform="matrix(0.41544503,0,0,0.41544503,318.70021,395.81045)">
      <g
         word-spacing="normal"
         letter-spacing="normal"
         font-size-adjust="none"
         font-stretch="normal"
         font-weight="normal"
         font-variant="normal"
         font-style="normal"
         stroke-miterlimit="10.433"
         xml:space="preserve"
         transform="matrix(1.0629921,0,0,-1.0629921,-186.02362,789.27165)"
         id="g3153"
         style="font-style:normal;font-variant:normal;font-weight:normal;font-stretch:normal;letter-spacing:normal;word-spacing:normal;text-anchor:start;fill:#ffffff;fill-opacity:1;fill-rule:evenodd;stroke:#000000;stroke-linecap:butt;stroke-linejoin:miter;stroke-miterlimit:10.43299961;stroke-opacity:1;stroke-dasharray:none;stroke-dashoffset:0"><path
           id="path3155"
           d="m 477.54,440.98 -0.04,0.06 -0.03,0.06 -0.03,0.05 -0.02,0.05 -0.03,0.05 -0.03,0.05 -0.03,0.05 -0.02,0.04 -0.03,0.04 -0.03,0.04 -0.02,0.04 -0.03,0.03 -0.03,0.04 -0.03,0.03 -0.03,0.03 -0.03,0.03 -0.03,0.02 -0.04,0.03 -0.04,0.02 -0.03,0.02 -0.05,0.02 -0.04,0.01 -0.05,0.02 -0.04,0.01 -0.06,0.01 -0.05,0.01 -0.06,0.01 -0.06,0.01 -0.07,0 -0.07,0.01 -0.07,0 -0.04,0 -0.04,0 c -0.85,0 -0.94,-0.25 -1.28,-0.89 l -0.32,-4.09 13.41,-26.91 h -26.86 l 13.45,26.91 0.32,4.09 -16.85,-33.78 c -0.25,-0.45 -0.25,-0.55 -0.25,-0.59 0,-0.41 0.3,-0.41 1.1,-0.41 h 34.58 c 0.79,0 1.09,0 1.09,0.41 0,0.04 0,0.14 -0.25,0.59 z"
           style="fill:#ffffff;stroke-width:0"
           inkscape:connector-curvature="0" /><path
           id="path3157"
           d="m 529.18,440.82 0,0.02 0,0.02 0,0.01 -0.01,0.02 0,0.02 0,0.02 -0.01,0.02 0,0.02 -0.01,0.02 -0.01,0.02 -0.01,0.02 -0.01,0.02 -0.01,0.02 -0.01,0.02 -0.01,0.02 -0.02,0.02 -0.02,0.02 -0.01,0.02 -0.02,0.02 -0.02,0.02 -0.02,0.01 -0.03,0.02 -0.02,0.01 -0.03,0.02 -0.02,0.01 -0.03,0.01 -0.02,0.01 -0.02,0 -0.01,0.01 -0.02,0 -0.02,0 -0.01,0.01 -0.02,0 -0.02,0 -0.02,0 -0.02,0 -0.02,0 -0.02,0 c -0.25,0 -0.31,-0.04 -0.9,-0.75 l -2.39,-2.84 c -1.3,2.34 -3.89,3.59 -7.13,3.59 -6.33,0 -12.3,-5.73 -12.3,-11.76 0,-4.03 2.64,-6.33 5.18,-7.06 l 5.32,-1.41 c 1.85,-0.44 4.6,-1.19 4.6,-5.28 0,-4.49 -4.1,-9.16 -8.97,-9.16 -3.19,0 -8.72,1.1 -8.72,7.27 0,1.2 0.25,2.39 0.3,2.69 0.04,0.2 0.09,0.25 0.09,0.35 0,0.5 -0.34,0.55 -0.59,0.55 -0.25,0 -0.35,-0.05 -0.5,-0.2 -0.21,-0.2 -2.99,-11.56 -2.99,-11.7 0,-0.3 0.25,-0.5 0.55,-0.5 0.25,0 0.3,0.04 0.89,0.75 l 2.45,2.82 c 2.14,-2.89 5.52,-3.57 8.41,-3.57 6.78,0 12.66,6.62 12.66,12.79 0,3.44 -1.69,5.14 -2.44,5.83 -1.14,1.16 -1.89,1.34 -6.33,2.5 -1.09,0.3 -2.89,0.8 -3.34,0.89 -1.35,0.45 -3.03,1.89 -3.03,4.53 0,4.05 3.98,8.28 8.71,8.28 4.14,0 7.18,-2.14 7.18,-7.73 0,-1.59 -0.21,-2.49 -0.21,-2.78 0,-0.05 0,-0.5 0.61,-0.5 0.5,0 0.55,0.15 0.74,1 z"
           style="fill:#ffffff;stroke-width:0"
           inkscape:connector-curvature="0" /><path
           id="path3159"
           d="m 538.94,420.54 0,0.05 -0.01,0.06 0,0.05 -0.01,0.06 -0.01,0.05 -0.02,0.06 -0.01,0.05 -0.02,0.06 -0.03,0.06 -0.02,0.05 -0.03,0.06 -0.03,0.05 -0.03,0.06 -0.04,0.05 -0.03,0.05 -0.05,0.05 -0.04,0.05 -0.05,0.05 -0.05,0.04 -0.05,0.05 -0.06,0.04 -0.06,0.03 -0.06,0.04 -0.06,0.03 -0.07,0.03 -0.07,0.03 -0.08,0.02 -0.08,0.02 -0.08,0.01 -0.08,0.01 -0.09,0.01 -0.09,0 c -0.94,0 -1.95,-0.91 -1.95,-1.92 0,-0.59 0.45,-1.33 1.4,-1.33 1,0 1.96,0.99 1.96,1.92 z"
           style="fill:#ffffff;stroke-width:0"
           inkscape:connector-curvature="0" /><path
           id="path3161"
           d="m 531.83,402.84 -0.06,-0.17 -0.05,-0.17 -0.03,-0.08 -0.02,-0.09 -0.03,-0.08 -0.02,-0.09 -0.02,-0.09 -0.02,-0.09 -0.02,-0.1 -0.01,-0.09 -0.02,-0.1 0,-0.05 -0.01,-0.05 0,-0.06 0,-0.05 0,-0.05 0,-0.06 c 0,-1.64 1.39,-2.95 3.29,-2.95 3.49,0 5.03,4.79 5.03,5.33 0,0.45 -0.45,0.45 -0.56,0.45 -0.48,0 -0.53,-0.2 -0.67,-0.59 -0.8,-2.79 -2.33,-4.22 -3.69,-4.22 -0.7,0 -0.87,0.45 -0.87,1.22 0,0.79 0.25,1.46 0.56,2.23 0.34,0.94 0.73,1.87 1.11,2.78 0.31,0.84 1.58,4.02 1.72,4.44 0.09,0.34 0.2,0.76 0.2,1.11 0,1.64 -1.39,2.95 -3.31,2.95 -3.45,0 -5.05,-4.73 -5.05,-5.33 0,-0.45 0.49,-0.45 0.6,-0.45 0.48,0 0.51,0.17 0.62,0.56 0.91,3 2.44,4.25 3.72,4.25 0.56,0 0.87,-0.28 0.87,-1.22 0,-0.79 -0.2,-1.32 -1.07,-3.48 z"
           style="fill:#ffffff;stroke-width:0"
           inkscape:connector-curvature="0" /><path
           id="path3163"
           d="m 556.98,420.54 0,0.06 -0.01,0.06 -0.01,0.05 0,0.06 -0.02,0.06 -0.01,0.06 -0.02,0.05 -0.02,0.06 -0.02,0.06 -0.03,0.05 -0.03,0.06 -0.03,0.05 -0.03,0.06 -0.04,0.05 -0.04,0.05 -0.04,0.05 -0.04,0.05 -0.05,0.04 -0.05,0.05 -0.05,0.04 -0.06,0.04 -0.06,0.03 -0.06,0.04 -0.06,0.03 -0.07,0.02 -0.07,0.03 -0.07,0.02 -0.08,0.02 -0.07,0.01 -0.08,0.01 -0.09,0.01 -0.08,0 c -1.02,0 -1.96,-0.98 -1.96,-1.92 0,-0.56 0.42,-1.33 1.39,-1.33 0.94,0 1.96,0.91 1.96,1.92 z"
           style="fill:#ffffff;stroke-width:0"
           inkscape:connector-curvature="0" /><path
           id="path3165"
           d="m 549.59,397.06 -0.06,-0.23 -0.07,-0.22 -0.07,-0.22 -0.08,-0.21 -0.09,-0.21 -0.09,-0.21 -0.1,-0.21 -0.11,-0.2 -0.11,-0.19 -0.12,-0.19 -0.12,-0.19 -0.12,-0.18 -0.14,-0.17 -0.13,-0.17 -0.15,-0.16 -0.14,-0.15 -0.15,-0.15 -0.16,-0.14 -0.15,-0.13 -0.17,-0.13 -0.16,-0.11 -0.17,-0.11 -0.17,-0.1 -0.18,-0.09 -0.18,-0.08 -0.18,-0.07 -0.18,-0.06 -0.18,-0.05 -0.19,-0.04 -0.19,-0.03 -0.19,-0.02 -0.19,0 c -0.45,0 -0.87,0.06 -1.26,0.2 0.9,0.42 1.18,1.25 1.18,1.78 0,0.83 -0.65,1.28 -1.36,1.28 -1.07,0 -1.98,-0.94 -1.98,-2.04 0,-1.33 1.36,-2.21 3.45,-2.21 2.1,0 6.16,1.25 7.25,5.5 l 3.13,12.49 c 0.11,0.37 0.17,0.68 0.17,1.22 0,1.9 -1.63,3.26 -3.72,3.26 -3.87,0 -6.09,-4.84 -6.09,-5.33 0,-0.45 0.48,-0.45 0.59,-0.45 0.41,0 0.45,0.11 0.69,0.62 0.87,2.04 2.69,4.19 4.7,4.19 0.88,0 1.19,-0.59 1.19,-1.7 0,-0.39 -0.06,-0.88 -0.11,-1.05 z"
           style="fill:#ffffff;stroke-width:0"
           inkscape:connector-curvature="0" /></g>    </g>
  </g>
</svg>
