<?xml version="1.0" encoding="UTF-8" standalone="no"?>
<svg
   xmlns:dc="http://purl.org/dc/elements/1.1/"
   xmlns:cc="http://creativecommons.org/ns#"
   xmlns:rdf="http://www.w3.org/1999/02/22-rdf-syntax-ns#"
   xmlns:svg="http://www.w3.org/2000/svg"
   xmlns="http://www.w3.org/2000/svg"
   xmlns:xlink="http://www.w3.org/1999/xlink"
   xmlns:sodipodi="http://sodipodi.sourceforge.net/DTD/sodipodi-0.dtd"
   xmlns:inkscape="http://www.inkscape.org/namespaces/inkscape"
   width="600"
   height="480"
   viewBox="0 0 600 480"
   id="svg2"
   version="1.1"
   inkscape:version="0.48.3.1 r9886"
   sodipodi:docname="normal-distr.svg">
  <metadata
     id="metadata138">
    <rdf:RDF>
      <cc:Work
         rdf:about="">
        <dc:format>image/svg+xml</dc:format>
        <dc:type
           rdf:resource="http://purl.org/dc/dcmitype/StillImage" />
        <dc:title>Gnuplot</dc:title>
      </cc:Work>
    </rdf:RDF>
  </metadata>
  <defs
     id="defs136">
    <defs
       id="defs11">
      <circle
         stroke-width="0.5"
         r="0.5"
         id="gpDot" />
      <path
         d="M-1,0 h2 M0,-1 v2"
         stroke="currentColor"
         stroke-width="0.222"
         id="gpPt0" />
      <path
         d="M-1,-1 L1,1 M1,-1 L-1,1"
         stroke="currentColor"
         stroke-width="0.222"
         id="gpPt1" />
      <path
         d="M-1,0 L1,0 M0,-1 L0,1 M-1,-1 L1,1 M-1,1 L1,-1"
         stroke="currentColor"
         stroke-width="0.222"
         id="gpPt2" />
      <rect
         height="2"
         width="2"
         y="-1"
         x="-1"
         stroke="currentColor"
         stroke-width="0.222"
         id="gpPt3" />
      <rect
         height="2"
         width="2"
         y="-1"
         x="-1"
         fill="currentColor"
         stroke="currentColor"
         stroke-width="0.222"
         id="gpPt4" />
      <circle
         r="1"
         cy="0"
         cx="0"
         stroke="currentColor"
         stroke-width="0.222"
         id="gpPt5" />
      <use
         stroke="none"
         fill="currentColor"
         id="gpPt6"
         xlink:href="#gpPt5" />
      <path
         d="M0,-1.33 L-1.33,0.67 L1.33,0.67 z"
         stroke="currentColor"
         stroke-width="0.222"
         id="gpPt7" />
      <use
         stroke="none"
         fill="currentColor"
         id="gpPt8"
         xlink:href="#gpPt7" />
      <use
         transform="rotate(180)"
         stroke="currentColor"
         id="gpPt9"
         xlink:href="#gpPt7" />
      <use
         stroke="none"
         fill="currentColor"
         id="gpPt10"
         xlink:href="#gpPt9" />
      <use
         transform="rotate(45)"
         stroke="currentColor"
         id="gpPt11"
         xlink:href="#gpPt3" />
      <use
         stroke="none"
         fill="currentColor"
         id="gpPt12"
         xlink:href="#gpPt11" />
    </defs>
  </defs>
  <sodipodi:namedview
     pagecolor="#000000"
     bordercolor="#666666"
     borderopacity="1"
     objecttolerance="10"
     gridtolerance="10"
     guidetolerance="10"
     inkscape:pageopacity="1"
     inkscape:pageshadow="2"
     inkscape:window-width="1366"
     inkscape:window-height="746"
     id="namedview134"
     showgrid="false"
     inkscape:zoom="0.98333333"
     inkscape:cx="182.36683"
     inkscape:cy="250.50827"
     inkscape:window-x="0"
     inkscape:window-y="22"
     inkscape:window-maximized="0"
     inkscape:current-layer="svg2" />
  <title
     id="title4">Gnuplot</title>
  <desc
     id="desc6">Produced by GNUPLOT 4.6 patchlevel 0 </desc>
  <rect
     style="fill:none;stroke:#ffffff"
     id="rect9"
     height="480"
     width="600"
     y="0"
     x="0" />
  <g
     id="g27"
     style="color:#ffffff;fill:none;stroke:currentColor;stroke-width:1;stroke-linecap:butt;stroke-linejoin:miter" />
  <path
     style="color:#000000;fill:none;stroke:#ffffff;stroke-width:1;stroke-linecap:butt;stroke-linejoin:miter"
     d="m 70.5,444 9,0 m 495.5,0 -9,0 h 0.01"
     id="path31"
     inkscape:connector-curvature="0" />
  <g
     transform="translate(62.2,448.5)"
     style="font-size:15px;text-anchor:end;color:#000000;fill:#ffffff;stroke:none;stroke-width:1;stroke-linecap:butt;stroke-linejoin:miter;font-family:Arial"
     id="g33">
    <text
       style="fill:#ffffff;stroke:none"
       id="text35">0</text>
  </g>
  <path
     style="color:#000000;fill:none;stroke:#ffffff;stroke-width:1;stroke-linecap:butt;stroke-linejoin:miter"
     d="m 70.5,390.6 9,0 m 495.5,0 -9,0 h 0.01"
     id="path37"
     inkscape:connector-curvature="0" />
  <g
     transform="translate(62.2,395.1)"
     style="font-size:15px;text-anchor:end;color:#000000;fill:#ffffff;stroke:none;stroke-width:1;stroke-linecap:butt;stroke-linejoin:miter;font-family:Arial"
     id="g39">
    <text
       style="fill:#ffffff;stroke:none"
       id="text41">0.005</text>
  </g>
  <path
     style="color:#000000;fill:none;stroke:#ffffff;stroke-width:1;stroke-linecap:butt;stroke-linejoin:miter"
     d="m 70.5,337.2 9,0 m 495.5,0 -9,0 h 0.01"
     id="path43"
     inkscape:connector-curvature="0" />
  <g
     transform="translate(62.2,341.7)"
     style="font-size:15px;text-anchor:end;color:#000000;fill:#ffffff;stroke:none;stroke-width:1;stroke-linecap:butt;stroke-linejoin:miter;font-family:Arial"
     id="g45">
    <text
       style="fill:#ffffff;stroke:none"
       id="text47">0.01</text>
  </g>
  <path
     style="color:#000000;fill:none;stroke:#ffffff;stroke-width:1;stroke-linecap:butt;stroke-linejoin:miter"
     d="m 70.5,283.8 9,0 m 495.5,0 -9,0 h 0.01"
     id="path49"
     inkscape:connector-curvature="0" />
  <g
     transform="translate(62.2,288.3)"
     style="font-size:15px;text-anchor:end;color:#000000;fill:#ffffff;stroke:none;stroke-width:1;stroke-linecap:butt;stroke-linejoin:miter;font-family:Arial"
     id="g51">
    <text
       style="fill:#ffffff;stroke:none"
       id="text53">0.015</text>
  </g>
  <path
     style="color:#000000;fill:none;stroke:#ffffff;stroke-width:1;stroke-linecap:butt;stroke-linejoin:miter"
     d="m 70.5,230.3 9,0 m 495.5,0 -9,0 h 0.01"
     id="path55"
     inkscape:connector-curvature="0" />
  <g
     transform="translate(62.2,234.8)"
     style="font-size:15px;text-anchor:end;color:#000000;fill:#ffffff;stroke:none;stroke-width:1;stroke-linecap:butt;stroke-linejoin:miter;font-family:Arial"
     id="g57">
    <text
       style="fill:#ffffff;stroke:none"
       id="text59">0.02</text>
  </g>
  <path
     style="color:#000000;fill:none;stroke:#ffffff;stroke-width:1;stroke-linecap:butt;stroke-linejoin:miter"
     d="m 70.5,176.9 9,0 m 495.5,0 -9,0 h 0.01"
     id="path61"
     inkscape:connector-curvature="0" />
  <g
     transform="translate(62.2,181.4)"
     style="font-size:15px;text-anchor:end;color:#000000;fill:#ffffff;stroke:none;stroke-width:1;stroke-linecap:butt;stroke-linejoin:miter;font-family:Arial"
     id="g63">
    <text
       style="fill:#ffffff;stroke:none"
       id="text65">0.025</text>
  </g>
  <path
     style="color:#000000;fill:none;stroke:#ffffff;stroke-width:1;stroke-linecap:butt;stroke-linejoin:miter"
     d="m 70.5,123.5 9,0 m 495.5,0 -9,0 h 0.01"
     id="path67"
     inkscape:connector-curvature="0" />
  <g
     transform="translate(62.2,128)"
     style="font-size:15px;text-anchor:end;color:#000000;fill:#ffffff;stroke:none;stroke-width:1;stroke-linecap:butt;stroke-linejoin:miter;font-family:Arial"
     id="g69">
    <text
       style="fill:#ffffff;stroke:none"
       id="text71">0.03</text>
  </g>
  <path
     style="color:#000000;fill:none;stroke:#ffffff;stroke-width:1;stroke-linecap:butt;stroke-linejoin:miter"
     d="m 70.5,70.1 9,0 m 495.5,0 -9,0 h 0.01"
     id="path73"
     inkscape:connector-curvature="0" />
  <g
     transform="translate(62.2,74.6)"
     style="font-size:15px;text-anchor:end;color:#000000;fill:#ffffff;stroke:none;stroke-width:1;stroke-linecap:butt;stroke-linejoin:miter;font-family:Arial"
     id="g75">
    <text
       style="fill:#ffffff;stroke:none"
       id="text77">0.035</text>
  </g>
  <path
     style="color:#000000;fill:none;stroke:#ffffff;stroke-width:1;stroke-linecap:butt;stroke-linejoin:miter"
     d="m 70.5,16.7 9,0 m 495.5,0 -9,0 h 0.01"
     id="path79"
     inkscape:connector-curvature="0" />
  <g
     transform="translate(62.2,21.2)"
     style="font-size:15px;text-anchor:end;color:#000000;fill:#ffffff;stroke:none;stroke-width:1;stroke-linecap:butt;stroke-linejoin:miter;font-family:Arial"
     id="g81">
    <text
       style="fill:#ffffff;stroke:none"
       id="text83">0.04</text>
  </g>
  <path
     style="color:#000000;fill:none;stroke:#ffffff;stroke-width:1;stroke-linecap:butt;stroke-linejoin:miter"
     d="m 70.5,444 0,-9 m 0,-418.3 0,9 h 0.01"
     id="path85"
     inkscape:connector-curvature="0" />
  <g
     transform="translate(70.5,466.5)"
     style="font-size:15px;text-anchor:middle;color:#000000;fill:#ffffff;stroke:none;stroke-width:1;stroke-linecap:butt;stroke-linejoin:miter;font-family:Arial"
     id="g87">
    <text
       style="fill:#ffffff;stroke:none"
       id="text89">0</text>
  </g>
  <path
     style="color:#000000;fill:none;stroke:#ffffff;stroke-width:1;stroke-linecap:butt;stroke-linejoin:miter"
     d="m 171.4,444 0,-9 m 0,-418.3 0,9 h 0.01"
     id="path91"
     inkscape:connector-curvature="0" />
  <g
     transform="translate(171.4,466.5)"
     style="font-size:15px;text-anchor:middle;color:#000000;fill:#ffffff;stroke:none;stroke-width:1;stroke-linecap:butt;stroke-linejoin:miter;font-family:Arial"
     id="g93">
    <text
       style="fill:#ffffff;stroke:none"
       id="text95">20</text>
  </g>
  <path
     style="color:#000000;fill:none;stroke:#ffffff;stroke-width:1;stroke-linecap:butt;stroke-linejoin:miter"
     d="m 272.3,444 0,-9 m 0,-418.3 0,9 h 0.01"
     id="path97"
     inkscape:connector-curvature="0" />
  <g
     transform="translate(272.3,466.5)"
     style="font-size:15px;text-anchor:middle;color:#000000;fill:#ffffff;stroke:none;stroke-width:1;stroke-linecap:butt;stroke-linejoin:miter;font-family:Arial"
     id="g99">
    <text
       style="fill:#ffffff;stroke:none"
       id="text101">40</text>
  </g>
  <path
     style="color:#000000;fill:none;stroke:#ffffff;stroke-width:1;stroke-linecap:butt;stroke-linejoin:miter"
     d="m 373.2,444 0,-9 m 0,-418.3 0,9 h 0.01"
     id="path103"
     inkscape:connector-curvature="0" />
  <g
     transform="translate(373.2,466.5)"
     style="font-size:15px;text-anchor:middle;color:#000000;fill:#ffffff;stroke:none;stroke-width:1;stroke-linecap:butt;stroke-linejoin:miter;font-family:Arial"
     id="g105">
    <text
       style="fill:#ffffff;stroke:none"
       id="text107">60</text>
  </g>
  <path
     style="color:#000000;fill:none;stroke:#ffffff;stroke-width:1;stroke-linecap:butt;stroke-linejoin:miter"
     d="m 474.1,444 0,-9 m 0,-418.3 0,9 h 0.01"
     id="path109"
     inkscape:connector-curvature="0" />
  <g
     transform="translate(474.1,466.5)"
     style="font-size:15px;text-anchor:middle;color:#000000;fill:#ffffff;stroke:none;stroke-width:1;stroke-linecap:butt;stroke-linejoin:miter;font-family:Arial"
     id="g111">
    <text
       style="fill:#ffffff;stroke:none"
       id="text113">80</text>
  </g>
  <path
     style="color:#000000;fill:none;stroke:#ffffff;stroke-width:1;stroke-linecap:butt;stroke-linejoin:miter"
     d="m 575,444 0,-9 m 0,-418.3 0,9 h 0.01"
     id="path115"
     inkscape:connector-curvature="0" />
  <g
     transform="translate(575,466.5)"
     style="font-size:15px;text-anchor:middle;color:#000000;fill:#ffffff;stroke:none;stroke-width:1;stroke-linecap:butt;stroke-linejoin:miter;font-family:Arial"
     id="g117">
    <text
       style="fill:#ffffff;stroke:none"
       id="text119">100</text>
  </g>
  <path
     style="color:#000000;fill:none;stroke:#ffffff;stroke-width:1;stroke-linecap:butt;stroke-linejoin:miter"
     d="m 70.5,16.7 0,427.3 504.5,0 0,-427.3 -504.5,0 z m 0,0 h 0.01"
     id="path121"
     inkscape:connector-curvature="0" />
  <g
     id="gnuplot_plot_1"
     style="stroke:#ffc0cb;stroke-opacity:1;stroke-width:2;stroke-miterlimit:4;stroke-dasharray:none">
    <title
       id="title124">gnuplot_plot_1</title>
    <g
       id="g126"
       style="color:#ff0000;fill:none;stroke:#ffc0cb;stroke-width:2;stroke-linecap:butt;stroke-linejoin:miter;stroke-opacity:1;stroke-miterlimit:4;stroke-dasharray:none">
      <path
         inkscape:connector-curvature="0"
         id="path128"
         d="m 70.5,444 5.1,0 5.1,0 5.1,0 5.1,0 5.1,0 5.1,0 5.1,0 5.1,-0.1 5.1,0 5.1,0 5.1,-0.1 5.1,-0.1 5,-0.2 5.1,-0.2 5.1,-0.3 5.1,-0.4 5.1,-0.5 5.1,-0.8 5.1,-1 5.1,-1.3 5.1,-1.8 5.1,-2.2 5.1,-2.8 5.1,-3.6 5.1,-4.5 5.1,-5.6 5.1,-6.7 5.1,-8.1 5.1,-9.6 5.1,-11.4 5.1,-13.1 5.1,-14.9 5.1,-17 5.1,-18.8 5.1,-20.7 5.1,-22.4 5.1,-23.8 5,-25.1 5.1,-25.7 5.1,-26.1 5.1,-25.9 5.1,-25.1 5.1,-23.6 5.1,-21.7 5.1,-19.1 5.1,-16.1 5.1,-12.4 5.1,-8.5 5.1,-4.3 5.1,0 5.1,4.3 5.1,8.5 5.1,12.4 5.1,16.1 5.1,19.1 5.1,21.7 5.1,23.6 5.1,25.1 5.1,25.9 5.1,26.1 5.1,25.7 5,25.1 5.1,23.8 5.1,22.4 5.1,20.7 5.1,18.8 5.1,17 5.1,14.9 5.1,13.1 5.1,11.4 5.1,9.6 5.1,8.1 5.1,6.7 5.1,5.6 5.1,4.5 5.1,3.6 5.1,2.8 5.1,2.2 5.1,1.8 5.1,1.3 5.1,1 5.1,0.8 5.1,0.5 5.1,0.4 5.1,0.3 5.1,0.2 5,0.2 5.1,0.1 5.1,0.1 5.1,0 5.1,0 5.1,0.1 5.1,0 5.1,0 5.1,0 5.1,0 5.1,0 5.1,0 5.1,0 h 0.01"
         style="stroke:#ffc0cb;stroke-opacity:1;stroke-width:2;stroke-miterlimit:4;stroke-dasharray:none" />
    </g>
  </g>
  <g
     id="g130"
     style="color:#000000;fill:none;stroke:#ffffff;stroke-width:1;stroke-linecap:butt;stroke-linejoin:miter">
    <path
       inkscape:connector-curvature="0"
       id="path132"
       d="m 70.5,16.7 0,427.3 504.5,0 0,-427.3 -504.5,0 z m 0,0 h 0.01"
       style="stroke:#ffffff;fill:none" />
  </g>
  <path
     style="fill:none;stroke:#ffc0cb;stroke-width:1px;stroke-linecap:butt;stroke-linejoin:miter;stroke-opacity:1"
     d="m 271.52542,442.37288 0,-251.18644"
     id="path3999"
     inkscape:connector-curvature="0" />
  <path
     style="fill:none;stroke:#ffc0cb;stroke-width:1px;stroke-linecap:butt;stroke-linejoin:miter;stroke-opacity:1"
     d="m 373.22034,443.8983 0,-251.18644"
     id="path3999-5"
     inkscape:connector-curvature="0" />
  <path
     style="opacity:0.40000000000000002;fill:#ffc0cb;fill-opacity:1;stroke:none;stroke-width:2.03389834999999985;stroke-linecap:round;stroke-miterlimit:4;stroke-opacity:1;stroke-dasharray:none;stroke-dashoffset:0"
     d="m 272.9279,436.39004 c -0.35657,-3.77543 -0.65156,-59.92429 -0.65553,-124.77526 l -0.007,-117.91086 4.63523,-23.95355 c 15.28347,-78.980506 26.33747,-122.140231 35.66688,-139.259369 9.20994,-16.8999 16.31831,-13.297474 26.1856,13.270498 7.31723,19.701885 14.27703,48.545524 25.84743,107.120061 l 7.83435,39.66102 -0.26214,126.35593 -0.26213,126.35593 -49.16708,0 -49.16708,0 -0.6483,-6.8644 0,0 z"
     id="path4019"
     inkscape:connector-curvature="0" />
</svg>
