<?xml version="1.0" encoding="UTF-8" standalone="no"?>
<!-- Created with Inkscape (http://www.inkscape.org/) -->

<svg
   xmlns:dc="http://purl.org/dc/elements/1.1/"
   xmlns:cc="http://creativecommons.org/ns#"
   xmlns:rdf="http://www.w3.org/1999/02/22-rdf-syntax-ns#"
   xmlns:svg="http://www.w3.org/2000/svg"
   xmlns="http://www.w3.org/2000/svg"
   xmlns:xlink="http://www.w3.org/1999/xlink"
   xmlns:sodipodi="http://sodipodi.sourceforge.net/DTD/sodipodi-0.dtd"
   xmlns:inkscape="http://www.inkscape.org/namespaces/inkscape"
   width="210mm"
   height="297mm"
   id="svg3175"
   version="1.1"
   inkscape:version="0.48.3.1 r9886"
   sodipodi:docname="新規ドキュメント 2">
  <sodipodi:namedview
     id="base"
     pagecolor="#000000"
     bordercolor="#666666"
     borderopacity="1.0"
     inkscape:pageopacity="0"
     inkscape:pageshadow="2"
     inkscape:zoom="0.98994949"
     inkscape:cx="250.47425"
     inkscape:cy="561.14855"
     inkscape:document-units="px"
     inkscape:current-layer="layer1"
     showgrid="false"
     inkscape:window-width="1366"
     inkscape:window-height="746"
     inkscape:window-x="0"
     inkscape:window-y="22"
     inkscape:window-maximized="0" />
  <defs
     id="defs3177">
    <defs
       id="defs11">
      <circle
         style="stroke-width:0.5"
         sodipodi:ry="0.5"
         sodipodi:rx="0.5"
         sodipodi:cy="0"
         sodipodi:cx="0"
         cy="0"
         cx="0"
         id="gpDot"
         r="0.5" />
      <path
         style="stroke:currentColor;stroke-width:0.222"
         inkscape:connector-curvature="0"
         id="gpPt0"
         d="M -1,0 H 1 M 0,-1 v 2" />
      <path
         style="stroke:currentColor;stroke-width:0.222"
         inkscape:connector-curvature="0"
         id="gpPt1"
         d="M -1,-1 1,1 M 1,-1 -1,1" />
      <path
         style="stroke:currentColor;stroke-width:0.222"
         inkscape:connector-curvature="0"
         id="gpPt2"
         d="M -1,0 1,0 M 0,-1 0,1 m -1,-2 2,2 m -2,0 2,-2" />
      <rect
         style="stroke:currentColor;stroke-width:0.222"
         id="gpPt3"
         x="-1"
         y="-1"
         width="2"
         height="2" />
      <rect
         style="fill:currentColor;stroke:currentColor;stroke-width:0.222"
         id="gpPt4"
         x="-1"
         y="-1"
         width="2"
         height="2" />
      <circle
         style="stroke:currentColor;stroke-width:0.222"
         sodipodi:ry="1"
         sodipodi:rx="1"
         sodipodi:cy="0"
         sodipodi:cx="0"
         id="gpPt5"
         cx="0"
         cy="0"
         r="1" />
      <use
         height="1052.3622"
         width="744.09448"
         y="0"
         x="0"
         style="fill:currentColor;stroke:none"
         xlink:href="#gpPt5"
         id="gpPt6" />
      <path
         style="stroke:currentColor;stroke-width:0.222"
         inkscape:connector-curvature="0"
         id="gpPt7"
         d="m 0,-1.33 -1.33,2 2.66,0 z" />
      <use
         height="1052.3622"
         width="744.09448"
         y="0"
         x="0"
         style="fill:currentColor;stroke:none"
         xlink:href="#gpPt7"
         id="gpPt8" />
      <use
         height="1052.3622"
         width="744.09448"
         y="0"
         x="0"
         style="stroke:currentColor"
         xlink:href="#gpPt7"
         id="gpPt9"
         transform="scale(-1,-1)" />
      <use
         height="1052.3622"
         width="744.09448"
         y="0"
         x="0"
         style="fill:currentColor;stroke:none"
         xlink:href="#gpPt9"
         id="gpPt10" />
      <use
         height="1052.3622"
         width="744.09448"
         y="0"
         x="0"
         style="stroke:currentColor"
         xlink:href="#gpPt3"
         id="gpPt11"
         transform="matrix(0.70710678,0.70710678,-0.70710678,0.70710678,0,0)" />
      <use
         height="1052.3622"
         width="744.09448"
         y="0"
         x="0"
         style="fill:currentColor;stroke:none"
         xlink:href="#gpPt11"
         id="gpPt12" />
    </defs>
  </defs>
  <metadata
     id="metadata3180">
    <rdf:RDF>
      <cc:Work
         rdf:about="">
        <dc:format>image/svg+xml</dc:format>
        <dc:type
           rdf:resource="http://purl.org/dc/dcmitype/StillImage" />
        <dc:title></dc:title>
      </cc:Work>
    </rdf:RDF>
  </metadata>
  <g
     id="layer1"
     inkscape:groupmode="layer"
     inkscape:label="レイヤー 1">
    <rect
       style="fill:none"
       x="65.714279"
       y="240.93361"
       width="600"
       height="480"
       id="rect9" />
    <g
       transform="translate(65.714281,240.93361)"
       style="color:#ffffff;fill:none;stroke:currentColor;stroke-width:1;stroke-linecap:butt;stroke-linejoin:miter"
       id="g27" />
    <path
       id="path31"
       d="m 119.61428,684.93361 9,0 m 512.1,0 -9,0 h 0.01"
       inkscape:connector-curvature="0"
       style="color:#000000;fill:none;stroke:#ffffff;stroke-width:1;stroke-linecap:butt;stroke-linejoin:miter" />
    <g
       id="g33"
       style="font-size:15px;text-anchor:end;color:#000000;fill:#ffffff;stroke:none;stroke-width:1;stroke-linecap:butt;stroke-linejoin:miter;font-family:Arial"
       transform="translate(111.31428,689.43361)">
      <text
         id="text35"
         style="fill:#ffffff;stroke:none">0</text>
    </g>
    <path
       id="path37"
       d="m 119.61428,599.43361 9,0 m 512.1,0 -9,0 h 0.01"
       inkscape:connector-curvature="0"
       style="color:#000000;fill:none;stroke:#ffffff;stroke-width:1;stroke-linecap:butt;stroke-linejoin:miter" />
    <g
       id="g39"
       style="font-size:15px;text-anchor:end;color:#000000;fill:#ffffff;stroke:none;stroke-width:1;stroke-linecap:butt;stroke-linejoin:miter;font-family:Arial"
       transform="translate(111.31428,603.93361)">
      <text
         id="text41"
         style="fill:#ffffff;stroke:none">0.2</text>
    </g>
    <path
       id="path43"
       d="m 119.61428,514.03361 9,0 m 512.1,0 -9,0 h 0.01"
       inkscape:connector-curvature="0"
       style="color:#000000;fill:none;stroke:#ffffff;stroke-width:1;stroke-linecap:butt;stroke-linejoin:miter" />
    <g
       id="g45"
       style="font-size:15px;text-anchor:end;color:#000000;fill:#ffffff;stroke:none;stroke-width:1;stroke-linecap:butt;stroke-linejoin:miter;font-family:Arial"
       transform="translate(111.31428,518.53361)">
      <text
         id="text47"
         style="fill:#ffffff;stroke:none">0.4</text>
    </g>
    <path
       id="path49"
       d="m 119.61428,428.53361 9,0 m 512.1,0 -9,0 h 0.01"
       inkscape:connector-curvature="0"
       style="color:#000000;fill:none;stroke:#ffffff;stroke-width:1;stroke-linecap:butt;stroke-linejoin:miter" />
    <g
       id="g51"
       style="font-size:15px;text-anchor:end;color:#000000;fill:#ffffff;stroke:none;stroke-width:1;stroke-linecap:butt;stroke-linejoin:miter;font-family:Arial"
       transform="translate(111.31428,433.03361)">
      <text
         id="text53"
         style="fill:#ffffff;stroke:none">0.6</text>
    </g>
    <path
       id="path55"
       d="m 119.61428,343.13361 9,0 m 512.1,0 -9,0 h 0.01"
       inkscape:connector-curvature="0"
       style="color:#000000;fill:none;stroke:#ffffff;stroke-width:1;stroke-linecap:butt;stroke-linejoin:miter" />
    <g
       id="g57"
       style="font-size:15px;text-anchor:end;color:#000000;fill:#ffffff;stroke:none;stroke-width:1;stroke-linecap:butt;stroke-linejoin:miter;font-family:Arial"
       transform="translate(111.31428,347.63361)">
      <text
         id="text59"
         style="fill:#ffffff;stroke:none">0.8</text>
    </g>
    <path
       id="path61"
       d="m 119.61428,257.63361 9,0 m 512.1,0 -9,0 h 0.01"
       inkscape:connector-curvature="0"
       style="color:#000000;fill:none;stroke:#ffffff;stroke-width:1;stroke-linecap:butt;stroke-linejoin:miter" />
    <g
       id="g63"
       style="font-size:15px;text-anchor:end;color:#000000;fill:#ffffff;stroke:none;stroke-width:1;stroke-linecap:butt;stroke-linejoin:miter;font-family:Arial"
       transform="translate(111.31428,262.13361)">
      <text
         id="text65"
         style="fill:#ffffff;stroke:none">1</text>
    </g>
    <path
       id="path67"
       d="m 119.61428,684.93361 0,-9 m 0,-418.3 0,9 h 0.01"
       inkscape:connector-curvature="0"
       style="color:#000000;fill:none;stroke:#ffffff;stroke-width:1;stroke-linecap:butt;stroke-linejoin:miter" />
    <g
       id="g69"
       style="font-size:15px;text-anchor:middle;color:#000000;fill:#ffffff;stroke:none;stroke-width:1;stroke-linecap:butt;stroke-linejoin:miter;font-family:Arial"
       transform="translate(119.61428,707.43361)">
      <text
         id="text71"
         style="fill:#ffffff;stroke:none">0</text>
    </g>
    <path
       id="path73"
       d="m 223.81428,684.93361 0,-9 m 0,-418.3 0,9 h 0.01"
       inkscape:connector-curvature="0"
       style="color:#000000;fill:none;stroke:#ffffff;stroke-width:1;stroke-linecap:butt;stroke-linejoin:miter" />
    <g
       id="g75"
       style="font-size:15px;text-anchor:middle;color:#000000;fill:#ffffff;stroke:none;stroke-width:1;stroke-linecap:butt;stroke-linejoin:miter;font-family:Arial"
       transform="translate(223.81428,707.43361)">
      <text
         id="text77"
         style="fill:#ffffff;stroke:none">0.2</text>
    </g>
    <path
       id="path79"
       d="m 328.01428,684.93361 0,-9 m 0,-418.3 0,9 h 0.01"
       inkscape:connector-curvature="0"
       style="color:#000000;fill:none;stroke:#ffffff;stroke-width:1;stroke-linecap:butt;stroke-linejoin:miter" />
    <g
       id="g81"
       style="font-size:15px;text-anchor:middle;color:#000000;fill:#ffffff;stroke:none;stroke-width:1;stroke-linecap:butt;stroke-linejoin:miter;font-family:Arial"
       transform="translate(328.01428,707.43361)">
      <text
         id="text83"
         style="fill:#ffffff;stroke:none">0.4</text>
    </g>
    <path
       id="path85"
       d="m 432.31428,684.93361 0,-9 m 0,-418.3 0,9 h 0.01"
       inkscape:connector-curvature="0"
       style="color:#000000;fill:none;stroke:#ffffff;stroke-width:1;stroke-linecap:butt;stroke-linejoin:miter" />
    <g
       id="g87"
       style="font-size:15px;text-anchor:middle;color:#000000;fill:#ffffff;stroke:none;stroke-width:1;stroke-linecap:butt;stroke-linejoin:miter;font-family:Arial"
       transform="translate(432.31428,707.43361)">
      <text
         id="text89"
         style="fill:#ffffff;stroke:none">0.6</text>
    </g>
    <path
       id="path91"
       d="m 536.51428,684.93361 0,-9 m 0,-418.3 0,9 h 0.01"
       inkscape:connector-curvature="0"
       style="color:#000000;fill:none;stroke:#ffffff;stroke-width:1;stroke-linecap:butt;stroke-linejoin:miter" />
    <g
       id="g93"
       style="font-size:15px;text-anchor:middle;color:#000000;fill:#ffffff;stroke:none;stroke-width:1;stroke-linecap:butt;stroke-linejoin:miter;font-family:Arial"
       transform="translate(536.51428,707.43361)">
      <text
         id="text95"
         style="fill:#ffffff;stroke:none">0.8</text>
    </g>
    <path
       id="path97"
       d="m 640.71428,684.93361 0,-9 m 0,-418.3 0,9 h 0.01"
       inkscape:connector-curvature="0"
       style="color:#000000;fill:none;stroke:#ffffff;stroke-width:1;stroke-linecap:butt;stroke-linejoin:miter" />
    <g
       id="g99"
       style="font-size:15px;text-anchor:middle;color:#000000;fill:#ffffff;stroke:none;stroke-width:1;stroke-linecap:butt;stroke-linejoin:miter;font-family:Arial"
       transform="translate(640.71428,707.43361)">
      <text
         id="text101"
         style="fill:#ffffff;stroke:none">1</text>
    </g>
    <path
       id="path103"
       d="m 119.61428,257.63361 0,427.3 521.1,0 0,-427.3 -521.1,0 z m 0,0 h 0.01"
       inkscape:connector-curvature="0"
       style="color:#000000;fill:none;stroke:#ffffff;stroke-width:1;stroke-linecap:butt;stroke-linejoin:miter" />
    <path
       sodipodi:nodetypes="ccccccccccccccccccccccccccccccccccccccccccccccccccccccccccccccccccccccccccccccccccccccccccccccccccccc"
       inkscape:connector-curvature="0"
       d="m 119.61428,684.93361 5.3,0 5.2,-0.2 5.3,-0.2 5.3,-0.3 5.2,-0.4 5.3,-0.5 5.2,-0.5 5.3,-0.7 5.3,-0.7 5.2,-0.9 5.3,-0.9 5.3,-1 5.2,-1.1 5.3,-1.1 5.3,-1.3 5.2,-1.4 5.3,-1.4 5.2,-1.5 5.3,-1.6 5.3,-1.7 5.2,-1.8 5.3,-1.9 5.3,-2 5.2,-2 5.3,-2.1 5.3,-2.3 5.2,-2.3 5.3,-2.4 5.2,-2.5 5.3,-2.5 5.3,-2.7 5.2,-2.7 5.3,-2.9 5.3,-2.9 5.2,-3 5.3,-3.1 5.3,-3.2 5.2,-3.3 5.3,-3.3 5.2,-3.5 5.3,-3.5 5.3,-3.6 5.2,-3.7 5.3,-3.8 5.3,-3.9 5.2,-4 5.3,-4 5.3,-4.1 5.2,-4.3 5.3,-4.3 5.2,-4.4 5.3,-4.5 5.3,-4.6 5.2,-4.6 5.3,-4.8 5.3,-4.8 5.2,-4.9 5.3,-5.1 5.3,-5.1 5.2,-5.2 5.3,-5.2 5.2,-5.4 5.3,-5.4 5.3,-5.6 5.2,-5.6 5.3,-5.7 5.3,-5.8 5.2,-5.9 5.3,-6 5.3,-6 5.2,-6.2 5.3,-6.2 5.2,-6.3 5.3,-6.4 5.3,-6.5 5.2,-6.6 5.3,-6.7 5.3,-6.7 5.2,-6.9 5.3,-6.9 5.3,-7 5.2,-7.2 5.3,-7.1 5.2,-7.3 5.3,-7.4 5.3,-7.4 5.2,-7.6 5.3,-7.6 5.3,-7.7 5.2,-7.8 5.3,-7.9 5.3,-8 5.2,-8.1 5.3,-8.1 5.2,-8.3 5.3,-8.3 5.3,-8.4 5.2,-8.5 5.3,-8.6 0.01,0"
       id="path114"
       style="color:#ff0000;fill:none;stroke:#ffc0cb;stroke-width:2;stroke-linecap:butt;stroke-linejoin:miter;stroke-opacity:1;stroke-miterlimit:4;stroke-dasharray:none" />
    <g
       transform="translate(65.714281,240.93361)"
       style="color:#000000;fill:none;stroke:#ffffff;stroke-width:1;stroke-linecap:butt;stroke-linejoin:miter"
       id="g116">
      <path
         style="stroke:#ffffff;fill:none"
         inkscape:connector-curvature="0"
         d="m 53.9,16.7 0,427.3 521.1,0 0,-427.3 -521.1,0 z m 0,0 h 0.01"
         id="path118" />
    </g>
    <path
       inkscape:connector-curvature="0"
       id="path4193"
       d="m 120.3666,642.08499 0,-41.57285 4.54568,0 c 2.50013,0 4.54569,-0.45457 4.54569,-1.01016 0,-0.55558 -2.04556,-1.01015 -4.54569,-1.01015 l -4.54568,0 0,-41.92133 0,-41.92133 4.54568,0 c 2.50013,0 4.54569,-0.45457 4.54569,-1.01015 0,-0.55559 -2.04556,-1.01016 -4.54569,-1.01016 l -4.54568,0 0,-41.41625 0,-41.41625 4.54568,0 c 2.50013,0 4.54569,-0.45457 4.54569,-1.01016 0,-0.55558 -2.04556,-1.01015 -4.54569,-1.01015 l -4.54568,0 0,-41.92133 0,-41.92133 4.54568,0 c 2.50013,0 4.54569,-0.45457 4.54569,-1.01015 0,-0.55559 -2.04556,-1.01016 -4.54569,-1.01016 l -4.54568,0 0,-41.41625 0,-41.41625 51.0127,0 51.01271,0 0,4.04061 c 0,2.22233 0.45456,4.04061 1.01015,4.04061 0.55558,0 1.01015,-1.81828 1.01015,-4.04061 l 0,-4.04061 51.51778,0 51.51778,0 0,4.04061 c 0,2.22233 0.45457,4.04061 1.01015,4.04061 0.55559,0 1.01015,-1.81828 1.01015,-4.04061 l 0,-4.04061 51.01271,0 51.0127,0 0,4.04061 c 0,2.22233 0.45457,4.04061 1.01015,4.04061 0.55559,0 1.01016,-1.81828 1.01016,-4.04061 l 0,-4.04061 51.0127,0 51.0127,0 0,4.04061 c 0,2.22233 0.45457,4.04061 1.01016,4.04061 0.55558,0 1.01015,-1.81828 1.01015,-4.04061 l 0,-4.04061 50.03809,0 50.0381,0 -1.19833,2.27284 c -2.71864,5.15643 -22.56086,36.28842 -38.79066,60.86169 C 545.36119,401.37987 495.4037,464.36178 441.10681,519.56664 338.0102,624.38728 237.21107,677.98901 133.75112,683.00849 l -13.38452,0.64936 0,-41.57286 z"
       style="fill:#ffc0cb;stroke:none;stroke-width:2.02030515999999993;stroke-linecap:round;stroke-miterlimit:4;stroke-opacity:1;stroke-dasharray:none;stroke-dashoffset:0;fill-opacity:1;opacity:0.4" />
    <g
       id="g4295"
       style="fill:#ffffff"
       transform="matrix(0.55593848,0,0,0.55593848,317.9526,303.98039)">
      <g
         word-spacing="normal"
         letter-spacing="normal"
         font-size-adjust="none"
         font-stretch="normal"
         font-weight="normal"
         font-variant="normal"
         font-style="normal"
         stroke-miterlimit="10.433"
         xml:space="preserve"
         transform="matrix(1.0629921,0,0,-1.0629921,-186.02362,789.27165)"
         id="content"
         style="font-style:normal;font-variant:normal;font-weight:normal;font-stretch:normal;letter-spacing:normal;word-spacing:normal;text-anchor:start;fill:#ffffff;fill-opacity:1;fill-rule:evenodd;stroke:#000000;stroke-linecap:butt;stroke-linejoin:miter;stroke-miterlimit:10.43299961;stroke-opacity:1;stroke-dasharray:none;stroke-dashoffset:0"><path
           id="path4298"
           d="m 479.74,425.18 0.01,0.04 0.01,0.03 0.01,0.06 0.02,0.05 0.01,0.06 0.01,0.05 0.02,0.04 0.01,0.05 0.01,0.04 0.01,0.04 0,0.04 0.01,0.04 0.01,0.04 0.01,0.03 0,0.03 0.01,0.03 0,0.03 0.01,0.03 0,0.03 0.01,0.05 0,0.06 0,0.05 0,0.05 0.01,0.05 0,0.03 0,0.03 0,0.03 0,0.03 c 0,0.91 -0.69,1.35 -1.44,1.35 -0.5,0 -1.3,-0.3 -1.75,-1.05 -0.1,-0.25 -0.5,-1.78 -0.69,-2.69 -0.36,-1.29 -0.7,-2.64 -1,-3.98 l -2.25,-8.97 c -0.19,-0.75 -2.33,-4.23 -5.62,-4.23 -2.54,0 -3.1,2.18 -3.1,4.03 0,2.29 0.86,5.39 2.55,9.76 0.8,2.05 1,2.6 1,3.6 0,2.23 -1.59,4.07 -4.09,4.07 -4.74,0 -6.58,-7.21 -6.58,-7.67 0,-0.5 0.5,-0.5 0.61,-0.5 0.5,0 0.54,0.11 0.79,0.91 1.35,4.69 3.33,6.17 5.03,6.17 0.4,0 1.25,0 1.25,-1.59 0,-1.25 -0.5,-2.53 -0.85,-3.49 -1.99,-5.28 -2.9,-8.12 -2.9,-10.47 0,-4.42 3.15,-5.92 6.08,-5.92 1.96,0 3.64,0.85 5.03,2.24 -0.64,-2.58 -1.23,-5.03 -3.23,-7.68 -1.3,-1.68 -3.19,-3.14 -5.48,-3.14 -0.69,0 -2.94,0.16 -3.79,2.1 0.8,0 1.46,0 2.14,0.61 0.5,0.43 1,1.09 1,2.03 0,1.55 -1.34,1.75 -1.84,1.75 -1.14,0 -2.8,-0.8 -2.8,-3.24 0,-2.5 2.21,-4.34 5.29,-4.34 5.14,0 10.26,4.55 11.67,10.17 z"
           style="fill:#ffffff;stroke-width:0"
           inkscape:connector-curvature="0" /><path
           id="path4300"
           d="m 529.83,422.5 0.14,0 0.15,0 0.14,0 0.07,0.01 0.08,0 0.07,0.01 0.07,0.01 0.07,0.01 0.07,0.01 0.07,0.01 0.06,0.02 0.07,0.02 0.06,0.02 0.06,0.02 0.06,0.03 0.06,0.03 0.05,0.04 0.05,0.03 0.05,0.05 0.04,0.04 0.04,0.05 0.02,0.03 0.02,0.03 0.01,0.02 0.02,0.03 0.01,0.03 0.01,0.04 0.02,0.03 0.01,0.04 0.01,0.03 0.01,0.04 0,0.04 0.01,0.04 0,0.04 0.01,0.04 0,0.04 0,0.05 c 0,1 -0.95,1 -1.64,1 h -29.84 c -0.71,0 -1.65,0 -1.65,-1 0,-0.98 0.94,-0.98 1.69,-0.98 z"
           style="fill:#ffffff;stroke-width:0"
           inkscape:connector-curvature="0" /><path
           id="path4302"
           d="m 529.88,412.82 0.06,0 0.07,0 0.14,0.01 0.14,0 0.07,0 0.07,0.01 0.06,0.01 0.07,0 0.07,0.01 0.07,0.02 0.07,0.01 0.06,0.02 0.07,0.02 0.06,0.02 0.06,0.02 0.05,0.03 0.06,0.03 0.05,0.04 0.05,0.04 0.05,0.04 0.04,0.05 0.02,0.02 0.02,0.03 0.02,0.02 0.02,0.03 0.01,0.03 0.02,0.03 0.01,0.03 0.01,0.03 0.02,0.04 0.01,0.03 0.01,0.04 0.01,0.04 0,0.04 0.01,0.04 0,0.04 0.01,0.04 0,0.05 0,0.04 c 0,1 -0.95,1 -1.69,1 h -29.75 c -0.75,0 -1.69,0 -1.69,-1 0,-1 0.94,-1 1.65,-1 z"
           style="fill:#ffffff;stroke-width:0"
           inkscape:connector-curvature="0" /><path
           id="path4304"
           d="m 564.8,421.25 0.03,0.13 0.03,0.15 0.04,0.16 0.05,0.18 0.05,0.19 0.06,0.21 0.07,0.22 0.07,0.22 0.08,0.23 0.09,0.24 0.09,0.25 0.11,0.24 0.11,0.25 0.12,0.25 0.13,0.25 0.13,0.25 0.15,0.24 0.16,0.24 0.17,0.23 0.17,0.22 0.19,0.22 0.2,0.2 0.21,0.19 0.22,0.18 0.23,0.16 0.24,0.14 0.13,0.07 0.13,0.06 0.13,0.05 0.14,0.05 0.14,0.05 0.14,0.04 0.15,0.03 0.15,0.03 0.15,0.02 0.15,0.02 0.16,0.01 0.16,0 c 0.25,0 1.44,0 2.49,-0.64 -1.39,-0.25 -2.39,-1.5 -2.39,-2.69 0,-0.79 0.55,-1.75 1.89,-1.75 1.09,0 2.69,0.89 2.69,2.89 0,2.6 -2.94,3.28 -4.63,3.28 -2.89,0 -4.64,-2.64 -5.23,-3.78 -1.25,3.28 -3.94,3.78 -5.38,3.78 -5.19,0 -8.03,-6.42 -8.03,-7.67 0,-0.5 0.5,-0.5 0.61,-0.5 0.39,0 0.55,0.11 0.64,0.55 1.69,5.28 4.99,6.53 6.67,6.53 0.96,0 2.69,-0.44 2.69,-3.33 0,-1.54 -0.84,-4.89 -2.69,-11.86 -0.79,-3.09 -2.53,-5.18 -4.73,-5.18 -0.3,0 -1.44,0 -2.49,0.65 1.25,0.24 2.35,1.28 2.35,2.69 0,1.34 -1.1,1.73 -1.85,1.73 -1.5,0 -2.75,-1.29 -2.75,-2.89 0,-2.28 2.5,-3.28 4.69,-3.28 3.3,0 5.08,3.49 5.24,3.78 0.59,-1.84 2.39,-3.78 5.37,-3.78 5.14,0 7.99,6.42 7.99,7.67 0,0.5 -0.46,0.5 -0.61,0.5 -0.44,0 -0.55,-0.2 -0.65,-0.54 -1.64,-5.33 -5.03,-6.53 -6.62,-6.53 -1.95,0 -2.75,1.59 -2.75,3.29 0,1.1 0.3,2.19 0.86,4.38 z"
           style="fill:#ffffff;stroke-width:0"
           inkscape:connector-curvature="0" /><path
           id="path4306"
           d="m 594.2,430.54 h -1.19 c -0.1,-0.76 -0.46,-2.83 -0.91,-3.17 -0.26,-0.2 -2.95,-0.2 -3.44,-0.2 h -6.42 c 3.66,3.23 4.88,4.2 6.97,5.84 2.58,2.06 4.99,4.22 4.99,7.53 0,4.22 -3.69,6.8 -8.16,6.8 -4.31,0 -7.25,-3.03 -7.25,-6.23 0,-1.79 1.5,-1.96 1.86,-1.96 0.83,0 1.84,0.6 1.84,1.85 0,0.62 -0.25,1.84 -2.06,1.84 1.08,2.47 3.45,3.23 5.09,3.23 3.49,0 5.3,-2.7 5.3,-5.53 0,-3.03 -2.16,-5.43 -3.28,-6.68 l -8.39,-8.3 c -0.36,-0.31 -0.36,-0.39 -0.36,-1.36 h 14.36 z"
           style="fill:#ffffff;stroke-width:0"
           inkscape:connector-curvature="0" /></g>    </g>
  </g>
</svg>
