<?xml version="1.0" encoding="UTF-8" standalone="no"?>
<!-- Created with Inkscape (http://www.inkscape.org/) -->

<svg
   xmlns:dc="http://purl.org/dc/elements/1.1/"
   xmlns:cc="http://creativecommons.org/ns#"
   xmlns:rdf="http://www.w3.org/1999/02/22-rdf-syntax-ns#"
   xmlns:svg="http://www.w3.org/2000/svg"
   xmlns="http://www.w3.org/2000/svg"
   xmlns:xlink="http://www.w3.org/1999/xlink"
   xmlns:sodipodi="http://sodipodi.sourceforge.net/DTD/sodipodi-0.dtd"
   xmlns:inkscape="http://www.inkscape.org/namespaces/inkscape"
   width="210mm"
   height="297mm"
   id="svg5094"
   version="1.1"
   inkscape:version="0.48.3.1 r9886"
   sodipodi:docname="新規ドキュメント 8">
  <sodipodi:namedview
     id="base"
     pagecolor="#000000"
     bordercolor="#666666"
     borderopacity="1.0"
     inkscape:pageopacity="0"
     inkscape:pageshadow="2"
     inkscape:zoom="0.7"
     inkscape:cx="161.80911"
     inkscape:cy="440.41929"
     inkscape:document-units="px"
     inkscape:current-layer="layer1"
     showgrid="false"
     inkscape:window-width="1366"
     inkscape:window-height="746"
     inkscape:window-x="0"
     inkscape:window-y="22"
     inkscape:window-maximized="0" />
  <defs
     id="defs5096">
    <defs
       id="defs4812">
      <circle
         style="stroke-width:0.5"
         sodipodi:ry="0.5"
         sodipodi:rx="0.5"
         sodipodi:cy="0"
         sodipodi:cx="0"
         cy="0"
         cx="0"
         id="gpDot"
         r="0.5" />
      <path
         style="stroke:currentColor;stroke-width:0.222"
         inkscape:connector-curvature="0"
         id="gpPt0"
         d="M -1,0 H 1 M 0,-1 v 2" />
      <path
         style="stroke:currentColor;stroke-width:0.222"
         inkscape:connector-curvature="0"
         id="gpPt1"
         d="M -1,-1 1,1 M 1,-1 -1,1" />
      <path
         style="stroke:currentColor;stroke-width:0.222"
         inkscape:connector-curvature="0"
         id="gpPt2"
         d="M -1,0 1,0 M 0,-1 0,1 m -1,-2 2,2 m -2,0 2,-2" />
      <rect
         style="stroke:currentColor;stroke-width:0.222"
         id="gpPt3"
         x="-1"
         y="-1"
         width="2"
         height="2" />
      <rect
         style="fill:currentColor;stroke:currentColor;stroke-width:0.222"
         id="gpPt4"
         x="-1"
         y="-1"
         width="2"
         height="2" />
      <circle
         style="stroke:currentColor;stroke-width:0.222"
         sodipodi:ry="1"
         sodipodi:rx="1"
         sodipodi:cy="0"
         sodipodi:cx="0"
         id="gpPt5"
         cx="0"
         cy="0"
         r="1" />
      <use
         height="1052.3622"
         width="744.09448"
         y="0"
         x="0"
         style="fill:currentColor;stroke:none"
         xlink:href="#gpPt5"
         id="gpPt6" />
      <path
         style="stroke:currentColor;stroke-width:0.222"
         inkscape:connector-curvature="0"
         id="gpPt7"
         d="m 0,-1.33 -1.33,2 2.66,0 z" />
      <use
         height="1052.3622"
         width="744.09448"
         y="0"
         x="0"
         style="fill:currentColor;stroke:none"
         xlink:href="#gpPt7"
         id="gpPt8" />
      <use
         height="1052.3622"
         width="744.09448"
         y="0"
         x="0"
         style="stroke:currentColor"
         xlink:href="#gpPt7"
         id="gpPt9"
         transform="scale(-1,-1)" />
      <use
         height="1052.3622"
         width="744.09448"
         y="0"
         x="0"
         style="fill:currentColor;stroke:none"
         xlink:href="#gpPt9"
         id="gpPt10" />
      <use
         height="1052.3622"
         width="744.09448"
         y="0"
         x="0"
         style="stroke:currentColor"
         xlink:href="#gpPt3"
         id="gpPt11"
         transform="matrix(0.70710678,0.70710678,-0.70710678,0.70710678,0,0)" />
      <use
         height="1052.3622"
         width="744.09448"
         y="0"
         x="0"
         style="fill:currentColor;stroke:none"
         xlink:href="#gpPt11"
         id="gpPt12" />
    </defs>
  </defs>
  <metadata
     id="metadata5099">
    <rdf:RDF>
      <cc:Work
         rdf:about="">
        <dc:format>image/svg+xml</dc:format>
        <dc:type
           rdf:resource="http://purl.org/dc/dcmitype/StillImage" />
        <dc:title></dc:title>
      </cc:Work>
    </rdf:RDF>
  </metadata>
  <g
     id="layer1"
     inkscape:groupmode="layer"
     inkscape:label="レイヤー 1">
    <rect
       style="fill:none"
       x="102.85715"
       y="332.36218"
       width="600"
       height="480"
       id="rect4810" />
    <g
       style="color:#ffffff;fill:none;stroke:currentColor;stroke-width:1;stroke-linecap:butt;stroke-linejoin:miter"
       id="g4828"
       transform="translate(102.85715,332.36218)" />
    <g
       style="color:#000000;fill:none;stroke:#ffffff;stroke-width:1;stroke-linecap:butt;stroke-linejoin:miter"
       id="g4830"
       transform="translate(102.85715,332.36218)">
      <path
         inkscape:connector-curvature="0"
         d="M 80.5,341.1 269.2,239.8 m 250.3,76.4 -250.3,-76.4 m -188.7,101.3 0,-195.3 m 188.7,94 0,-97.6 m 250.3,174 0,-97.6 m -414,130.2 7.3,-3.9 h 0.01"
         id="path4832"
         style="stroke:#ffffff" />
      <g
         transform="translate(98.8,361.1)"
         style="font-size:15px;text-anchor:middle;fill:#000000;stroke:#ffffff;font-family:Arial"
         id="g4834">
        <text
           id="text4836"
           style="stroke:#ffffff">-4</text>
      </g>
      <path
         inkscape:connector-curvature="0"
         d="m 294.2,247.4 -7.3,3.9 m -131.3,112.8 7.3,-4 h 0.01"
         id="path4838"
         style="stroke:#ffffff" />
      <g
         transform="translate(148.9,376.4)"
         style="font-size:15px;text-anchor:middle;fill:#000000;stroke:#ffffff;font-family:Arial"
         id="g4840">
        <text
           id="text4842"
           style="stroke:#ffffff">-2</text>
      </g>
      <path
         inkscape:connector-curvature="0"
         d="m 344.2,262.7 -7.3,3.9 m -131.2,112.7 7.3,-3.9 h 0.01"
         id="path4844"
         style="stroke:#ffffff" />
      <g
         transform="translate(199,391.7)"
         style="font-size:15px;text-anchor:middle;fill:#000000;stroke:#ffffff;font-family:Arial"
         id="g4846">
        <text
           id="text4848"
           style="stroke:#ffffff">0</text>
      </g>
      <path
         inkscape:connector-curvature="0"
         d="m 394.3,278 -7.3,3.9 m -131.2,112.7 7.3,-3.9 h 0.01"
         id="path4850"
         style="stroke:#ffffff" />
      <g
         transform="translate(249.1,406.9)"
         style="font-size:15px;text-anchor:middle;fill:#000000;stroke:#ffffff;font-family:Arial"
         id="g4852">
        <text
           id="text4854"
           style="stroke:#ffffff">2</text>
      </g>
      <path
         inkscape:connector-curvature="0"
         d="m 444.4,293.3 -7.3,3.9 m -131.3,112.7 7.3,-3.9 h 0.01"
         id="path4856"
         style="stroke:#ffffff" />
      <g
         transform="translate(299.1,422.2)"
         style="font-size:15px;text-anchor:middle;fill:#000000;stroke:#ffffff;font-family:Arial"
         id="g4858">
        <text
           id="text4860"
           style="stroke:#ffffff">4</text>
      </g>
      <path
         inkscape:connector-curvature="0"
         d="m 494.5,308.5 -7.3,3.9 m -137.5,95 -7.2,-2.2 h 0.01"
         id="path4862"
         style="stroke:#ffffff" />
      <g
         transform="translate(356.3,416.3)"
         style="font-size:15px;text-anchor:middle;fill:#000000;stroke:#ffffff;font-family:Arial"
         id="g4864">
        <text
           id="text4866"
           style="stroke:#ffffff">-4</text>
      </g>
      <path
         inkscape:connector-curvature="0"
         d="m 99.3,331 7.2,2.2 m 280.9,53.9 -7.2,-2.2 h 0.01"
         id="path4868"
         style="stroke:#ffffff" />
      <g
         transform="translate(394.1,396)"
         style="font-size:15px;text-anchor:middle;fill:#000000;stroke:#ffffff;font-family:Arial"
         id="g4870">
        <text
           id="text4872"
           style="stroke:#ffffff">-2</text>
      </g>
      <path
         inkscape:connector-curvature="0"
         d="m 137.1,310.7 7.2,2.2 m 280.9,53.9 -7.2,-2.2 h 0.01"
         id="path4874"
         style="stroke:#ffffff" />
      <g
         transform="translate(431.8,375.7)"
         style="font-size:15px;text-anchor:middle;fill:#000000;stroke:#ffffff;font-family:Arial"
         id="g4876">
        <text
           id="text4878"
           style="stroke:#ffffff">0</text>
      </g>
      <path
         inkscape:connector-curvature="0"
         d="m 174.8,290.5 7.2,2.2 m 280.9,53.9 -7.2,-2.2 h 0.01"
         id="path4880"
         style="stroke:#ffffff" />
      <g
         transform="translate(469.6,355.5)"
         style="font-size:15px;text-anchor:middle;fill:#000000;stroke:#ffffff;font-family:Arial"
         id="g4882">
        <text
           id="text4884"
           style="stroke:#ffffff">2</text>
      </g>
      <path
         inkscape:connector-curvature="0"
         d="m 212.6,270.2 7.2,2.2 m 280.9,53.9 -7.2,-2.2 h 0.01"
         id="path4886"
         style="stroke:#ffffff" />
      <g
         transform="translate(507.3,335.2)"
         style="font-size:15px;text-anchor:middle;fill:#000000;stroke:#ffffff;font-family:Arial"
         id="g4888">
        <text
           id="text4890"
           style="stroke:#ffffff">4</text>
      </g>
      <path
         inkscape:connector-curvature="0"
         d="m 250.3,249.9 7.2,2.2 m -177,89 9,0 h 0.01"
         id="path4892"
         style="stroke:#ffffff" />
      <g
         transform="translate(62.5,345.6)"
         style="font-size:15px;text-anchor:end;fill:#000000;stroke:#ffffff;font-family:Arial"
         id="g4894">
        <text
           id="text4896"
           style="stroke:#ffffff">-25</text>
      </g>
      <path
         inkscape:connector-curvature="0"
         d="m 80.5,321.6 9,0 h 0.01"
         id="path4898"
         style="stroke:#ffffff" />
      <g
         transform="translate(62.5,326.1)"
         style="font-size:15px;text-anchor:end;fill:#000000;stroke:#ffffff;font-family:Arial"
         id="g4900">
        <text
           id="text4902"
           style="stroke:#ffffff">-20</text>
      </g>
      <path
         inkscape:connector-curvature="0"
         d="m 80.5,302.1 9,0 h 0.01"
         id="path4904"
         style="stroke:#ffffff" />
      <g
         transform="translate(62.5,306.6)"
         style="font-size:15px;text-anchor:end;fill:#000000;stroke:#ffffff;font-family:Arial"
         id="g4906">
        <text
           id="text4908"
           style="stroke:#ffffff">-15</text>
      </g>
      <path
         inkscape:connector-curvature="0"
         d="m 80.5,282.5 9,0 h 0.01"
         id="path4910"
         style="stroke:#ffffff" />
      <g
         transform="translate(62.5,287)"
         style="font-size:15px;text-anchor:end;fill:#000000;stroke:#ffffff;font-family:Arial"
         id="g4912">
        <text
           id="text4914"
           style="stroke:#ffffff">-10</text>
      </g>
      <path
         inkscape:connector-curvature="0"
         d="m 80.5,263 9,0 h 0.01"
         id="path4916"
         style="stroke:#ffffff" />
      <g
         transform="translate(62.5,267.5)"
         style="font-size:15px;text-anchor:end;fill:#000000;stroke:#ffffff;font-family:Arial"
         id="g4918">
        <text
           id="text4920"
           style="stroke:#ffffff">-5</text>
      </g>
      <path
         inkscape:connector-curvature="0"
         d="m 80.5,243.4 9,0 h 0.01"
         id="path4922"
         style="stroke:#ffffff" />
      <g
         transform="translate(62.5,247.9)"
         style="font-size:15px;text-anchor:end;fill:#000000;stroke:#ffffff;font-family:Arial"
         id="g4924">
        <text
           id="text4926"
           style="stroke:#ffffff">0</text>
      </g>
      <path
         inkscape:connector-curvature="0"
         d="m 80.5,224 9,0 h 0.01"
         id="path4928"
         style="stroke:#ffffff" />
      <g
         transform="translate(62.5,228.5)"
         style="font-size:15px;text-anchor:end;fill:#000000;stroke:#ffffff;font-family:Arial"
         id="g4930">
        <text
           id="text4932"
           style="stroke:#ffffff">5</text>
      </g>
      <path
         inkscape:connector-curvature="0"
         d="m 80.5,204.5 9,0 h 0.01"
         id="path4934"
         style="stroke:#ffffff" />
      <g
         transform="translate(62.5,209)"
         style="font-size:15px;text-anchor:end;fill:#000000;stroke:#ffffff;font-family:Arial"
         id="g4936">
        <text
           id="text4938"
           style="stroke:#ffffff">10</text>
      </g>
      <path
         inkscape:connector-curvature="0"
         d="m 80.5,184.9 9,0 h 0.01"
         id="path4940"
         style="stroke:#ffffff" />
      <g
         transform="translate(62.5,189.4)"
         style="font-size:15px;text-anchor:end;fill:#000000;stroke:#ffffff;font-family:Arial"
         id="g4942">
        <text
           id="text4944"
           style="stroke:#ffffff">15</text>
      </g>
      <path
         inkscape:connector-curvature="0"
         d="m 80.5,165.4 9,0 h 0.01"
         id="path4946"
         style="stroke:#ffffff" />
      <g
         transform="translate(62.5,169.9)"
         style="font-size:15px;text-anchor:end;fill:#000000;stroke:#ffffff;font-family:Arial"
         id="g4948">
        <text
           id="text4950"
           style="stroke:#ffffff">20</text>
      </g>
      <path
         inkscape:connector-curvature="0"
         d="m 80.5,145.8 9,0 h 0.01"
         id="path4952"
         style="stroke:#ffffff" />
      <g
         transform="translate(62.5,150.3)"
         style="font-size:15px;text-anchor:end;fill:#000000;stroke:#ffffff;font-family:Arial"
         id="g4954">
        <text
           id="text4956"
           style="stroke:#ffffff">25</text>
      </g>
    </g>
    <g
       style="color:#808080;fill:none;stroke:currentColor;stroke-width:1;stroke-linecap:butt;stroke-linejoin:miter"
       id="g4958"
       transform="translate(102.85715,332.36218)">
      <path
         inkscape:connector-curvature="0"
         d="M 205.7,379.3 394.3,278 m -94.3,50.7 0,-195.4 m -125.2,157.2 250.4,76.3 h 0.01"
         id="path4960" />
    </g>
    <g
       id="gnuplot_plot_1"
       transform="translate(102.85715,332.36218)"
       style="stroke:#ffc0cb;stroke-opacity:1">
      <title
         id="title4963">gnuplot_plot_1</title>
      <g
         style="color:#ff0000;fill:none;stroke:#ffc0cb;stroke-width:1;stroke-linecap:butt;stroke-linejoin:miter;stroke-opacity:1"
         id="g4965">
        <path
           inkscape:connector-curvature="0"
           d="m 80.5,243.4 2.5,4.7 2.5,4.6 2.5,4.5 2.6,4.5 2.5,4.3 2.5,4.3 2.6,4.2 2.5,4.1 2.5,4.1 2.6,3.9 2.5,3.9 2.5,3.8 2.5,3.7 2.6,3.7 2.5,3.6 2.5,3.4 2.6,3.4 2.5,3.4 2.5,3.2 2.6,3.2 2.5,3.1 2.5,3 2.5,2.9 2.6,2.8 2.5,2.8 2.5,2.7 2.6,2.6 2.5,2.5 2.5,2.5 2.6,2.3 2.5,2.3 2.5,2.2 2.5,2.1 2.6,2.1 2.5,2 2.5,1.8 2.6,1.9 2.5,1.7 2.5,1.6 2.6,1.6 2.5,1.5 2.5,1.4 2.5,1.3 2.6,1.3 2.5,1.2 2.5,1 2.6,1.1 2.5,0.9 2.5,0.8 2.6,0.8 2.5,0.7 2.5,0.6 2.5,0.5 2.6,0.5 2.5,0.4 2.5,0.3 2.6,0.2 2.5,0.1 2.5,0.1 2.5,-0.1 2.6,-0.1 2.5,-0.2 2.5,-0.2 2.6,-0.4 2.5,-0.4 2.5,-0.5 2.6,-0.6 2.5,-0.6 2.5,-0.8 2.5,-0.8 2.6,-0.9 2.5,-1 2.5,-1.1 2.6,-1.1 2.5,-1.2 2.5,-1.3 2.6,-1.4 2.5,-1.5 2.5,-1.5 2.5,-1.6 2.6,-1.7 2.5,-1.8 2.5,-1.9 2.6,-1.9 2.5,-2 2.5,-2.1 2.5,-2.2 2.5,-2.3 2.5,-2.3 2.5,-2.4 2.6,-2.5 2.5,-2.6 2.5,-2.7 2.6,-2.7 2.5,-2.8 2.5,-2.9 2.6,-3 2.5,-3.1 2.5,-3.1 m -229.4,-126.1 2.6,4.7 2.5,4.6 2.5,4.5 2.5,4.4 2.6,4.4 2.5,4.3 2.5,4.2 2.6,4.1 2.5,3.9 2.5,4 2.6,3.9 2.5,3.8 2.5,3.7 2.5,3.6 2.6,3.6 2.5,3.5 2.5,3.4 2.6,3.3 2.5,3.2 2.5,3.2 2.6,3.1 2.5,3 2.5,2.9 2.5,2.9 2.6,2.7 2.5,2.7 2.5,2.6 2.6,2.6 2.5,2.4 2.5,2.4 2.6,2.2 2.5,2.3 2.5,2.1 2.5,2 2.6,2 2.5,1.9 2.5,1.8 2.6,1.7 2.5,1.7 2.5,1.5 2.6,1.5 2.5,1.4 2.5,1.4 2.5,1.2 2.6,1.2 2.5,1.1 2.5,1 2.6,0.9 2.5,0.9 2.5,0.7 2.6,0.7 2.5,0.6 2.5,0.6 2.5,0.4 2.6,0.4 2.5,0.3 2.5,0.2 2.6,0.1 2.5,0.1 2.5,0 2.5,-0.1 2.6,-0.2 2.5,-0.3 2.5,-0.3 2.6,-0.5 2.5,-0.5 2.5,-0.5 2.6,-0.7 2.5,-0.8 2.5,-0.8 2.5,-0.9 2.6,-1 2.5,-1 2.5,-1.2 2.6,-1.2 2.5,-1.3 2.5,-1.4 2.6,-1.4 2.4,-1.6 2.5,-1.6 2.5,-1.7 2.6,-1.8 2.5,-1.8 2.5,-2 2.6,-2 2.5,-2.1 2.5,-2.2 2.6,-2.2 2.5,-2.4 2.5,-2.4 2.5,-2.5 2.6,-2.6 2.5,-2.6 2.5,-2.8 2.6,-2.8 2.5,-2.9 2.5,-3 2.6,-3 2.5,-3.2 m -229.4,-116.4 2.5,4.6 2.6,4.6 2.5,4.6 2.5,4.4 2.5,4.4 2.6,4.2 2.5,4.2 2.5,4.2 2.6,4 2.5,4 2.5,3.9 2.6,3.8 2.5,3.7 2.5,3.6 2.5,3.6 2.6,3.5 2.5,3.4 2.5,3.3 2.6,3.2 2.5,3.1 2.5,3.1 2.6,3 2.5,2.9 2.5,2.9 2.5,2.7 2.6,2.7 2.5,2.6 2.5,2.5 2.6,2.5 2.5,2.4 2.5,2.2 2.6,2.2 2.5,2.2 2.5,2 2.5,2 2.6,1.9 2.5,1.8 2.5,1.7 2.6,1.7 2.5,1.5 2.5,1.5 2.6,1.4 2.5,1.4 2.5,1.2 2.5,1.2 2.6,1.1 2.5,1 2.5,0.9 2.6,0.9 2.5,0.7 2.5,0.7 2.5,0.6 2.6,0.6 2.5,0.4 2.5,0.4 2.6,0.3 2.5,0.2 2.5,0.1 2.6,0.1 2.5,0 2.5,-0.1 2.5,-0.2 2.6,-0.3 2.5,-0.3 2.5,-0.5 2.6,-0.5 2.5,-0.6 2.5,-0.6 2.6,-0.8 2.5,-0.8 2.4,-0.9 2.5,-1 2.6,-1 2.5,-1.2 2.5,-1.2 2.6,-1.3 2.5,-1.4 2.5,-1.4 2.6,-1.6 2.5,-1.6 2.5,-1.7 2.5,-1.8 2.6,-1.8 2.5,-2 2.5,-2 2.6,-2.1 2.5,-2.2 2.5,-2.2 2.6,-2.4 2.5,-2.4 2.5,-2.5 2.5,-2.6 2.6,-2.6 2.5,-2.8 2.5,-2.8 2.6,-2.9 2.5,-3 2.5,-3 2.6,-3.1 m -229.4,-106.9 2.5,4.7 2.5,4.6 2.6,4.5 2.5,4.4 2.5,4.4 2.5,4.3 2.6,4.2 2.5,4.1 2.5,4 2.6,4 2.5,3.9 2.5,3.8 2.6,3.7 2.5,3.7 2.5,3.5 2.5,3.5 2.6,3.4 2.5,3.3 2.5,3.3 2.6,3.1 2.5,3.1 2.5,3 2.6,3 2.5,2.8 2.5,2.8 2.5,2.6 2.6,2.7 2.5,2.5 2.5,2.4 2.6,2.4 2.5,2.3 2.5,2.1 2.6,2.1 2.5,2.1 2.5,1.9 2.5,1.9 2.6,1.8 2.5,1.8 2.5,1.6 2.6,1.6 2.5,1.5 2.5,1.4 2.6,1.3 2.5,1.2 2.5,1.2 2.5,1.1 2.6,1 2.5,1 2.5,0.8 2.6,0.8 2.5,0.7 2.5,0.6 2.5,0.5 2.6,0.5 2.5,0.3 2.5,0.3 2.6,0.2 2.5,0.2 2.5,0 2.6,0 2.5,-0.1 2.4,-0.2 2.5,-0.3 2.6,-0.3 2.5,-0.4 2.5,-0.5 2.6,-0.6 2.5,-0.7 2.5,-0.7 2.6,-0.8 2.5,-0.9 2.5,-1 2.5,-1.1 2.6,-1.1 2.5,-1.3 2.5,-1.3 2.6,-1.3 2.5,-1.5 2.5,-1.5 2.6,-1.7 2.5,-1.7 2.5,-1.7 2.5,-1.9 2.6,-2 2.5,-2 2.5,-2.1 2.6,-2.1 2.5,-2.2 2.5,-2.3 2.6,-2.5 2.5,-2.5 2.5,-2.5 2.5,-2.7 2.6,-2.7 2.5,-2.9 2.5,-2.9 2.6,-2.9 2.5,-3.1 2.5,-3.1 M 164.3,102 l 2.6,4.7 2.5,4.6 2.5,4.5 2.6,4.4 2.5,4.4 2.5,4.3 2.5,4.2 2.6,4.1 2.5,4 2.5,4 2.6,3.9 2.5,3.8 2.5,3.7 2.6,3.6 2.5,3.6 2.5,3.5 2.5,3.4 2.6,3.3 2.5,3.3 2.5,3.1 2.6,3.1 2.5,3 2.5,2.9 2.6,2.9 2.5,2.8 2.5,2.6 2.5,2.6 2.6,2.6 2.5,2.4 2.5,2.4 2.6,2.3 2.5,2.2 2.5,2.1 2.6,2 2.5,2 2.5,1.9 2.5,1.8 2.6,1.7 2.5,1.7 2.5,1.6 2.6,1.4 2.5,1.5 2.5,1.2 2.6,1.2 2.5,1.2 2.5,1.1 2.5,1 2.6,0.9 2.5,0.9 2.5,0.8 2.6,0.7 2.5,0.6 2.5,0.5 2.4,0.5 2.6,0.3 2.5,0.3 2.5,0.2 2.6,0.2 2.5,0 2.5,0 2.6,-0.1 2.5,-0.2 2.5,-0.3 2.5,-0.3 2.6,-0.4 2.5,-0.5 2.5,-0.6 2.6,-0.7 2.5,-0.7 2.5,-0.9 2.6,-0.9 2.5,-0.9 2.5,-1.1 2.5,-1.1 2.6,-1.3 2.5,-1.2 2.5,-1.4 2.6,-1.4 2.5,-1.6 2.5,-1.6 2.6,-1.7 2.5,-1.8 2.5,-1.8 2.5,-2 2.6,-2 2.5,-2.1 2.5,-2.2 2.6,-2.2 2.5,-2.4 2.5,-2.4 2.6,-2.5 2.5,-2.6 2.5,-2.6 2.5,-2.7 2.6,-2.9 2.5,-2.9 2.5,-2.9 2.6,-3.1 2.5,-3.1 m -229.4,-87.7 2.5,4.7 2.6,4.6 2.5,4.5 2.5,4.5 2.6,4.3 2.5,4.3 2.5,4.2 2.5,4.1 2.6,4.1 2.5,3.9 2.5,3.9 2.6,3.8 2.5,3.7 2.5,3.7 2.6,3.5 2.5,3.5 2.5,3.4 2.5,3.4 2.6,3.2 2.5,3.2 2.5,3.1 2.6,3 2.5,2.9 2.5,2.8 2.6,2.8 2.5,2.7 2.5,2.6 2.5,2.5 2.6,2.5 2.5,2.3 2.5,2.3 2.6,2.2 2.5,2.1 2.5,2.1 2.6,2 2.5,1.8 2.5,1.9 2.5,1.7 2.6,1.6 2.5,1.6 2.5,1.5 2.6,1.4 2.5,1.3 2.5,1.3 2.6,1.1 2.4,1.1 2.5,1 2.5,1 2.6,0.8 2.5,0.8 2.5,0.7 2.6,0.6 2.5,0.5 2.5,0.5 2.5,0.4 2.6,0.3 2.5,0.2 2.5,0.1 2.6,0.1 2.5,-0.1 2.5,-0.1 2.6,-0.2 2.5,-0.2 2.5,-0.4 2.5,-0.4 2.6,-0.5 2.5,-0.6 2.5,-0.7 2.6,-0.7 2.5,-0.8 2.5,-0.9 2.6,-1 2.5,-1.1 2.5,-1.1 2.5,-1.2 2.6,-1.3 2.5,-1.4 2.5,-1.5 2.6,-1.5 2.5,-1.6 2.5,-1.7 2.6,-1.8 2.5,-1.9 2.5,-1.9 2.5,-2 2.6,-2.1 2.5,-2.2 2.5,-2.3 2.6,-2.3 2.5,-2.4 2.5,-2.5 2.6,-2.6 2.5,-2.7 2.5,-2.7 2.5,-2.8 2.6,-2.9 2.5,-3 2.5,-3.1 2.6,-3.1 h 0.01"
           id="path4967"
           style="stroke:#ffc0cb;stroke-opacity:1" />
        <path
           inkscape:connector-curvature="0"
           d="m 206.3,89.1 2.5,4.7 2.5,4.6 2.6,4.5 2.5,4.5 2.5,4.3 2.6,4.3 2.5,4.2 2.5,4.1 2.5,4.1 2.6,3.9 2.5,3.9 2.5,3.8 2.6,3.7 2.5,3.7 2.5,3.5 2.6,3.5 2.5,3.4 2.5,3.3 2.5,3.3 2.6,3.2 2.5,3 2.5,3 2.6,3 2.5,2.8 2.5,2.8 2.6,2.7 2.5,2.6 2.5,2.5 2.5,2.4 2.6,2.4 2.5,2.3 2.5,2.2 2.6,2.1 2.5,2.1 2.5,1.9 2.6,1.9 2.5,1.8 2.4,1.8 2.5,1.6 2.6,1.6 2.5,1.5 2.5,1.4 2.6,1.3 2.5,1.3 2.5,1.1 2.6,1.1 2.5,1 2.5,1 2.5,0.8 2.6,0.8 2.5,0.7 2.5,0.6 2.6,0.5 2.5,0.5 2.5,0.4 2.5,0.2 2.6,0.3 2.5,0.1 2.5,0 2.6,0 2.5,-0.1 2.5,-0.2 2.6,-0.2 2.5,-0.4 2.5,-0.4 2.5,-0.5 2.6,-0.6 2.5,-0.7 2.5,-0.7 2.6,-0.8 2.5,-0.9 2.5,-1 2.6,-1.1 2.5,-1.1 2.5,-1.2 2.5,-1.3 2.6,-1.4 2.5,-1.5 2.5,-1.5 2.6,-1.7 2.5,-1.7 2.5,-1.7 2.6,-1.9 2.5,-1.9 2.5,-2.1 2.5,-2.1 2.6,-2.1 2.5,-2.3 2.5,-2.3 2.6,-2.4 2.5,-2.5 2.5,-2.6 2.6,-2.7 2.5,-2.7 2.5,-2.8 2.5,-2.9 2.6,-3 2.5,-3.1 2.5,-3.1 m -229.4,-68.3 2.6,4.6 2.5,4.6 2.5,4.6 2.6,4.4 2.5,4.4 2.5,4.2 2.6,4.2 2.5,4.2 2.5,4 2.5,4 2.6,3.8 2.5,3.9 2.5,3.7 2.6,3.6 2.5,3.6 2.5,3.5 2.6,3.4 2.5,3.3 2.5,3.2 2.5,3.2 2.6,3.1 2.5,3 2.5,2.9 2.6,2.9 2.5,2.7 2.5,2.7 2.6,2.6 2.5,2.5 2.4,2.5 2.5,2.3 2.6,2.3 2.5,2.2 2.5,2.2 2.6,2 2.5,2 2.5,1.9 2.6,1.8 2.5,1.7 2.5,1.7 2.5,1.5 2.6,1.5 2.5,1.4 2.5,1.4 2.6,1.2 2.5,1.2 2.5,1.1 2.6,1 2.5,0.8 2.5,0.9 2.5,0.7 2.6,0.7 2.5,0.6 2.5,0.6 2.6,0.4 2.5,0.4 2.5,0.3 2.5,0.2 2.6,0.1 2.5,0.1 2.5,0 2.6,-0.1 2.5,-0.2 2.5,-0.3 2.6,-0.3 2.5,-0.5 2.5,-0.5 2.5,-0.6 2.6,-0.6 2.5,-0.8 2.5,-0.8 2.6,-0.9 2.5,-0.9 2.5,-1 2.6,-1.2 2.5,-1.2 2.5,-1.3 2.5,-1.4 2.6,-1.4 2.5,-1.6 2.5,-1.6 2.6,-1.7 2.5,-1.8 2.5,-1.9 2.6,-1.9 2.5,-2 2.5,-2.1 2.5,-2.2 2.6,-2.3 2.5,-2.3 2.5,-2.4 2.6,-2.5 2.5,-2.6 2.5,-2.6 2.6,-2.8 2.5,-2.8 2.5,-2.9 2.5,-3 2.6,-3 2.5,-3.2 m -229.4,-58.6 2.5,4.6 2.6,4.6 2.5,4.6 2.5,4.4 2.6,4.4 2.5,4.2 2.5,4.2 2.6,4.2 2.5,4 2.5,4 2.5,3.8 2.6,3.8 2.5,3.8 2.5,3.6 2.6,3.6 2.5,3.4 2.5,3.5 2.6,3.3 2.5,3.2 2.5,3.2 2.4,3.1 2.6,3 2.5,2.9 2.5,2.8 2.6,2.8 2.5,2.7 2.5,2.6 2.6,2.5 2.5,2.5 2.5,2.3 2.5,2.3 2.6,2.2 2.5,2.2 2.5,2 2.6,1.9 2.5,1.9 2.5,1.8 2.6,1.7 2.5,1.6 2.5,1.6 2.5,1.5 2.6,1.4 2.5,1.3 2.5,1.3 2.6,1.2 2.5,1.1 2.5,1 2.5,0.9 2.6,0.8 2.5,0.8 2.5,0.7 2.6,0.6 2.5,0.6 2.5,0.4 2.6,0.4 2.5,0.3 2.5,0.2 2.5,0.1 2.6,0.1 2.5,-0.1 2.5,-0.1 2.6,-0.1 2.5,-0.3 2.5,-0.4 2.6,-0.4 2.5,-0.5 2.5,-0.6 2.5,-0.6 2.6,-0.8 2.5,-0.8 2.5,-0.9 2.6,-1 2.5,-1.1 2.5,-1.1 2.6,-1.2 2.5,-1.3 2.5,-1.4 2.5,-1.5 2.6,-1.5 2.5,-1.6 2.5,-1.7 2.6,-1.8 2.5,-1.9 2.5,-1.8 2.6,-2 2.5,-2.1 2.5,-2.2 2.5,-2.3 2.6,-2.3 2.5,-2.4 2.5,-2.5 2.6,-2.6 2.5,-2.7 2.5,-2.7 2.6,-2.8 2.5,-2.9 2.5,-3 2.5,-3 2.6,-3.2 m -229.4,-49 2.5,4.7 2.5,4.6 2.6,4.5 2.5,4.4 2.5,4.4 2.6,4.3 2.5,4.2 2.5,4.1 2.6,4 2.5,4 2.5,3.9 2.5,3.8 2.5,3.7 2.5,3.6 2.5,3.6 2.6,3.5 2.5,3.4 2.5,3.3 2.6,3.3 2.5,3.1 2.5,3.1 2.5,3 2.6,2.9 2.5,2.8 2.5,2.7 2.6,2.7 2.5,2.6 2.5,2.6 2.6,2.4 2.5,2.4 2.5,2.3 2.5,2.2 2.6,2.1 2.5,2 2.5,2 2.6,1.9 2.5,1.8 2.5,1.7 2.6,1.7 2.5,1.6 2.5,1.4 2.5,1.5 2.6,1.3 2.5,1.2 2.5,1.2 2.6,1.1 2.5,1 2.5,0.9 2.5,0.9 2.6,0.8 2.5,0.6 2.5,0.7 2.6,0.5 2.5,0.4 2.5,0.4 2.6,0.3 2.5,0.2 2.5,0.2 2.5,0 2.6,0 2.5,-0.1 2.5,-0.2 2.6,-0.3 2.5,-0.3 2.5,-0.4 2.6,-0.5 2.5,-0.6 2.5,-0.7 2.5,-0.7 2.6,-0.9 2.5,-0.9 2.5,-0.9 2.6,-1.1 2.5,-1.2 2.5,-1.2 2.6,-1.3 2.5,-1.4 2.5,-1.4 2.5,-1.6 2.6,-1.6 2.5,-1.7 2.5,-1.8 2.6,-1.8 2.5,-2 2.5,-2 2.6,-2.1 2.5,-2.2 2.5,-2.2 2.5,-2.4 2.6,-2.4 2.5,-2.5 2.5,-2.6 2.6,-2.6 2.5,-2.8 2.5,-2.7 2.6,-2.9 2.5,-2.9 2.5,-3.1 2.5,-3.1 m -439,24.8 1.9,-4.9 1.9,-4.8 1.9,-4.7 1.9,-4.7 1.9,-4.6 1.9,-4.6 1.9,-4.4 1.9,-4.4 1.9,-4.3 1.9,-4.2 1.9,-4.1 1.9,-4.1 1.9,-4 1.9,-3.8 2,-3.9 1.9,-3.7 1.9,-3.7 1.9,-3.5 1.9,-3.5 1.9,-3.4 1.9,-3.4 1.9,-3.2 1.9,-3.2 1.9,-3.1 1.9,-3 1.9,-3 1.9,-2.8 1.9,-2.8 1.9,-2.7 2,-2.6 1.9,-2.6 1.9,-2.4 1.9,-2.4 1.9,-2.3 1.9,-2.2 1.9,-2.2 1.9,-2 1.9,-2 1.9,-1.9 1.9,-1.8 1.9,-1.8 1.9,-1.6 1.9,-1.6 1.9,-1.5 1.9,-1.4 2,-1.4 1.9,-1.2 1.9,-1.2 1.9,-1.1 1.9,-1 1.9,-1 1.9,-0.9 1.9,-0.7 1.9,-0.7 1.9,-0.7 1.9,-0.5 1.9,-0.5 1.9,-0.4 1.9,-0.3 1.9,-0.2 1.9,-0.1 2,-0.1 1.9,0 1.9,0.1 1.9,0.2 1.9,0.2 1.9,0.4 1.9,0.4 1.9,0.5 1.9,0.5 1.9,0.7 1.9,0.7 1.9,0.8 1.9,0.9 1.9,1 1.9,1 1.9,1.2 2,1.2 1.9,1.3 1.9,1.3 1.9,1.5 1.9,1.5 1.9,1.6 1.9,1.7 1.9,1.8 1.9,1.8 1.9,1.9 1.9,2.1 1.9,2 1.9,2.2 1.9,2.3 1.9,2.3 2,2.4 1.9,2.5 1.9,2.5 1.9,2.7 1.9,2.7 1.9,2.8 1.9,2.9 m -160.9,148.3 1.9,-4.9 1.9,-4.9 1.9,-4.7 1.9,-4.7 1.9,-4.6 1.9,-4.6 1.9,-4.4 1.9,-4.4 1.9,-4.3 2,-4.2 1.9,-4.1 1.9,-4.1 1.9,-4 1.9,-3.8 1.9,-3.8 1.9,-3.7 1.9,-3.7 1.9,-3.5 1.9,-3.5 1.9,-3.5 1.9,-3.3 1.9,-3.2 1.9,-3.2 1.9,-3.1 1.9,-3 2,-3 1.9,-2.8 1.9,-2.8 1.9,-2.7 1.9,-2.6 1.9,-2.6 1.9,-2.4 1.9,-2.4 1.9,-2.3 1.9,-2.2 1.9,-2.2 1.9,-2 1.9,-2 1.9,-1.9 1.9,-1.8 1.9,-1.8 2,-1.6 1.9,-1.6 1.9,-1.5 1.9,-1.4 1.9,-1.4 1.9,-1.2 1.9,-1.2 1.9,-1.1 1.9,-1.1 1.9,-0.9 1.9,-0.9 1.9,-0.7 1.9,-0.8 1.9,-0.6 1.9,-0.5 1.9,-0.5 2,-0.4 1.9,-0.3 1.9,-0.2 1.9,-0.2 1.9,0 1.9,0 1.9,0.1 1.9,0.2 1.9,0.2 1.9,0.3 1.9,0.5 1.9,0.4 1.9,0.6 1.9,0.7 1.9,0.7 2,0.8 1.9,0.9 1.9,1 1.9,1 1.9,1.1 1.9,1.3 1.9,1.2 1.9,1.4 1.9,1.5 1.9,1.5 1.9,1.6 1.9,1.7 1.9,1.8 1.9,1.8 1.9,1.9 1.9,2 2,2.1 1.9,2.2 1.9,2.2 1.9,2.4 1.9,2.4 1.9,2.5 1.9,2.5 1.9,2.7 1.9,2.7 1.9,2.8 1.9,2.9 h 0.01"
           id="path4969"
           style="stroke:#ffc0cb;stroke-opacity:1" />
        <path
           inkscape:connector-curvature="0"
           d="m 136.1,328 1.9,-5 1.9,-4.8 1.9,-4.8 1.9,-4.7 1.9,-4.6 2,-4.5 1.9,-4.5 1.9,-4.4 1.9,-4.3 1.9,-4.2 1.9,-4.1 1.9,-4.1 1.9,-3.9 1.9,-3.9 1.9,-3.8 1.9,-3.8 1.9,-3.6 1.9,-3.6 1.9,-3.5 1.9,-3.4 1.9,-3.4 2,-3.2 1.9,-3.2 1.9,-3.1 1.9,-2.9 1.9,-2.9 1.9,-2.9 1.9,-2.8 1.9,-2.7 1.9,-2.6 1.9,-2.5 1.9,-2.5 1.9,-2.4 1.9,-2.3 1.9,-2.2 1.9,-2.1 2,-2.1 1.9,-2 1.9,-1.9 1.9,-1.8 1.9,-1.7 1.9,-1.7 1.9,-1.6 1.9,-1.5 1.9,-1.4 1.9,-1.3 1.9,-1.3 1.9,-1.2 1.9,-1.1 1.9,-1 1.9,-1 1.9,-0.8 2,-0.8 1.9,-0.7 1.9,-0.6 1.9,-0.6 1.9,-0.5 1.9,-0.3 1.9,-0.3 1.9,-0.3 1.9,-0.1 1.9,-0.1 1.9,0 1.9,0.1 1.9,0.2 1.9,0.2 1.9,0.4 1.9,0.4 2,0.5 1.9,0.6 1.9,0.6 1.9,0.7 1.9,0.8 1.9,0.9 1.9,1 1.9,1.1 1.9,1.1 1.9,1.2 1.9,1.3 1.9,1.4 1.9,1.4 1.9,1.5 1.9,1.6 1.9,1.7 2,1.8 1.8,1.8 1.9,2 1.9,2 1.9,2.1 1.9,2.1 1.9,2.3 1.9,2.3 1.9,2.4 1.9,2.5 1.9,2.6 1.9,2.6 1.9,2.7 1.9,2.8 1.9,2.9 m -160.8,129 1.9,-4.9 2,-4.8 1.9,-4.8 1.9,-4.7 1.9,-4.6 1.9,-4.5 1.9,-4.5 1.9,-4.4 1.9,-4.3 1.9,-4.2 1.9,-4.1 1.9,-4.1 1.9,-3.9 1.9,-3.9 1.9,-3.9 1.9,-3.7 2,-3.6 1.9,-3.6 1.9,-3.5 1.9,-3.4 1.9,-3.4 1.9,-3.2 1.9,-3.2 1.9,-3.1 1.9,-3 1.9,-3 1.9,-2.8 1.9,-2.8 1.9,-2.7 1.9,-2.6 1.9,-2.5 1.9,-2.5 2,-2.4 1.9,-2.3 1.9,-2.1 1.9,-2.1 1.9,-2.1 1.9,-2 1.9,-1.9 1.9,-1.8 1.9,-1.8 1.9,-1.6 1.9,-1.6 1.9,-1.5 1.9,-1.4 1.9,-1.4 1.9,-1.2 1.9,-1.2 2,-1.1 1.9,-1 1.9,-1 1.9,-0.8 1.9,-0.8 1.9,-0.7 1.9,-0.7 1.9,-0.5 1.9,-0.5 1.9,-0.4 1.9,-0.3 1.9,-0.2 1.9,-0.1 1.9,-0.1 1.9,0 2,0.1 1.9,0.2 1.9,0.2 1.9,0.4 1.9,0.4 1.9,0.5 1.9,0.5 1.9,0.7 1.8,0.7 1.9,0.8 1.9,0.9 1.9,1 1.9,1 1.9,1.2 1.9,1.2 1.9,1.3 2,1.3 1.9,1.5 1.9,1.5 1.9,1.6 1.9,1.7 1.9,1.8 1.9,1.8 1.9,2 1.9,2 1.9,2 1.9,2.1 1.9,2.3 1.9,2.3 1.9,2.4 1.9,2.5 1.9,2.5 2,2.7 1.9,2.7 1.9,2.8 1.9,2.9 m -160.8,119.5 1.9,-5 1.9,-4.8 1.9,-4.8 1.9,-4.7 1.9,-4.6 1.9,-4.5 1.9,-4.5 1.9,-4.3 1.9,-4.3 1.9,-4.2 1.9,-4.2 1.9,-4 2,-4 1.9,-3.9 1.9,-3.8 1.9,-3.8 1.9,-3.6 1.9,-3.6 1.9,-3.5 1.9,-3.4 1.9,-3.3 1.9,-3.3 1.9,-3.2 1.9,-3.1 1.9,-3 1.9,-2.9 1.9,-2.9 1.9,-2.8 2,-2.7 1.9,-2.6 1.9,-2.5 1.9,-2.5 1.9,-2.4 1.9,-2.3 1.9,-2.2 1.9,-2.1 1.9,-2.1 1.9,-2 1.9,-1.9 1.9,-1.8 1.9,-1.7 1.9,-1.7 1.9,-1.6 2,-1.5 1.9,-1.3 1.9,-1.3 1.9,-1.3 1.9,-1.2 1.9,-1.1 1.9,-1 1.9,-0.9 1.9,-0.9 1.9,-0.8 1.9,-0.7 1.9,-0.6 1.9,-0.6 1.8,-0.4 1.9,-0.4 1.9,-0.3 2,-0.3 1.9,-0.1 1.9,-0.1 1.9,0 1.9,0.1 1.9,0.2 1.9,0.3 1.9,0.3 1.9,0.4 1.9,0.5 1.9,0.6 1.9,0.6 1.9,0.8 1.9,0.8 1.9,0.9 1.9,0.9 2,1.1 1.9,1.1 1.9,1.2 1.9,1.3 1.9,1.3 1.9,1.4 1.9,1.5 1.9,1.7 1.9,1.6 1.9,1.8 1.9,1.9 1.9,1.9 1.9,2 1.9,2.1 1.9,2.1 1.9,2.3 2,2.3 1.9,2.4 1.9,2.5 1.9,2.6 1.9,2.6 1.9,2.7 1.9,2.8 1.9,2.9 m -160.8,109.9 1.9,-5 1.9,-4.8 1.9,-4.8 1.9,-4.7 1.9,-4.6 1.9,-4.5 1.9,-4.5 2,-4.4 1.9,-4.2 1.9,-4.3 1.9,-4.1 1.9,-4 1.9,-4 1.9,-3.9 1.9,-3.8 1.9,-3.8 1.9,-3.6 1.9,-3.6 1.9,-3.5 1.9,-3.4 1.9,-3.3 1.9,-3.3 1.9,-3.2 2,-3.1 1.9,-3 1.9,-2.9 1.9,-2.9 1.9,-2.8 1.9,-2.7 1.9,-2.6 1.9,-2.5 1.9,-2.5 1.9,-2.4 1.9,-2.3 1.9,-2.2 1.9,-2.1 1.9,-2.1 1.9,-2 1.9,-1.9 2,-1.8 1.9,-1.7 1.9,-1.7 1.8,-1.6 1.9,-1.5 1.9,-1.4 1.9,-1.3 1.9,-1.3 1.9,-1.2 1.9,-1.1 1.9,-1 1.9,-1 1.9,-0.8 1.9,-0.7 1.9,-0.7 1.9,-0.6 2,-0.6 1.9,-0.4 1.9,-0.4 1.9,-0.3 1.9,-0.3 1.9,-0.1 1.9,-0.1 1.9,0 1.9,0.1 1.9,0.2 1.9,0.3 1.9,0.3 1.9,0.4 1.9,0.5 1.9,0.6 2,0.6 1.9,0.6 1.9,0.9 1.9,0.8 1.9,1 1.9,1.1 1.9,1.1 1.9,1.2 1.9,1.3 1.9,1.4 1.9,1.4 1.9,1.5 1.9,1.6 1.9,1.7 1.9,1.8 1.9,1.8 2,2 1.9,2 1.9,2.1 1.9,2.1 1.9,2.3 1.9,2.3 1.9,2.4 1.9,2.5 1.9,2.6 1.9,2.6 1.9,2.7 1.9,2.8 1.9,2.9 m -160.8,100.2 1.9,-4.9 1.9,-4.9 1.9,-4.8 2,-4.6 1.9,-4.7 1.9,-4.5 1.9,-4.4 1.9,-4.4 1.9,-4.3 1.9,-4.2 1.9,-4.2 1.9,-4 1.9,-4 1.9,-3.9 1.9,-3.8 1.9,-3.7 1.9,-3.7 1.9,-3.6 1.9,-3.5 2,-3.4 1.9,-3.3 1.9,-3.3 1.9,-3.1 1.9,-3.1 1.9,-3.1 1.9,-2.9 1.9,-2.9 1.8,-2.7 1.9,-2.7 1.9,-2.7 1.9,-2.5 1.9,-2.5 1.9,-2.3 1.9,-2.3 1.9,-2.2 2,-2.2 1.9,-2.1 1.9,-1.9 1.9,-1.9 1.9,-1.9 1.9,-1.7 1.9,-1.7 1.9,-1.5 1.9,-1.5 1.9,-1.5 1.9,-1.3 1.9,-1.3 1.9,-1.2 1.9,-1.1 1.9,-1 2,-0.9 1.9,-0.8 1.9,-0.8 1.9,-0.7 1.9,-0.6 1.9,-0.5 1.9,-0.5 1.9,-0.4 1.9,-0.3 1.9,-0.2 1.9,-0.2 1.9,0 1.9,0 1.9,0.1 1.9,0.1 1.9,0.3 2,0.3 1.9,0.4 1.9,0.5 1.9,0.6 1.9,0.6 1.9,0.8 1.9,0.8 1.9,0.8 1.9,0.9 1.9,1.1 1.9,1.1 1.9,1.2 1.9,1.3 1.9,1.4 1.9,1.4 1.9,1.6 2,1.6 1.9,1.7 1.9,1.7 1.9,1.9 1.9,1.9 1.9,2 1.9,2.1 1.9,2.2 1.9,2.2 1.9,2.3 1.9,2.4 1.9,2.5 1.9,2.6 1.9,2.6 1.9,2.8 2,2.8 1.9,2.9 m -160.8,90.5 1.9,-4.9 1.9,-4.9 1.9,-4.8 1.9,-4.7 1.9,-4.6 1.9,-4.5 1.9,-4.5 1.9,-4.3 1.9,-4.3 1.9,-4.2 1.9,-4.2 1.9,-4 1.9,-4 1.8,-3.9 2,-3.8 1.9,-3.7 1.9,-3.7 1.9,-3.6 1.9,-3.5 1.9,-3.4 1.9,-3.3 1.9,-3.3 1.9,-3.2 1.9,-3.1 1.9,-3 1.9,-2.9 1.9,-2.9 1.9,-2.7 1.9,-2.7 1.9,-2.7 2,-2.5 1.9,-2.5 1.9,-2.3 1.9,-2.3 1.9,-2.3 1.9,-2.1 1.9,-2.1 1.9,-1.9 1.9,-1.9 1.9,-1.9 1.9,-1.7 1.9,-1.7 1.9,-1.5 1.9,-1.5 1.9,-1.4 1.9,-1.3 2,-1.3 1.9,-1.2 1.9,-1.1 1.9,-1 1.9,-0.9 1.9,-0.9 1.9,-0.8 1.9,-0.7 1.9,-0.6 1.9,-0.6 1.9,-0.4 1.9,-0.4 1.9,-0.3 1.9,-0.2 1.9,-0.2 1.9,-0.1 2,0.1 1.9,0 1.9,0.2 1.9,0.3 1.9,0.3 1.9,0.4 1.9,0.5 1.9,0.6 1.9,0.6 1.9,0.8 1.9,0.8 1.9,0.9 1.9,0.9 1.9,1.1 1.9,1.1 2,1.2 1.9,1.3 1.9,1.4 1.9,1.4 1.9,1.6 1.9,1.5 1.9,1.7 1.9,1.7 1.9,1.9 1.9,1.9 1.9,2 1.9,2.1 1.9,2.2 1.9,2.2 1.9,2.3 1.9,2.4 2,2.5 1.9,2.6 1.9,2.6 1.9,2.8 1.9,2.8 1.9,2.8 h 0.01"
           id="path4971"
           style="stroke:#ffc0cb;stroke-opacity:1" />
        <path
           inkscape:connector-curvature="0"
           d="m 303,349.9 1.9,-4.9 1.9,-4.9 1.9,-4.7 1.9,-4.7 1.9,-4.6 1.9,-4.6 1.9,-4.4 1.9,-4.4 1.9,-4.3 1.9,-4.2 2,-4.1 1.9,-4.1 1.9,-4 1.9,-3.9 1.9,-3.8 1.9,-3.7 1.9,-3.7 1.9,-3.5 1.9,-3.5 1.9,-3.5 1.9,-3.3 1.9,-3.2 1.9,-3.2 1.9,-3.1 1.9,-3 1.9,-3 2,-2.8 1.9,-2.8 1.9,-2.7 1.9,-2.6 1.9,-2.6 1.9,-2.4 1.9,-2.3 1.9,-2.3 1.9,-2.2 1.9,-2.2 1.9,-2 1.9,-2 1.9,-1.9 1.9,-1.8 1.9,-1.8 2,-1.6 1.9,-1.6 1.9,-1.5 1.9,-1.4 1.9,-1.4 1.9,-1.2 1.9,-1.2 1.9,-1.1 1.9,-1.1 1.9,-0.9 1.9,-0.9 1.9,-0.8 1.9,-0.7 1.9,-0.6 1.9,-0.5 1.9,-0.5 2,-0.4 1.9,-0.3 1.9,-0.2 1.9,-0.2 1.9,0 1.9,0 1.9,0.1 1.9,0.2 1.9,0.2 1.9,0.3 1.9,0.5 1.9,0.4 1.9,0.6 1.9,0.7 1.9,0.7 1.9,0.8 2,0.9 1.9,1 1.9,1 1.9,1.1 1.9,1.3 1.9,1.2 1.9,1.4 1.9,1.5 1.9,1.5 1.9,1.6 1.9,1.7 1.9,1.8 1.9,1.8 1.9,1.9 1.9,2 1.9,2.1 2,2.2 1.9,2.2 1.9,2.4 1.9,2.3 1.9,2.5 1.9,2.5 1.9,2.7 1.9,2.7 1.9,2.8 1.9,2.9 m -160.9,71.2 1.9,-4.9 1.9,-4.9 1.9,-4.7 1.9,-4.7 1.9,-4.7 1.9,-4.5 2,-4.4 1.9,-4.4 1.9,-4.3 1.9,-4.2 1.9,-4.2 1.9,-4 1.9,-4 1.9,-3.9 1.9,-3.8 1.9,-3.7 1.9,-3.7 1.9,-3.6 1.9,-3.5 1.9,-3.4 1.9,-3.3 2,-3.2 1.9,-3.1 1.9,-3.1 1.9,-3.1 1.9,-2.9 1.9,-2.8 1.9,-2.8 1.9,-2.7 1.9,-2.6 1.9,-2.6 1.9,-2.4 1.9,-2.4 1.9,-2.3 1.9,-2.2 1.9,-2.2 1.9,-2 2,-2 1.9,-1.9 1.9,-1.8 1.9,-1.8 1.9,-1.6 1.9,-1.6 1.9,-1.5 1.9,-1.5 1.9,-1.3 1.9,-1.3 1.9,-1.1 1.9,-1.1 1.9,-1.1 1.9,-0.9 1.9,-0.9 1.9,-0.8 2,-0.7 1.9,-0.6 1.9,-0.5 1.9,-0.5 1.9,-0.4 1.9,-0.3 1.9,-0.2 1.9,-0.2 1.9,0 1.9,0 1.9,0.1 1.9,0.1 1.9,0.3 1.9,0.3 1.9,0.4 1.9,0.5 2,0.6 1.9,0.7 1.9,0.7 1.9,0.8 1.9,0.9 1.9,1 1.9,1 1.9,1.1 1.9,1.2 1.9,1.3 1.9,1.4 1.9,1.4 1.9,1.6 1.9,1.6 1.9,1.7 2,1.7 1.9,1.9 1.9,1.9 1.9,2 1.9,2.1 1.9,2.2 1.9,2.2 1.9,2.3 1.9,2.5 1.9,2.4 1.9,2.6 1.9,2.6 1.9,2.8 1.9,2.8 1.9,2.9 h 0.01"
           id="path4973"
           style="stroke:#ffc0cb;stroke-opacity:1" />
      </g>
    </g>
    <g
       style="color:#000000;fill:none;stroke:#ffffff;stroke-width:1;stroke-linecap:butt;stroke-linejoin:miter"
       id="g4975"
       transform="translate(102.85715,332.36218)">
      <path
         inkscape:connector-curvature="0"
         d="M 519.5,316.2 330.8,417.5 m -250.3,-76.4 250.3,76.4 0,-97.7 h 0.01"
         id="path4977"
         style="stroke:#ffffff" />
    </g>
    <g
       style="color:#808080;fill:#ffffff;stroke:#ffffff;stroke-width:1;stroke-linecap:butt;stroke-linejoin:miter"
       id="g4979"
       transform="translate(102.85715,332.36218)">
      <path
         inkscape:connector-curvature="0"
         d="M 205.7,379.3 394.3,278 m -94.3,50.7 0,-195.4 m -125.2,157.2 250.4,76.3 h 0.01"
         id="path4981"
         style="fill:#ffffff;stroke:#ffffff" />
    </g>
    <g
       id="g5397"
       transform="matrix(0.83560669,0,0,0.83560669,213.68021,137.69681)"
       style="fill:#ffffff">
      <g
         word-spacing="normal"
         letter-spacing="normal"
         font-size-adjust="none"
         font-stretch="normal"
         font-weight="normal"
         font-variant="normal"
         font-style="normal"
         stroke-miterlimit="10.433"
         xml:space="preserve"
         transform="matrix(1.0629921,0,0,-1.0629921,-186.02362,789.27165)"
         id="content"
         style="font-style:normal;font-variant:normal;font-weight:normal;font-stretch:normal;letter-spacing:normal;word-spacing:normal;text-anchor:start;fill:#ffffff;stroke:#000000;stroke-linecap:butt;stroke-linejoin:miter;stroke-miterlimit:10.43299960999999954;stroke-opacity:1;stroke-dasharray:none;stroke-dashoffset:0"><path
           id="path5400"
           d="m 462.14,410.34 0.25,0.27 0.24,0.25 0.24,0.25 0.23,0.24 0.22,0.23 0.22,0.22 0.21,0.22 0.2,0.21 0.2,0.2 0.2,0.19 0.19,0.19 0.19,0.19 0.18,0.17 0.19,0.18 0.35,0.33 0.34,0.32 0.33,0.3 0.33,0.29 0.32,0.29 0.65,0.56 0.33,0.29 0.33,0.28 c 0,0.05 3.08,2.69 4.88,4.49 4.73,4.64 5.83,7.03 5.83,7.21 0,0.5 -0.46,0.5 -0.55,0.5 -0.35,0 -0.5,-0.09 -0.75,-0.54 -1.49,-2.39 -2.53,-3.19 -3.74,-3.19 -1.2,0 -1.79,0.75 -2.54,1.59 -0.94,1.16 -1.78,2.14 -3.44,2.14 -3.73,0 -6.02,-4.62 -6.02,-5.67 0,-0.25 0.14,-0.54 0.6,-0.54 0.45,0 0.54,0.25 0.64,0.54 0.95,2.3 3.84,2.35 4.23,2.35 1.05,0 2,-0.36 3.14,-0.75 2,-0.75 2.55,-0.75 3.85,-0.75 -1.8,-2.14 -5.99,-5.74 -6.92,-6.53 l -4.49,-4.18 c -3.39,-3.34 -5.14,-6.18 -5.14,-6.53 0,-0.5 0.5,-0.5 0.59,-0.5 0.41,0 0.5,0.1 0.8,0.64 1.16,1.75 2.64,3.1 4.24,3.1 1.15,0 1.65,-0.46 2.89,-1.89 0.86,-1.05 1.75,-1.85 3.18,-1.85 4.94,0 7.83,6.33 7.83,7.67 0,0.25 -0.2,0.5 -0.59,0.5 -0.46,0 -0.55,-0.29 -0.71,-0.65 -1.14,-3.24 -4.32,-4.17 -5.98,-4.17 -0.98,0 -1.89,0.29 -2.94,0.64 -1.68,0.64 -2.43,0.84 -3.48,0.84 -0.1,0 -0.89,0 -1.35,-0.14 z"
           inkscape:connector-curvature="0"
           style="fill:#ffffff;stroke-width:0" /><path
           id="path5402"
           d="m 528.99,422.5 0.14,0 0.15,0 0.14,0 0.07,0.01 0.08,0 0.07,0.01 0.07,0.01 0.07,0.01 0.07,0.01 0.07,0.01 0.06,0.02 0.07,0.02 0.06,0.02 0.06,0.02 0.06,0.03 0.06,0.03 0.05,0.04 0.05,0.03 0.05,0.05 0.04,0.04 0.04,0.05 0.02,0.03 0.02,0.03 0.01,0.02 0.02,0.03 0.01,0.03 0.01,0.04 0.02,0.03 0.01,0.04 0.01,0.03 0.01,0.04 0,0.04 0.01,0.04 0,0.04 0.01,0.04 0,0.04 0,0.05 c 0,1 -0.95,1 -1.64,1 H 499.2 c -0.71,0 -1.65,0 -1.65,-1 0,-0.98 0.94,-0.98 1.69,-0.98 z"
           inkscape:connector-curvature="0"
           style="fill:#ffffff;stroke-width:0" /><path
           id="path5404"
           d="m 529.04,412.82 0.06,0 0.07,0 0.14,0.01 0.14,0 0.07,0 0.07,0.01 0.07,0.01 0.06,0 0.07,0.01 0.07,0.02 0.07,0.01 0.06,0.02 0.07,0.02 0.06,0.02 0.06,0.02 0.05,0.03 0.06,0.03 0.05,0.04 0.05,0.04 0.05,0.04 0.04,0.05 0.02,0.02 0.02,0.03 0.02,0.02 0.02,0.03 0.01,0.03 0.02,0.03 0.01,0.03 0.01,0.03 0.02,0.04 0.01,0.03 0.01,0.04 0.01,0.04 0,0.04 0.01,0.04 0,0.04 0.01,0.04 0,0.05 0,0.04 c 0,1 -0.95,1 -1.69,1 h -29.75 c -0.75,0 -1.69,0 -1.69,-1 0,-1 0.94,-1 1.65,-1 z"
           inkscape:connector-curvature="0"
           style="fill:#ffffff;stroke-width:0" /><path
           id="path5406"
           d="m 563.95,421.25 0.03,0.13 0.04,0.15 0.04,0.16 0.05,0.18 0.05,0.19 0.06,0.21 0.06,0.22 0.08,0.22 0.08,0.23 0.08,0.24 0.1,0.25 0.1,0.24 0.11,0.25 0.12,0.25 0.13,0.25 0.14,0.25 0.15,0.24 0.15,0.24 0.17,0.23 0.18,0.22 0.19,0.22 0.19,0.2 0.21,0.19 0.22,0.18 0.24,0.16 0.24,0.14 0.13,0.07 0.13,0.06 0.13,0.05 0.14,0.05 0.14,0.05 0.14,0.04 0.14,0.03 0.15,0.03 0.15,0.02 0.16,0.02 0.16,0.01 0.16,0 c 0.25,0 1.44,0 2.49,-0.64 -1.4,-0.25 -2.4,-1.5 -2.4,-2.69 0,-0.79 0.55,-1.75 1.9,-1.75 1.09,0 2.68,0.89 2.68,2.89 0,2.6 -2.94,3.28 -4.62,3.28 -2.89,0 -4.64,-2.64 -5.24,-3.78 -1.25,3.28 -3.93,3.78 -5.37,3.78 -5.19,0 -8.03,-6.42 -8.03,-7.67 0,-0.5 0.5,-0.5 0.61,-0.5 0.39,0 0.54,0.11 0.64,0.55 1.68,5.28 4.98,6.53 6.67,6.53 0.95,0 2.69,-0.44 2.69,-3.33 0,-1.54 -0.85,-4.89 -2.69,-11.86 -0.8,-3.09 -2.53,-5.18 -4.74,-5.18 -0.29,0 -1.43,0 -2.48,0.65 1.25,0.24 2.34,1.28 2.34,2.69 0,1.34 -1.09,1.73 -1.84,1.73 -1.5,0 -2.75,-1.29 -2.75,-2.89 0,-2.28 2.5,-3.28 4.69,-3.28 3.29,0 5.08,3.49 5.23,3.78 0.6,-1.84 2.39,-3.78 5.38,-3.78 5.14,0 7.98,6.42 7.98,7.67 0,0.5 -0.45,0.5 -0.61,0.5 -0.44,0 -0.54,-0.2 -0.64,-0.54 -1.64,-5.33 -5.03,-6.53 -6.62,-6.53 -1.96,0 -2.75,1.59 -2.75,3.29 0,1.1 0.29,2.19 0.86,4.38 z"
           inkscape:connector-curvature="0"
           style="fill:#ffffff;stroke-width:0" /><path
           id="path5408"
           d="m 593.35,430.54 h -1.18 c -0.1,-0.76 -0.45,-2.83 -0.91,-3.17 -0.26,-0.2 -2.95,-0.2 -3.44,-0.2 h -6.42 c 3.66,3.23 4.88,4.2 6.97,5.84 2.58,2.06 4.98,4.22 4.98,7.53 0,4.22 -3.68,6.8 -8.15,6.8 -4.31,0 -7.25,-3.03 -7.25,-6.23 0,-1.79 1.5,-1.96 1.86,-1.96 0.83,0 1.84,0.6 1.84,1.85 0,0.62 -0.25,1.84 -2.06,1.84 1.08,2.47 3.45,3.23 5.09,3.23 3.49,0 5.3,-2.7 5.3,-5.53 0,-3.03 -2.16,-5.43 -3.28,-6.68 l -8.39,-8.3 c -0.36,-0.31 -0.36,-0.39 -0.36,-1.36 h 14.36 z"
           inkscape:connector-curvature="0"
           style="fill:#ffffff;stroke-width:0" /><path
           id="path5410"
           d="m 642.07,417.65 0.15,0 0.16,0 0.16,0.01 0.08,0 0.08,0.01 0.07,0 0.08,0.01 0.07,0.01 0.07,0.01 0.07,0.02 0.07,0.02 0.06,0.02 0.07,0.02 0.06,0.02 0.06,0.03 0.05,0.03 0.05,0.04 0.05,0.03 0.05,0.05 0.04,0.04 0.04,0.05 0.02,0.03 0.02,0.03 0.01,0.03 0.02,0.03 0.01,0.03 0.01,0.03 0.01,0.04 0.02,0.03 0,0.04 0.01,0.04 0.01,0.04 0.01,0.04 0,0.04 0,0.04 0.01,0.05 0,0.04 c 0,1 -0.91,1 -1.75,1 h -26.96 c -0.84,0 -1.73,0 -1.73,-1 0,-1 0.89,-1 1.73,-1 z"
           inkscape:connector-curvature="0"
           style="fill:#ffffff;stroke-width:0" /><path
           id="path5412"
           d="m 683.26,425.18 0.01,0.04 0,0.03 0.02,0.06 0.02,0.05 0.01,0.06 0.01,0.05 0.01,0.04 0.02,0.05 0.01,0.04 0.01,0.04 0,0.04 0.01,0.04 0.01,0.04 0.01,0.03 0,0.03 0.01,0.03 0,0.03 0.01,0.03 0,0.03 0.01,0.05 0,0.06 0,0.05 0,0.05 0,0.05 0,0.03 0,0.03 0.01,0.03 0,0.03 c 0,0.91 -0.69,1.35 -1.44,1.35 -0.5,0 -1.3,-0.3 -1.75,-1.05 -0.1,-0.25 -0.5,-1.78 -0.69,-2.69 -0.36,-1.29 -0.7,-2.64 -1,-3.98 l -2.25,-8.97 c -0.19,-0.75 -2.33,-4.23 -5.62,-4.23 -2.54,0 -3.1,2.18 -3.1,4.03 0,2.29 0.86,5.39 2.55,9.76 0.8,2.05 1,2.6 1,3.6 0,2.23 -1.6,4.07 -4.1,4.07 -4.73,0 -6.57,-7.21 -6.57,-7.67 0,-0.5 0.5,-0.5 0.61,-0.5 0.5,0 0.54,0.11 0.79,0.91 1.35,4.69 3.33,6.17 5.03,6.17 0.39,0 1.25,0 1.25,-1.59 0,-1.25 -0.5,-2.53 -0.86,-3.49 -1.98,-5.28 -2.89,-8.12 -2.89,-10.47 0,-4.42 3.14,-5.92 6.08,-5.92 1.96,0 3.64,0.85 5.03,2.24 -0.64,-2.58 -1.23,-5.03 -3.23,-7.68 -1.3,-1.68 -3.19,-3.14 -5.49,-3.14 -0.68,0 -2.93,0.16 -3.78,2.1 0.8,0 1.46,0 2.14,0.61 0.5,0.43 1,1.09 1,2.03 0,1.55 -1.34,1.75 -1.84,1.75 -1.14,0 -2.8,-0.8 -2.8,-3.24 0,-2.5 2.21,-4.34 5.28,-4.34 5.15,0 10.27,4.55 11.68,10.17 z"
           inkscape:connector-curvature="0"
           style="fill:#ffffff;stroke-width:0" /><path
           id="path5414"
           d="m 702.91,430.54 h -1.18 c -0.1,-0.76 -0.46,-2.83 -0.91,-3.17 -0.27,-0.2 -2.95,-0.2 -3.44,-0.2 h -6.42 c 3.66,3.23 4.88,4.2 6.97,5.84 2.58,2.06 4.98,4.22 4.98,7.53 0,4.22 -3.68,6.8 -8.15,6.8 -4.31,0 -7.25,-3.03 -7.25,-6.23 0,-1.79 1.5,-1.96 1.86,-1.96 0.83,0 1.84,0.6 1.84,1.85 0,0.62 -0.25,1.84 -2.06,1.84 1.08,2.47 3.45,3.23 5.09,3.23 3.49,0 5.3,-2.7 5.3,-5.53 0,-3.03 -2.16,-5.43 -3.28,-6.68 l -8.39,-8.3 c -0.36,-0.31 -0.36,-0.39 -0.36,-1.36 h 14.36 z"
           inkscape:connector-curvature="0"
           style="fill:#ffffff;stroke-width:0" /></g>    </g>
  </g>
</svg>
