<?xml version="1.0" encoding="UTF-8" standalone="no"?>
<svg
   xmlns:dc="http://purl.org/dc/elements/1.1/"
   xmlns:cc="http://creativecommons.org/ns#"
   xmlns:rdf="http://www.w3.org/1999/02/22-rdf-syntax-ns#"
   xmlns:svg="http://www.w3.org/2000/svg"
   xmlns="http://www.w3.org/2000/svg"
   xmlns:xlink="http://www.w3.org/1999/xlink"
   xmlns:sodipodi="http://sodipodi.sourceforge.net/DTD/sodipodi-0.dtd"
   xmlns:inkscape="http://www.inkscape.org/namespaces/inkscape"
   width="600"
   height="480"
   viewBox="0 0 600 480"
   id="svg2"
   version="1.1"
   inkscape:version="0.48.4 r9939"
   sodipodi:docname="romberg-error.svg">
  <metadata
     id="metadata212">
    <rdf:RDF>
      <cc:Work
         rdf:about="">
        <dc:format>image/svg+xml</dc:format>
        <dc:type
           rdf:resource="http://purl.org/dc/dcmitype/StillImage" />
        <dc:title>Gnuplot</dc:title>
      </cc:Work>
    </rdf:RDF>
  </metadata>
  <defs
     id="defs210">
    <defs
       id="defs11">
      <circle
         stroke-width="0.5"
         r="0.5"
         id="gpDot" />
      <path
         d="M-1,0 h2 M0,-1 v2"
         stroke="currentColor"
         stroke-width="0.222"
         id="gpPt0" />
      <path
         d="M-1,-1 L1,1 M1,-1 L-1,1"
         stroke="currentColor"
         stroke-width="0.222"
         id="gpPt1" />
      <path
         d="M-1,0 L1,0 M0,-1 L0,1 M-1,-1 L1,1 M-1,1 L1,-1"
         stroke="currentColor"
         stroke-width="0.222"
         id="gpPt2" />
      <rect
         height="2"
         width="2"
         y="-1"
         x="-1"
         stroke="currentColor"
         stroke-width="0.222"
         id="gpPt3" />
      <rect
         height="2"
         width="2"
         y="-1"
         x="-1"
         fill="currentColor"
         stroke="currentColor"
         stroke-width="0.222"
         id="gpPt4" />
      <circle
         r="1"
         cy="0"
         cx="0"
         stroke="currentColor"
         stroke-width="0.222"
         id="gpPt5" />
      <use
         stroke="none"
         fill="currentColor"
         id="gpPt6"
         xlink:href="#gpPt5" />
      <path
         d="M0,-1.33 L-1.33,0.67 L1.33,0.67 z"
         stroke="currentColor"
         stroke-width="0.222"
         id="gpPt7" />
      <use
         stroke="none"
         fill="currentColor"
         id="gpPt8"
         xlink:href="#gpPt7" />
      <use
         transform="rotate(180)"
         stroke="currentColor"
         id="gpPt9"
         xlink:href="#gpPt7" />
      <use
         stroke="none"
         fill="currentColor"
         id="gpPt10"
         xlink:href="#gpPt9" />
      <use
         transform="rotate(45)"
         stroke="currentColor"
         id="gpPt11"
         xlink:href="#gpPt3" />
      <use
         stroke="none"
         fill="currentColor"
         id="gpPt12"
         xlink:href="#gpPt11" />
    </defs>
  </defs>
  <sodipodi:namedview
     pagecolor="#000000"
     bordercolor="#666666"
     borderopacity="1"
     objecttolerance="10"
     gridtolerance="10"
     guidetolerance="10"
     inkscape:pageopacity="0"
     inkscape:pageshadow="2"
     inkscape:window-width="1366"
     inkscape:window-height="746"
     id="namedview208"
     showgrid="false"
     inkscape:zoom="0.98333333"
     inkscape:cx="632.20339"
     inkscape:cy="205.78296"
     inkscape:window-x="-8"
     inkscape:window-y="-8"
     inkscape:window-maximized="1"
     inkscape:current-layer="svg2" />
  <title
     id="title4">Gnuplot</title>
  <desc
     id="desc6">Produced by GNUPLOT 4.6 patchlevel 0 </desc>
  <rect
     style="fill:none"
     id="rect9"
     height="480"
     width="600"
     y="0"
     x="0" />
  <g
     id="g27"
     style="color:#ffffff;fill:none;stroke:currentColor;stroke-width:1;stroke-linecap:butt;stroke-linejoin:miter" />
  <path
     style="color:#000000;fill:none;stroke:#ffffff;stroke-width:1;stroke-linecap:butt;stroke-linejoin:miter"
     d="m 78.8,444 9,0 m 487.2,0 -9,0 h 0.01"
     id="path31"
     inkscape:connector-curvature="0" />
  <g
     transform="translate(70.5,448.5)"
     style="font-size:15px;text-anchor:end;color:#000000;fill:#ffffff;stroke:none;stroke-width:1;stroke-linecap:butt;stroke-linejoin:miter;font-family:Arial"
     id="g33">
    <text
       style="stroke:none;fill:#ffffff"
       id="text35">1e-18</text>
  </g>
  <path
     style="color:#000000;fill:none;stroke:#ffffff;stroke-width:1;stroke-linecap:butt;stroke-linejoin:miter"
     d="m 78.8,420.3 4.5,0 m 491.7,0 -4.5,0 m -491.7,-23.8 9,0 m 487.2,0 -9,0 h 0.01"
     id="path37"
     inkscape:connector-curvature="0" />
  <g
     transform="translate(70.5,401)"
     style="font-size:15px;text-anchor:end;color:#000000;fill:#ffffff;stroke:none;stroke-width:1;stroke-linecap:butt;stroke-linejoin:miter;font-family:Arial"
     id="g39">
    <text
       style="stroke:none;fill:#ffffff"
       id="text41">1e-16</text>
  </g>
  <path
     style="color:#000000;fill:none;stroke:#ffffff;stroke-width:1;stroke-linecap:butt;stroke-linejoin:miter"
     d="m 78.8,372.8 4.5,0 m 491.7,0 -4.5,0 M 78.8,349 l 9,0 m 487.2,0 -9,0 h 0.01"
     id="path43"
     inkscape:connector-curvature="0" />
  <g
     transform="translate(70.5,353.5)"
     style="font-size:15px;text-anchor:end;color:#000000;fill:#ffffff;stroke:none;stroke-width:1;stroke-linecap:butt;stroke-linejoin:miter;font-family:Arial"
     id="g45">
    <text
       style="stroke:none;fill:#ffffff"
       id="text47">1e-14</text>
  </g>
  <path
     style="color:#000000;fill:none;stroke:#ffffff;stroke-width:1;stroke-linecap:butt;stroke-linejoin:miter"
     d="m 78.8,325.3 4.5,0 m 491.7,0 -4.5,0 m -491.7,-23.7 9,0 m 487.2,0 -9,0 h 0.01"
     id="path49"
     inkscape:connector-curvature="0" />
  <g
     transform="translate(70.5,306.1)"
     style="font-size:15px;text-anchor:end;color:#000000;fill:#ffffff;stroke:none;stroke-width:1;stroke-linecap:butt;stroke-linejoin:miter;font-family:Arial"
     id="g51">
    <text
       style="stroke:none;fill:#ffffff"
       id="text53">1e-12</text>
  </g>
  <path
     style="color:#000000;fill:none;stroke:#ffffff;stroke-width:1;stroke-linecap:butt;stroke-linejoin:miter"
     d="m 78.8,277.8 4.5,0 m 491.7,0 -4.5,0 m -491.7,-23.7 9,0 m 487.2,0 -9,0 h 0.01"
     id="path55"
     inkscape:connector-curvature="0" />
  <g
     transform="translate(70.5,258.6)"
     style="font-size:15px;text-anchor:end;color:#000000;fill:#ffffff;stroke:none;stroke-width:1;stroke-linecap:butt;stroke-linejoin:miter;font-family:Arial"
     id="g57">
    <text
       style="stroke:none;fill:#ffffff"
       id="text59">1e-10</text>
  </g>
  <path
     style="color:#000000;fill:none;stroke:#ffffff;stroke-width:1;stroke-linecap:butt;stroke-linejoin:miter"
     d="m 78.8,230.4 4.5,0 m 491.7,0 -4.5,0 m -491.7,-23.8 9,0 m 487.2,0 -9,0 h 0.01"
     id="path61"
     inkscape:connector-curvature="0" />
  <g
     transform="translate(70.5,211.1)"
     style="font-size:15px;text-anchor:end;color:#000000;fill:#ffffff;stroke:none;stroke-width:1;stroke-linecap:butt;stroke-linejoin:miter;font-family:Arial"
     id="g63">
    <text
       style="stroke:none;fill:#ffffff"
       id="text65">1e-08</text>
  </g>
  <path
     style="color:#000000;fill:none;stroke:#ffffff;stroke-width:1;stroke-linecap:butt;stroke-linejoin:miter"
     d="m 78.8,182.9 4.5,0 m 491.7,0 -4.5,0 m -491.7,-23.8 9,0 m 487.2,0 -9,0 h 0.01"
     id="path67"
     inkscape:connector-curvature="0" />
  <g
     transform="translate(70.5,163.6)"
     style="font-size:15px;text-anchor:end;color:#000000;fill:#ffffff;stroke:none;stroke-width:1;stroke-linecap:butt;stroke-linejoin:miter;font-family:Arial"
     id="g69">
    <text
       style="stroke:none;fill:#ffffff"
       id="text71">1e-06</text>
  </g>
  <path
     style="color:#000000;fill:none;stroke:#ffffff;stroke-width:1;stroke-linecap:butt;stroke-linejoin:miter"
     d="m 78.8,135.4 4.5,0 m 491.7,0 -4.5,0 m -491.7,-23.7 9,0 m 487.2,0 -9,0 h 0.01"
     id="path73"
     inkscape:connector-curvature="0" />
  <g
     transform="translate(70.5,116.2)"
     style="font-size:15px;text-anchor:end;color:#000000;fill:#ffffff;stroke:none;stroke-width:1;stroke-linecap:butt;stroke-linejoin:miter;font-family:Arial"
     id="g75">
    <text
       style="stroke:none;fill:#ffffff"
       id="text77">0.0001</text>
  </g>
  <path
     style="color:#000000;fill:none;stroke:#ffffff;stroke-width:1;stroke-linecap:butt;stroke-linejoin:miter"
     d="m 78.8,87.9 4.5,0 m 491.7,0 -4.5,0 M 78.8,64.2 l 9,0 m 487.2,0 -9,0 h 0.01"
     id="path79"
     inkscape:connector-curvature="0" />
  <g
     transform="translate(70.5,68.7)"
     style="font-size:15px;text-anchor:end;color:#000000;fill:#ffffff;stroke:none;stroke-width:1;stroke-linecap:butt;stroke-linejoin:miter;font-family:Arial"
     id="g81">
    <text
       style="stroke:none;fill:#ffffff"
       id="text83">0.01</text>
  </g>
  <path
     style="color:#000000;fill:none;stroke:#ffffff;stroke-width:1;stroke-linecap:butt;stroke-linejoin:miter"
     d="m 78.8,40.4 4.5,0 m 491.7,0 -4.5,0 M 78.8,16.7 l 9,0 m 487.2,0 -9,0 h 0.01"
     id="path85"
     inkscape:connector-curvature="0" />
  <g
     transform="translate(70.5,21.2)"
     style="font-size:15px;text-anchor:end;color:#000000;fill:#ffffff;stroke:none;stroke-width:1;stroke-linecap:butt;stroke-linejoin:miter;font-family:Arial"
     id="g87">
    <text
       style="stroke:none;fill:#ffffff"
       id="text89">1</text>
  </g>
  <path
     style="color:#000000;fill:none;stroke:#ffffff;stroke-width:1;stroke-linecap:butt;stroke-linejoin:miter"
     d="m 575,444 0,-9 m 0,-418.3 0,9 h 0.01"
     id="path91"
     inkscape:connector-curvature="0" />
  <g
     transform="translate(575,466.5)"
     style="font-size:15px;text-anchor:middle;color:#000000;fill:#ffffff;stroke:none;stroke-width:1;stroke-linecap:butt;stroke-linejoin:miter;font-family:Arial"
     id="g93">
    <text
       style="stroke:none;fill:#ffffff"
       id="text95">1e-10</text>
  </g>
  <path
     style="color:#000000;fill:none;stroke:#ffffff;stroke-width:1;stroke-linecap:butt;stroke-linejoin:miter"
     d="m 525.4,444 0,-4.5 m 0,-422.8 0,4.5 m -49.6,422.8 0,-9 m 0,-418.3 0,9 h 0.01"
     id="path97"
     inkscape:connector-curvature="0" />
  <g
     transform="translate(475.8,466.5)"
     style="font-size:15px;text-anchor:middle;color:#000000;fill:#ffffff;stroke:none;stroke-width:1;stroke-linecap:butt;stroke-linejoin:miter;font-family:Arial"
     id="g99">
    <text
       style="stroke:none;fill:#ffffff"
       id="text101">1e-08</text>
  </g>
  <path
     style="color:#000000;fill:none;stroke:#ffffff;stroke-width:1;stroke-linecap:butt;stroke-linejoin:miter"
     d="m 426.1,444 0,-4.5 m 0,-422.8 0,4.5 m -49.6,422.8 0,-9 m 0,-418.3 0,9 h 0.01"
     id="path103"
     inkscape:connector-curvature="0" />
  <g
     transform="translate(376.5,466.5)"
     style="font-size:15px;text-anchor:middle;color:#000000;fill:#ffffff;stroke:none;stroke-width:1;stroke-linecap:butt;stroke-linejoin:miter;font-family:Arial"
     id="g105">
    <text
       style="stroke:none;fill:#ffffff"
       id="text107">1e-06</text>
  </g>
  <path
     style="color:#000000;fill:none;stroke:#ffffff;stroke-width:1;stroke-linecap:butt;stroke-linejoin:miter"
     d="m 326.9,444 0,-4.5 m 0,-422.8 0,4.5 m -49.6,422.8 0,-9 m 0,-418.3 0,9 h 0.01"
     id="path109"
     inkscape:connector-curvature="0" />
  <g
     transform="translate(277.3,466.5)"
     style="font-size:15px;text-anchor:middle;color:#000000;fill:#ffffff;stroke:none;stroke-width:1;stroke-linecap:butt;stroke-linejoin:miter;font-family:Arial"
     id="g111">
    <text
       style="stroke:none;fill:#ffffff"
       id="text113">0.0001</text>
  </g>
  <path
     style="color:#000000;fill:none;stroke:#ffffff;stroke-width:1;stroke-linecap:butt;stroke-linejoin:miter"
     d="m 227.7,444 0,-4.5 m 0,-422.8 0,4.5 M 178,444 l 0,-9 m 0,-418.3 0,9 h 0.01"
     id="path115"
     inkscape:connector-curvature="0" />
  <g
     transform="translate(178,466.5)"
     style="font-size:15px;text-anchor:middle;color:#000000;fill:#ffffff;stroke:none;stroke-width:1;stroke-linecap:butt;stroke-linejoin:miter;font-family:Arial"
     id="g117">
    <text
       style="stroke:none;fill:#ffffff"
       id="text119">0.01</text>
  </g>
  <path
     style="color:#000000;fill:none;stroke:#ffffff;stroke-width:1;stroke-linecap:butt;stroke-linejoin:miter"
     d="m 128.4,444 0,-4.5 m 0,-422.8 0,4.5 M 78.8,444 l 0,-9 m 0,-418.3 0,9 h 0.01"
     id="path121"
     inkscape:connector-curvature="0" />
  <g
     transform="translate(78.8,466.5)"
     style="font-size:15px;text-anchor:middle;color:#000000;fill:#ffffff;stroke:none;stroke-width:1;stroke-linecap:butt;stroke-linejoin:miter;font-family:Arial"
     id="g123">
    <text
       style="stroke:none;fill:#ffffff"
       id="text125">1</text>
  </g>
  <path
     style="color:#000000;fill:none;stroke:#ffffff;stroke-width:1;stroke-linecap:butt;stroke-linejoin:miter"
     d="m 78.8,16.7 0,427.3 496.2,0 0,-427.3 -496.2,0 z m 0,0 h 0.01"
     id="path127"
     inkscape:connector-curvature="0" />
  <g
     id="gnuplot_plot_1">
    <title
       id="title130">gnuplot_plot_1</title>
    <g
       id="g132"
       style="color:#ff0000;fill:none;stroke:currentColor;stroke-width:1;stroke-linecap:butt;stroke-linejoin:miter">
      <path
         style="stroke:#ffc0cb"
         inkscape:connector-curvature="0"
         id="path134"
         d="m 128.4,96.9 49.6,47.5 49.7,47.5 49.6,47.5 49.6,47.5 49.6,42.3 49.6,15 49.7,-23.6 49.6,13 h 0.01" />
      <use
         height="480"
         width="600"
         y="0"
         x="0"
         style="color:#ffc0cb"
         id="use136"
         transform="matrix(4.5,0,0,4.5,128.4,96.9)"
         xlink:href="#gpPt6" />
      <use
         height="480"
         width="600"
         y="0"
         x="0"
         style="color:#ffc0cb"
         id="use138"
         transform="matrix(4.5,0,0,4.5,178,144.4)"
         xlink:href="#gpPt6" />
      <use
         height="480"
         width="600"
         y="0"
         x="0"
         style="color:#ffc0cb"
         id="use140"
         transform="matrix(4.5,0,0,4.5,227.7,191.9)"
         xlink:href="#gpPt6" />
      <use
         height="480"
         width="600"
         y="0"
         x="0"
         style="color:#ffc0cb"
         id="use142"
         transform="matrix(4.5,0,0,4.5,277.3,239.4)"
         xlink:href="#gpPt6" />
      <use
         height="480"
         width="600"
         y="0"
         x="0"
         style="color:#ffc0cb"
         id="use144"
         transform="matrix(4.5,0,0,4.5,326.9,286.9)"
         xlink:href="#gpPt6" />
      <use
         height="480"
         width="600"
         y="0"
         x="0"
         style="color:#ffc0cb"
         id="use146"
         transform="matrix(4.5,0,0,4.5,376.5,329.2)"
         xlink:href="#gpPt6" />
      <use
         height="480"
         width="600"
         y="0"
         x="0"
         style="color:#ffc0cb"
         id="use148"
         transform="matrix(4.5,0,0,4.5,426.1,344.2)"
         xlink:href="#gpPt6" />
      <use
         height="480"
         width="600"
         y="0"
         x="0"
         style="color:#ffc0cb"
         id="use150"
         transform="matrix(4.5,0,0,4.5,475.8,320.6)"
         xlink:href="#gpPt6" />
      <use
         height="480"
         width="600"
         y="0"
         x="0"
         style="color:#ffc0cb"
         id="use152"
         transform="matrix(4.5,0,0,4.5,525.4,333.6)"
         xlink:href="#gpPt6" />
    </g>
  </g>
  <g
     id="gnuplot_plot_2">
    <title
       id="title155">gnuplot_plot_2</title>
    <g
       id="g157"
       style="color:#008000;fill:none;stroke:currentColor;stroke-width:1;stroke-linecap:butt;stroke-linejoin:miter">
      <path
         style="stroke:#add8e6"
         inkscape:connector-curvature="0"
         id="path159"
         d="m 128.4,206.7 49.6,142.5 49.7,32 49.6,-13.7 49.6,-11.3 49.6,-21.4 49.6,0.3 49.7,5.6 49.6,-13.1 h 0.01" />
      <use
         height="480"
         width="600"
         y="0"
         x="0"
         style="color:#add8e6"
         id="use161"
         transform="matrix(4.5,0,0,4.5,128.4,206.7)"
         xlink:href="#gpPt6" />
      <use
         height="480"
         width="600"
         y="0"
         x="0"
         style="color:#add8e6"
         id="use163"
         transform="matrix(4.5,0,0,4.5,178,349.2)"
         xlink:href="#gpPt6" />
      <use
         height="480"
         width="600"
         y="0"
         x="0"
         style="color:#add8e6"
         id="use165"
         transform="matrix(4.5,0,0,4.5,227.7,381.2)"
         xlink:href="#gpPt6" />
      <use
         height="480"
         width="600"
         y="0"
         x="0"
         style="color:#add8e6"
         id="use167"
         transform="matrix(4.5,0,0,4.5,277.3,367.5)"
         xlink:href="#gpPt6" />
      <use
         height="480"
         width="600"
         y="0"
         x="0"
         style="color:#add8e6"
         id="use169"
         transform="matrix(4.5,0,0,4.5,326.9,356.2)"
         xlink:href="#gpPt6" />
      <use
         height="480"
         width="600"
         y="0"
         x="0"
         style="color:#add8e6"
         id="use171"
         transform="matrix(4.5,0,0,4.5,376.5,334.8)"
         xlink:href="#gpPt6" />
      <use
         height="480"
         width="600"
         y="0"
         x="0"
         style="color:#add8e6"
         id="use173"
         transform="matrix(4.5,0,0,4.5,426.1,335.1)"
         xlink:href="#gpPt6" />
      <use
         height="480"
         width="600"
         y="0"
         x="0"
         style="color:#add8e6"
         id="use175"
         transform="matrix(4.5,0,0,4.5,475.8,340.7)"
         xlink:href="#gpPt6" />
      <use
         height="480"
         width="600"
         y="0"
         x="0"
         style="color:#add8e6"
         id="use177"
         transform="matrix(4.5,0,0,4.5,525.4,327.6)"
         xlink:href="#gpPt6" />
    </g>
  </g>
  <g
     id="gnuplot_plot_3">
    <title
       id="title180">gnuplot_plot_3</title>
    <g
       id="g182"
       style="color:#0000ff;fill:none;stroke:currentColor;stroke-width:1;stroke-linecap:butt;stroke-linejoin:miter">
      <path
         style="stroke:#90ee90"
         inkscape:connector-curvature="0"
         id="path184"
         d="m 93.7,80.4 15,28.5 14.9,44.7 14.9,65.7 15,56.6 14.9,67.4 0,100.7 m 29.9,0 0,-68.6 14.9,20 15,-27.9 h 0.01" />
      <use
         height="480"
         width="600"
         y="0"
         x="0"
         style="color:#90ee90"
         id="use186"
         transform="matrix(4.5,0,0,4.5,93.7,80.4)"
         xlink:href="#gpPt6" />
      <use
         height="480"
         width="600"
         y="0"
         x="0"
         style="color:#90ee90"
         id="use188"
         transform="matrix(4.5,0,0,4.5,108.7,108.9)"
         xlink:href="#gpPt6" />
      <use
         height="480"
         width="600"
         y="0"
         x="0"
         style="color:#90ee90"
         id="use190"
         transform="matrix(4.5,0,0,4.5,123.6,153.6)"
         xlink:href="#gpPt6" />
      <use
         height="480"
         width="600"
         y="0"
         x="0"
         style="color:#90ee90"
         id="use192"
         transform="matrix(4.5,0,0,4.5,138.5,219.3)"
         xlink:href="#gpPt6" />
      <use
         height="480"
         width="600"
         y="0"
         x="0"
         style="color:#90ee90"
         id="use194"
         transform="matrix(4.5,0,0,4.5,153.5,275.9)"
         xlink:href="#gpPt6" />
      <use
         height="480"
         width="600"
         y="0"
         x="0"
         style="color:#90ee90"
         id="use196"
         transform="matrix(4.5,0,0,4.5,168.4,343.3)"
         xlink:href="#gpPt6" />
      <use
         height="480"
         width="600"
         y="0"
         x="0"
         style="color:#90ee90"
         id="use198"
         transform="matrix(4.5,0,0,4.5,198.3,375.4)"
         xlink:href="#gpPt6" />
      <use
         height="480"
         width="600"
         y="0"
         x="0"
         style="color:#90ee90"
         id="use200"
         transform="matrix(4.5,0,0,4.5,213.2,395.4)"
         xlink:href="#gpPt6" />
      <use
         height="480"
         width="600"
         y="0"
         x="0"
         style="color:#90ee90"
         id="use202"
         transform="matrix(4.5,0,0,4.5,228.2,367.5)"
         xlink:href="#gpPt6" />
    </g>
  </g>
  <g
     id="g204"
     style="color:#000000;fill:none;stroke:#ffffff;stroke-width:1;stroke-linecap:butt;stroke-linejoin:miter">
    <path
       inkscape:connector-curvature="0"
       id="path206"
       d="m 78.8,16.7 0,427.3 496.2,0 0,-427.3 -496.2,0 z m 0,0 h 0.01"
       style="stroke:#ffffff" />
  </g>
  <text
     xml:space="preserve"
     style="font-size:27.86513519px;font-style:normal;font-variant:normal;font-weight:normal;font-stretch:normal;text-align:start;line-height:125%;letter-spacing:0px;word-spacing:0px;writing-mode:lr-tb;text-anchor:start;fill:#90ee90;fill-opacity:1;stroke:none;font-family:HGGothicM;-inkscape-font-specification:HGGothicM"
     x="85.405609"
     y="68.138657"
     id="text3395"
     sodipodi:linespacing="125%"><tspan
       sodipodi:role="line"
       id="tspan3397"
       x="85.405609"
       y="68.138657">ロンバーグ</tspan></text>
  <text
     xml:space="preserve"
     style="font-size:27.86513519000000000px;font-style:normal;font-variant:normal;font-weight:normal;font-stretch:normal;text-align:start;line-height:125%;letter-spacing:0px;word-spacing:0px;writing-mode:lr-tb;text-anchor:start;fill:#ffc0cb;fill-opacity:1;stroke:none;font-family:HGGothicM;-inkscape-font-specification:HGGothicM"
     x="184.14108"
     y="129.17844"
     id="text3399"
     sodipodi:linespacing="125%"><tspan
       sodipodi:role="line"
       id="tspan3401"
       x="184.14108"
       y="129.17844">台形公式</tspan><tspan
       sodipodi:role="line"
       x="184.14108"
       y="164.00986"
       id="tspan3403" /></text>
  <text
     xml:space="preserve"
     style="font-size:27.86513519000000000px;font-style:normal;font-variant:normal;font-weight:normal;font-stretch:normal;text-align:start;line-height:125%;letter-spacing:0px;word-spacing:0px;writing-mode:lr-tb;text-anchor:start;fill:#add8e6;fill-opacity:1;stroke:none;font-family:HGGothicM;-inkscape-font-specification:HGGothicM"
     x="332.67279"
     y="380.69629"
     id="text3405"
     sodipodi:linespacing="125%"><tspan
       sodipodi:role="line"
       id="tspan3407"
       x="332.67279"
       y="380.69629">シンプソン</tspan><tspan
       sodipodi:role="line"
       x="332.67279"
       y="415.52771"
       id="tspan3409" /></text>
  <text
     xml:space="preserve"
     style="font-size:40px;font-style:normal;font-variant:normal;font-weight:normal;font-stretch:normal;text-align:start;line-height:125%;letter-spacing:0px;word-spacing:0px;writing-mode:lr-tb;text-anchor:start;fill:#000000;fill-opacity:1;stroke:none;font-family:HGGothicM;-inkscape-font-specification:HGGothicM"
     x="323.38983"
     y="206.44067"
     id="text4179"
     sodipodi:linespacing="125%"><tspan
       sodipodi:role="line"
       x="323.38983"
       y="206.44067"
       style="fill:#ffffff"
       id="tspan4183" /></text>
</svg>
