<?xml version="1.0" encoding="UTF-8" standalone="no"?>
<svg
   xmlns:dc="http://purl.org/dc/elements/1.1/"
   xmlns:cc="http://creativecommons.org/ns#"
   xmlns:rdf="http://www.w3.org/1999/02/22-rdf-syntax-ns#"
   xmlns:svg="http://www.w3.org/2000/svg"
   xmlns="http://www.w3.org/2000/svg"
   xmlns:xlink="http://www.w3.org/1999/xlink"
   xmlns:sodipodi="http://sodipodi.sourceforge.net/DTD/sodipodi-0.dtd"
   xmlns:inkscape="http://www.inkscape.org/namespaces/inkscape"
   width="600"
   height="480"
   viewBox="0 0 600 480"
   id="svg2"
   version="1.1"
   inkscape:version="0.48.4 r9939"
   sodipodi:docname="simpson-error.svg">
  <metadata
     id="metadata181">
    <rdf:RDF>
      <cc:Work
         rdf:about="">
        <dc:format>image/svg+xml</dc:format>
        <dc:type
           rdf:resource="http://purl.org/dc/dcmitype/StillImage" />
        <dc:title>Gnuplot</dc:title>
      </cc:Work>
    </rdf:RDF>
  </metadata>
  <defs
     id="defs179">
    <defs
       id="defs11">
      <circle
         stroke-width="0.5"
         r="0.5"
         id="gpDot" />
      <path
         d="M-1,0 h2 M0,-1 v2"
         stroke="currentColor"
         stroke-width="0.222"
         id="gpPt0" />
      <path
         d="M-1,-1 L1,1 M1,-1 L-1,1"
         stroke="currentColor"
         stroke-width="0.222"
         id="gpPt1" />
      <path
         d="M-1,0 L1,0 M0,-1 L0,1 M-1,-1 L1,1 M-1,1 L1,-1"
         stroke="currentColor"
         stroke-width="0.222"
         id="gpPt2" />
      <rect
         height="2"
         width="2"
         y="-1"
         x="-1"
         stroke="currentColor"
         stroke-width="0.222"
         id="gpPt3" />
      <rect
         height="2"
         width="2"
         y="-1"
         x="-1"
         fill="currentColor"
         stroke="currentColor"
         stroke-width="0.222"
         id="gpPt4" />
      <circle
         r="1"
         cy="0"
         cx="0"
         stroke="currentColor"
         stroke-width="0.222"
         id="gpPt5" />
      <use
         stroke="none"
         fill="currentColor"
         id="gpPt6"
         xlink:href="#gpPt5" />
      <path
         d="M0,-1.33 L-1.33,0.67 L1.33,0.67 z"
         stroke="currentColor"
         stroke-width="0.222"
         id="gpPt7" />
      <use
         stroke="none"
         fill="currentColor"
         id="gpPt8"
         xlink:href="#gpPt7" />
      <use
         transform="rotate(180)"
         stroke="currentColor"
         id="gpPt9"
         xlink:href="#gpPt7" />
      <use
         stroke="none"
         fill="currentColor"
         id="gpPt10"
         xlink:href="#gpPt9" />
      <use
         transform="rotate(45)"
         stroke="currentColor"
         id="gpPt11"
         xlink:href="#gpPt3" />
      <use
         stroke="none"
         fill="currentColor"
         id="gpPt12"
         xlink:href="#gpPt11" />
    </defs>
  </defs>
  <sodipodi:namedview
     pagecolor="#000000"
     bordercolor="#666666"
     borderopacity="1"
     objecttolerance="10"
     gridtolerance="10"
     guidetolerance="10"
     inkscape:pageopacity="0"
     inkscape:pageshadow="2"
     inkscape:window-width="1366"
     inkscape:window-height="746"
     id="namedview177"
     showgrid="false"
     inkscape:zoom="0.98333333"
     inkscape:cx="277.21271"
     inkscape:cy="220.72198"
     inkscape:window-x="-8"
     inkscape:window-y="-8"
     inkscape:window-maximized="1"
     inkscape:current-layer="svg2" />
  <title
     id="title4">Gnuplot</title>
  <desc
     id="desc6">Produced by GNUPLOT 4.6 patchlevel 0 </desc>
  <rect
     style="fill:none"
     id="rect9"
     height="480"
     width="600"
     y="0"
     x="0" />
  <g
     id="g27"
     style="color:#ffffff;fill:none;stroke:currentColor;stroke-width:1;stroke-linecap:butt;stroke-linejoin:miter" />
  <path
     style="color:#000000;fill:none;stroke:#ffffff;stroke-width:1;stroke-linecap:butt;stroke-linejoin:miter"
     d="m 62.2,444 9,0 m 503.8,0 -9,0 h 0.01"
     id="path31"
     inkscape:connector-curvature="0" />
  <g
     transform="translate(53.9,448.5)"
     style="font-size:15px;text-anchor:end;color:#000000;fill:#ffffff;stroke:none;stroke-width:1;stroke-linecap:butt;stroke-linejoin:miter;font-family:Arial"
     id="g33">
    <text
       style="fill:#ffffff;stroke:none"
       id="text35">1e-16</text>
  </g>
  <path
     style="color:#000000;fill:none;stroke:#ffffff;stroke-width:1;stroke-linecap:butt;stroke-linejoin:miter"
     d="m 62.2,417.3 4.5,0 m 508.3,0 -4.5,0 m -508.3,-26.7 9,0 m 503.8,0 -9,0 h 0.01"
     id="path37"
     inkscape:connector-curvature="0" />
  <g
     transform="translate(53.9,395.1)"
     style="font-size:15px;text-anchor:end;color:#000000;fill:#ffffff;stroke:none;stroke-width:1;stroke-linecap:butt;stroke-linejoin:miter;font-family:Arial"
     id="g39">
    <text
       style="fill:#ffffff;stroke:none"
       id="text41">1e-14</text>
  </g>
  <path
     style="color:#000000;fill:none;stroke:#ffffff;stroke-width:1;stroke-linecap:butt;stroke-linejoin:miter"
     d="m 62.2,363.9 4.5,0 m 508.3,0 -4.5,0 m -508.3,-26.7 9,0 m 503.8,0 -9,0 h 0.01"
     id="path43"
     inkscape:connector-curvature="0" />
  <g
     transform="translate(53.9,341.7)"
     style="font-size:15px;text-anchor:end;color:#000000;fill:#ffffff;stroke:none;stroke-width:1;stroke-linecap:butt;stroke-linejoin:miter;font-family:Arial"
     id="g45">
    <text
       style="fill:#ffffff;stroke:none"
       id="text47">1e-12</text>
  </g>
  <path
     style="color:#000000;fill:none;stroke:#ffffff;stroke-width:1;stroke-linecap:butt;stroke-linejoin:miter"
     d="m 62.2,310.5 4.5,0 m 508.3,0 -4.5,0 m -508.3,-26.7 9,0 m 503.8,0 -9,0 h 0.01"
     id="path49"
     inkscape:connector-curvature="0" />
  <g
     transform="translate(53.9,288.3)"
     style="font-size:15px;text-anchor:end;color:#000000;fill:#ffffff;stroke:none;stroke-width:1;stroke-linecap:butt;stroke-linejoin:miter;font-family:Arial"
     id="g51">
    <text
       style="fill:#ffffff;stroke:none"
       id="text53">1e-10</text>
  </g>
  <path
     style="color:#000000;fill:none;stroke:#ffffff;stroke-width:1;stroke-linecap:butt;stroke-linejoin:miter"
     d="m 62.2,257.1 4.5,0 m 508.3,0 -4.5,0 m -508.3,-26.8 9,0 m 503.8,0 -9,0 h 0.01"
     id="path55"
     inkscape:connector-curvature="0" />
  <g
     transform="translate(53.9,234.8)"
     style="font-size:15px;text-anchor:end;color:#000000;fill:#ffffff;stroke:none;stroke-width:1;stroke-linecap:butt;stroke-linejoin:miter;font-family:Arial"
     id="g57">
    <text
       style="fill:#ffffff;stroke:none"
       id="text59">1e-08</text>
  </g>
  <path
     style="color:#000000;fill:none;stroke:#ffffff;stroke-width:1;stroke-linecap:butt;stroke-linejoin:miter"
     d="m 62.2,203.6 4.5,0 m 508.3,0 -4.5,0 m -508.3,-26.7 9,0 m 503.8,0 -9,0 h 0.01"
     id="path61"
     inkscape:connector-curvature="0" />
  <g
     transform="translate(53.9,181.4)"
     style="font-size:15px;text-anchor:end;color:#000000;fill:#ffffff;stroke:none;stroke-width:1;stroke-linecap:butt;stroke-linejoin:miter;font-family:Arial"
     id="g63">
    <text
       style="fill:#ffffff;stroke:none"
       id="text65">1e-06</text>
  </g>
  <path
     style="color:#000000;fill:none;stroke:#ffffff;stroke-width:1;stroke-linecap:butt;stroke-linejoin:miter"
     d="m 62.2,150.2 4.5,0 m 508.3,0 -4.5,0 m -508.3,-26.7 9,0 m 503.8,0 -9,0 h 0.01"
     id="path67"
     inkscape:connector-curvature="0" />
  <g
     transform="translate(53.9,128)"
     style="font-size:15px;text-anchor:end;color:#000000;fill:#ffffff;stroke:none;stroke-width:1;stroke-linecap:butt;stroke-linejoin:miter;font-family:Arial"
     id="g69">
    <text
       style="fill:#ffffff;stroke:none"
       id="text71">1e-04</text>
  </g>
  <path
     style="color:#000000;fill:none;stroke:#ffffff;stroke-width:1;stroke-linecap:butt;stroke-linejoin:miter"
     d="m 62.2,96.8 4.5,0 m 508.3,0 -4.5,0 M 62.2,70.1 l 9,0 m 503.8,0 -9,0 h 0.01"
     id="path73"
     inkscape:connector-curvature="0" />
  <g
     transform="translate(53.9,74.6)"
     style="font-size:15px;text-anchor:end;color:#000000;fill:#ffffff;stroke:none;stroke-width:1;stroke-linecap:butt;stroke-linejoin:miter;font-family:Arial"
     id="g75">
    <text
       style="fill:#ffffff;stroke:none"
       id="text77">1e-02</text>
  </g>
  <path
     style="color:#000000;fill:none;stroke:#ffffff;stroke-width:1;stroke-linecap:butt;stroke-linejoin:miter"
     d="m 62.2,43.4 4.5,0 m 508.3,0 -4.5,0 M 62.2,16.7 l 9,0 m 503.8,0 -9,0 h 0.01"
     id="path79"
     inkscape:connector-curvature="0" />
  <g
     transform="translate(53.9,21.2)"
     style="font-size:15px;text-anchor:end;color:#000000;fill:#ffffff;stroke:none;stroke-width:1;stroke-linecap:butt;stroke-linejoin:miter;font-family:Arial"
     id="g81">
    <text
       style="fill:#ffffff;stroke:none"
       id="text83">1e+00</text>
  </g>
  <path
     style="color:#000000;fill:none;stroke:#ffffff;stroke-width:1;stroke-linecap:butt;stroke-linejoin:miter"
     d="m 575,444 0,-9 m 0,-418.3 0,9 h 0.01"
     id="path85"
     inkscape:connector-curvature="0" />
  <g
     transform="translate(575,466.5)"
     style="font-size:15px;text-anchor:middle;color:#000000;fill:#ffffff;stroke:none;stroke-width:1;stroke-linecap:butt;stroke-linejoin:miter;font-family:Arial"
     id="g87">
    <text
       style="fill:#ffffff;stroke:none"
       id="text89">1e-10</text>
  </g>
  <path
     style="color:#000000;fill:none;stroke:#ffffff;stroke-width:1;stroke-linecap:butt;stroke-linejoin:miter"
     d="m 523.7,444 0,-4.5 m 0,-422.8 0,4.5 m -51.3,422.8 0,-9 m 0,-418.3 0,9 h 0.01"
     id="path91"
     inkscape:connector-curvature="0" />
  <g
     transform="translate(472.4,466.5)"
     style="font-size:15px;text-anchor:middle;color:#000000;fill:#ffffff;stroke:none;stroke-width:1;stroke-linecap:butt;stroke-linejoin:miter;font-family:Arial"
     id="g93">
    <text
       style="fill:#ffffff;stroke:none"
       id="text95">1e-08</text>
  </g>
  <path
     style="color:#000000;fill:none;stroke:#ffffff;stroke-width:1;stroke-linecap:butt;stroke-linejoin:miter"
     d="m 421.2,444 0,-4.5 m 0,-422.8 0,4.5 m -51.3,422.8 0,-9 m 0,-418.3 0,9 h 0.01"
     id="path97"
     inkscape:connector-curvature="0" />
  <g
     transform="translate(369.9,466.5)"
     style="font-size:15px;text-anchor:middle;color:#000000;fill:#ffffff;stroke:none;stroke-width:1;stroke-linecap:butt;stroke-linejoin:miter;font-family:Arial"
     id="g99">
    <text
       style="fill:#ffffff;stroke:none"
       id="text101">1e-06</text>
  </g>
  <path
     style="color:#000000;fill:none;stroke:#ffffff;stroke-width:1;stroke-linecap:butt;stroke-linejoin:miter"
     d="m 318.6,444 0,-4.5 m 0,-422.8 0,4.5 m -51.3,422.8 0,-9 m 0,-418.3 0,9 h 0.01"
     id="path103"
     inkscape:connector-curvature="0" />
  <g
     transform="translate(267.3,466.5)"
     style="font-size:15px;text-anchor:middle;color:#000000;fill:#ffffff;stroke:none;stroke-width:1;stroke-linecap:butt;stroke-linejoin:miter;font-family:Arial"
     id="g105">
    <text
       style="fill:#ffffff;stroke:none"
       id="text107">1e-04</text>
  </g>
  <path
     style="color:#000000;fill:none;stroke:#ffffff;stroke-width:1;stroke-linecap:butt;stroke-linejoin:miter"
     d="m 216,444 0,-4.5 m 0,-422.8 0,4.5 m -51.2,422.8 0,-9 m 0,-418.3 0,9 h 0.01"
     id="path109"
     inkscape:connector-curvature="0" />
  <g
     transform="translate(164.8,466.5)"
     style="font-size:15px;text-anchor:middle;color:#000000;fill:#ffffff;stroke:none;stroke-width:1;stroke-linecap:butt;stroke-linejoin:miter;font-family:Arial"
     id="g111">
    <text
       style="fill:#ffffff;stroke:none"
       id="text113">1e-02</text>
  </g>
  <path
     style="color:#000000;fill:none;stroke:#ffffff;stroke-width:1;stroke-linecap:butt;stroke-linejoin:miter"
     d="m 113.5,444 0,-4.5 m 0,-422.8 0,4.5 M 62.2,444 l 0,-9 m 0,-418.3 0,9 h 0.01"
     id="path115"
     inkscape:connector-curvature="0" />
  <g
     transform="translate(62.2,466.5)"
     style="font-size:15px;text-anchor:middle;color:#000000;fill:#ffffff;stroke:none;stroke-width:1;stroke-linecap:butt;stroke-linejoin:miter;font-family:Arial"
     id="g117">
    <text
       style="fill:#ffffff;stroke:none"
       id="text119">1e+00</text>
  </g>
  <path
     style="color:#000000;fill:none;stroke:#ffffff;stroke-width:1;stroke-linecap:butt;stroke-linejoin:miter"
     d="m 62.2,16.7 0,427.3 512.8,0 0,-427.3 -512.8,0 z m 0,0 h 0.01"
     id="path121"
     inkscape:connector-curvature="0" />
  <g
     id="gnuplot_plot_1">
    <title
       id="title124">gnuplot_plot_1</title>
    <g
       id="g126"
       style="color:#ff0000;fill:none;stroke:currentColor;stroke-width:1;stroke-linecap:butt;stroke-linejoin:miter">
      <path
         style="stroke:#ffc0cb"
         inkscape:connector-curvature="0"
         id="path128"
         d="m 113.5,107 51.3,53.4 51.2,53.4 51.3,53.4 51.3,53.4 51.3,47.7 51.3,16.8 51.2,-26.5 51.3,14.7 h 0.01" />
      <use
         height="480"
         width="600"
         y="0"
         x="0"
         style="color:#ffc0cb"
         id="use130"
         transform="matrix(4.5,0,0,4.5,113.5,107)"
         xlink:href="#gpPt6" />
      <use
         height="480"
         width="600"
         y="0"
         x="0"
         style="color:#ffc0cb"
         id="use132"
         transform="matrix(4.5,0,0,4.5,164.8,160.4)"
         xlink:href="#gpPt6" />
      <use
         height="480"
         width="600"
         y="0"
         x="0"
         style="color:#ffc0cb"
         id="use134"
         transform="matrix(4.5,0,0,4.5,216,213.8)"
         xlink:href="#gpPt6" />
      <use
         height="480"
         width="600"
         y="0"
         x="0"
         style="color:#ffc0cb"
         id="use136"
         transform="matrix(4.5,0,0,4.5,267.3,267.2)"
         xlink:href="#gpPt6" />
      <use
         height="480"
         width="600"
         y="0"
         x="0"
         style="color:#ffc0cb"
         id="use138"
         transform="matrix(4.5,0,0,4.5,318.6,320.6)"
         xlink:href="#gpPt6" />
      <use
         height="480"
         width="600"
         y="0"
         x="0"
         style="color:#ffc0cb"
         id="use140"
         transform="matrix(4.5,0,0,4.5,369.9,368.3)"
         xlink:href="#gpPt6" />
      <use
         height="480"
         width="600"
         y="0"
         x="0"
         style="color:#ffc0cb"
         id="use142"
         transform="matrix(4.5,0,0,4.5,421.2,385.1)"
         xlink:href="#gpPt6" />
      <use
         height="480"
         width="600"
         y="0"
         x="0"
         style="color:#ffc0cb"
         id="use144"
         transform="matrix(4.5,0,0,4.5,472.4,358.6)"
         xlink:href="#gpPt6" />
      <use
         height="480"
         width="600"
         y="0"
         x="0"
         style="color:#ffc0cb"
         id="use146"
         transform="matrix(4.5,0,0,4.5,523.7,373.3)"
         xlink:href="#gpPt6" />
    </g>
  </g>
  <g
     id="gnuplot_plot_2">
    <title
       id="title149">gnuplot_plot_2</title>
    <g
       id="g151"
       style="color:#008000;fill:none;stroke:currentColor;stroke-width:1;stroke-linecap:butt;stroke-linejoin:miter">
      <path
         style="stroke:#add8e6"
         inkscape:connector-curvature="0"
         id="path153"
         d="m 113.5,230.5 51.3,160.2 51.2,36 51.3,-15.3 51.3,-12.8 51.3,-24 51.3,0.2 51.2,6.4 51.3,-14.8 h 0.01" />
      <use
         height="480"
         width="600"
         y="0"
         x="0"
         style="color:#add8e6"
         id="use155"
         transform="matrix(4.5,0,0,4.5,113.5,230.5)"
         xlink:href="#gpPt6" />
      <use
         height="480"
         width="600"
         y="0"
         x="0"
         style="color:#add8e6"
         id="use157"
         transform="matrix(4.5,0,0,4.5,164.8,390.7)"
         xlink:href="#gpPt6" />
      <use
         height="480"
         width="600"
         y="0"
         x="0"
         style="color:#add8e6"
         id="use159"
         transform="matrix(4.5,0,0,4.5,216,426.7)"
         xlink:href="#gpPt6" />
      <use
         height="480"
         width="600"
         y="0"
         x="0"
         style="color:#add8e6"
         id="use161"
         transform="matrix(4.5,0,0,4.5,267.3,411.4)"
         xlink:href="#gpPt6" />
      <use
         height="480"
         width="600"
         y="0"
         x="0"
         style="color:#add8e6"
         id="use163"
         transform="matrix(4.5,0,0,4.5,318.6,398.6)"
         xlink:href="#gpPt6" />
      <use
         height="480"
         width="600"
         y="0"
         x="0"
         style="color:#add8e6"
         id="use165"
         transform="matrix(4.5,0,0,4.5,369.9,374.6)"
         xlink:href="#gpPt6" />
      <use
         height="480"
         width="600"
         y="0"
         x="0"
         style="color:#add8e6"
         id="use167"
         transform="matrix(4.5,0,0,4.5,421.2,374.8)"
         xlink:href="#gpPt6" />
      <use
         height="480"
         width="600"
         y="0"
         x="0"
         style="color:#add8e6"
         id="use169"
         transform="matrix(4.5,0,0,4.5,472.4,381.2)"
         xlink:href="#gpPt6" />
      <use
         height="480"
         width="600"
         y="0"
         x="0"
         style="color:#add8e6"
         id="use171"
         transform="matrix(4.5,0,0,4.5,523.7,366.4)"
         xlink:href="#gpPt6" />
    </g>
  </g>
  <g
     id="g173"
     style="color:#000000;fill:none;stroke:#ffffff;stroke-width:1;stroke-linecap:butt;stroke-linejoin:miter">
    <path
       inkscape:connector-curvature="0"
       id="path175"
       d="m 62.2,16.7 0,427.3 512.8,0 0,-427.3 -512.8,0 z m 0,0 h 0.01"
       style="fill:none;stroke:#ffffff" />
  </g>
  <text
     xml:space="preserve"
     style="font-size:23.98158836px;font-style:normal;font-variant:normal;font-weight:normal;font-stretch:normal;text-align:start;line-height:125%;letter-spacing:0px;word-spacing:0px;writing-mode:lr-tb;text-anchor:start;fill:#ffc0cb;fill-opacity:1;stroke:none;font-family:HGGothicM;-inkscape-font-specification:HGGothicM"
     x="164.151"
     y="136.72685"
     id="text3074"
     sodipodi:linespacing="125%"><tspan
       sodipodi:role="line"
       id="tspan3076"
       x="164.151"
       y="136.72685">台形公式</tspan></text>
  <text
     xml:space="preserve"
     style="font-size:23.98158836px;font-style:normal;font-variant:normal;font-weight:normal;font-stretch:normal;text-align:start;line-height:125%;letter-spacing:0px;word-spacing:0px;writing-mode:lr-tb;text-anchor:start;fill:#add8e6;fill-opacity:1;stroke:none;font-family:HGGothicM;-inkscape-font-specification:HGGothicM"
     x="163.93686"
     y="376.50568"
     id="text3078"
     sodipodi:linespacing="125%"><tspan
       sodipodi:role="line"
       id="tspan3080"
       x="163.93686"
       y="376.50568">シンプソン公式</tspan></text>
</svg>
