<?xml version="1.0" encoding="UTF-8" standalone="no"?>
<!-- Created with Inkscape (http://www.inkscape.org/) -->

<svg
   xmlns:dc="http://purl.org/dc/elements/1.1/"
   xmlns:cc="http://creativecommons.org/ns#"
   xmlns:rdf="http://www.w3.org/1999/02/22-rdf-syntax-ns#"
   xmlns:svg="http://www.w3.org/2000/svg"
   xmlns="http://www.w3.org/2000/svg"
   xmlns:xlink="http://www.w3.org/1999/xlink"
   xmlns:sodipodi="http://sodipodi.sourceforge.net/DTD/sodipodi-0.dtd"
   xmlns:inkscape="http://www.inkscape.org/namespaces/inkscape"
   width="210mm"
   height="297mm"
   id="svg3278"
   version="1.1"
   inkscape:version="0.48.3.1 r9886"
   sodipodi:docname="新規ドキュメント 2">
  <sodipodi:namedview
     id="base"
     pagecolor="#000000"
     bordercolor="#666666"
     borderopacity="1.0"
     inkscape:pageopacity="0"
     inkscape:pageshadow="2"
     inkscape:zoom="0.98994949"
     inkscape:cx="451.66036"
     inkscape:cy="753.46959"
     inkscape:document-units="px"
     inkscape:current-layer="layer1"
     showgrid="false"
     inkscape:window-width="1366"
     inkscape:window-height="746"
     inkscape:window-x="0"
     inkscape:window-y="22"
     inkscape:window-maximized="0" />
  <defs
     id="defs3280">
    <defs
       id="defs11">
      <circle
         r="0.5"
         id="gpDot"
         cx="0"
         cy="0"
         sodipodi:cx="0"
         sodipodi:cy="0"
         sodipodi:rx="0.5"
         sodipodi:ry="0.5"
         style="stroke-width:0.5" />
      <path
         d="M -1,0 H 1 M 0,-1 v 2"
         id="gpPt0"
         inkscape:connector-curvature="0"
         style="stroke:currentColor;stroke-width:0.222" />
      <path
         d="M -1,-1 1,1 M 1,-1 -1,1"
         id="gpPt1"
         inkscape:connector-curvature="0"
         style="stroke:currentColor;stroke-width:0.222" />
      <path
         d="M -1,0 1,0 M 0,-1 0,1 m -1,-2 2,2 m -2,0 2,-2"
         id="gpPt2"
         inkscape:connector-curvature="0"
         style="stroke:currentColor;stroke-width:0.222" />
      <rect
         height="2"
         width="2"
         y="-1"
         x="-1"
         id="gpPt3"
         style="stroke:currentColor;stroke-width:0.222" />
      <rect
         height="2"
         width="2"
         y="-1"
         x="-1"
         id="gpPt4"
         style="fill:currentColor;stroke:currentColor;stroke-width:0.222" />
      <circle
         r="1"
         cy="0"
         cx="0"
         id="gpPt5"
         sodipodi:cx="0"
         sodipodi:cy="0"
         sodipodi:rx="1"
         sodipodi:ry="1"
         style="stroke:currentColor;stroke-width:0.222" />
      <use
         id="gpPt6"
         xlink:href="#gpPt5"
         style="fill:currentColor;stroke:none"
         x="0"
         y="0"
         width="744.09448"
         height="1052.3622" />
      <path
         d="m 0,-1.33 -1.33,2 2.66,0 z"
         id="gpPt7"
         inkscape:connector-curvature="0"
         style="stroke:currentColor;stroke-width:0.222" />
      <use
         id="gpPt8"
         xlink:href="#gpPt7"
         style="fill:currentColor;stroke:none"
         x="0"
         y="0"
         width="744.09448"
         height="1052.3622" />
      <use
         transform="scale(-1,-1)"
         id="gpPt9"
         xlink:href="#gpPt7"
         style="stroke:currentColor"
         x="0"
         y="0"
         width="744.09448"
         height="1052.3622" />
      <use
         id="gpPt10"
         xlink:href="#gpPt9"
         style="fill:currentColor;stroke:none"
         x="0"
         y="0"
         width="744.09448"
         height="1052.3622" />
      <use
         transform="matrix(0.70710678,0.70710678,-0.70710678,0.70710678,0,0)"
         id="gpPt11"
         xlink:href="#gpPt3"
         style="stroke:currentColor"
         x="0"
         y="0"
         width="744.09448"
         height="1052.3622" />
      <use
         id="gpPt12"
         xlink:href="#gpPt11"
         style="fill:currentColor;stroke:none"
         x="0"
         y="0"
         width="744.09448"
         height="1052.3622" />
    </defs>
  </defs>
  <metadata
     id="metadata3283">
    <rdf:RDF>
      <cc:Work
         rdf:about="">
        <dc:format>image/svg+xml</dc:format>
        <dc:type
           rdf:resource="http://purl.org/dc/dcmitype/StillImage" />
        <dc:title></dc:title>
      </cc:Work>
    </rdf:RDF>
  </metadata>
  <g
     inkscape:label="レイヤー 1"
     inkscape:groupmode="layer"
     id="layer1">
    <rect
       id="rect9"
       height="480"
       width="600"
       y="46.647896"
       x="71.428574"
       style="fill:none" />
    <g
       id="g27"
       style="color:#ffffff;fill:none;stroke:currentColor;stroke-width:1;stroke-linecap:butt;stroke-linejoin:miter"
       transform="translate(71.428571,46.647897)" />
    <g
       id="g29"
       style="color:#000000;fill:#ffffff;stroke:#ffffff;stroke-width:1;stroke-linecap:butt;stroke-linejoin:miter"
       transform="translate(71.428571,46.647897)">
      <path
         id="path31"
         d="M 78.4,328.6 292.3,228.5 m 229.3,93.3 -229.3,-93.3 m -213.9,100.1 0,-188.4 m 213.9,88.3 0,-188.5 m 229.3,281.8 0,-75.4 M 307.7,422 l -8.8,-3.6 h 0.01"
         inkscape:connector-curvature="0"
         style="stroke:#ffffff;fill:#ffffff" />
      <g
         id="g33"
         style="font-size:15px;text-anchor:start;fill:#ffffff;stroke:#ffffff;font-family:Arial"
         transform="translate(315.9,433.7)">
        <text
           id="text35"
           style="stroke:#ffffff;fill:#ffffff">0</text>
      </g>
      <path
         id="path37"
         d="m 78.4,328.6 8.9,3.6 m 263.2,69.8 -8.9,-3.7 h 0.01"
         inkscape:connector-curvature="0"
         style="stroke:#ffffff;fill:#ffffff" />
      <g
         id="g39"
         style="font-size:15px;text-anchor:start;fill:#ffffff;stroke:#ffffff;font-family:Arial"
         transform="translate(358.6,413.7)">
        <text
           id="text41"
           style="stroke:#ffffff;fill:#ffffff">2</text>
      </g>
      <path
         id="path43"
         d="m 121.2,308.5 8.9,3.7 m 263.1,69.7 -8.8,-3.6 h 0.01"
         inkscape:connector-curvature="0"
         style="stroke:#ffffff;fill:#ffffff" />
      <g
         id="g45"
         style="font-size:15px;text-anchor:start;fill:#ffffff;stroke:#ffffff;font-family:Arial"
         transform="translate(401.4,393.6)">
        <text
           id="text47"
           style="stroke:#ffffff;fill:#ffffff">4</text>
      </g>
      <path
         id="path49"
         d="m 164,288.5 8.8,3.6 m 263.2,69.8 -8.8,-3.6 h 0.01"
         inkscape:connector-curvature="0"
         style="stroke:#ffffff;fill:#ffffff" />
      <g
         id="g51"
         style="font-size:15px;text-anchor:start;fill:#ffffff;stroke:#ffffff;font-family:Arial"
         transform="translate(444.2,373.6)">
        <text
           id="text53"
           style="stroke:#ffffff;fill:#ffffff">6</text>
      </g>
      <path
         id="path55"
         d="m 206.8,268.5 8.8,3.6 m 263.2,69.8 -8.9,-3.7 h 0.01"
         inkscape:connector-curvature="0"
         style="stroke:#ffffff;fill:#ffffff" />
      <g
         id="g57"
         style="font-size:15px;text-anchor:start;fill:#ffffff;stroke:#ffffff;font-family:Arial"
         transform="translate(487,353.6)">
        <text
           id="text59"
           style="stroke:#ffffff;fill:#ffffff">8</text>
      </g>
      <path
         id="path61"
         d="m 249.5,248.5 8.9,3.6 m 263.2,69.7 -8.9,-3.6 h 0.01"
         inkscape:connector-curvature="0"
         style="stroke:#ffffff;fill:#ffffff" />
      <g
         id="g63"
         style="font-size:15px;text-anchor:start;fill:#ffffff;stroke:#ffffff;font-family:Arial"
         transform="translate(529.7,333.5)">
        <text
           id="text65"
           style="stroke:#ffffff;fill:#ffffff">10</text>
      </g>
      <path
         id="path67"
         d="m 292.3,228.5 8.8,3.5 m 6.6,190 6.1,-2.9 h 0.01"
         inkscape:connector-curvature="0"
         style="stroke:#ffffff;fill:#ffffff" />
      <g
         id="g69"
         style="font-size:15px;text-anchor:middle;fill:#ffffff;stroke:#ffffff;font-family:Arial"
         transform="translate(302,432.2)">
        <text
           id="text71"
           style="stroke:#ffffff;fill:#ffffff">0</text>
      </g>
      <path
         id="path73"
         d="m 521.6,321.8 -6.2,2.9 m -253.5,78.6 6.2,-2.9 h 0.01"
         inkscape:connector-curvature="0"
         style="stroke:#ffffff;fill:#ffffff" />
      <g
         id="g75"
         style="font-size:15px;text-anchor:middle;fill:#ffffff;stroke:#ffffff;font-family:Arial"
         transform="translate(256.3,413.6)">
        <text
           id="text77"
           style="stroke:#ffffff;fill:#ffffff">2</text>
      </g>
      <path
         id="path79"
         d="m 475.7,303.1 -6.1,2.9 m -253.6,78.6 6.2,-2.9 h 0.01"
         inkscape:connector-curvature="0"
         style="stroke:#ffffff;fill:#ffffff" />
      <g
         id="g81"
         style="font-size:15px;text-anchor:middle;fill:#ffffff;stroke:#ffffff;font-family:Arial"
         transform="translate(210.4,394.9)">
        <text
           id="text83"
           style="stroke:#ffffff;fill:#ffffff">4</text>
      </g>
      <path
         id="path85"
         d="m 429.8,284.5 -6.1,2.8 m -253.5,78.6 6.1,-2.8 h 0.01"
         inkscape:connector-curvature="0"
         style="stroke:#ffffff;fill:#ffffff" />
      <g
         id="g87"
         style="font-size:15px;text-anchor:middle;fill:#ffffff;stroke:#ffffff;font-family:Arial"
         transform="translate(164.5,376.2)">
        <text
           id="text89"
           style="stroke:#ffffff;fill:#ffffff">6</text>
      </g>
      <path
         id="path91"
         d="m 384,265.8 -6.2,2.9 m -253.5,78.6 6.1,-2.9 h 0.01"
         inkscape:connector-curvature="0"
         style="stroke:#ffffff;fill:#ffffff" />
      <g
         id="g93"
         style="font-size:15px;text-anchor:middle;fill:#ffffff;stroke:#ffffff;font-family:Arial"
         transform="translate(118.6,357.5)">
        <text
           id="text95"
           style="stroke:#ffffff;fill:#ffffff">8</text>
      </g>
      <path
         id="path97"
         d="m 338.1,247.1 -6.2,2.9 m -253.5,78.6 6.2,-2.9 h 0.01"
         inkscape:connector-curvature="0"
         style="stroke:#ffffff;fill:#ffffff" />
      <g
         id="g99"
         style="font-size:15px;text-anchor:middle;fill:#ffffff;stroke:#ffffff;font-family:Arial"
         transform="translate(72.8,338.8)">
        <text
           id="text101"
           style="stroke:#ffffff;fill:#ffffff">10</text>
      </g>
      <path
         id="path103"
         d="m 292.3,228.5 -6.1,2.8 m -207.8,97.3 9,0 h 0.01"
         inkscape:connector-curvature="0"
         style="stroke:#ffffff;fill:#ffffff" />
      <g
         id="g105"
         style="font-size:15px;text-anchor:end;fill:#ffffff;stroke:#ffffff;font-family:Arial"
         transform="translate(60.4,333.1)">
        <text
           id="text107"
           style="stroke:#ffffff;fill:#ffffff">0</text>
      </g>
      <path
         id="path109"
         d="m 78.4,290.9 9,0 h 0.01"
         inkscape:connector-curvature="0"
         style="stroke:#ffffff;fill:#ffffff" />
      <g
         id="g111"
         style="font-size:15px;text-anchor:end;fill:#ffffff;stroke:#ffffff;font-family:Arial"
         transform="translate(60.4,295.4)">
        <text
           id="text113"
           style="stroke:#ffffff;fill:#ffffff">2</text>
      </g>
      <path
         id="path115"
         d="m 78.4,253.2 9,0 h 0.01"
         inkscape:connector-curvature="0"
         style="stroke:#ffffff;fill:#ffffff" />
      <g
         id="g117"
         style="font-size:15px;text-anchor:end;fill:#ffffff;stroke:#ffffff;font-family:Arial"
         transform="translate(60.4,257.7)">
        <text
           id="text119"
           style="stroke:#ffffff;fill:#ffffff">4</text>
      </g>
      <path
         id="path121"
         d="m 78.4,215.6 9,0 h 0.01"
         inkscape:connector-curvature="0"
         style="stroke:#ffffff;fill:#ffffff" />
      <g
         id="g123"
         style="font-size:15px;text-anchor:end;fill:#ffffff;stroke:#ffffff;font-family:Arial"
         transform="translate(60.4,220.1)">
        <text
           id="text125"
           style="stroke:#ffffff;fill:#ffffff">6</text>
      </g>
      <path
         id="path127"
         d="m 78.4,177.9 9,0 h 0.01"
         inkscape:connector-curvature="0"
         style="stroke:#ffffff;fill:#ffffff" />
      <g
         id="g129"
         style="font-size:15px;text-anchor:end;fill:#ffffff;stroke:#ffffff;font-family:Arial"
         transform="translate(60.4,182.4)">
        <text
           id="text131"
           style="stroke:#ffffff;fill:#ffffff">8</text>
      </g>
      <path
         id="path133"
         d="m 78.4,140.2 9,0 h 0.01"
         inkscape:connector-curvature="0"
         style="stroke:#ffffff;fill:#ffffff" />
      <g
         id="g135"
         style="font-size:15px;text-anchor:end;fill:#ffffff;stroke:#ffffff;font-family:Arial"
         transform="translate(60.4,144.7)">
        <text
           id="text137"
           style="stroke:#ffffff;fill:#ffffff">10</text>
      </g>
    </g>
    <g
       id="gnuplot_plot_1"
       transform="translate(71.428571,46.647897)">
      <title
         id="title140">gnuplot_plot_1</title>
      <g
         id="g142"
         style="color:#ff0000;fill:none;stroke:currentColor;stroke-width:1;stroke-linecap:butt;stroke-linejoin:miter">
        <use
           id="use144"
           transform="matrix(4.5,0,0,4.5,326.1,166.2)"
           xlink:href="#gpPt6"
           style="color:#ffc0cb"
           x="0"
           y="0"
           width="744.09448"
           height="1052.3622" />
        <use
           id="use146"
           transform="matrix(4.5,0,0,4.5,344.4,182.7)"
           xlink:href="#gpPt6"
           style="color:#ffc0cb"
           x="0"
           y="0"
           width="744.09448"
           height="1052.3622" />
        <use
           id="use148"
           transform="matrix(4.5,0,0,4.5,297.3,217.5)"
           xlink:href="#gpPt6"
           style="color:#ffc0cb"
           x="0"
           y="0"
           width="744.09448"
           height="1052.3622" />
        <use
           id="use150"
           transform="matrix(4.5,0,0,4.5,422.5,256.7)"
           xlink:href="#gpPt6"
           style="color:#ffc0cb"
           x="0"
           y="0"
           width="744.09448"
           height="1052.3622" />
        <use
           id="use152"
           transform="matrix(4.5,0,0,4.5,448.5,188.1)"
           xlink:href="#gpPt6"
           style="color:#ffc0cb"
           x="0"
           y="0"
           width="744.09448"
           height="1052.3622" />
        <use
           id="use154"
           transform="matrix(4.5,0,0,4.5,348.3,278.1)"
           xlink:href="#gpPt6"
           style="color:#ffc0cb"
           x="0"
           y="0"
           width="744.09448"
           height="1052.3622" />
        <use
           id="use156"
           transform="matrix(4.5,0,0,4.5,286.3,163.4)"
           xlink:href="#gpPt6"
           style="color:#ffc0cb"
           x="0"
           y="0"
           width="744.09448"
           height="1052.3622" />
        <use
           id="use158"
           transform="matrix(4.5,0,0,4.5,269.7,299.3)"
           xlink:href="#gpPt6"
           style="color:#ffc0cb"
           x="0"
           y="0"
           width="744.09448"
           height="1052.3622" />
        <use
           id="use160"
           transform="matrix(4.5,0,0,4.5,184.7,219.2)"
           xlink:href="#gpPt6"
           style="color:#ffc0cb"
           x="0"
           y="0"
           width="744.09448"
           height="1052.3622" />
        <use
           id="use162"
           transform="matrix(4.5,0,0,4.5,306.4,225.8)"
           xlink:href="#gpPt6"
           style="color:#ffc0cb"
           x="0"
           y="0"
           width="744.09448"
           height="1052.3622" />
      </g>
    </g>
    <g
       id="gnuplot_plot_2"
       transform="translate(71.428571,46.647897)">
      <title
         id="title165">gnuplot_plot_2</title>
      <g
         id="g167"
         style="color:#008000;fill:none;stroke:currentColor;stroke-width:1;stroke-linecap:butt;stroke-linejoin:miter">
        <path
           id="path169"
           d="m 326.1,290.9 0,-124.7 m 18.3,132.2 0,-115.7 m -47.1,135.8 0,-101 m 125.2,114.6 0,-75.4 m 26,39.1 0,-107.7 m -100.2,158.7 0,-68.7 m -62,13.4 0,-128.1 m -16.6,198.1 0,-62.2 m -85,25.7 0,-105.8 m 121.7,103 0,-96.4 h 0.01"
           inkscape:connector-curvature="0"
           style="stroke:#ffc0cb" />
      </g>
    </g>
    <g
       id="gnuplot_plot_3"
       transform="translate(71.428571,46.647897)">
      <title
         id="title172">gnuplot_plot_3</title>
      <g
         id="g174"
         style="color:#0000ff;fill:none;stroke:currentColor;stroke-width:1;stroke-linecap:butt;stroke-linejoin:miter">
        <path
           id="path176"
           d="m 307.7,422 2.1,-1.8 2.2,-1.8 2.2,-1.7 2.1,-1.8 2.2,-1.8 2.2,-1.8 2.1,-1.7 2.2,-1.8 2.1,-1.8 2.2,-1.8 2.2,-1.7 2.1,-1.8 2.2,-1.8 2.1,-1.7 2.2,-1.8 2.2,-1.8 2.1,-1.8 2.2,-1.7 2.1,-1.8 2.2,-1.8 2.2,-1.8 2.1,-1.7 2.2,-1.8 2.1,-1.8 2.2,-1.8 2.2,-1.7 2.1,-1.8 2.2,-1.8 2.1,-1.7 2.2,-1.8 2.2,-1.8 2.1,-1.8 2.2,-1.7 2.1,-1.8 2.2,-1.8 2.2,-1.8 2.1,-1.7 2.2,-1.8 2.1,-1.8 2.2,-1.8 2.2,-1.7 2.1,-1.8 2.2,-1.8 2.1,-1.7 2.2,-1.8 2.2,-1.8 2.1,-1.8 2.2,-1.7 2.1,-1.8 2.2,-1.8 2.2,-1.8 2.1,-1.7 2.2,-1.8 2.1,-1.8 2.2,-1.8 2.2,-1.7 2.1,-1.8 2.2,-1.8 2.1,-1.7 2.2,-1.8 2.2,-1.8 2.1,-1.8 2.2,-1.7 2.2,-1.8 2.1,-1.8 2.2,-1.8 2.1,-1.7 2.2,-1.8 2.2,-1.8 2.1,-1.8 2.2,-1.7 2.1,-1.8 2.2,-1.8 2.2,-1.7 2.1,-1.8 2.2,-1.8 2.1,-1.8 2.2,-1.7 2.2,-1.8 2.1,-1.8 2.2,-1.8 2.1,-1.7 2.2,-1.8 2.2,-1.8 2.1,-1.8 2.2,-1.7 2.1,-1.8 2.2,-1.8 2.2,-1.7 2.1,-1.8 2.2,-1.8 2.1,-1.8 2.2,-1.7 2.2,-1.8 2.1,-1.8 2.2,-1.8 2.1,-1.7 2.2,-1.8 2.2,-1.8 M 282.3,399 l 2.2,-1.7 2.1,-1.8 2.2,-1.8 2.1,-1.8 2.2,-1.7 2.2,-1.8 2.1,-1.8 2.2,-1.7 2,-1.8 2.2,-1.8 2.2,-1.8 2.1,-1.7 2.2,-1.8 2.2,-1.8 2.1,-1.8 2.2,-1.7 2.1,-1.8 2.2,-1.8 2.2,-1.8 2.1,-1.7 2.2,-1.8 2.1,-1.8 2.2,-1.7 2.2,-1.8 2.1,-1.8 2.2,-1.8 2.1,-1.7 2.2,-1.8 2.2,-1.8 2.1,-1.8 2.2,-1.7 2.1,-1.8 2.2,-1.8 2.2,-1.8 2.1,-1.7 2.2,-1.8 2.1,-1.8 2.2,-1.7 2.2,-1.8 2.1,-1.8 2.2,-1.8 2.1,-1.7 2.2,-1.8 2.2,-1.8 2.1,-1.8 2.2,-1.7 2.1,-1.8 2.2,-1.8 2.2,-1.8 2.1,-1.7 2.2,-1.8 2.1,-1.8 2.2,-1.8 2.2,-1.7 2.1,-1.8 2.2,-1.8 2.1,-1.7 2.2,-1.8 2.2,-1.8 2.1,-1.8 2.2,-1.7 2.1,-1.8 2.2,-1.8 2.2,-1.8 2.1,-1.7 2.2,-1.8 2.1,-1.8 2.2,-1.8 2.2,-1.7 2.1,-1.8 2.2,-1.8 2.2,-1.7 2.1,-1.8 2.2,-1.8 2.1,-1.8 2.2,-1.7 2.2,-1.8 2.1,-1.8 2.2,-1.8 2.1,-1.7 2.2,-1.8 2.2,-1.8 2.1,-1.8 2.2,-1.7 2.1,-1.8 2.2,-1.8 2.2,-1.7 2.1,-1.8 2.2,-1.8 2.1,-1.8 2.2,-1.7 2.2,-1.8 2.1,-1.8 2.2,-1.8 2.1,-1.6 2.2,-1.8 2.2,-1.8 2.1,-1.8 2.2,-1.7 m -239.3,152.5 2.2,-1.8 2.1,-1.8 2.2,-1.7 2.2,-1.8 2.1,-1.8 2.2,-1.7 2.1,-1.8 2.2,-1.8 2.2,-1.8 2.1,-1.7 2.2,-1.8 2.1,-1.8 2.2,-1.8 2.2,-1.7 2.1,-1.8 2.2,-1.8 2.1,-1.8 2.2,-1.7 2.2,-1.8 2.1,-1.8 2.1,-1.7 2.1,-1.8 2.2,-1.8 2.2,-1.8 2.1,-1.7 2.2,-1.8 2.2,-1.8 2.1,-1.8 2.2,-1.7 2.1,-1.8 2.2,-1.8 2.2,-1.8 2.1,-1.7 2.2,-1.8 2.1,-1.8 2.2,-1.7 2.2,-1.8 2.1,-1.8 2.2,-1.8 2.1,-1.7 2.2,-1.8 2.2,-1.8 2.1,-1.8 2.2,-1.7 2.1,-1.8 2.2,-1.8 2.2,-1.8 2.1,-1.7 2.2,-1.8 2.1,-1.8 2.2,-1.7 2.2,-1.8 2.1,-1.8 2.2,-1.8 2.1,-1.7 2.2,-1.8 2.2,-1.8 2.1,-1.8 2.2,-1.7 2.1,-1.8 2.2,-1.8 2.2,-1.8 2.1,-1.7 2.2,-1.8 2.1,-1.8 2.2,-1.7 2.2,-1.8 2.1,-1.8 2.2,-1.8 2.1,-1.7 2.2,-1.8 2.2,-1.8 2.1,-1.8 2.2,-1.7 2.1,-1.8 2.2,-1.8 2.2,-1.8 2.1,-1.7 2.2,-1.8 2.1,-1.8 2.2,-1.7 2.2,-1.7 2.1,-1.8 2.2,-1.8 2.2,-1.7 2.1,-1.8 2.2,-1.8 2.1,-1.8 2.2,-1.7 2.2,-1.8 2.1,-1.8 2.2,-1.8 2.1,-1.7 2.2,-1.8 2.2,-1.8 2.1,-1.7 2.2,-1.8 2.1,-1.8 2.2,-1.8 m -239.3,152.5 2.2,-1.7 2.2,-1.8 2.1,-1.8 2.2,-1.7 2.1,-1.8 2.2,-1.8 2.2,-1.8 2.1,-1.7 2.2,-1.8 2.1,-1.8 2.2,-1.8 2.2,-1.7 2.1,-1.8 2.2,-1.8 2.1,-1.8 2.2,-1.7 2.2,-1.8 2.1,-1.8 2.2,-1.7 2.1,-1.8 2.2,-1.8 2.2,-1.8 2.1,-1.7 2.2,-1.8 2.1,-1.8 2.2,-1.8 2.2,-1.7 2.1,-1.8 2.2,-1.8 2.1,-1.8 2.2,-1.7 2.1,-1.8 2.1,-1.8 2.2,-1.7 2.2,-1.8 2.1,-1.8 2.2,-1.8 2.1,-1.7 2.2,-1.8 2.2,-1.8 2.1,-1.8 2.2,-1.7 2.1,-1.8 2.2,-1.8 2.2,-1.8 2.1,-1.7 2.2,-1.8 2.1,-1.8 2.2,-1.7 2.2,-1.8 2.1,-1.8 2.2,-1.8 2.1,-1.7 2.2,-1.8 2.2,-1.8 2.1,-1.8 2.2,-1.7 2.1,-1.8 2.2,-1.8 2.2,-1.8 2.1,-1.7 2.2,-1.8 2.1,-1.8 2.2,-1.7 2.2,-1.8 2.1,-1.8 2.2,-1.8 2.1,-1.7 2.2,-1.7 2.2,-1.8 2.1,-1.8 2.2,-1.7 2.1,-1.8 2.2,-1.8 2.2,-1.8 2.1,-1.7 2.2,-1.8 2.1,-1.8 2.2,-1.7 2.2,-1.8 2.1,-1.8 2.2,-1.8 2.1,-1.7 2.2,-1.8 2.2,-1.8 2.1,-1.8 2.2,-1.7 2.1,-1.8 2.2,-1.8 2.2,-1.8 2.1,-1.7 2.2,-1.8 2.2,-1.8 2.1,-1.7 2.2,-1.8 2.1,-1.8 2.2,-1.8 2.2,-1.7 2.1,-1.8 m -239.2,152.5 2.1,-1.8 2.2,-1.7 2.1,-1.8 2.2,-1.8 2.2,-1.8 2.1,-1.7 2.2,-1.8 2.1,-1.8 2.2,-1.8 2.2,-1.7 2.1,-1.8 2.2,-1.8 2.1,-1.8 2.2,-1.7 2.2,-1.8 2.1,-1.8 2.2,-1.7 2.1,-1.8 2.2,-1.8 2.2,-1.8 2.1,-1.7 2.2,-1.8 2.1,-1.8 2.2,-1.8 2.2,-1.7 2.1,-1.8 2.2,-1.8 2.1,-1.8 2.2,-1.7 2.2,-1.8 2.1,-1.8 2.2,-1.7 2.1,-1.8 2.2,-1.8 2.2,-1.8 2.1,-1.7 2.2,-1.8 2.1,-1.8 2.2,-1.8 2.2,-1.7 2.1,-1.8 2.2,-1.8 2.1,-1.8 2.1,-1.7 2.2,-1.8 2.1,-1.8 2.2,-1.7 2.2,-1.8 2.1,-1.8 2.2,-1.8 2.1,-1.7 2.2,-1.8 2.2,-1.8 2.1,-1.8 2.2,-1.7 2.1,-1.7 2.2,-1.8 2.2,-1.8 2.1,-1.7 2.2,-1.8 2.1,-1.8 2.2,-1.7 2.2,-1.8 2.1,-1.8 2.2,-1.8 2.1,-1.7 2.2,-1.8 2.2,-1.8 2.1,-1.8 2.2,-1.7 2.1,-1.8 2.2,-1.8 2.2,-1.8 2.1,-1.7 2.2,-1.8 2.1,-1.8 2.2,-1.7 2.2,-1.8 2.1,-1.8 2.2,-1.8 2.1,-1.7 2.2,-1.8 2.2,-1.8 2.1,-1.8 2.2,-1.7 2.1,-1.8 2.2,-1.8 2.2,-1.8 2.1,-1.7 2.2,-1.8 2.1,-1.8 2.2,-1.7 2.2,-1.8 2.1,-1.8 2.2,-1.8 2.1,-1.7 2.2,-1.8 2.2,-1.8 2.1,-1.8 m -239.2,152.6 2.1,-1.8 2.2,-1.8 2.2,-1.8 2.1,-1.7 2.2,-1.8 2.1,-1.8 2.2,-1.8 2.2,-1.7 2.1,-1.8 2.2,-1.8 2.1,-1.7 2.2,-1.8 2.2,-1.8 2.1,-1.8 2.2,-1.7 2.1,-1.8 2.2,-1.8 2.2,-1.8 2.1,-1.7 2.2,-1.8 2.1,-1.8 2.2,-1.8 2.2,-1.7 2.1,-1.8 2.2,-1.8 2.1,-1.7 2.2,-1.8 2.2,-1.8 2.1,-1.8 2.2,-1.7 2.1,-1.8 2.2,-1.8 2.2,-1.8 2.1,-1.7 2.2,-1.8 2.1,-1.8 2.2,-1.8 2.2,-1.7 2.1,-1.8 2.2,-1.8 2.1,-1.7 2.2,-1.8 2.2,-1.8 2.1,-1.7 2.2,-1.7 2.1,-1.8 2.2,-1.8 2.2,-1.8 2.1,-1.7 2.2,-1.8 2.1,-1.8 2.2,-1.8 2.2,-1.7 2.1,-1.8 2.2,-1.8 2.1,-1.7 2.1,-1.8 2.2,-1.8 2.1,-1.8 2.2,-1.7 2.2,-1.8 2.1,-1.8 2.2,-1.8 2.1,-1.7 2.2,-1.8 2.2,-1.8 2.1,-1.8 2.2,-1.7 2.1,-1.8 2.2,-1.8 2.2,-1.7 2.1,-1.8 2.2,-1.8 2.1,-1.8 2.2,-1.7 2.2,-1.8 2.1,-1.8 2.2,-1.8 2.1,-1.7 2.2,-1.8 2.2,-1.8 2.1,-1.8 2.2,-1.7 2.1,-1.8 2.2,-1.8 2.2,-1.7 2.1,-1.8 2.2,-1.8 2.1,-1.8 2.2,-1.7 2.2,-1.8 2.1,-1.8 2.2,-1.8 2.1,-1.7 2.2,-1.8 2.2,-1.8 2.1,-1.8 2.2,-1.7 2.1,-1.8 h 0.01"
           inkscape:connector-curvature="0"
           style="stroke:#add8e6" />
        <path
           id="path178"
           d="m 154.9,284.3 2.1,-1.8 2.2,-1.7 2.2,-1.8 2.1,-1.8 2.2,-1.8 2.1,-1.7 2.2,-1.8 2.2,-1.8 2.1,-1.7 2.2,-1.8 2.2,-1.8 2.1,-1.8 2.2,-1.7 2.1,-1.8 2.2,-1.8 2.2,-1.8 2.1,-1.7 2.2,-1.8 2.1,-1.8 2.2,-1.8 2.2,-1.7 2.1,-1.8 2.2,-1.8 2.1,-1.7 2.2,-1.8 2.2,-1.8 2.1,-1.8 2.2,-1.7 2.1,-1.8 2.2,-1.8 2.2,-1.7 2.1,-1.7 2.2,-1.8 2.1,-1.8 2.2,-1.8 2.2,-1.7 2.1,-1.8 2.2,-1.8 2.1,-1.7 2.2,-1.8 2.2,-1.8 2.1,-1.8 2.2,-1.7 2.1,-1.8 2.2,-1.8 2.2,-1.8 2.1,-1.7 2.2,-1.8 2.1,-1.8 2.2,-1.8 2.2,-1.7 2.1,-1.8 2.2,-1.8 2.1,-1.7 2.2,-1.8 2.2,-1.8 2.1,-1.8 2.2,-1.7 2.1,-1.8 2.2,-1.8 2.2,-1.8 2.1,-1.7 2.2,-1.8 2.1,-1.8 2.2,-1.8 2.2,-1.7 2.1,-1.8 2.1,-1.8 2.2,-1.7 2.1,-1.8 2.2,-1.8 2.1,-1.8 2.2,-1.7 2.2,-1.8 2.1,-1.8 2.2,-1.8 2.1,-1.7 2.2,-1.8 2.2,-1.8 2.1,-1.8 2.2,-1.7 2.1,-1.8 2.2,-1.8 2.2,-1.7 2.1,-1.8 2.2,-1.8 2.1,-1.8 2.2,-1.7 2.2,-1.8 2.1,-1.8 2.2,-1.8 2.1,-1.7 2.2,-1.8 2.2,-1.8 2.1,-1.8 2.2,-1.7 2.1,-1.8 2.2,-1.8 2.2,-1.7 m -239.3,152.5 2.2,-1.8 2.1,-1.8 2.2,-1.8 2.1,-1.7 2.2,-1.8 2.2,-1.8 2.1,-1.7 2.2,-1.8 2.1,-1.8 2.2,-1.8 2.2,-1.7 2.1,-1.8 2.2,-1.8 2.1,-1.8 2.2,-1.7 2.2,-1.8 2.1,-1.8 2.2,-1.7 2.2,-1.7 2.1,-1.8 2.2,-1.8 2.1,-1.7 2.2,-1.8 2.2,-1.8 2.1,-1.8 2.2,-1.7 2.1,-1.8 2.2,-1.8 2.2,-1.8 2.1,-1.7 2.2,-1.8 2.1,-1.8 2.2,-1.8 2.2,-1.7 2.1,-1.8 2.2,-1.8 2.1,-1.7 2.2,-1.8 2.2,-1.8 2.1,-1.8 2.2,-1.7 2.1,-1.8 2.2,-1.8 2.2,-1.8 2.1,-1.7 2.2,-1.8 2.1,-1.8 2.2,-1.8 2.2,-1.7 2.1,-1.8 2.2,-1.8 2.1,-1.7 2.2,-1.8 2.2,-1.8 2.1,-1.8 2.2,-1.7 2.1,-1.8 2.2,-1.8 2.2,-1.8 2.1,-1.7 2.2,-1.8 2.1,-1.8 2.2,-1.8 2.2,-1.7 2.1,-1.8 2.2,-1.8 2.1,-1.7 2.2,-1.8 2.2,-1.8 2.1,-1.8 2.2,-1.7 2.1,-1.8 2.2,-1.8 2.2,-1.8 2.1,-1.7 2.2,-1.8 2.2,-1.8 2.1,-1.8 2.1,-1.7 2.1,-1.8 2.2,-1.8 2.2,-1.7 2.1,-1.8 2.2,-1.8 2.1,-1.8 2.2,-1.7 2.2,-1.8 2.1,-1.8 2.2,-1.8 2.1,-1.7 2.2,-1.8 2.2,-1.8 2.1,-1.8 2.2,-1.7 2.1,-1.8 2.2,-1.8 2.2,-1.7 2.1,-1.8 2.2,-1.8 m -239.3,152.5 2.2,-1.7 2.1,-1.8 2.2,-1.8 2.2,-1.8 2.1,-1.6 2.2,-1.8 2.1,-1.8 2.2,-1.8 2.2,-1.7 2.1,-1.8 2.2,-1.8 2.1,-1.8 2.2,-1.7 2.2,-1.8 2.1,-1.8 2.2,-1.7 2.1,-1.8 2.2,-1.8 2.2,-1.8 2.1,-1.7 2.2,-1.8 2.1,-1.8 2.2,-1.8 2.2,-1.7 2.1,-1.8 2.2,-1.8 2.1,-1.8 2.2,-1.7 2.2,-1.8 2.1,-1.8 2.2,-1.7 2.2,-1.8 2.1,-1.8 2.2,-1.8 2.1,-1.7 2.2,-1.8 2.2,-1.8 2.1,-1.8 2.2,-1.7 2.1,-1.8 2.2,-1.8 2.2,-1.8 2.1,-1.7 2.2,-1.8 2.1,-1.8 2.2,-1.7 2.2,-1.8 2.1,-1.8 2.2,-1.8 2.1,-1.7 2.2,-1.8 2.2,-1.8 2.1,-1.8 2.2,-1.7 2.1,-1.8 2.2,-1.8 2.2,-1.8 2.1,-1.7 2.2,-1.8 2.1,-1.8 2.2,-1.8 2.2,-1.7 2.1,-1.8 2.2,-1.8 2.1,-1.7 2.2,-1.8 2.2,-1.8 2.1,-1.8 2.2,-1.7 2.1,-1.8 2.2,-1.8 2.2,-1.8 2.1,-1.7 2.2,-1.8 2.1,-1.8 2.2,-1.8 2.2,-1.7 2.1,-1.8 2.2,-1.8 2.1,-1.7 2.2,-1.8 2.2,-1.8 2.1,-1.8 2.2,-1.7 2.1,-1.8 2.2,-1.8 2.2,-1.8 2.1,-1.7 2.2,-1.8 2.2,-1.8 2,-1.8 2.2,-1.7 2.1,-1.8 2.2,-1.8 2.2,-1.7 2.1,-1.8 2.2,-1.8 2.1,-1.8 2.2,-1.7 m -239.3,152.6 2.2,-1.8 2.2,-1.8 2.1,-1.7 2.2,-1.8 2.1,-1.8 2.2,-1.8 2.2,-1.7 2.1,-1.8 2.2,-1.8 2.1,-1.8 2.2,-1.7 2.2,-1.8 2.1,-1.8 2.2,-1.7 2.1,-1.8 2.2,-1.8 2.2,-1.8 2.1,-1.7 2.2,-1.8 2.1,-1.8 2.2,-1.8 2.2,-1.7 2.1,-1.8 2.2,-1.8 2.1,-1.8 2.2,-1.7 2.2,-1.8 2.1,-1.8 2.2,-1.7 2.1,-1.8 2.2,-1.8 2.2,-1.8 2.1,-1.7 2.2,-1.8 2.1,-1.8 2.2,-1.8 2.2,-1.7 2.1,-1.8 2.2,-1.8 2.2,-1.8 2.1,-1.7 2.2,-1.8 2.1,-1.8 2.2,-1.7 2.2,-1.8 2.1,-1.8 2.2,-1.8 2.1,-1.7 2.2,-1.8 2.2,-1.8 2.1,-1.8 2.2,-1.7 2.1,-1.8 2.2,-1.8 2.2,-1.8 2.1,-1.7 2.2,-1.8 2.1,-1.8 2.2,-1.7 2.2,-1.8 2.1,-1.8 2.2,-1.8 2.1,-1.7 2.2,-1.8 2.2,-1.8 2.1,-1.8 2.2,-1.7 2.1,-1.8 2.2,-1.8 2.2,-1.8 2.1,-1.7 2.2,-1.8 2.1,-1.8 2.2,-1.7 2.2,-1.8 2.1,-1.8 2.2,-1.8 2.1,-1.7 2.2,-1.8 2.2,-1.8 2.1,-1.8 2.2,-1.7 2.1,-1.8 2.2,-1.8 2.2,-1.8 2.1,-1.7 2.2,-1.8 2.1,-1.8 2.2,-1.7 2.2,-1.8 2.1,-1.8 2.2,-1.8 2.1,-1.7 2.2,-1.8 2.2,-1.8 2.1,-1.8 2.2,-1.7 2.2,-1.8 2.1,-1.8 m 15.4,382 -2.3,-2.1 -2.3,-2.1 -2.4,-2.1 -2.2,-2.1 -2.3,-2 -2.3,-2.1 -2.3,-2.1 -2.3,-2.1 -2.4,-2.1 -2.3,-2.1 -2.3,-2.1 -2.3,-2 -2.3,-2.1 -2.3,-2.1 -2.4,-2.1 -2.3,-2.1 -2.3,-2.1 -2.3,-2.1 -2.3,-2 -2.3,-2.1 -2.4,-2.1 -2.3,-2.1 -2.3,-2.1 -2.3,-2.1 -2.3,-2.1 -2.3,-2.1 -2.4,-2 -2.3,-2.1 -2.3,-2.1 -2.3,-2.1 -2.3,-2.1 -2.3,-2.1 -2.4,-2.1 -2.3,-2 -2.3,-2.1 -2.3,-2.1 -2.3,-2.1 -2.3,-2.1 -2.4,-2.1 -2.3,-2.1 -2.3,-2 -2.3,-2.1 -2.3,-2.1 -2.3,-2.1 -2.4,-2.1 -2.3,-2.1 -2.3,-2.1 -2.3,-2 -2.3,-2.1 -2.3,-2.1 -2.4,-2.1 -2.3,-2.1 -2.3,-2.1 -2.3,-2.1 -2.3,-2 -2.3,-2.1 -2.4,-2.1 -2.3,-2.1 -2.3,-2.1 -2.3,-2.1 -2.3,-2.1 -2.3,-2 -2.4,-2.1 -2.3,-2.1 -2.3,-2.1 -2.3,-2.1 -2.3,-2.1 -2.3,-2.1 -2.4,-2 -2.3,-2.1 -2.3,-2.1 -2.3,-2.1 -2.3,-2.1 -2.3,-2.1 -2.4,-2.1 -2.3,-2 -2.3,-2.1 -2.3,-2.1 -2.3,-2.1 -2.3,-2.1 -2.4,-2.1 -2.3,-2.1 -2.3,-2 -2.3,-2.1 -2.3,-2.1 -2.3,-2.1 -2.4,-2.1 -2.3,-2.1 -2.3,-2.1 -2.3,-2 -2.3,-2.1 -2.3,-2 -2.4,-2.1 -2.3,-2.1 -2.3,-2.1 -2.3,-2.1 -2.3,-2 -2.3,-2.1 -2.4,-2.1 m 253.1,186.9 -2.4,-2.1 -2.3,-2.1 -2.3,-2.1 -2.3,-2.1 -2.3,-2.1 -2.3,-2 -2.4,-2.1 -2.3,-2.1 -2.3,-2.1 -2.3,-2.1 -2.3,-2.1 -2.3,-2.1 -2.4,-2 -2.2,-2.1 -2.3,-2.1 -2.3,-2.1 -2.3,-2.1 -2.3,-2.1 -2.4,-2.1 -2.3,-2 -2.3,-2.1 -2.3,-2.1 -2.3,-2.1 -2.3,-2.1 -2.4,-2.1 -2.3,-2.1 -2.3,-2 -2.3,-2.1 -2.3,-2.1 -2.3,-2.1 -2.4,-2.1 -2.3,-2.1 -2.3,-2.1 -2.3,-2 -2.3,-2.1 -2.3,-2.1 -2.4,-2.1 -2.3,-2.1 -2.3,-2.1 -2.3,-2.1 -2.3,-2 -2.3,-2.1 -2.4,-2.1 -2.3,-2.1 -2.3,-2.1 -2.3,-2.1 -2.3,-2.1 -2.3,-2 -2.4,-2.1 -2.3,-2.1 -2.3,-2.1 -2.3,-2.1 -2.3,-2.1 -2.3,-2.1 -2.4,-2 -2.3,-2.1 -2.3,-2.1 -2.3,-2.1 -2.3,-2.1 -2.3,-2.1 -2.4,-2.1 -2.3,-2 -2.3,-2.1 -2.3,-2.1 -2.3,-2.1 -2.3,-2.1 -2.4,-2.1 -2.3,-2.1 -2.3,-2.1 -2.3,-2 -2.3,-2.1 -2.3,-2.1 -2.4,-2.1 -2.3,-2.1 -2.3,-2.1 -2.3,-2.1 -2.3,-2 -2.3,-2.1 -2.4,-2.1 -2.3,-2.1 -2.3,-2.1 -2.3,-2.1 -2.3,-2 -2.3,-2 -2.4,-2.1 -2.3,-2.1 -2.3,-2.1 -2.3,-2.1 -2.3,-2.1 -2.3,-2.1 -2.4,-2 -2.3,-2.1 -2.3,-2.1 -2.3,-2.1 -2.3,-2.1 -2.3,-2.1 -2.4,-2.1 -2.3,-2 -2.3,-2.1 h 0.01"
           inkscape:connector-curvature="0"
           style="stroke:#add8e6" />
        <path
           id="path180"
           d="m 355.2,383 -2.3,-2.1 -2.3,-2.1 -2.3,-2.1 -2.4,-2.1 -2.3,-2.1 -2.3,-2 -2.3,-2.1 -2.3,-2.1 -2.3,-2.1 -2.4,-2.1 -2.3,-2.1 -2.3,-2.1 -2.3,-2 -2.3,-2.1 -2.3,-2.1 -2.4,-2.1 -2.3,-2.1 -2.3,-2.1 -2.3,-2.1 -2.3,-2 -2.3,-2.1 -2.4,-2.1 -2.3,-2.1 -2.2,-2.1 -2.3,-2.1 -2.3,-2.1 -2.3,-2.1 -2.4,-2 -2.3,-2.1 -2.3,-2.1 -2.3,-2.1 -2.3,-2.1 -2.3,-2.1 -2.4,-2.1 -2.3,-2 -2.3,-2.1 -2.3,-2.1 -2.3,-2.1 -2.3,-2.1 -2.4,-2.1 -2.3,-2.1 -2.3,-2 -2.3,-2.1 -2.3,-2.1 -2.3,-2.1 -2.4,-2.1 -2.3,-2.1 -2.3,-2.1 -2.3,-2 -2.3,-2.1 -2.3,-2.1 -2.4,-2.1 -2.3,-2.1 -2.3,-2.1 -2.3,-2.1 -2.3,-2 -2.3,-2.1 -2.4,-2.1 -2.3,-2.1 -2.3,-2.1 -2.3,-2.1 -2.3,-2.1 -2.3,-2 -2.4,-2.1 -2.3,-2.1 -2.3,-2.1 -2.3,-2.1 -2.3,-2.1 -2.3,-2.1 -2.4,-2 -2.3,-2.1 -2.3,-2.1 -2.3,-2 -2.3,-2.1 -2.3,-2.1 -2.4,-2.1 -2.3,-2 -2.3,-2.1 -2.3,-2.1 -2.3,-2.1 -2.3,-2.1 -2.4,-2.1 -2.3,-2.1 -2.3,-2 -2.3,-2.1 -2.3,-2.1 -2.3,-2.1 -2.4,-2.1 -2.3,-2.1 -2.3,-2.1 -2.3,-2 -2.3,-2.1 -2.3,-2.1 -2.4,-2.1 -2.3,-2.1 -2.3,-2.1 -2.3,-2.1 -2.3,-2 -2.3,-2.1 m 253,186.9 -2.3,-2.1 -2.4,-2.1 -2.3,-2.1 -2.3,-2.1 -2.3,-2.1 -2.3,-2.1 -2.3,-2 -2.4,-2.1 -2.3,-2.1 -2.3,-2.1 -2.3,-2.1 -2.3,-2.1 -2.3,-2.1 -2.4,-2 -2.3,-2.1 -2.3,-2.1 -2.3,-2.1 -2.3,-2.1 -2.3,-2.1 -2.4,-2.1 -2.3,-2 -2.3,-2.1 -2.3,-2.1 -2.3,-2.1 -2.3,-2.1 -2.4,-2.1 -2.3,-2.1 -2.3,-2 -2.3,-2.1 -2.3,-2.1 -2.3,-2.1 -2.4,-2.1 -2.3,-2.1 -2.3,-2.1 -2.2,-2 -2.3,-2.1 -2.3,-2.1 -2.4,-2.1 -2.3,-2.1 -2.3,-2.1 -2.3,-2.1 -2.3,-2 -2.3,-2.1 -2.4,-2.1 -2.3,-2.1 -2.3,-2.1 -2.3,-2.1 -2.3,-2.1 -2.3,-2 -2.4,-2.1 -2.3,-2.1 -2.3,-2.1 -2.3,-2.1 -2.3,-2.1 -2.3,-2.1 -2.4,-2 -2.3,-2.1 -2.3,-2.1 -2.3,-2.1 -2.3,-2.1 -2.3,-2.1 -2.4,-2.1 -2.3,-2 -2.3,-2 -2.3,-2.1 -2.3,-2.1 -2.3,-2.1 -2.4,-2.1 -2.3,-2.1 -2.3,-2.1 -2.3,-2 -2.3,-2.1 -2.3,-2.1 -2.4,-2.1 -2.3,-2.1 -2.3,-2.1 -2.3,-2.1 -2.3,-2 -2.3,-2.1 -2.4,-2.1 -2.3,-2.1 -2.3,-2.1 -2.3,-2.1 -2.3,-2.1 -2.3,-2 -2.4,-2.1 -2.3,-2.1 -2.3,-2.1 -2.3,-2.1 -2.3,-2.1 -2.3,-2.1 -2.4,-2 -2.3,-2.1 -2.3,-2.1 -2.3,-2.1 -2.3,-2.1 -2.3,-2.1 -2.4,-2.1 -2.3,-2 m 253,186.9 -2.3,-2.1 -2.3,-2.1 -2.3,-2.1 -2.3,-2.1 -2.3,-2.1 -2.4,-2.1 -2.3,-2 -2.3,-2.1 -2.3,-2.1 -2.3,-2.1 -2.3,-2.1 -2.4,-2.1 -2.3,-2.1 -2.3,-2 -2.3,-2.1 -2.3,-2.1 -2.3,-2.1 -2.4,-2.1 -2.3,-2.1 -2.3,-2.1 -2.3,-2 -2.3,-2.1 -2.3,-2.1 -2.4,-2.1 -2.3,-2.1 -2.3,-2.1 -2.3,-2.1 -2.3,-2 -2.3,-2.1 -2.4,-2.1 -2.3,-2.1 -2.3,-2.1 -2.3,-2.1 -2.3,-2.1 -2.3,-2.1 -2.4,-2 -2.3,-2.1 -2.3,-2.1 -2.3,-2.1 -2.3,-2.1 -2.3,-2.1 -2.4,-2.1 -2.3,-2 -2.3,-2.1 -2.2,-2.1 -2.3,-2.1 -2.3,-2.1 -2.4,-2.1 -2.3,-2.1 -2.3,-2 -2.3,-2.1 -2.3,-2.1 -2.3,-2.1 -2.4,-2.1 -2.3,-2 -2.3,-2.1 -2.3,-2 -2.3,-2.1 -2.3,-2.1 -2.4,-2.1 -2.3,-2.1 -2.3,-2.1 -2.3,-2.1 -2.3,-2 -2.3,-2.1 -2.4,-2.1 -2.3,-2.1 -2.3,-2.1 -2.3,-2.1 -2.3,-2.1 -2.3,-2 -2.4,-2.1 -2.3,-2.1 -2.3,-2.1 -2.3,-2.1 -2.3,-2.1 -2.3,-2.1 -2.4,-2 -2.3,-2.1 -2.3,-2.1 -2.3,-2.1 -2.3,-2.1 -2.3,-2.1 -2.4,-2.1 -2.3,-2 -2.3,-2.1 -2.3,-2.1 -2.3,-2.1 -2.3,-2.1 -2.4,-2.1 -2.3,-2.1 -2.3,-2 -2.3,-2.1 -2.3,-2.1 -2.3,-2.1 -2.4,-2.1 -2.3,-2.1 -2.3,-2.1 -2.3,-2 m 253,186.8 -2.3,-2 -2.3,-2.1 -2.3,-2.1 -2.4,-2.1 -2.3,-2.1 -2.3,-2.1 -2.3,-2.1 -2.3,-2 -2.3,-2.1 -2.4,-2.1 -2.3,-2.1 -2.3,-2.1 -2.3,-2.1 -2.3,-2.1 -2.3,-2 -2.4,-2.1 -2.3,-2.1 -2.3,-2.1 -2.3,-2.1 -2.3,-2.1 -2.3,-2.1 -2.4,-2 -2.3,-2.1 -2.3,-2.1 -2.3,-2.1 -2.3,-2.1 -2.3,-2.1 -2.4,-2.1 -2.3,-2 -2.3,-2.1 -2.3,-2.1 -2.3,-2.1 -2.3,-2.1 -2.4,-2.1 -2.3,-2.1 -2.3,-2 -2.3,-2.1 -2.3,-2.1 -2.3,-2.1 -2.4,-2.1 -2.3,-2.1 -2.3,-2.1 -2.3,-2 -2.3,-2.1 -2.3,-2 -2.4,-2.1 -2.3,-2.1 -2.3,-2.1 -2.3,-2.1 -2.3,-2 -2.3,-2.1 -2.4,-2.1 -2.3,-2.1 -2.3,-2.1 -2.2,-2.1 -2.3,-2.1 -2.3,-2 -2.4,-2.1 -2.3,-2.1 -2.3,-2.1 -2.3,-2.1 -2.3,-2.1 -2.3,-2.1 -2.4,-2 -2.3,-2.1 -2.3,-2.1 -2.3,-2.1 -2.3,-2.1 -2.3,-2.1 -2.4,-2.1 -2.3,-2.1 -2.3,-2 -2.3,-2.1 -2.3,-2.1 -2.3,-2.1 -2.4,-2.1 -2.3,-2.1 -2.3,-2.1 -2.3,-2 -2.3,-2.1 -2.3,-2.1 -2.4,-2.1 -2.3,-2.1 -2.3,-2.1 -2.3,-2.1 -2.3,-2 -2.3,-2.1 -2.4,-2.1 -2.3,-2.1 -2.3,-2.1 -2.3,-2.1 -2.3,-2.1 -2.3,-2 -2.4,-2.1 -2.3,-2.1 -2.3,-2.1 -2.3,-2.1 -2.3,-2.1 -2.3,-2.1 m 253,186.9 -2.3,-2 -2.4,-2.1 -2.3,-2.1 -2.3,-2.1 -2.3,-2.1 -2.3,-2.1 -2.3,-2.1 -2.4,-2 -2.3,-2.1 -2.3,-2.1 -2.3,-2.1 -2.3,-2.1 -2.3,-2.1 -2.4,-2.1 -2.3,-2 -2.3,-2.1 -2.3,-2.1 -2.3,-2.1 -2.3,-2.1 -2.4,-2.1 -2.3,-2.1 -2.3,-2 -2.3,-2.1 -2.3,-2.1 -2.3,-2.1 -2.4,-2.1 -2.3,-2.1 -2.3,-2.1 -2.3,-2 -2.3,-2.1 -2.3,-2.1 -2.4,-2.1 -2.3,-2.1 -2.3,-2.1 -2.3,-2.1 -2.3,-2 -2.3,-2 -2.4,-2.1 -2.3,-2.1 -2.3,-2.1 -2.3,-2.1 -2.3,-2.1 -2.3,-2.1 -2.4,-2 -2.3,-2.1 -2.3,-2.1 -2.3,-2.1 -2.3,-2.1 -2.3,-2.1 -2.4,-2.1 -2.3,-2 -2.3,-2.1 -2.3,-2.1 -2.3,-2.1 -2.3,-2.1 -2.4,-2.1 -2.3,-2.1 -2.3,-2 -2.3,-2.1 -2.3,-2.1 -2.3,-2.1 -2.4,-2.1 -2.3,-2.1 -2.3,-2.1 -2.2,-2 -2.3,-2.1 -2.3,-2.1 -2.4,-2.1 -2.3,-2.1 -2.3,-2.1 -2.3,-2.1 -2.3,-2 -2.3,-2.1 -2.4,-2.1 -2.3,-2.1 -2.3,-2.1 -2.3,-2.1 -2.3,-2.1 -2.3,-2 -2.4,-2.1 -2.3,-2.1 -2.3,-2.1 -2.3,-2.1 -2.3,-2.1 -2.3,-2.1 -2.4,-2 -2.3,-2.1 -2.3,-2.1 -2.3,-2.1 -2.3,-2.1 -2.3,-2.1 -2.4,-2.1 -2.3,-2 -2.3,-2.1 -2.3,-2.1 -2.3,-2.1 -2.3,-2.1 -2.4,-2.1 -2.3,-2.1 m 253,186.9 -2.3,-2.1 -2.3,-2 -2.3,-2.1 -2.3,-2.1 -2.3,-2.1 -2.4,-2.1 -2.3,-2.1 -2.3,-2.1 -2.3,-2 -2.3,-2.1 -2.3,-2.1 -2.4,-2.1 -2.3,-2.1 -2.3,-2.1 -2.3,-2.1 -2.3,-2 -2.3,-2.1 -2.4,-2.1 -2.3,-2.1 -2.3,-2.1 -2.3,-2.1 -2.3,-2.1 -2.3,-2 -2.4,-2.1 -2.3,-2.1 -2.3,-2.1 -2.3,-2 -2.3,-2.1 -2.3,-2.1 -2.4,-2 -2.3,-2.1 -2.3,-2.1 -2.3,-2.1 -2.3,-2.1 -2.3,-2.1 -2.4,-2.1 -2.3,-2 -2.3,-2.1 -2.3,-2.1 -2.3,-2.1 -2.3,-2.1 -2.4,-2.1 -2.3,-2.1 -2.3,-2 -2.3,-2.1 -2.3,-2.1 -2.3,-2.1 -2.4,-2.1 -2.3,-2.1 -2.3,-2.1 -2.3,-2 -2.3,-2.1 -2.3,-2.1 -2.4,-2.1 -2.3,-2.1 -2.3,-2.1 -2.3,-2.1 -2.3,-2 -2.3,-2.1 -2.4,-2.1 -2.3,-2.1 -2.3,-2.1 -2.3,-2.1 -2.3,-2.1 -2.3,-2 -2.4,-2.1 -2.3,-2.1 -2.3,-2.1 -2.3,-2.1 -2.3,-2.1 -2.3,-2.1 -2.4,-2 -2.3,-2.1 -2.3,-2.1 -2.3,-2.1 -2.2,-2.1 -2.3,-2.1 -2.4,-2.1 -2.3,-2.1 -2.3,-2 -2.3,-2.1 -2.3,-2.1 -2.3,-2.1 -2.4,-2.1 -2.3,-2.1 -2.3,-2.1 -2.3,-2 -2.3,-2.1 -2.3,-2.1 -2.4,-2.1 -2.3,-2.1 -2.3,-2.1 -2.3,-2.1 -2.3,-2 -2.3,-2.1 -2.4,-2.1 -2.3,-2.1 -2.3,-2.1 -2.3,-2.1 h 0.01"
           inkscape:connector-curvature="0"
           style="stroke:#add8e6" />
        <path
           id="path182"
           d="m 497.8,265.9 -2.3,-2.1 -2.3,-2 -2.4,-2.1 -2.3,-2.1 -2.3,-2.1 -2.3,-2.1 -2.3,-2.1 -2.3,-2.1 -2.4,-2 -2.3,-2.1 -2.3,-2.1 -2.3,-2.1 -2.3,-2.1 -2.3,-2.1 -2.4,-2.1 -2.3,-2 -2.3,-2 -2.3,-2.1 -2.3,-2.1 -2.3,-2.1 -2.4,-2.1 -2.3,-2.1 -2.3,-2 -2.3,-2.1 -2.3,-2.1 -2.3,-2.1 -2.4,-2.1 -2.3,-2.1 -2.3,-2.1 -2.3,-2 -2.3,-2.1 -2.3,-2.1 -2.4,-2.1 -2.3,-2.1 -2.3,-2.1 -2.3,-2.1 -2.3,-2.1 -2.3,-2 -2.4,-2.1 -2.3,-2.1 -2.3,-2.1 -2.3,-2.1 -2.3,-2.1 -2.3,-2.1 -2.4,-2 -2.3,-2.1 -2.3,-2.1 -2.3,-2.1 -2.3,-2.1 -2.3,-2.1 -2.4,-2.1 -2.3,-2 -2.3,-2.1 -2.3,-2.1 -2.3,-2.1 -2.3,-2.1 -2.4,-2.1 -2.3,-2.1 -2.3,-2 -2.3,-2.1 -2.3,-2.1 -2.3,-2.1 -2.4,-2.1 -2.3,-2.1 -2.3,-2.1 -2.3,-2 -2.3,-2.1 -2.3,-2.1 -2.4,-2.1 -2.3,-2.1 -2.3,-2.1 -2.3,-2.1 -2.3,-2 -2.3,-2.1 -2.4,-2.1 -2.3,-2.1 -2.3,-2.1 -2.3,-2.1 -2.3,-2.1 -2.3,-2 -2.4,-2.1 -2.3,-2.1 -2.3,-2.1 -2.3,-2.1 -2.3,-2.1 -2.2,-2.1 -2.4,-2 -2.3,-2.1 -2.3,-2.1 -2.3,-2.1 -2.3,-2.1 -2.3,-2.1 -2.4,-2.1 -2.3,-2 -2.3,-2.1 -2.3,-2.1 -2.3,-2.1 -2.3,-2.1 -2.4,-2.1 m 253.1,186.9 -2.4,-2.1 -2.3,-2.1 -2.3,-2 -2.3,-2.1 -2.3,-2.1 -2.3,-2.1 -2.4,-2.1 -2.3,-2 -2.3,-2.1 -2.3,-2 -2.3,-2.1 -2.3,-2.1 -2.4,-2.1 -2.3,-2.1 -2.3,-2.1 -2.3,-2.1 -2.3,-2 -2.3,-2.1 -2.4,-2.1 -2.3,-2.1 -2.3,-2.1 -2.3,-2.1 -2.3,-2.1 -2.3,-2 -2.4,-2.1 -2.3,-2.1 -2.3,-2.1 -2.3,-2.1 -2.3,-2.1 -2.3,-2.1 -2.4,-2 -2.3,-2.1 -2.3,-2.1 -2.3,-2.1 -2.3,-2.1 -2.3,-2.1 -2.4,-2.1 -2.3,-2 -2.3,-2.1 -2.3,-2.1 -2.3,-2.1 -2.3,-2.1 -2.4,-2.1 -2.3,-2.1 -2.3,-2 -2.3,-2.1 -2.3,-2.1 -2.3,-2.1 -2.4,-2.1 -2.3,-2.1 -2.3,-2.1 -2.3,-2 -2.3,-2.1 -2.3,-2.1 -2.4,-2.1 -2.3,-2.1 -2.3,-2.1 -2.3,-2.1 -2.3,-2 -2.3,-2.1 -2.4,-2.1 -2.3,-2.1 -2.3,-2.1 -2.3,-2.1 -2.3,-2.1 -2.3,-2 -2.4,-2.1 -2.3,-2.1 -2.3,-2.1 -2.3,-2.1 -2.3,-2.1 -2.3,-2.1 -2.4,-2 -2.3,-2.1 -2.3,-2.1 -2.3,-2.1 -2.3,-2.1 -2.3,-2.1 -2.4,-2.1 -2.3,-2.1 -2.3,-2 -2.3,-2.1 -2.3,-2.1 -2.3,-2.1 -2.4,-2.1 -2.3,-2.1 -2.3,-2.1 -2.3,-2 -2.3,-2.1 -2.3,-2.1 -2.4,-2.1 -2.3,-2.1 -2.3,-2.1 -2.3,-2.1 -2.3,-2 -2.2,-2.1 -2.4,-2.1 -2.3,-2.1 -2.3,-2.1 h 0.01"
           inkscape:connector-curvature="0"
           style="stroke:#add8e6" />
      </g>
    </g>
    <g
       id="g184"
       style="color:#000000;fill:none;stroke:#ffffff;stroke-width:1;stroke-linecap:butt;stroke-linejoin:miter"
       transform="translate(71.428571,46.647897)">
      <path
         id="path186"
         d="M 521.6,321.8 307.7,422 M 78.4,328.6 307.7,422 h 0.01"
         inkscape:connector-curvature="0"
         style="stroke:#ffffff" />
    </g>
    <g
       id="g3690"
       style="fill:#ffffff"
       transform="matrix(0.56217845,0,0,0.56217845,348.40722,251.17429)">
      <g
         id="content"
         transform="matrix(1.0629921,0,0,-1.0629921,-186.02362,789.27165)"
         xml:space="preserve"
         stroke-miterlimit="10.433"
         font-style="normal"
         font-variant="normal"
         font-weight="normal"
         font-stretch="normal"
         font-size-adjust="none"
         letter-spacing="normal"
         word-spacing="normal"
         style="font-style:normal;font-variant:normal;font-weight:normal;font-stretch:normal;letter-spacing:normal;word-spacing:normal;text-anchor:start;fill:#ffffff;fill-opacity:1;fill-rule:evenodd;stroke:#000000;stroke-linecap:butt;stroke-linejoin:miter;stroke-miterlimit:10.43299961;stroke-opacity:1;stroke-dasharray:none;stroke-dashoffset:0"><path
           d="m 472.16,421.25 0.03,0.13 0.04,0.15 0.04,0.16 0.04,0.18 0.06,0.19 0.06,0.21 0.06,0.22 0.07,0.22 0.08,0.23 0.09,0.24 0.1,0.25 0.1,0.24 0.11,0.25 0.12,0.25 0.13,0.25 0.14,0.25 0.15,0.24 0.15,0.24 0.17,0.23 0.18,0.22 0.18,0.22 0.2,0.2 0.21,0.19 0.22,0.18 0.23,0.16 0.25,0.14 0.12,0.07 0.13,0.06 0.14,0.05 0.13,0.05 0.14,0.05 0.14,0.04 0.15,0.03 0.15,0.03 0.15,0.02 0.16,0.02 0.16,0.01 0.16,0 c 0.25,0 1.44,0 2.48,-0.64 -1.39,-0.25 -2.39,-1.5 -2.39,-2.69 0,-0.79 0.55,-1.75 1.89,-1.75 1.1,0 2.69,0.89 2.69,2.89 0,2.6 -2.94,3.28 -4.63,3.28 -2.89,0 -4.64,-2.64 -5.23,-3.78 -1.25,3.28 -3.94,3.78 -5.37,3.78 -5.19,0 -8.04,-6.42 -8.04,-7.67 0,-0.5 0.5,-0.5 0.61,-0.5 0.39,0 0.55,0.11 0.64,0.55 1.69,5.28 4.99,6.53 6.68,6.53 0.95,0 2.68,-0.44 2.68,-3.33 0,-1.54 -0.84,-4.89 -2.68,-11.86 -0.8,-3.09 -2.54,-5.18 -4.74,-5.18 -0.3,0 -1.44,0 -2.48,0.65 1.25,0.24 2.34,1.28 2.34,2.69 0,1.34 -1.09,1.73 -1.84,1.73 -1.5,0 -2.75,-1.29 -2.75,-2.89 0,-2.28 2.5,-3.28 4.68,-3.28 3.3,0 5.08,3.49 5.24,3.78 0.59,-1.84 2.39,-3.78 5.37,-3.78 5.14,0 7.99,6.42 7.99,7.67 0,0.5 -0.45,0.5 -0.61,0.5 -0.44,0 -0.55,-0.2 -0.64,-0.54 -1.64,-5.33 -5.03,-6.53 -6.63,-6.53 -1.95,0 -2.75,1.59 -2.75,3.29 0,1.1 0.3,2.19 0.86,4.38 z"
           id="path3693"
           style="fill:#ffffff;stroke-width:0"
           inkscape:connector-curvature="0" /></g>    </g>
    <g
       id="g3905"
       style="fill:#ffffff"
       transform="matrix(0.56217845,0,0,0.56217845,59.50359,252.18444)">
      <g
         word-spacing="normal"
         letter-spacing="normal"
         font-size-adjust="none"
         font-stretch="normal"
         font-weight="normal"
         font-variant="normal"
         font-style="normal"
         stroke-miterlimit="10.433"
         xml:space="preserve"
         transform="matrix(1.0629921,0,0,-1.0629921,-186.02362,789.27165)"
         id="g3907"
         style="font-style:normal;font-variant:normal;font-weight:normal;font-stretch:normal;letter-spacing:normal;word-spacing:normal;text-anchor:start;fill:#ffffff;fill-opacity:1;fill-rule:evenodd;stroke:#000000;stroke-linecap:butt;stroke-linejoin:miter;stroke-miterlimit:10.43299961;stroke-opacity:1;stroke-dasharray:none;stroke-dashoffset:0"><path
           id="path3909"
           d="m 479.74,425.18 0.01,0.04 0.01,0.03 0.01,0.06 0.02,0.05 0.01,0.06 0.01,0.05 0.02,0.04 0.01,0.05 0.01,0.04 0.01,0.04 0,0.04 0.01,0.04 0.01,0.04 0.01,0.03 0,0.03 0.01,0.03 0,0.03 0.01,0.03 0,0.03 0.01,0.05 0,0.06 0,0.05 0,0.05 0.01,0.05 0,0.03 0,0.03 0,0.03 0,0.03 c 0,0.91 -0.69,1.35 -1.44,1.35 -0.5,0 -1.3,-0.3 -1.75,-1.05 -0.1,-0.25 -0.5,-1.78 -0.69,-2.69 -0.36,-1.29 -0.7,-2.64 -1,-3.98 l -2.25,-8.97 c -0.19,-0.75 -2.33,-4.23 -5.62,-4.23 -2.54,0 -3.1,2.18 -3.1,4.03 0,2.29 0.86,5.39 2.55,9.76 0.8,2.05 1,2.6 1,3.6 0,2.23 -1.59,4.07 -4.09,4.07 -4.74,0 -6.58,-7.21 -6.58,-7.67 0,-0.5 0.5,-0.5 0.61,-0.5 0.5,0 0.54,0.11 0.79,0.91 1.35,4.69 3.33,6.17 5.03,6.17 0.4,0 1.25,0 1.25,-1.59 0,-1.25 -0.5,-2.53 -0.85,-3.49 -1.99,-5.28 -2.9,-8.12 -2.9,-10.47 0,-4.42 3.15,-5.92 6.08,-5.92 1.96,0 3.64,0.85 5.03,2.24 -0.64,-2.58 -1.23,-5.03 -3.23,-7.68 -1.3,-1.68 -3.19,-3.14 -5.48,-3.14 -0.69,0 -2.94,0.16 -3.79,2.1 0.8,0 1.46,0 2.14,0.61 0.5,0.43 1,1.09 1,2.03 0,1.55 -1.34,1.75 -1.84,1.75 -1.14,0 -2.8,-0.8 -2.8,-3.24 0,-2.5 2.21,-4.34 5.29,-4.34 5.14,0 10.26,4.55 11.67,10.17 z"
           style="fill:#ffffff;stroke-width:0"
           inkscape:connector-curvature="0" /></g>    </g>
    <g
       id="g4127"
       style="fill:#ffffff"
       transform="matrix(0.56217845,0,0,0.56217845,-78.887304,72.377285)">
      <g
         id="g4129"
         transform="matrix(1.0629921,0,0,-1.0629921,-186.02362,789.27165)"
         xml:space="preserve"
         stroke-miterlimit="10.433"
         font-style="normal"
         font-variant="normal"
         font-weight="normal"
         font-stretch="normal"
         font-size-adjust="none"
         letter-spacing="normal"
         word-spacing="normal"
         style="font-style:normal;font-variant:normal;font-weight:normal;font-stretch:normal;letter-spacing:normal;word-spacing:normal;text-anchor:start;fill:#ffffff;fill-opacity:1;fill-rule:evenodd;stroke:#000000;stroke-linecap:butt;stroke-linejoin:miter;stroke-miterlimit:10.43299961;stroke-opacity:1;stroke-dasharray:none;stroke-dashoffset:0"><path
           d="m 462.14,410.34 0.25,0.27 0.24,0.25 0.24,0.25 0.23,0.24 0.22,0.23 0.22,0.22 0.21,0.22 0.2,0.21 0.2,0.2 0.2,0.19 0.19,0.19 0.19,0.19 0.18,0.17 0.19,0.18 0.35,0.33 0.34,0.32 0.33,0.3 0.33,0.29 0.32,0.29 0.65,0.56 0.33,0.29 0.33,0.28 c 0,0.05 3.08,2.69 4.88,4.49 4.73,4.64 5.83,7.03 5.83,7.21 0,0.5 -0.46,0.5 -0.55,0.5 -0.35,0 -0.5,-0.09 -0.75,-0.54 -1.49,-2.39 -2.53,-3.19 -3.74,-3.19 -1.2,0 -1.79,0.75 -2.54,1.59 -0.94,1.16 -1.78,2.14 -3.44,2.14 -3.73,0 -6.02,-4.62 -6.02,-5.67 0,-0.25 0.14,-0.54 0.6,-0.54 0.45,0 0.54,0.25 0.64,0.54 0.95,2.3 3.84,2.35 4.23,2.35 1.05,0 2,-0.36 3.14,-0.75 2,-0.75 2.55,-0.75 3.85,-0.75 -1.8,-2.14 -5.99,-5.74 -6.92,-6.53 l -4.49,-4.18 c -3.39,-3.34 -5.14,-6.18 -5.14,-6.53 0,-0.5 0.5,-0.5 0.59,-0.5 0.41,0 0.5,0.1 0.8,0.64 1.16,1.75 2.64,3.1 4.24,3.1 1.15,0 1.65,-0.46 2.89,-1.89 0.86,-1.05 1.75,-1.85 3.18,-1.85 4.94,0 7.83,6.33 7.83,7.67 0,0.25 -0.2,0.5 -0.59,0.5 -0.46,0 -0.55,-0.29 -0.71,-0.65 -1.14,-3.24 -4.32,-4.17 -5.98,-4.17 -0.98,0 -1.89,0.29 -2.94,0.64 -1.68,0.64 -2.43,0.84 -3.48,0.84 -0.1,0 -0.89,0 -1.35,-0.14 z"
           id="path4131"
           style="fill:#ffffff;stroke-width:0"
           inkscape:connector-curvature="0" /></g>    </g>
    <g
       id="g4355"
       style="fill:#ffffff"
       transform="matrix(0.51839629,0,0,0.51839629,329.25318,-9.48044)">
      <g
         word-spacing="normal"
         letter-spacing="normal"
         font-size-adjust="none"
         font-stretch="normal"
         font-weight="normal"
         font-variant="normal"
         font-style="normal"
         stroke-miterlimit="10.433"
         xml:space="preserve"
         transform="matrix(1.0629921,0,0,-1.0629921,-186.02362,789.27165)"
         id="g4357"
         style="font-style:normal;font-variant:normal;font-weight:normal;font-stretch:normal;letter-spacing:normal;word-spacing:normal;text-anchor:start;fill:#ffffff;fill-opacity:1;fill-rule:evenodd;stroke:#000000;stroke-linecap:butt;stroke-linejoin:miter;stroke-miterlimit:10.43299961;stroke-opacity:1;stroke-dasharray:none;stroke-dashoffset:0"><path
           id="path4359"
           d="m 461.85,410.04 5.28,5.13 c 7.76,6.87 10.76,9.56 10.76,14.54 0,5.69 -4.48,9.68 -10.56,9.68 -5.64,0 -9.33,-4.6 -9.33,-9.03 0,-2.79 2.5,-2.79 2.64,-2.79 0.86,0 2.6,0.6 2.6,2.64 0,1.3 -0.89,2.6 -2.64,2.6 -0.39,0 -0.5,0 -0.64,-0.05 1.14,3.24 3.83,5.08 6.72,5.08 4.53,0 6.68,-4.05 6.68,-8.13 0,-3.98 -2.5,-7.92 -5.23,-11.01 l -9.56,-10.66 C 458,407.5 458,407.4 458,406.2 h 18.49 l 1.4,8.67 h -1.25 c -0.25,-1.5 -0.59,-3.69 -1.09,-4.44 -0.36,-0.39 -3.64,-0.39 -4.73,-0.39 z"
           style="fill:#ffffff;stroke-width:0"
           inkscape:connector-curvature="0" /><path
           id="path4361"
           d="m 497.12,421.25 0.03,0.13 0.03,0.15 0.04,0.16 0.05,0.18 0.05,0.19 0.06,0.21 0.07,0.22 0.07,0.22 0.08,0.23 0.09,0.24 0.09,0.25 0.11,0.24 0.11,0.25 0.12,0.25 0.13,0.25 0.13,0.25 0.15,0.24 0.16,0.24 0.17,0.23 0.17,0.22 0.19,0.22 0.2,0.2 0.21,0.19 0.22,0.18 0.23,0.16 0.25,0.14 0.12,0.07 0.13,0.06 0.13,0.05 0.14,0.05 0.14,0.05 0.14,0.04 0.15,0.03 0.15,0.03 0.15,0.02 0.15,0.02 0.16,0.01 0.16,0 c 0.25,0 1.44,0 2.49,-0.64 -1.39,-0.25 -2.39,-1.5 -2.39,-2.69 0,-0.79 0.55,-1.75 1.89,-1.75 1.09,0 2.69,0.89 2.69,2.89 0,2.6 -2.94,3.28 -4.63,3.28 -2.89,0 -4.64,-2.64 -5.23,-3.78 -1.25,3.28 -3.94,3.78 -5.38,3.78 -5.19,0 -8.03,-6.42 -8.03,-7.67 0,-0.5 0.5,-0.5 0.61,-0.5 0.39,0 0.55,0.11 0.64,0.55 1.69,5.28 4.99,6.53 6.67,6.53 0.96,0 2.69,-0.44 2.69,-3.33 0,-1.54 -0.84,-4.89 -2.69,-11.86 -0.79,-3.09 -2.53,-5.18 -4.73,-5.18 -0.3,0 -1.44,0 -2.49,0.65 1.25,0.24 2.35,1.28 2.35,2.69 0,1.34 -1.1,1.73 -1.85,1.73 -1.5,0 -2.75,-1.29 -2.75,-2.89 0,-2.28 2.5,-3.28 4.69,-3.28 3.3,0 5.08,3.49 5.24,3.78 0.59,-1.84 2.39,-3.78 5.37,-3.78 5.14,0 7.99,6.42 7.99,7.67 0,0.5 -0.46,0.5 -0.61,0.5 -0.44,0 -0.55,-0.2 -0.64,-0.54 -1.65,-5.33 -5.04,-6.53 -6.63,-6.53 -1.95,0 -2.75,1.59 -2.75,3.29 0,1.1 0.3,2.19 0.86,4.38 z"
           style="fill:#ffffff;stroke-width:0"
           inkscape:connector-curvature="0" /><path
           id="path4363"
           d="m 540.33,417.65 h 13.9 c 0.69,0 1.65,0 1.65,1 0,1 -0.96,1 -1.65,1 h -13.9 v 13.96 c 0,0.68 0,1.64 -1,1.64 -0.99,0 -0.99,-0.96 -0.99,-1.64 v -13.96 h -13.95 c -0.7,0 -1.64,0 -1.64,-1 0,-1 0.94,-1 1.64,-1 h 13.95 v -13.94 c 0,-0.7 0,-1.65 0.99,-1.65 1,0 1,0.95 1,1.65 z"
           style="fill:#ffffff;stroke-width:0"
           inkscape:connector-curvature="0" /><path
           id="path4365"
           d="m 584.32,423.73 0.38,0.13 0.37,0.15 0.37,0.15 0.35,0.17 0.35,0.18 0.34,0.19 0.33,0.2 0.32,0.22 0.32,0.22 0.3,0.23 0.29,0.24 0.28,0.25 0.27,0.26 0.26,0.27 0.25,0.27 0.24,0.29 0.22,0.29 0.22,0.3 0.2,0.3 0.18,0.32 0.18,0.32 0.16,0.32 0.14,0.33 0.14,0.34 0.12,0.34 0.1,0.34 0.09,0.35 0.07,0.36 0.06,0.36 0.04,0.36 0.02,0.36 0.01,0.37 c 0,4.08 -4.39,6.88 -9.17,6.88 -5.03,0 -8.81,-3 -8.81,-6.78 0,-1.65 1.09,-2.6 2.54,-2.6 1.54,0 2.54,1.1 2.54,2.55 0,2.48 -2.35,2.48 -3.08,2.48 1.53,2.44 4.83,3.1 6.62,3.1 2.04,0 4.79,-1.1 4.79,-5.58 0,-0.61 -0.12,-3.49 -1.41,-5.69 -1.49,-2.39 -3.19,-2.53 -4.42,-2.59 -0.41,-0.05 -1.6,-0.14 -1.96,-0.14 -0.39,-0.05 -0.75,-0.1 -0.75,-0.6 0,-0.54 0.36,-0.54 1.21,-0.54 h 2.18 c 4.1,0 5.94,-3.39 5.94,-8.29 0,-6.76 -3.44,-8.21 -5.64,-8.21 -2.14,0 -5.87,0.84 -7.61,3.78 1.74,-0.24 3.28,0.86 3.28,2.75 0,1.79 -1.34,2.78 -2.79,2.78 -1.19,0 -2.78,-0.69 -2.78,-2.89 0,-4.53 4.62,-7.81 10.06,-7.81 6.07,0 10.61,4.53 10.61,9.6 0,4.1 -3.14,7.97 -8.32,9.02 z"
           style="fill:#ffffff;stroke-width:0"
           inkscape:connector-curvature="0" /><path
           id="path4367"
           d="m 619.05,425.18 0.01,0.04 0,0.03 0.02,0.06 0.01,0.05 0.02,0.06 0.01,0.05 0.01,0.04 0.01,0.05 0.02,0.04 0,0.04 0.01,0.04 0.01,0.04 0.01,0.04 0,0.03 0.01,0.03 0.01,0.03 0,0.03 0,0.03 0.01,0.03 0,0.05 0.01,0.06 0,0.05 0,0.05 0,0.05 0,0.03 0,0.03 0,0.03 0,0.03 c 0,0.91 -0.68,1.35 -1.43,1.35 -0.5,0 -1.3,-0.3 -1.75,-1.05 -0.1,-0.25 -0.5,-1.78 -0.69,-2.69 -0.36,-1.29 -0.7,-2.64 -1,-3.98 l -2.25,-8.97 c -0.19,-0.75 -2.33,-4.23 -5.63,-4.23 -2.53,0 -3.09,2.18 -3.09,4.03 0,2.29 0.86,5.39 2.55,9.76 0.79,2.05 1,2.6 1,3.6 0,2.23 -1.6,4.07 -4.1,4.07 -4.73,0 -6.57,-7.21 -6.57,-7.67 0,-0.5 0.5,-0.5 0.61,-0.5 0.5,0 0.54,0.11 0.79,0.91 1.35,4.69 3.33,6.17 5.03,6.17 0.39,0 1.25,0 1.25,-1.59 0,-1.25 -0.5,-2.53 -0.86,-3.49 -1.98,-5.28 -2.89,-8.12 -2.89,-10.47 0,-4.42 3.14,-5.92 6.08,-5.92 1.95,0 3.64,0.85 5.03,2.24 -0.64,-2.58 -1.23,-5.03 -3.23,-7.68 -1.3,-1.68 -3.19,-3.14 -5.49,-3.14 -0.68,0 -2.93,0.16 -3.78,2.1 0.8,0 1.46,0 2.14,0.61 0.5,0.43 1,1.09 1,2.03 0,1.55 -1.34,1.75 -1.84,1.75 -1.14,0 -2.8,-0.8 -2.8,-3.24 0,-2.5 2.21,-4.34 5.28,-4.34 5.14,0 10.27,4.55 11.68,10.17 z"
           style="fill:#ffffff;stroke-width:0"
           inkscape:connector-curvature="0" /><path
           id="path4369"
           d="m 652.4,417.65 h 13.91 c 0.69,0 1.64,0 1.64,1 0,1 -0.95,1 -1.64,1 H 652.4 v 13.96 c 0,0.68 0,1.64 -1,1.64 -0.98,0 -0.98,-0.96 -0.98,-1.64 v -13.96 h -13.95 c -0.71,0 -1.65,0 -1.65,-1 0,-1 0.94,-1 1.65,-1 h 13.95 v -13.94 c 0,-0.7 0,-1.65 0.98,-1.65 1,0 1,0.95 1,1.65 z"
           style="fill:#ffffff;stroke-width:0"
           inkscape:connector-curvature="0" /><path
           id="path4371"
           d="m 704.2,416.21 -0.01,0.56 -0.04,0.54 -0.06,0.54 -0.08,0.53 -0.1,0.53 -0.12,0.51 -0.15,0.5 -0.16,0.5 -0.19,0.48 -0.2,0.47 -0.23,0.46 -0.24,0.44 -0.26,0.43 -0.28,0.41 -0.29,0.4 -0.31,0.38 -0.33,0.36 -0.34,0.35 -0.35,0.32 -0.37,0.31 -0.39,0.29 -0.39,0.26 -0.41,0.25 -0.42,0.22 -0.44,0.2 -0.44,0.17 -0.46,0.15 -0.46,0.13 -0.47,0.09 -0.49,0.07 -0.49,0.05 -0.5,0.01 c -2.39,0 -4.53,-0.8 -6.33,-2.53 v 9.7 c 1,-0.29 2.64,-0.64 4.24,-0.64 6.12,0 9.61,4.53 9.61,5.19 0,0.3 -0.15,0.55 -0.5,0.55 -0.05,0 -0.15,0 -0.4,-0.16 -1,-0.45 -3.43,-1.44 -6.78,-1.44 -1.98,0 -4.28,0.35 -6.62,1.39 -0.39,0.14 -0.5,0.14 -0.6,0.14 -0.5,0 -0.5,-0.39 -0.5,-1.18 v -14.75 c 0,-0.89 0,-1.3 0.71,-1.3 0.34,0 0.44,0.16 0.64,0.45 0.55,0.8 2.39,3.49 6.42,3.49 2.6,0 3.85,-2.3 4.23,-3.19 0.82,-1.84 0.91,-3.78 0.91,-6.28 0,-1.74 0,-4.74 -1.2,-6.83 -1.19,-1.94 -3.03,-3.23 -5.33,-3.23 -3.64,0 -6.47,2.64 -7.33,5.57 0.16,-0.04 0.32,-0.09 0.86,-0.09 1.64,0 2.49,1.25 2.49,2.44 0,1.2 -0.85,2.44 -2.49,2.44 -0.7,0 -2.45,-0.35 -2.45,-2.65 0,-4.28 3.44,-9.1 9.03,-9.1 5.76,0 10.86,4.78 10.86,11.1 z"
           style="fill:#ffffff;stroke-width:0"
           inkscape:connector-curvature="0" /><path
           id="path4373"
           d="m 713.41,410.34 0.24,0.27 0.25,0.25 0.23,0.25 0.23,0.24 0.22,0.23 0.22,0.22 0.21,0.22 0.21,0.21 0.2,0.2 0.19,0.19 0.19,0.19 0.19,0.19 0.19,0.17 0.18,0.18 0.35,0.33 0.34,0.32 0.33,0.3 0.33,0.29 0.33,0.29 0.64,0.56 0.33,0.29 0.33,0.28 c 0,0.05 3.08,2.69 4.88,4.49 4.73,4.64 5.83,7.03 5.83,7.21 0,0.5 -0.46,0.5 -0.55,0.5 -0.34,0 -0.5,-0.09 -0.75,-0.54 -1.48,-2.39 -2.53,-3.19 -3.73,-3.19 -1.21,0 -1.8,0.75 -2.55,1.59 -0.94,1.16 -1.78,2.14 -3.44,2.14 -3.73,0 -6.01,-4.62 -6.01,-5.67 0,-0.25 0.14,-0.54 0.59,-0.54 0.45,0 0.55,0.25 0.64,0.54 0.95,2.3 3.84,2.35 4.23,2.35 1.05,0 2,-0.36 3.14,-0.75 2,-0.75 2.55,-0.75 3.85,-0.75 -1.8,-2.14 -5.99,-5.74 -6.92,-6.53 l -4.49,-4.18 c -3.39,-3.34 -5.14,-6.18 -5.14,-6.53 0,-0.5 0.5,-0.5 0.6,-0.5 0.4,0 0.5,0.1 0.79,0.64 1.16,1.75 2.64,3.1 4.24,3.1 1.15,0 1.65,-0.46 2.89,-1.89 0.86,-1.05 1.75,-1.85 3.18,-1.85 4.94,0 7.83,6.33 7.83,7.67 0,0.25 -0.2,0.5 -0.59,0.5 -0.45,0 -0.55,-0.29 -0.7,-0.65 -1.14,-3.24 -4.33,-4.17 -5.99,-4.17 -0.98,0 -1.89,0.29 -2.94,0.64 -1.68,0.64 -2.43,0.84 -3.48,0.84 -0.09,0 -0.89,0 -1.34,-0.14 z"
           style="fill:#ffffff;stroke-width:0"
           inkscape:connector-curvature="0" /><path
           id="path4375"
           d="m 780.13,422.5 0.14,0 0.15,0 0.14,0 0.07,0.01 0.08,0 0.07,0.01 0.07,0.01 0.07,0.01 0.07,0.01 0.07,0.01 0.06,0.02 0.07,0.02 0.06,0.02 0.06,0.02 0.06,0.03 0.06,0.03 0.05,0.04 0.05,0.03 0.05,0.05 0.04,0.04 0.04,0.05 0.02,0.03 0.02,0.03 0.01,0.02 0.02,0.03 0.01,0.03 0.01,0.04 0.02,0.03 0.01,0.04 0.01,0.03 0.01,0.04 0,0.04 0.01,0.04 0,0.04 0.01,0.04 0,0.04 0,0.05 c 0,1 -0.95,1 -1.64,1 h -29.84 c -0.71,0 -1.64,0 -1.64,-1 0,-0.98 0.93,-0.98 1.68,-0.98 z"
           style="fill:#ffffff;stroke-width:0"
           inkscape:connector-curvature="0" /><path
           id="path4377"
           d="m 780.18,412.82 0.07,0 0.06,0 0.14,0.01 0.14,0 0.07,0 0.07,0.01 0.07,0.01 0.06,0 0.07,0.01 0.07,0.02 0.07,0.01 0.06,0.02 0.07,0.02 0.06,0.02 0.06,0.02 0.05,0.03 0.06,0.03 0.05,0.04 0.05,0.04 0.05,0.04 0.04,0.05 0.02,0.02 0.02,0.03 0.02,0.02 0.02,0.03 0.01,0.03 0.02,0.03 0.01,0.03 0.01,0.03 0.02,0.04 0.01,0.03 0.01,0.04 0.01,0.04 0,0.04 0.01,0.04 0,0.04 0.01,0.04 0,0.05 0,0.04 c 0,1 -0.95,1 -1.69,1 h -29.75 c -0.75,0 -1.68,0 -1.68,-1 0,-1 0.93,-1 1.64,-1 z"
           style="fill:#ffffff;stroke-width:0"
           inkscape:connector-curvature="0" /><path
           id="path4379"
           d="m 821.38,422.14 -0.01,0.74 -0.01,0.75 -0.02,0.75 -0.03,0.74 -0.05,0.75 -0.06,0.74 -0.07,0.74 -0.1,0.73 -0.11,0.73 -0.14,0.73 -0.17,0.72 -0.18,0.72 -0.22,0.72 -0.25,0.7 -0.27,0.7 -0.16,0.35 -0.15,0.34 c -2.29,4.8 -6.38,5.6 -8.47,5.6 -2.99,0 -6.63,-1.3 -8.68,-5.94 -1.59,-3.44 -1.84,-7.33 -1.84,-11.31 0,-3.74 0.2,-8.22 2.25,-12 2.14,-4.03 5.78,-5.03 8.22,-5.03 v 1.09 c -1.94,0 -4.89,1.25 -5.78,6.03 -0.55,2.98 -0.55,7.56 -0.55,10.52 0,3.18 0,6.46 0.41,9.15 0.94,5.94 4.67,6.38 5.92,6.38 1.64,0 4.94,-0.89 5.87,-5.83 0.5,-2.78 0.5,-6.58 0.5,-9.7 0,-3.75 0,-7.13 -0.54,-10.32 -0.75,-4.73 -3.6,-6.23 -5.83,-6.23 h 0 v -1.09 c 2.69,0 6.47,1.04 8.67,5.78 1.59,3.43 1.85,7.31 1.85,11.25 z"
           style="fill:#ffffff;stroke-width:0"
           inkscape:connector-curvature="0" /></g>    </g>
  </g>
</svg>
