<?xml version="1.0" encoding="UTF-8" standalone="no"?>
<!-- Created with Inkscape (http://www.inkscape.org/) -->

<svg
   xmlns:dc="http://purl.org/dc/elements/1.1/"
   xmlns:cc="http://creativecommons.org/ns#"
   xmlns:rdf="http://www.w3.org/1999/02/22-rdf-syntax-ns#"
   xmlns:svg="http://www.w3.org/2000/svg"
   xmlns="http://www.w3.org/2000/svg"
   xmlns:sodipodi="http://sodipodi.sourceforge.net/DTD/sodipodi-0.dtd"
   xmlns:inkscape="http://www.inkscape.org/namespaces/inkscape"
   width="210mm"
   height="297mm"
   id="svg3050"
   version="1.1"
   inkscape:version="0.48.3.1 r9886"
   sodipodi:docname="新規ドキュメント 2">
  <sodipodi:namedview
     id="base"
     pagecolor="#000000"
     bordercolor="#666666"
     borderopacity="1.0"
     inkscape:pageopacity="0"
     inkscape:pageshadow="2"
     inkscape:zoom="0.98994949"
     inkscape:cx="280.28439"
     inkscape:cy="505.56983"
     inkscape:document-units="px"
     inkscape:current-layer="layer1"
     showgrid="false"
     inkscape:window-width="1366"
     inkscape:window-height="746"
     inkscape:window-x="0"
     inkscape:window-y="22"
     inkscape:window-maximized="0" />
  <defs
     id="defs3052">
    <marker
       inkscape:stockid="Arrow1Lendc"
       orient="auto"
       refY="0"
       refX="0"
       id="Arrow1Lendc"
       style="overflow:visible">
      <path
         id="path5633"
         d="M 0,0 5,-5 -12.5,0 5,5 0,0 z"
         style="fill:#ffffff;fill-rule:evenodd;stroke:#ffffff;stroke-width:1pt"
         transform="matrix(-0.8,0,0,-0.8,-10,0)"
         inkscape:connector-curvature="0" />
    </marker>
    <marker
       inkscape:stockid="Arrow1LendT"
       orient="auto"
       refY="0"
       refX="0"
       id="Arrow1LendT"
       style="overflow:visible">
      <path
         id="path5630"
         d="M 0,0 5,-5 -12.5,0 5,5 0,0 z"
         style="fill:#ffffff;fill-rule:evenodd;stroke:#ffffff;stroke-width:1pt"
         transform="matrix(-0.8,0,0,-0.8,-10,0)"
         inkscape:connector-curvature="0" />
    </marker>
    <marker
       inkscape:stockid="Arrow1LstartU"
       orient="auto"
       refY="0"
       refX="0"
       id="Arrow1LstartU"
       style="overflow:visible">
      <path
         id="path5636"
         d="M 0,0 5,-5 -12.5,0 5,5 0,0 z"
         style="fill:#ffffff;fill-rule:evenodd;stroke:#ffffff;stroke-width:1pt"
         transform="matrix(0.8,0,0,0.8,10,0)"
         inkscape:connector-curvature="0" />
    </marker>
  </defs>
  <metadata
     id="metadata3055">
    <rdf:RDF>
      <cc:Work
         rdf:about="">
        <dc:format>image/svg+xml</dc:format>
        <dc:type
           rdf:resource="http://purl.org/dc/dcmitype/StillImage" />
        <dc:title></dc:title>
      </cc:Work>
    </rdf:RDF>
  </metadata>
  <g
     id="layer1"
     inkscape:groupmode="layer"
     inkscape:label="レイヤー 1">
    <g
       id="g27"
       style="color:#ffffff;fill:none;stroke:currentColor;stroke-width:1;stroke-linecap:butt;stroke-linejoin:miter"
       transform="translate(21.302515,336.48637)" />
    <g
       id="gnuplot_plot_1"
       style="stroke:#ffffff"
       transform="translate(21.302515,336.48637)">
      <title
         id="title170">gnuplot_plot_1</title>
      <g
         id="g172"
         style="color:#ff0000;fill:none;stroke:#ffffff;stroke-width:1;stroke-linecap:butt;stroke-linejoin:miter">
        <path
           inkscape:connector-curvature="0"
           id="path174"
           d="m 80.5,219.8 2.5,1 2.5,1 2.5,1 2.6,1 2.5,1 2.5,1 2.6,1 2.5,1 2.5,1 2.6,1 2.5,1 2.5,0.9 2.5,1 2.6,1 2.5,1 2.5,1 2.6,1 2.5,1 2.5,1 2.6,1 2.5,1 2.5,1 2.5,1 2.6,1 2.5,1 2.5,1 2.6,1 2.5,1 2.5,1 2.6,1.1 2.5,1 2.5,1 2.5,1 2.6,1 2.5,1 2.5,1 2.6,1 2.5,1 2.5,1 2.6,1 2.5,1 2.5,1 2.5,1 2.6,1 2.5,1 2.5,1 2.6,1 2.5,1 2.5,1 2.6,1 2.5,1 2.5,1 2.5,1 2.6,1 2.5,1 2.5,1 2.6,1 2.5,1 2.5,1 2.5,1 2.6,1 2.5,1 2.5,1 2.6,1 2.5,1 2.5,1 2.6,1 2.5,1 2.5,1 2.5,1 2.6,1 2.5,1 2.5,1 2.6,1 2.5,1 2.5,1 2.6,1 2.5,1 2.5,1 2.5,1 2.6,1 2.5,1 2.5,1 2.6,1 2.5,1 2.5,1 2.5,1 2.5,1 2.5,1 2.5,1 2.6,1 2.5,1 2.5,1 2.6,1 2.5,1.1 2.5,1 2.6,1 2.5,1 2.5,1 m -229.4,-78.5 2.6,0.3 2.5,0.3 2.5,0.3 2.5,0.2 2.6,0.3 2.5,0.3 2.5,0.3 2.6,0.3 2.5,0.3 2.5,0.3 2.6,0.3 2.5,0.2 2.5,0.3 2.5,0.3 2.6,0.3 2.5,0.3 2.5,0.3 2.6,0.3 2.5,0.3 2.5,0.3 2.6,0.2 2.5,0.3 2.5,0.3 2.5,0.3 2.6,0.3 2.5,0.3 2.5,0.3 2.6,0.3 2.5,0.2 2.5,0.3 2.6,0.3 2.5,0.3 2.5,0.3 2.5,0.3 2.6,0.3 2.5,0.3 2.5,0.3 2.6,0.2 2.5,0.3 2.5,0.3 2.6,0.3 2.5,0.3 2.5,0.3 2.5,0.3 2.6,0.3 2.5,0.3 2.5,0.2 2.6,0.3 2.5,0.3 2.5,0.3 2.6,0.3 2.5,0.3 2.5,0.3 2.5,0.3 2.6,0.2 2.5,0.3 2.5,0.3 2.6,0.3 2.5,0.3 2.5,0.3 2.5,0.3 2.6,0.3 2.5,0.3 2.5,0.2 2.6,0.3 2.5,0.3 2.5,0.3 2.6,0.3 2.5,0.3 2.5,0.3 2.5,0.3 2.6,0.2 2.5,0.3 2.5,0.3 2.6,0.3 2.5,0.3 2.5,0.3 2.6,0.3 2.4,0.3 2.5,0.3 2.5,0.2 2.6,0.3 2.5,0.3 2.5,0.3 2.6,0.3 2.5,0.3 2.5,0.3 2.6,0.3 2.5,0.3 2.5,0.2 2.5,0.3 2.6,0.3 2.5,0.3 2.5,0.3 2.6,0.3 2.5,0.3 2.5,0.3 2.6,0.2 2.5,0.3 m -229.4,-24.4 2.5,0 2.6,-0.1 2.5,-0.1 2.5,-0.1 2.5,-0.1 2.6,-0.1 2.5,-0.1 2.5,-0.1 2.6,-0.1 2.5,-0.1 2.5,-0.1 2.6,0 2.5,-0.1 2.5,-0.1 2.5,-0.1 2.6,-0.1 2.5,-0.1 2.5,-0.1 2.6,-0.1 2.5,-0.1 2.5,-0.1 2.6,-0.1 2.5,0 2.5,-0.1 2.5,-0.1 2.6,-0.1 2.5,-0.1 2.5,-0.1 2.6,-0.1 2.5,-0.1 2.5,-0.1 2.6,-0.1 2.5,-0.1 2.5,0 2.5,-0.1 2.6,-0.1 2.5,-0.1 2.5,-0.1 2.6,-0.1 2.5,-0.1 2.5,-0.1 2.6,-0.1 2.5,-0.1 2.5,-0.1 2.5,0 2.6,-0.1 2.5,-0.1 2.5,-0.1 2.6,-0.1 2.5,-0.1 2.5,-0.1 2.5,-0.1 2.6,-0.1 2.5,-0.1 2.5,-0.1 2.6,-0.1 2.5,0 2.5,-0.1 2.6,-0.1 2.5,-0.1 2.5,-0.1 2.5,-0.1 2.6,-0.1 2.5,-0.1 2.5,-0.1 2.6,-0.1 2.5,-0.1 2.5,0 2.6,-0.1 2.5,-0.1 2.4,-0.1 2.5,-0.1 2.6,-0.1 2.5,-0.1 2.5,-0.1 2.6,-0.1 2.5,-0.1 2.5,-0.1 2.6,0 2.5,-0.1 2.5,-0.1 2.5,-0.1 2.6,-0.1 2.5,-0.1 2.5,-0.1 2.6,-0.1 2.5,-0.1 2.5,-0.1 2.6,-0.1 2.5,0 2.5,-0.1 2.5,-0.1 2.6,-0.1 2.5,-0.1 2.5,-0.1 2.6,-0.1 2.5,-0.1 2.5,-0.1 2.6,-0.1 m -229.4,-12 2.5,0 2.5,0.1 2.6,0 2.5,0.1 2.5,0 2.5,0 2.6,0.1 2.5,0 2.5,0.1 2.6,0 2.5,0.1 2.5,0 2.6,0 2.5,0.1 2.5,0 2.5,0.1 2.6,0 2.5,0 2.5,0.1 2.6,0 2.5,0.1 2.5,0 2.6,0 2.5,0.1 2.5,0 2.5,0.1 2.6,0 2.5,0 2.5,0.1 2.6,0 2.5,0.1 2.5,0 2.6,0 2.5,0.1 2.5,0 2.5,0.1 2.6,0 2.5,0.1 2.5,0 2.6,0 2.5,0.1 2.5,0 2.6,0.1 2.5,0 2.5,0 2.5,0.1 2.6,0 2.5,0.1 2.5,0 2.6,0 2.5,0.1 2.5,0 2.5,0.1 2.6,0 2.5,0 2.5,0.1 2.6,0 2.5,0.1 2.5,0 2.6,0 2.5,0.1 2.4,0 2.5,0.1 2.6,0 2.5,0.1 2.5,0 2.6,0 2.5,0.1 2.5,0 2.6,0.1 2.5,0 2.5,0 2.5,0.1 2.6,0 2.5,0.1 2.5,0 2.6,0 2.5,0.1 2.5,0 2.6,0.1 2.5,0 2.5,0 2.5,0.1 2.6,0 2.5,0.1 2.5,0 2.6,0 2.5,0.1 2.5,0 2.6,0.1 2.5,0 2.5,0.1 2.5,0 2.6,0 2.5,0.1 2.5,0 2.6,0.1 2.5,0 2.5,0 m -229.4,-47.4 2.6,0.6 2.5,0.7 2.5,0.6 2.6,0.6 2.5,0.6 2.5,0.6 2.5,0.7 2.6,0.6 2.5,0.6 2.5,0.6 2.6,0.7 2.5,0.6 2.5,0.6 2.6,0.6 2.5,0.6 2.5,0.7 2.5,0.6 2.6,0.6 2.5,0.6 2.5,0.6 2.6,0.7 2.5,0.6 2.5,0.6 2.6,0.6 2.5,0.7 2.5,0.6 2.5,0.6 2.6,0.6 2.5,0.6 2.5,0.7 2.6,0.6 2.5,0.6 2.5,0.6 2.6,0.7 2.5,0.6 2.5,0.6 2.5,0.6 2.6,0.6 2.5,0.7 2.5,0.6 2.6,0.6 2.5,0.6 2.5,0.7 2.6,0.6 2.5,0.6 2.5,0.6 2.5,0.6 2.6,0.7 2.5,0.6 2.5,0.6 2.6,0.6 2.5,0.7 2.5,0.6 2.4,0.6 2.6,0.6 2.5,0.6 2.5,0.7 2.6,0.6 2.5,0.6 2.5,0.6 2.6,0.7 2.5,0.6 2.5,0.6 2.5,0.6 2.6,0.6 2.5,0.7 2.5,0.6 2.6,0.6 2.5,0.6 2.5,0.7 2.6,0.6 2.5,0.6 2.5,0.6 2.5,0.6 2.6,0.7 2.5,0.6 2.5,0.6 2.6,0.6 2.5,0.7 2.5,0.6 2.6,0.6 2.5,0.5 2.5,0.6 2.5,0.7 2.6,0.6 2.5,0.6 2.5,0.6 2.6,0.7 2.5,0.6 2.5,0.6 2.6,0.6 2.5,0.6 2.5,0.7 2.5,0.6 2.6,0.6 2.5,0.6 2.5,0.6 2.6,0.7 2.5,0.6 m -229.4,-113.7 2.5,1.4 2.6,1.4 2.5,1.4 2.5,1.3 2.6,1.4 2.5,1.4 2.5,1.4 2.5,1.4 2.6,1.4 2.5,1.3 2.5,1.4 2.6,1.4 2.5,1.4 2.5,1.4 2.6,1.3 2.5,1.4 2.5,1.4 2.5,1.4 2.6,1.4 2.5,1.3 2.5,1.4 2.6,1.4 2.5,1.4 2.5,1.4 2.6,1.3 2.5,1.4 2.5,1.4 2.5,1.4 2.6,1.4 2.5,1.4 2.5,1.3 2.6,1.4 2.5,1.4 2.5,1.4 2.6,1.4 2.5,1.3 2.5,1.4 2.5,1.4 2.6,1.4 2.5,1.4 2.5,1.3 2.6,1.4 2.5,1.4 2.5,1.4 2.6,1.4 2.4,1.3 2.5,1.4 2.5,1.4 2.6,1.4 2.5,1.4 2.5,1.4 2.6,1.3 2.5,1.4 2.5,1.4 2.5,1.4 2.6,1.4 2.5,1.3 2.5,1.4 2.6,1.4 2.5,1.4 2.5,1.4 2.6,1.3 2.5,1.4 2.5,1.4 2.5,1.4 2.6,1.4 2.5,1.3 2.5,1.4 2.6,1.4 2.5,1.4 2.5,1.4 2.6,1.4 2.5,1.3 2.5,1.4 2.5,1.3 2.6,1.4 2.5,1.4 2.5,1.3 2.6,1.4 2.5,1.4 2.5,1.4 2.6,1.4 2.5,1.3 2.5,1.4 2.5,1.4 2.6,1.4 2.5,1.4 2.5,1.3 2.6,1.4 2.5,1.4 2.5,1.4 2.6,1.4 2.5,1.4 2.5,1.3 2.5,1.4 2.6,1.4 2.5,1.4 2.5,1.4 2.6,1.3 h 0.01"
           style="stroke:#ffffff" />
        <path
           inkscape:connector-curvature="0"
           id="path176"
           d="m 206.3,84.5 2.5,2 2.5,1.9 2.6,2 2.5,2 2.5,1.9 2.6,2 2.5,2 2.5,1.9 2.5,2 2.6,1.9 2.5,2 2.5,2 2.6,1.9 2.5,2 2.5,2 2.6,1.9 2.5,2 2.5,1.9 2.5,2 2.6,2 2.5,1.9 2.5,2 2.6,2 2.5,1.9 2.5,2 2.6,1.9 2.5,2 2.5,2 2.5,1.9 2.6,2 2.5,2 2.5,1.9 2.6,2 2.5,1.9 2.5,2 2.6,2 2.5,1.9 2.4,2 2.5,2 2.6,1.9 2.5,2 2.5,1.9 2.6,2 2.5,2 2.5,1.9 2.6,2 2.5,2 2.5,1.9 2.5,2 2.6,1.9 2.5,2 2.5,2 2.6,1.9 2.5,2 2.5,2 2.5,1.9 2.6,2 2.5,1.9 2.5,2 2.6,2 2.5,1.9 2.5,2 2.6,2 2.5,1.9 2.5,2 2.5,1.9 2.6,2 2.5,2 2.5,1.9 2.6,2 2.5,2 2.5,1.9 2.6,2 2.5,1.9 2.5,1.9 2.5,2 2.6,1.9 2.5,2 2.5,2 2.6,1.9 2.5,2 2.5,1.9 2.6,2 2.5,2 2.5,1.9 2.5,2 2.6,1.9 2.5,2 2.5,2 2.6,1.9 2.5,2 2.5,2 2.6,1.9 2.5,2 2.5,1.9 2.5,2 2.6,2 2.5,1.9 2.5,2 M 227.2,63.4 l 2.6,2.1 2.5,2.1 2.5,2.1 2.6,2.1 2.5,2.1 2.5,2 2.6,2.1 2.5,2.1 2.5,2.1 2.5,2.1 2.6,2.1 2.5,2.1 2.5,2.1 2.6,2.1 2.5,2.1 2.5,2.1 2.6,2.1 2.5,2.1 2.5,2.1 2.5,2.1 2.6,2.1 2.5,2.1 2.5,2 2.6,2.1 2.5,2.1 2.5,2.1 2.6,2.1 2.5,2.1 2.4,2.1 2.5,2.1 2.6,2.1 2.5,2.1 2.5,2.1 2.6,2.1 2.5,2.1 2.5,2.1 2.6,2.1 2.5,2.1 2.5,2.1 2.5,2 2.6,2.1 2.5,2.1 2.5,2.1 2.6,2.1 2.5,2.1 2.5,2.1 2.6,2.1 2.5,2.1 2.5,2.1 2.5,2.1 2.6,2.1 2.5,2.1 2.5,2.1 2.6,2.1 2.5,2.1 2.5,2.1 2.5,2 2.6,2.1 2.5,2.1 2.5,2.1 2.6,2.1 2.5,2.1 2.5,2.1 2.6,2.1 2.5,2.1 2.5,2.1 2.5,2.1 2.6,2.1 2.5,2.1 2.5,2.1 2.6,2.1 2.5,2.1 2.5,2.1 2.6,2 2.5,2.1 2.5,2.1 2.5,2.1 2.6,2.1 2.5,2.1 2.5,2.1 2.6,2 2.5,2.1 2.5,2.1 2.6,2.1 2.5,2.1 2.5,2.1 2.5,2.1 2.6,2.1 2.5,2.1 2.5,2.1 2.6,2 2.5,2.1 2.5,2.1 2.6,2.1 2.5,2.1 2.5,2.1 2.5,2.1 2.6,2.1 2.5,2.1 M 248.2,67.5 l 2.5,1.8 2.6,1.7 2.5,1.7 2.5,1.7 2.6,1.7 2.5,1.7 2.5,1.7 2.6,1.8 2.5,1.7 2.5,1.7 2.5,1.7 2.6,1.7 2.5,1.7 2.5,1.7 2.6,1.8 2.5,1.7 2.5,1.7 2.6,1.7 2.5,1.7 2.5,1.7 2.4,1.8 2.6,1.7 2.5,1.7 2.5,1.7 2.6,1.7 2.5,1.7 2.5,1.7 2.6,1.8 2.5,1.7 2.5,1.7 2.5,1.7 2.6,1.7 2.5,1.7 2.5,1.7 2.6,1.8 2.5,1.7 2.5,1.7 2.6,1.7 2.5,1.7 2.5,1.7 2.5,1.7 2.6,1.8 2.5,1.7 2.5,1.7 2.6,1.7 2.5,1.7 2.5,1.7 2.5,1.7 2.6,1.8 2.5,1.7 2.5,1.7 2.6,1.7 2.5,1.7 2.5,1.7 2.6,1.8 2.5,1.7 2.5,1.7 2.5,1.7 2.6,1.7 2.5,1.7 2.5,1.7 2.6,1.8 2.5,1.7 2.5,1.7 2.6,1.7 2.5,1.7 2.5,1.7 2.5,1.7 2.6,1.8 2.5,1.7 2.5,1.7 2.6,1.7 2.5,1.7 2.5,1.7 2.6,1.7 2.5,1.8 2.5,1.7 2.5,1.7 2.6,1.7 2.5,1.7 2.5,1.7 2.6,1.7 2.5,1.8 2.5,1.7 2.6,1.7 2.5,1.7 2.5,1.7 2.5,1.7 2.6,1.8 2.5,1.7 2.5,1.7 2.6,1.7 2.5,1.7 2.5,1.7 2.6,1.7 2.5,1.7 2.5,1.7 2.5,1.7 2.6,1.7 m -229.4,-149 2.5,1 2.5,1 2.6,1 2.5,1 2.5,1 2.6,1 2.5,1 2.5,1 2.6,1 2.5,1 2.5,1 2.5,1 2.5,1 2.5,1 2.5,1 2.6,1 2.5,1.1 2.5,1 2.6,1 2.5,1 2.5,1 2.5,1 2.6,1 2.5,1 2.5,1 2.6,1 2.5,1 2.5,1 2.6,1 2.5,1 2.5,1 2.5,1 2.6,1 2.5,1 2.5,1 2.6,1 2.5,1 2.5,1 2.6,1 2.5,1 2.5,1 2.5,1 2.6,1 2.5,1 2.5,1 2.6,1 2.5,1 2.5,1 2.5,1 2.6,1 2.5,1 2.5,1 2.6,1 2.5,1 2.5,1 2.6,1 2.5,1 2.5,1 2.5,1 2.6,1 2.5,1 2.5,1 2.6,1 2.5,1 2.5,1 2.6,1 2.5,1 2.5,1 2.5,1 2.6,1 2.5,1 2.5,1 2.6,1 2.5,1 2.5,1 2.6,1 2.5,1 2.5,1 2.5,1 2.6,1 2.5,1 2.5,1.1 2.6,1 2.5,1 2.5,1 2.6,1 2.5,1 2.5,1 2.5,1 2.6,1 2.5,1 2.5,1 2.6,1 2.5,1 2.5,1 2.6,1 2.5,1 2.5,1 2.5,1 m -439,32.4 1.9,2.2 1.9,2.1 1.9,2.1 1.9,2.1 1.9,2 1.9,1.8 1.9,1.9 1.9,1.8 1.9,1.6 1.9,1.6 1.9,1.4 1.9,1.3 1.9,1.1 1.9,0.9 2,0.8 1.9,0.6 1.9,0.4 1.9,0.2 1.9,0.1 1.9,-0.2 1.9,-0.4 1.9,-0.7 1.9,-0.8 1.9,-1 1.9,-1.3 1.9,-1.5 1.9,-1.7 1.9,-2 1.9,-2.1 2,-2.4 1.9,-2.4 1.9,-2.8 1.9,-3 1.9,-3.2 1.9,-3.3 1.9,-3.5 1.9,-3.7 1.9,-3.9 1.9,-4 1.9,-4.1 1.9,-4.3 1.9,-4.4 1.9,-4.4 1.9,-4.6 1.9,-4.6 2,-4.7 1.9,-4.8 1.9,-4.8 1.9,-4.8 1.9,-4.8 1.9,-4.8 1.9,-4.8 1.9,-4.7 1.9,-4.7 1.9,-4.7 1.9,-4.5 1.9,-4.5 1.9,-4.4 1.9,-4.3 1.9,-4.1 1.9,-4 2,-3.8 1.9,-3.7 1.9,-3.6 1.9,-3.3 1.9,-3.2 1.9,-3 1.9,-2.7 1.9,-2.6 1.9,-2.4 1.9,-2.1 1.9,-1.9 1.9,-1.8 1.9,-1.5 1.9,-1.2 1.9,-1.1 1.9,-0.8 2,-0.6 1.9,-0.4 1.9,-0.2 1.9,0 1.9,0.2 1.9,0.4 1.9,0.6 1.9,0.8 1.9,1 1.9,1.1 1.9,1.2 1.9,1.5 1.9,1.5 1.9,1.7 1.9,1.7 2,1.9 1.9,1.9 1.9,2 1.9,2.1 1.9,2.1 1.9,2.2 1.9,2.1 m -160.9,142.6 1.9,1.3 1.9,1.4 1.9,1.3 1.9,1.3 1.9,1.3 1.9,1.2 1.9,1.2 1.9,1.1 1.9,1 2,0.9 1.9,0.8 1.9,0.6 1.9,0.6 1.9,0.5 1.9,0.3 1.9,0.2 1.9,0 1.9,-0.1 1.9,-0.3 1.9,-0.5 1.9,-0.6 1.9,-0.8 1.9,-0.9 1.9,-1.1 1.9,-1.3 2,-1.5 1.9,-1.6 1.9,-1.8 1.9,-2 1.9,-2.1 1.9,-2.2 1.9,-2.4 1.9,-2.6 1.9,-2.8 1.9,-2.9 1.9,-3 1.9,-3.2 1.9,-3.3 1.9,-3.4 1.9,-3.5 1.9,-3.6 2,-3.7 1.9,-3.8 1.9,-3.8 1.9,-4 1.9,-3.9 1.9,-4 1.9,-4 1.9,-4 1.9,-4.1 1.9,-4 1.9,-4 1.9,-4 1.9,-4 1.9,-3.9 1.9,-3.8 1.9,-3.8 2,-3.7 1.9,-3.6 1.9,-3.5 1.9,-3.4 1.9,-3.3 1.9,-3.2 1.9,-3 1.9,-2.9 1.9,-2.8 1.9,-2.6 1.9,-2.5 1.9,-2.3 1.9,-2.1 1.9,-2 1.9,-1.8 2,-1.6 1.9,-1.4 1.9,-1.3 1.9,-1.1 1.9,-1 1.9,-0.8 1.9,-0.6 1.9,-0.4 1.9,-0.3 1.9,-0.1 1.9,0 1.9,0.2 1.9,0.3 1.9,0.4 1.9,0.6 1.9,0.7 2,0.8 1.9,0.9 1.9,1 1.9,1.1 1.9,1.1 1.9,1.3 1.9,1.2 1.9,1.3 1.9,1.4 1.9,1.4 1.9,1.3 h 0.01"
           style="stroke:#ffffff" />
        <path
           inkscape:connector-curvature="0"
           id="path178"
           d="m 136.1,241.7 1.9,0.6 1.9,0.6 1.9,0.6 1.9,0.6 1.9,0.5 2,0.5 1.9,0.4 1.9,0.4 1.9,0.4 1.9,0.2 1.9,0.2 1.9,0.1 1.9,0.1 1.9,-0.1 1.9,-0.1 1.9,-0.3 1.9,-0.4 1.9,-0.4 1.9,-0.6 1.9,-0.7 1.9,-0.8 2,-1 1.9,-1 1.9,-1.2 1.9,-1.3 1.9,-1.4 1.9,-1.5 1.9,-1.7 1.9,-1.8 1.9,-1.8 1.9,-2 1.9,-2.2 1.9,-2.2 1.9,-2.3 1.9,-2.5 1.9,-2.6 2,-2.6 1.9,-2.7 1.9,-2.8 1.9,-2.9 1.9,-3 1.9,-3 1.9,-3.1 1.9,-3.1 1.9,-3.2 1.9,-3.2 1.9,-3.2 1.9,-3.3 1.9,-3.2 1.9,-3.3 1.9,-3.2 1.9,-3.3 2,-3.2 1.9,-3.2 1.9,-3.2 1.9,-3.1 1.9,-3.1 1.9,-3 1.9,-3 1.9,-2.9 1.9,-2.8 1.9,-2.7 1.9,-2.7 1.9,-2.5 1.9,-2.5 1.9,-2.3 1.9,-2.2 1.9,-2.2 2,-2 1.9,-1.9 1.9,-1.8 1.9,-1.7 1.9,-1.5 1.9,-1.4 1.9,-1.3 1.9,-1.2 1.9,-1 1.9,-1 1.9,-0.8 1.9,-0.7 1.9,-0.6 1.9,-0.4 1.9,-0.4 1.9,-0.3 2,-0.1 1.8,-0.1 1.9,0.1 1.9,0.1 1.9,0.2 1.9,0.2 1.9,0.4 1.9,0.3 1.9,0.5 1.9,0.5 1.9,0.5 1.9,0.6 1.9,0.6 1.9,0.6 1.9,0.6 m -160.8,142.5 1.9,-0.2 2,-0.2 1.9,-0.2 1.9,-0.2 1.9,-0.2 1.9,-0.2 1.9,-0.3 1.9,-0.3 1.9,-0.3 1.9,-0.4 1.9,-0.4 1.9,-0.5 1.9,-0.5 1.9,-0.5 1.9,-0.7 1.9,-0.7 2,-0.7 1.9,-0.8 1.9,-0.9 1.9,-0.9 1.9,-1.1 1.9,-1.1 1.9,-1.1 1.9,-1.3 1.9,-1.3 1.9,-1.4 1.9,-1.4 1.9,-1.5 1.9,-1.6 1.9,-1.6 1.9,-1.8 1.9,-1.8 2,-1.9 1.9,-1.9 1.9,-2 1.9,-2.1 1.9,-2.1 1.9,-2.1 1.9,-2.3 1.9,-2.2 1.9,-2.3 1.9,-2.4 1.9,-2.4 1.9,-2.4 1.9,-2.4 1.9,-2.4 1.9,-2.5 1.9,-2.5 2,-2.5 1.9,-2.5 1.9,-2.5 1.9,-2.4 1.9,-2.5 1.9,-2.5 1.9,-2.4 1.9,-2.4 1.9,-2.4 1.9,-2.3 1.9,-2.3 1.9,-2.3 1.9,-2.2 1.9,-2.2 1.9,-2.1 2,-2.1 1.9,-2 1.9,-1.9 1.9,-1.9 1.9,-1.8 1.9,-1.8 1.9,-1.6 1.9,-1.6 1.8,-1.6 1.9,-1.4 1.9,-1.4 1.9,-1.3 1.9,-1.2 1.9,-1.2 1.9,-1.1 1.9,-1 2,-1 1.9,-0.9 1.9,-0.8 1.9,-0.7 1.9,-0.7 1.9,-0.6 1.9,-0.6 1.9,-0.5 1.9,-0.5 1.9,-0.4 1.9,-0.4 1.9,-0.3 1.9,-0.3 1.9,-0.3 1.9,-0.2 1.9,-0.2 2,-0.2 1.9,-0.2 1.9,-0.2 1.9,-0.1 m -160.8,142.5 1.9,-1 1.9,-0.9 1.9,-1 1.9,-0.9 1.9,-1 1.9,-0.9 1.9,-1 1.9,-1 1.9,-1 1.9,-1 1.9,-1 1.9,-1.1 2,-1 1.9,-1.1 1.9,-1.1 1.9,-1.1 1.9,-1.1 1.9,-1.2 1.9,-1.2 1.9,-1.2 1.9,-1.2 1.9,-1.3 1.9,-1.2 1.9,-1.3 1.9,-1.4 1.9,-1.3 1.9,-1.4 1.9,-1.4 2,-1.4 1.9,-1.3 1.9,-1.5 1.9,-1.5 1.9,-1.5 1.9,-1.5 1.9,-1.6 1.9,-1.6 1.9,-1.6 1.9,-1.6 1.9,-1.6 1.9,-1.6 1.9,-1.7 1.9,-1.7 1.9,-1.6 2,-1.7 1.9,-1.7 1.9,-1.7 1.9,-1.7 1.9,-1.7 1.9,-1.8 1.9,-1.7 1.9,-1.7 1.9,-1.7 1.9,-1.7 1.9,-1.7 1.9,-1.7 1.9,-1.7 1.8,-1.7 1.9,-1.6 1.9,-1.7 2,-1.6 1.9,-1.7 1.9,-1.6 1.9,-1.6 1.9,-1.5 1.9,-1.6 1.9,-1.5 1.9,-1.5 1.9,-1.5 1.9,-1.5 1.9,-1.4 1.9,-1.5 1.9,-1.4 1.9,-1.3 1.9,-1.4 1.9,-1.3 2,-1.3 1.9,-1.3 1.9,-1.2 1.9,-1.3 1.9,-1.2 1.9,-1.1 1.9,-1.2 1.9,-1.1 1.9,-1.1 1.9,-1.1 1.9,-1.1 1.9,-1.1 1.9,-1 1.9,-1 1.9,-1 1.9,-1 2,-1 1.9,-1 1.9,-1 1.9,-0.9 1.9,-1 1.9,-0.9 1.9,-1 1.9,-0.9 m -160.8,142.5 1.9,-1.7 1.9,-1.7 1.9,-1.8 1.9,-1.7 1.9,-1.7 1.9,-1.7 1.9,-1.6 2,-1.7 1.9,-1.7 1.9,-1.6 1.9,-1.7 1.9,-1.6 1.9,-1.6 1.9,-1.6 1.9,-1.5 1.9,-1.6 1.9,-1.5 1.9,-1.5 1.9,-1.5 1.9,-1.4 1.9,-1.5 1.9,-1.4 1.9,-1.3 2,-1.4 1.9,-1.3 1.9,-1.4 1.9,-1.2 1.9,-1.3 1.9,-1.1 1.9,-1.3 1.9,-1.1 1.9,-1.2 1.9,-1.2 1.9,-1.1 1.9,-1.1 1.9,-1.1 1.9,-1 1.9,-1.1 1.9,-1 2,-1 1.9,-1 1.9,-1 1.8,-1 1.9,-1 1.9,-0.9 1.9,-1 1.9,-0.9 1.9,-1 1.9,-0.9 1.9,-1 1.9,-0.9 1.9,-1 1.9,-0.9 1.9,-1 1.9,-0.9 2,-1 1.9,-1 1.9,-1 1.9,-1 1.9,-1 1.9,-1 1.9,-1.1 1.9,-1 1.9,-1.1 1.9,-1.1 1.9,-1.1 1.9,-1.2 1.9,-1.2 1.9,-1.2 1.9,-1.2 2,-1.2 1.9,-1.3 1.9,-1.3 1.9,-1.3 1.9,-1.3 1.9,-1.4 1.9,-1.3 1.9,-1.4 1.9,-1.5 1.9,-1.4 1.9,-1.5 1.9,-1.5 1.9,-1.5 1.9,-1.6 1.9,-1.5 1.9,-1.6 2,-1.6 1.9,-1.6 1.9,-1.7 1.9,-1.6 1.9,-1.7 1.9,-1.7 1.9,-1.6 1.9,-1.7 1.9,-1.7 1.9,-1.7 1.9,-1.8 1.9,-1.7 1.9,-1.7 m -160.8,142.5 1.9,-2.5 1.9,-2.5 1.9,-2.4 2,-2.5 1.9,-2.5 1.9,-2.4 1.9,-2.4 1.9,-2.3 1.9,-2.4 1.9,-2.2 1.9,-2.3 1.9,-2.2 1.9,-2.1 1.9,-2.1 1.9,-2 1.9,-2 1.9,-1.9 1.9,-1.9 1.9,-1.7 2,-1.8 1.9,-1.6 1.9,-1.6 1.9,-1.5 1.9,-1.4 1.9,-1.3 1.9,-1.3 1.9,-1.2 1.8,-1 1.9,-1.1 1.9,-1 1.9,-0.9 1.9,-0.8 1.9,-0.8 1.9,-0.7 1.9,-0.7 2,-0.6 1.9,-0.5 1.9,-0.5 1.9,-0.4 1.9,-0.4 1.9,-0.4 1.9,-0.3 1.9,-0.3 1.9,-0.2 1.9,-0.3 1.9,-0.2 1.9,-0.2 1.9,-0.1 1.9,-0.2 1.9,-0.2 2,-0.1 1.9,-0.2 1.9,-0.2 1.9,-0.2 1.9,-0.2 1.9,-0.3 1.9,-0.3 1.9,-0.3 1.9,-0.3 1.9,-0.4 1.9,-0.5 1.9,-0.5 1.9,-0.5 1.9,-0.6 1.9,-0.6 1.9,-0.8 2,-0.7 1.9,-0.9 1.9,-0.9 1.9,-1 1.9,-1 1.9,-1.2 1.9,-1.2 1.9,-1.2 1.9,-1.4 1.9,-1.4 1.9,-1.5 1.9,-1.6 1.9,-1.6 1.9,-1.7 1.9,-1.8 1.9,-1.8 2,-2 1.9,-1.9 1.9,-2.1 1.9,-2 1.9,-2.2 1.9,-2.2 1.9,-2.2 1.9,-2.3 1.9,-2.3 1.9,-2.4 1.9,-2.4 1.9,-2.4 1.9,-2.5 1.9,-2.4 1.9,-2.5 2,-2.5 1.9,-2.5 m -160.8,142.5 1.9,-3.2 1.9,-3.3 1.9,-3.2 1.9,-3.3 1.9,-3.1 1.9,-3.2 1.9,-3.1 1.9,-3 1.9,-3 1.9,-3 1.9,-2.8 1.9,-2.8 1.9,-2.7 1.8,-2.6 2,-2.5 1.9,-2.4 1.9,-2.3 1.9,-2.2 1.9,-2 1.9,-2 1.9,-1.8 1.9,-1.8 1.9,-1.6 1.9,-1.5 1.9,-1.3 1.9,-1.2 1.9,-1.1 1.9,-1 1.9,-0.8 1.9,-0.8 2,-0.6 1.9,-0.5 1.9,-0.5 1.9,-0.3 1.9,-0.2 1.9,-0.1 1.9,0 1.9,0.1 1.9,0.1 1.9,0.3 1.9,0.3 1.9,0.3 1.9,0.4 1.9,0.5 1.9,0.5 1.9,0.6 2,0.5 1.9,0.6 1.9,0.6 1.9,0.5 1.9,0.6 1.9,0.6 1.9,0.6 1.9,0.5 1.9,0.6 1.9,0.4 1.9,0.4 1.9,0.4 1.9,0.3 1.9,0.2 1.9,0.2 1.9,0.1 2,-0.1 1.9,-0.1 1.9,-0.2 1.9,-0.3 1.9,-0.4 1.9,-0.5 1.9,-0.7 1.9,-0.7 1.9,-0.9 1.9,-1 1.9,-1 1.9,-1.2 1.9,-1.4 1.9,-1.5 1.9,-1.6 2,-1.7 1.9,-1.8 1.9,-2 1.9,-2.1 1.9,-2.2 1.9,-2.3 1.9,-2.4 1.9,-2.5 1.9,-2.6 1.9,-2.7 1.9,-2.7 1.9,-2.9 1.9,-2.9 1.9,-3 1.9,-3 1.9,-3.1 2,-3.2 1.9,-3.2 1.9,-3.2 1.9,-3.2 1.9,-3.3 1.9,-3.3 h 0.01"
           style="stroke:#ffffff" />
        <path
           inkscape:connector-curvature="0"
           id="path180"
           d="m 303,307.8 1.9,-4 1.9,-4 1.9,-4 1.9,-4 1.9,-3.9 1.9,-3.9 1.9,-3.8 1.9,-3.8 1.9,-3.6 1.9,-3.6 2,-3.4 1.9,-3.4 1.9,-3.2 1.9,-3.1 1.9,-3 1.9,-2.8 1.9,-2.7 1.9,-2.5 1.9,-2.4 1.9,-2.2 1.9,-2.1 1.9,-1.9 1.9,-1.7 1.9,-1.5 1.9,-1.4 1.9,-1.1 2,-1 1.9,-0.9 1.9,-0.7 1.9,-0.5 1.9,-0.4 1.9,-0.2 1.9,0 1.9,0.1 1.9,0.2 1.9,0.4 1.9,0.5 1.9,0.7 1.9,0.7 1.9,0.9 1.9,0.8 2,1 1.9,1.2 1.9,1.2 1.9,1.2 1.9,1.3 1.9,1.3 1.9,1.4 1.9,1.4 1.9,1.3 1.9,1.4 1.9,1.4 1.9,1.3 1.9,1.3 1.9,1.2 1.9,1.2 1.9,1.2 2,1 1.9,0.9 1.9,0.9 1.9,0.7 1.9,0.7 1.9,0.5 1.9,0.4 1.9,0.2 1.9,0.1 1.9,0 1.9,-0.2 1.9,-0.4 1.9,-0.5 1.9,-0.7 1.9,-0.9 1.9,-1 2,-1.2 1.9,-1.4 1.9,-1.5 1.9,-1.7 1.9,-1.9 1.9,-2.1 1.9,-2.2 1.9,-2.4 1.9,-2.5 1.9,-2.7 1.9,-2.8 1.9,-2.9 1.9,-3.1 1.9,-3.2 1.9,-3.4 1.9,-3.4 2,-3.6 1.9,-3.6 1.9,-3.8 1.9,-3.8 1.9,-3.9 1.9,-3.9 1.9,-4 1.9,-4 1.9,-4 1.9,-4 m -160.9,142.5 1.9,-4.9 1.9,-4.8 1.9,-4.7 1.9,-4.8 1.9,-4.6 1.9,-4.6 2,-4.6 1.9,-4.4 1.9,-4.3 1.9,-4.2 1.9,-4.1 1.9,-3.9 1.9,-3.8 1.9,-3.6 1.9,-3.4 1.9,-3.3 1.9,-3 1.9,-2.9 1.9,-2.7 1.9,-2.5 1.9,-2.2 2,-2.1 1.9,-1.8 1.9,-1.6 1.9,-1.3 1.9,-1.1 1.9,-1 1.9,-0.7 1.9,-0.5 1.9,-0.3 1.9,-0.1 1.9,0.1 1.9,0.3 1.9,0.5 1.9,0.7 1.9,0.9 1.9,1 2,1.1 1.9,1.4 1.9,1.5 1.9,1.6 1.9,1.7 1.9,1.8 1.9,1.9 1.9,2 1.9,2 1.9,2.1 1.9,2.1 1.9,2.2 1.9,2.1 1.9,2.2 1.9,2.1 1.9,2.1 2,2.1 1.9,1.9 1.9,1.9 1.9,1.9 1.9,1.7 1.9,1.6 1.9,1.5 1.9,1.3 1.9,1.2 1.9,1 1.9,0.9 1.9,0.7 1.9,0.5 1.9,0.3 1.9,0.1 1.9,-0.1 2,-0.2 1.9,-0.6 1.9,-0.7 1.9,-0.9 1.9,-1.2 1.9,-1.4 1.9,-1.6 1.9,-1.8 1.9,-2 1.9,-2.3 1.9,-2.5 1.9,-2.6 1.9,-2.9 1.9,-3.1 1.9,-3.3 2,-3.4 1.9,-3.6 1.9,-3.8 1.9,-3.9 1.9,-4.1 1.9,-4.1 1.9,-4.3 1.9,-4.4 1.9,-4.5 1.9,-4.6 1.9,-4.7 1.9,-4.7 1.9,-4.8 1.9,-4.8 1.9,-4.8 h 0.01"
           style="stroke:#ffffff" />
      </g>
    </g>
    <path
       style="fill:none;stroke:#ffffff;stroke-width:1px;stroke-linecap:butt;stroke-linejoin:miter;stroke-opacity:1;marker-end:url(#Arrow1Lendc)"
       d="m 317.23473,539.8762 0,-142.37288"
       id="path3167"
       inkscape:connector-curvature="0"
       sodipodi:nodetypes="cc" />
    <path
       style="fill:none;stroke:#ffffff;stroke-width:1;stroke-linecap:butt;stroke-linejoin:miter;stroke-miterlimit:4;stroke-opacity:1;stroke-dasharray:none;marker-end:url(#Arrow1LendT)"
       d="M 169.77709,480.89316 510.45506,616.14739"
       id="path3171"
       inkscape:connector-curvature="0"
       sodipodi:nodetypes="cc" />
    <path
       style="fill:none;stroke:#ffffff;stroke-width:1;stroke-linecap:butt;stroke-linejoin:miter;stroke-miterlimit:4;stroke-opacity:1;stroke-dasharray:none;marker-start:url(#Arrow1LstartU);marker-end:none"
       d="M 196.21776,625.29993 426.04828,462.58807"
       id="path3177"
       inkscape:connector-curvature="0"
       sodipodi:nodetypes="cc" />
    <g
       id="g3119"
       style="fill:#ffffff"
       transform="matrix(0.64039608,0,0,0.64039608,326.98404,389.03815)">
      <g
         word-spacing="normal"
         letter-spacing="normal"
         font-size-adjust="none"
         font-stretch="normal"
         font-weight="normal"
         font-variant="normal"
         font-style="normal"
         stroke-miterlimit="10.433"
         xml:space="preserve"
         transform="matrix(1.0629921,0,0,-1.0629921,-186.02362,789.27165)"
         id="content"
         style="font-style:normal;font-variant:normal;font-weight:normal;font-stretch:normal;letter-spacing:normal;word-spacing:normal;text-anchor:start;fill:#ffffff;fill-opacity:1;fill-rule:evenodd;stroke:#000000;stroke-linecap:butt;stroke-linejoin:miter;stroke-miterlimit:10.43299961;stroke-opacity:1;stroke-dasharray:none;stroke-dashoffset:0"><path
           id="path3122"
           d="m 472.16,421.25 0.03,0.13 0.04,0.15 0.04,0.16 0.04,0.18 0.06,0.19 0.06,0.21 0.06,0.22 0.07,0.22 0.08,0.23 0.09,0.24 0.1,0.25 0.1,0.24 0.11,0.25 0.12,0.25 0.13,0.25 0.14,0.25 0.15,0.24 0.15,0.24 0.17,0.23 0.18,0.22 0.18,0.22 0.2,0.2 0.21,0.19 0.22,0.18 0.23,0.16 0.25,0.14 0.12,0.07 0.13,0.06 0.14,0.05 0.13,0.05 0.14,0.05 0.14,0.04 0.15,0.03 0.15,0.03 0.15,0.02 0.16,0.02 0.16,0.01 0.16,0 c 0.25,0 1.44,0 2.48,-0.64 -1.39,-0.25 -2.39,-1.5 -2.39,-2.69 0,-0.79 0.55,-1.75 1.89,-1.75 1.1,0 2.69,0.89 2.69,2.89 0,2.6 -2.94,3.28 -4.63,3.28 -2.89,0 -4.64,-2.64 -5.23,-3.78 -1.25,3.28 -3.94,3.78 -5.37,3.78 -5.19,0 -8.04,-6.42 -8.04,-7.67 0,-0.5 0.5,-0.5 0.61,-0.5 0.39,0 0.55,0.11 0.64,0.55 1.69,5.28 4.99,6.53 6.68,6.53 0.95,0 2.68,-0.44 2.68,-3.33 0,-1.54 -0.84,-4.89 -2.68,-11.86 -0.8,-3.09 -2.54,-5.18 -4.74,-5.18 -0.3,0 -1.44,0 -2.48,0.65 1.25,0.24 2.34,1.28 2.34,2.69 0,1.34 -1.09,1.73 -1.84,1.73 -1.5,0 -2.75,-1.29 -2.75,-2.89 0,-2.28 2.5,-3.28 4.68,-3.28 3.3,0 5.08,3.49 5.24,3.78 0.59,-1.84 2.39,-3.78 5.37,-3.78 5.14,0 7.99,6.42 7.99,7.67 0,0.5 -0.45,0.5 -0.61,0.5 -0.44,0 -0.55,-0.2 -0.64,-0.54 -1.64,-5.33 -5.03,-6.53 -6.63,-6.53 -1.95,0 -2.75,1.59 -2.75,3.29 0,1.1 0.3,2.19 0.86,4.38 z"
           style="fill:#ffffff;stroke-width:0"
           inkscape:connector-curvature="0" /></g>    </g>
    <g
       id="g3172"
       style="fill:#ffffff"
       transform="matrix(0.64039608,0,0,0.64039608,13.836753,417.32242)">
      <g
         id="g3174"
         transform="matrix(1.0629921,0,0,-1.0629921,-186.02362,789.27165)"
         xml:space="preserve"
         stroke-miterlimit="10.433"
         font-style="normal"
         font-variant="normal"
         font-weight="normal"
         font-stretch="normal"
         font-size-adjust="none"
         letter-spacing="normal"
         word-spacing="normal"
         style="font-style:normal;font-variant:normal;font-weight:normal;font-stretch:normal;letter-spacing:normal;word-spacing:normal;text-anchor:start;fill:#ffffff;fill-opacity:1;fill-rule:evenodd;stroke:#000000;stroke-linecap:butt;stroke-linejoin:miter;stroke-miterlimit:10.43299961;stroke-opacity:1;stroke-dasharray:none;stroke-dashoffset:0"><path
           d="m 479.74,425.18 0.01,0.04 0.01,0.03 0.01,0.06 0.02,0.05 0.01,0.06 0.01,0.05 0.02,0.04 0.01,0.05 0.01,0.04 0.01,0.04 0,0.04 0.01,0.04 0.01,0.04 0.01,0.03 0,0.03 0.01,0.03 0,0.03 0.01,0.03 0,0.03 0.01,0.05 0,0.06 0,0.05 0,0.05 0.01,0.05 0,0.03 0,0.03 0,0.03 0,0.03 c 0,0.91 -0.69,1.35 -1.44,1.35 -0.5,0 -1.3,-0.3 -1.75,-1.05 -0.1,-0.25 -0.5,-1.78 -0.69,-2.69 -0.36,-1.29 -0.7,-2.64 -1,-3.98 l -2.25,-8.97 c -0.19,-0.75 -2.33,-4.23 -5.62,-4.23 -2.54,0 -3.1,2.18 -3.1,4.03 0,2.29 0.86,5.39 2.55,9.76 0.8,2.05 1,2.6 1,3.6 0,2.23 -1.59,4.07 -4.09,4.07 -4.74,0 -6.58,-7.21 -6.58,-7.67 0,-0.5 0.5,-0.5 0.61,-0.5 0.5,0 0.54,0.11 0.79,0.91 1.35,4.69 3.33,6.17 5.03,6.17 0.4,0 1.25,0 1.25,-1.59 0,-1.25 -0.5,-2.53 -0.85,-3.49 -1.99,-5.28 -2.9,-8.12 -2.9,-10.47 0,-4.42 3.15,-5.92 6.08,-5.92 1.96,0 3.64,0.85 5.03,2.24 -0.64,-2.58 -1.23,-5.03 -3.23,-7.68 -1.3,-1.68 -3.19,-3.14 -5.48,-3.14 -0.69,0 -2.94,0.16 -3.79,2.1 0.8,0 1.46,0 2.14,0.61 0.5,0.43 1,1.09 1,2.03 0,1.55 -1.34,1.75 -1.84,1.75 -1.14,0 -2.8,-0.8 -2.8,-3.24 0,-2.5 2.21,-4.34 5.29,-4.34 5.14,0 10.26,4.55 11.67,10.17 z"
           id="path3176"
           style="fill:#ffffff;stroke-width:0"
           inkscape:connector-curvature="0" /></g>    </g>
    <g
       id="g3232"
       style="fill:#ffffff"
       transform="matrix(0.64039608,0,0,0.64039608,133.03475,174.88581)">
      <g
         word-spacing="normal"
         letter-spacing="normal"
         font-size-adjust="none"
         font-stretch="normal"
         font-weight="normal"
         font-variant="normal"
         font-style="normal"
         stroke-miterlimit="10.433"
         xml:space="preserve"
         transform="matrix(1.0629921,0,0,-1.0629921,-186.02362,789.27165)"
         id="g3234"
         style="font-style:normal;font-variant:normal;font-weight:normal;font-stretch:normal;letter-spacing:normal;word-spacing:normal;text-anchor:start;fill:#ffffff;fill-opacity:1;fill-rule:evenodd;stroke:#000000;stroke-linecap:butt;stroke-linejoin:miter;stroke-miterlimit:10.43299961;stroke-opacity:1;stroke-dasharray:none;stroke-dashoffset:0"><path
           id="path3236"
           d="m 462.14,410.34 0.25,0.27 0.24,0.25 0.24,0.25 0.23,0.24 0.22,0.23 0.22,0.22 0.21,0.22 0.2,0.21 0.2,0.2 0.2,0.19 0.19,0.19 0.19,0.19 0.18,0.17 0.19,0.18 0.35,0.33 0.34,0.32 0.33,0.3 0.33,0.29 0.32,0.29 0.65,0.56 0.33,0.29 0.33,0.28 c 0,0.05 3.08,2.69 4.88,4.49 4.73,4.64 5.83,7.03 5.83,7.21 0,0.5 -0.46,0.5 -0.55,0.5 -0.35,0 -0.5,-0.09 -0.75,-0.54 -1.49,-2.39 -2.53,-3.19 -3.74,-3.19 -1.2,0 -1.79,0.75 -2.54,1.59 -0.94,1.16 -1.78,2.14 -3.44,2.14 -3.73,0 -6.02,-4.62 -6.02,-5.67 0,-0.25 0.14,-0.54 0.6,-0.54 0.45,0 0.54,0.25 0.64,0.54 0.95,2.3 3.84,2.35 4.23,2.35 1.05,0 2,-0.36 3.14,-0.75 2,-0.75 2.55,-0.75 3.85,-0.75 -1.8,-2.14 -5.99,-5.74 -6.92,-6.53 l -4.49,-4.18 c -3.39,-3.34 -5.14,-6.18 -5.14,-6.53 0,-0.5 0.5,-0.5 0.59,-0.5 0.41,0 0.5,0.1 0.8,0.64 1.16,1.75 2.64,3.1 4.24,3.1 1.15,0 1.65,-0.46 2.89,-1.89 0.86,-1.05 1.75,-1.85 3.18,-1.85 4.94,0 7.83,6.33 7.83,7.67 0,0.25 -0.2,0.5 -0.59,0.5 -0.46,0 -0.55,-0.29 -0.71,-0.65 -1.14,-3.24 -4.32,-4.17 -5.98,-4.17 -0.98,0 -1.89,0.29 -2.94,0.64 -1.68,0.64 -2.43,0.84 -3.48,0.84 -0.1,0 -0.89,0 -1.35,-0.14 z"
           style="fill:#ffffff;stroke-width:0"
           inkscape:connector-curvature="0" /></g>    </g>
  </g>
</svg>
