<?xml version="1.0" encoding="UTF-8" standalone="no"?>
<!-- Created with Inkscape (http://www.inkscape.org/) -->

<svg
   xmlns:dc="http://purl.org/dc/elements/1.1/"
   xmlns:cc="http://creativecommons.org/ns#"
   xmlns:rdf="http://www.w3.org/1999/02/22-rdf-syntax-ns#"
   xmlns:svg="http://www.w3.org/2000/svg"
   xmlns="http://www.w3.org/2000/svg"
   xmlns:xlink="http://www.w3.org/1999/xlink"
   xmlns:sodipodi="http://sodipodi.sourceforge.net/DTD/sodipodi-0.dtd"
   xmlns:inkscape="http://www.inkscape.org/namespaces/inkscape"
   width="210mm"
   height="297mm"
   id="svg3262"
   version="1.1"
   inkscape:version="0.48.3.1 r9886"
   sodipodi:docname="新規ドキュメント 2">
  <sodipodi:namedview
     id="base"
     pagecolor="#000000"
     bordercolor="#666666"
     borderopacity="1.0"
     inkscape:pageopacity="0"
     inkscape:pageshadow="2"
     inkscape:zoom="1.4"
     inkscape:cx="329.47569"
     inkscape:cy="543.47666"
     inkscape:document-units="px"
     inkscape:current-layer="layer1"
     showgrid="false"
     inkscape:window-width="1366"
     inkscape:window-height="746"
     inkscape:window-x="0"
     inkscape:window-y="22"
     inkscape:window-maximized="0" />
  <defs
     id="defs3264">
    <marker
       inkscape:stockid="Arrow1Mend"
       orient="auto"
       refY="0.0"
       refX="0.0"
       id="Arrow1Mend"
       style="overflow:visible;">
      <path
         id="path4428"
         d="M 0.0,0.0 L 5.0,-5.0 L -12.5,0.0 L 5.0,5.0 L 0.0,0.0 z "
         style="fill-rule:evenodd;stroke:#000000;stroke-width:1.0pt;"
         transform="scale(0.4) rotate(180) translate(10,0)" />
    </marker>
    <defs
       id="defs11">
      <circle
         r="0.5"
         id="gpDot"
         cx="0"
         cy="0"
         sodipodi:cx="0"
         sodipodi:cy="0"
         sodipodi:rx="0.5"
         sodipodi:ry="0.5"
         style="stroke-width:0.5" />
      <path
         d="M -1,0 H 1 M 0,-1 v 2"
         id="gpPt0"
         inkscape:connector-curvature="0"
         style="stroke:currentColor;stroke-width:0.222" />
      <path
         d="M -1,-1 1,1 M 1,-1 -1,1"
         id="gpPt1"
         inkscape:connector-curvature="0"
         style="stroke:currentColor;stroke-width:0.222" />
      <path
         d="M -1,0 1,0 M 0,-1 0,1 m -1,-2 2,2 m -2,0 2,-2"
         id="gpPt2"
         inkscape:connector-curvature="0"
         style="stroke:currentColor;stroke-width:0.222" />
      <rect
         height="2"
         width="2"
         y="-1"
         x="-1"
         id="gpPt3"
         style="stroke:currentColor;stroke-width:0.222" />
      <rect
         height="2"
         width="2"
         y="-1"
         x="-1"
         id="gpPt4"
         style="fill:currentColor;stroke:currentColor;stroke-width:0.222" />
      <circle
         r="1"
         cy="0"
         cx="0"
         id="gpPt5"
         sodipodi:cx="0"
         sodipodi:cy="0"
         sodipodi:rx="1"
         sodipodi:ry="1"
         style="stroke:currentColor;stroke-width:0.222" />
      <use
         id="gpPt6"
         xlink:href="#gpPt5"
         style="fill:currentColor;stroke:none"
         x="0"
         y="0"
         width="744.09448"
         height="1052.3622" />
      <path
         d="m 0,-1.33 -1.33,2 2.66,0 z"
         id="gpPt7"
         inkscape:connector-curvature="0"
         style="stroke:currentColor;stroke-width:0.222" />
      <use
         id="gpPt8"
         xlink:href="#gpPt7"
         style="fill:currentColor;stroke:none"
         x="0"
         y="0"
         width="744.09448"
         height="1052.3622" />
      <use
         transform="scale(-1,-1)"
         id="gpPt9"
         xlink:href="#gpPt7"
         style="stroke:currentColor"
         x="0"
         y="0"
         width="744.09448"
         height="1052.3622" />
      <use
         id="gpPt10"
         xlink:href="#gpPt9"
         style="fill:currentColor;stroke:none"
         x="0"
         y="0"
         width="744.09448"
         height="1052.3622" />
      <use
         transform="matrix(0.70710678,0.70710678,-0.70710678,0.70710678,0,0)"
         id="gpPt11"
         xlink:href="#gpPt3"
         style="stroke:currentColor"
         x="0"
         y="0"
         width="744.09448"
         height="1052.3622" />
      <use
         id="gpPt12"
         xlink:href="#gpPt11"
         style="fill:currentColor;stroke:none"
         x="0"
         y="0"
         width="744.09448"
         height="1052.3622" />
    </defs>
    <marker
       inkscape:stockid="Arrow1Mendt"
       orient="auto"
       refY="0.0"
       refX="0.0"
       id="Arrow1Mendt"
       style="overflow:visible;">
      <path
         id="path4879"
         d="M 0.0,0.0 L 5.0,-5.0 L -12.5,0.0 L 5.0,5.0 L 0.0,0.0 z "
         style="stroke:#ffc0cb;stroke-width:1.0pt;fill:#ffc0cb;fill-rule:evenodd"
         transform="scale(0.4) rotate(180) translate(10,0)" />
    </marker>
    <marker
       inkscape:stockid="Arrow1MendC"
       orient="auto"
       refY="0.0"
       refX="0.0"
       id="Arrow1MendC"
       style="overflow:visible;">
      <path
         id="path4882"
         d="M 0.0,0.0 L 5.0,-5.0 L -12.5,0.0 L 5.0,5.0 L 0.0,0.0 z "
         style="stroke:#ffc0cb;stroke-width:1.0pt;fill:#ffc0cb;fill-rule:evenodd"
         transform="scale(0.4) rotate(180) translate(10,0)" />
    </marker>
    <marker
       inkscape:stockid="Arrow1MendR"
       orient="auto"
       refY="0.0"
       refX="0.0"
       id="Arrow1MendR"
       style="overflow:visible;">
      <path
         id="path4885"
         d="M 0.0,0.0 L 5.0,-5.0 L -12.5,0.0 L 5.0,5.0 L 0.0,0.0 z "
         style="stroke:#ffc0cb;stroke-width:1.0pt;fill:#ffc0cb;fill-rule:evenodd"
         transform="scale(0.4) rotate(180) translate(10,0)" />
    </marker>
    <marker
       inkscape:stockid="Arrow1MendK"
       orient="auto"
       refY="0.0"
       refX="0.0"
       id="Arrow1MendK"
       style="overflow:visible;">
      <path
         id="path4888"
         d="M 0.0,0.0 L 5.0,-5.0 L -12.5,0.0 L 5.0,5.0 L 0.0,0.0 z "
         style="stroke:#ffc0cb;stroke-width:1.0pt;fill:#ffc0cb;fill-rule:evenodd"
         transform="scale(0.4) rotate(180) translate(10,0)" />
    </marker>
    <marker
       inkscape:stockid="Arrow1Mendu"
       orient="auto"
       refY="0.0"
       refX="0.0"
       id="Arrow1Mendu"
       style="overflow:visible;">
      <path
         id="path4891"
         d="M 0.0,0.0 L 5.0,-5.0 L -12.5,0.0 L 5.0,5.0 L 0.0,0.0 z "
         style="stroke:#ffc0cb;stroke-width:1.0pt;fill:#ffc0cb;fill-rule:evenodd"
         transform="scale(0.4) rotate(180) translate(10,0)" />
    </marker>
    <marker
       inkscape:stockid="Arrow1Mendd"
       orient="auto"
       refY="0.0"
       refX="0.0"
       id="Arrow1Mendd"
       style="overflow:visible;">
      <path
         id="path4894"
         d="M 0.0,0.0 L 5.0,-5.0 L -12.5,0.0 L 5.0,5.0 L 0.0,0.0 z "
         style="stroke:#ffc0cb;stroke-width:1.0pt;fill:#ffc0cb;fill-rule:evenodd"
         transform="scale(0.4) rotate(180) translate(10,0)" />
    </marker>
    <marker
       inkscape:stockid="Arrow1Mend5"
       orient="auto"
       refY="0.0"
       refX="0.0"
       id="Arrow1Mend5"
       style="overflow:visible;">
      <path
         id="path4897"
         d="M 0.0,0.0 L 5.0,-5.0 L -12.5,0.0 L 5.0,5.0 L 0.0,0.0 z "
         style="stroke:#ffc0cb;stroke-width:1.0pt;fill:#ffc0cb;fill-rule:evenodd"
         transform="scale(0.4) rotate(180) translate(10,0)" />
    </marker>
    <marker
       inkscape:stockid="Arrow1Mend9"
       orient="auto"
       refY="0.0"
       refX="0.0"
       id="Arrow1Mend9"
       style="overflow:visible;">
      <path
         id="path4900"
         d="M 0.0,0.0 L 5.0,-5.0 L -12.5,0.0 L 5.0,5.0 L 0.0,0.0 z "
         style="stroke:#ffc0cb;stroke-width:1.0pt;fill:#ffc0cb;fill-rule:evenodd"
         transform="scale(0.4) rotate(180) translate(10,0)" />
    </marker>
    <marker
       inkscape:stockid="Arrow1MendQ"
       orient="auto"
       refY="0.0"
       refX="0.0"
       id="Arrow1MendQ"
       style="overflow:visible;">
      <path
         id="path5206"
         d="M 0.0,0.0 L 5.0,-5.0 L -12.5,0.0 L 5.0,5.0 L 0.0,0.0 z "
         style="stroke:#ffffff;stroke-width:1.0pt;fill:#ffffff;fill-rule:evenodd"
         transform="scale(0.4) rotate(180) translate(10,0)" />
    </marker>
    <marker
       inkscape:stockid="Arrow1MendQ"
       orient="auto"
       refY="0"
       refX="0"
       id="Arrow1MendQ-1"
       style="overflow:visible">
      <path
         inkscape:connector-curvature="0"
         id="path5206-9"
         d="M 0,0 5,-5 -12.5,0 5,5 0,0 z"
         style="fill:#ffffff;fill-rule:evenodd;stroke:#ffffff;stroke-width:1pt"
         transform="matrix(-0.4,0,0,-0.4,-4,0)" />
    </marker>
  </defs>
  <metadata
     id="metadata3267">
    <rdf:RDF>
      <cc:Work
         rdf:about="">
        <dc:format>image/svg+xml</dc:format>
        <dc:type
           rdf:resource="http://purl.org/dc/dcmitype/StillImage" />
        <dc:title></dc:title>
      </cc:Work>
    </rdf:RDF>
  </metadata>
  <g
     inkscape:label="レイヤー 1"
     inkscape:groupmode="layer"
     id="layer1">
    <path
       inkscape:connector-curvature="0"
       id="path4969"
       d="m 322.14286,431.6479 -135,202.14285"
       style="stroke-linejoin:miter;marker-end:url(#Arrow1MendQ);stroke-opacity:1;stroke:#ffffff;stroke-linecap:butt;stroke-miterlimit:4;stroke-dasharray:none;stroke-width:2;fill:none" />
    <g
       id="g27"
       style="color:#ffffff;fill:none;stroke:currentColor;stroke-width:1;stroke-linecap:butt;stroke-linejoin:miter"
       transform="translate(75,272.36218)" />
    <g
       style="color:#ff0000;fill:none;stroke:#ffffff;stroke-width:1;stroke-linecap:butt;stroke-linejoin:miter"
       id="g164"
       transform="translate(75,272.36218)">
      <path
         inkscape:connector-curvature="0"
         d="m 79.1,261 2.5,0 2.4,-0.1 2.4,0 2.5,0 2.4,0.1 2.4,0.1 2.4,0.1 2.5,0.1 2.4,0.2 2.4,0.2 2.4,0.2 2.5,0.3 2.4,0.3 2.4,0.3 2.4,0.3 2.5,0.4 2.4,0.4 2.4,0.4 2.5,0.5 2.4,0.4 2.4,0.6 2.4,0.5 2.5,0.6 2.4,0.6 2.4,0.6 2.4,0.7 2.5,0.6 2.4,0.8 2.4,0.7 2.4,0.8 2.5,0.8 2.4,0.8 2.4,0.9 2.4,0.8 2.5,1 2.4,0.9 2.4,1 2.5,1 2.4,1 2.4,1.1 2.4,1.1 2.5,1.1 2.4,1.1 2.4,1.2 2.4,1.2 2.5,1.2 2.4,1.3 2.4,1.3 2.4,1.3 2.5,1.4 2.4,1.3 2.4,1.4 2.5,1.5 2.4,1.4 2.4,1.5 2.4,1.6 2.5,1.5 2.4,1.6 2.4,1.6 2.4,1.6 2.5,1.7 2.4,1.7 2.4,1.7 2.4,1.8 2.5,1.7 2.4,1.8 2.4,1.9 2.5,1.8 2.4,1.9 2.4,2 2.4,1.9 2.5,2 2.4,2 2.4,2 2.4,2.1 2.5,2.1 2.4,2.1 2.4,2.2 2.4,2.2 2.5,2.2 2.4,2.2 2.4,2.3 2.5,2.3 2.4,2.3 2.4,2.4 2.4,2.4 2.5,2.4 2.4,2.4 2.4,2.5 2.4,2.5 2.5,2.5 2.3,2.6 2.4,2.5 2.4,2.7 2.5,2.6 2.4,2.7 2.4,2.7 2.5,2.7 2.4,2.8 m -217.8,-165 2.5,0 2.4,-0.1 2.4,0 2.4,0 2.5,0.1 2.4,0.1 2.4,0.1 2.5,0.1 2.4,0.2 2.4,0.2 2.4,0.2 2.5,0.3 2.4,0.3 2.4,0.2 2.4,0.3 2.5,0.4 2.4,0.4 2.4,0.4 2.4,0.5 2.5,0.4 2.4,0.6 2.4,0.5 2.5,0.6 2.4,0.6 2.4,0.6 2.4,0.7 2.5,0.6 2.4,0.8 2.4,0.7 2.4,0.8 2.5,0.8 2.4,0.8 2.4,0.9 2.4,0.8 2.5,1 2.4,0.9 2.4,1 2.5,1 2.4,1 2.4,1.1 2.4,1.1 2.5,1.1 2.4,1.1 2.4,1.2 2.4,1.2 2.5,1.2 2.4,1.3 2.4,1.3 2.4,1.3 2.5,1.4 2.4,1.3 2.4,1.4 2.5,1.5 2.4,1.4 2.4,1.5 2.4,1.6 2.5,1.5 2.4,1.6 2.4,1.6 2.4,1.6 2.5,1.7 2.4,1.7 2.4,1.7 2.4,1.8 2.5,1.7 2.4,1.8 2.4,1.9 2.5,1.8 2.4,1.9 2.4,2 2.4,1.9 2.5,2 2.4,2 2.4,2 2.4,2.1 2.5,2.1 2.4,2.1 2.4,2.2 2.4,2.2 2.5,2.2 2.4,2.2 2.3,2.3 2.4,2.3 2.5,2.3 2.4,2.4 2.4,2.4 2.5,2.4 2.4,2.4 2.4,2.5 2.4,2.5 2.5,2.5 2.4,2.6 2.4,2.5 2.4,2.7 2.5,2.6 2.4,2.7 2.4,2.7 2.4,2.7 2.5,2.8 m -217.8,-161.5 2.5,-0.1 2.4,0 2.4,0 2.4,0 2.5,0.1 2.4,0.1 2.4,0.1 2.5,0.1 2.4,0.2 2.4,0.2 2.4,0.2 2.5,0.3 2.4,0.2 2.4,0.4 2.4,0.3 2.5,0.4 2.4,0.4 2.4,0.4 2.4,0.4 2.5,0.5 2.4,0.5 2.4,0.6 2.5,0.6 2.4,0.6 2.4,0.6 2.4,0.6 2.5,0.7 2.4,0.7 2.4,0.8 2.4,0.8 2.5,0.8 2.4,0.8 2.4,0.8 2.4,0.9 2.5,0.9 2.4,1 2.4,1 2.5,1 2.4,1 2.4,1.1 2.4,1 2.5,1.2 2.4,1.1 2.4,1.2 2.4,1.2 2.5,1.2 2.4,1.3 2.4,1.3 2.4,1.2 2.5,1.3 2.4,1.4 2.4,1.4 2.4,1.5 2.5,1.4 2.4,1.5 2.4,1.5 2.5,1.6 2.4,1.6 2.4,1.6 2.4,1.6 2.5,1.7 2.4,1.7 2.4,1.7 2.4,1.7 2.5,1.8 2.4,1.8 2.4,1.9 2.4,1.8 2.5,1.9 2.4,1.9 2.4,2 2.5,2 2.3,2 2.4,2 2.4,2.1 2.5,2.1 2.4,2.1 2.4,2.2 2.4,2.2 2.5,2.2 2.4,2.2 2.4,2.3 2.4,2.3 2.5,2.3 2.4,2.4 2.4,2.3 2.5,2.5 2.4,2.4 2.4,2.5 2.4,2.5 2.5,2.5 2.4,2.5 2.4,2.6 2.4,2.6 2.5,2.7 2.4,2.7 2.4,2.7 2.4,2.7 2.5,2.7 m -217.8,-157.9 2.5,-0.1 2.4,0 2.4,0 2.4,0 2.5,0 2.4,0.1 2.4,0.1 2.5,0.2 2.4,0.1 2.4,0.2 2.4,0.3 2.5,0.2 2.4,0.3 2.4,0.3 2.4,0.4 2.5,0.3 2.4,0.4 2.4,0.4 2.4,0.5 2.5,0.5 2.4,0.5 2.4,0.5 2.4,0.6 2.5,0.6 2.4,0.6 2.4,0.7 2.5,0.7 2.4,0.7 2.4,0.7 2.4,0.8 2.5,0.8 2.4,0.8 2.4,0.9 2.4,0.9 2.5,0.9 2.4,1 2.4,0.9 2.4,1 2.5,1.1 2.4,1 2.4,1.1 2.5,1.1 2.4,1.2 2.4,1.2 2.4,1.2 2.5,1.2 2.4,1.3 2.4,1.2 2.4,1.4 2.5,1.3 2.4,1.4 2.4,1.4 2.4,1.4 2.5,1.5 2.4,1.5 2.4,1.5 2.5,1.5 2.4,1.6 2.4,1.6 2.4,1.7 2.5,1.6 2.4,1.7 2.4,1.8 2.3,1.7 2.5,1.7 2.4,1.8 2.4,1.8 2.4,1.9 2.5,1.9 2.4,1.9 2.4,2 2.5,1.9 2.4,2.1 2.4,2 2.4,2.1 2.5,2.1 2.4,2.1 2.4,2.1 2.4,2.2 2.5,2.2 2.4,2.3 2.4,2.2 2.4,2.3 2.5,2.4 2.4,2.3 2.4,2.4 2.5,2.4 2.4,2.5 2.4,2.4 2.4,2.5 2.5,2.6 2.4,2.5 2.4,2.6 2.4,2.6 2.5,2.7 2.4,2.6 2.4,2.7 2.4,2.8 2.5,2.7 m -217.8,-154.5 2.5,0 2.4,-0.1 2.4,0 2.4,0 2.5,0.1 2.4,0.1 2.4,0.1 2.4,0.1 2.5,0.2 2.4,0.2 2.4,0.2 2.5,0.3 2.4,0.2 2.4,0.4 2.4,0.3 2.5,0.4 2.4,0.4 2.4,0.4 2.4,0.5 2.5,0.4 2.4,0.6 2.4,0.5 2.4,0.6 2.5,0.6 2.4,0.6 2.4,0.6 2.5,0.7 2.4,0.7 2.4,0.8 2.4,0.8 2.5,0.8 2.4,0.8 2.4,0.9 2.4,0.8 2.5,1 2.4,0.9 2.4,1 2.4,1 2.5,1 2.4,1.1 2.4,1.1 2.5,1.1 2.4,1.1 2.4,1.2 2.4,1.2 2.5,1.2 2.4,1.3 2.4,1.3 2.4,1.3 2.5,1.4 2.4,1.3 2.4,1.4 2.4,1.5 2.5,1.4 2.3,1.5 2.4,1.5 2.5,1.6 2.4,1.6 2.4,1.6 2.4,1.6 2.5,1.7 2.4,1.7 2.4,1.7 2.4,1.7 2.5,1.8 2.4,1.8 2.4,1.9 2.4,1.8 2.5,1.9 2.4,2 2.4,1.9 2.4,2 2.5,2 2.4,2 2.4,2.1 2.5,2 2.4,2.1 2.4,2.2 2.4,2.2 2.5,2.2 2.4,2.2 2.4,2.3 2.4,2.3 2.5,2.3 2.4,2.4 2.4,2.3 2.4,2.5 2.5,2.4 2.4,2.5 2.4,2.5 2.5,2.5 2.4,2.6 2.4,2.5 2.4,2.7 2.5,2.6 2.4,2.7 2.4,2.7 2.4,2.7 2.5,2.8 m -217.8,-151.1 2.5,0 2.4,-0.1 2.4,0 2.4,0.1 2.5,0 2.4,0.1 2.4,0.1 2.4,0.2 2.5,0.1 2.4,0.2 2.4,0.2 2.5,0.3 2.4,0.3 2.4,0.3 2.4,0.3 2.5,0.4 2.4,0.4 2.4,0.4 2.4,0.5 2.5,0.5 2.4,0.5 2.4,0.5 2.4,0.6 2.5,0.6 2.4,0.6 2.4,0.7 2.5,0.7 2.4,0.7 2.4,0.7 2.4,0.8 2.5,0.8 2.4,0.8 2.4,0.9 2.4,0.9 2.5,0.9 2.4,0.9 2.4,1 2.4,1 2.5,1 2.4,1.1 2.4,1.1 2.4,1.1 2.5,1.2 2.4,1.1 2.3,1.2 2.5,1.3 2.4,1.2 2.4,1.3 2.4,1.3 2.5,1.4 2.4,1.4 2.4,1.4 2.4,1.4 2.5,1.5 2.4,1.5 2.4,1.5 2.4,1.5 2.5,1.6 2.4,1.6 2.4,1.6 2.5,1.7 2.4,1.7 2.4,1.7 2.4,1.8 2.5,1.8 2.4,1.8 2.4,1.8 2.4,1.9 2.5,1.9 2.4,1.9 2.4,1.9 2.4,2 2.5,2 2.4,2.1 2.4,2 2.5,2.1 2.4,2.2 2.4,2.1 2.4,2.2 2.5,2.2 2.4,2.2 2.4,2.3 2.4,2.3 2.5,2.2 2.4,2.4 2.4,2.4 2.4,2.4 2.5,2.4 2.4,2.5 2.4,2.5 2.5,2.5 2.4,2.6 2.4,2.6 2.4,2.6 2.5,2.6 2.4,2.7 2.4,2.7 2.4,2.7 2.5,2.8 0.01,0"
         id="path166"
         sodipodi:nodetypes="ccccccccccccccccccccccccccccccccccccccccccccccccccccccccccccccccccccccccccccccccccccccccccccccccccccccccccccccccccccccccccccccccccccccccccccccccccccccccccccccccccccccccccccccccccccccccccccccccccccccccccccccccccccccccccccccccccccccccccccccccccccccccccccccccccccccccccccccccccccccccccccccccccccccccccccccccccccccccccccccccccccccccccccccccccccccccccccccccccccccccccccccccccccccccccccccccccccccccccccccccccccccccccccccccccccccccccccccccccccccccccccccccccccccccccccccccccccccccccccccccccccccccccccccccccccccccccccccccccccccccccccccccccccccccccccccccccccccccccccccccccccccccccccccccccccccccccccccccccccccccc"
         style="stroke:#ffffff" />
      <path
         inkscape:connector-curvature="0"
         d="m 213.5,123.8 2.5,-0.1 2.4,0 2.4,0 2.4,0 2.5,0 2.4,0.1 2.4,0.1 2.4,0.2 2.5,0.1 2.4,0.2 2.4,0.3 2.4,0.2 2.5,0.3 2.4,0.3 2.4,0.3 2.5,0.4 2.4,0.4 2.4,0.4 2.4,0.5 2.5,0.5 2.4,0.5 2.4,0.5 2.4,0.6 2.5,0.6 2.4,0.6 2.4,0.7 2.4,0.7 2.5,0.7 2.4,0.7 2.4,0.8 2.5,0.8 2.4,0.8 2.4,0.9 2.4,0.9 2.5,0.9 2.3,0.9 2.4,1 2.4,1 2.5,1.1 2.4,1 2.4,1.1 2.4,1.1 2.5,1.2 2.4,1.1 2.4,1.2 2.5,1.3 2.4,1.2 2.4,1.3 2.4,1.3 2.5,1.4 2.4,1.4 2.4,1.4 2.4,1.4 2.5,1.5 2.4,1.5 2.4,1.5 2.4,1.5 2.5,1.6 2.4,1.6 2.4,1.7 2.5,1.6 2.4,1.7 2.4,1.7 2.4,1.8 2.5,1.8 2.4,1.8 2.4,1.8 2.4,1.9 2.5,1.9 2.4,1.9 2.4,2 2.4,1.9 2.5,2 2.4,2.1 2.4,2 2.5,2.1 2.4,2.2 2.4,2.1 2.4,2.2 2.5,2.2 2.4,2.3 2.4,2.2 2.4,2.3 2.5,2.4 2.4,2.3 2.4,2.4 2.4,2.4 2.5,2.4 2.4,2.5 2.4,2.4 2.4,2.5 2.5,2.6 2.4,2.6 2.4,2.6 2.5,2.6 2.4,2.7 2.4,2.7 2.4,2.7 2.5,2.8 m -217.8,-144 2.5,-0.1 2.4,0 2.4,0 2.4,0 2.5,0 2.4,0.1 2.4,0.1 2.4,0.2 2.5,0.1 2.4,0.2 2.4,0.2 2.4,0.3 2.5,0.3 2.4,0.3 2.4,0.3 2.5,0.4 2.4,0.4 2.4,0.4 2.4,0.5 2.5,0.5 2.4,0.5 2.4,0.5 2.4,0.6 2.5,0.6 2.4,0.6 2.4,0.7 2.3,0.7 2.5,0.7 2.4,0.7 2.4,0.8 2.5,0.8 2.4,0.8 2.4,0.9 2.4,0.9 2.5,0.9 2.4,0.9 2.4,1 2.4,1 2.5,1 2.4,1.1 2.4,1.1 2.4,1.1 2.5,1.2 2.4,1.1 2.4,1.2 2.5,1.3 2.4,1.2 2.4,1.3 2.4,1.3 2.5,1.4 2.4,1.4 2.4,1.4 2.4,1.4 2.5,1.5 2.4,1.5 2.4,1.5 2.4,1.5 2.5,1.6 2.4,1.6 2.4,1.7 2.4,1.6 2.5,1.7 2.4,1.7 2.4,1.8 2.5,1.8 2.4,1.8 2.4,1.8 2.4,1.9 2.5,1.9 2.4,1.9 2.4,1.9 2.4,2 2.5,2 2.4,2.1 2.4,2 2.4,2.1 2.5,2.2 2.4,2.1 2.4,2.2 2.5,2.2 2.4,2.3 2.4,2.2 2.4,2.3 2.5,2.3 2.4,2.4 2.4,2.4 2.4,2.4 2.5,2.4 2.4,2.5 2.4,2.5 2.4,2.5 2.5,2.6 2.4,2.6 2.4,2.5 2.5,2.6 2.4,2.7 2.4,2.7 2.4,2.7 2.5,2.8 m -217.8,-140.6 2.5,0 2.4,-0.1 2.4,0 2.4,0.1 2.5,0 2.4,0.1 2.4,0.1 2.4,0.1 2.5,0.2 2.4,0.2 2.4,0.2 2.4,0.3 2.5,0.3 2.4,0.3 2.4,0.3 2.5,0.4 2.4,0.4 2.3,0.4 2.4,0.5 2.5,0.5 2.4,0.5 2.4,0.5 2.4,0.6 2.5,0.6 2.4,0.6 2.4,0.7 2.4,0.6 2.5,0.8 2.4,0.7 2.4,0.8 2.4,0.8 2.5,0.8 2.4,0.9 2.4,0.9 2.5,0.9 2.4,0.9 2.4,1 2.4,1 2.5,1 2.4,1.1 2.4,1.1 2.4,1.1 2.5,1.1 2.4,1.2 2.4,1.2 2.4,1.2 2.5,1.3 2.4,1.3 2.4,1.3 2.5,1.4 2.4,1.3 2.4,1.5 2.4,1.4 2.5,1.4 2.4,1.5 2.4,1.6 2.4,1.5 2.5,1.6 2.4,1.6 2.4,1.6 2.4,1.7 2.5,1.7 2.4,1.7 2.4,1.8 2.5,1.7 2.4,1.8 2.4,1.9 2.4,1.9 2.5,1.8 2.4,2 2.4,1.9 2.4,2 2.5,2 2.4,2.1 2.4,2 2.4,2.1 2.5,2.1 2.4,2.2 2.4,2.2 2.5,2.2 2.4,2.2 2.4,2.3 2.4,2.3 2.5,2.3 2.4,2.4 2.4,2.4 2.4,2.4 2.5,2.4 2.4,2.5 2.4,2.5 2.4,2.5 2.5,2.6 2.4,2.6 2.4,2.6 2.5,2.6 2.4,2.6 2.4,2.7 2.4,2.7 2.5,2.8 m -217.8,-137.1 2.4,-0.1 2.5,0 2.4,0 2.4,0 2.5,0.1 2.4,0 2.4,0.2 2.3,0.1 2.5,0.2 2.4,0.2 2.4,0.2 2.4,0.2 2.5,0.3 2.4,0.3 2.4,0.4 2.4,0.3 2.5,0.4 2.4,0.5 2.4,0.4 2.5,0.5 2.4,0.5 2.4,0.6 2.4,0.5 2.5,0.6 2.4,0.7 2.4,0.6 2.4,0.7 2.5,0.7 2.4,0.8 2.4,0.7 2.4,0.8 2.5,0.9 2.4,0.8 2.4,0.9 2.5,0.9 2.4,1 2.4,0.9 2.4,1.1 2.5,1 2.4,1 2.4,1.1 2.4,1.2 2.5,1.1 2.4,1.2 2.4,1.2 2.4,1.2 2.5,1.3 2.4,1.3 2.4,1.3 2.5,1.3 2.4,1.4 2.4,1.4 2.4,1.4 2.5,1.5 2.4,1.5 2.4,1.5 2.4,1.6 2.5,1.5 2.4,1.7 2.4,1.6 2.4,1.7 2.5,1.6 2.4,1.8 2.4,1.7 2.5,1.8 2.4,1.8 2.4,1.8 2.4,1.9 2.5,1.9 2.4,1.9 2.4,2 2.4,2 2.5,2 2.4,2 2.4,2.1 2.4,2.1 2.5,2.1 2.4,2.2 2.4,2.1 2.4,2.2 2.5,2.3 2.4,2.3 2.4,2.3 2.5,2.3 2.4,2.3 2.4,2.4 2.4,2.4 2.5,2.5 2.4,2.4 2.4,2.5 2.4,2.6 2.5,2.5 2.4,2.6 2.4,2.6 2.4,2.7 2.5,2.6 2.4,2.7 2.4,2.7 2.5,2.7 M 79.1,261 l 2.1,-3 2,-3 2.1,-2.9 2,-3 2,-2.9 2.1,-2.8 2,-2.9 2,-2.8 2.1,-2.8 2,-2.7 2,-2.7 2.1,-2.7 2,-2.6 2.1,-2.7 2,-2.6 2,-2.6 2.1,-2.5 2,-2.6 2,-2.5 2.1,-2.4 2,-2.5 2,-2.4 2.1,-2.4 2,-2.3 2,-2.4 2.1,-2.3 2,-2.2 2.1,-2.3 2,-2.2 2,-2.2 2.1,-2.1 2,-2.1 2,-2.1 2.1,-2.1 2,-2 2,-2 2.1,-2 2,-2 2.1,-1.9 2,-1.9 2,-1.9 2.1,-1.8 2,-1.8 2,-1.8 2.1,-1.7 2,-1.8 2,-1.6 2.1,-1.7 2,-1.6 2.1,-1.7 2,-1.5 2,-1.6 2.1,-1.5 2,-1.5 2,-1.5 2.1,-1.4 2,-1.4 2,-1.4 2.1,-1.3 2,-1.3 2,-1.3 2.1,-1.3 2,-1.2 2.1,-1.2 2,-1.2 2,-1.1 2.1,-1.2 2,-1 2,-1.1 2.1,-1 2,-1 2,-1 2.1,-1 2,-0.9 2.1,-0.9 2,-0.8 2,-0.8 2.1,-0.8 2,-0.8 2,-0.8 2.1,-0.7 2,-0.7 2,-0.6 2.1,-0.6 2,-0.6 2.1,-0.6 2,-0.6 2,-0.5 2.1,-0.5 2,-0.4 2,-0.4 2.1,-0.4 2,-0.4 2,-0.3 2.1,-0.4 2,-0.2 2.1,-0.3 2,-0.2 2,-0.2 m -174.9,159.8 2.1,-3 2,-3 2,-2.9 2.1,-3 2,-2.9 2.1,-2.8 2,-2.9 2,-2.8 2.1,-2.8 2,-2.8 2,-2.6 2.1,-2.7 2,-2.7 2,-2.6 2.1,-2.6 2,-2.6 2.1,-2.5 2,-2.6 2,-2.5 2.1,-2.4 2,-2.5 2,-2.4 2.1,-2.4 2,-2.3 2,-2.4 2.1,-2.3 2,-2.2 2,-2.3 2.1,-2.2 2,-2.2 2.1,-2.1 2,-2.1 2,-2.1 2.1,-2.1 2,-2 2,-2 2.1,-2 2,-2 2,-1.9 2.1,-1.9 2,-1.9 2.1,-1.8 2,-1.8 2,-1.8 2.1,-1.7 2,-1.8 2,-1.7 2.1,-1.6 2,-1.7 2,-1.6 2.1,-1.5 2,-1.6 2.1,-1.5 2,-1.5 2,-1.5 2.1,-1.4 2,-1.4 2,-1.4 2.1,-1.3 2,-1.3 2,-1.3 2.1,-1.3 2,-1.2 2.1,-1.2 2,-1.2 2,-1.1 2.1,-1.2 2,-1.1 2,-1 2.1,-1 2,-1 2,-1 2.1,-1 2,-0.9 2,-0.9 2.1,-0.8 2,-0.9 2.1,-0.8 2,-0.7 2,-0.8 2.1,-0.7 2,-0.7 2,-0.6 2.1,-0.7 2,-0.5 2,-0.6 2.1,-0.6 2,-0.5 2.1,-0.5 2,-0.4 2,-0.4 2.1,-0.4 2,-0.4 2,-0.3 2.1,-0.4 1.9,-0.2 2,-0.3 2.1,-0.2 2,-0.2 h 0.01"
         id="path168"
         style="stroke:#ffffff" />
      <path
         inkscape:connector-curvature="0"
         d="m 132.5,266.3 2.1,-3 2,-3 2,-3 2.1,-2.9 2,-2.9 2,-2.9 2.1,-2.8 2,-2.8 2.1,-2.8 2,-2.8 2,-2.7 2.1,-2.7 2,-2.6 2,-2.6 2.1,-2.6 2,-2.6 2,-2.6 2.1,-2.5 2,-2.5 2.1,-2.5 2,-2.4 2,-2.4 2.1,-2.4 2,-2.4 2,-2.3 2.1,-2.3 2,-2.2 2,-2.3 2.1,-2.2 2,-2.2 2.1,-2.1 2,-2.2 2,-2.1 2.1,-2 2,-2.1 2,-2 2.1,-1.9 2,-2 2,-1.9 2.1,-1.9 2,-1.9 2,-1.8 2.1,-1.8 2,-1.8 2.1,-1.8 2,-1.7 2,-1.7 2.1,-1.6 2,-1.7 2,-1.6 2.1,-1.6 2,-1.5 2,-1.5 2.1,-1.5 2,-1.5 2.1,-1.4 2,-1.4 2,-1.4 2.1,-1.3 2,-1.4 2,-1.2 2.1,-1.3 2,-1.2 2,-1.2 2.1,-1.2 2,-1.2 2.1,-1.1 2,-1.1 2,-1 2.1,-1.1 2,-1 2,-0.9 2.1,-1 2,-0.9 2,-0.9 2.1,-0.8 2,-0.9 2,-0.8 2.1,-0.7 2,-0.8 2.1,-0.7 2,-0.7 1.9,-0.6 2.1,-0.7 2,-0.6 2,-0.5 2.1,-0.6 2,-0.5 2,-0.5 2.1,-0.4 2,-0.5 2.1,-0.4 2,-0.3 2,-0.4 2.1,-0.3 2,-0.3 2,-0.2 2.1,-0.2 2,-0.2 m -174.8,166.8 2.1,-3.1 2,-2.9 2,-3 2.1,-2.9 2,-2.9 2,-2.9 2.1,-2.9 2,-2.8 2,-2.8 2.1,-2.7 2,-2.7 2.1,-2.7 2,-2.7 2,-2.7 2.1,-2.6 2,-2.5 2,-2.5 2.1,-2.5 2,-2.5 2,-2.5 2.1,-2.4 2,-2.5 2.1,-2.3 2,-2.4 2,-2.3 2.1,-2.3 2,-2.3 2,-2.2 2.1,-2.2 2,-2.2 2,-2.2 2.1,-2.1 2,-2.1 2.1,-2.1 2,-2 2,-2 2.1,-2 2,-1.9 2,-2 2.1,-1.9 2,-1.8 2,-1.9 2.1,-1.8 2,-1.7 2,-1.8 2.1,-1.7 2,-1.7 2.1,-1.7 2,-1.6 2,-1.6 2.1,-1.6 2,-1.5 2,-1.6 2.1,-1.5 2,-1.4 2,-1.4 2.1,-1.5 2,-1.3 2.1,-1.4 2,-1.3 2,-1.3 2.1,-1.2 2,-1.3 2,-1.2 2.1,-1.2 2,-1.1 2,-1.1 2.1,-1.1 2,-1.1 2,-1 2,-1 2,-1 2.1,-0.9 2,-0.9 2,-0.9 2.1,-0.9 2,-0.8 2,-0.8 2.1,-0.8 2,-0.7 2,-0.7 2.1,-0.7 2,-0.7 2.1,-0.6 2,-0.6 2,-0.6 2.1,-0.5 2,-0.5 2,-0.5 2.1,-0.5 2,-0.4 2,-0.4 2.1,-0.4 2,-0.3 2.1,-0.3 2,-0.3 2,-0.3 2.1,-0.2 2,-0.2 m -174.8,170.3 2.1,-3 2,-3 2,-3 2.1,-2.9 2,-2.9 2,-2.9 2.1,-2.8 2,-2.8 2,-2.8 2.1,-2.8 2,-2.7 2,-2.7 2.1,-2.7 2,-2.6 2.1,-2.6 2,-2.6 2,-2.6 2.1,-2.5 2,-2.5 2,-2.4 2.1,-2.4 2,-2.4 2,-2.4 2.1,-2.4 2,-2.3 2.1,-2.3 2,-2.2 2,-2.3 2.1,-2.2 2,-2.2 2,-2.1 2.1,-2.2 2,-2 2,-2.1 2.1,-2.1 2,-2 2.1,-1.9 2,-2 2,-1.9 2.1,-1.9 2,-1.9 2,-1.8 2.1,-1.8 2,-1.8 2,-1.8 2.1,-1.7 2,-1.7 2,-1.6 2.1,-1.7 2,-1.6 2.1,-1.5 2,-1.6 2,-1.5 2.1,-1.5 2,-1.5 2,-1.4 2,-1.4 2,-1.4 2,-1.3 2.1,-1.4 2,-1.2 2.1,-1.3 2,-1.2 2,-1.2 2.1,-1.2 2,-1.2 2,-1.1 2.1,-1.1 2,-1 2,-1.1 2.1,-1 2,-0.9 2.1,-1 2,-0.9 2,-0.9 2.1,-0.8 2,-0.9 2,-0.8 2.1,-0.7 2,-0.8 2,-0.7 2.1,-0.7 2,-0.6 2.1,-0.7 2,-0.6 2,-0.5 2.1,-0.6 2,-0.5 2,-0.5 2.1,-0.4 2,-0.5 2,-0.4 2.1,-0.3 2,-0.4 2,-0.3 2.1,-0.3 2,-0.2 2.1,-0.2 2,-0.2 m -174.8,173.7 2,-3 2.1,-3 2,-2.9 2.1,-3 2,-2.9 2,-2.8 2.1,-2.9 2,-2.8 2,-2.8 2.1,-2.7 2,-2.8 2,-2.7 2.1,-2.6 2,-2.7 2,-2.6 2.1,-2.6 2,-2.5 2.1,-2.6 2,-2.5 2,-2.4 2.1,-2.5 2,-2.4 2,-2.4 2.1,-2.3 2,-2.3 2,-2.3 2.1,-2.2 2,-2.3 2.1,-2.2 2,-2.1 2,-2.2 2.1,-2.1 2,-2.1 2,-2.1 2.1,-2 2,-2 2,-2 2.1,-2 2,-1.9 2.1,-1.9 2,-1.8 2,-1.9 2,-1.8 2,-1.8 2,-1.7 2.1,-1.7 2,-1.7 2,-1.7 2.1,-1.6 2,-1.6 2.1,-1.6 2,-1.6 2,-1.5 2.1,-1.5 2,-1.4 2,-1.5 2.1,-1.4 2,-1.4 2,-1.3 2.1,-1.3 2,-1.3 2,-1.3 2.1,-1.2 2,-1.2 2.1,-1.2 2,-1.1 2,-1.1 2.1,-1.1 2,-1.1 2,-1 2.1,-1 2,-1 2,-0.9 2.1,-1 2,-0.8 2.1,-0.9 2,-0.8 2,-0.8 2.1,-0.8 2,-0.8 2,-0.7 2.1,-0.7 2,-0.6 2,-0.6 2.1,-0.6 2,-0.6 2.1,-0.5 2,-0.6 2,-0.4 2.1,-0.5 2,-0.4 2,-0.4 2.1,-0.4 2,-0.3 2,-0.3 2.1,-0.3 2,-0.3 2,-0.2 2.1,-0.2 m -174.8,177.2 2,-3 2.1,-3 2,-2.9 2,-3 2.1,-2.9 2,-2.8 2.1,-2.9 2,-2.8 2,-2.8 2.1,-2.7 2,-2.8 2,-2.7 2.1,-2.6 2,-2.7 2,-2.6 2.1,-2.6 2,-2.5 2.1,-2.6 2,-2.5 2,-2.4 2.1,-2.5 2,-2.4 2,-2.4 2.1,-2.3 2,-2.3 2,-2.3 2.1,-2.3 2,-2.2 2,-2.3 2,-2.1 2,-2.2 2.1,-2.1 2,-2.1 2,-2.1 2.1,-1.9 2,-2 2,-2 2.1,-2 2,-1.9 2,-1.9 2.1,-1.8 2,-1.9 2.1,-1.8 2,-1.8 2,-1.7 2.1,-1.7 2,-1.7 2,-1.7 2.1,-1.6 2,-1.6 2,-1.6 2.1,-1.6 2,-1.5 2.1,-1.5 2,-1.4 2,-1.5 2.1,-1.4 2,-1.3 2,-1.4 2.1,-1.3 2,-1.3 2,-1.3 2.1,-1.2 2,-1.2 2,-1.2 2.1,-1.1 2,-1.1 2.1,-1.1 2,-1.1 2,-1 2.1,-1 2,-1 2,-0.9 2.1,-1 2,-0.8 2,-0.9 2.1,-0.8 2,-0.8 2.1,-0.8 2,-0.7 2,-0.8 2.1,-0.6 2,-0.7 2,-0.6 2.1,-0.6 2,-0.6 2,-0.5 2.1,-0.6 2,-0.4 2.1,-0.5 2,-0.4 2,-0.4 2.1,-0.4 2,-0.3 2,-0.3 2.1,-0.3 2,-0.3 2,-0.2 2.1,-0.2 M 266,340.4 l 2,-3 2.1,-3 2,-2.9 2,-3 2.1,-2.9 2,-2.8 2,-2.9 2.1,-2.8 2,-2.8 2.1,-2.7 2,-2.8 2,-2.7 2.1,-2.6 2,-2.7 2,-2.6 2.1,-2.6 1.9,-2.5 2,-2.6 2.1,-2.5 2,-2.4 2.1,-2.5 2,-2.4 2,-2.4 2.1,-2.3 2,-2.3 2,-2.3 2.1,-2.3 2,-2.3 2,-2.2 2.1,-2.1 2,-2.2 2,-2.1 2.1,-2.1 2,-2.1 2.1,-2 2,-2 2,-2 2.1,-2 2,-1.9 2,-1.9 2.1,-1.8 2,-1.9 2,-1.8 2.1,-1.8 2,-1.7 2.1,-1.7 2,-1.6 2,-1.7 2.1,-1.6 2,-1.6 2,-1.6 2.1,-1.6 2,-1.5 2,-1.5 2.1,-1.4 2,-1.5 2.1,-1.4 2,-1.4 2,-1.3 2.1,-1.3 2,-1.3 2,-1.3 2.1,-1.2 2,-1.2 2,-1.2 2.1,-1.1 2,-1.1 2,-1.1 2.1,-1.1 2,-1 2.1,-1 2,-1 2,-0.9 2.1,-1 2,-0.8 2,-0.9 2.1,-0.8 2,-0.8 2,-0.8 2.1,-0.8 2,-0.7 2.1,-0.7 2,-0.6 2,-0.6 2.1,-0.6 2,-0.6 2,-0.5 2.1,-0.6 2,-0.4 2,-0.5 2.1,-0.4 2,-0.4 2.1,-0.4 2,-0.3 2,-0.3 2.1,-0.3 2,-0.3 2,-0.2 2.1,-0.2 h 0.01"
         id="path170"
         style="stroke:#ffffff" />
      <path
         inkscape:connector-curvature="0"
         d="m 292.7,365.7 2,-3 2.1,-3 2,-3 1.9,-2.9 2.1,-2.9 2,-2.9 2,-2.8 2.1,-2.8 2,-2.8 2,-2.8 2.1,-2.7 2,-2.7 2.1,-2.7 2,-2.6 2,-2.6 2.1,-2.6 2,-2.6 2,-2.5 2.1,-2.5 2,-2.5 2,-2.4 2.1,-2.4 2,-2.4 2.1,-2.3 2,-2.4 2,-2.3 2.1,-2.2 2,-2.3 2,-2.2 2.1,-2.2 2,-2.1 2,-2.1 2.1,-2.1 2,-2.1 2,-2 2.1,-2.1 2,-1.9 2.1,-2 2,-1.9 2,-1.9 2.1,-1.9 2,-1.8 2,-1.8 2.1,-1.8 2,-1.7 2,-1.8 2.1,-1.7 2,-1.6 2.1,-1.7 2,-1.6 2,-1.5 2.1,-1.6 2,-1.5 2,-1.5 2.1,-1.5 2,-1.4 2,-1.4 2.1,-1.4 2,-1.3 2.1,-1.3 2,-1.3 2,-1.3 2.1,-1.2 2,-1.1 2,-1.2 2.1,-1.2 2,-1.1 2,-1.1 2.1,-1 2,-1.1 2.1,-1 2,-0.9 2,-1 2.1,-0.9 2,-0.9 2,-0.8 2.1,-0.9 2,-0.8 2,-0.7 2.1,-0.8 2,-0.7 2,-0.7 2.1,-0.6 2,-0.7 2.1,-0.6 2,-0.5 2,-0.6 2.1,-0.5 2,-0.5 2,-0.4 2.1,-0.4 2,-0.4 2,-0.4 2.1,-0.4 2,-0.3 2.1,-0.2 2,-0.3 2,-0.2 2.1,-0.2 m -174.9,187.7 2,-3 2,-3 2.1,-3 2,-2.9 2.1,-2.9 2,-2.9 2,-2.8 2.1,-2.9 2,-2.7 2,-2.8 2.1,-2.7 2,-2.7 2,-2.7 2.1,-2.6 2,-2.7 2.1,-2.5 2,-2.6 2,-2.5 2.1,-2.5 2,-2.5 2,-2.4 2.1,-2.5 2,-2.3 2,-2.4 2.1,-2.3 2,-2.3 2.1,-2.3 2,-2.2 2,-2.2 2.1,-2.2 2,-2.2 2,-2.1 2.1,-2.1 2,-2.1 2,-2 2.1,-2 2,-2 2.1,-1.9 2,-2 2,-1.9 2.1,-1.8 2,-1.9 2,-1.8 2.1,-1.7 2,-1.8 2,-1.7 2.1,-1.7 2,-1.7 2,-1.6 2.1,-1.6 2,-1.6 2.1,-1.5 2,-1.6 2,-1.4 2.1,-1.5 2,-1.4 2,-1.4 2.1,-1.4 2,-1.4 2,-1.3 2.1,-1.3 2,-1.2 2.1,-1.3 2,-1.2 2,-1.2 2.1,-1.1 2,-1.1 2,-1.1 2.1,-1.1 2,-1 2,-1 2.1,-1 2,-0.9 2.1,-0.9 2,-0.9 2,-0.9 2.1,-0.8 2,-0.8 2,-0.8 2.1,-0.7 2,-0.7 2,-0.7 2.1,-0.7 2,-0.6 2,-0.6 2.1,-0.6 2,-0.5 2.1,-0.5 2,-0.5 2,-0.5 2.1,-0.4 2,-0.4 2,-0.4 2.1,-0.3 2,-0.3 2,-0.3 2.1,-0.2 2,-0.3 2.1,-0.2 h 0.01"
         id="path172"
         style="stroke:#ffffff" />
    </g>
    <path
       style="stroke-linejoin:miter;marker-end:url(#Arrow1Mend9);stroke-opacity:1;stroke:#ffc0cb;stroke-linecap:butt;stroke-miterlimit:4;stroke-dasharray:none;stroke-width:2;fill:none"
       d="m 403.57143,485.21932 47.14286,35"
       id="path3631"
       inkscape:connector-curvature="0" />
    <path
       style="stroke-linejoin:miter;marker-end:url(#Arrow1Mendd);stroke-opacity:1;stroke:#ffc0cb;stroke-linecap:butt;stroke-miterlimit:4;stroke-dasharray:none;stroke-width:2;fill:none"
       d="m 403.57143,485.21932 7.14286,60"
       id="path4401"
       inkscape:connector-curvature="0" />
    <path
       style="stroke-linejoin:miter;marker-end:url(#Arrow1Mend5);stroke-opacity:1;stroke:#ffc0cb;stroke-linecap:butt;stroke-miterlimit:4;stroke-dasharray:none;stroke-width:2;fill:none"
       d="m 403.57143,485.21932 -36.42857,33.57143"
       id="path4403"
       inkscape:connector-curvature="0" />
    <path
       style="stroke-linejoin:miter;marker-end:url(#Arrow1MendC);stroke-opacity:1;stroke:#ffc0cb;stroke-linecap:butt;stroke-miterlimit:4;stroke-dasharray:none;stroke-width:2;fill:none"
       d="m 403.57143,485.21932 -59.28572,3.57143"
       id="path4405"
       inkscape:connector-curvature="0" />
    <path
       style="stroke-linejoin:miter;marker-end:url(#Arrow1MendK);stroke-opacity:1;stroke:#ffc0cb;stroke-linecap:butt;stroke-miterlimit:4;stroke-dasharray:none;stroke-width:2;fill:none"
       d="M 403.57143,485.21932 367.85714,459.50504"
       id="path4407"
       inkscape:connector-curvature="0" />
    <path
       style="stroke-linejoin:miter;marker-end:url(#Arrow1Mendt);stroke-opacity:1;stroke:#ffc0cb;stroke-linecap:butt;stroke-miterlimit:4;stroke-dasharray:none;stroke-width:2;fill:none"
       d="m 403.57143,484.50504 -4.28572,-38.57143"
       id="path4409"
       inkscape:connector-curvature="0" />
    <path
       style="stroke-linejoin:miter;marker-end:url(#Arrow1Mendu);stroke-opacity:1;stroke:#ffc0cb;stroke-linecap:butt;stroke-miterlimit:4;stroke-dasharray:none;stroke-width:2;fill:none"
       d="m 403.57143,485.21932 27.85714,-25.71428"
       id="path4411"
       inkscape:connector-curvature="0" />
    <path
       style="stroke-linejoin:miter;marker-end:url(#Arrow1MendR);stroke-opacity:1;stroke:#ffc0cb;stroke-linecap:butt;stroke-miterlimit:4;stroke-dasharray:none;stroke-width:2;fill:none"
       d="m 403.57143,485.21932 57.14286,4.28572"
       id="path4413"
       inkscape:connector-curvature="0" />
    <path
       inkscape:connector-curvature="0"
       id="path4969-7"
       d="m 320.66252,432.13773 285,0.71428"
       style="fill:none;stroke:#ffffff;stroke-width:2;stroke-linecap:butt;stroke-linejoin:miter;stroke-miterlimit:4;stroke-opacity:1;stroke-dasharray:none;marker-end:url(#Arrow1MendQ)"
       sodipodi:nodetypes="cc" />
    <path
       style="fill:none;stroke:#ffffff;stroke-width:1;stroke-linecap:butt;stroke-linejoin:miter;stroke-miterlimit:4;stroke-opacity:1;stroke-dasharray:4, 4;stroke-dashoffset:0"
       d="m 235,563.07647 167.85715,0 76.42856,-130.71429"
       id="path5302"
       inkscape:connector-curvature="0"
       sodipodi:nodetypes="cc" />
    <path
       style="fill:none;stroke:#ffffff;stroke-width:1;stroke-linecap:butt;stroke-linejoin:miter;stroke-opacity:1;stroke-miterlimit:4;stroke-dasharray:4,4;stroke-dashoffset:0"
       d="m 402.85714,486.6479 0,76.42857"
       id="path5304"
       inkscape:connector-curvature="0" />
    <g
       id="g5366"
       style="fill:#ffffff"
       transform="matrix(0.56665366,0,0,0.56665366,44.88311,363.1937)">
      <g
         id="content"
         transform="matrix(1.0629921,0,0,-1.0629921,-186.02362,789.27165)"
         xml:space="preserve"
         stroke-miterlimit="10.433"
         font-style="normal"
         font-variant="normal"
         font-weight="normal"
         font-stretch="normal"
         font-size-adjust="none"
         letter-spacing="normal"
         word-spacing="normal"
         style="font-style:normal;font-variant:normal;font-weight:normal;font-stretch:normal;letter-spacing:normal;word-spacing:normal;text-anchor:start;fill:#ffffff;fill-opacity:1;fill-rule:evenodd;stroke:#000000;stroke-linecap:butt;stroke-linejoin:miter;stroke-miterlimit:10.43299961;stroke-opacity:1;stroke-dasharray:none;stroke-dashoffset:0"><path
           d="m 474.1,425.03 -0.09,0.17 -0.09,0.17 -0.09,0.16 -0.09,0.16 -0.1,0.16 -0.1,0.16 -0.11,0.15 -0.11,0.14 -0.11,0.15 -0.12,0.13 -0.12,0.14 -0.12,0.13 -0.13,0.12 -0.13,0.12 -0.14,0.11 -0.14,0.11 -0.14,0.11 -0.15,0.09 -0.15,0.1 -0.15,0.08 -0.16,0.08 -0.17,0.08 -0.17,0.06 -0.17,0.07 -0.17,0.05 -0.18,0.05 -0.19,0.04 -0.19,0.03 -0.19,0.03 -0.2,0.02 -0.2,0.01 -0.21,0 0.05,-1.09 c 3.23,0 3.93,-4.08 3.93,-4.37 0,-0.32 -0.09,-0.61 -0.14,-0.86 l -2.5,-9.77 c -0.25,-0.89 -0.25,-0.98 -1,-1.84 -2.18,-2.74 -4.23,-3.53 -5.62,-3.53 -2.49,0 -3.19,2.73 -3.19,4.68 0,2.49 1.59,8.61 2.74,10.91 1.54,2.94 3.79,4.78 5.78,4.78 l -0.05,1.09 c -5.83,0 -12,-7.31 -12,-14.59 0,-4.69 2.73,-7.97 6.62,-7.97 0.99,0 3.49,0.21 6.47,3.74 0.41,-2.1 2.14,-3.74 4.53,-3.74 1.75,0 2.9,1.14 3.69,2.74 0.85,1.79 1.5,4.84 1.5,4.93 0,0.5 -0.45,0.5 -0.59,0.5 -0.5,0 -0.55,-0.2 -0.7,-0.9 -0.85,-3.24 -1.75,-6.17 -3.79,-6.17 -1.34,0 -1.5,1.29 -1.5,2.29 0,1.1 0.1,1.49 0.64,3.69 0.57,2.09 0.66,2.59 1.11,4.48 l 1.79,6.97 c 0.35,1.39 0.35,1.5 0.35,1.69 0,0.86 -0.6,1.36 -1.45,1.36 -1.19,0 -1.94,-1.11 -2.09,-2.2 z"
           id="path5369"
           style="fill:#ffffff;stroke-width:0"
           inkscape:connector-curvature="0" /></g>    </g>
    <g
       id="g5495"
       style="fill:#ffffff"
       transform="matrix(0.56665366,0,0,0.56665366,309.88311,227.47941)">
      <g
         word-spacing="normal"
         letter-spacing="normal"
         font-size-adjust="none"
         font-stretch="normal"
         font-weight="normal"
         font-variant="normal"
         font-style="normal"
         stroke-miterlimit="10.433"
         xml:space="preserve"
         transform="matrix(1.0629921,0,0,-1.0629921,-186.02362,789.27165)"
         id="g5497"
         style="font-style:normal;font-variant:normal;font-weight:normal;font-stretch:normal;letter-spacing:normal;word-spacing:normal;text-anchor:start;fill:#ffffff;fill-opacity:1;fill-rule:evenodd;stroke:#000000;stroke-linecap:butt;stroke-linejoin:miter;stroke-miterlimit:10.43299961;stroke-opacity:1;stroke-dasharray:none;stroke-dashoffset:0"><path
           id="path5499"
           d="m 467.43,440.23 0,0 0,0.01 0,0 0,0.01 -0.01,0.02 0,0.01 0,0.02 0,0.02 0,0.02 -0.01,0.02 0,0.02 -0.01,0.02 -0.01,0.02 -0.01,0.03 -0.01,0.02 -0.01,0.03 -0.01,0.02 -0.02,0.03 -0.02,0.02 -0.02,0.02 -0.02,0.03 -0.01,0.01 -0.02,0.01 -0.01,0.01 -0.01,0.01 -0.02,0.01 -0.01,0.01 -0.02,0.01 -0.01,0.01 -0.02,0.01 -0.02,0.01 -0.02,0 -0.02,0.01 -0.02,0.01 -0.02,0 -0.02,0.01 -0.02,0.01 -0.03,0 -0.02,0 -0.03,0.01 -0.02,0 -0.03,0 -0.03,0.01 -0.03,0 -0.02,0 c -1.16,0 -4.79,-0.41 -6.08,-0.5 -0.41,-0.05 -0.96,-0.1 -0.96,-1 0,-0.6 0.46,-0.6 1.21,-0.6 2.39,0 2.48,-0.34 2.48,-0.84 0,-0.36 -0.45,-2.05 -0.7,-3.09 l -4.08,-16.24 c -0.59,-2.5 -0.8,-3.3 -0.8,-5.03 0,-4.73 2.64,-7.83 6.33,-7.83 v 1.1 c -1.7,0 -3.34,1.34 -3.34,5.03 0,0.95 0,1.89 0.79,5.03 l 1.1,4.59 c 0.3,1.1 0.3,1.19 0.75,1.74 2.44,3.23 4.69,3.98 5.98,3.98 1.8,0 3.14,-1.48 3.14,-4.69 0,-2.93 -1.65,-8.65 -2.54,-10.56 -1.64,-3.33 -3.94,-5.12 -5.88,-5.12 v -1.1 c 5.88,0 12,7.42 12,14.6 0,4.53 -2.64,7.96 -6.62,7.96 -2.28,0 -4.33,-1.43 -5.83,-2.98 z"
           style="fill:#ffffff;stroke-width:0"
           inkscape:connector-curvature="0" /></g>    </g>
    <g
       id="g5631"
       style="fill:#ffffff"
       transform="matrix(0.56665366,0,0,0.56665366,-1.5454616,425.33656)">
      <g
         id="g5633"
         transform="matrix(1.0629921,0,0,-1.0629921,-186.02362,789.27165)"
         xml:space="preserve"
         stroke-miterlimit="10.433"
         font-style="normal"
         font-variant="normal"
         font-weight="normal"
         font-stretch="normal"
         font-size-adjust="none"
         letter-spacing="normal"
         word-spacing="normal"
         style="font-style:normal;font-variant:normal;font-weight:normal;font-stretch:normal;letter-spacing:normal;word-spacing:normal;text-anchor:start;fill:#ffffff;fill-opacity:1;fill-rule:evenodd;stroke:#000000;stroke-linecap:butt;stroke-linejoin:miter;stroke-miterlimit:10.43299961;stroke-opacity:1;stroke-dasharray:none;stroke-dashoffset:0"><path
           d="m 472.16,421.25 0.03,0.13 0.04,0.15 0.04,0.16 0.04,0.18 0.06,0.19 0.06,0.21 0.06,0.22 0.07,0.22 0.08,0.23 0.09,0.24 0.1,0.25 0.1,0.24 0.11,0.25 0.12,0.25 0.13,0.25 0.14,0.25 0.15,0.24 0.15,0.24 0.17,0.23 0.18,0.22 0.18,0.22 0.2,0.2 0.21,0.19 0.22,0.18 0.23,0.16 0.25,0.14 0.12,0.07 0.13,0.06 0.14,0.05 0.13,0.05 0.14,0.05 0.14,0.04 0.15,0.03 0.15,0.03 0.15,0.02 0.16,0.02 0.16,0.01 0.16,0 c 0.25,0 1.44,0 2.48,-0.64 -1.39,-0.25 -2.39,-1.5 -2.39,-2.69 0,-0.79 0.55,-1.75 1.89,-1.75 1.1,0 2.69,0.89 2.69,2.89 0,2.6 -2.94,3.28 -4.63,3.28 -2.89,0 -4.64,-2.64 -5.23,-3.78 -1.25,3.28 -3.94,3.78 -5.37,3.78 -5.19,0 -8.04,-6.42 -8.04,-7.67 0,-0.5 0.5,-0.5 0.61,-0.5 0.39,0 0.55,0.11 0.64,0.55 1.69,5.28 4.99,6.53 6.68,6.53 0.95,0 2.68,-0.44 2.68,-3.33 0,-1.54 -0.84,-4.89 -2.68,-11.86 -0.8,-3.09 -2.54,-5.18 -4.74,-5.18 -0.3,0 -1.44,0 -2.48,0.65 1.25,0.24 2.34,1.28 2.34,2.69 0,1.34 -1.09,1.73 -1.84,1.73 -1.5,0 -2.75,-1.29 -2.75,-2.89 0,-2.28 2.5,-3.28 4.68,-3.28 3.3,0 5.08,3.49 5.24,3.78 0.59,-1.84 2.39,-3.78 5.37,-3.78 5.14,0 7.99,6.42 7.99,7.67 0,0.5 -0.45,0.5 -0.61,0.5 -0.44,0 -0.55,-0.2 -0.64,-0.54 -1.64,-5.33 -5.03,-6.53 -6.63,-6.53 -1.95,0 -2.75,1.59 -2.75,3.29 0,1.1 0.3,2.19 0.86,4.38 z"
           id="path5635"
           style="fill:#ffffff;stroke-width:0"
           inkscape:connector-curvature="0" /></g>    </g>
    <g
       id="g5773"
       style="fill:#ffffff"
       transform="matrix(0.56665366,0,0,0.56665366,414.88311,217.47941)">
      <g
         word-spacing="normal"
         letter-spacing="normal"
         font-size-adjust="none"
         font-stretch="normal"
         font-weight="normal"
         font-variant="normal"
         font-style="normal"
         stroke-miterlimit="10.433"
         xml:space="preserve"
         transform="matrix(1.0629921,0,0,-1.0629921,-186.02362,789.27165)"
         id="g5775"
         style="font-style:normal;font-variant:normal;font-weight:normal;font-stretch:normal;letter-spacing:normal;word-spacing:normal;text-anchor:start;fill:#ffffff;fill-opacity:1;fill-rule:evenodd;stroke:#000000;stroke-linecap:butt;stroke-linejoin:miter;stroke-miterlimit:10.43299961;stroke-opacity:1;stroke-dasharray:none;stroke-dashoffset:0"><path
           id="path5777"
           d="m 479.74,425.18 0.01,0.04 0.01,0.03 0.01,0.06 0.02,0.05 0.01,0.06 0.01,0.05 0.02,0.04 0.01,0.05 0.01,0.04 0.01,0.04 0,0.04 0.01,0.04 0.01,0.04 0.01,0.03 0,0.03 0.01,0.03 0,0.03 0.01,0.03 0,0.03 0.01,0.05 0,0.06 0,0.05 0,0.05 0.01,0.05 0,0.03 0,0.03 0,0.03 0,0.03 c 0,0.91 -0.69,1.35 -1.44,1.35 -0.5,0 -1.3,-0.3 -1.75,-1.05 -0.1,-0.25 -0.5,-1.78 -0.69,-2.69 -0.36,-1.29 -0.7,-2.64 -1,-3.98 l -2.25,-8.97 c -0.19,-0.75 -2.33,-4.23 -5.62,-4.23 -2.54,0 -3.1,2.18 -3.1,4.03 0,2.29 0.86,5.39 2.55,9.76 0.8,2.05 1,2.6 1,3.6 0,2.23 -1.59,4.07 -4.09,4.07 -4.74,0 -6.58,-7.21 -6.58,-7.67 0,-0.5 0.5,-0.5 0.61,-0.5 0.5,0 0.54,0.11 0.79,0.91 1.35,4.69 3.33,6.17 5.03,6.17 0.4,0 1.25,0 1.25,-1.59 0,-1.25 -0.5,-2.53 -0.85,-3.49 -1.99,-5.28 -2.9,-8.12 -2.9,-10.47 0,-4.42 3.15,-5.92 6.08,-5.92 1.96,0 3.64,0.85 5.03,2.24 -0.64,-2.58 -1.23,-5.03 -3.23,-7.68 -1.3,-1.68 -3.19,-3.14 -5.48,-3.14 -0.69,0 -2.94,0.16 -3.79,2.1 0.8,0 1.46,0 2.14,0.61 0.5,0.43 1,1.09 1,2.03 0,1.55 -1.34,1.75 -1.84,1.75 -1.14,0 -2.8,-0.8 -2.8,-3.24 0,-2.5 2.21,-4.34 5.29,-4.34 5.14,0 10.26,4.55 11.67,10.17 z"
           style="fill:#ffffff;stroke-width:0"
           inkscape:connector-curvature="0" /></g>    </g>
  </g>
</svg>
