<?xml version="1.0" encoding="UTF-8" standalone="no"?>
<!-- Created with Inkscape (http://www.inkscape.org/) -->

<svg
   xmlns:dc="http://purl.org/dc/elements/1.1/"
   xmlns:cc="http://creativecommons.org/ns#"
   xmlns:rdf="http://www.w3.org/1999/02/22-rdf-syntax-ns#"
   xmlns:svg="http://www.w3.org/2000/svg"
   xmlns="http://www.w3.org/2000/svg"
   xmlns:xlink="http://www.w3.org/1999/xlink"
   xmlns:sodipodi="http://sodipodi.sourceforge.net/DTD/sodipodi-0.dtd"
   xmlns:inkscape="http://www.inkscape.org/namespaces/inkscape"
   width="210mm"
   height="297mm"
   id="svg3288"
   version="1.1"
   inkscape:version="0.48.3.1 r9886"
   sodipodi:docname="新規ドキュメント 2">
  <defs
     id="defs3290">
    <defs
       id="defs11">
      <circle
         r="0.5"
         id="gpDot"
         cx="0"
         cy="0"
         sodipodi:cx="0"
         sodipodi:cy="0"
         sodipodi:rx="0.5"
         sodipodi:ry="0.5"
         style="stroke-width:0.5" />
      <path
         d="M -1,0 H 1 M 0,-1 v 2"
         id="gpPt0"
         inkscape:connector-curvature="0"
         style="stroke:currentColor;stroke-width:0.222" />
      <path
         d="M -1,-1 1,1 M 1,-1 -1,1"
         id="gpPt1"
         inkscape:connector-curvature="0"
         style="stroke:currentColor;stroke-width:0.222" />
      <path
         d="M -1,0 1,0 M 0,-1 0,1 m -1,-2 2,2 m -2,0 2,-2"
         id="gpPt2"
         inkscape:connector-curvature="0"
         style="stroke:currentColor;stroke-width:0.222" />
      <rect
         height="2"
         width="2"
         y="-1"
         x="-1"
         id="gpPt3"
         style="stroke:currentColor;stroke-width:0.222" />
      <rect
         height="2"
         width="2"
         y="-1"
         x="-1"
         id="gpPt4"
         style="fill:currentColor;stroke:currentColor;stroke-width:0.222" />
      <circle
         r="1"
         cy="0"
         cx="0"
         id="gpPt5"
         sodipodi:cx="0"
         sodipodi:cy="0"
         sodipodi:rx="1"
         sodipodi:ry="1"
         style="stroke:currentColor;stroke-width:0.222" />
      <use
         id="gpPt6"
         xlink:href="#gpPt5"
         style="fill:currentColor;stroke:none"
         x="0"
         y="0"
         width="744.09448"
         height="1052.3622" />
      <path
         d="m 0,-1.33 -1.33,2 2.66,0 z"
         id="gpPt7"
         inkscape:connector-curvature="0"
         style="stroke:currentColor;stroke-width:0.222" />
      <use
         id="gpPt8"
         xlink:href="#gpPt7"
         style="fill:currentColor;stroke:none"
         x="0"
         y="0"
         width="744.09448"
         height="1052.3622" />
      <use
         transform="scale(-1,-1)"
         id="gpPt9"
         xlink:href="#gpPt7"
         style="stroke:currentColor"
         x="0"
         y="0"
         width="744.09448"
         height="1052.3622" />
      <use
         id="gpPt10"
         xlink:href="#gpPt9"
         style="fill:currentColor;stroke:none"
         x="0"
         y="0"
         width="744.09448"
         height="1052.3622" />
      <use
         transform="matrix(0.70710678,0.70710678,-0.70710678,0.70710678,0,0)"
         id="gpPt11"
         xlink:href="#gpPt3"
         style="stroke:currentColor"
         x="0"
         y="0"
         width="744.09448"
         height="1052.3622" />
      <use
         id="gpPt12"
         xlink:href="#gpPt11"
         style="fill:currentColor;stroke:none"
         x="0"
         y="0"
         width="744.09448"
         height="1052.3622" />
    </defs>
  </defs>
  <sodipodi:namedview
     id="base"
     pagecolor="#000000"
     bordercolor="#666666"
     borderopacity="1.0"
     inkscape:pageopacity="0"
     inkscape:pageshadow="2"
     inkscape:zoom="0.98994949"
     inkscape:cx="351.34569"
     inkscape:cy="509.01638"
     inkscape:document-units="px"
     inkscape:current-layer="layer1"
     showgrid="false"
     inkscape:window-width="736"
     inkscape:window-height="583"
     inkscape:window-x="584"
     inkscape:window-y="79"
     inkscape:window-maximized="0" />
  <metadata
     id="metadata3293">
    <rdf:RDF>
      <cc:Work
         rdf:about="">
        <dc:format>image/svg+xml</dc:format>
        <dc:type
           rdf:resource="http://purl.org/dc/dcmitype/StillImage" />
        <dc:title></dc:title>
      </cc:Work>
    </rdf:RDF>
  </metadata>
  <g
     inkscape:label="レイヤー 1"
     inkscape:groupmode="layer"
     id="layer1">
    <g
       id="g27"
       style="color:#ffffff;fill:none;stroke:currentColor;stroke-width:1;stroke-linecap:butt;stroke-linejoin:miter"
       transform="translate(62.857146,240.93361)" />
    <path
       style="color:#000000;fill:none;stroke:#ffffff;stroke-width:1;stroke-linecap:butt;stroke-linejoin:miter"
       inkscape:connector-curvature="0"
       d="m 154.55715,600.73361 132.5,-108.7 m 284.1,50.7 -284.1,-50.7 m -132.5,108.7 0,-199.6 m 132.5,90.9 0,-199.6 m 284.1,250.3 0,-110.9 m -390.8,173.5 5.1,-4.2 h 0.01"
       id="path31" />
    <g
       transform="translate(175.65715,618.23361)"
       style="font-size:15px;text-anchor:middle;color:#000000;fill:#ffffff;stroke:#ffffff;stroke-width:1;stroke-linecap:butt;stroke-linejoin:miter;font-family:Arial"
       id="g33">
      <text
         style="stroke:#ffffff;fill:#ffffff"
         id="text35">-0.5</text>
    </g>
    <path
       style="color:#000000;fill:none;stroke:#ffffff;stroke-width:1;stroke-linecap:butt;stroke-linejoin:miter"
       inkscape:connector-curvature="0"
       d="m 312.85715,496.63361 -5.1,4.2 m -82.2,112.6 5.1,-4.2 h 0.01"
       id="path37" />
    <g
       transform="translate(220.85715,626.33361)"
       style="font-size:15px;text-anchor:middle;color:#000000;fill:#ffffff;stroke:#ffffff;stroke-width:1;stroke-linecap:butt;stroke-linejoin:miter;font-family:Arial"
       id="g39">
      <text
         style="stroke:#ffffff;fill:#ffffff"
         id="text41">0</text>
    </g>
    <path
       style="color:#000000;fill:none;stroke:#ffffff;stroke-width:1;stroke-linecap:butt;stroke-linejoin:miter"
       inkscape:connector-curvature="0"
       d="m 358.15715,504.73361 -5.2,4.2 m -82.1,112.6 5.1,-4.2 h 0.01"
       id="path43" />
    <g
       transform="translate(266.05715,634.43361)"
       style="font-size:15px;text-anchor:middle;color:#000000;fill:#ffffff;stroke:#ffffff;stroke-width:1;stroke-linecap:butt;stroke-linejoin:miter;font-family:Arial"
       id="g45">
      <text
         style="stroke:#ffffff;fill:#ffffff"
         id="text47">0.5</text>
    </g>
    <path
       style="color:#000000;fill:none;stroke:#ffffff;stroke-width:1;stroke-linecap:butt;stroke-linejoin:miter"
       inkscape:connector-curvature="0"
       d="m 403.25715,512.73361 -5.1,4.2 m -82.1,112.7 5.1,-4.2 h 0.01"
       id="path49" />
    <g
       transform="translate(311.35715,642.53361)"
       style="font-size:15px;text-anchor:middle;color:#000000;fill:#ffffff;stroke:#ffffff;stroke-width:1;stroke-linecap:butt;stroke-linejoin:miter;font-family:Arial"
       id="g51">
      <text
         style="stroke:#ffffff;fill:#ffffff"
         id="text53">1</text>
    </g>
    <path
       style="color:#000000;fill:none;stroke:#ffffff;stroke-width:1;stroke-linecap:butt;stroke-linejoin:miter"
       inkscape:connector-curvature="0"
       d="m 448.45715,520.83361 -5.1,4.2 m -82.1,112.6 5.1,-4.2 h 0.01"
       id="path55" />
    <g
       transform="translate(356.55715,650.53361)"
       style="font-size:15px;text-anchor:middle;color:#000000;fill:#ffffff;stroke:#ffffff;stroke-width:1;stroke-linecap:butt;stroke-linejoin:miter;font-family:Arial"
       id="g57">
      <text
         style="stroke:#ffffff;fill:#ffffff"
         id="text59">1.5</text>
    </g>
    <path
       style="color:#000000;fill:none;stroke:#ffffff;stroke-width:1;stroke-linecap:butt;stroke-linejoin:miter"
       inkscape:connector-curvature="0"
       d="m 493.75715,528.93361 -5.2,4.2 m -82.1,112.6 5.1,-4.2 h 0.01"
       id="path61" />
    <g
       transform="translate(401.65715,658.63361)"
       style="font-size:15px;text-anchor:middle;color:#000000;fill:#ffffff;stroke:#ffffff;stroke-width:1;stroke-linecap:butt;stroke-linejoin:miter;font-family:Arial"
       id="g63">
      <text
         style="stroke:#ffffff;fill:#ffffff"
         id="text65">2</text>
    </g>
    <path
       style="color:#000000;fill:none;stroke:#ffffff;stroke-width:1;stroke-linecap:butt;stroke-linejoin:miter"
       inkscape:connector-curvature="0"
       d="m 538.95715,536.93361 -5.1,4.2 m -83.2,100.5 -8.1,-1.5 h 0.01"
       id="path67" />
    <g
       transform="translate(458.25715,649.03361)"
       style="font-size:15px;text-anchor:start;color:#000000;fill:#ffffff;stroke:#ffffff;stroke-width:1;stroke-linecap:butt;stroke-linejoin:miter;font-family:Arial"
       id="g69">
      <text
         style="stroke:#ffffff;fill:#ffffff"
         id="text71">-0.5</text>
    </g>
    <path
       style="color:#000000;fill:none;stroke:#ffffff;stroke-width:1;stroke-linecap:butt;stroke-linejoin:miter"
       inkscape:connector-curvature="0"
       d="m 166.55715,590.93361 8.2,1.4 m 297,32 -8.1,-1.5 h 0.01"
       id="path73" />
    <g
       transform="translate(479.25715,631.73361)"
       style="font-size:15px;text-anchor:start;color:#000000;fill:#ffffff;stroke:#ffffff;stroke-width:1;stroke-linecap:butt;stroke-linejoin:miter;font-family:Arial"
       id="g75">
      <text
         style="stroke:#ffffff;fill:#ffffff"
         id="text77">0</text>
    </g>
    <path
       style="color:#000000;fill:none;stroke:#ffffff;stroke-width:1;stroke-linecap:butt;stroke-linejoin:miter"
       inkscape:connector-curvature="0"
       d="m 187.65715,573.53361 8.2,1.5 m 297,31.9 -8.1,-1.4 h 0.01"
       id="path79" />
    <g
       transform="translate(500.35715,614.43361)"
       style="font-size:15px;text-anchor:start;color:#000000;fill:#ffffff;stroke:#ffffff;stroke-width:1;stroke-linecap:butt;stroke-linejoin:miter;font-family:Arial"
       id="g81">
      <text
         style="stroke:#ffffff;fill:#ffffff"
         id="text83">0.5</text>
    </g>
    <path
       style="color:#000000;fill:none;stroke:#ffffff;stroke-width:1;stroke-linecap:butt;stroke-linejoin:miter"
       inkscape:connector-curvature="0"
       d="m 208.75715,556.23361 8.2,1.5 m 297,31.9 -8.1,-1.4 h 0.01"
       id="path85" />
    <g
       transform="translate(521.45715,597.03361)"
       style="font-size:15px;text-anchor:start;color:#000000;fill:#ffffff;stroke:#ffffff;stroke-width:1;stroke-linecap:butt;stroke-linejoin:miter;font-family:Arial"
       id="g87">
      <text
         style="stroke:#ffffff;fill:#ffffff"
         id="text89">1</text>
    </g>
    <path
       style="color:#000000;fill:none;stroke:#ffffff;stroke-width:1;stroke-linecap:butt;stroke-linejoin:miter"
       inkscape:connector-curvature="0"
       d="m 229.85715,538.93361 8.2,1.5 m 297,31.9 -8.2,-1.4 h 0.01"
       id="path91" />
    <g
       transform="translate(542.55715,579.73361)"
       style="font-size:15px;text-anchor:start;color:#000000;fill:#ffffff;stroke:#ffffff;stroke-width:1;stroke-linecap:butt;stroke-linejoin:miter;font-family:Arial"
       id="g93">
      <text
         style="stroke:#ffffff;fill:#ffffff"
         id="text95">1.5</text>
    </g>
    <path
       style="color:#000000;fill:none;stroke:#ffffff;stroke-width:1;stroke-linecap:butt;stroke-linejoin:miter"
       inkscape:connector-curvature="0"
       d="m 250.95715,521.63361 8.1,1.5 m 297.1,31.9 -8.2,-1.4 h 0.01"
       id="path97" />
    <g
       transform="translate(563.65715,562.43361)"
       style="font-size:15px;text-anchor:start;color:#000000;fill:#ffffff;stroke:#ffffff;stroke-width:1;stroke-linecap:butt;stroke-linejoin:miter;font-family:Arial"
       id="g99">
      <text
         style="stroke:#ffffff;fill:#ffffff"
         id="text101">2</text>
    </g>
    <path
       style="color:#000000;fill:none;stroke:#ffffff;stroke-width:1;stroke-linecap:butt;stroke-linejoin:miter"
       inkscape:connector-curvature="0"
       d="m 272.05715,504.33361 8.1,1.5 m -125.6,28.4 9,0 h 0.01"
       id="path103" />
    <g
       transform="translate(136.55715,538.73361)"
       style="font-size:15px;text-anchor:end;color:#000000;fill:#ffffff;stroke:#ffffff;stroke-width:1;stroke-linecap:butt;stroke-linejoin:miter;font-family:Arial"
       id="g105">
      <text
         style="stroke:#ffffff;fill:#ffffff"
         id="text107">-2</text>
    </g>
    <path
       style="color:#000000;fill:none;stroke:#ffffff;stroke-width:1;stroke-linecap:butt;stroke-linejoin:miter"
       inkscape:connector-curvature="0"
       d="m 154.55715,512.03361 9,0 h 0.01"
       id="path109" />
    <g
       transform="translate(136.55715,516.53361)"
       style="font-size:15px;text-anchor:end;color:#000000;fill:#ffffff;stroke:#ffffff;stroke-width:1;stroke-linecap:butt;stroke-linejoin:miter;font-family:Arial"
       id="g111">
      <text
         style="stroke:#ffffff;fill:#ffffff"
         id="text113">-1.5</text>
    </g>
    <path
       style="color:#000000;fill:none;stroke:#ffffff;stroke-width:1;stroke-linecap:butt;stroke-linejoin:miter"
       inkscape:connector-curvature="0"
       d="m 154.55715,489.83361 9,0 h 0.01"
       id="path115" />
    <g
       transform="translate(136.55715,494.33361)"
       style="font-size:15px;text-anchor:end;color:#000000;fill:#ffffff;stroke:#ffffff;stroke-width:1;stroke-linecap:butt;stroke-linejoin:miter;font-family:Arial"
       id="g117">
      <text
         style="stroke:#ffffff;fill:#ffffff"
         id="text119">-1</text>
    </g>
    <path
       style="color:#000000;fill:none;stroke:#ffffff;stroke-width:1;stroke-linecap:butt;stroke-linejoin:miter"
       inkscape:connector-curvature="0"
       d="m 154.55715,467.73361 9,0 h 0.01"
       id="path121" />
    <g
       transform="translate(136.55715,472.23361)"
       style="font-size:15px;text-anchor:end;color:#000000;fill:#ffffff;stroke:#ffffff;stroke-width:1;stroke-linecap:butt;stroke-linejoin:miter;font-family:Arial"
       id="g123">
      <text
         style="stroke:#ffffff;fill:#ffffff"
         id="text125">-0.5</text>
    </g>
    <path
       style="color:#000000;fill:none;stroke:#ffffff;stroke-width:1;stroke-linecap:butt;stroke-linejoin:miter"
       inkscape:connector-curvature="0"
       d="m 154.55715,445.53361 9,0 h 0.01"
       id="path127" />
    <g
       transform="translate(136.55715,450.03361)"
       style="font-size:15px;text-anchor:end;color:#000000;fill:#ffffff;stroke:#ffffff;stroke-width:1;stroke-linecap:butt;stroke-linejoin:miter;font-family:Arial"
       id="g129">
      <text
         style="stroke:#ffffff;fill:#ffffff"
         id="text131">0</text>
    </g>
    <path
       style="color:#000000;fill:none;stroke:#ffffff;stroke-width:1;stroke-linecap:butt;stroke-linejoin:miter"
       inkscape:connector-curvature="0"
       d="m 154.55715,423.33361 9,0 h 0.01"
       id="path133" />
    <g
       transform="translate(136.55715,427.83361)"
       style="font-size:15px;text-anchor:end;color:#000000;fill:#ffffff;stroke:#ffffff;stroke-width:1;stroke-linecap:butt;stroke-linejoin:miter;font-family:Arial"
       id="g135">
      <text
         style="stroke:#ffffff;fill:#ffffff"
         id="text137">0.5</text>
    </g>
    <path
       style="color:#000000;fill:none;stroke:#ffffff;stroke-width:1;stroke-linecap:butt;stroke-linejoin:miter"
       inkscape:connector-curvature="0"
       d="m 154.55715,401.13361 9,0 h 0.01"
       id="path139" />
    <g
       transform="translate(136.55715,405.63361)"
       style="font-size:15px;text-anchor:end;color:#000000;fill:#ffffff;stroke:#ffffff;stroke-width:1;stroke-linecap:butt;stroke-linejoin:miter;font-family:Arial"
       id="g141">
      <text
         style="stroke:#ffffff;fill:#ffffff"
         id="text143">1</text>
    </g>
    <g
       style="color:#ff0000;fill:none;stroke:#ffc0cb;stroke-width:1;stroke-linecap:butt;stroke-linejoin:miter;stroke-opacity:1"
       id="g152"
       transform="translate(62.857146,240.93361)">
      <path
         inkscape:connector-curvature="0"
         d="m 91.7,248.9 2.8,0.5 2.9,0.4 2.9,0.4 2.9,0.4 2.8,0.3 2.9,0.2 2.9,0.3 2.8,0.2 2.9,0.1 2.9,0.1 2.9,0 2.8,0 2.9,0 2.9,-0.1 2.8,-0.1 2.9,-0.1 2.9,-0.2 2.9,-0.2 2.8,-0.3 2.9,-0.3 2.9,-0.4 2.8,-0.3 2.9,-0.4 2.9,-0.5 2.8,-0.5 2.9,-0.5 2.9,-0.5 2.9,-0.6 2.8,-0.6 2.9,-0.6 2.9,-0.6 2.8,-0.7 2.9,-0.7 2.9,-0.7 2.9,-0.8 2.8,-0.7 2.9,-0.8 2.9,-0.8 2.8,-0.8 2.9,-0.8 2.9,-0.9 2.9,-0.8 2.8,-0.9 2.9,-0.9 2.9,-0.8 2.8,-0.9 2.9,-0.9 2.9,-0.9 2.8,-0.8 2.9,-0.9 2.9,-0.9 2.9,-0.9 2.8,-0.9 2.9,-0.9 2.9,-0.8 2.8,-0.9 2.9,-0.9 2.9,-0.8 2.9,-0.9 2.8,-0.8 2.9,-0.8 2.9,-0.8 2.8,-0.8 2.9,-0.7 2.9,-0.8 2.9,-0.7 2.8,-0.7 2.9,-0.7 2.9,-0.6 2.8,-0.6 2.9,-0.6 2.9,-0.6 2.7,-0.5 2.9,-0.5 2.9,-0.5 2.9,-0.4 2.8,-0.5 2.9,-0.3 2.9,-0.4 2.8,-0.3 2.9,-0.2 2.9,-0.3 2.9,-0.2 2.8,-0.1 2.9,-0.1 2.9,-0.1 2.8,0 2.9,0 2.9,0 2.9,0.1 2.8,0.2 2.9,0.1 2.9,0.3 2.8,0.2 2.9,0.3 2.9,0.4 2.9,0.4 2.8,0.4 2.9,0.5 m -277.2,31.6 2.9,0.3 2.9,0.2 2.9,0.2 2.8,0.1 2.9,0.1 2.9,0 2.8,0 2.9,0 2.9,-0.1 2.9,-0.1 2.8,-0.2 2.9,-0.2 2.9,-0.2 2.8,-0.3 2.9,-0.3 2.9,-0.3 2.9,-0.4 2.8,-0.4 2.9,-0.5 2.9,-0.5 2.8,-0.5 2.9,-0.5 2.9,-0.6 2.9,-0.6 2.8,-0.6 2.9,-0.7 2.9,-0.7 2.8,-0.7 2.9,-0.7 2.9,-0.7 2.8,-0.8 2.9,-0.8 2.9,-0.8 2.9,-0.7 2.8,-0.8 2.9,-0.8 2.9,-0.9 2.8,-0.9 2.9,-0.8 2.9,-0.9 2.9,-0.9 2.8,-0.9 2.9,-0.9 2.9,-0.9 2.8,-0.9 2.9,-0.9 2.9,-0.9 2.9,-0.9 2.8,-0.8 2.9,-0.9 2.9,-0.9 2.8,-0.8 2.9,-0.9 2.9,-0.8 2.8,-0.9 2.9,-0.8 2.9,-0.7 2.9,-0.8 2.8,-0.8 2.9,-0.7 2.9,-0.7 2.8,-0.7 2.9,-0.7 2.9,-0.6 2.9,-0.6 2.8,-0.6 2.9,-0.6 2.9,-0.5 2.8,-0.5 2.9,-0.5 2.8,-0.4 2.9,-0.4 2.8,-0.4 2.9,-0.3 2.9,-0.3 2.8,-0.3 2.9,-0.2 2.9,-0.2 2.9,-0.1 2.8,-0.1 2.9,-0.1 2.9,0 2.8,0 2.9,0 2.9,0.1 2.8,0.2 2.9,0.2 2.9,0.2 2.9,0.3 2.8,0.3 2.9,0.4 2.9,0.4 2.8,0.4 2.9,0.5 2.9,0.6 2.9,0.6 2.8,0.6 2.9,0.7 2.9,0.7 m -277.2,29.2 2.9,0.1 2.9,-0.1 2.8,0 2.9,-0.1 2.9,-0.1 2.9,-0.2 2.8,-0.2 2.9,-0.2 2.9,-0.3 2.8,-0.3 2.9,-0.4 2.9,-0.4 2.8,-0.4 2.9,-0.5 2.9,-0.5 2.9,-0.4 2.8,-0.5 2.9,-0.6 2.9,-0.6 2.8,-0.6 2.9,-0.7 2.9,-0.7 2.9,-0.7 2.8,-0.7 2.9,-0.8 2.9,-0.7 2.8,-0.8 2.9,-0.8 2.9,-0.8 2.9,-0.9 2.8,-0.8 2.9,-0.9 2.9,-0.8 2.8,-0.9 2.9,-0.9 2.9,-0.9 2.8,-0.9 2.9,-0.9 2.9,-0.9 2.9,-0.9 2.8,-0.9 2.9,-0.8 2.9,-0.9 2.8,-0.9 2.9,-0.9 2.9,-0.9 2.9,-0.8 2.8,-0.9 2.9,-0.8 2.9,-0.8 2.8,-0.8 2.9,-0.8 2.9,-0.8 2.9,-0.7 2.8,-0.8 2.9,-0.7 2.9,-0.7 2.8,-0.6 2.9,-0.7 2.9,-0.6 2.8,-0.5 2.9,-0.6 2.9,-0.5 2.9,-0.5 2.8,-0.5 2.9,-0.4 2.9,-0.4 2.7,-0.4 2.9,-0.3 2.9,-0.3 2.9,-0.2 2.8,-0.3 2.9,-0.1 2.9,-0.2 2.8,-0.1 2.9,0 2.9,0 2.9,0 2.8,0.1 2.9,0.1 2.9,0.1 2.8,0.2 2.9,0.3 2.9,0.3 2.9,0.3 2.8,0.4 2.9,0.4 2.9,0.5 2.8,0.5 2.9,0.5 2.9,0.6 2.8,0.7 2.9,0.6 2.9,0.8 2.9,0.7 2.8,0.9 2.9,0.8 2.9,0.9 2.8,1 m -277.1,24.6 2.9,-0.2 2.8,-0.2 2.9,-0.3 2.9,-0.3 2.9,-0.3 2.8,-0.4 2.9,-0.4 2.9,-0.4 2.8,-0.5 2.9,-0.5 2.9,-0.5 2.9,-0.5 2.8,-0.6 2.9,-0.6 2.9,-0.7 2.8,-0.6 2.9,-0.7 2.9,-0.7 2.8,-0.8 2.9,-0.7 2.9,-0.8 2.9,-0.8 2.8,-0.8 2.9,-0.8 2.9,-0.8 2.8,-0.9 2.9,-0.8 2.9,-0.9 2.9,-0.9 2.8,-0.9 2.9,-0.9 2.9,-0.9 2.8,-0.8 2.9,-0.9 2.9,-0.9 2.9,-0.9 2.8,-0.9 2.9,-0.9 2.9,-0.9 2.8,-0.9 2.9,-0.8 2.9,-0.9 2.8,-0.8 2.9,-0.9 2.9,-0.8 2.9,-0.8 2.8,-0.8 2.9,-0.7 2.9,-0.8 2.8,-0.7 2.9,-0.7 2.9,-0.7 2.9,-0.6 2.8,-0.7 2.9,-0.6 2.9,-0.6 2.8,-0.5 2.9,-0.5 2.9,-0.5 2.9,-0.5 2.8,-0.4 2.9,-0.4 2.9,-0.3 2.8,-0.4 2.9,-0.2 2.8,-0.3 2.9,-0.2 2.8,-0.2 2.9,-0.1 2.9,-0.1 2.8,0 2.9,0 2.9,0 2.8,0.1 2.9,0.1 2.9,0.2 2.9,0.2 2.8,0.2 2.9,0.3 2.9,0.4 2.8,0.4 2.9,0.4 2.9,0.5 2.9,0.5 2.8,0.5 2.9,0.7 2.9,0.6 2.8,0.7 2.9,0.7 2.9,0.8 2.9,0.9 2.8,0.8 2.9,0.9 2.9,1 2.8,1 2.9,1 2.9,1.1 2.8,1.1 2.9,1.2 m -277.1,17.6 2.8,-0.3 2.9,-0.5 2.9,-0.4 2.9,-0.5 2.8,-0.5 2.9,-0.5 2.9,-0.6 2.8,-0.5 2.9,-0.7 2.9,-0.6 2.9,-0.7 2.8,-0.7 2.9,-0.7 2.9,-0.7 2.8,-0.8 2.9,-0.8 2.9,-0.7 2.9,-0.9 2.8,-0.8 2.9,-0.8 2.9,-0.9 2.8,-0.8 2.9,-0.9 2.9,-0.9 2.8,-0.9 2.9,-0.8 2.9,-0.9 2.9,-0.9 2.8,-0.9 2.9,-0.9 2.9,-0.9 2.8,-0.9 2.9,-0.9 2.9,-0.9 2.9,-0.8 2.8,-0.9 2.9,-0.9 2.9,-0.8 2.8,-0.8 2.9,-0.8 2.9,-0.8 2.9,-0.8 2.8,-0.8 2.9,-0.7 2.9,-0.7 2.8,-0.7 2.9,-0.7 2.9,-0.7 2.8,-0.6 2.9,-0.6 2.9,-0.6 2.9,-0.5 2.8,-0.5 2.9,-0.5 2.9,-0.5 2.8,-0.4 2.9,-0.4 2.9,-0.3 2.9,-0.3 2.8,-0.3 2.9,-0.2 2.9,-0.2 2.7,-0.2 2.9,-0.1 2.9,-0.1 2.9,0 2.8,0 2.9,0 2.9,0.1 2.8,0.2 2.9,0.1 2.9,0.2 2.9,0.3 2.8,0.3 2.9,0.4 2.9,0.4 2.8,0.4 2.9,0.5 2.9,0.5 2.8,0.6 2.9,0.6 2.9,0.7 2.9,0.7 2.8,0.7 2.9,0.8 2.9,0.8 2.8,0.9 2.9,0.9 2.9,1 2.9,1 2.8,1.1 2.9,1.1 2.9,1.1 2.8,1.2 2.9,1.2 2.9,1.2 2.9,1.3 2.8,1.3 2.9,1.4 m -277.1,8.6 2.8,-0.5 2.9,-0.6 2.9,-0.6 2.8,-0.6 2.9,-0.6 2.9,-0.7 2.8,-0.7 2.9,-0.7 2.9,-0.8 2.9,-0.7 2.8,-0.8 2.9,-0.8 2.9,-0.8 2.8,-0.8 2.9,-0.9 2.9,-0.8 2.9,-0.9 2.8,-0.9 2.9,-0.9 2.9,-0.8 2.8,-0.9 2.9,-0.9 2.9,-0.9 2.9,-0.9 2.8,-0.9 2.9,-0.9 2.9,-0.9 2.8,-0.9 2.9,-0.9 2.9,-0.8 2.8,-0.9 2.9,-0.8 2.9,-0.9 2.9,-0.8 2.8,-0.8 2.9,-0.8 2.9,-0.8 2.8,-0.7 2.9,-0.8 2.9,-0.7 2.9,-0.7 2.8,-0.7 2.9,-0.6 2.9,-0.6 2.8,-0.6 2.9,-0.6 2.9,-0.5 2.9,-0.5 2.8,-0.5 2.9,-0.4 2.9,-0.4 2.8,-0.4 2.9,-0.4 2.9,-0.3 2.9,-0.2 2.8,-0.3 2.9,-0.1 2.9,-0.2 2.8,-0.1 2.9,-0.1 2.8,0 2.8,0 2.9,0.1 2.9,0.1 2.9,0.1 2.8,0.2 2.9,0.2 2.9,0.3 2.8,0.3 2.9,0.3 2.9,0.4 2.9,0.5 2.8,0.5 2.9,0.5 2.9,0.6 2.8,0.6 2.9,0.7 2.9,0.7 2.9,0.8 2.8,0.8 2.9,0.8 2.9,0.9 2.8,0.9 2.9,1 2.9,1 2.8,1.1 2.9,1.1 2.9,1.1 2.9,1.2 2.8,1.2 2.9,1.3 2.9,1.3 2.8,1.3 2.9,1.4 2.9,1.4 2.9,1.4 2.8,1.5 2.9,1.5 2.9,1.5 0.01,0"
         id="path154"
         sodipodi:nodetypes="ccccccccccccccccccccccccccccccccccccccccccccccccccccccccccccccccccccccccccccccccccccccccccccccccccccccccccccccccccccccccccccccccccccccccccccccccccccccccccccccccccccccccccccccccccccccccccccccccccccccccccccccccccccccccccccccccccccccccccccccccccccccccccccccccccccccccccccccccccccccccccccccccccccccccccccccccccccccccccccccccccccccccccccccccccccccccccccccccccccccccccccccccccccccccccccccccccccccccccccccccccccccccccccccccccccccccccccccccccccccccccccccccccccccccccccccccccccccccccccccccccccccccccccccccccccccccccccccccccccccccccccccccccccccccccccccccccccccccccccccccccccccccccccccccccccccccccccccccccccccccc"
         style="stroke:#ffc0cb;stroke-opacity:1" />
      <path
         inkscape:connector-curvature="0"
         d="m 133.5,194.5 2.9,-0.7 2.9,-0.7 2.8,-0.7 2.9,-0.7 2.9,-0.8 2.9,-0.8 2.8,-0.8 2.9,-0.8 2.9,-0.8 2.8,-0.9 2.9,-0.8 2.9,-0.9 2.8,-0.8 2.9,-0.9 2.9,-0.9 2.9,-0.9 2.8,-0.9 2.9,-0.9 2.9,-0.9 2.8,-0.9 2.9,-0.9 2.9,-0.9 2.9,-0.9 2.8,-0.8 2.9,-0.9 2.9,-0.9 2.8,-0.8 2.9,-0.8 2.9,-0.9 2.9,-0.8 2.8,-0.8 2.9,-0.7 2.9,-0.8 2.8,-0.7 2.9,-0.7 2.9,-0.7 2.8,-0.7 2.9,-0.6 2.9,-0.6 2.9,-0.6 2.8,-0.6 2.9,-0.5 2.9,-0.5 2.8,-0.5 2.9,-0.4 2.9,-0.4 2.9,-0.4 2.8,-0.3 2.9,-0.3 2.9,-0.3 2.8,-0.2 2.9,-0.2 2.9,-0.1 2.9,-0.1 2.8,-0.1 2.9,0 2.9,0 2.8,0.1 2.8,0.1 2.9,0.1 2.9,0.2 2.8,0.3 2.9,0.2 2.9,0.4 2.8,0.3 2.9,0.4 2.9,0.5 2.8,0.5 2.9,0.5 2.9,0.6 2.9,0.7 2.8,0.7 2.9,0.7 2.9,0.7 2.8,0.9 2.9,0.8 2.9,0.9 2.9,1 2.8,0.9 2.9,1.1 2.9,1 2.8,1.1 2.9,1.2 2.9,1.2 2.9,1.2 2.8,1.3 2.9,1.3 2.9,1.3 2.8,1.4 2.9,1.4 2.9,1.4 2.8,1.5 2.9,1.5 2.9,1.6 2.9,1.5 2.8,1.6 2.9,1.7 2.9,1.6 2.8,1.7 m -277.1,-14.3 2.9,-0.8 2.8,-0.8 2.9,-0.9 2.9,-0.8 2.9,-0.8 2.8,-0.9 2.9,-0.9 2.9,-0.8 2.8,-0.9 2.9,-0.9 2.9,-0.9 2.9,-0.9 2.8,-0.9 2.9,-0.9 2.9,-0.9 2.8,-0.9 2.9,-0.8 2.9,-0.9 2.8,-0.9 2.9,-0.9 2.9,-0.8 2.9,-0.9 2.8,-0.8 2.9,-0.8 2.9,-0.8 2.8,-0.8 2.9,-0.8 2.9,-0.7 2.9,-0.8 2.8,-0.7 2.9,-0.7 2.9,-0.6 2.8,-0.7 2.9,-0.6 2.9,-0.5 2.9,-0.6 2.8,-0.5 2.9,-0.5 2.9,-0.5 2.8,-0.4 2.9,-0.4 2.9,-0.4 2.9,-0.3 2.8,-0.3 2.9,-0.2 2.9,-0.2 2.8,-0.2 2.9,-0.1 2.9,-0.1 2.8,-0.1 2.9,0 2.9,0 2.9,0.1 2.8,0.1 2.9,0.2 2.8,0.2 2.8,0.2 2.9,0.3 2.9,0.3 2.9,0.4 2.8,0.4 2.9,0.5 2.9,0.5 2.8,0.6 2.9,0.6 2.9,0.6 2.9,0.7 2.8,0.7 2.9,0.8 2.9,0.8 2.8,0.9 2.9,0.9 2.9,1 2.8,1 2.9,1 2.9,1.1 2.9,1.1 2.8,1.1 2.9,1.2 2.9,1.3 2.8,1.2 2.9,1.4 2.9,1.3 2.9,1.4 2.8,1.4 2.9,1.5 2.9,1.4 2.8,1.6 2.9,1.5 2.9,1.6 2.9,1.6 2.8,1.6 2.9,1.7 2.9,1.7 2.8,1.7 2.9,1.7 2.9,1.7 2.8,1.8 2.9,1.8 m -277.1,-27.7 2.8,-0.9 2.9,-0.8 2.9,-0.9 2.9,-0.9 2.8,-0.9 2.9,-0.9 2.9,-0.9 2.8,-0.9 2.9,-0.9 2.9,-0.9 2.9,-0.8 2.8,-0.9 2.9,-0.9 2.9,-0.9 2.8,-0.8 2.9,-0.9 2.9,-0.8 2.9,-0.9 2.8,-0.8 2.9,-0.8 2.9,-0.8 2.8,-0.7 2.9,-0.8 2.9,-0.7 2.9,-0.7 2.8,-0.7 2.9,-0.6 2.9,-0.7 2.8,-0.6 2.9,-0.6 2.9,-0.5 2.8,-0.5 2.9,-0.5 2.9,-0.5 2.9,-0.4 2.8,-0.4 2.9,-0.3 2.9,-0.3 2.8,-0.3 2.9,-0.3 2.9,-0.2 2.9,-0.1 2.8,-0.2 2.9,0 2.9,-0.1 2.8,0 2.9,0.1 2.9,0 2.9,0.2 2.8,0.1 2.9,0.2 2.9,0.3 2.8,0.3 2.8,0.3 2.9,0.4 2.8,0.4 2.9,0.5 2.9,0.5 2.9,0.6 2.8,0.6 2.9,0.7 2.9,0.7 2.8,0.7 2.9,0.8 2.9,0.8 2.9,0.9 2.8,0.9 2.9,1 2.9,1 2.8,1 2.9,1.1 2.9,1.1 2.9,1.2 2.8,1.2 2.9,1.2 2.9,1.3 2.8,1.3 2.9,1.4 2.9,1.4 2.8,1.4 2.9,1.5 2.9,1.5 2.9,1.5 2.8,1.5 2.9,1.6 2.9,1.6 2.8,1.7 2.9,1.6 2.9,1.7 2.9,1.7 2.8,1.8 2.9,1.7 2.9,1.8 2.8,1.8 2.9,1.8 2.9,1.8 2.9,1.9 2.8,1.8 2.9,1.9 m -277.1,-41.9 2.8,-0.9 2.9,-0.8 2.9,-0.9 2.8,-0.9 2.9,-0.9 2.9,-0.9 2.8,-0.9 2.9,-0.9 2.9,-0.9 2.9,-0.8 2.8,-0.9 2.9,-0.8 2.9,-0.8 2.8,-0.9 2.9,-0.7 2.9,-0.8 2.9,-0.8 2.8,-0.7 2.9,-0.8 2.9,-0.7 2.8,-0.6 2.9,-0.7 2.9,-0.6 2.9,-0.6 2.8,-0.6 2.9,-0.5 2.9,-0.5 2.8,-0.5 2.9,-0.4 2.9,-0.5 2.9,-0.3 2.8,-0.4 2.9,-0.3 2.9,-0.3 2.8,-0.2 2.9,-0.2 2.9,-0.1 2.8,-0.2 2.9,0 2.9,-0.1 2.9,0 2.8,0.1 2.9,0.1 2.9,0.1 2.8,0.2 2.9,0.2 2.9,0.3 2.9,0.3 2.8,0.3 2.9,0.4 2.8,0.4 2.8,0.5 2.9,0.6 2.9,0.5 2.9,0.7 2.8,0.6 2.9,0.7 2.9,0.8 2.8,0.8 2.9,0.8 2.9,0.9 2.8,0.9 2.9,1 2.9,1 2.9,1.1 2.8,1 2.9,1.2 2.9,1.2 2.8,1.2 2.9,1.2 2.9,1.3 2.9,1.3 2.8,1.4 2.9,1.4 2.9,1.4 2.8,1.5 2.9,1.5 2.9,1.5 2.9,1.6 2.8,1.6 2.9,1.6 2.9,1.6 2.8,1.7 2.9,1.7 2.9,1.7 2.8,1.7 2.9,1.8 2.9,1.8 2.9,1.8 2.8,1.8 2.9,1.8 2.9,1.9 2.8,1.8 2.9,1.9 2.9,1.9 2.9,1.9 2.8,1.9 2.9,1.9 2.9,1.9 m -277.2,-56.4 2.9,-0.9 2.9,-0.9 2.8,-0.9 2.9,-0.8 2.9,-0.9 2.9,-0.8 2.8,-0.9 2.9,-0.8 2.9,-0.8 2.8,-0.8 2.9,-0.8 2.9,-0.7 2.9,-0.8 2.8,-0.7 2.9,-0.7 2.9,-0.7 2.8,-0.6 2.9,-0.6 2.9,-0.6 2.8,-0.6 2.9,-0.5 2.9,-0.5 2.9,-0.5 2.8,-0.4 2.9,-0.4 2.9,-0.4 2.8,-0.3 2.9,-0.3 2.9,-0.3 2.9,-0.2 2.8,-0.2 2.9,-0.2 2.9,-0.1 2.8,0 2.9,-0.1 2.9,0 2.9,0.1 2.8,0.1 2.9,0.1 2.9,0.2 2.8,0.2 2.9,0.3 2.9,0.3 2.8,0.4 2.9,0.4 2.9,0.5 2.9,0.4 2.8,0.6 2.8,0.6 2.9,0.6 2.8,0.7 2.9,0.7 2.9,0.8 2.9,0.8 2.8,0.8 2.9,0.9 2.9,0.9 2.8,1 2.9,1 2.9,1.1 2.9,1.1 2.8,1.1 2.9,1.2 2.9,1.2 2.8,1.3 2.9,1.3 2.9,1.3 2.8,1.4 2.9,1.4 2.9,1.4 2.9,1.5 2.8,1.5 2.9,1.5 2.9,1.6 2.8,1.6 2.9,1.6 2.9,1.7 2.9,1.6 2.8,1.7 2.9,1.8 2.9,1.7 2.8,1.8 2.9,1.8 2.9,1.8 2.9,1.8 2.8,1.8 2.9,1.9 2.9,1.8 2.8,1.9 2.9,1.9 2.9,1.9 2.9,1.9 2.8,1.9 2.9,1.9 2.9,2 2.8,1.9 2.9,1.9 2.9,1.9 2.8,1.9 m -277.1,-71 2.9,-0.8 2.8,-0.8 2.9,-0.9 2.9,-0.8 2.9,-0.8 2.8,-0.7 2.9,-0.8 2.9,-0.7 2.8,-0.7 2.9,-0.7 2.9,-0.7 2.9,-0.6 2.8,-0.6 2.9,-0.6 2.9,-0.6 2.8,-0.5 2.9,-0.5 2.9,-0.5 2.9,-0.4 2.8,-0.4 2.9,-0.4 2.9,-0.3 2.8,-0.3 2.9,-0.3 2.9,-0.2 2.8,-0.2 2.9,-0.1 2.9,-0.1 2.9,-0.1 2.8,0 2.9,0.1 2.9,0 2.8,0.1 2.9,0.2 2.9,0.2 2.9,0.2 2.8,0.3 2.9,0.3 2.9,0.4 2.8,0.4 2.9,0.5 2.9,0.5 2.9,0.5 2.8,0.6 2.9,0.6 2.8,0.7 2.8,0.8 2.9,0.7 2.9,0.8 2.8,0.9 2.9,0.9 2.9,0.9 2.9,1 2.8,1.1 2.9,1 2.9,1.1 2.8,1.2 2.9,1.2 2.9,1.2 2.9,1.3 2.8,1.3 2.9,1.3 2.9,1.4 2.8,1.4 2.9,1.4 2.9,1.5 2.9,1.5 2.8,1.6 2.9,1.5 2.9,1.6 2.8,1.7 2.9,1.6 2.9,1.7 2.8,1.7 2.9,1.7 2.9,1.8 2.9,1.8 2.8,1.8 2.9,1.8 2.9,1.8 2.8,1.8 2.9,1.9 2.9,1.8 2.9,1.9 2.8,1.9 2.9,1.9 2.9,1.9 2.8,1.9 2.9,1.9 2.9,2 2.9,1.9 2.8,1.9 2.9,1.9 2.9,1.9 2.8,2 2.9,1.9 2.9,1.9 2.9,1.9 2.8,1.8 h 0.01"
         id="path156"
         style="stroke:#ffc0cb;stroke-opacity:1" />
      <path
         inkscape:connector-curvature="0"
         d="m 175.4,118.1 2.9,-0.8 2.8,-0.7 2.9,-0.8 2.9,-0.7 2.8,-0.7 2.9,-0.6 2.9,-0.7 2.8,-0.6 2.9,-0.5 2.9,-0.6 2.9,-0.5 2.8,-0.5 2.9,-0.5 2.9,-0.4 2.8,-0.4 2.9,-0.3 2.9,-0.4 2.9,-0.2 2.8,-0.3 2.9,-0.2 2.9,-0.2 2.8,-0.1 2.9,-0.1 2.9,-0.1 2.9,0 2.8,0.1 2.9,0 2.9,0.2 2.8,0.1 2.9,0.2 2.9,0.3 2.8,0.3 2.9,0.3 2.9,0.4 2.9,0.4 2.8,0.5 2.9,0.5 2.9,0.5 2.8,0.6 2.9,0.7 2.9,0.7 2.9,0.7 2.8,0.8 2.8,0.8 2.9,0.9 2.8,0.9 2.9,1 2.9,0.9 2.9,1.1 2.8,1.1 2.9,1.1 2.9,1.1 2.8,1.2 2.9,1.3 2.9,1.2 2.8,1.4 2.9,1.3 2.9,1.4 2.9,1.4 2.8,1.5 2.9,1.4 2.9,1.6 2.8,1.5 2.9,1.6 2.9,1.6 2.9,1.6 2.8,1.7 2.9,1.7 2.9,1.7 2.8,1.7 2.9,1.8 2.9,1.7 2.9,1.8 2.8,1.9 2.9,1.8 2.9,1.8 2.8,1.9 2.9,1.9 2.9,1.8 2.9,1.9 2.8,1.9 2.9,1.9 2.9,1.9 2.8,2 2.9,1.9 2.9,1.9 2.8,1.9 2.9,1.9 2.9,2 2.9,1.9 2.8,1.9 2.9,1.9 2.9,1.9 2.8,1.8 2.9,1.9 2.9,1.9 2.9,1.8 2.8,1.8 2.9,1.8 m -277.1,-98.5 2.8,-0.6 2.9,-0.7 2.9,-0.6 2.8,-0.6 2.9,-0.5 2.9,-0.5 2.9,-0.5 2.8,-0.5 2.9,-0.4 2.9,-0.4 2.8,-0.3 2.9,-0.3 2.9,-0.3 2.8,-0.2 2.9,-0.2 2.9,-0.2 2.9,-0.1 2.8,-0.1 2.9,-0.1 2.9,0 2.8,0.1 2.9,0.1 2.9,0.1 2.9,0.2 2.8,0.2 2.9,0.2 2.9,0.3 2.8,0.4 2.9,0.4 2.9,0.4 2.9,0.5 2.8,0.5 2.9,0.6 2.9,0.6 2.8,0.6 2.9,0.7 2.9,0.8 2.8,0.8 2.9,0.8 2.9,0.9 2.8,0.9 2.8,1 2.9,1 2.9,1 2.8,1.1 2.9,1.1 2.9,1.2 2.9,1.2 2.8,1.2 2.9,1.3 2.9,1.3 2.8,1.4 2.9,1.4 2.9,1.4 2.9,1.5 2.8,1.5 2.9,1.5 2.9,1.5 2.8,1.6 2.9,1.6 2.9,1.7 2.9,1.6 2.8,1.7 2.9,1.8 2.9,1.7 2.8,1.7 2.9,1.8 2.9,1.8 2.8,1.8 2.9,1.9 2.9,1.8 2.9,1.9 2.8,1.9 2.9,1.8 2.9,1.9 2.8,1.9 2.9,1.9 2.9,2 2.9,1.9 2.8,1.9 2.9,1.9 2.9,1.9 2.8,1.9 2.9,2 2.9,1.9 2.9,1.9 2.8,1.9 2.9,1.9 2.9,1.8 2.8,1.9 2.9,1.9 2.9,1.8 2.8,1.8 2.9,1.8 2.9,1.8 2.9,1.8 2.8,1.7 2.9,1.8 2.9,1.7 M 189.3,94.4 l 2.9,-0.5 2.9,-0.5 2.8,-0.4 2.9,-0.4 2.9,-0.4 2.9,-0.4 2.8,-0.3 2.9,-0.2 2.9,-0.3 2.8,-0.2 2.9,-0.1 2.9,-0.1 2.9,-0.1 2.8,0 2.9,0 2.9,0 2.8,0.1 2.9,0.1 2.9,0.2 2.8,0.2 2.9,0.3 2.9,0.3 2.9,0.4 2.8,0.4 2.9,0.4 2.9,0.5 2.8,0.5 2.9,0.6 2.9,0.6 2.9,0.7 2.8,0.7 2.9,0.8 2.9,0.8 2.8,0.8 2.9,0.9 2.9,0.9 2.9,1 2.8,1 2.8,1 2.9,1.1 2.8,1.2 2.9,1.2 2.9,1.2 2.8,1.2 2.9,1.3 2.9,1.3 2.9,1.4 2.8,1.4 2.9,1.4 2.9,1.5 2.8,1.5 2.9,1.5 2.9,1.6 2.9,1.6 2.8,1.6 2.9,1.6 2.9,1.7 2.8,1.7 2.9,1.7 2.9,1.8 2.9,1.7 2.8,1.8 2.9,1.8 2.9,1.8 2.8,1.9 2.9,1.8 2.9,1.9 2.9,1.9 2.8,1.8 2.9,1.9 2.9,1.9 2.8,1.9 2.9,2 2.9,1.9 2.8,1.9 2.9,1.9 2.9,1.9 2.9,2 2.8,1.9 2.9,1.9 2.9,1.9 2.8,1.9 2.9,1.9 2.9,1.8 2.9,1.9 2.8,1.9 2.9,1.8 2.9,1.8 2.8,1.8 2.9,1.8 2.9,1.8 2.9,1.7 2.8,1.7 2.9,1.7 2.9,1.7 2.8,1.7 2.9,1.6 2.9,1.6 2.8,1.5 M 196.3,83.7 l 2.9,-0.3 2.8,-0.3 2.9,-0.3 2.9,-0.2 2.9,-0.2 2.8,-0.1 2.9,-0.2 2.9,0 2.8,0 2.9,0 2.9,0 2.9,0.1 2.8,0.2 2.9,0.2 2.9,0.2 2.8,0.3 2.9,0.3 2.9,0.4 2.9,0.4 2.8,0.4 2.9,0.5 2.9,0.5 2.8,0.6 2.9,0.7 2.9,0.6 2.8,0.8 2.9,0.7 2.9,0.8 2.9,0.9 2.8,0.9 2.9,0.9 2.9,1 2.8,1 2.9,1.1 2.9,1.1 2.9,1.1 2.7,1.2 2.9,1.2 2.9,1.3 2.8,1.3 2.9,1.3 2.9,1.4 2.9,1.4 2.8,1.4 2.9,1.5 2.9,1.5 2.8,1.6 2.9,1.5 2.9,1.6 2.9,1.6 2.8,1.7 2.9,1.7 2.9,1.7 2.8,1.7 2.9,1.7 2.9,1.8 2.8,1.8 2.9,1.8 2.9,1.8 2.9,1.9 2.8,1.8 2.9,1.9 2.9,1.9 2.8,1.8 2.9,1.9 2.9,1.9 2.9,2 2.8,1.9 2.9,1.9 2.9,1.9 2.8,1.9 2.9,1.9 2.9,2 2.9,1.9 2.8,1.9 2.9,1.9 2.9,1.9 2.8,1.9 2.9,1.8 2.9,1.9 2.8,1.9 2.9,1.8 2.9,1.8 2.9,1.8 2.8,1.8 2.9,1.7 2.9,1.8 2.8,1.7 2.9,1.7 2.9,1.7 2.9,1.6 2.8,1.6 2.9,1.6 2.9,1.6 2.8,1.5 2.9,1.5 2.9,1.4 2.9,1.5 2.8,1.4 M 203.3,74 l 2.9,-0.2 2.8,-0.1 2.9,0 2.9,0 2.8,0 2.9,0.1 2.9,0.1 2.8,0.1 2.9,0.2 2.9,0.3 2.9,0.2 2.8,0.4 2.9,0.3 2.9,0.5 2.8,0.4 2.9,0.5 2.9,0.6 2.9,0.6 2.8,0.6 2.9,0.7 2.9,0.7 2.8,0.8 2.9,0.8 2.9,0.9 2.9,0.9 2.8,0.9 2.9,1 2.9,1 2.8,1.1 2.9,1.1 2.9,1.2 2.8,1.2 2.9,1.2 2.8,1.3 2.9,1.3 2.8,1.3 2.9,1.4 2.9,1.4 2.8,1.5 2.9,1.4 2.9,1.5 2.9,1.6 2.8,1.6 2.9,1.6 2.9,1.6 2.8,1.7 2.9,1.6 2.9,1.7 2.9,1.8 2.8,1.7 2.9,1.8 2.9,1.8 2.8,1.8 2.9,1.8 2.9,1.9 2.9,1.8 2.8,1.9 2.9,1.9 2.9,1.9 2.8,1.8 2.9,2 2.9,1.9 2.8,1.9 2.9,1.9 2.9,1.9 2.9,1.9 2.8,2 2.9,1.9 2.9,1.9 2.8,1.9 2.9,1.9 2.9,1.9 2.9,1.9 2.8,1.8 2.9,1.9 2.9,1.8 2.8,1.9 2.9,1.8 2.9,1.8 2.9,1.8 2.8,1.7 2.9,1.8 2.9,1.7 2.8,1.7 2.9,1.6 2.9,1.7 2.8,1.6 2.9,1.5 2.9,1.6 2.9,1.5 2.8,1.5 2.9,1.5 2.9,1.4 2.8,1.4 2.9,1.3 2.9,1.3 2.9,1.3 2.8,1.3 2.9,1.2 M 210.3,65.3 l 2.8,0.1 2.9,0.1 2.9,0.2 2.8,0.2 2.9,0.2 2.9,0.3 2.9,0.3 2.8,0.4 2.9,0.5 2.9,0.4 2.8,0.5 2.9,0.6 2.9,0.6 2.8,0.7 2.9,0.7 2.9,0.7 2.9,0.8 2.8,0.8 2.9,0.9 2.9,0.9 2.8,0.9 2.9,1 2.9,1.1 2.9,1.1 2.8,1.1 2.9,1.1 2.9,1.2 2.8,1.3 2.9,1.2 2.9,1.4 2.9,1.3 2.7,1.4 2.9,1.4 2.9,1.5 2.8,1.5 2.9,1.5 2.9,1.5 2.9,1.6 2.8,1.6 2.9,1.6 2.9,1.7 2.8,1.7 2.9,1.7 2.9,1.7 2.8,1.8 2.9,1.8 2.9,1.8 2.9,1.8 2.8,1.8 2.9,1.9 2.9,1.8 2.8,1.9 2.9,1.9 2.9,1.9 2.9,1.9 2.8,1.9 2.9,1.9 2.9,1.9 2.8,1.9 2.9,1.9 2.9,2 2.9,1.9 2.8,1.9 2.9,1.9 2.9,1.9 2.8,1.9 2.9,1.9 2.9,1.9 2.8,1.8 2.9,1.9 2.9,1.8 2.9,1.9 2.8,1.8 2.9,1.8 2.9,1.7 2.8,1.8 2.9,1.7 2.9,1.7 2.9,1.7 2.8,1.7 2.9,1.6 2.9,1.6 2.8,1.6 2.9,1.5 2.9,1.5 2.9,1.5 2.8,1.5 2.9,1.4 2.9,1.4 2.8,1.3 2.9,1.3 2.9,1.3 2.8,1.2 2.9,1.2 2.9,1.2 2.9,1.1 2.8,1.1 2.9,1 2.9,1 h 0.01"
         id="path158"
         style="stroke:#ffc0cb;stroke-opacity:1" />
      <path
         inkscape:connector-curvature="0"
         d="m 217.2,57.8 2.9,0.3 2.9,0.3 2.8,0.4 2.9,0.5 2.9,0.4 2.9,0.6 2.8,0.5 2.9,0.6 2.9,0.7 2.8,0.7 2.9,0.8 2.9,0.7 2.9,0.9 2.8,0.9 2.9,0.9 2.9,0.9 2.8,1.1 2.9,1 2.9,1.1 2.8,1.1 2.9,1.2 2.9,1.2 2.9,1.2 2.8,1.3 2.9,1.4 2.9,1.3 2.8,1.4 2.9,1.4 2.8,1.5 2.9,1.5 2.8,1.5 2.9,1.6 2.9,1.5 2.8,1.7 2.9,1.6 2.9,1.7 2.9,1.7 2.8,1.7 2.9,1.7 2.9,1.8 2.8,1.8 2.9,1.8 2.9,1.8 2.9,1.8 2.8,1.9 2.9,1.8 2.9,1.9 2.8,1.9 2.9,1.9 2.9,1.9 2.8,1.9 2.9,1.9 2.9,1.9 2.9,1.9 2.8,1.9 2.9,2 2.9,1.9 2.8,1.9 2.9,1.9 2.9,1.9 2.9,1.9 2.8,1.9 2.9,1.9 2.9,1.8 2.8,1.9 2.9,1.8 2.9,1.9 2.9,1.8 2.8,1.7 2.9,1.8 2.9,1.8 2.8,1.7 2.9,1.7 2.9,1.7 2.8,1.6 2.9,1.6 2.9,1.6 2.9,1.6 2.8,1.5 2.9,1.6 2.9,1.4 2.8,1.5 2.9,1.4 2.9,1.4 2.9,1.3 2.8,1.3 2.9,1.3 2.9,1.2 2.8,1.2 2.9,1.1 2.9,1.1 2.9,1.1 2.8,1 2.9,1 2.9,0.9 2.8,0.9 2.9,0.9 2.9,0.8 2.9,0.8 M 224.2,51.5 l 2.9,0.5 2.8,0.6 2.9,0.6 2.9,0.7 2.9,0.7 2.8,0.7 2.9,0.8 2.9,0.9 2.8,0.9 2.9,0.9 2.9,1 2.9,1 2.8,1 2.9,1.1 2.9,1.2 2.8,1.1 2.9,1.3 2.9,1.2 2.9,1.3 2.8,1.3 2.9,1.4 2.9,1.4 2.8,1.4 2.9,1.5 2.9,1.5 2.9,1.5 2.7,1.6 2.9,1.6 2.9,1.6 2.8,1.7 2.9,1.6 2.9,1.7 2.8,1.7 2.9,1.8 2.9,1.8 2.9,1.7 2.8,1.8 2.9,1.9 2.9,1.8 2.8,1.8 2.9,1.9 2.9,1.9 2.9,1.9 2.8,1.9 2.9,1.9 2.9,1.9 2.8,1.9 2.9,1.9 2.9,1.9 2.9,2 2.8,1.9 2.9,1.9 2.9,1.9 2.8,1.9 2.9,1.9 2.9,1.9 2.8,1.9 2.9,1.9 2.9,1.8 2.9,1.9 2.8,1.8 2.9,1.8 2.9,1.8 2.8,1.8 2.9,1.8 2.9,1.7 2.9,1.8 2.8,1.7 2.9,1.6 2.9,1.7 2.8,1.6 2.9,1.6 2.9,1.5 2.9,1.6 2.8,1.5 2.9,1.4 2.9,1.5 2.8,1.4 2.9,1.3 2.9,1.4 2.8,1.3 2.9,1.2 2.9,1.2 2.9,1.2 2.8,1.2 2.9,1 2.9,1.1 2.8,1 2.9,1 2.9,0.9 2.9,0.9 2.8,0.9 2.9,0.8 2.9,0.7 2.8,0.7 2.9,0.7 2.9,0.6 2.9,0.6 2.8,0.5 m -416.6,58 1.3,-1.1 1.4,-1.2 1.3,-1.2 1.3,-1.3 1.4,-1.3 1.3,-1.3 1.3,-1.4 1.4,-1.4 1.3,-1.5 1.4,-1.5 1.3,-1.6 1.3,-1.6 1.4,-1.5 1.3,-1.7 1.4,-1.7 1.3,-1.8 1.3,-1.8 1.4,-1.8 1.3,-1.9 1.3,-1.9 1.4,-2 1.3,-2 1.4,-2 1.3,-2.1 1.3,-2 1.4,-2.2 1.3,-2.1 1.4,-2.2 1.3,-2.2 1.3,-2.2 1.4,-2.3 1.3,-2.3 1.4,-2.3 1.3,-2.3 1.3,-2.3 1.4,-2.4 1.3,-2.4 1.3,-2.4 1.4,-2.4 1.3,-2.5 1.4,-2.4 1.3,-2.5 1.3,-2.5 1.4,-2.4 1.3,-2.5 1.4,-2.5 1.3,-2.5 1.3,-2.5 1.4,-2.5 1.3,-2.5 1.3,-2.5 1.4,-2.5 1.3,-2.5 1.4,-2.5 1.3,-2.5 1.3,-2.5 1.4,-2.5 1.3,-2.5 1.4,-2.4 1.3,-2.4 1.3,-2.5 1.4,-2.4 1.3,-2.4 1.4,-2.3 1.3,-2.4 1.3,-2.3 1.4,-2.3 1.3,-2.3 1.3,-2.3 1.4,-2.2 1.3,-2.2 1.4,-2.2 1.3,-2.1 1.3,-2.1 1.4,-2.1 1.3,-2.1 1.4,-2 1.3,-2 1.3,-1.9 1.4,-1.9 1.3,-1.9 1.3,-1.9 1.4,-1.8 1.3,-1.7 1.4,-1.8 1.3,-1.6 1.3,-1.7 1.4,-1.6 1.3,-1.5 1.4,-1.6 1.3,-1.4 1.3,-1.5 1.4,-1.4 1.3,-1.3 1.4,-1.3 1.3,-1.3 1.3,-1.2 1.4,-1.1 1.3,-1.1 m -117.6,199.4 1.4,-1.3 1.3,-1.4 1.3,-1.4 1.4,-1.5 1.3,-1.6 1.4,-1.5 1.3,-1.6 1.3,-1.7 1.4,-1.7 1.3,-1.7 1.4,-1.8 1.3,-1.8 1.3,-1.7 1.4,-1.9 1.3,-2 1.4,-1.9 1.3,-2 1.3,-2 1.4,-2.1 1.3,-2.1 1.3,-2.1 1.4,-2.2 1.3,-2.1 1.4,-2.3 1.3,-2.2 1.3,-2.3 1.4,-2.3 1.3,-2.3 1.4,-2.3 1.3,-2.4 1.3,-2.3 1.4,-2.4 1.3,-2.4 1.3,-2.5 1.4,-2.4 1.3,-2.4 1.4,-2.5 1.3,-2.5 1.3,-2.5 1.4,-2.5 1.3,-2.5 1.4,-2.5 1.3,-2.5 1.3,-2.5 1.4,-2.5 1.3,-2.5 1.4,-2.5 1.3,-2.5 1.3,-2.5 1.4,-2.5 1.3,-2.4 1.3,-2.5 1.4,-2.5 1.3,-2.4 1.4,-2.5 1.3,-2.4 1.3,-2.4 1.4,-2.4 1.3,-2.3 1.4,-2.4 1.3,-2.3 1.3,-2.3 1.4,-2.3 1.3,-2.2 1.3,-2.3 1.4,-2.2 1.3,-2.1 1.4,-2.2 1.3,-2.1 1.3,-2.1 1.4,-2 1.3,-2 1.4,-2 1.3,-1.9 1.3,-2 1.4,-1.8 1.3,-1.9 1.4,-1.8 1.3,-1.7 1.3,-1.7 1.4,-1.7 1.3,-1.6 1.3,-1.6 1.4,-1.6 1.3,-1.5 1.4,-1.4 1.3,-1.5 1.3,-1.3 1.4,-1.4 1.3,-1.3 1.4,-1.2 1.3,-1.2 1.3,-1.2 1.4,-1.1 1.3,-1.1 1.4,-1 1.3,-1 1.3,-0.9 1.4,-0.9 m -117.6,197.1 1.3,-1.6 1.4,-1.6 1.3,-1.6 1.3,-1.7 1.4,-1.8 1.3,-1.8 1.4,-1.8 1.3,-1.8 1.3,-1.9 1.4,-2 1.3,-1.9 1.4,-1.9 1.3,-2.1 1.3,-2 1.4,-2.1 1.3,-2.2 1.4,-2.1 1.3,-2.2 1.3,-2.2 1.4,-2.3 1.3,-2.2 1.3,-2.3 1.4,-2.4 1.3,-2.3 1.4,-2.4 1.3,-2.3 1.3,-2.4 1.4,-2.4 1.3,-2.5 1.4,-2.4 1.3,-2.5 1.3,-2.4 1.4,-2.5 1.3,-2.5 1.3,-2.5 1.4,-2.5 1.3,-2.5 1.4,-2.5 1.3,-2.5 1.3,-2.5 1.4,-2.5 1.3,-2.5 1.4,-2.5 1.3,-2.5 1.3,-2.5 1.4,-2.5 1.3,-2.4 1.4,-2.5 1.3,-2.4 1.3,-2.5 1.4,-2.4 1.3,-2.4 1.3,-2.4 1.4,-2.3 1.3,-2.4 1.4,-2.3 1.3,-2.3 1.3,-2.3 1.4,-2.2 1.3,-2.2 1.4,-2.2 1.3,-2.2 1.3,-2.1 1.4,-2.1 1.3,-2.1 1.3,-2 1.4,-2 1.3,-2 1.4,-2 1.3,-1.9 1.3,-1.8 1.4,-1.8 1.3,-1.8 1.4,-1.8 1.3,-1.7 1.3,-1.7 1.4,-1.6 1.3,-1.6 1.4,-1.5 1.3,-1.5 1.3,-1.5 1.4,-1.4 1.3,-1.3 1.3,-1.4 1.4,-1.2 1.3,-1.3 1.4,-1.2 1.3,-1.1 1.3,-1.1 1.4,-1.1 1.3,-1 1.4,-1 1.3,-0.9 1.3,-0.9 1.4,-0.8 1.3,-0.8 1.3,-0.7 1.4,-0.7 1.3,-0.7 m -117.5,192.3 1.3,-1.8 1.3,-1.8 1.4,-1.8 1.3,-1.9 1.3,-2 1.4,-2 1.3,-2 1.4,-2 1.3,-2.1 1.3,-2.1 1.4,-2 1.3,-2.2 1.4,-2.2 1.3,-2.2 1.3,-2.3 1.4,-2.2 1.3,-2.3 1.3,-2.4 1.4,-2.3 1.3,-2.4 1.4,-2.3 1.3,-2.4 1.3,-2.5 1.4,-2.4 1.3,-2.4 1.4,-2.5 1.3,-2.5 1.3,-2.4 1.4,-2.5 1.3,-2.5 1.4,-2.5 1.3,-2.5 1.3,-2.5 1.4,-2.5 1.3,-2.5 1.3,-2.5 1.4,-2.5 1.3,-2.5 1.4,-2.5 1.3,-2.5 1.3,-2.5 1.4,-2.5 1.3,-2.4 1.4,-2.5 1.3,-2.4 1.3,-2.4 1.4,-2.4 1.3,-2.4 1.3,-2.3 1.4,-2.4 1.3,-2.3 1.4,-2.3 1.3,-2.2 1.3,-2.3 1.4,-2.2 1.3,-2.2 1.4,-2.1 1.3,-2.2 1.3,-2.1 1.4,-2 1.3,-2.1 1.4,-2 1.3,-1.9 1.3,-2 1.4,-1.9 1.3,-1.8 1.3,-1.8 1.4,-1.8 1.3,-1.7 1.4,-1.7 1.3,-1.7 1.3,-1.6 1.4,-1.6 1.3,-1.5 1.4,-1.5 1.3,-1.5 1.3,-1.4 1.4,-1.3 1.3,-1.3 1.3,-1.3 1.4,-1.2 1.3,-1.2 1.4,-1.2 1.3,-1.1 1.3,-1 1.4,-1 1.3,-1 1.4,-0.9 1.3,-0.8 1.3,-0.9 1.4,-0.8 1.3,-0.7 1.4,-0.7 1.3,-0.6 1.3,-0.7 1.4,-0.5 1.3,-0.6 1.3,-0.4 1.4,-0.5 h 0.01"
         id="path160"
         style="stroke:#ffc0cb;stroke-opacity:1" />
      <path
         inkscape:connector-curvature="0"
         d="m 151.5,250.2 1.3,-2 1.4,-2 1.3,-2.1 1.4,-2 1.3,-2.1 1.3,-2.2 1.4,-2.2 1.3,-2.2 1.4,-2.2 1.3,-2.1 1.3,-2.3 1.4,-2.3 1.3,-2.4 1.4,-2.3 1.3,-2.4 1.3,-2.4 1.4,-2.4 1.3,-2.4 1.3,-2.4 1.4,-2.5 1.3,-2.4 1.4,-2.5 1.3,-2.5 1.3,-2.5 1.4,-2.5 1.3,-2.5 1.4,-2.5 1.3,-2.5 1.3,-2.5 1.4,-2.5 1.3,-2.5 1.3,-2.5 1.4,-2.5 1.3,-2.5 1.4,-2.5 1.3,-2.4 1.3,-2.5 1.4,-2.4 1.3,-2.5 1.4,-2.4 1.3,-2.4 1.3,-2.4 1.4,-2.4 1.3,-2.3 1.4,-2.4 1.3,-2.3 1.3,-2.3 1.4,-2.2 1.3,-2.3 1.3,-2.2 1.4,-2.2 1.3,-2.1 1.4,-2.1 1.3,-2.1 1.3,-2.1 1.4,-2 1.3,-2 1.4,-2 1.3,-1.9 1.3,-1.9 1.4,-1.8 1.3,-1.8 1.3,-1.8 1.4,-1.7 1.3,-1.7 1.4,-1.7 1.3,-1.6 1.3,-1.5 1.4,-1.6 1.3,-1.4 1.4,-1.5 1.3,-1.4 1.3,-1.3 1.4,-1.3 1.3,-1.3 1.4,-1.2 1.3,-1.2 1.3,-1.1 1.4,-1.1 1.3,-1 1.3,-1 1.4,-1 1.3,-0.9 1.4,-0.8 1.3,-0.8 1.3,-0.8 1.4,-0.8 1.3,-0.6 1.4,-0.7 1.3,-0.6 1.3,-0.5 1.4,-0.6 1.3,-0.4 1.3,-0.5 1.4,-0.4 1.3,-0.3 1.4,-0.4 1.3,-0.3 1.3,-0.2 m -117.5,176.4 1.3,-2.1 1.3,-2.2 1.4,-2.2 1.3,-2.3 1.4,-2.2 1.3,-2.3 1.3,-2.3 1.4,-2.3 1.3,-2.3 1.4,-2.4 1.3,-2.4 1.3,-2.4 1.4,-2.4 1.3,-2.4 1.3,-2.5 1.4,-2.4 1.3,-2.5 1.4,-2.5 1.3,-2.5 1.3,-2.5 1.4,-2.5 1.3,-2.5 1.4,-2.5 1.3,-2.5 1.3,-2.5 1.4,-2.5 1.3,-2.5 1.4,-2.5 1.3,-2.5 1.3,-2.5 1.4,-2.5 1.3,-2.4 1.3,-2.5 1.4,-2.4 1.3,-2.4 1.4,-2.4 1.3,-2.4 1.3,-2.4 1.4,-2.3 1.3,-2.4 1.4,-2.3 1.3,-2.2 1.3,-2.3 1.4,-2.2 1.3,-2.2 1.3,-2.2 1.4,-2.2 1.3,-2.1 1.4,-2.1 1.3,-2 1.3,-2 1.4,-2 1.3,-2 1.4,-1.9 1.3,-1.9 1.3,-1.8 1.4,-1.8 1.3,-1.8 1.4,-1.7 1.3,-1.7 1.3,-1.6 1.4,-1.6 1.3,-1.6 1.3,-1.5 1.4,-1.4 1.3,-1.5 1.4,-1.4 1.3,-1.3 1.3,-1.3 1.4,-1.2 1.3,-1.3 1.4,-1.1 1.3,-1.1 1.3,-1.1 1.4,-1 1.3,-1 1.3,-1 1.4,-0.9 1.3,-0.8 1.4,-0.8 1.3,-0.8 1.3,-0.7 1.4,-0.7 1.3,-0.6 1.4,-0.6 1.3,-0.6 1.3,-0.5 1.4,-0.4 1.3,-0.5 1.4,-0.4 1.3,-0.3 1.3,-0.3 1.4,-0.3 1.3,-0.3 1.3,-0.2 1.4,-0.2 1.3,-0.1 1.4,-0.1 1.3,-0.1 m -117.6,165.7 1.4,-2.3 1.3,-2.3 1.3,-2.4 1.4,-2.3 1.3,-2.4 1.4,-2.3 1.3,-2.4 1.3,-2.4 1.4,-2.5 1.3,-2.4 1.4,-2.5 1.3,-2.4 1.3,-2.5 1.4,-2.5 1.3,-2.5 1.3,-2.5 1.4,-2.5 1.3,-2.5 1.4,-2.5 1.3,-2.5 1.3,-2.5 1.4,-2.5 1.3,-2.5 1.4,-2.5 1.3,-2.5 1.3,-2.5 1.4,-2.4 1.3,-2.5 1.4,-2.4 1.3,-2.4 1.3,-2.4 1.4,-2.4 1.3,-2.4 1.3,-2.3 1.4,-2.4 1.3,-2.3 1.4,-2.2 1.3,-2.3 1.3,-2.2 1.4,-2.2 1.3,-2.2 1.4,-2.1 1.3,-2.1 1.3,-2.1 1.4,-2 1.3,-2.1 1.3,-1.9 1.4,-2 1.3,-1.9 1.4,-1.9 1.3,-1.8 1.3,-1.8 1.4,-1.7 1.3,-1.7 1.4,-1.7 1.3,-1.7 1.3,-1.5 1.4,-1.6 1.3,-1.5 1.4,-1.5 1.3,-1.4 1.3,-1.4 1.4,-1.3 1.3,-1.3 1.3,-1.2 1.4,-1.2 1.3,-1.2 1.4,-1.1 1.3,-1 1.3,-1.1 1.4,-0.9 1.3,-1 1.4,-0.9 1.3,-0.8 1.3,-0.8 1.4,-0.7 1.3,-0.8 1.3,-0.6 1.4,-0.7 1.3,-0.5 1.4,-0.6 1.3,-0.5 1.3,-0.5 1.4,-0.4 1.3,-0.4 1.4,-0.3 1.3,-0.3 1.3,-0.3 1.3,-0.2 1.3,-0.2 1.4,-0.2 1.3,-0.1 1.3,-0.1 1.4,-0.1 1.3,0 1.3,-0.1 1.4,0.1 1.3,0 1.4,0.1 M 196.4,241 l 1.3,-2.4 1.4,-2.4 1.3,-2.4 1.3,-2.5 1.4,-2.3 1.3,-2.5 1.4,-2.5 1.3,-2.5 1.3,-2.5 1.4,-2.5 1.3,-2.5 1.4,-2.5 1.3,-2.5 1.3,-2.5 1.4,-2.5 1.3,-2.5 1.3,-2.5 1.4,-2.5 1.3,-2.5 1.4,-2.4 1.3,-2.5 1.3,-2.5 1.4,-2.4 1.3,-2.4 1.4,-2.4 1.3,-2.4 1.3,-2.4 1.4,-2.4 1.3,-2.3 1.3,-2.3 1.4,-2.3 1.3,-2.3 1.4,-2.3 1.3,-2.2 1.3,-2.2 1.4,-2.1 1.3,-2.2 1.4,-2.1 1.3,-2 1.3,-2.1 1.4,-2 1.3,-2 1.4,-1.9 1.3,-1.9 1.3,-1.9 1.4,-1.8 1.3,-1.8 1.3,-1.7 1.4,-1.7 1.3,-1.7 1.4,-1.6 1.3,-1.6 1.3,-1.5 1.4,-1.5 1.3,-1.5 1.4,-1.4 1.3,-1.3 1.3,-1.4 1.4,-1.2 1.3,-1.3 1.3,-1.2 1.4,-1.1 1.3,-1.1 1.4,-1.1 1.3,-1 1.3,-0.9 1.4,-1 1.3,-0.8 1.4,-0.9 1.3,-0.8 1.3,-0.7 1.4,-0.7 1.3,-0.7 1.4,-0.6 1.3,-0.6 1.3,-0.5 1.4,-0.5 1.2,-0.4 1.3,-0.5 1.4,-0.3 1.3,-0.4 1.4,-0.3 1.3,-0.2 1.3,-0.3 1.4,-0.2 1.3,-0.1 1.4,-0.2 1.3,-0.1 1.3,0 1.4,-0.1 1.3,0 1.3,0.1 1.4,0 1.3,0.1 1.4,0.1 1.3,0.1 1.3,0.1 1.4,0.2 1.3,0.2 m -117.5,140 1.4,-2.4 1.3,-2.5 1.4,-2.4 1.3,-2.5 1.3,-2.5 1.4,-2.5 1.3,-2.5 1.4,-2.5 1.3,-2.5 1.3,-2.5 1.4,-2.5 1.3,-2.5 1.3,-2.5 1.4,-2.5 1.3,-2.5 1.4,-2.4 1.3,-2.5 1.3,-2.4 1.4,-2.4 1.3,-2.5 1.4,-2.4 1.3,-2.3 1.3,-2.4 1.4,-2.3 1.3,-2.3 1.4,-2.3 1.3,-2.3 1.3,-2.2 1.4,-2.2 1.3,-2.2 1.3,-2.2 1.4,-2.1 1.3,-2.1 1.4,-2.1 1.3,-2 1.3,-2 1.4,-2 1.3,-1.9 1.4,-1.9 1.3,-1.8 1.3,-1.9 1.4,-1.7 1.3,-1.8 1.3,-1.7 1.4,-1.6 1.3,-1.6 1.4,-1.6 1.3,-1.5 1.3,-1.5 1.4,-1.5 1.3,-1.4 1.4,-1.3 1.3,-1.3 1.3,-1.3 1.4,-1.2 1.3,-1.2 1.4,-1.2 1.3,-1 1.3,-1.1 1.4,-1 1.3,-0.9 1.3,-1 1.4,-0.8 1.3,-0.8 1.4,-0.8 1.3,-0.8 1.2,-0.7 1.4,-0.6 1.3,-0.6 1.4,-0.6 1.3,-0.5 1.3,-0.5 1.4,-0.4 1.3,-0.5 1.3,-0.3 1.4,-0.4 1.3,-0.2 1.4,-0.3 1.3,-0.2 1.3,-0.2 1.4,-0.2 1.3,-0.1 1.4,-0.1 1.3,0 1.3,-0.1 1.4,0 1.3,0.1 1.4,0 1.3,0.1 1.3,0.1 1.4,0.1 1.3,0.2 1.3,0.1 1.4,0.2 1.3,0.2 1.4,0.2 1.3,0.3 1.3,0.2 1.4,0.3 m -117.5,125.9 1.3,-2.4 1.4,-2.5 1.3,-2.5 1.4,-2.5 1.3,-2.5 1.3,-2.5 1.4,-2.5 1.3,-2.5 1.4,-2.5 1.3,-2.5 1.3,-2.5 1.4,-2.4 1.3,-2.4 1.3,-2.5 1.4,-2.4 1.3,-2.4 1.4,-2.3 1.3,-2.4 1.3,-2.3 1.4,-2.3 1.3,-2.3 1.4,-2.3 1.3,-2.2 1.3,-2.2 1.4,-2.2 1.3,-2.2 1.3,-2.1 1.4,-2.1 1.3,-2 1.4,-2 1.3,-2 1.3,-2 1.4,-1.9 1.3,-1.9 1.4,-1.8 1.3,-1.8 1.3,-1.8 1.4,-1.7 1.3,-1.7 1.4,-1.7 1.3,-1.6 1.3,-1.5 1.4,-1.6 1.3,-1.4 1.3,-1.5 1.4,-1.4 1.3,-1.3 1.4,-1.3 1.3,-1.3 1.3,-1.2 1.4,-1.2 1.3,-1.1 1.4,-1.1 1.3,-1 1.3,-1 1.3,-0.9 1.3,-0.9 1.3,-0.9 1.4,-0.8 1.3,-0.8 1.4,-0.7 1.3,-0.7 1.3,-0.6 1.4,-0.6 1.3,-0.6 1.4,-0.5 1.3,-0.5 1.3,-0.4 1.4,-0.4 1.3,-0.4 1.4,-0.3 1.3,-0.3 1.3,-0.3 1.4,-0.2 1.3,-0.2 1.3,-0.1 1.4,-0.1 1.3,-0.1 1.4,0 1.3,-0.1 1.3,0 1.4,0.1 1.3,0 1.4,0.1 1.3,0.1 1.3,0.1 1.4,0.2 1.3,0.2 1.3,0.2 1.4,0.2 1.3,0.2 1.4,0.2 1.3,0.3 1.3,0.2 1.4,0.3 1.3,0.3 1.4,0.3 1.3,0.3 1.3,0.3 h 0.01"
         id="path162"
         style="stroke:#ffc0cb;stroke-opacity:1" />
      <path
         inkscape:connector-curvature="0"
         d="m 241.3,227.6 1.3,-2.5 1.3,-2.5 1.4,-2.5 1.3,-2.4 1.4,-2.5 1.3,-2.5 1.3,-2.4 1.4,-2.5 1.3,-2.4 1.4,-2.4 1.3,-2.4 1.3,-2.3 1.4,-2.4 1.3,-2.3 1.3,-2.3 1.4,-2.3 1.3,-2.3 1.4,-2.2 1.3,-2.2 1.3,-2.2 1.4,-2.1 1.3,-2.1 1.4,-2.1 1.3,-2.1 1.3,-2 1.4,-2 1.3,-1.9 1.3,-1.9 1.4,-1.9 1.3,-1.8 1.4,-1.8 1.3,-1.8 1.3,-1.7 1.4,-1.7 1.3,-1.6 1.4,-1.6 1.3,-1.6 1.3,-1.5 1.4,-1.5 1.3,-1.4 1.4,-1.4 1.3,-1.3 1.3,-1.3 1.3,-1.2 1.3,-1.3 1.3,-1.1 1.4,-1.1 1.3,-1.1 1.4,-1 1.3,-1 1.3,-0.9 1.4,-0.9 1.3,-0.9 1.4,-0.8 1.3,-0.8 1.3,-0.7 1.4,-0.7 1.3,-0.6 1.3,-0.6 1.4,-0.5 1.3,-0.5 1.4,-0.5 1.3,-0.4 1.3,-0.4 1.4,-0.4 1.3,-0.3 1.4,-0.3 1.3,-0.2 1.3,-0.2 1.4,-0.2 1.3,-0.1 1.4,-0.1 1.3,-0.1 1.3,-0.1 1.4,0 1.3,0 1.3,0.1 1.4,0 1.3,0.1 1.4,0.1 1.3,0.2 1.3,0.1 1.4,0.2 1.3,0.2 1.4,0.2 1.3,0.2 1.3,0.3 1.4,0.2 1.3,0.3 1.3,0.3 1.4,0.3 1.3,0.2 1.4,0.3 1.3,0.4 1.3,0.3 1.4,0.3 1.3,0.3 1.4,0.3 1.3,0.3 m -117.5,96.9 1.4,-2.5 1.3,-2.4 1.3,-2.5 1.4,-2.4 1.3,-2.4 1.4,-2.4 1.3,-2.3 1.3,-2.4 1.4,-2.3 1.3,-2.3 1.3,-2.3 1.4,-2.2 1.3,-2.3 1.4,-2.2 1.3,-2.1 1.3,-2.2 1.4,-2.1 1.3,-2 1.4,-2.1 1.3,-2 1.3,-2 1.4,-1.9 1.3,-1.9 1.4,-1.9 1.3,-1.8 1.3,-1.8 1.4,-1.8 1.3,-1.7 1.3,-1.6 1.4,-1.7 1.3,-1.6 1.4,-1.5 1.2,-1.5 1.3,-1.5 1.4,-1.4 1.3,-1.4 1.4,-1.3 1.3,-1.3 1.3,-1.2 1.4,-1.2 1.3,-1.2 1.3,-1.1 1.4,-1 1.3,-1 1.4,-1 1.3,-0.9 1.3,-0.9 1.4,-0.9 1.3,-0.8 1.4,-0.7 1.3,-0.7 1.3,-0.7 1.4,-0.6 1.3,-0.6 1.4,-0.5 1.3,-0.5 1.3,-0.5 1.4,-0.4 1.3,-0.4 1.3,-0.4 1.4,-0.3 1.3,-0.2 1.4,-0.3 1.3,-0.2 1.3,-0.1 1.4,-0.2 1.3,-0.1 1.4,0 1.3,-0.1 1.3,0 1.4,0 1.3,0.1 1.3,0 1.4,0.1 1.3,0.2 1.4,0.1 1.3,0.2 1.3,0.1 1.4,0.2 1.3,0.2 1.4,0.3 1.3,0.2 1.3,0.3 1.4,0.2 1.3,0.3 1.4,0.3 1.3,0.3 1.3,0.3 1.4,0.3 1.3,0.3 1.3,0.3 1.4,0.3 1.3,0.3 1.4,0.3 1.3,0.4 1.3,0.2 1.4,0.3 1.3,0.3 1.4,0.3 m -117.5,82.7 1.3,-2.4 1.4,-2.3 1.3,-2.4 1.3,-2.3 1.4,-2.3 1.3,-2.3 1.4,-2.2 1.3,-2.2 1.3,-2.2 1.4,-2.2 1.3,-2.1 1.3,-2.1 1.4,-2.1 1.3,-2 1.4,-2 1.3,-2 1.3,-1.9 1.4,-1.9 1.3,-1.9 1.4,-1.8 1.3,-1.8 1.2,-1.7 1.4,-1.7 1.3,-1.7 1.3,-1.6 1.4,-1.6 1.3,-1.5 1.4,-1.5 1.3,-1.5 1.3,-1.4 1.4,-1.3 1.3,-1.4 1.4,-1.2 1.3,-1.3 1.3,-1.2 1.4,-1.1 1.3,-1.1 1.4,-1.1 1.3,-1 1.3,-0.9 1.4,-0.9 1.3,-0.9 1.3,-0.8 1.4,-0.8 1.3,-0.8 1.4,-0.7 1.3,-0.6 1.3,-0.7 1.4,-0.5 1.3,-0.6 1.4,-0.5 1.3,-0.4 1.3,-0.4 1.4,-0.4 1.3,-0.3 1.3,-0.3 1.4,-0.3 1.3,-0.2 1.4,-0.2 1.3,-0.2 1.3,-0.1 1.4,-0.1 1.3,-0.1 1.4,0 1.3,0 1.3,0 1.4,0.1 1.3,0.1 1.4,0.1 1.3,0.1 1.3,0.1 1.4,0.2 1.3,0.2 1.3,0.2 1.4,0.2 1.3,0.2 1.4,0.3 1.3,0.2 1.3,0.3 1.4,0.3 1.3,0.3 1.4,0.3 1.3,0.3 1.3,0.3 1.4,0.3 1.3,0.3 1.3,0.3 1.4,0.3 1.3,0.3 1.4,0.3 1.3,0.3 1.3,0.3 1.4,0.3 1.3,0.2 1.4,0.3 1.3,0.2 1.3,0.3 1.4,0.2 1.3,0.2 m -117.5,69.3 1.4,-2.2 1.3,-2.3 1.4,-2.2 1.3,-2.2 1.3,-2.1 1.4,-2.2 1.3,-2.1 1.3,-2 1.4,-2.1 1.3,-1.9 1.3,-2 1.3,-1.9 1.3,-1.9 1.4,-1.9 1.3,-1.8 1.4,-1.8 1.3,-1.7 1.3,-1.7 1.4,-1.6 1.3,-1.7 1.4,-1.5 1.3,-1.6 1.3,-1.4 1.4,-1.5 1.3,-1.4 1.3,-1.3 1.4,-1.3 1.3,-1.3 1.4,-1.2 1.3,-1.2 1.3,-1.1 1.4,-1.1 1.3,-1.1 1.4,-1 1.3,-0.9 1.3,-0.9 1.4,-0.9 1.3,-0.8 1.3,-0.8 1.4,-0.7 1.3,-0.7 1.4,-0.7 1.3,-0.6 1.3,-0.5 1.4,-0.6 1.3,-0.5 1.4,-0.4 1.3,-0.4 1.3,-0.4 1.4,-0.3 1.3,-0.3 1.4,-0.2 1.3,-0.3 1.3,-0.2 1.4,-0.1 1.3,-0.1 1.3,-0.1 1.4,-0.1 1.3,0 1.4,0 1.3,0 1.3,0.1 1.4,0.1 1.3,0.1 1.4,0.1 1.3,0.1 1.3,0.2 1.4,0.2 1.3,0.2 1.3,0.2 1.4,0.3 1.3,0.2 1.4,0.3 1.3,0.2 1.3,0.3 1.4,0.3 1.3,0.3 1.4,0.3 1.3,0.3 1.3,0.3 1.4,0.3 1.3,0.4 1.4,0.3 1.3,0.3 1.3,0.3 1.4,0.3 1.3,0.2 1.3,0.3 1.4,0.3 1.3,0.2 1.4,0.3 1.3,0.2 1.3,0.2 1.4,0.2 1.3,0.2 1.4,0.2 1.3,0.1 1.3,0.1 1.4,0.1 m -117.6,57.1 1.3,-2.1 1.4,-2.1 1.3,-2.1 1.4,-2 1.3,-2 1.3,-1.9 1.4,-1.9 1.3,-1.9 1.3,-1.9 1.4,-1.8 1.3,-1.7 1.4,-1.8 1.3,-1.6 1.3,-1.7 1.4,-1.6 1.3,-1.6 1.4,-1.5 1.3,-1.5 1.3,-1.4 1.4,-1.4 1.3,-1.3 1.4,-1.3 1.3,-1.3 1.3,-1.2 1.4,-1.2 1.3,-1.1 1.3,-1.1 1.4,-1 1.3,-1 1.4,-0.9 1.3,-0.9 1.3,-0.9 1.4,-0.8 1.3,-0.8 1.4,-0.7 1.3,-0.7 1.3,-0.6 1.4,-0.6 1.3,-0.6 1.3,-0.5 1.4,-0.5 1.3,-0.4 1.4,-0.4 1.3,-0.4 1.3,-0.3 1.4,-0.3 1.3,-0.2 1.4,-0.2 1.3,-0.2 1.3,-0.1 1.4,-0.1 1.3,-0.1 1.4,-0.1 1.3,0 1.3,0 1.4,0 1.3,0.1 1.3,0.1 1.4,0.1 1.3,0.1 1.4,0.2 1.3,0.1 1.3,0.2 1.4,0.2 1.3,0.3 1.4,0.2 1.3,0.3 1.3,0.2 1.4,0.3 1.3,0.3 1.3,0.3 1.4,0.3 1.3,0.3 1.4,0.3 1.3,0.3 1.3,0.3 1.4,0.3 1.3,0.3 1.4,0.3 1.3,0.3 1.3,0.3 1.4,0.3 1.3,0.3 1.4,0.2 1.3,0.3 1.3,0.2 1.4,0.3 1.3,0.2 1.3,0.2 1.4,0.1 1.3,0.2 1.4,0.1 1.3,0.1 1.3,0.1 1.4,0.1 1.3,0 1.4,0 1.3,0 1.3,0 m -117.5,46.3 1.3,-1.9 1.3,-1.9 1.4,-1.9 1.3,-1.9 1.4,-1.8 1.3,-1.7 1.3,-1.7 1.4,-1.7 1.3,-1.6 1.3,-1.6 1.4,-1.6 1.3,-1.5 1.4,-1.5 1.3,-1.4 1.3,-1.4 1.4,-1.3 1.3,-1.3 1.4,-1.2 1.3,-1.2 1.3,-1.2 1.4,-1.1 1.3,-1.1 1.3,-1 1.4,-1 1.3,-0.9 1.4,-0.9 1.3,-0.9 1.3,-0.8 1.4,-0.7 1.3,-0.7 1.4,-0.7 1.3,-0.7 1.3,-0.5 1.4,-0.6 1.3,-0.5 1.4,-0.5 1.3,-0.4 1.3,-0.4 1.4,-0.3 1.3,-0.3 1.3,-0.3 1.4,-0.3 1.3,-0.2 1.4,-0.1 1.3,-0.2 1.3,-0.1 1.4,-0.1 1.3,0 1.4,0 1.3,0 1.3,0 1.4,0.1 1.3,0.1 1.3,0.1 1.4,0.1 1.3,0.2 1.4,0.2 1.3,0.2 1.3,0.2 1.4,0.2 1.3,0.3 1.4,0.2 1.3,0.3 1.3,0.3 1.4,0.2 1.3,0.3 1.4,0.3 1.3,0.3 1.3,0.3 1.4,0.4 1.3,0.3 1.3,0.3 1.4,0.3 1.3,0.3 1.4,0.3 1.3,0.3 1.3,0.2 1.4,0.3 1.3,0.3 1.4,0.2 1.3,0.3 1.3,0.2 1.4,0.2 1.3,0.2 1.3,0.2 1.4,0.1 1.3,0.1 1.4,0.1 1.3,0.1 1.3,0.1 1.4,0 1.3,0 1.4,0 1.3,-0.1 1.3,0 1.4,-0.2 1.3,-0.1 1.4,-0.2 1.3,-0.2 h 0.01"
         id="path164"
         style="stroke:#ffc0cb;stroke-opacity:1" />
      <path
         inkscape:connector-curvature="0"
         d="m 330.9,208.3 1.4,-1.8 1.3,-1.7 1.3,-1.7 1.4,-1.6 1.3,-1.6 1.3,-1.5 1.4,-1.5 1.3,-1.5 1.4,-1.4 1.3,-1.4 1.3,-1.3 1.4,-1.3 1.3,-1.2 1.4,-1.2 1.3,-1.1 1.3,-1.2 1.4,-1 1.3,-1 1.4,-1 1.3,-0.9 1.3,-0.9 1.4,-0.8 1.3,-0.8 1.3,-0.8 1.4,-0.7 1.3,-0.7 1.4,-0.6 1.3,-0.6 1.3,-0.5 1.4,-0.5 1.3,-0.5 1.4,-0.4 1.3,-0.4 1.3,-0.3 1.4,-0.3 1.3,-0.3 1.3,-0.2 1.4,-0.2 1.3,-0.2 1.4,-0.1 1.3,-0.1 1.3,-0.1 1.4,0 1.3,0 1.4,0 1.3,0 1.3,0.1 1.4,0.1 1.3,0.1 1.4,0.2 1.3,0.1 1.3,0.2 1.4,0.2 1.3,0.2 1.3,0.3 1.4,0.2 1.3,0.3 1.4,0.2 1.3,0.3 1.3,0.3 1.4,0.3 1.3,0.3 1.4,0.3 1.3,0.3 1.3,0.3 1.4,0.3 1.3,0.3 1.3,0.3 1.4,0.3 1.3,0.3 1.4,0.3 1.3,0.3 1.3,0.3 1.4,0.2 1.3,0.3 1.4,0.2 1.3,0.2 1.3,0.2 1.4,0.2 1.3,0.2 1.4,0.1 1.3,0.2 1.3,0.1 1.4,0 1.3,0.1 1.3,0 1.4,0 1.3,0 1.4,-0.1 1.3,-0.1 1.3,-0.1 1.4,-0.1 1.3,-0.2 1.4,-0.3 1.3,-0.2 1.3,-0.3 1.4,-0.3 1.3,-0.4 1.3,-0.4 m -117.5,30.4 1.3,-1.5 1.4,-1.5 1.3,-1.5 1.3,-1.4 1.4,-1.3 1.3,-1.4 1.3,-1.2 1.4,-1.3 1.3,-1.2 1.4,-1.1 1.3,-1.1 1.3,-1 1.4,-1 1.3,-1 1.4,-0.9 1.3,-0.9 1.3,-0.8 1.4,-0.8 1.3,-0.7 1.3,-0.7 1.4,-0.7 1.3,-0.6 1.4,-0.6 1.3,-0.5 1.3,-0.5 1.4,-0.5 1.3,-0.4 1.4,-0.3 1.3,-0.4 1.3,-0.3 1.4,-0.2 1.3,-0.3 1.4,-0.2 1.3,-0.1 1.3,-0.1 1.4,-0.1 1.3,-0.1 1.3,0 1.4,0 1.3,0 1.4,0.1 1.3,0 1.3,0.1 1.4,0.2 1.3,0.1 1.4,0.2 1.3,0.1 1.3,0.2 1.4,0.3 1.3,0.2 1.3,0.2 1.4,0.3 1.3,0.3 1.4,0.3 1.3,0.2 1.3,0.3 1.4,0.3 1.3,0.3 1.4,0.4 1.3,0.3 1.3,0.3 1.4,0.3 1.3,0.3 1.4,0.3 1.3,0.3 1.3,0.3 1.4,0.3 1.3,0.2 1.3,0.3 1.4,0.2 1.3,0.3 1.4,0.2 1.3,0.2 1.3,0.2 1.4,0.1 1.3,0.2 1.4,0.1 1.3,0.1 1.3,0 1.4,0.1 1.3,0 1.3,0 1.4,0 1.3,-0.1 1.4,-0.1 1.3,-0.1 1.3,-0.2 1.4,-0.2 1.3,-0.2 1.4,-0.3 1.3,-0.3 1.3,-0.3 1.4,-0.4 1.3,-0.4 1.4,-0.5 1.3,-0.5 1.3,-0.5 1.4,-0.6 1.3,-0.6 m -117.6,25.7 1.4,-1.3 1.3,-1.3 1.3,-1.2 1.4,-1.2 1.3,-1.1 1.4,-1.1 1.3,-1.1 1.3,-1 1.4,-0.9 1.3,-0.9 1.4,-0.9 1.3,-0.8 1.3,-0.8 1.4,-0.7 1.3,-0.7 1.4,-0.6 1.3,-0.6 1.3,-0.6 1.4,-0.5 1.3,-0.5 1.3,-0.5 1.4,-0.4 1.3,-0.3 1.4,-0.3 1.3,-0.3 1.3,-0.3 1.4,-0.2 1.3,-0.2 1.4,-0.1 1.3,-0.2 1.3,0 1.4,-0.1 1.3,0 1.4,0 1.3,0 1.3,0.1 1.4,0 1.3,0.1 1.3,0.2 1.4,0.1 1.3,0.2 1.4,0.2 1.3,0.2 1.3,0.2 1.4,0.2 1.3,0.3 1.4,0.3 1.3,0.2 1.3,0.3 1.4,0.3 1.3,0.3 1.3,0.3 1.4,0.3 1.3,0.3 1.4,0.3 1.3,0.3 1.3,0.3 1.4,0.3 1.3,0.3 1.4,0.3 1.3,0.3 1.3,0.3 1.4,0.3 1.3,0.2 1.4,0.3 1.3,0.2 1.3,0.2 1.4,0.2 1.3,0.2 1.3,0.1 1.4,0.2 1.3,0.1 1.4,0.1 1.3,0 1.3,0.1 1.4,0 1.3,0 1.4,-0.1 1.3,0 1.3,-0.1 1.4,-0.2 1.3,-0.1 1.3,-0.2 1.4,-0.3 1.3,-0.3 1.4,-0.3 1.3,-0.3 1.3,-0.4 1.4,-0.4 1.3,-0.5 1.4,-0.5 1.3,-0.5 1.3,-0.6 1.4,-0.7 1.3,-0.6 1.4,-0.7 1.3,-0.8 1.3,-0.8 1.4,-0.8 m -117.6,23.2 1.3,-1 1.4,-1.1 1.3,-1 1.3,-0.9 1.4,-0.9 1.3,-0.9 1.4,-0.8 1.3,-0.7 1.3,-0.8 1.4,-0.6 1.3,-0.7 1.4,-0.6 1.3,-0.5 1.3,-0.5 1.4,-0.5 1.3,-0.5 1.4,-0.3 1.3,-0.4 1.3,-0.3 1.4,-0.3 1.3,-0.2 1.3,-0.3 1.4,-0.1 1.3,-0.2 1.4,-0.1 1.3,-0.1 1.3,0 1.4,0 1.3,0 1.4,0 1.3,0.1 1.3,0.1 1.4,0.1 1.3,0.1 1.3,0.2 1.4,0.1 1.3,0.2 1.4,0.2 1.3,0.2 1.3,0.3 1.4,0.2 1.3,0.3 1.4,0.3 1.3,0.3 1.3,0.3 1.4,0.3 1.3,0.3 1.4,0.3 1.3,0.3 1.3,0.3 1.4,0.3 1.3,0.3 1.3,0.3 1.4,0.3 1.3,0.3 1.4,0.3 1.3,0.3 1.3,0.2 1.4,0.3 1.3,0.2 1.4,0.2 1.3,0.2 1.3,0.2 1.4,0.2 1.3,0.2 1.3,0.1 1.4,0.1 1.3,0.1 1.4,0.1 1.3,0 1.3,0 1.4,0 1.3,-0.1 1.4,-0.1 1.3,-0.1 1.3,-0.1 1.4,-0.2 1.3,-0.2 1.4,-0.2 1.3,-0.3 1.3,-0.3 1.4,-0.4 1.3,-0.4 1.3,-0.4 1.4,-0.5 1.3,-0.5 1.4,-0.6 1.3,-0.6 1.3,-0.6 1.4,-0.7 1.3,-0.7 1.4,-0.8 1.3,-0.8 1.3,-0.8 1.4,-0.9 1.3,-1 1.3,-1 1.4,-1 1.3,-1.1 h 0.01"
         id="path166"
         style="stroke:#ffc0cb;stroke-opacity:1" />
    </g>
    <g
       style="color:#008000;fill:none;stroke:#add8e6;stroke-width:1;stroke-linecap:butt;stroke-linejoin:miter;stroke-opacity:1"
       id="g175"
       transform="translate(62.857146,240.93361)">
      <path
         inkscape:connector-curvature="0"
         d="m 154.3,304.4 0.5,-0.5 2.9,-2.9 2.9,-2.9 2.8,-2.8 2.9,-2.8 2.9,-2.7 2.9,-2.7 2.8,-2.6 2.9,-2.6 2.9,-2.6 2.8,-2.5 2.9,-2.4 2.9,-2.5 2.9,-2.3 2.8,-2.4 2.9,-2.2 2.9,-2.3 2.8,-2.2 2.9,-2.1 2.9,-2.1 2.9,-2.1 2.8,-2 2.9,-1.9 2.9,-2 2.8,-1.9 2.9,-1.8 2.9,-1.8 2.8,-1.7 2.9,-1.7 2.9,-1.7 2.9,-1.6 2.8,-1.6 2.9,-1.5 2.9,-1.4 2.8,-1.4 2.9,-1.4 2.9,-1.3 2.9,-1.3 2.8,-1.3 2.9,-1.2 2.9,-1.1 2.8,-1.2 2.9,-1 2.9,-1.1 2.9,-0.9 2.8,-1 2.9,-0.9 2.9,-0.8 2.8,-0.8 2.9,-0.8 2.9,-0.7 2.7,-0.7 2.9,-0.6 2.9,-0.6 2.9,-0.5 2.8,-0.5 2.9,-0.5 2.9,-0.4 2.8,-0.3 2.9,-0.4 2.9,-0.2 2.9,-0.2 2.8,-0.2 2.9,-0.2 2.9,-0.1 2.8,0 2.9,0 2.9,0 2.9,0.1 2.8,0.2 2.9,0.1 2.9,0.3 2.8,0.2 2.9,0.3 2.9,0.4 2.9,0.4 2.8,0.4 2.9,0.5 m -229.5,85.1 1.2,-1.1 2.8,-2.9 2.9,-2.9 2.9,-2.8 2.8,-2.8 2.9,-2.7 2.9,-2.6 2.9,-2.7 2.8,-2.6 2.9,-2.5 2.9,-2.5 2.8,-2.4 2.9,-2.5 2.9,-2.3 2.8,-2.3 2.9,-2.3 2.9,-2.2 2.9,-2.2 2.8,-2.1 2.9,-2.1 2.9,-2.1 2.8,-2 2.9,-2 2.9,-1.9 2.9,-1.8 2.8,-1.9 2.9,-1.7 2.9,-1.8 2.8,-1.6 2.9,-1.6 2.9,-1.6 2.9,-1.6 2.8,-1.5 2.9,-1.4 2.9,-1.5 2.8,-1.3 2.9,-1.4 2.9,-1.3 2.8,-1.2 2.9,-1.2 2.9,-1.2 2.9,-1.1 2.8,-1 2.9,-1.1 2.9,-0.9 2.8,-1 2.9,-0.9 2.9,-0.8 2.9,-0.8 2.8,-0.7 2.9,-0.8 2.9,-0.6 2.8,-0.6 2.9,-0.6 2.8,-0.5 2.9,-0.5 2.8,-0.5 2.9,-0.4 2.9,-0.3 2.8,-0.3 2.9,-0.3 2.9,-0.2 2.9,-0.2 2.8,-0.1 2.9,-0.1 2.9,0 2.8,0 2.9,0.1 2.9,0.1 2.8,0.1 2.9,0.2 2.9,0.2 2.9,0.3 2.8,0.3 2.9,0.4 2.9,0.4 2.8,0.4 2.9,0.5 2.9,0.6 2.9,0.6 2.8,0.6 2.9,0.7 2.9,0.7 m -244.5,81.8 1.8,-1.7 2.8,-2.9 2.9,-2.9 2.9,-2.8 2.9,-2.7 2.8,-2.7 2.9,-2.7 2.9,-2.6 2.8,-2.6 2.9,-2.5 2.9,-2.5 2.9,-2.5 2.8,-2.3 2.9,-2.4 2.9,-2.3 2.8,-2.3 2.9,-2.2 2.9,-2.2 2.9,-2.1 2.8,-2.1 2.9,-2 2.9,-2 2.8,-2 2.9,-1.8 2.9,-1.8 2.8,-1.8 2.9,-1.8 2.9,-1.7 2.9,-1.7 2.8,-1.6 2.9,-1.6 2.9,-1.6 2.8,-1.5 2.9,-1.4 2.9,-1.5 2.9,-1.3 2.8,-1.3 2.9,-1.3 2.9,-1.3 2.8,-1.2 2.9,-1.1 2.9,-1.1 2.9,-1.1 2.8,-1 2.9,-0.9 2.9,-1 2.8,-0.8 2.9,-0.9 2.9,-0.7 2.8,-0.8 2.9,-0.7 2.9,-0.6 2.9,-0.7 2.8,-0.5 2.9,-0.5 2.9,-0.5 2.7,-0.4 2.9,-0.4 2.9,-0.4 2.9,-0.3 2.8,-0.2 2.9,-0.2 2.9,-0.2 2.8,-0.1 2.9,-0.1 2.9,0 2.9,0 2.8,0.1 2.9,0.1 2.9,0.1 2.8,0.2 2.9,0.3 2.9,0.3 2.9,0.3 2.8,0.4 2.9,0.4 2.9,0.5 2.8,0.5 2.9,0.5 2.9,0.6 2.8,0.7 2.9,0.6 2.9,0.8 2.9,0.8 2.8,0.8 2.9,0.8 2.9,1 2.8,0.9 m -259.4,77.4 2.4,-2.4 2.9,-2.9 2.8,-2.9 2.9,-2.7 2.9,-2.8 2.9,-2.7 2.8,-2.6 2.9,-2.7 2.9,-2.5 2.8,-2.5 2.9,-2.5 2.9,-2.5 2.8,-2.3 2.9,-2.4 2.9,-2.3 2.9,-2.2 2.8,-2.2 2.9,-2.2 2.9,-2.1 2.8,-2 2.9,-2 2.9,-2 2.9,-1.9 2.8,-1.9 2.9,-1.9 2.9,-1.8 2.8,-1.8 2.9,-1.7 2.9,-1.7 2.9,-1.6 2.8,-1.6 2.9,-1.5 2.9,-1.5 2.8,-1.4 2.9,-1.4 2.9,-1.4 2.8,-1.3 2.9,-1.3 2.9,-1.2 2.9,-1.2 2.8,-1.1 2.9,-1.1 2.9,-1.1 2.8,-1 2.9,-0.9 2.9,-0.9 2.9,-0.9 2.8,-0.8 2.9,-0.8 2.9,-0.7 2.8,-0.7 2.9,-0.7 2.9,-0.6 2.9,-0.5 2.8,-0.5 2.9,-0.5 2.9,-0.4 2.8,-0.4 2.9,-0.3 2.8,-0.3 2.9,-0.3 2.8,-0.1 2.9,-0.2 2.9,-0.1 2.8,-0.1 2.9,0 2.9,0 2.8,0.1 2.9,0.1 2.9,0.2 2.9,0.2 2.8,0.2 2.9,0.3 2.9,0.4 2.8,0.4 2.9,0.4 2.9,0.5 2.9,0.5 2.8,0.5 2.9,0.7 2.9,0.6 2.8,0.7 2.9,0.7 2.9,0.8 2.9,0.9 2.8,0.8 2.9,1 2.9,0.9 2.8,1 2.9,1.1 2.9,1.1 2.8,1.1 2.9,1.2 m -274.3,71.7 0,-0.1 2.9,-3 2.9,-2.8 2.9,-2.8 2.8,-2.8 2.9,-2.8 2.9,-2.6 2.8,-2.7 2.9,-2.6 2.9,-2.6 2.9,-2.5 2.8,-2.4 2.9,-2.5 2.9,-2.3 2.8,-2.4 2.9,-2.3 2.9,-2.1 2.9,-2.2 2.8,-2.1 2.9,-2.2 2.9,-2 2.8,-2 2.9,-2 2.9,-1.9 2.8,-1.9 2.9,-1.9 2.9,-1.8 2.9,-1.7 2.8,-1.7 2.9,-1.7 2.9,-1.6 2.8,-1.6 2.9,-1.5 2.9,-1.5 2.9,-1.4 2.8,-1.4 2.9,-1.4 2.9,-1.3 2.8,-1.2 2.9,-1.3 2.9,-1.1 2.9,-1.2 2.8,-1 2.9,-1.1 2.9,-1 2.8,-0.9 2.9,-0.9 2.9,-0.9 2.8,-0.8 2.9,-0.8 2.9,-0.7 2.9,-0.7 2.8,-0.6 2.9,-0.6 2.9,-0.5 2.8,-0.5 2.9,-0.5 2.9,-0.4 2.9,-0.4 2.8,-0.3 2.9,-0.3 2.9,-0.2 2.7,-0.2 2.9,-0.1 2.9,-0.1 2.9,-0.1 2.8,0 2.9,0.1 2.9,0 2.8,0.2 2.9,0.1 2.9,0.2 2.9,0.3 2.8,0.3 2.9,0.4 2.9,0.4 2.8,0.4 2.9,0.5 2.9,0.5 2.8,0.6 2.9,0.6 2.9,0.7 2.9,0.7 2.8,0.7 2.9,0.8 2.9,0.8 2.8,0.9 2.9,1 2.9,0.9 2.9,1.1 2.8,1 2.9,1.1 2.9,1.2 2.8,1.2 2.9,1.2 2.9,1.3 2.9,1.3 2.8,1.4 2.9,1.4 m -277.1,52.7 2.8,-2.7 2.9,-2.7 2.9,-2.6 2.8,-2.6 2.9,-2.6 2.9,-2.5 2.8,-2.4 2.9,-2.3 2.9,-2.4 2.9,-2.3 2.8,-2.3 2.9,-2.3 2.9,-2.1 2.8,-2.2 2.9,-2.1 2.9,-2 2.9,-2.1 2.8,-1.9 2.9,-1.9 2.9,-1.9 2.8,-1.8 2.9,-1.8 2.9,-1.8 2.9,-1.7 2.8,-1.6 2.9,-1.6 2.9,-1.6 2.8,-1.5 2.9,-1.5 2.9,-1.4 2.8,-1.4 2.9,-1.3 2.9,-1.3 2.9,-1.3 2.8,-1.2 2.9,-1.2 2.9,-1.1 2.8,-1.1 2.9,-1 2.9,-1 2.9,-0.9 2.8,-0.9 2.9,-0.8 2.9,-0.8 2.8,-0.8 2.9,-0.7 2.9,-0.7 2.9,-0.6 2.8,-0.6 2.9,-0.5 2.9,-0.5 2.8,-0.5 2.9,-0.4 2.9,-0.3 2.9,-0.3 2.8,-0.3 2.9,-0.2 2.9,-0.2 2.8,-0.1 2.9,-0.1 2.8,-0.1 2.8,0 2.9,0.1 2.9,0.1 2.9,0.1 2.8,0.2 2.9,0.2 2.9,0.3 2.8,0.3 2.9,0.3 2.9,0.4 2.9,0.5 2.8,0.5 2.9,0.5 2.9,0.6 2.8,0.6 2.9,0.7 2.9,0.7 2.9,0.8 2.8,0.8 2.9,0.8 2.9,0.9 2.8,1 2.9,1 2.9,1 2.8,1.1 2.9,1.1 2.9,1.1 2.9,1.2 2.8,1.3 2.9,1.3 2.9,1.3 2.8,1.4 2.9,1.4 2.9,1.5 2.9,1.5 2.8,1.6 2.9,1.6 2.9,1.7 0.01,0"
         id="path177"
         sodipodi:nodetypes="ccccccccccccccccccccccccccccccccccccccccccccccccccccccccccccccccccccccccccccccccccccccccccccccccccccccccccccccccccccccccccccccccccccccccccccccccccccccccccccccccccccccccccccccccccccccccccccccccccccccccccccccccccccccccccccccccccccccccccccccccccccccccccccccccccccccccccccccccccccccccccccccccccccccccccccccccccccccccccccccccccccccccccccccccccccccccccccccccccccccccccccccccccccccccccccccccccccccccccccccccccccccccccccccccccccccccccccccccccccccccccccccccccccccccccccccccccccccccccccccccccccccccccccccccccccccccccccccccccccccccccccccccccccccccccccccccccc"
         style="stroke:#add8e6;stroke-opacity:1" />
      <path
         inkscape:connector-curvature="0"
         d="m 133.5,228.4 2.9,-2.5 2.9,-2.4 2.8,-2.4 2.9,-2.4 2.9,-2.3 2.9,-2.3 2.8,-2.2 2.9,-2.2 2.9,-2.1 2.8,-2.1 2.9,-2.1 2.9,-2 2.8,-1.9 2.9,-1.9 2.9,-1.9 2.9,-1.8 2.8,-1.8 2.9,-1.7 2.9,-1.7 2.8,-1.7 2.9,-1.6 2.9,-1.5 2.9,-1.5 2.8,-1.5 2.9,-1.4 2.9,-1.4 2.8,-1.3 2.9,-1.3 2.9,-1.2 2.9,-1.2 2.8,-1.2 2.9,-1.1 2.9,-1.1 2.8,-1 2.9,-1 2.9,-0.9 2.8,-0.9 2.9,-0.8 2.9,-0.8 2.9,-0.8 2.8,-0.7 2.9,-0.6 2.9,-0.6 2.8,-0.6 2.9,-0.5 2.9,-0.5 2.9,-0.4 2.8,-0.4 2.9,-0.4 2.9,-0.3 2.8,-0.2 2.9,-0.3 2.9,-0.1 2.9,-0.2 2.8,0 2.9,-0.1 2.9,0 2.8,0.1 2.8,0.1 2.9,0.1 2.9,0.2 2.8,0.3 2.9,0.2 2.9,0.4 2.8,0.3 2.9,0.4 2.9,0.5 2.8,0.5 2.9,0.5 2.9,0.6 2.9,0.7 2.8,0.7 2.9,0.7 2.9,0.8 2.8,0.8 2.9,0.8 2.9,0.9 2.9,1 2.8,1 2.9,1 2.9,1.1 2.8,1.1 2.9,1.2 2.9,1.2 2.9,1.3 2.8,1.3 2.9,1.3 2.9,1.4 2.8,1.5 2.9,1.4 2.9,1.6 2.8,1.6 2.9,1.6 2.9,1.6 2.9,1.7 2.8,1.8 2.9,1.8 2.9,1.8 2.8,1.9 m -277.1,9.1 2.9,-2.3 2.8,-2.2 2.9,-2.1 2.9,-2.2 2.9,-2 2.8,-2.1 2.9,-2 2.9,-1.9 2.8,-1.9 2.9,-1.9 2.9,-1.8 2.9,-1.8 2.8,-1.7 2.9,-1.7 2.9,-1.6 2.8,-1.6 2.9,-1.5 2.9,-1.5 2.8,-1.5 2.9,-1.4 2.9,-1.4 2.9,-1.3 2.8,-1.3 2.9,-1.2 2.9,-1.2 2.8,-1.1 2.9,-1.1 2.9,-1.1 2.9,-1 2.8,-0.9 2.9,-1 2.9,-0.8 2.8,-0.9 2.9,-0.8 2.9,-0.7 2.9,-0.7 2.8,-0.6 2.9,-0.6 2.9,-0.6 2.8,-0.5 2.9,-0.5 2.9,-0.4 2.9,-0.4 2.8,-0.3 2.9,-0.3 2.9,-0.3 2.8,-0.2 2.9,-0.2 2.9,-0.1 2.8,0 2.9,-0.1 2.9,0.1 2.9,0 2.8,0.1 2.9,0.2 2.8,0.2 2.8,0.2 2.9,0.3 2.9,0.3 2.9,0.4 2.8,0.4 2.9,0.5 2.9,0.5 2.8,0.6 2.9,0.6 2.9,0.6 2.9,0.7 2.8,0.7 2.9,0.8 2.9,0.9 2.8,0.8 2.9,0.9 2.9,1 2.8,1 2.9,1 2.9,1.1 2.9,1.2 2.8,1.2 2.9,1.2 2.9,1.2 2.8,1.4 2.9,1.3 2.9,1.4 2.9,1.5 2.8,1.5 2.9,1.5 2.9,1.6 2.8,1.6 2.9,1.7 2.9,1.7 2.9,1.8 2.8,1.8 2.9,1.8 2.9,1.9 2.8,2 2.9,2 2.9,2 2.8,2.1 2.9,2.1 m -277.1,-12.8 2.8,-2 2.9,-2 2.9,-1.9 2.9,-1.9 2.8,-1.9 2.9,-1.8 2.9,-1.7 2.8,-1.7 2.9,-1.7 2.9,-1.6 2.9,-1.6 2.8,-1.5 2.9,-1.5 2.9,-1.5 2.8,-1.4 2.9,-1.3 2.9,-1.4 2.9,-1.2 2.8,-1.2 2.9,-1.2 2.9,-1.2 2.8,-1 2.9,-1.1 2.9,-1 2.9,-0.9 2.8,-0.9 2.9,-0.9 2.9,-0.8 2.8,-0.8 2.9,-0.7 2.9,-0.7 2.8,-0.7 2.9,-0.6 2.9,-0.5 2.9,-0.5 2.8,-0.5 2.9,-0.4 2.9,-0.4 2.8,-0.3 2.9,-0.3 2.9,-0.2 2.9,-0.2 2.8,-0.2 2.9,-0.1 2.9,0 2.8,-0.1 2.9,0.1 2.9,0 2.9,0.2 2.8,0.1 2.9,0.2 2.9,0.3 2.8,0.3 2.8,0.3 2.9,0.4 2.8,0.4 2.9,0.5 2.9,0.5 2.9,0.6 2.8,0.6 2.9,0.7 2.9,0.7 2.8,0.7 2.9,0.8 2.9,0.8 2.9,0.9 2.8,0.9 2.9,1 2.9,1 2.8,1.1 2.9,1.1 2.9,1.1 2.9,1.2 2.8,1.2 2.9,1.3 2.9,1.4 2.8,1.3 2.9,1.4 2.9,1.5 2.8,1.5 2.9,1.5 2.9,1.6 2.9,1.7 2.8,1.7 2.9,1.7 2.9,1.8 2.8,1.8 2.9,1.8 2.9,1.9 2.9,2 2.8,2 2.9,2 2.9,2.1 2.8,2.1 2.9,2.2 2.9,2.2 2.9,2.3 2.8,2.3 2.9,2.4 m -277.1,-34.6 2.8,-1.8 2.9,-1.8 2.9,-1.7 2.8,-1.6 2.9,-1.7 2.9,-1.5 2.8,-1.6 2.9,-1.4 2.9,-1.5 2.9,-1.4 2.8,-1.3 2.9,-1.3 2.9,-1.3 2.8,-1.2 2.9,-1.2 2.9,-1.1 2.9,-1.1 2.8,-1 2.9,-1 2.9,-0.9 2.8,-0.9 2.9,-0.9 2.9,-0.8 2.9,-0.8 2.8,-0.7 2.9,-0.7 2.9,-0.6 2.8,-0.6 2.9,-0.5 2.9,-0.5 2.9,-0.5 2.8,-0.4 2.9,-0.3 2.9,-0.4 2.8,-0.2 2.9,-0.3 2.9,-0.2 2.8,-0.1 2.9,-0.1 2.9,0 2.9,0 2.8,0 2.9,0.1 2.9,0.1 2.8,0.2 2.9,0.2 2.9,0.3 2.9,0.3 2.8,0.3 2.9,0.4 2.8,0.4 2.8,0.5 2.9,0.6 2.9,0.5 2.9,0.7 2.8,0.6 2.9,0.7 2.9,0.8 2.8,0.8 2.9,0.8 2.9,0.9 2.8,0.9 2.9,1 2.9,1 2.9,1.1 2.8,1.1 2.9,1.2 2.9,1.2 2.8,1.2 2.9,1.3 2.9,1.3 2.9,1.4 2.8,1.4 2.9,1.5 2.9,1.5 2.8,1.6 2.9,1.6 2.9,1.6 2.9,1.7 2.8,1.8 2.9,1.7 2.9,1.9 2.8,1.8 2.9,2 2.9,1.9 2.8,2 2.9,2.1 2.9,2.1 2.9,2.1 2.8,2.2 2.9,2.2 2.9,2.3 2.8,2.3 2.9,2.4 2.9,2.4 2.9,2.4 2.8,2.5 2.9,2.6 2.9,2.6 m -277.2,-56.5 2.9,-1.5 2.9,-1.6 2.8,-1.4 2.9,-1.5 2.9,-1.3 2.9,-1.4 2.8,-1.3 2.9,-1.2 2.9,-1.2 2.8,-1.2 2.9,-1.1 2.9,-1.1 2.9,-1 2.8,-1 2.9,-0.9 2.9,-0.9 2.8,-0.9 2.9,-0.8 2.9,-0.7 2.8,-0.7 2.9,-0.7 2.9,-0.6 2.9,-0.6 2.8,-0.5 2.9,-0.5 2.9,-0.5 2.8,-0.4 2.9,-0.3 2.9,-0.3 2.9,-0.3 2.8,-0.2 2.9,-0.2 2.9,-0.1 2.8,-0.1 2.9,0 2.9,0 2.9,0 2.8,0.1 2.9,0.1 2.9,0.2 2.8,0.2 2.9,0.3 2.9,0.3 2.8,0.4 2.9,0.4 2.9,0.5 2.9,0.4 2.8,0.6 2.8,0.6 2.9,0.6 2.8,0.7 2.9,0.7 2.9,0.8 2.9,0.8 2.8,0.8 2.9,0.9 2.9,1 2.8,0.9 2.9,1.1 2.9,1 2.9,1.2 2.8,1.1 2.9,1.2 2.9,1.3 2.8,1.3 2.9,1.3 2.9,1.4 2.8,1.5 2.9,1.4 2.9,1.6 2.9,1.5 2.8,1.6 2.9,1.7 2.9,1.7 2.8,1.7 2.9,1.8 2.9,1.9 2.9,1.8 2.8,2 2.9,1.9 2.9,2.1 2.8,2 2.9,2.1 2.9,2.2 2.9,2.2 2.8,2.2 2.9,2.3 2.9,2.3 2.8,2.4 2.9,2.4 2.9,2.5 2.9,2.5 2.8,2.5 2.9,2.6 2.9,2.6 2.8,2.7 2.9,2.8 2.9,2.7 2.8,2.9 m -277.1,-78.3 2.9,-1.4 2.8,-1.2 2.9,-1.3 2.9,-1.2 2.9,-1.1 2.8,-1.1 2.9,-1.1 2.9,-1 2.8,-1 2.9,-0.9 2.9,-0.9 2.9,-0.8 2.8,-0.8 2.9,-0.8 2.9,-0.7 2.8,-0.6 2.9,-0.6 2.9,-0.6 2.9,-0.5 2.8,-0.5 2.9,-0.4 2.9,-0.4 2.8,-0.4 2.9,-0.3 2.9,-0.2 2.8,-0.2 2.9,-0.2 2.9,-0.1 2.9,-0.1 2.8,0 2.9,0 2.9,0 2.8,0.1 2.9,0.2 2.9,0.2 2.9,0.2 2.8,0.3 2.9,0.3 2.9,0.4 2.8,0.4 2.9,0.5 2.9,0.5 2.9,0.5 2.8,0.6 2.9,0.6 2.8,0.7 2.8,0.8 2.9,0.7 2.9,0.8 2.8,0.9 2.9,0.9 2.9,1 2.9,1 2.8,1 2.9,1.1 2.9,1.1 2.8,1.2 2.9,1.2 2.9,1.3 2.9,1.3 2.8,1.3 2.9,1.4 2.9,1.5 2.8,1.5 2.9,1.5 2.9,1.6 2.9,1.6 2.8,1.7 2.9,1.7 2.9,1.7 2.8,1.8 2.9,1.9 2.9,1.9 2.8,1.9 2.9,2 2.9,2 2.9,2.1 2.8,2.1 2.9,2.1 2.9,2.2 2.8,2.3 2.9,2.3 2.9,2.3 2.9,2.4 2.8,2.4 2.9,2.5 2.9,2.5 2.8,2.6 2.9,2.6 2.9,2.6 2.9,2.7 2.8,2.7 2.9,2.8 2.9,2.9 2.8,2.8 2.9,3 2.9,2.9 2.9,3 2.8,3.1 h 0.01"
         id="path179"
         style="stroke:#add8e6;stroke-opacity:1" />
      <path
         inkscape:connector-curvature="0"
         d="m 175.4,121.2 2.9,-1 2.8,-1.1 2.9,-1 2.9,-1 2.8,-0.9 2.9,-0.9 2.9,-0.8 2.8,-0.8 2.9,-0.7 2.9,-0.7 2.9,-0.6 2.8,-0.6 2.9,-0.6 2.9,-0.5 2.8,-0.5 2.9,-0.4 2.9,-0.4 2.9,-0.3 2.8,-0.3 2.9,-0.3 2.9,-0.2 2.8,-0.1 2.9,-0.1 2.9,-0.1 2.9,0 2.8,0 2.9,0.1 2.9,0.1 2.8,0.1 2.9,0.2 2.9,0.3 2.8,0.3 2.9,0.3 2.9,0.4 2.9,0.4 2.8,0.5 2.9,0.5 2.9,0.5 2.8,0.6 2.9,0.7 2.9,0.7 2.9,0.7 2.8,0.8 2.8,0.8 2.9,0.9 2.8,0.9 2.9,1 2.9,1 2.9,1 2.8,1.1 2.9,1.2 2.9,1.1 2.8,1.3 2.9,1.2 2.9,1.4 2.8,1.3 2.9,1.4 2.9,1.5 2.9,1.5 2.8,1.5 2.9,1.6 2.9,1.6 2.8,1.7 2.9,1.7 2.9,1.8 2.9,1.8 2.8,1.9 2.9,1.9 2.9,1.9 2.8,2 2.9,2 2.9,2.1 2.9,2.1 2.8,2.2 2.9,2.2 2.9,2.3 2.8,2.3 2.9,2.3 2.9,2.4 2.9,2.4 2.8,2.5 2.9,2.5 2.9,2.6 2.8,2.6 2.9,2.7 2.9,2.7 2.8,2.7 2.9,2.8 2.9,2.9 2.9,2.9 2.8,2.9 2.9,2.9 2.9,3.1 2.8,3 2.9,3.1 2.9,3.2 2.9,3.2 2.8,3.2 2.9,3.3 m -277.1,-122 2.8,-0.8 2.9,-0.8 2.9,-0.8 2.8,-0.7 2.9,-0.7 2.9,-0.7 2.9,-0.6 2.8,-0.5 2.9,-0.5 2.9,-0.5 2.8,-0.4 2.9,-0.4 2.9,-0.3 2.8,-0.3 2.9,-0.2 2.9,-0.2 2.9,-0.1 2.8,-0.2 2.9,0 2.9,0 2.8,0 2.9,0.1 2.9,0.1 2.9,0.2 2.8,0.2 2.9,0.2 2.9,0.3 2.8,0.4 2.9,0.4 2.9,0.4 2.9,0.5 2.8,0.5 2.9,0.6 2.9,0.6 2.8,0.6 2.9,0.7 2.9,0.8 2.8,0.8 2.9,0.8 2.9,0.9 2.8,0.9 2.8,1 2.9,1 2.9,1.1 2.8,1.1 2.9,1.1 2.9,1.2 2.9,1.2 2.8,1.3 2.9,1.4 2.9,1.3 2.8,1.4 2.9,1.5 2.9,1.5 2.9,1.6 2.8,1.6 2.9,1.6 2.9,1.7 2.8,1.7 2.9,1.8 2.9,1.8 2.9,1.9 2.8,1.9 2.9,1.9 2.9,2 2.8,2.1 2.9,2.1 2.9,2.1 2.8,2.2 2.9,2.2 2.9,2.3 2.9,2.3 2.8,2.3 2.9,2.4 2.9,2.5 2.8,2.5 2.9,2.5 2.9,2.6 2.9,2.6 2.8,2.7 2.9,2.7 2.9,2.7 2.8,2.8 2.9,2.9 2.9,2.9 2.9,2.9 2.8,3 2.9,3 2.9,3.1 2.8,3.1 2.9,3.2 2.9,3.2 2.8,3.2 2.9,3.3 2.9,3.3 2.9,3.4 2.8,3.4 2.9,3.4 2.9,3.5 M 189.3,95.2 l 2.9,-0.6 2.9,-0.6 2.8,-0.5 2.9,-0.5 2.9,-0.5 2.9,-0.4 2.8,-0.3 2.9,-0.3 2.9,-0.3 2.8,-0.2 2.9,-0.2 2.9,-0.2 2.9,-0.1 2.8,0 2.9,0 2.9,0 2.8,0.1 2.9,0.1 2.9,0.2 2.8,0.2 2.9,0.3 2.9,0.3 2.9,0.4 2.8,0.4 2.9,0.4 2.9,0.5 2.8,0.5 2.9,0.6 2.9,0.6 2.9,0.7 2.8,0.7 2.9,0.8 2.9,0.8 2.8,0.8 2.9,0.9 2.9,0.9 2.9,1 2.8,1 2.8,1.1 2.9,1.1 2.8,1.2 2.9,1.2 2.9,1.2 2.8,1.3 2.9,1.3 2.9,1.4 2.9,1.5 2.8,1.4 2.9,1.5 2.9,1.6 2.8,1.6 2.9,1.7 2.9,1.7 2.9,1.7 2.8,1.8 2.9,1.8 2.9,1.9 2.8,1.9 2.9,2 2.9,2 2.9,2 2.8,2.1 2.9,2.2 2.9,2.1 2.8,2.3 2.9,2.2 2.9,2.4 2.9,2.3 2.8,2.4 2.9,2.5 2.9,2.5 2.8,2.5 2.9,2.6 2.9,2.7 2.8,2.6 2.9,2.8 2.9,2.7 2.9,2.8 2.8,2.9 2.9,2.9 2.9,2.9 2.8,3 2.9,3.1 2.9,3 2.9,3.2 2.8,3.1 2.9,3.2 2.9,3.3 2.8,3.3 2.9,3.4 2.9,3.4 2.9,3.4 2.8,3.5 2.9,3.4 2.9,3.6 2.8,3.6 2.9,3.6 2.9,3.8 2.8,3.7 M 196.3,84.1 l 2.9,-0.4 2.8,-0.4 2.9,-0.3 2.9,-0.3 2.9,-0.2 2.8,-0.2 2.9,-0.1 2.9,-0.1 2.8,0 2.9,0 2.9,0 2.9,0.1 2.8,0.2 2.9,0.2 2.9,0.2 2.8,0.3 2.9,0.3 2.9,0.4 2.9,0.4 2.8,0.4 2.9,0.5 2.9,0.5 2.8,0.6 2.9,0.7 2.9,0.6 2.8,0.8 2.9,0.7 2.9,0.8 2.9,0.9 2.8,0.9 2.9,0.9 2.9,1 2.8,1.1 2.9,1 2.9,1.2 2.9,1.1 2.7,1.2 2.9,1.3 2.9,1.3 2.8,1.3 2.9,1.4 2.9,1.5 2.9,1.4 2.8,1.6 2.9,1.5 2.9,1.7 2.8,1.6 2.9,1.7 2.9,1.8 2.9,1.8 2.8,1.8 2.9,1.9 2.9,1.9 2.8,2 2.9,2 2.9,2.1 2.8,2.1 2.9,2.1 2.9,2.2 2.9,2.3 2.8,2.2 2.9,2.4 2.9,2.3 2.8,2.5 2.9,2.4 2.9,2.5 2.9,2.6 2.8,2.6 2.9,2.6 2.9,2.7 2.8,2.7 2.9,2.8 2.9,2.8 2.9,2.9 2.8,2.9 2.9,3 2.9,3 2.8,3 2.9,3.1 2.9,3.1 2.8,3.2 2.9,3.2 2.9,3.3 2.9,3.3 2.8,3.4 2.9,3.4 2.9,3.4 2.8,3.5 2.9,3.6 2.9,3.5 2.9,3.7 2.8,3.5 2.9,3.7 2.9,3.8 2.8,3.8 2.9,3.9 2.9,3.8 2.9,4 0,0.1 M 203.3,74.1 l 2.9,-0.2 2.8,-0.1 2.9,-0.1 2.9,0 2.8,0 2.9,0.1 2.9,0.1 2.8,0.1 2.9,0.2 2.9,0.3 2.9,0.2 2.8,0.4 2.9,0.3 2.9,0.5 2.8,0.4 2.9,0.5 2.9,0.6 2.9,0.6 2.8,0.6 2.9,0.7 2.9,0.7 2.8,0.8 2.9,0.8 2.9,0.9 2.9,0.9 2.8,0.9 2.9,1 2.9,1.1 2.8,1.1 2.9,1.1 2.9,1.2 2.8,1.2 2.9,1.3 2.8,1.3 2.9,1.3 2.8,1.4 2.9,1.5 2.9,1.5 2.8,1.5 2.9,1.6 2.9,1.6 2.9,1.7 2.8,1.7 2.9,1.7 2.9,1.9 2.8,1.8 2.9,1.9 2.9,1.9 2.9,2 2.8,2 2.9,2.1 2.9,2.1 2.8,2.2 2.9,2.2 2.9,2.2 2.9,2.3 2.8,2.4 2.9,2.4 2.9,2.4 2.8,2.5 2.9,2.5 2.9,2.5 2.8,2.6 2.9,2.7 2.9,2.7 2.9,2.7 2.8,2.8 2.9,2.8 2.9,2.9 2.8,2.9 2.9,3 2.9,3 2.9,3.1 2.8,3.1 2.9,3.1 2.9,3.2 2.8,3.2 2.9,3.3 2.9,3.3 2.9,3.4 2.8,3.4 2.9,3.5 2.9,3.5 2.8,3.5 2.9,3.6 2.9,3.6 2.8,3.7 2.9,3.7 2.9,3.7 2.9,3.8 2.8,3.9 2.9,3.9 2.4,3.2 M 210.3,65.3 l 2.8,0.1 2.9,0.1 2.9,0.2 2.8,0.2 2.9,0.2 2.9,0.3 2.9,0.3 2.8,0.4 2.9,0.5 2.9,0.4 2.8,0.5 2.9,0.6 2.9,0.6 2.8,0.7 2.9,0.7 2.9,0.7 2.9,0.8 2.8,0.8 2.9,0.9 2.9,0.9 2.8,1 2.9,1 2.9,1 2.9,1.1 2.8,1.2 2.9,1.1 2.9,1.3 2.8,1.2 2.9,1.4 2.9,1.3 2.9,1.4 2.7,1.5 2.9,1.5 2.9,1.5 2.8,1.6 2.9,1.7 2.9,1.6 2.9,1.8 2.8,1.7 2.9,1.8 2.9,1.9 2.8,1.9 2.9,1.9 2.9,2 2.8,2.1 2.9,2.1 2.9,2.1 2.9,2.1 2.8,2.3 2.9,2.2 2.9,2.3 2.8,2.4 2.9,2.4 2.9,2.4 2.9,2.5 2.8,2.5 2.9,2.6 2.9,2.6 2.8,2.7 2.9,2.7 2.9,2.7 2.9,2.8 2.8,2.9 2.9,2.8 2.9,3 2.8,2.9 2.9,3.1 2.9,3 2.8,3.1 2.9,3.2 2.9,3.2 2.9,3.2 2.8,3.3 2.9,3.3 2.9,3.4 2.8,3.4 2.9,3.5 2.9,3.5 2.9,3.6 2.8,3.6 2.9,3.6 2.9,3.7 2.8,3.7 2.9,3.8 2.9,3.8 2.9,3.8 2.8,3.9 1.8,2.4 h 0.01"
         id="path181"
         style="stroke:#add8e6;stroke-opacity:1" />
      <path
         inkscape:connector-curvature="0"
         d="m 217.2,57.8 2.9,0.3 2.9,0.3 2.8,0.4 2.9,0.5 2.9,0.4 2.9,0.6 2.8,0.5 2.9,0.6 2.9,0.7 2.8,0.7 2.9,0.8 2.9,0.8 2.9,0.8 2.8,0.9 2.9,0.9 2.9,1 2.8,1 2.9,1.1 2.9,1.1 2.8,1.1 2.9,1.2 2.9,1.2 2.9,1.3 2.8,1.4 2.9,1.3 2.9,1.5 2.8,1.4 2.9,1.5 2.8,1.6 2.9,1.6 2.8,1.6 2.9,1.7 2.9,1.7 2.8,1.8 2.9,1.8 2.9,1.9 2.9,1.9 2.8,2 2.9,2 2.9,2 2.8,2.1 2.9,2.1 2.9,2.2 2.9,2.2 2.8,2.3 2.9,2.3 2.9,2.4 2.8,2.4 2.9,2.4 2.9,2.5 2.8,2.6 2.9,2.5 2.9,2.7 2.9,2.6 2.8,2.7 2.9,2.8 2.9,2.8 2.8,2.9 2.9,2.9 2.9,2.9 2.9,3 2.8,3 2.9,3.1 2.9,3.1 2.8,3.2 2.9,3.2 2.9,3.2 2.9,3.3 2.8,3.4 2.9,3.3 2.9,3.5 2.8,3.4 2.9,3.6 2.9,3.5 2.8,3.6 2.9,3.7 2.9,3.7 2.9,3.7 2.8,3.8 2.9,3.9 2.9,3.8 2.8,4 1.2,1.4 M 224.2,51.5 l 2.9,0.5 2.8,0.6 2.9,0.6 2.9,0.7 2.9,0.7 2.8,0.7 2.9,0.8 2.9,0.9 2.8,0.9 2.9,0.9 2.9,1 2.9,1 2.8,1.1 2.9,1.1 2.9,1.2 2.8,1.2 2.9,1.2 2.9,1.3 2.9,1.4 2.8,1.3 2.9,1.5 2.9,1.4 2.8,1.6 2.9,1.5 2.9,1.6 2.9,1.7 2.7,1.7 2.9,1.7 2.9,1.8 2.8,1.8 2.9,1.9 2.9,1.9 2.8,2 2.9,2 2.9,2.1 2.9,2.1 2.8,2.1 2.9,2.2 2.9,2.2 2.8,2.3 2.9,2.3 2.9,2.4 2.9,2.4 2.8,2.5 2.9,2.5 2.9,2.5 2.8,2.6 2.9,2.6 2.9,2.7 2.9,2.7 2.8,2.8 2.9,2.8 2.9,2.9 2.8,2.9 2.9,2.9 2.9,3 2.8,3.1 2.9,3 2.9,3.2 2.9,3.1 2.8,3.3 2.9,3.2 2.9,3.3 2.8,3.4 2.9,3.4 2.9,3.4 2.9,3.5 2.8,3.5 2.9,3.6 2.9,3.6 2.8,3.7 2.9,3.7 2.9,3.7 2.9,3.8 2.8,3.9 2.9,3.9 2.9,3.9 0.5,0.7 m -324.8,45.2 0.2,-0.9 1.4,-4.5 1.3,-4.5 1.3,-4.4 1.4,-4.4 1.3,-4.3 1.4,-4.3 1.3,-4.2 1.3,-4.3 1.4,-4 1.3,-4.1 1.4,-4.1 1.3,-4 1.3,-4 1.4,-3.9 1.3,-3.9 1.3,-3.9 1.4,-3.8 1.3,-3.7 1.4,-3.8 1.3,-3.6 1.3,-3.6 1.4,-3.6 1.3,-3.6 1.4,-3.5 1.3,-3.4 1.3,-3.4 1.4,-3.4 1.3,-3.3 1.3,-3.2 1.4,-3.3 1.3,-3.1 1.4,-3.2 1.3,-3 1.3,-3.1 1.4,-3 1.3,-2.9 1.4,-3 1.3,-2.8 1.3,-2.8 1.4,-2.8 1.3,-2.7 1.4,-2.7 1.3,-2.7 1.3,-2.6 1.4,-2.5 1.3,-2.5 1.3,-2.5 1.4,-2.4 1.3,-2.4 1.4,-2.3 1.3,-2.3 1.3,-2.2 1.4,-2.2 1.3,-2.2 1.4,-2.1 1.3,-2 1.3,-2 1.4,-2 1.3,-1.9 1.3,-1.9 1.4,-1.8 1.3,-1.8 1.4,-1.8 1.3,-1.7 1.3,-1.6 1.4,-1.7 1.3,-1.5 1.4,-1.6 1.3,-1.4 1.3,-1.5 1.4,-1.4 1.3,-1.3 1.4,-1.3 1.3,-1.3 1.3,-1.2 1.4,-1.1 1.3,-1.1 m -95.3,226.2 0.5,-1.8 1.3,-4.5 1.4,-4.5 1.3,-4.4 1.3,-4.4 1.4,-4.3 1.3,-4.3 1.4,-4.2 1.3,-4.2 1.3,-4.2 1.4,-4.1 1.3,-4 1.4,-4 1.3,-3.9 1.3,-4 1.4,-3.9 1.3,-3.8 1.3,-3.8 1.4,-3.7 1.3,-3.7 1.4,-3.7 1.3,-3.6 1.3,-3.6 1.4,-3.5 1.3,-3.5 1.4,-3.4 1.3,-3.4 1.3,-3.4 1.4,-3.3 1.3,-3.2 1.4,-3.2 1.3,-3.2 1.3,-3.1 1.4,-3.1 1.3,-3 1.3,-3 1.4,-3 1.3,-2.9 1.4,-2.8 1.3,-2.8 1.3,-2.8 1.4,-2.7 1.3,-2.7 1.4,-2.6 1.3,-2.6 1.3,-2.5 1.4,-2.5 1.3,-2.5 1.3,-2.4 1.4,-2.4 1.3,-2.3 1.4,-2.3 1.3,-2.2 1.3,-2.2 1.4,-2.1 1.3,-2.1 1.4,-2.1 1.3,-2 1.3,-1.9 1.4,-1.9 1.3,-1.9 1.4,-1.8 1.3,-1.8 1.3,-1.8 1.4,-1.6 1.3,-1.7 1.3,-1.6 1.4,-1.6 1.3,-1.5 1.4,-1.4 1.3,-1.5 1.3,-1.3 1.4,-1.4 1.3,-1.3 1.4,-1.2 1.3,-1.2 1.3,-1.2 1.4,-1.1 1.3,-1.1 1.4,-1 1.3,-1 1.3,-0.9 1.4,-0.9 m -102.4,231.4 0.9,-2.8 1.3,-4.5 1.3,-4.4 1.4,-4.4 1.3,-4.4 1.4,-4.3 1.3,-4.3 1.3,-4.2 1.4,-4.2 1.3,-4.2 1.3,-4.1 1.4,-4 1.3,-4 1.4,-3.9 1.3,-3.9 1.3,-3.9 1.4,-3.8 1.3,-3.8 1.4,-3.7 1.3,-3.7 1.3,-3.7 1.4,-3.6 1.3,-3.5 1.3,-3.5 1.4,-3.5 1.3,-3.4 1.4,-3.4 1.3,-3.4 1.3,-3.3 1.4,-3.2 1.3,-3.2 1.4,-3.2 1.3,-3.1 1.3,-3 1.4,-3.1 1.3,-3 1.4,-2.9 1.3,-2.9 1.3,-2.8 1.4,-2.8 1.3,-2.8 1.3,-2.7 1.4,-2.7 1.3,-2.6 1.4,-2.6 1.3,-2.5 1.3,-2.5 1.4,-2.4 1.3,-2.4 1.4,-2.4 1.3,-2.3 1.3,-2.2 1.4,-2.3 1.3,-2.1 1.3,-2.2 1.4,-2 1.3,-2.1 1.4,-2 1.3,-1.9 1.3,-1.9 1.4,-1.9 1.3,-1.8 1.4,-1.8 1.3,-1.7 1.3,-1.7 1.4,-1.6 1.3,-1.6 1.4,-1.6 1.3,-1.5 1.3,-1.5 1.4,-1.4 1.3,-1.3 1.3,-1.4 1.4,-1.2 1.3,-1.3 1.4,-1.2 1.3,-1.1 1.3,-1.1 1.4,-1.1 1.3,-1 1.4,-1 1.3,-0.9 1.3,-0.9 1.4,-0.8 1.3,-0.8 1.3,-0.7 1.4,-0.7 1.3,-0.7 m -109.3,235.3 1.1,-3.7 1.4,-4.5 1.3,-4.5 1.3,-4.4 1.4,-4.3 1.3,-4.3 1.4,-4.3 1.3,-4.2 1.3,-4.2 1.4,-4.1 1.3,-4.1 1.3,-4.1 1.4,-4 1.3,-3.9 1.4,-3.9 1.3,-3.8 1.3,-3.8 1.4,-3.8 1.3,-3.7 1.4,-3.7 1.3,-3.6 1.3,-3.6 1.4,-3.6 1.3,-3.5 1.4,-3.5 1.3,-3.4 1.3,-3.3 1.4,-3.4 1.3,-3.3 1.3,-3.2 1.4,-3.2 1.3,-3.1 1.4,-3.1 1.3,-3.1 1.3,-3 1.4,-3 1.3,-2.9 1.4,-2.9 1.3,-2.8 1.3,-2.8 1.4,-2.8 1.3,-2.7 1.3,-2.6 1.4,-2.6 1.3,-2.6 1.4,-2.5 1.3,-2.5 1.3,-2.4 1.4,-2.4 1.3,-2.4 1.4,-2.3 1.3,-2.2 1.3,-2.2 1.4,-2.2 1.3,-2.1 1.4,-2.1 1.3,-2 1.3,-2 1.4,-1.9 1.3,-1.9 1.3,-1.9 1.4,-1.8 1.3,-1.8 1.4,-1.7 1.3,-1.7 1.3,-1.6 1.4,-1.6 1.3,-1.5 1.4,-1.5 1.3,-1.5 1.3,-1.4 1.4,-1.3 1.3,-1.3 1.3,-1.3 1.4,-1.2 1.3,-1.2 1.4,-1.2 1.3,-1.1 1.3,-1 1.4,-1 1.3,-1 1.4,-0.9 1.3,-0.8 1.3,-0.9 1.4,-0.8 1.3,-0.7 1.4,-0.7 1.3,-0.6 1.3,-0.6 1.4,-0.6 1.3,-0.5 1.3,-0.5 1.4,-0.4 m -116.3,238 0,-0.2 1.4,-4.5 1.3,-4.5 1.4,-4.4 1.3,-4.4 1.3,-4.3 1.4,-4.4 1.3,-4.2 1.4,-4.2 1.3,-4.2 1.3,-4.1 1.4,-4.1 1.3,-4 1.4,-4 1.3,-4 1.3,-3.9 1.4,-3.8 1.3,-3.8 1.3,-3.7 1.4,-3.7 1.3,-3.7 1.4,-3.6 1.3,-3.6 1.3,-3.5 1.4,-3.5 1.3,-3.5 1.4,-3.4 1.3,-3.4 1.3,-3.3 1.4,-3.2 1.3,-3.3 1.3,-3.2 1.4,-3.1 1.3,-3.1 1.4,-3 1.3,-3 1.3,-3 1.4,-2.9 1.3,-2.9 1.4,-2.8 1.3,-2.8 1.3,-2.7 1.4,-2.7 1.3,-2.7 1.4,-2.6 1.3,-2.5 1.3,-2.6 1.4,-2.4 1.3,-2.4 1.3,-2.4 1.4,-2.4 1.3,-2.2 1.4,-2.3 1.3,-2.2 1.3,-2.1 1.4,-2.2 1.3,-2 1.4,-2 1.3,-2 1.3,-2 1.4,-1.8 1.3,-1.9 1.3,-1.8 1.4,-1.7 1.3,-1.8 1.4,-1.6 1.3,-1.6 1.3,-1.6 1.4,-1.5 1.3,-1.5 1.4,-1.5 1.3,-1.4 1.3,-1.3 1.4,-1.3 1.3,-1.3 1.4,-1.2 1.3,-1.2 1.3,-1.1 1.4,-1.1 1.3,-1 1.3,-1 1.4,-1 1.3,-0.9 1.4,-0.8 1.3,-0.8 1.3,-0.8 1.4,-0.7 1.3,-0.7 1.4,-0.7 1.3,-0.6 1.3,-0.5 1.4,-0.5 1.3,-0.5 1.3,-0.4 1.4,-0.3 1.3,-0.4 1.4,-0.2 1.3,-0.3 1.3,-0.2 h 0.01"
         id="path183"
         style="stroke:#add8e6;stroke-opacity:1" />
      <path
         inkscape:connector-curvature="0"
         d="m 166.5,292.4 1.3,-4.4 1.3,-4.3 1.4,-4.2 1.3,-4.2 1.4,-4.2 1.3,-4.1 1.3,-4 1.4,-4.1 1.3,-3.9 1.4,-4 1.3,-3.9 1.3,-3.8 1.4,-3.8 1.3,-3.8 1.3,-3.7 1.4,-3.5 1.3,-3.7 1.4,-3.5 1.3,-3.6 1.3,-3.5 1.4,-3.4 1.3,-3.4 1.4,-3.4 1.3,-3.3 1.3,-3.2 1.4,-3.3 1.3,-3.1 1.4,-3.2 1.3,-3 1.3,-3.1 1.4,-3 1.3,-2.9 1.3,-2.9 1.4,-2.9 1.3,-2.8 1.4,-2.8 1.3,-2.7 1.3,-2.7 1.4,-2.6 1.3,-2.6 1.4,-2.6 1.3,-2.5 1.3,-2.4 1.4,-2.5 1.3,-2.3 1.3,-2.3 1.4,-2.3 1.3,-2.3 1.4,-2.2 1.3,-2.1 1.3,-2.1 1.4,-2.1 1.3,-2 1.4,-1.9 1.3,-2 1.3,-1.8 1.4,-1.9 1.3,-1.8 1.4,-1.7 1.3,-1.7 1.3,-1.7 1.4,-1.6 1.3,-1.5 1.3,-1.6 1.4,-1.4 1.3,-1.5 1.4,-1.4 1.3,-1.3 1.3,-1.3 1.4,-1.2 1.3,-1.3 1.4,-1.1 1.3,-1.1 1.3,-1.1 1.4,-1 1.3,-1 1.3,-1 1.4,-0.9 1.3,-0.8 1.4,-0.8 1.3,-0.8 1.3,-0.7 1.4,-0.7 1.3,-0.6 1.4,-0.6 1.3,-0.5 1.3,-0.5 1.4,-0.5 1.3,-0.4 1.4,-0.3 1.3,-0.3 1.3,-0.3 1.4,-0.2 1.3,-0.2 1.3,-0.1 1.4,-0.1 1.3,-0.1 1.4,0 1.3,0.1 m -117.6,198.7 1.4,-4.1 1.3,-4.1 1.3,-4 1.4,-4 1.3,-3.9 1.4,-3.9 1.3,-3.8 1.3,-3.8 1.4,-3.8 1.3,-3.7 1.4,-3.6 1.3,-3.6 1.3,-3.5 1.4,-3.5 1.3,-3.5 1.3,-3.4 1.4,-3.4 1.3,-3.4 1.4,-3.3 1.3,-3.2 1.3,-3.2 1.4,-3.2 1.3,-3.1 1.4,-3.1 1.3,-3 1.3,-3 1.4,-3 1.3,-2.8 1.4,-2.9 1.3,-2.8 1.3,-2.8 1.4,-2.7 1.3,-2.7 1.3,-2.6 1.4,-2.6 1.3,-2.5 1.4,-2.5 1.3,-2.5 1.3,-2.4 1.4,-2.3 1.3,-2.3 1.4,-2.3 1.3,-2.2 1.3,-2.2 1.4,-2.2 1.3,-2 1.3,-2.1 1.4,-2 1.3,-2 1.4,-1.9 1.3,-1.8 1.3,-1.9 1.4,-1.7 1.3,-1.8 1.4,-1.7 1.3,-1.6 1.3,-1.6 1.4,-1.6 1.3,-1.5 1.4,-1.4 1.3,-1.5 1.3,-1.3 1.4,-1.4 1.3,-1.3 1.3,-1.2 1.4,-1.2 1.3,-1.2 1.4,-1.1 1.3,-1 1.3,-1.1 1.4,-0.9 1.3,-1 1.4,-0.9 1.3,-0.8 1.3,-0.8 1.4,-0.7 1.3,-0.7 1.3,-0.7 1.4,-0.6 1.3,-0.6 1.4,-0.5 1.3,-0.5 1.3,-0.4 1.4,-0.4 1.3,-0.4 1.4,-0.3 1.3,-0.3 1.3,-0.2 1.3,-0.1 1.3,-0.2 1.4,-0.1 1.3,0 1.3,0 1.4,0.1 1.3,0.1 1.3,0.1 1.4,0.2 1.3,0.2 1.4,0.3 m -117.5,176.9 1.3,-3.9 1.4,-3.8 1.3,-3.8 1.3,-3.8 1.4,-3.6 1.3,-3.7 1.4,-3.6 1.3,-3.6 1.3,-3.5 1.4,-3.3 1.3,-3.5 1.4,-3.3 1.3,-3.4 1.3,-3.3 1.4,-3.2 1.3,-3.2 1.3,-3.2 1.4,-3.1 1.3,-3 1.4,-3.1 1.3,-2.9 1.3,-3 1.4,-2.9 1.3,-2.8 1.4,-2.8 1.3,-2.8 1.3,-2.7 1.4,-2.6 1.3,-2.6 1.3,-2.6 1.4,-2.5 1.3,-2.5 1.4,-2.5 1.3,-2.4 1.3,-2.3 1.4,-2.3 1.3,-2.3 1.4,-2.2 1.3,-2.2 1.3,-2.1 1.4,-2.1 1.3,-2 1.4,-2 1.3,-2 1.3,-1.9 1.4,-1.8 1.3,-1.8 1.3,-1.8 1.4,-1.7 1.3,-1.7 1.4,-1.7 1.3,-1.6 1.3,-1.5 1.4,-1.5 1.3,-1.5 1.4,-1.4 1.3,-1.3 1.3,-1.4 1.4,-1.2 1.3,-1.3 1.3,-1.2 1.4,-1.1 1.3,-1.1 1.4,-1.1 1.3,-1 1.3,-0.9 1.4,-1 1.3,-0.8 1.4,-0.9 1.3,-0.8 1.3,-0.7 1.4,-0.7 1.3,-0.6 1.4,-0.7 1.3,-0.5 1.3,-0.5 1.4,-0.5 1.2,-0.4 1.3,-0.4 1.4,-0.4 1.3,-0.3 1.4,-0.2 1.3,-0.2 1.3,-0.2 1.4,-0.1 1.3,-0.1 1.4,0 1.3,0 1.3,0.1 1.4,0.1 1.3,0.1 1.3,0.2 1.4,0.3 1.3,0.3 1.4,0.3 1.3,0.4 1.3,0.4 1.4,0.5 1.3,0.5 m -117.5,155 1.4,-3.7 1.3,-3.6 1.4,-3.5 1.3,-3.5 1.3,-3.5 1.4,-3.4 1.3,-3.2 1.4,-3.4 1.3,-3.3 1.3,-3.2 1.4,-3.2 1.3,-3.1 1.3,-3.1 1.4,-3.1 1.3,-3 1.4,-3 1.3,-2.9 1.3,-2.9 1.4,-2.8 1.3,-2.8 1.4,-2.7 1.3,-2.7 1.3,-2.7 1.4,-2.6 1.3,-2.6 1.4,-2.5 1.3,-2.5 1.3,-2.4 1.4,-2.4 1.3,-2.3 1.3,-2.3 1.4,-2.3 1.3,-2.2 1.4,-2.1 1.3,-2.2 1.3,-2 1.4,-2.1 1.3,-1.9 1.4,-2 1.3,-1.9 1.3,-1.8 1.4,-1.8 1.3,-1.8 1.3,-1.7 1.4,-1.7 1.3,-1.6 1.4,-1.6 1.3,-1.5 1.3,-1.5 1.4,-1.5 1.3,-1.4 1.4,-1.3 1.3,-1.3 1.3,-1.3 1.4,-1.2 1.3,-1.2 1.4,-1.2 1.3,-1 1.3,-1.1 1.4,-1 1.3,-0.9 1.3,-1 1.4,-0.8 1.3,-0.8 1.4,-0.8 1.3,-0.8 1.2,-0.6 1.4,-0.7 1.3,-0.6 1.4,-0.5 1.3,-0.5 1.3,-0.5 1.4,-0.4 1.3,-0.4 1.3,-0.3 1.4,-0.3 1.3,-0.3 1.4,-0.2 1.3,-0.1 1.3,-0.1 1.4,-0.1 1.3,0 1.4,0 1.3,0.1 1.3,0.1 1.4,0.2 1.3,0.2 1.4,0.2 1.3,0.3 1.3,0.4 1.4,0.3 1.3,0.5 1.3,0.5 1.4,0.5 1.3,0.5 1.4,0.6 1.3,0.7 1.3,0.7 1.4,0.7 m -117.5,133.2 1.3,-3.4 1.4,-3.4 1.3,-3.3 1.4,-3.2 1.3,-3.2 1.3,-3.2 1.4,-3.1 1.3,-3.1 1.4,-3 1.3,-3 1.3,-3 1.4,-2.9 1.3,-2.9 1.3,-2.8 1.4,-2.8 1.3,-2.7 1.4,-2.7 1.3,-2.6 1.3,-2.6 1.4,-2.6 1.3,-2.5 1.4,-2.5 1.3,-2.4 1.3,-2.4 1.4,-2.3 1.3,-2.3 1.3,-2.2 1.4,-2.2 1.3,-2.2 1.4,-2.1 1.3,-2.1 1.3,-2 1.4,-2 1.3,-1.9 1.4,-1.9 1.3,-1.8 1.3,-1.8 1.4,-1.8 1.3,-1.7 1.4,-1.6 1.3,-1.7 1.3,-1.5 1.4,-1.6 1.3,-1.4 1.3,-1.5 1.4,-1.4 1.3,-1.3 1.4,-1.3 1.3,-1.3 1.3,-1.2 1.4,-1.2 1.3,-1.1 1.4,-1.1 1.3,-1 1.3,-1 1.3,-0.9 1.3,-0.9 1.3,-0.9 1.4,-0.8 1.3,-0.8 1.4,-0.7 1.3,-0.7 1.3,-0.6 1.4,-0.6 1.3,-0.6 1.4,-0.5 1.3,-0.4 1.3,-0.4 1.4,-0.4 1.3,-0.3 1.4,-0.3 1.3,-0.2 1.3,-0.2 1.4,-0.1 1.3,-0.1 1.3,-0.1 1.4,0 1.3,0 1.4,0.1 1.3,0.1 1.3,0.2 1.4,0.2 1.3,0.3 1.4,0.3 1.3,0.3 1.3,0.4 1.4,0.5 1.3,0.5 1.3,0.5 1.4,0.6 1.3,0.6 1.4,0.6 1.3,0.7 1.3,0.8 1.4,0.8 1.3,0.8 1.4,0.9 1.3,0.9 1.3,1 m -117.4,111.3 1.3,-3.1 1.3,-3.1 1.4,-3 1.3,-3.1 1.4,-3 1.3,-2.9 1.3,-2.9 1.4,-2.9 1.3,-2.8 1.4,-2.8 1.3,-2.7 1.3,-2.7 1.4,-2.6 1.3,-2.6 1.3,-2.5 1.4,-2.5 1.3,-2.5 1.4,-2.4 1.3,-2.4 1.3,-2.3 1.4,-2.3 1.3,-2.2 1.4,-2.2 1.3,-2.1 1.3,-2.1 1.4,-2.1 1.3,-2 1.3,-2 1.4,-1.9 1.3,-1.9 1.4,-1.8 1.3,-1.8 1.3,-1.7 1.4,-1.7 1.3,-1.7 1.4,-1.6 1.3,-1.6 1.3,-1.5 1.4,-1.4 1.3,-1.5 1.4,-1.4 1.3,-1.3 1.3,-1.3 1.3,-1.2 1.3,-1.3 1.3,-1.1 1.4,-1.1 1.3,-1.1 1.4,-1 1.3,-1 1.3,-0.9 1.4,-0.9 1.3,-0.9 1.4,-0.8 1.3,-0.7 1.3,-0.8 1.4,-0.6 1.3,-0.7 1.3,-0.5 1.4,-0.6 1.3,-0.5 1.4,-0.4 1.3,-0.4 1.3,-0.4 1.4,-0.3 1.3,-0.2 1.4,-0.3 1.3,-0.1 1.3,-0.2 1.4,-0.1 1.3,0 1.4,0 1.3,0 1.3,0.1 1.4,0.2 1.3,0.1 1.3,0.3 1.4,0.2 1.3,0.3 1.4,0.4 1.3,0.4 1.3,0.5 1.4,0.5 1.3,0.5 1.4,0.6 1.3,0.6 1.3,0.7 1.4,0.7 1.3,0.7 1.3,0.9 1.4,0.8 1.3,0.9 1.4,0.9 1.3,1 1.3,1.1 1.4,1 1.3,1.1 1.4,1.2 1.3,1.2 h 0.01"
         id="path185"
         style="stroke:#add8e6;stroke-opacity:1" />
      <path
         inkscape:connector-curvature="0"
         d="m 256.2,228.4 1.4,-2.9 1.3,-2.9 1.3,-2.9 1.4,-2.8 1.3,-2.7 1.4,-2.8 1.3,-2.6 1.3,-2.7 1.4,-2.5 1.3,-2.6 1.3,-2.5 1.4,-2.4 1.3,-2.4 1.4,-2.4 1.3,-2.3 1.3,-2.3 1.4,-2.2 1.3,-2.2 1.4,-2.1 1.3,-2.1 1.3,-2 1.4,-2 1.3,-2 1.4,-1.9 1.3,-1.9 1.3,-1.8 1.4,-1.8 1.3,-1.7 1.3,-1.7 1.4,-1.6 1.3,-1.6 1.4,-1.6 1.2,-1.5 1.3,-1.5 1.4,-1.4 1.3,-1.4 1.4,-1.3 1.3,-1.3 1.3,-1.2 1.4,-1.2 1.3,-1.2 1.3,-1.1 1.4,-1 1.3,-1 1.4,-1 1.3,-0.9 1.3,-0.9 1.4,-0.9 1.3,-0.8 1.4,-0.7 1.3,-0.7 1.3,-0.7 1.4,-0.6 1.3,-0.6 1.4,-0.5 1.3,-0.5 1.3,-0.4 1.4,-0.4 1.3,-0.3 1.3,-0.3 1.4,-0.3 1.3,-0.2 1.4,-0.2 1.3,-0.1 1.3,-0.1 1.4,0 1.3,0 1.4,0 1.3,0.1 1.3,0.2 1.4,0.2 1.3,0.2 1.3,0.3 1.4,0.3 1.3,0.4 1.4,0.4 1.3,0.5 1.3,0.5 1.4,0.5 1.3,0.6 1.4,0.6 1.3,0.7 1.3,0.7 1.4,0.8 1.3,0.8 1.4,0.9 1.3,0.9 1.3,0.9 1.4,1 1.3,1.1 1.3,1 1.4,1.2 1.3,1.2 1.4,1.2 1.3,1.2 1.3,1.3 1.4,1.4 1.3,1.4 1.4,1.4 m -117.5,67.8 1.3,-2.7 1.4,-2.7 1.3,-2.6 1.3,-2.6 1.4,-2.5 1.3,-2.5 1.4,-2.4 1.3,-2.4 1.3,-2.4 1.4,-2.3 1.3,-2.2 1.3,-2.3 1.4,-2.1 1.3,-2.2 1.4,-2 1.3,-2.1 1.3,-2 1.4,-1.9 1.3,-1.9 1.4,-1.9 1.3,-1.8 1.2,-1.7 1.4,-1.8 1.3,-1.6 1.3,-1.7 1.4,-1.6 1.3,-1.5 1.4,-1.5 1.3,-1.5 1.3,-1.4 1.4,-1.3 1.3,-1.4 1.4,-1.2 1.3,-1.3 1.3,-1.2 1.4,-1.1 1.3,-1.1 1.4,-1.1 1.3,-1 1.3,-0.9 1.4,-0.9 1.3,-0.9 1.3,-0.8 1.4,-0.8 1.3,-0.8 1.4,-0.7 1.3,-0.6 1.3,-0.6 1.4,-0.6 1.3,-0.5 1.4,-0.5 1.3,-0.4 1.3,-0.4 1.4,-0.3 1.3,-0.3 1.3,-0.3 1.4,-0.2 1.3,-0.1 1.4,-0.1 1.3,-0.1 1.3,0 1.4,0 1.3,0.1 1.4,0.1 1.3,0.1 1.3,0.2 1.4,0.3 1.3,0.2 1.4,0.4 1.3,0.4 1.3,0.4 1.4,0.4 1.3,0.6 1.3,0.5 1.4,0.6 1.3,0.7 1.4,0.7 1.3,0.7 1.3,0.8 1.4,0.8 1.3,0.9 1.4,0.9 1.3,0.9 1.3,1 1.4,1.1 1.3,1.1 1.3,1.1 1.4,1.2 1.3,1.2 1.4,1.3 1.3,1.3 1.3,1.4 1.4,1.4 1.3,1.4 1.4,1.5 1.3,1.6 1.3,1.5 1.4,1.7 1.3,1.6 m -117.5,46 1.4,-2.5 1.3,-2.4 1.4,-2.4 1.3,-2.4 1.3,-2.3 1.4,-2.2 1.3,-2.2 1.3,-2.2 1.4,-2.1 1.3,-2.1 1.3,-2 1.3,-2 1.3,-1.9 1.4,-1.9 1.3,-1.9 1.4,-1.8 1.3,-1.7 1.3,-1.7 1.4,-1.7 1.3,-1.6 1.4,-1.6 1.3,-1.5 1.3,-1.5 1.4,-1.5 1.3,-1.4 1.3,-1.3 1.4,-1.3 1.3,-1.3 1.4,-1.2 1.3,-1.2 1.3,-1.1 1.4,-1.1 1.3,-1.1 1.4,-1 1.3,-0.9 1.3,-0.9 1.4,-0.9 1.3,-0.8 1.3,-0.8 1.4,-0.7 1.3,-0.7 1.4,-0.7 1.3,-0.5 1.3,-0.6 1.4,-0.5 1.3,-0.5 1.4,-0.4 1.3,-0.4 1.3,-0.3 1.4,-0.3 1.3,-0.2 1.4,-0.2 1.3,-0.2 1.3,-0.1 1.4,0 1.3,0 1.3,0 1.4,0.1 1.3,0.1 1.4,0.2 1.3,0.2 1.3,0.2 1.4,0.3 1.3,0.4 1.4,0.3 1.3,0.5 1.3,0.4 1.4,0.6 1.3,0.5 1.3,0.6 1.4,0.7 1.3,0.7 1.4,0.7 1.3,0.8 1.3,0.9 1.4,0.8 1.3,1 1.4,0.9 1.3,1 1.3,1.1 1.4,1.1 1.3,1.2 1.4,1.1 1.3,1.3 1.3,1.3 1.4,1.3 1.3,1.4 1.3,1.4 1.4,1.4 1.3,1.5 1.4,1.6 1.3,1.6 1.3,1.6 1.4,1.7 1.3,1.7 1.4,1.8 1.3,1.8 1.3,1.9 1.4,1.9 m -117.6,24 1.3,-2.2 1.4,-2.2 1.3,-2.1 1.4,-2.1 1.3,-2.1 1.3,-2 1.4,-2 1.3,-1.9 1.3,-1.9 1.4,-1.8 1.3,-1.8 1.4,-1.8 1.3,-1.7 1.3,-1.7 1.4,-1.6 1.3,-1.5 1.4,-1.6 1.3,-1.4 1.3,-1.5 1.4,-1.4 1.3,-1.3 1.4,-1.3 1.3,-1.3 1.3,-1.2 1.4,-1.2 1.3,-1.1 1.3,-1.1 1.4,-1 1.3,-1 1.4,-0.9 1.3,-0.9 1.3,-0.9 1.4,-0.8 1.3,-0.8 1.4,-0.7 1.3,-0.7 1.3,-0.6 1.4,-0.6 1.3,-0.5 1.3,-0.5 1.4,-0.5 1.3,-0.4 1.4,-0.3 1.3,-0.4 1.3,-0.2 1.4,-0.3 1.3,-0.1 1.4,-0.2 1.3,-0.1 1.3,0 1.4,0 1.3,0 1.4,0.1 1.3,0.1 1.3,0.2 1.4,0.2 1.3,0.3 1.3,0.3 1.4,0.3 1.3,0.4 1.4,0.5 1.3,0.4 1.3,0.6 1.4,0.6 1.3,0.6 1.4,0.6 1.3,0.7 1.3,0.8 1.4,0.8 1.3,0.8 1.3,0.9 1.4,1 1.3,0.9 1.4,1.1 1.3,1 1.3,1.1 1.4,1.2 1.3,1.2 1.4,1.2 1.3,1.3 1.3,1.4 1.4,1.3 1.3,1.5 1.4,1.4 1.3,1.6 1.3,1.5 1.4,1.6 1.3,1.7 1.3,1.7 1.4,1.7 1.3,1.8 1.4,1.8 1.3,1.9 1.3,1.9 1.4,1.9 1.3,2.1 1.4,2 1.3,2.1 1.3,2.1 M 316,210 l 1.3,-2 1.3,-2 1.4,-1.9 1.3,-1.9 1.4,-1.8 1.3,-1.8 1.3,-1.8 1.4,-1.7 1.3,-1.6 1.3,-1.6 1.4,-1.6 1.3,-1.5 1.4,-1.5 1.3,-1.4 1.3,-1.4 1.4,-1.3 1.3,-1.3 1.4,-1.2 1.3,-1.2 1.3,-1.2 1.4,-1.1 1.3,-1.1 1.3,-1 1.4,-1 1.3,-0.9 1.4,-0.9 1.3,-0.9 1.3,-0.8 1.4,-0.7 1.3,-0.7 1.4,-0.7 1.3,-0.6 1.3,-0.6 1.4,-0.5 1.3,-0.5 1.4,-0.5 1.3,-0.4 1.3,-0.3 1.4,-0.3 1.3,-0.3 1.3,-0.2 1.4,-0.2 1.3,-0.1 1.4,-0.1 1.3,0 1.3,0 1.4,0 1.3,0.1 1.4,0.1 1.3,0.2 1.3,0.2 1.4,0.3 1.3,0.3 1.3,0.4 1.4,0.4 1.3,0.5 1.4,0.4 1.3,0.6 1.3,0.6 1.4,0.6 1.3,0.7 1.4,0.7 1.3,0.8 1.3,0.8 1.4,0.8 1.3,0.9 1.4,1 1.3,0.9 1.3,1.1 1.4,1 1.3,1.2 1.3,1.1 1.4,1.2 1.3,1.3 1.4,1.3 1.3,1.3 1.3,1.4 1.4,1.5 1.3,1.4 1.4,1.6 1.3,1.5 1.3,1.6 1.4,1.7 1.3,1.7 1.3,1.8 1.4,1.7 1.3,1.9 1.4,1.9 1.3,1.9 1.3,2 1.4,2 1.3,2 1.4,2.1 1.3,2.2 1.3,2.2 1.4,2.2 1.3,2.3 1.4,2.3 0,0.1 m -116.3,-17.3 1.4,-1.8 1.3,-1.7 1.3,-1.7 1.4,-1.7 1.3,-1.5 1.3,-1.6 1.4,-1.5 1.3,-1.5 1.4,-1.4 1.3,-1.4 1.3,-1.3 1.4,-1.3 1.3,-1.2 1.4,-1.2 1.3,-1.1 1.3,-1.2 1.4,-1 1.3,-1 1.4,-1 1.3,-0.9 1.3,-0.9 1.4,-0.8 1.3,-0.8 1.3,-0.8 1.4,-0.7 1.3,-0.6 1.4,-0.7 1.3,-0.5 1.3,-0.5 1.4,-0.5 1.3,-0.5 1.4,-0.3 1.3,-0.4 1.3,-0.3 1.4,-0.2 1.3,-0.3 1.3,-0.1 1.4,-0.1 1.3,-0.1 1.4,-0.1 1.3,0.1 1.3,0 1.4,0.1 1.3,0.2 1.4,0.2 1.3,0.2 1.3,0.3 1.4,0.3 1.3,0.4 1.4,0.4 1.3,0.4 1.3,0.6 1.4,0.5 1.3,0.6 1.3,0.6 1.4,0.7 1.3,0.7 1.4,0.8 1.3,0.8 1.3,0.9 1.4,0.9 1.3,1 1.4,0.9 1.3,1.1 1.3,1.1 1.4,1.1 1.3,1.2 1.3,1.2 1.4,1.3 1.3,1.3 1.4,1.3 1.3,1.4 1.3,1.5 1.4,1.5 1.3,1.5 1.4,1.6 1.3,1.6 1.3,1.7 1.4,1.7 1.3,1.7 1.4,1.8 1.3,1.9 1.3,1.9 1.4,1.9 1.3,2 1.3,2 1.4,2.1 1.3,2.1 1.4,2.1 1.3,2.2 1.3,2.3 1.4,2.2 1.1,1.9 h 0.01"
         id="path187"
         style="stroke:#add8e6;stroke-opacity:1" />
      <path
         inkscape:connector-curvature="0"
         d="m 345.9,208 1.3,-1.5 1.4,-1.5 1.3,-1.5 1.3,-1.4 1.4,-1.3 1.3,-1.4 1.3,-1.2 1.4,-1.3 1.3,-1.2 1.4,-1.1 1.3,-1.1 1.3,-1 1.4,-1 1.3,-1 1.4,-0.9 1.3,-0.9 1.3,-0.8 1.4,-0.8 1.3,-0.7 1.3,-0.7 1.4,-0.7 1.3,-0.6 1.4,-0.5 1.3,-0.6 1.3,-0.4 1.4,-0.5 1.3,-0.3 1.4,-0.4 1.3,-0.3 1.3,-0.2 1.4,-0.2 1.3,-0.2 1.4,-0.1 1.3,0 1.3,-0.1 1.4,0.1 1.3,0 1.3,0.1 1.4,0.2 1.3,0.2 1.4,0.2 1.3,0.3 1.3,0.4 1.4,0.3 1.3,0.5 1.4,0.4 1.3,0.6 1.3,0.5 1.4,0.6 1.3,0.7 1.3,0.7 1.4,0.7 1.3,0.8 1.4,0.8 1.3,0.9 1.3,0.9 1.4,1 1.3,1 1.4,1 1.3,1.1 1.3,1.1 1.4,1.2 1.3,1.3 1.4,1.2 1.3,1.3 1.3,1.4 1.4,1.4 1.3,1.5 1.3,1.5 1.4,1.5 1.3,1.6 1.4,1.6 1.3,1.7 1.3,1.7 1.4,1.8 1.3,1.8 1.4,1.9 1.3,1.9 1.3,1.9 1.4,2 1.3,2 1.3,2.1 1.4,2 1.3,2.2 1.4,2.2 1.3,2.3 1.3,2.3 0.9,1.4 m -102.4,-33.5 1.4,-1.3 1.3,-1.3 1.3,-1.2 1.4,-1.2 1.3,-1.1 1.4,-1.1 1.3,-1.1 1.3,-1 1.4,-0.9 1.3,-0.9 1.4,-0.9 1.3,-0.8 1.3,-0.8 1.4,-0.7 1.3,-0.7 1.4,-0.6 1.3,-0.6 1.3,-0.6 1.4,-0.5 1.3,-0.4 1.3,-0.4 1.4,-0.4 1.3,-0.3 1.4,-0.3 1.3,-0.3 1.3,-0.1 1.4,-0.2 1.3,-0.1 1.4,-0.1 1.3,0 1.3,0.1 1.4,0 1.3,0.2 1.4,0.1 1.3,0.2 1.3,0.3 1.4,0.3 1.3,0.3 1.3,0.4 1.4,0.5 1.3,0.4 1.4,0.6 1.3,0.5 1.3,0.6 1.4,0.7 1.3,0.7 1.4,0.8 1.3,0.7 1.3,0.9 1.4,0.9 1.3,0.9 1.3,1 1.4,1 1.3,1 1.4,1.1 1.3,1.2 1.3,1.2 1.4,1.2 1.3,1.3 1.4,1.3 1.3,1.4 1.3,1.4 1.4,1.5 1.3,1.5 1.4,1.5 1.3,1.6 1.3,1.7 1.4,1.7 1.3,1.7 1.3,1.8 1.4,1.8 1.3,1.8 1.4,2 1.3,1.8 1.3,2 1.4,2 1.3,2.1 1.4,2.2 1.3,2.1 1.3,2.3 1.4,2.2 1.3,2.3 0.5,1 m -95.3,-39.9 1.3,-1 1.4,-1.1 1.3,-1 1.3,-0.9 1.4,-0.9 1.3,-0.9 1.4,-0.8 1.3,-0.7 1.3,-0.7 1.4,-0.7 1.3,-0.7 1.4,-0.5 1.3,-0.6 1.3,-0.5 1.4,-0.4 1.3,-0.4 1.4,-0.4 1.3,-0.3 1.3,-0.3 1.4,-0.2 1.3,-0.2 1.3,-0.1 1.4,-0.1 1.3,-0.1 1.4,0 1.3,0.1 1.3,0.1 1.4,0.1 1.3,0.2 1.4,0.2 1.3,0.2 1.3,0.4 1.4,0.3 1.3,0.4 1.3,0.5 1.4,0.4 1.3,0.6 1.4,0.5 1.3,0.7 1.3,0.6 1.4,0.8 1.3,0.7 1.4,0.8 1.3,0.9 1.3,0.8 1.4,1 1.3,1 1.4,1 1.3,1.1 1.3,1.1 1.4,1.1 1.3,1.2 1.3,1.3 1.4,1.3 1.3,1.3 1.4,1.4 1.3,1.4 1.3,1.5 1.4,1.5 1.3,1.6 1.4,1.6 1.3,1.6 1.3,1.7 1.4,1.6 1.3,1.8 1.3,1.9 1.4,1.8 1.3,2 1.4,1.9 1.3,2 1.3,2.1 1.4,2.1 1.3,2.1 1.4,2.2 1.3,2.2 1.3,2.3 1.4,2.3 0.2,0.5 h 0.01"
         id="path189"
         style="stroke:#add8e6;stroke-opacity:1" />
    </g>
    <g
       id="g191"
       style="color:#000000;fill:none;stroke:#ffffff;stroke-width:1;stroke-linecap:butt;stroke-linejoin:miter"
       transform="translate(62.857146,240.93361)">
      <path
         id="path193"
         d="M 508.3,301.8 375.8,410.5 m -284.1,-50.7 284.1,50.7 0,-199.6 h 0.01"
         inkscape:connector-curvature="0"
         style="stroke:#ffffff" />
    </g>
  </g>
</svg>
