<?xml version="1.0" encoding="UTF-8" standalone="no"?>
<!-- Created with Inkscape (http://www.inkscape.org/) -->

<svg
   xmlns:dc="http://purl.org/dc/elements/1.1/"
   xmlns:cc="http://creativecommons.org/ns#"
   xmlns:rdf="http://www.w3.org/1999/02/22-rdf-syntax-ns#"
   xmlns:svg="http://www.w3.org/2000/svg"
   xmlns="http://www.w3.org/2000/svg"
   xmlns:sodipodi="http://sodipodi.sourceforge.net/DTD/sodipodi-0.dtd"
   xmlns:inkscape="http://www.inkscape.org/namespaces/inkscape"
   width="210mm"
   height="297mm"
   id="svg2"
   version="1.1"
   inkscape:version="0.48.3.1 r9886"
   sodipodi:docname="trapezoidal2.svg"
   inkscape:export-filename="/home/nineties/projects/math_seminar/fig/trapezoidal2.png"
   inkscape:export-xdpi="90"
   inkscape:export-ydpi="90">
  <sodipodi:namedview
     id="base"
     pagecolor="#000000"
     bordercolor="#666666"
     borderopacity="1.0"
     inkscape:pageopacity="0"
     inkscape:pageshadow="2"
     inkscape:zoom="0.98994949"
     inkscape:cx="362.54806"
     inkscape:cy="578.45402"
     inkscape:document-units="px"
     inkscape:current-layer="layer1"
     showgrid="false"
     inkscape:window-width="1366"
     inkscape:window-height="746"
     inkscape:window-x="0"
     inkscape:window-y="22"
     inkscape:window-maximized="0" />
  <defs
     id="defs4">
    <marker
       inkscape:stockid="Arrow1Lend"
       orient="auto"
       refY="0.0"
       refX="0.0"
       id="Arrow1Lend"
       style="overflow:visible;">
      <path
         id="path3762"
         d="M 0.0,0.0 L 5.0,-5.0 L -12.5,0.0 L 5.0,5.0 L 0.0,0.0 z "
         style="fill-rule:evenodd;stroke:#000000;stroke-width:1.0pt;"
         transform="scale(0.8) rotate(180) translate(12.5,0)" />
    </marker>
    <marker
       inkscape:stockid="Arrow1Lendc"
       orient="auto"
       refY="0.0"
       refX="0.0"
       id="Arrow1Lendc"
       style="overflow:visible;">
      <path
         id="path4204"
         d="M 0.0,0.0 L 5.0,-5.0 L -12.5,0.0 L 5.0,5.0 L 0.0,0.0 z "
         style="stroke:#ffffff;stroke-width:1.0pt;fill:#ffffff;fill-rule:evenodd"
         transform="scale(0.8) rotate(180) translate(12.5,0)" />
    </marker>
  </defs>
  <metadata
     id="metadata7">
    <rdf:RDF>
      <cc:Work
         rdf:about="">
        <dc:format>image/svg+xml</dc:format>
        <dc:type
           rdf:resource="http://purl.org/dc/dcmitype/StillImage" />
        <dc:title></dc:title>
      </cc:Work>
    </rdf:RDF>
  </metadata>
  <g
     inkscape:label="レイヤー 1"
     inkscape:groupmode="layer"
     id="layer1">
    <path
       style="stroke-linejoin:miter;marker-end:url(#Arrow1Lendc);stroke-opacity:1;stroke:#ffffff;stroke-linecap:butt;stroke-miterlimit:4;stroke-dasharray:none;stroke-width:1;fill:none"
       d="m 40,649.50504 665.71429,0"
       id="path2985"
       inkscape:connector-curvature="0" />
    <g
       id="g4259"
       style="fill:#ffffff"
       transform="matrix(0.58027672,0,0,0.58027672,415.71378,253.58397)">
      <g
         word-spacing="normal"
         letter-spacing="normal"
         font-size-adjust="none"
         font-stretch="normal"
         font-weight="normal"
         font-variant="normal"
         font-style="normal"
         stroke-miterlimit="10.433"
         xml:space="preserve"
         transform="matrix(1.0629921,0,0,-1.0629921,-186.02362,789.27165)"
         id="content"
         style="font-style:normal;font-variant:normal;font-weight:normal;font-stretch:normal;letter-spacing:normal;word-spacing:normal;text-anchor:start;fill:#ffffff;fill-opacity:1;fill-rule:evenodd;stroke:#000000;stroke-linecap:butt;stroke-linejoin:miter;stroke-miterlimit:10.43299961;stroke-opacity:1;stroke-dasharray:none;stroke-dashoffset:0"><path
           id="path4262"
           d="m 479.74,425.18 0.01,0.04 0.01,0.03 0.01,0.06 0.02,0.05 0.01,0.06 0.01,0.05 0.02,0.04 0.01,0.05 0.01,0.04 0.01,0.04 0,0.04 0.01,0.04 0.01,0.04 0.01,0.03 0,0.03 0.01,0.03 0,0.03 0.01,0.03 0,0.03 0.01,0.05 0,0.06 0,0.05 0,0.05 0.01,0.05 0,0.03 0,0.03 0,0.03 0,0.03 c 0,0.91 -0.69,1.35 -1.44,1.35 -0.5,0 -1.3,-0.3 -1.75,-1.05 -0.1,-0.25 -0.5,-1.78 -0.69,-2.69 -0.36,-1.29 -0.7,-2.64 -1,-3.98 l -2.25,-8.97 c -0.19,-0.75 -2.33,-4.23 -5.62,-4.23 -2.54,0 -3.1,2.18 -3.1,4.03 0,2.29 0.86,5.39 2.55,9.76 0.8,2.05 1,2.6 1,3.6 0,2.23 -1.59,4.07 -4.09,4.07 -4.74,0 -6.58,-7.21 -6.58,-7.67 0,-0.5 0.5,-0.5 0.61,-0.5 0.5,0 0.54,0.11 0.79,0.91 1.35,4.69 3.33,6.17 5.03,6.17 0.4,0 1.25,0 1.25,-1.59 0,-1.25 -0.5,-2.53 -0.85,-3.49 -1.99,-5.28 -2.9,-8.12 -2.9,-10.47 0,-4.42 3.15,-5.92 6.08,-5.92 1.96,0 3.64,0.85 5.03,2.24 -0.64,-2.58 -1.23,-5.03 -3.23,-7.68 -1.3,-1.68 -3.19,-3.14 -5.48,-3.14 -0.69,0 -2.94,0.16 -3.79,2.1 0.8,0 1.46,0 2.14,0.61 0.5,0.43 1,1.09 1,2.03 0,1.55 -1.34,1.75 -1.84,1.75 -1.14,0 -2.8,-0.8 -2.8,-3.24 0,-2.5 2.21,-4.34 5.29,-4.34 5.14,0 10.26,4.55 11.67,10.17 z"
           style="fill:#ffffff;stroke-width:0"
           inkscape:connector-curvature="0" /><path
           id="path4264"
           d="m 529.83,422.5 0.14,0 0.15,0 0.14,0 0.07,0.01 0.08,0 0.07,0.01 0.07,0.01 0.07,0.01 0.07,0.01 0.07,0.01 0.06,0.02 0.07,0.02 0.06,0.02 0.06,0.02 0.06,0.03 0.06,0.03 0.05,0.04 0.05,0.03 0.05,0.05 0.04,0.04 0.04,0.05 0.02,0.03 0.02,0.03 0.01,0.02 0.02,0.03 0.01,0.03 0.01,0.04 0.02,0.03 0.01,0.04 0.01,0.03 0.01,0.04 0,0.04 0.01,0.04 0,0.04 0.01,0.04 0,0.04 0,0.05 c 0,1 -0.95,1 -1.64,1 h -29.84 c -0.71,0 -1.65,0 -1.65,-1 0,-0.98 0.94,-0.98 1.69,-0.98 z"
           style="fill:#ffffff;stroke-width:0"
           inkscape:connector-curvature="0" /><path
           id="path4266"
           d="m 529.88,412.82 0.06,0 0.07,0 0.14,0.01 0.14,0 0.07,0 0.07,0.01 0.06,0.01 0.07,0 0.07,0.01 0.07,0.02 0.07,0.01 0.06,0.02 0.07,0.02 0.06,0.02 0.06,0.02 0.05,0.03 0.06,0.03 0.05,0.04 0.05,0.04 0.05,0.04 0.04,0.05 0.02,0.02 0.02,0.03 0.02,0.02 0.02,0.03 0.01,0.03 0.02,0.03 0.01,0.03 0.01,0.03 0.02,0.04 0.01,0.03 0.01,0.04 0.01,0.04 0,0.04 0.01,0.04 0,0.04 0.01,0.04 0,0.05 0,0.04 c 0,1 -0.95,1 -1.69,1 h -29.75 c -0.75,0 -1.69,0 -1.69,-1 0,-1 0.94,-1 1.65,-1 z"
           style="fill:#ffffff;stroke-width:0"
           inkscape:connector-curvature="0" /><path
           id="path4268"
           d="m 566.44,426.12 h 4.28 c 1,0 1.5,0 1.5,1 0,0.55 -0.5,0.55 -1.34,0.55 h -4.15 l 1.05,5.69 c 0.2,1.04 0.91,4.57 1.2,5.17 0.46,0.95 1.3,1.7 2.35,1.7 0.19,0 1.48,0 2.44,-0.91 -2.19,-0.18 -2.69,-1.93 -2.69,-2.68 0,-1.14 0.89,-1.74 1.84,-1.74 1.3,0 2.74,1.1 2.74,2.99 0,2.29 -2.3,3.43 -4.33,3.43 -1.71,0 -4.85,-0.89 -6.33,-5.82 -0.3,-1.05 -0.45,-1.55 -1.64,-7.83 h -3.44 c -0.95,0 -1.5,0 -1.5,-0.94 0,-0.61 0.46,-0.61 1.39,-0.61 h 3.3 l -3.75,-19.67 c -0.89,-4.83 -1.74,-9.38 -4.33,-9.38 -0.2,0 -1.44,0 -2.39,0.91 2.3,0.14 2.74,1.94 2.74,2.69 0,1.14 -0.9,1.75 -1.85,1.75 -1.3,0 -2.73,-1.1 -2.73,-3 0,-2.24 2.18,-3.44 4.23,-3.44 2.74,0 4.74,2.94 5.63,4.84 1.59,3.14 2.75,9.16 2.79,9.52 z"
           style="fill:#ffffff;stroke-width:0"
           inkscape:connector-curvature="0" /><path
           id="path4270"
           d="m 594.4,394.25 0,0.02 0,0.03 -0.01,0.01 0,0.02 0,0.01 -0.01,0.02 0,0.01 -0.01,0.02 -0.01,0.02 -0.01,0.02 -0.01,0.02 -0.01,0.03 -0.02,0.02 -0.02,0.03 -0.02,0.03 -0.02,0.03 -0.03,0.03 -0.03,0.04 -0.01,0.02 -0.02,0.02 -0.02,0.02 -0.02,0.02 -0.02,0.02 -0.02,0.03 -0.02,0.02 -0.02,0.02 -0.02,0.03 -0.02,0.02 -0.03,0.03 -0.02,0.03 -0.03,0.03 -0.03,0.03 -0.03,0.03 -0.03,0.03 -0.03,0.03 -0.03,0.03 -0.03,0.04 -0.04,0.03 -0.03,0.04 -0.04,0.03 -0.04,0.04 -0.04,0.04 c -6.21,6.28 -7.81,15.69 -7.81,23.31 0,8.67 1.89,17.35 8.02,23.56 0.64,0.61 0.64,0.71 0.64,0.86 0,0.35 -0.19,0.49 -0.49,0.49 -0.5,0 -4.98,-3.38 -7.92,-9.7 -2.54,-5.49 -3.14,-11.02 -3.14,-15.21 0,-3.89 0.55,-9.9 3.28,-15.54 2.99,-6.13 7.28,-9.36 7.78,-9.36 0.3,0 0.49,0.14 0.49,0.5 z"
           style="fill:#ffffff;stroke-width:0"
           inkscape:connector-curvature="0" /><path
           id="path4272"
           d="m 613.87,421.25 0.03,0.13 0.04,0.15 0.04,0.16 0.04,0.18 0.06,0.19 0.06,0.21 0.06,0.22 0.08,0.22 0.08,0.23 0.08,0.24 0.1,0.25 0.1,0.24 0.11,0.25 0.12,0.25 0.13,0.25 0.14,0.25 0.15,0.24 0.15,0.24 0.17,0.23 0.18,0.22 0.18,0.22 0.2,0.2 0.21,0.19 0.22,0.18 0.23,0.16 0.25,0.14 0.13,0.07 0.13,0.06 0.13,0.05 0.13,0.05 0.14,0.05 0.15,0.04 0.14,0.03 0.15,0.03 0.15,0.02 0.16,0.02 0.16,0.01 0.16,0 c 0.25,0 1.44,0 2.48,-0.64 -1.39,-0.25 -2.39,-1.5 -2.39,-2.69 0,-0.79 0.55,-1.75 1.89,-1.75 1.1,0 2.69,0.89 2.69,2.89 0,2.6 -2.94,3.28 -4.63,3.28 -2.88,0 -4.63,-2.64 -5.23,-3.78 -1.25,3.28 -3.94,3.78 -5.37,3.78 -5.19,0 -8.03,-6.42 -8.03,-7.67 0,-0.5 0.5,-0.5 0.6,-0.5 0.4,0 0.55,0.11 0.65,0.55 1.68,5.28 4.98,6.53 6.67,6.53 0.95,0 2.68,-0.44 2.68,-3.33 0,-1.54 -0.84,-4.89 -2.68,-11.86 -0.8,-3.09 -2.54,-5.18 -4.74,-5.18 -0.3,0 -1.43,0 -2.48,0.65 1.25,0.24 2.34,1.28 2.34,2.69 0,1.34 -1.09,1.73 -1.84,1.73 -1.5,0 -2.75,-1.29 -2.75,-2.89 0,-2.28 2.5,-3.28 4.68,-3.28 3.3,0 5.08,3.49 5.24,3.78 0.59,-1.84 2.39,-3.78 5.38,-3.78 5.13,0 7.98,6.42 7.98,7.67 0,0.5 -0.45,0.5 -0.61,0.5 -0.44,0 -0.55,-0.2 -0.64,-0.54 -1.64,-5.33 -5.03,-6.53 -6.63,-6.53 -1.95,0 -2.75,1.59 -2.75,3.29 0,1.1 0.3,2.19 0.86,4.38 z"
           style="fill:#ffffff;stroke-width:0"
           inkscape:connector-curvature="0" /><path
           id="path4274"
           d="m 640.06,418.65 0,0.37 -0.01,0.39 -0.01,0.39 -0.01,0.41 -0.04,0.84 -0.06,0.88 -0.08,0.92 -0.11,0.95 -0.13,0.97 -0.17,1.01 -0.19,1.02 -0.23,1.03 -0.27,1.05 -0.31,1.06 -0.34,1.07 -0.4,1.07 -0.21,0.53 -0.23,0.53 -0.23,0.53 -0.25,0.53 c -2.99,6.12 -7.27,9.36 -7.77,9.36 -0.29,0 -0.5,-0.19 -0.5,-0.49 0,-0.15 0,-0.25 0.94,-1.15 4.89,-4.92 7.73,-12.85 7.73,-23.27 0,-8.51 -1.84,-17.28 -8.03,-23.56 -0.64,-0.59 -0.64,-0.7 -0.64,-0.84 0,-0.3 0.21,-0.5 0.5,-0.5 0.5,0 4.97,3.39 7.92,9.71 2.54,5.47 3.13,11 3.13,15.19 z"
           style="fill:#ffffff;stroke-width:0"
           inkscape:connector-curvature="0" /></g>    </g>
    <path
       style="fill:none;stroke:#ffc0cb;stroke-width:2;stroke-linecap:butt;stroke-linejoin:miter;stroke-opacity:1;stroke-miterlimit:4;stroke-dasharray:none"
       d="M 43.436559,558.39759 C 84.702236,438.26138 232.2021,399.52133 345.22722,428.40164 c 111.77089,19.68017 222.6891,113.66313 336.62575,47.16344"
       id="path4882"
       inkscape:connector-curvature="0" />
    <path
       style="fill:none;stroke:#add8e6;stroke-width:1px;stroke-linecap:butt;stroke-linejoin:miter;stroke-opacity:1"
       d="m 62.629454,518.08684 0,130.7194"
       id="path4901"
       inkscape:connector-curvature="0"
       sodipodi:nodetypes="cc" />
    <path
       style="fill:none;stroke:#add8e6;stroke-width:1px;stroke-linecap:butt;stroke-linejoin:miter;stroke-opacity:1"
       d="m 556.76245,495.2297 0,153.57654"
       id="path4901-0"
       inkscape:connector-curvature="0"
       sodipodi:nodetypes="cc" />
    <path
       style="fill:none;stroke:#add8e6;stroke-width:1px;stroke-linecap:butt;stroke-linejoin:miter;stroke-opacity:1"
       d="m 457.93582,465.2297 0,183.57654"
       id="path4901-0-0"
       inkscape:connector-curvature="0"
       sodipodi:nodetypes="cc" />
    <path
       style="fill:none;stroke:#add8e6;stroke-width:1px;stroke-linecap:butt;stroke-linejoin:miter;stroke-opacity:1"
       d="m 359.10922,431.65827 0,217.14797"
       id="path4901-0-9"
       inkscape:connector-curvature="0"
       sodipodi:nodetypes="cc" />
    <path
       style="fill:none;stroke:#add8e6;stroke-width:1px;stroke-linecap:butt;stroke-linejoin:miter;stroke-opacity:1"
       d="m 260.28265,419.51542 0,229.29082"
       id="path4901-0-90"
       inkscape:connector-curvature="0"
       sodipodi:nodetypes="cc" />
    <path
       style="fill:none;stroke:#add8e6;stroke-width:1px;stroke-linecap:butt;stroke-linejoin:miter;stroke-opacity:1"
       d="m 161.45605,439.51542 0,209.29082"
       id="path4901-0-5"
       inkscape:connector-curvature="0"
       sodipodi:nodetypes="cc" />
    <path
       style="fill:none;stroke:#add8e6;stroke-width:1px;stroke-linecap:butt;stroke-linejoin:miter;stroke-opacity:1"
       d="m 655.589,488.08684 0,160.7194"
       id="path4901-0-8"
       inkscape:connector-curvature="0"
       sodipodi:nodetypes="cc" />
    <path
       style="fill:none;stroke:#add8e6;stroke-width:2;stroke-linecap:butt;stroke-linejoin:miter;stroke-opacity:1;stroke-miterlimit:4;stroke-dasharray:none"
       d="M 62.857143,518.07647 161.42857,440.21932 260,419.50504 l 98.57143,11.42857 99.28571,34.28571 98.57143,30 L 655,488.07647"
       id="path4967"
       inkscape:connector-curvature="0" />
    <path
       style="opacity:0.4;fill:#ffffff;fill-opacity:1;stroke:#add8e6;stroke-width:1.42857146;stroke-linecap:round;stroke-miterlimit:4;stroke-opacity:1;stroke-dasharray:none;stroke-dashoffset:0"
       d="m 63.405199,584.04913 0,-64.57332 47.321431,-37.33057 c 26.02678,-20.53182 47.88393,-37.80936 48.57143,-38.39453 1.18961,-1.01256 1.25,3.91015 1.25,101.90389 l 0,102.96785 -48.57143,0 -48.571431,0 0,-64.57332 z"
       id="path4969"
       inkscape:connector-curvature="0" />
    <path
       style="opacity:0.4;fill:#ffffff;fill-opacity:1;stroke:#add8e6;stroke-width:1.42857146;stroke-linecap:round;stroke-miterlimit:4;stroke-opacity:1;stroke-dasharray:none;stroke-dashoffset:0"
       d="m 162.1528,545.13239 0.18097,-103.70434 46.46129,-9.75305 c 25.55371,-5.36417 47.3305,-9.97119 48.39286,-10.23783 l 1.93156,-0.48479 0,113.94218 0,113.94218 -48.57382,0 -48.57383,0 0.18097,-103.70435 z"
       id="path4971"
       inkscape:connector-curvature="0" />
    <path
       style="opacity:0.4;fill:#ffffff;fill-opacity:1;stroke:#add8e6;stroke-width:1.42857146;stroke-linecap:round;stroke-miterlimit:4;stroke-opacity:1;stroke-dasharray:none;stroke-dashoffset:0"
       d="m 261.26234,534.84538 0,-113.99135 2.67857,0.41473 c 1.47322,0.2281 22.28572,2.66115 46.25,5.40677 23.96429,2.74563 44.61608,5.17324 45.89286,5.39471 l 2.32143,0.40266 0,108.18192 0,108.18192 -48.57143,0 -48.57143,0 0,-113.99136 z"
       id="path4973"
       inkscape:connector-curvature="0" />
    <path
       style="opacity:0.4;fill:#ffffff;fill-opacity:1;stroke:#add8e6;stroke-width:1.42857146;stroke-linecap:round;stroke-miterlimit:4;stroke-opacity:1;stroke-dasharray:none;stroke-dashoffset:0"
       d="m 359.83377,540.92722 c 0,-91.57494 0.14976,-107.87456 0.98934,-107.67857 0.54413,0.12702 22.39879,7.6238 48.56591,16.65952 l 47.57657,16.42857 0.006,91.25 0.005,91.25 -48.57143,0 -48.57143,0 0,-107.90952 z"
       id="path4975"
       inkscape:connector-curvature="0" />
    <path
       style="opacity:0.4;fill:#ffffff;fill-opacity:1;stroke:#add8e6;stroke-width:1.42857146;stroke-linecap:round;stroke-miterlimit:4;stroke-opacity:1;stroke-dasharray:none;stroke-dashoffset:0"
       d="m 459.11949,558.0657 0,-90.77104 2.31641,0.50877 c 1.27403,0.27982 6.33653,2.02898 11.25,3.88701 27.27968,10.31582 56.44763,19.42154 74.25724,23.18182 4.74521,1.00189 8.78325,1.82162 8.97343,1.82162 0.19017,0 0.34577,34.23214 0.34577,76.07143 l 0,76.07143 -48.57143,0 -48.57142,0 0,-90.77104 z"
       id="path4977"
       inkscape:connector-curvature="0" />
    <path
       style="opacity:0.4;fill:#ffffff;fill-opacity:1;stroke:#add8e6;stroke-width:1.42857146;stroke-linecap:round;stroke-miterlimit:4;stroke-opacity:1;stroke-dasharray:none;stroke-dashoffset:0"
       d="m 557.69091,572.92179 0,-75.91495 8.39286,1.26057 c 4.61607,0.69331 15.14286,1.46659 23.39286,1.71838 21.20747,0.64727 37.5174,-1.38331 55.63262,-6.92623 3.97349,-1.21582 7.78702,-2.37939 8.47452,-2.58572 1.18523,-0.35571 1.25,3.73761 1.25,78.99388 l 0,79.36902 -48.57143,0 -48.57143,0 0,-75.91495 z"
       id="path4979"
       inkscape:connector-curvature="0" />
    <path
       style="opacity:0.4;fill:#ffffff;fill-opacity:1;stroke:#add8e6;stroke-width:1.42857146;stroke-linecap:round;stroke-miterlimit:4;stroke-opacity:1;stroke-dasharray:none;stroke-dashoffset:0"
       d="m 575.67642,496.66574 c -2.87582,-0.30166 -5.35289,-0.67258 -5.50459,-0.82428 -0.1517,-0.15169 14.73697,-1.33997 33.08592,-2.64062 18.34895,-1.30065 34.96888,-2.4989 36.93316,-2.66278 l 3.57143,-0.29798 -2.70419,1.05552 c -3.81688,1.48984 -18.86821,4.46796 -27.08908,5.35996 -7.77104,0.8432 -30.2939,0.84918 -38.29265,0.0102 z"
       id="path4981"
       inkscape:connector-curvature="0" />
    <g
       id="g5037"
       transform="matrix(0.54172695,0,0,0.54172695,-105.81979,479.26091)"
       style="fill:#ffffff">
      <g
         id="g5039"
         transform="matrix(1.0629921,0,0,-1.0629921,-186.02362,789.27165)"
         xml:space="preserve"
         stroke-miterlimit="10.433"
         font-style="normal"
         font-variant="normal"
         font-weight="normal"
         font-stretch="normal"
         font-size-adjust="none"
         letter-spacing="normal"
         word-spacing="normal"
         style="font-style:normal;font-variant:normal;font-weight:normal;font-stretch:normal;letter-spacing:normal;word-spacing:normal;text-anchor:start;fill:#ffffff;stroke:#000000;stroke-linecap:butt;stroke-linejoin:miter;stroke-miterlimit:10.43299960999999954;stroke-opacity:1;stroke-dasharray:none;stroke-dashoffset:0"><path
           d="m 474.1,425.03 -0.09,0.17 -0.09,0.17 -0.09,0.16 -0.09,0.16 -0.1,0.16 -0.1,0.16 -0.11,0.15 -0.11,0.14 -0.11,0.15 -0.12,0.13 -0.12,0.14 -0.12,0.13 -0.13,0.12 -0.13,0.12 -0.14,0.11 -0.14,0.11 -0.14,0.11 -0.15,0.09 -0.15,0.1 -0.15,0.08 -0.16,0.08 -0.17,0.08 -0.17,0.06 -0.17,0.07 -0.17,0.05 -0.18,0.05 -0.19,0.04 -0.19,0.03 -0.19,0.03 -0.2,0.02 -0.2,0.01 -0.21,0 0.05,-1.09 c 3.23,0 3.93,-4.08 3.93,-4.37 0,-0.32 -0.09,-0.61 -0.14,-0.86 l -2.5,-9.77 c -0.25,-0.89 -0.25,-0.98 -1,-1.84 -2.18,-2.74 -4.23,-3.53 -5.62,-3.53 -2.49,0 -3.19,2.73 -3.19,4.68 0,2.49 1.59,8.61 2.74,10.91 1.54,2.94 3.79,4.78 5.78,4.78 l -0.05,1.09 c -5.83,0 -12,-7.31 -12,-14.59 0,-4.69 2.73,-7.97 6.62,-7.97 0.99,0 3.49,0.21 6.47,3.74 0.41,-2.1 2.14,-3.74 4.53,-3.74 1.75,0 2.9,1.14 3.69,2.74 0.85,1.79 1.5,4.84 1.5,4.93 0,0.5 -0.45,0.5 -0.59,0.5 -0.5,0 -0.55,-0.2 -0.7,-0.9 -0.85,-3.24 -1.75,-6.17 -3.79,-6.17 -1.34,0 -1.5,1.29 -1.5,2.29 0,1.1 0.1,1.49 0.64,3.69 0.57,2.09 0.66,2.59 1.11,4.48 l 1.79,6.97 c 0.35,1.39 0.35,1.5 0.35,1.69 0,0.86 -0.6,1.36 -1.45,1.36 -1.19,0 -1.94,-1.11 -2.09,-2.2 z"
           id="path5041"
           inkscape:connector-curvature="0"
           style="fill:#ffffff;stroke-width:0" /></g>    </g>
    <g
       id="g5117"
       transform="matrix(0.54172695,0,0,0.54172695,488.1499,480.27107)"
       style="fill:#ffffff">
      <g
         word-spacing="normal"
         letter-spacing="normal"
         font-size-adjust="none"
         font-stretch="normal"
         font-weight="normal"
         font-variant="normal"
         font-style="normal"
         stroke-miterlimit="10.433"
         xml:space="preserve"
         transform="matrix(1.0629921,0,0,-1.0629921,-186.02362,789.27165)"
         id="g5119"
         style="font-style:normal;font-variant:normal;font-weight:normal;font-stretch:normal;letter-spacing:normal;word-spacing:normal;text-anchor:start;fill:#ffffff;stroke:#000000;stroke-linecap:butt;stroke-linejoin:miter;stroke-miterlimit:10.43299960999999954;stroke-opacity:1;stroke-dasharray:none;stroke-dashoffset:0"><path
           id="path5121"
           d="m 467.43,440.23 0,0 0,0.01 0,0 0,0.01 -0.01,0.02 0,0.01 0,0.02 0,0.02 0,0.02 -0.01,0.02 0,0.02 -0.01,0.02 -0.01,0.02 -0.01,0.03 -0.01,0.02 -0.01,0.03 -0.01,0.02 -0.02,0.03 -0.02,0.02 -0.02,0.02 -0.02,0.03 -0.01,0.01 -0.02,0.01 -0.01,0.01 -0.01,0.01 -0.02,0.01 -0.01,0.01 -0.02,0.01 -0.01,0.01 -0.02,0.01 -0.02,0.01 -0.02,0 -0.02,0.01 -0.02,0.01 -0.02,0 -0.02,0.01 -0.02,0.01 -0.03,0 -0.02,0 -0.03,0.01 -0.02,0 -0.03,0 -0.03,0.01 -0.03,0 -0.02,0 c -1.16,0 -4.79,-0.41 -6.08,-0.5 -0.41,-0.05 -0.96,-0.1 -0.96,-1 0,-0.6 0.46,-0.6 1.21,-0.6 2.39,0 2.48,-0.34 2.48,-0.84 0,-0.36 -0.45,-2.05 -0.7,-3.09 l -4.08,-16.24 c -0.59,-2.5 -0.8,-3.3 -0.8,-5.03 0,-4.73 2.64,-7.83 6.33,-7.83 v 1.1 c -1.7,0 -3.34,1.34 -3.34,5.03 0,0.95 0,1.89 0.79,5.03 l 1.1,4.59 c 0.3,1.1 0.3,1.19 0.75,1.74 2.44,3.23 4.69,3.98 5.98,3.98 1.8,0 3.14,-1.48 3.14,-4.69 0,-2.93 -1.65,-8.65 -2.54,-10.56 -1.64,-3.33 -3.94,-5.12 -5.88,-5.12 v -1.1 c 5.88,0 12,7.42 12,14.6 0,4.53 -2.64,7.96 -6.62,7.96 -2.28,0 -4.33,-1.43 -5.83,-2.98 z"
           inkscape:connector-curvature="0"
           style="fill:#ffffff;stroke-width:0" /></g>    </g>
  </g>
</svg>
